<svg xmlns="http://www.w3.org/2000/svg" width="321" height="255" fill="none" viewBox="0 0 321 255">
  <path fill="url(#a)" d="M297.7 239.6H21.972c-4.44 0-7.855-3.02-8.83-6.824v-.097a8.54 8.54 0 0 1 .097-4.678c.145-.538.34-1.12.635-1.658l8.34-16.131.292-.586 13.657-26.466 2.097-4.047L128.273 4.876C129.835 1.852 132.955 0 136.371 0h46.93c3.416 0 6.536 1.852 8.098 4.876l91.227 176.578 4.051 7.896 1.32 2.583 5.904 11.357.146.34 11.755 22.713c.195.388.34.732.49 1.12.049.146.097.243.097.34.146.388.194.732.292 1.071.97 5.365-3.076 10.726-8.981 10.726Z"/>
  <path fill="#fff" d="M307.017 229.024c-.098-.049-.243-.049-.34-.146a34.678 34.678 0 0 1-1.267-.436c-4.488-1.658-8-2.972-15.904-2.972-7.855 0-11.367 1.314-15.855 2.972-5.221 1.949-11.756 4.338-23.613 4.338-11.853 0-18.345-2.389-23.565-4.338-2.732-1.023-5.075-1.9-8.292-2.39-2.096-.388-4.488-.586-7.612-.586-7.855 0-11.367 1.314-15.855 2.972-5.221 1.948-11.756 4.338-23.614 4.338-3.561 0-6.632-.194-9.315-.587-.194 0-.34-.048-.49-.048-6.05-.829-10.194-2.39-13.755-3.703-4.488-1.658-8-2.972-15.855-2.972-7.904 0-11.416 1.314-15.856 2.972-2.193.828-4.633 1.706-7.563 2.438-4.051 1.071-9.17 1.9-16.05 1.9-11.853 0-18.344-2.39-23.613-4.338-4.44-1.658-7.952-2.972-15.855-2.972-7.855 0-11.368 1.314-15.856 2.972-5.22 1.948-11.707 4.338-23.565 4.338h-.185c-.83 0-1.61 0-2.343-.049l.048-.097 2.392-4.629c.146-.538.34-1.12.636-1.658l8.34-16.131.291-.586c.049 0 .097 0 .146-.049 2.392-.538 4.342-1.217 6.535-2.046 5.22-1.948 11.707-4.338 23.565-4.338 11.853 0 18.393 2.39 23.613 4.338 4.44 1.658 8 2.923 15.856 2.923 3.022 0 5.366-.145 7.413-.489 3.27-.538 5.706-1.415 8.442-2.438 5.22-1.949 11.756-4.338 23.613-4.338 11.853 0 18.344 2.389 23.565 4.338 2.047.732 3.901 1.415 6.05 1.949.145.048.291.097.49.097 2.44.538 5.317.877 9.315.877 7.904 0 11.416-1.265 15.904-2.923 5.221-1.949 11.708-4.338 23.565-4.338 5.754 0 10.344.586 14.05 1.367 3.901.877 6.88 1.997 9.563 2.971 4.488 1.658 8.001 2.923 15.856 2.923 7.903 0 11.416-1.265 15.903-2.923 5.221-1.949 11.708-4.338 23.565-4.338 1.562 0 2.974.048 4.342.097h.049l.146.339 11.755 22.714c.195.388.34.732.49 1.12.049.145.097.242.097.339l.623 1.226Z"/>
  <path fill="#fff" d="M161.777 156.082v81.49h-37.783c-8.667 0-16.597-5.131-19.854-13.146-1.558-3.893-2.934-8.201-4.126-12.918-.503-1.971-.918-4.029-1.377-6.185-.551-2.976-1.01-6.137-1.42-9.435-1.011-8.429-1.421-17.957-1.011-28.674l65.107-11.04.23-.044.234-.048Z"/>
  <path fill="#94C9E4" d="M226.108 194.103a174.498 174.498 0 0 1-1.651 11.224c-.459 2.152-.869 4.215-1.377 6.186-1.191 4.717-2.568 9.024-4.126 12.917-3.256 8.015-11.186 13.147-19.853 13.147h-37.783v-81.495l.229.044.23.044 65.107 11.039c.371 9.991.049 18.923-.776 26.894Z"/>
  <path fill="#94C9E4" d="M210.234 126.724v30.936l-48.74-8.064-46.997 7.786V126.72a5.92 5.92 0 0 1 5.922-5.917h83.893c3.269.005 5.922 2.654 5.922 5.921Z"/>
  <path fill="#fff" d="m161.494 149.596-46.997 7.786V126.72a5.92 5.92 0 0 1 5.922-5.917h41.233l-.158 28.793Zm16.209-34.432h-31.195V79.71a3.2 3.2 0 0 1 3.2-3.197h24.795a3.2 3.2 0 0 1 3.2 3.197v35.454Z"/>
  <path fill="#94C9E4" d="M177.694 115.222H161.94V76.509h12.815a2.937 2.937 0 0 1 2.939 2.936v35.777Z"/>
  <path fill="#46658A" d="M320.043 254.462c-6.536-.829-10.927-2.438-14.638-3.8-4.488-1.658-8-2.972-15.904-2.972-7.855 0-11.367 1.314-15.855 2.972-5.22 1.9-11.756 4.338-23.613 4.338-11.853 0-18.345-2.438-23.565-4.338-4.488-1.658-8-2.972-15.904-2.972-7.855 0-11.367 1.314-15.855 2.972-5.221 1.9-11.756 4.338-23.614 4.338-11.857 0-18.344-2.438-23.564-4.338-4.488-1.658-8.001-2.972-15.856-2.972-7.903 0-11.416 1.314-15.855 2.972-5.269 1.9-11.756 4.338-23.613 4.338-11.858 0-18.344-2.438-23.613-4.338-4.44-1.658-7.952-2.972-15.856-2.972-7.855 0-11.367 1.314-15.855 2.972-5.22 1.9-11.708 4.338-23.565 4.338-5.463 0-9.757-.489-13.318-1.265l10.78-21.008.05-.097c.732.049 1.464.049 2.294.049h.194c7.855 0 11.368-1.266 15.855-2.923 5.22-1.949 11.708-4.339 23.565-4.339 11.853 0 18.393 2.39 23.613 4.339 4.44 1.657 8 2.923 15.856 2.923 7.51 0 11.076-1.169 15.268-2.729.194-.049.389-.097.587-.194 5.221-1.949 11.756-4.339 23.613-4.339 11.853 0 18.345 2.39 23.565 4.339 2.048.732 3.901 1.415 6.05 1.948.146.049.291.097.49.097 2.44.538 5.317.878 9.315.878 7.904 0 11.417-1.266 15.904-2.923 5.221-1.949 11.708-4.339 23.565-4.339 2.877 0 5.463.146 7.758.388 7.219.732 11.901 2.487 15.855 3.946 4.488 1.658 8.001 2.923 15.856 2.923 7.903 0 11.416-1.265 15.904-2.923 5.22-1.948 11.707-4.338 23.564-4.338 7.268 0 12.489.877 16.685 2.046h.097c.049.145.098.242.098.339l.635 1.217 13.027 25.447Z"/>
  <path fill="#fff" d="m91.21 163.475-2.4 4.731h-.054l2.454-4.731Zm215.175 64.328-.194-.34-12.197-23.833-.145-.34-5.856-11.357 5.904 11.357.146.34 11.756 22.713c.194.388.339.732.489 1.12.049.146.097.243.097.34Z"/>
  <defs>
    <linearGradient id="a" x1="159.84" x2="159.84" y1="209.349" y2="33.047" gradientUnits="userSpaceOnUse">
      <stop offset="0" stop-color="#46658A"/>
      <stop offset=".55" stop-color="#6182B2"/>
      <stop offset=".833" stop-color="#6C90C6"/>
    </linearGradient>
  </defs>
</svg>
