<svg xmlns="http://www.w3.org/2000/svg" width="1170" height="367" fill="none" viewBox="0 0 1170 367">
  <path fill="#6D6E71" d="m18.184 243.062-.169.336 1.348.673v.337h-2.526l-1.515 8.41h-.842v1.514h.673l-4.04 23.886h-.842v1.514h.505l-9.26 54.331 12.29 30.446H1095.41l51.19-100.253 1.34-.168.34.168-51.86 101.262-.17.505H12.796L0 334.231l15.49-91.169h2.694Z"/>
  <path fill="#104470" d="m808.848 279.731 143.787-3.532 193.965-11.943-51.19 100.253H13.807L1.516 334.063l9.26-54.332h798.072Z"/>
  <path fill="#6D6E71" d="m11.111 278.218-.336 1.514h-.505v-1.514h.841Z"/>
  <path fill="#DDAE2B" d="M11.617 278.218v.168h798.24l143.62-3.533 193.963-11.942-.84 1.345-193.965 11.943-143.788 3.532H10.775l.337-1.513h.505Z"/>
  <path fill="#1B67A3" d="M599.396 256.35v2.355h21.719v-2.355l167.023.673 138.736-3.7c51.858-2.86 215.176-12.28 232.186-13.457l-10.95 21.531-194.633 12.111-143.62 3.532H11.786l-.169 1.346h-.505l4.041-24.054 584.243 2.018Z"/>
  <path fill="#DDAE2B" d="m808.847 278.218 143.788-3.533 194.805-11.943v.169l-193.964 11.942-143.619 3.533H11.617v-.168h797.23Z"/>
  <path fill="#DDAE2B" d="m809.857 276.872 143.62-3.532 194.633-11.943-.67 1.345-194.805 11.943-143.788 3.533H11.617l.337-1.346h797.903Z"/>
  <path fill="#6D6E71" d="m15.321 252.818-.168 1.514h-.673v-1.514h.841Z"/>
  <path fill="#6D6E71" d="M599.396 254.837v1.513l-584.243-2.018.169-1.514 584.074 2.019Z"/>
  <path fill="#F1F2F2" d="M19.363 244.408h580.033v10.429l-584.074-2.019 1.516-8.41h2.525Z"/>
  <path fill="#6D6E71" d="m19.868 243.062-.505 1.009-1.347-.673.168-.336h1.684Zm23.908-5.046 5.388-11.775h-7.072v-6.055.841h1.515v-.841H72.4l-.674 1.513H43.607v3.028h7.914l-6.735 14.803H21.888l-2.02 3.532h-1.684l2.862-5.046h22.73Z"/>
  <path fill="#6D6E71" d="M19.867 243.062h41.588l-.169.336 1.347.673.505-1.009h536.257v1.346H19.362v-.337l.505-1.009Z"/>
  <path fill="#F1F2F2" d="m44.786 239.53 6.735-14.803h-7.914v-3.028h28.118l-10.27 21.363H19.867l2.02-3.532h22.899Z"/>
  <path fill="#6D6E71" d="M43.609 220.186h-1.516v.841h1.516v-.841Zm75.26-12.616v1.514h-75.26v11.101h-1.516V207.57h76.776Zm-55.731 35.492-.505 1.009-1.347-.673.169-.336h1.683Z"/>
  <path fill="#6D6E71" d="M72.736 221.699v-1.513h-.337l1.01-2.187h38.22v1.345h1.347v.169H74.42l-11.281 23.549h-1.684l10.27-21.363h1.01Z"/>
  <path fill="#F1F2F2" d="M74.42 219.513h784.602v15.811h12.122l.169 2.019-102.032 5.719h-52.532l6.903-13.961H633.07l-8.419 13.793.337.168h-3.873v-17.494h-21.719v17.494H63.139l11.28-23.549Zm10.438 21.699v-13.457H75.43v13.457h9.428Zm29.465 0v-13.457h-9.26v13.457h9.26Zm30.812 0v-13.457h-9.261v13.457h9.261Zm29.801 0v-13.457h-9.429v13.457h9.429Zm27.781 0v-13.457h-9.429v13.457h9.429Zm29.465 0v-13.457h-9.261v13.457h9.261Zm30.811 0v-13.457h-9.26v13.457h9.26Zm29.802 0v-13.457h-9.429v13.457h9.429Zm28.623 0v-13.457h-9.429v13.457h9.429Zm29.464 0v-13.457h-9.428v13.457h9.428Zm30.98 0v-13.457h-9.428v13.457h9.428Zm29.633 0v-13.457h-9.428v13.457h9.428Zm29.802 0v-13.457h-9.429v13.457h9.429Zm29.633 0v-13.457h-9.429v13.457h9.429Zm30.98 0v-13.457h-9.429v13.457h9.429Zm29.633 0v-13.457h-9.429v13.457h9.429Zm47.817 0v-13.457h-9.429v13.457h9.429Zm158.436 0v-13.457h-9.429v13.457h9.429Zm10.775 0v-13.457h-9.429v13.457h9.429Zm20.204 0v-13.457h-9.428v13.457h9.428Zm10.608 0v-13.457h-9.429v13.457h9.429Z"/>
  <path fill="#6D6E71" d="M72.736 220.186v1.513h-1.01l.673-1.513h.337Z"/>
  <path fill="#D1D3D4" d="M84.858 227.755v13.457H75.43v-13.457h9.428Zm-1.515 11.943v-10.597h-6.566v10.597h6.566Z"/>
  <path fill="#6D6E71" d="M83.343 229.101h-6.567v10.597h6.567v-10.597Z"/>
  <path fill="#D1D3D4" d="M114.323 227.755v13.457h-9.261v-13.457h9.261Zm-1.347 11.943v-10.597h-6.567v10.597h6.567Z"/>
  <path fill="#6D6E71" d="M112.976 229.101h-6.567v10.597h6.567v-10.597Zm0-11.102h-1.515v1.177h1.515v-1.177Zm5.893-4.878v-4.037h1.515v5.382h-7.408v3.533h-1.347v-4.878h7.24Zm-5.893 4.878h127.287v.168h1.515v-.168h15.154v.168h1.346v-.168h6.399v.841h1.515v-.841h20.541v.168h1.515v-.168h19.026v.168h1.347v-.168h1.179v.168h1.515v-.168h19.026v.841h1.515v-.841h20.541v.841h1.347v-.841h2.189v.841h1.347v-.841h44.786v.841h1.515v-.841h25.929v.841h1.347v-.841H631.89l-.168.504 1.347.505v.505H112.976v-1.514Z"/>
  <path fill="#F1F2F2" d="M120.384 214.466v-5.382h119.879v8.915H112.976v-3.533h7.408Z"/>
  <path fill="#6D6E71" d="M119.71 207.57h-.673v1.514h.673v-1.514Zm.674-22.708v-.673h112.64l-.169.505 1.347.504.337-1.009h119.206V173.76l.168-.168 3.199-2.692-1.852 3.196v11.607H120.384v21.867h-1.515v-22.708h1.515Z"/>
  <path fill="#6D6E71" d="M120.385 184.189h-1.516v.673h1.516v-.673Z"/>
  <path fill="#6D6E71" d="m236.223 172.919-.337 1.514H120.384v9.756h-1.515v-11.27h117.354ZM120.384 207.57h-.673v1.514h.673v-1.514Zm3.031 0v1.514h10.608v-1.514h2.862v1.514h10.607v-1.514h3.199v1.514h10.608v-1.514h4.882v1.514h-45.796v-1.514h3.03Z"/>
  <path fill="#F1F2F2" d="M264.677 185.703v21.867h-6.398v-15.98h-18.015v15.98h-14.817v-11.943h-13.469v11.943h-2.021v-11.943h-13.469v11.943h-1.852v-11.943h-13.47v11.943h-1.515v-11.943h-13.47v11.943h-4.882v-11.775h-10.608v11.775h-3.199v-11.775h-10.607v11.775h-2.862v-11.775h-10.608v11.775h-3.03v-21.867h144.292Z"/>
  <path fill="#D1D3D4" d="m235.886 174.433-2.862 9.756H120.385v-9.756h115.501Z"/>
  <path fill="#6D6E71" d="M124.762 207.57v.168h7.913v-.168h1.347v1.514h-10.607v-1.514h1.347Zm9.26-11.775v11.775h-1.347v-10.597h-7.913v10.597h-1.347v-11.775h10.607Z"/>
  <path fill="#6D6E71" d="M132.675 207.57h-8.082v.168h8.082v-.168Z"/>
  <path fill="#231F20" d="M132.675 196.973h-8.082v10.597h8.082v-10.597Z"/>
  <path fill="#D1D3D4" d="M145.134 227.755v13.457h-9.26v-13.457h9.26Zm-1.178 11.943v-10.597h-6.567v10.597h6.567Z"/>
  <path fill="#6D6E71" d="M138.232 207.57v.168h7.913v-.168h1.347v1.514h-10.607v-1.514h1.347Zm9.26-11.775v11.775h-1.347v-10.597h-7.913v10.597h-1.347v-11.775h10.607Zm-3.704 33.306h-6.566v10.597h6.566v-10.597Z"/>
  <path fill="#6D6E71" d="M146.145 207.57h-8.082v.168h8.082v-.168Z"/>
  <path fill="#231F20" d="M146.145 196.973h-8.082v10.597h8.082v-10.597Z"/>
  <path fill="#6D6E71" d="M151.869 207.57v.168h8.082v-.168h1.347v1.514H150.69v-1.514h1.179Zm9.429-11.775v11.775h-1.347v-10.597h-8.082v10.597h-1.179v-11.775h10.608Z"/>
  <path fill="#6D6E71" d="M159.952 207.57h-8.082v.168h8.082v-.168Z"/>
  <path fill="#231F20" d="M159.952 196.973h-8.082v10.597h8.082v-10.597Z"/>
  <path fill="#D1D3D4" d="M174.936 227.755v13.457h-9.429v-13.457h9.429Zm-1.516 11.943v-10.597h-6.566v10.597h6.566Z"/>
  <path fill="#6D6E71" d="M167.696 207.57v.168h10.607v-.168h1.347v1.514h-13.469v-1.514h1.515Z"/>
  <path fill="#6D6E71" d="M179.65 195.627v11.943h-1.347v-10.429h-10.607v10.429h-1.515v-11.943h13.469Zm-6.23 33.474h-6.566v10.597h6.566v-10.597Z"/>
  <path fill="#231F20" d="M178.303 197.141h-10.608v10.597h10.608v-10.597Z"/>
  <path fill="#6D6E71" d="M181.166 207.57h-1.516v1.514h1.516v-1.514Zm1.515 0v.168h10.608v-.168h1.347v1.514h-13.47v-1.514h1.515Z"/>
  <path fill="#6D6E71" d="M194.636 195.627v11.943h-1.347v-10.429h-10.608v10.429h-1.515v-11.943h13.47Z"/>
  <path fill="#231F20" d="M193.288 197.141h-10.607v10.597h10.607v-10.597Z"/>
  <path fill="#D1D3D4" d="M202.717 227.755v13.457h-9.429v-13.457h9.429Zm-1.516 11.943v-10.597h-6.566v10.597h6.566Z"/>
  <path fill="#6D6E71" d="M201.201 229.101h-6.566v10.597h6.566v-10.597Zm-4.714-21.531h-1.852v1.514h1.852v-1.514Zm1.516 0v.168h10.607v-.168h1.347v1.514h-13.47v-1.514h1.516Z"/>
  <path fill="#6D6E71" d="M209.957 195.627v11.943h-1.347v-10.429h-10.607v10.429h-1.516v-11.943h13.47Z"/>
  <path fill="#231F20" d="M208.61 197.141h-10.607v10.597h10.607v-10.597Z"/>
  <path fill="#6D6E71" d="M211.976 207.57h-2.02v1.514h2.02v-1.514Zm1.348 0v.168h10.607v-.168h1.515v1.514h-13.469v-1.514h1.347Z"/>
  <path fill="#6D6E71" d="M225.446 195.627v11.943h-1.515v-10.429h-10.607v10.429h-1.347v-11.943h13.469Z"/>
  <path fill="#231F20" d="M223.931 197.141h-10.607v10.597h10.607v-10.597Z"/>
  <path fill="#D1D3D4" d="M232.182 227.755v13.457h-9.26v-13.457h9.26Zm-1.347 11.943v-10.597h-6.566v10.597h6.566Z"/>
  <path fill="#6D6E71" d="M230.835 229.101h-6.566v10.597h6.566v-10.597Zm9.428-21.531h-14.817v1.514h14.817v-1.514Zm-5.724-23.381-.337 1.009-1.347-.505.169-.504h1.515Zm2.525-9.756h.337l-2.862 9.756h-1.516l2.863-9.756h1.178Z"/>
  <path fill="#A1A3A6" d="M245.483 146.678c.674-2.186 2.694-3.7 4.883-3.7h145.471v2.186H369.74l-.169.337-6.398 11.27-7.576.336-28.623 4.205c0-.336-.674-4.205-1.01-6.56v-.504l-2.189-1.851-11.112 2.019-.506.841h-61.118l-5.388 16.316h47.986l3.704 2.187 11.449 6.728v3.701h-74.251l2.862-9.756 8.082-27.755Z"/>
  <path fill="#6D6E71" d="M237.064 172.919v1.514h-1.178l.336-1.514h.842Z"/>
  <path fill="#6D6E71" d="M250.366 141.8h30.475l.168.841 1.347-.168-.168-.673h3.03l.169.841 1.347-.336-.169-.673h33.842v.673h1.516v-.673h14.143l.505.841.505-.336v1.009h-86.71c-2.189 0-4.21 1.514-4.883 3.7l-8.25 27.755h-.168v-1.514h-.842l7.913-26.745c.842-2.86 3.367-4.71 6.23-4.542Zm-8.587 67.284h-1.515v8.915h1.515v-8.915Zm0-1.514h-1.515v1.514h1.515v-1.514Zm16.5-15.98v15.98h-1.347v-14.634h-15.153v14.634h-1.515v-15.98h18.015Z"/>
  <path fill="#F1F2F2" d="M256.932 209.084h-15.154v8.915h15.154v-8.915Z"/>
  <path fill="#6D6E71" d="M256.932 207.57h-15.154v1.514h15.154v-1.514Z"/>
  <path fill="#F1F2F2" d="M256.932 192.936h-15.154v14.634h15.154v-14.634Z"/>
  <path fill="#6D6E71" d="m312.156 155.425-1.01 1.514h-21.551v-.673h-1.515v.673h-8.419v-.673h-1.515v.673h-8.082l.168-.505-1.347-.504-.336 1.009h-7.577l.168-.505-1.347-.504-.336 1.009h-7.409l-4.377 13.457h7.24l-.169.504 1.347.337.337-.841h7.577l-.169.504 1.516.337.168-.841h12.628v.673h1.515v-.673h8.419v.673h1.515v-.673h3.367v1.009l.505.336H245.65l5.388-16.316h61.118Z"/>
  <path fill="#231F20" d="m259.458 156.939-4.546 13.457h-7.24l4.377-13.457h7.409Z"/>
  <path fill="#D1D3D4" d="M262.993 227.755v13.457h-9.261v-13.457h9.261Zm-1.179 11.943v-10.597h-6.566v10.597h6.566Z"/>
  <path fill="#6D6E71" d="m256.427 170.396-.337.842-1.348-.337.169-.505h1.516Zm4.545-13.457-4.546 13.457h-1.515l4.546-13.457h1.515Zm.674 72.162h-6.567v10.597h6.567v-10.597Z"/>
  <path fill="#231F20" d="m268.549 156.939-4.546 13.457h-7.576l4.546-13.457h7.576Z"/>
  <path fill="#6D6E71" d="M258.279 209.084h-1.515v8.915h1.515v-8.915Zm0-1.514h-1.515v1.514h1.515v-1.514Z"/>
  <path fill="#F1F2F2" d="M264.677 209.084h-6.398v8.915h6.398v-8.915Z"/>
  <path fill="#6D6E71" d="M264.677 207.57h-6.398v1.514h6.398v-1.514Zm-3.536-51.136-.169.505h-1.515l.337-1.009 1.347.504Zm4.38 13.962-.169.842-1.516-.337.168-.505h1.517Zm4.544-13.457-4.546 13.457h-1.515l4.546-13.457h1.515Zm-3.871 61.06h-1.516v.673h1.516v-.673Zm-.001-8.915h-1.515v8.915h1.515v-8.915Zm0-1.514h-1.515v1.514h1.515v-1.514Z"/>
  <path fill="#6D6E71" d="M286.734 189.235v1.346h-20.541v16.989h-1.515v-18.335h22.056Z"/>
  <path fill="#D1D3D4" d="M355.261 185.534v-11.438l1.852-3.364 8.25-6.897 3.367-2.859v-4.373l-3.704.168 5.725-10.093h26.602v-10.429h5.388l7.408 8.915h49.669l5.219-10.933h3.536l6.398 10.429h174.094v.168h49.669v-.168h.337l-17.847 20.689h-.842c-2.862 0-5.556 1.851-6.398 4.542h-.842c-1.683 0-3.367.505-4.546 1.682v-12.784h-8.25v12.616h-13.638v-13.961h-13.974v13.961h-11.618v-12.616h-8.082v12.616h-19.362V159.63h-12.46v11.775h-1.852V159.63h-12.459v11.775h-2.02V159.63h-12.46v11.775h-1.852V159.63H538.11v11.775h-1.347V159.63h-12.459v11.775h-1.852V159.63h-12.46v11.775h-2.02V159.63h-12.46v11.775h-1.852V159.63h-12.459v11.775h-23.235l-6.398 4.037c.673-1.009 1.01-2.355 1.01-3.532 0-3.701-3.03-6.729-6.735-6.729h-21.551c-2.862 0-5.556 1.85-6.398 4.542h-.842c-3.199 0-5.724 2.018-6.566 5.046h-1.684c-3.704 0-6.735 3.028-6.735 6.728 0 3.701 3.031 6.729 6.735 6.729h22.393l-1.515 1.009h-74.083v18.503h-2.02v-18.503h-17.679l-2.694 4.373v14.13h-1.515v-14.971h-22.057v14.971h-1.178v-14.634l-4.546-3.869h-39.23v-3.532l90.583-.169Z"/>
  <path fill="#231F20" d="M278.147 156.939v13.457H265.52l4.546-13.457h8.081Z"/>
  <path fill="#F1F2F2" d="M286.734 209.084h-20.71v8.915h20.71v-8.915Z"/>
  <path fill="#6D6E71" d="M286.734 207.57h-20.71v1.514h20.71v-1.514Z"/>
  <path fill="#F1F2F2" d="M286.734 190.581h-20.71v16.989h20.71v-16.989Z"/>
  <path fill="#6D6E71" d="m270.234 156.434-.169.505h-1.515l.337-1.009 1.347.504Zm9.429 13.962h-1.517v.673h1.517v-.673Zm-.001-13.457h-1.516v13.457h1.516v-13.457Z"/>
  <path fill="#6D6E71" d="M279.663 156.266h-1.517v.674h1.517v-.674Zm3.871-31.959 3.367 17.325h-1.515l-3.031-15.475-2.525.336 2.525 15.139h-1.347l-2.694-16.316 5.22-1.009Z"/>
  <path fill="#231F20" d="M288.08 156.939h-8.419v13.457h8.419v-13.457Z"/>
  <path fill="#F1F2F2" d="m282.356 126.157 3.03 15.475h-3.03l-2.526-15.139 2.526-.336Z"/>
  <path fill="#6D6E71" d="m282.356 141.632.169.505-1.516.337v-.842h1.347Z"/>
  <path fill="#D1D3D4" d="M292.795 227.755v13.457h-9.429v-13.457h9.429Zm-1.515 11.943v-10.597h-6.567v10.597h6.567Z"/>
  <path fill="#6D6E71" d="M291.448 229.101h-6.566v10.597h6.566v-10.597Zm-4.545-87.469v.505l-1.348.337-.168-.842h1.516Zm1.346 67.452h-1.516v8.915h1.516v-8.915Zm0-1.514h-1.516v1.514h1.516v-1.514Zm-.674-16.989v-1.346h16.5l4.546 3.869v14.466h-1.347v-13.793l-3.872-3.196h-15.153v16.989h-1.516v-16.989h.842Z"/>
  <path fill="#6D6E71" d="M287.574 189.235h-.673v1.514h.673v-1.514Zm2.022-18.839h-1.516v.673h1.516v-.673Zm-.001-13.457h-1.515v13.457h1.515v-13.457Z"/>
  <path fill="#6D6E71" d="M289.596 156.266h-1.516v.674h1.516v-.674Z"/>
  <path fill="#F1F2F2" d="M307.274 209.084h-19.026v8.915h19.026v-8.915Z"/>
  <path fill="#6D6E71" d="M307.274 207.57h-19.026v1.514h19.026v-1.514Z"/>
  <path fill="#F1F2F2" d="m303.401 190.581 3.873 3.196v13.793h-19.026v-16.989h15.153Z"/>
  <path fill="#231F20" d="m311.146 156.939-.505.673.673 6.055-18.352 2.692v4.037h-3.367v-13.457h21.551Z"/>
  <path fill="#6D6E71" d="M293.636 170.396v1.345h-.169l-.504-.336v-1.009h.673Z"/>
  <path fill="#6D6E71" d="m311.315 163.667.169.673 1.347-.168v-.673l14.311-2.018 28.623-4.206 7.576-.336-.841 1.514-6.735.168-61.455 9.083v2.86l2.862 1.682-.337.168.506 1.346-.169.168-3.704-2.187h.168v-1.345h-.673v-4.037l18.352-2.692Z"/>
  <path fill="#F16522" d="m355.764 158.621 6.735-.168-2.189 3.869h-5.051l-53.373 8.242-4.714 1.682-2.862-1.682v-2.86l61.454-9.083Z"/>
  <path fill="#6D6E71" d="m297.172 172.246 1.683 1.009-1.515.505-.505-1.346.337-.168Z"/>
  <path fill="#6D6E71" d="m301.886 170.564 53.373-8.242h5.051l-.841 1.514h-4.041l-53.205 8.242-3.367 1.177-1.684-1.009 4.714-1.682Zm-3.03 2.691 10.27 5.888 40.914-4.206 5.893-5.046-2.021 3.701-3.03 2.523-.169.168-41.755 4.205-.169.168-11.617-6.728.168-.168 1.516-.505Z"/>
  <path fill="#E84E21" d="m302.224 172.078 53.205-8.242h4.04l-3.535 6.055-5.893 5.046-40.914 4.206-10.271-5.888 3.368-1.177Z"/>
  <path fill="#6D6E71" d="M308.621 209.084h-1.516v8.915h1.516v-8.915Zm0-1.514h-1.516v1.514h1.516v-1.514Z"/>
  <path fill="#F1F2F2" d="M309.801 209.084h-1.179v8.915h1.179v-8.915Z"/>
  <path fill="#6D6E71" d="M309.801 207.57h-1.179v1.514h1.179v-1.514Z"/>
  <path fill="#A1A3A6" d="m308.958 180.488 41.756-4.205.168-.168 3.031-2.523-.168.168v10.429H308.79v-3.533l.168-.168Z"/>
  <path fill="#6D6E71" d="M311.315 209.084H309.8v8.915h1.515v-8.915Zm0-1.514H309.8v1.514h1.515v-1.514Zm20.541-14.803v14.803h-1.515v-13.457h-19.026v13.457H309.8v-14.803h22.056Zm-19.194-35.66v-1.514h-.337l.505-.841 10.944-2.018 2.189 1.85v.336c.337 2.355 1.01 6.224 1.01 6.561h-1.515c0-.337-.673-3.701-1.01-6.056l-1.347-1.177-9.765 1.682-1.347 2.018.673 5.551-1.347.168-.673-6.055.505-.673 1.515.168Z"/>
  <path fill="#6D6E71" d="M312.493 155.425v1.514h-1.347l1.011-1.514h.336Z"/>
  <path fill="#F1F2F2" d="M330.341 209.084h-19.026v8.915h19.026v-8.915Z"/>
  <path fill="#6D6E71" d="M330.341 207.57h-19.026v1.514h19.026v-1.514Z"/>
  <path fill="#F1F2F2" d="M330.341 194.113h-19.026v13.457h19.026v-13.457Z"/>
  <path fill="#6D6E71" d="M312.832 163.499v.674l-1.348.168-.169-.673 1.517-.169Z"/>
  <path fill="#D1D3D4" d="M321.417 227.755v13.457h-9.429v-13.457h9.429Zm-1.515 11.943v-10.597h-6.567v10.597h6.567Z"/>
  <path fill="#DD3F20" d="m323.27 154.248 1.347 1.177c.505 2.187 1.01 5.719 1.01 6.056h1.515l-14.311 2.018-.674-5.551 1.347-2.018 9.766-1.682Z"/>
  <path fill="#6D6E71" d="M319.902 229.101h-6.566v10.597h6.566v-10.597Zm2.189-87.469h-1.516v.673h1.516v-.673Zm5.556-18.671 9.597 17.493v1.178h-1.01l-9.26-16.989-4.883 1.345v15.644h-1.347v-16.821l6.903-1.85Z"/>
  <path fill="#F1F2F2" d="m326.974 124.643 9.26 16.989h-14.143v-15.644l4.883-1.345Z"/>
  <path fill="#6D6E71" d="M331.857 217.999h-1.516v.673h1.516v-.673Zm-.001-8.915h-1.515v8.915h1.515v-8.915Zm0-1.514h-1.515v1.514h1.515v-1.514Z"/>
  <path fill="#F1F2F2" d="M333.372 209.084v8.915h1.515-3.031v-8.915h1.516Z"/>
  <path fill="#6D6E71" d="M333.372 207.57h-1.516v1.514h1.516v-1.514Zm1.515 1.514h-1.515v8.915h1.515v-8.915Zm0-1.514h-1.515v1.514h1.515v-1.514Z"/>
  <path fill="#6D6E71" d="M336.066 189.235h17.679v18.335h-1.347v-16.989h-15.49l-2.021 3.364v13.625h-1.515v-13.961l2.694-4.374Z"/>
  <path fill="#F1F2F2" d="M334.888 209.084h17.51v8.915h-17.51v-8.915Z"/>
  <path fill="#6D6E71" d="M352.398 207.57h-17.51v1.514h17.51v-1.514Z"/>
  <path fill="#F1F2F2" d="M336.908 190.581h15.49v16.989h-17.51v-13.625l2.02-3.364Z"/>
  <path fill="#6D6E71" d="M337.245 141.632v.337l-.505.336-.506-.673h1.011Z"/>
  <path fill="#6D6E71" d="M337.918 141.632h7.913v1.346h-8.587v-1.01l.674-.336Zm-.001 0-.673.336v-.336h.673Zm0 0h-.673v-1.178l.673 1.178Z"/>
  <path fill="#6D6E71" d="M345.831 134.062v7.57h-1.347v-6.056h-5.725v6.056h-.841l-.674-1.178v-6.392h8.587Z"/>
  <path fill="#F1F2F2" d="M344.484 135.576h-5.724v6.056h5.724v-6.056Z"/>
  <path fill="#D1D3D4" d="M350.882 227.755v13.457h-9.429v-13.457h9.429Zm-1.347 11.943v-10.597h-6.567v10.597h6.567Z"/>
  <path fill="#6D6E71" d="M349.535 229.101h-6.566v10.597h6.566v-10.597Zm46.47-87.469h-50.006v1.514h50.006v-1.514Zm-42.259 76.367h-1.517v.673h1.517v-.673Zm-.001-8.915h-1.516v8.915h1.516v-8.915Zm0-1.514h-1.516v1.514h1.516v-1.514Z"/>
  <path fill="#F1F2F2" d="M355.934 209.084h-2.021v8.915h2.021v-8.915Z"/>
  <path fill="#6D6E71" d="M355.934 207.57h-2.021v1.514h2.021v-1.514Zm3.199-40.37-2.021 3.7-3.199 2.692 2.021-3.701 3.199-2.691Zm-1.852 50.799h-1.516v.673h1.516v-.673Zm-.001-8.915h-1.515v8.915h1.515v-8.915Z"/>
  <path fill="#6D6E71" d="M357.28 207.57h-1.515v1.514h1.515v-1.514Z"/>
  <path fill="#6D6E71" d="m429.847 189.235 1.515-1.009c2.021-.168 3.873-1.346 4.883-3.028l1.684-1.009v1.346h.505l-7.577 4.878v-.337h-1.179v.673H403.75v-.673h-1.516v.673h-44.786v16.989h-1.515v-18.503h73.914Z"/>
  <path fill="#ED2924" d="m361.152 163.836-2.02 3.364-3.199 2.691 3.535-6.055h1.684Z"/>
  <path fill="#6D6E71" d="M363.341 163.836h2.02l-8.25 7.064 2.021-3.7 4.209-3.364Z"/>
  <path fill="#F1F2F2" d="M402.067 209.084H357.28v8.915h44.787v-8.915Z"/>
  <path fill="#6D6E71" d="M402.067 207.57H357.28v1.514h44.787v-1.514Z"/>
  <path fill="#F1F2F2" d="M402.067 190.581v16.989H357.28v-16.989h44.787Zm-31.317 16.148v-12.952h-5.388v12.952h5.388Zm6.903 0v-12.952h-5.556v12.952h5.556Zm14.648 0v-12.952h-5.556v12.952h5.556Zm6.567 0v-12.952h-5.388v12.952h5.388Z"/>
  <path fill="#ED2924" d="m363.342 163.836-4.209 3.364 2.02-3.364h2.189Z"/>
  <path fill="#6D6E71" d="m361.995 162.322-.842 1.514h-1.683l.842-1.514h1.683Z"/>
  <path fill="#ED2924" d="m364.184 158.285-2.189 4.037h-1.683l2.188-3.869 1.684-.168Z"/>
  <path fill="#6D6E71" d="m365.026 162.322-1.684 1.514h-2.189l.842-1.514h3.031Z"/>
  <path fill="#F16522" d="M367.382 158.285v2.018l-2.357 2.019h-3.031l2.189-4.037h3.199Z"/>
  <path fill="#6D6E71" d="m365.026 156.939-.842 1.346-1.684.168.842-1.514h1.684Zm-.001 5.383h.169v1.514h-1.852l1.683-1.514Zm4.883-16.989h26.098v-2.355h.673v-1.346h-.673v-6.728h7.576l4.883 6.055-.337 1.009 1.179.673.168-.504 1.347 1.682h5.893v.168h1.347v-.168h8.923v.168h1.516v-.168h9.934v.168h1.347v-.168h8.923v.168h1.347v-.168h8.924l5.219-10.934h5.22l6.398 10.429h1.515v.673h1.515v-.673h8.756v.673h1.515v-.673h8.923v.673h1.347v-.673h8.924v.673h1.347v-.673h8.924v.673h1.346v-.673h8.924v.673h1.347v-.673h8.924v.673h1.515v-.673h8.755v.673h1.515v-.673h8.756v.673h1.515v-.673h8.755v.673h1.516v-.673h8.755v.673h1.515v-.673h8.755v.673h1.516v-.673h8.923v.673h1.347v-.673h8.924v.673h1.347v-.673h8.923v.673h1.347v-.673h8.924v.673h1.347v-.673h8.923v.673h1.347v-.673h4.378v-12.111h.673v-1.514h-.673v-14.466h52.026v28.091h.505l-1.178 1.514h-.337v-1.682h-.337v-26.409h-49.164v26.409h-.168v1.682H474.971l-6.398-10.429h-3.536l-5.219 10.934h-49.669l-7.24-8.916h-5.557v10.429H370.75l-5.725 10.093h-1.683l6.398-11.102.168-.504Z"/>
  <path fill="#6D6E71" d="M368.73 156.771v4.205l-3.368 2.86h-.168v-1.514h-.169l2.358-2.019v-2.018h-3.199l.841-1.346 3.705-.168Z"/>
  <path fill="#A7A9AC" d="M370.749 193.945v12.952h-5.388v-12.952h5.388Zm-.842 11.943v-11.102h-3.704v11.102h3.704Z"/>
  <path fill="#231F20" d="M369.907 194.786h-3.704v11.102h3.704v-11.102Z"/>
  <path fill="#A7A9AC" d="M377.485 193.945v12.952h-5.388v-12.952h5.388Zm-.674 11.943v-11.102h-3.704v11.102h3.704Z"/>
  <path fill="#D1D3D4" d="M381.862 227.755v13.457h-9.428v-13.457h9.428Zm-1.515 11.943v-10.597h-6.398v10.597h6.398Z"/>
  <path fill="#231F20" d="M376.643 194.786h-3.705v11.102h3.705v-11.102Z"/>
  <path fill="#6D6E71" d="M380.347 229.101h-6.567v10.597h6.567v-10.597Z"/>
  <path fill="#A7A9AC" d="M392.133 193.945v12.952h-5.388v-12.952h5.388Zm-.674 11.943v-11.102h-3.704v11.102h3.704Z"/>
  <path fill="#231F20" d="M391.291 194.786h-3.704v11.102h3.704v-11.102Z"/>
  <path fill="#A7A9AC" d="M399.205 193.945v12.952h-5.557v-12.952h5.557Zm-1.011 11.943v-11.102h-3.704v11.102h3.704Z"/>
  <path fill="#231F20" d="M398.194 194.786h-3.704v11.102h3.704v-11.102Z"/>
  <path fill="#6D6E71" d="M396.679 141.632h-.673v1.514h.673v-1.514Z"/>
  <path fill="#D1D3D4" d="M411.495 227.755v13.457h-9.429v-13.457h9.429Zm-1.347 11.943v-10.597h-6.566v10.597h6.566Z"/>
  <path fill="#6D6E71" d="M403.583 217.999h-1.517v.673h1.517v-.673Zm-.001-8.915h-1.516v8.915h1.516v-8.915Zm0-1.514h-1.516v1.514h1.516v-1.514Zm0-16.989h-1.516v16.989h1.516v-16.989Zm.001-.673h-1.517v.673h1.517v-.673Zm6.397 39.193h-6.566v10.597h6.566v-10.597Z"/>
  <path fill="#F1F2F2" d="M429.511 209.084h-25.929v8.915h25.929v-8.915Z"/>
  <path fill="#6D6E71" d="M429.511 207.57h-25.929v1.514h25.929v-1.514Z"/>
  <path fill="#F1F2F2" d="M429.511 190.581v16.989h-25.929v-16.989h25.929Zm-13.806 16.148v-12.952h-5.388v12.952h5.388Zm6.734 0v-12.952h-5.387v12.952h5.387Z"/>
  <path fill="#6D6E71" d="M410.99 174.937c-.168.168-.168.505-.168.673l1.347.168c0-.336.168-.504.168-.841h18.521c3.704 0 6.735 3.028 6.735 6.729h-.842v1.513h.505c-.169.673-.505 1.346-.842 2.019l-4.883 3.028h-22.393c-3.704 0-6.735-3.028-6.735-6.729 0-3.7 3.031-6.728 6.735-6.728l1.852.168Zm-7.071 6.56c0 3.028 2.357 5.383 5.219 5.215h21.551c2.863 0 5.22-2.355 5.22-5.215 0-2.859-2.357-5.214-5.22-5.214h-21.551c-2.862 0-5.219 2.355-5.219 5.214Z"/>
  <path fill="#F1F2F2" d="M430.69 176.283c2.862 0 5.219 2.355 5.219 5.214 0 2.86-2.357 5.215-5.219 5.215h-21.552c-2.862 0-5.219-2.355-5.219-5.215 0-2.859 2.357-5.214 5.219-5.214h21.552Z"/>
  <path fill="#6D6E71" d="m409.475 142.137-.168.504-1.179-.673.337-1.009 1.01 1.178Z"/>
  <path fill="#6D6E71" d="m414.694 132.044-5.22 10.093-1.01-1.178 4.883-9.42 1.347.505Z"/>
  <path fill="#A7A9AC" d="M415.704 193.945v12.952h-5.388v-12.952h5.388Zm-.842 11.943v-11.102h-3.704v11.102h3.704Z"/>
  <path fill="#6D6E71" d="M412.338 174.769c0 .337-.168.505-.168.842l-1.348-.168c.169-.337.169-.506.169-.674h1.347Z"/>
  <path fill="#6D6E71" d="M417.388 169.555h.842l-.168.504 1.347.337c.168-.337.168-.505.336-.841h19.195c3.704 0 6.734 3.027 6.734 6.728v.673h-.841v1.514h.505c-.169.504-.337.841-.674 1.345l-5.051 3.196h-2.357c.168-.504.168-1.009.168-1.513h1.516c2.357 0 4.546-1.683 5.051-4.037.168-.337.168-.842.168-1.178 0-2.86-2.357-5.214-5.219-5.214h-21.552c-2.357 0-4.377 1.513-5.051 3.7h-1.347c.674-2.859 3.199-4.878 6.398-5.214Z"/>
  <path fill="#231F20" d="M414.863 194.786h-3.704v11.102h3.704v-11.102Z"/>
  <path fill="#F1F2F2" d="M417.388 171.237h21.551c2.863 0 5.22 2.355 5.22 5.214 0 .337 0 .841-.169 1.178-.505 2.355-2.693 4.037-5.051 4.037h-1.515v-.169c0-3.7-3.031-6.728-6.735-6.728h-18.352c.842-2.018 2.862-3.532 5.051-3.532Z"/>
  <path fill="#6D6E71" d="M414.358 129.689h1.347l-.842 2.355h-.168l-1.347-.505.168-.168.842-1.682Z"/>
  <path fill="#6D6E71" d="m441.465 118.924 5.556-26.073 95.466-38.015 13.974 16.484v.169l14.817 58.2h-1.515l-14.48-57.527-13.301-15.476L448.2 93.861l-5.556 26.408h-23.067l-3.873 9.42h-1.347l-.841 1.682 5.051-12.447h22.898Z"/>
  <path fill="#6D6E71" d="m569.762 129.689.169.841v.673h-8.756v-.673h-1.515v.673h-8.755v-.673h-1.515v.673h-8.756v-.673h-1.515v.673h-8.924v-.673h-1.346v.673h-8.924v-.673h-1.347v.673h-8.924v-.673h-1.347v.673h-8.923v-.673h-1.347v.673h-8.924v-.673h-1.515v.673h-8.755v-.673h-1.516v.673h-27.275v-.673h-1.347v.673h-8.924v-.673h-1.347v.673H428.5v-.673h-1.515v.673h-8.924v-.673h-1.347v.673h-1.515l-.337.841.842-2.355h154.058Z"/>
  <path fill="#104470" d="m442.643 120.269 5.556-26.408 93.782-37.175 13.301 15.476 14.48 57.527H415.704l3.873-9.42h23.066Z"/>
  <path fill="#6D6E71" d="M418.062 143.819h-1.516v.168h1.516v-.168Z"/>
  <path fill="#6D6E71" d="M418.061 131.203h-1.515v12.616h1.515v-12.616Z"/>
  <path fill="#6D6E71" d="M418.062 130.53h-1.516v.674h1.516v-.674Z"/>
  <path fill="#A7A9AC" d="M422.439 193.945v12.952h-5.388v-12.952h5.388Zm-.674 11.943v-11.102h-3.704v11.102h3.704Z"/>
  <path fill="#231F20" d="M421.597 194.786h-3.704v11.102h3.704v-11.102Z"/>
  <path fill="#6D6E71" d="M419.746 169.723a1.287 1.287 0 0 0-.337.842l-1.347-.337.168-.505h1.516Z"/>
  <path fill="#6D6E71" d="M424.459 165.013h21.551c1.179 0 2.526.336 3.536 1.009 3.199 2.019 4.21 6.056 2.189 9.252l-4.883 3.027h-1.515c0-.168.168-.336.168-.504.169-.168.169-.505.169-.841h.505c2.862 0 5.219-2.355 5.219-5.215 0-2.859-2.357-5.214-5.219-5.214h-21.551c-2.189 0-4.041 1.345-4.883 3.196h-1.516c1.011-2.692 3.536-4.542 6.23-4.71Z"/>
  <path fill="#F1F2F2" d="M424.797 166.695h21.551c2.862 0 5.22 2.355 5.22 5.214 0 2.86-2.358 5.215-5.22 5.215h-.505v-.673c0-3.7-3.031-6.728-6.735-6.728h-19.194c.842-1.851 2.694-3.196 4.883-3.028Z"/>
  <path fill="#6D6E71" d="M428.5 143.819h-1.516v.168h1.516v-.168Z"/>
  <path fill="#6D6E71" d="M428.5 131.203h-1.516v12.616h1.516v-12.616Z"/>
  <path fill="#6D6E71" d="M428.5 130.53h-1.516v.674h1.516v-.674Zm2.359 87.469h-1.516v.673h1.516v-.673Zm-.001-8.915h-1.515v8.915h1.515v-8.915Zm0-1.514h-1.515v1.514h1.515v-1.514Zm-.505-16.989.505-.337v17.326h-1.347v-16.989h.842Z"/>
  <path fill="#6D6E71" d="M430.858 189.908v.337l-.505.336h-.842v-.673h1.347Z"/>
  <path fill="#F1F2F2" d="m636.268 209.084-4.377 8.915H430.857v-8.915h205.411Z"/>
  <path fill="#6D6E71" d="M529.522 207.57h107.251v.168l-.505 1.346H430.857v-1.514h98.665Z"/>
  <path fill="#F1F2F2" d="M438.602 185.534h75.935v6.224h1.515v15.139h13.47v.673h-98.665v-17.326l7.745-4.71Zm1.516 21.195v-12.952h-5.388v12.952h5.388Zm6.735 0v-12.952h-5.388v12.952h5.388Zm66.842.336v-13.457h-13.469v13.457h13.469Z"/>
  <path fill="#6D6E71" d="m431.531 188.058 4.883-3.028c-1.01 1.85-2.862 2.859-4.883 3.028Z"/>
  <path fill="#D1D3D4" d="M441.297 227.755v13.457h-9.429v-13.457h9.429Zm-1.347 11.943v-10.597h-6.567v10.597h6.567Z"/>
  <path fill="#6D6E71" d="M439.781 229.101h-6.566v10.597h6.566v-10.597Z"/>
  <path fill="#A7A9AC" d="M440.117 193.945v12.952h-5.388v-12.952h5.388Zm-.842 11.943v-11.102h-3.535v11.102h3.535Z"/>
  <path fill="#231F20" d="M439.275 194.786h-3.704v11.102h3.704v-11.102Z"/>
  <path fill="#6D6E71" d="M437.423 181.666c0 .504 0 1.009-.168 1.514h-.505v-1.514h.673Zm.675 2.355h2.862l-2.357 1.513h-.505v-1.513Z"/>
  <path fill="#6D6E71" d="M439.782 182.843c2.02-.168 4.041-1.346 5.051-3.196l2.189-1.346c2.02-.168 3.872-1.345 4.882-3.027l6.399-4.037h23.235v1.514h-22.73l-17.848 11.27h-2.693l1.515-1.178Zm.001-39.024h-1.516v.168h1.516v-.168Z"/>
  <path fill="#6D6E71" d="M439.782 131.203h-1.515v12.616h1.515v-12.616Z"/>
  <path fill="#6D6E71" d="M439.783 130.53h-1.516v.674h1.516v-.674Zm1.177 53.491h73.577v1.513h-75.934l2.357-1.513Zm-1.347-.841 5.051-3.196c-1.01 1.682-2.862 3.027-5.051 3.196Z"/>
  <path fill="#F1F2F2" d="M458.807 172.751h55.73v11.27H440.96l17.847-11.27Z"/>
  <path fill="#A7A9AC" d="M447.021 193.945v12.952h-5.388v-12.952h5.388Zm-.842 11.943v-11.102h-3.704v11.102h3.704Z"/>
  <path fill="#231F20" d="M446.179 194.786h-3.704v11.102h3.704v-11.102Z"/>
  <path fill="#6D6E71" d="M444.832 177.292h.841c0 .168-.168.505-.168.841 0 .168-.168.337-.168.505h-.505v-1.346Zm2.189 1.178 4.883-3.028c-1.01 1.682-2.862 2.859-4.883 3.028Zm3.031-34.651h-1.516v.168h1.516v-.168Z"/>
  <path fill="#6D6E71" d="M450.051 131.203h-1.515v12.616h1.515v-12.616Z"/>
  <path fill="#6D6E71" d="M450.052 130.53h-1.516v.674h1.516v-.674Z"/>
  <path fill="#D1D3D4" d="M470.93 227.755v13.457h-9.429v-13.457h9.429Zm-1.347 11.943v-10.597h-6.567v10.597h6.567Z"/>
  <path fill="#6D6E71" d="M469.414 229.101h-6.566v10.597h6.566v-10.597Zm9.429-85.787h-1.516v.674h1.516v-.674Zm-.001-12.111h-1.515v12.111h1.515v-12.111Z"/>
  <path fill="#6D6E71" d="M478.843 130.53h-1.516v.674h1.516v-.674Zm4.041 40.875h11.112v1.346h-12.459v-1.346h1.347Zm11.112-11.775v11.775h-1.515v-10.429h-9.597v10.429h-1.347V159.63h12.459Z"/>
  <path fill="#231F20" d="M492.481 161.144h-9.597v10.261h9.597v-10.261Z"/>
  <path fill="#6D6E71" d="M489.114 143.314h-1.516v.674h1.516v-.674Zm-.001-12.111h-1.515v12.111h1.515v-12.111Z"/>
  <path fill="#6D6E71" d="M489.114 130.53h-1.516v.674h1.516v-.674Z"/>
  <path fill="#D1D3D4" d="M501.909 227.755v13.457h-9.429v-13.457h9.429Zm-1.515 11.943v-10.597h-6.567v10.597h6.567Z"/>
  <path fill="#6D6E71" d="M500.395 229.101h-6.567v10.597h6.567v-10.597Zm-4.715-57.696h-1.852v1.514h1.852v-1.514Zm1.515 0h10.944v1.346H495.68v-1.346h1.515Zm10.944-11.775v11.775h-1.515v-10.429h-9.429v10.429h-1.515V159.63h12.459Z"/>
  <path fill="#231F20" d="M506.623 161.144h-9.597v10.261h9.597v-10.261Z"/>
  <path fill="#6D6E71" d="M499.385 143.314h-1.516v.674h1.516v-.674Zm-.001-12.111h-1.515v12.111h1.515v-12.111Z"/>
  <path fill="#6D6E71" d="M499.385 130.53h-1.516v.674h1.516v-.674Z"/>
  <path fill="#A7A9AC" d="M513.864 193.609v13.456h-13.469v-13.456h13.469Zm-1.347 12.111v-10.598H501.91v10.598h10.607Z"/>
  <path fill="#231F20" d="M512.349 195.122h-10.608v10.598h10.608v-10.598Z"/>
  <path fill="#6D6E71" d="M510.16 171.405h-2.02v1.514h2.02v-1.514Zm-.504-28.091h-1.516v.674h1.516v-.674Zm-.001-12.111h-1.515v12.111h1.515v-12.111Z"/>
  <path fill="#6D6E71" d="M509.656 130.53h-1.516v.674h1.516v-.674Zm2.019 40.875h10.944v1.346H510.16v-1.346h1.515Zm10.944-11.775v11.775h-1.515v-10.429h-9.429v10.429h-1.515V159.63h12.459Z"/>
  <path fill="#231F20" d="M521.104 161.144h-9.597v10.261h9.597v-10.261Z"/>
  <path fill="#6D6E71" d="M515.211 185.535v-1.514h-.674v-11.27h26.097v11.27h-1.515v-9.925h-23.067v16.148h23.067v-4.709h1.515v6.223h-26.097v-6.223h.674Z"/>
  <path fill="#6D6E71" d="M515.21 184.021h-.673v1.513h.673v-1.513Zm7.409-11.27h-8.082v.168h8.082v-.168Z"/>
  <path fill="#F15A22" d="M539.119 174.096v9.925h-.168v1.514h.168v4.709h-23.066v-16.148h23.066Z"/>
  <path fill="#A7A9AC" d="M529.522 193.609v13.456h-13.469v-13.456h13.469Zm-1.515 12.111v-10.598H517.4v10.598h10.607Z"/>
  <path fill="#F1F2F2" d="M540.635 191.926v-6.223h118.869c1.178 1.682 3.199 2.691 5.387 2.691h21.552c3.199 0 5.724-2.018 6.566-5.046h1.684c2.862 0 5.556-1.851 6.398-4.542h.842c3.704 0 6.734-3.028 6.734-6.728 0-3.701-3.03-6.729-6.734-6.729h-4.546l6.566-7.737h132.17v2.691h108.43v-.168h14.648l6.062 20.185h-18.858l1.179 3.869H750.592l-7.24 13.793h208.609l1.011 3.196h31.99l5.724 16.989H633.575l9.597-20.185h92.098l7.24-13.793h-38.388l-7.24 13.457v-1.178h-54.72l-5.388 11.438v-.168H529.522v-14.129h-13.469v-1.851l24.582.168Zm50.679 15.139v-13.456h-13.47v13.456h13.47Zm15.658 0v-13.456h-13.469v13.456h13.469Zm16.332 0v-13.456h-13.469v13.456h13.469Z"/>
  <path fill="#231F20" d="M528.007 195.122h-10.608v10.598h10.608v-10.598Z"/>
  <path fill="#6D6E71" d="M519.926 143.314h-1.516v.674h1.516v-.674Zm0-12.111h-1.516v12.111h1.516v-12.111Z"/>
  <path fill="#6D6E71" d="M519.926 130.53h-1.516v.674h1.516v-.674Z"/>
  <path fill="#D1D3D4" d="M531.542 227.755v13.457h-9.429v-13.457h9.429Zm-1.515 11.943v-10.597h-6.567v10.597h6.567Z"/>
  <path fill="#6D6E71" d="M524.303 172.751h-1.853v.168h1.853v-.168Zm-.001-1.346h-1.852v1.346h1.852v-1.346Zm5.725 57.696h-6.566v10.597h6.566v-10.597Zm6.735-56.35h-12.459v.168h12.459v-.168Zm-10.944-1.346h10.944v1.346h-12.459v-1.346h1.515Zm10.944-11.775v11.775h-1.347v-10.429h-9.597v10.429h-1.515V159.63h12.459Z"/>
  <path fill="#231F20" d="M535.415 161.144h-9.429v10.261h9.429v-10.261Z"/>
  <path fill="#6D6E71" d="M530.197 143.314h-1.516v.674h1.516v-.674Zm-.001-12.111h-1.515v12.111h1.515v-12.111Z"/>
  <path fill="#6D6E71" d="M530.197 130.53h-1.516v.674h1.516v-.674Zm8.081 42.221h-1.347v.168h1.347v-.168Zm0-1.346h-1.347v1.346h1.347v-1.346Z"/>
  <path fill="#6D6E71" d="M540.635 172.751h-2.358v.168h2.358v-.168Zm-1.011-1.346h10.944v1.346h-12.291v-1.346h1.347Zm10.944-11.775v11.775h-1.347v-10.429h-9.597v10.429h-1.347V159.63h12.291Zm-11.45 24.391h-.168v1.513h.168v-1.513Zm1.517-40.707h-1.516v.674h1.516v-.674Zm-.001-12.111h-1.515v12.111h1.515v-12.111Z"/>
  <path fill="#6D6E71" d="M540.635 130.53h-1.516v.674h1.516v-.674Zm-.001 53.491h-1.515v1.513h1.515v-1.513Z"/>
  <path fill="#231F20" d="M549.221 161.144h-9.597v10.261h9.597v-10.261Z"/>
  <path fill="#6D6E71" d="M632.733 184.021v1.345h14.143v.168H540.635v-1.513h92.098Z"/>
  <path fill="#F1F2F2" d="M550.569 172.751h82.164v11.27h-92.098v-11.27h9.934Z"/>
  <path fill="#6D6E71" d="M550.907 143.314h-1.516v.674h1.516v-.674Zm-.001-12.111h-1.515v12.111h1.515v-12.111Z"/>
  <path fill="#6D6E71" d="M550.907 130.53h-1.516v.674h1.516v-.674Zm1.513 40.875h-1.852v1.514h1.852v-1.514Zm1.516 0h10.944v1.346h-12.459v-1.346h1.515Zm10.944-11.775v11.775h-1.515v-10.429h-9.429v10.429h-1.515V159.63h12.459Z"/>
  <path fill="#231F20" d="M563.364 161.144h-9.428v10.261h9.428v-10.261Z"/>
  <path fill="#6D6E71" d="M561.177 143.314h-1.516v.674h1.516v-.674Zm-.001-12.111h-1.515v12.111h1.515v-12.111Z"/>
  <path fill="#6D6E71" d="M561.177 130.53h-1.516v.674h1.516v-.674Zm5.723 40.875h-2.02v1.514h2.02v-1.514Zm1.347 0h11.113v1.346H566.9v-1.346h1.347Zm11.113-11.775v11.775h-1.516v-10.429h-9.597v10.429H566.9V159.63h12.46Z"/>
  <path fill="#231F20" d="M577.844 161.144h-9.597v10.261h9.597v-10.261Z"/>
  <path fill="#6D6E71" d="m571.279 129.689.168.674-.674.168h-.842l-.168-.842h1.516Z"/>
  <path fill="#D1D3D4" d="M579.359 227.755v13.457h-9.428v-13.457h9.428Zm-1.515 11.943v-10.597h-6.566v10.597h6.566Z"/>
  <path fill="#6D6E71" d="M571.447 143.314h-1.516v.674h1.516v-.674Zm-.001-12.111h-1.515v12.111h1.515v-12.111Z"/>
  <path fill="#6D6E71" d="m569.931 130.699.842-.169h.674v.674h-1.516v-.674.169Z"/>
  <path fill="#6D6E71" d="m570.772 130.53-.841.168v-.168h.841Zm.674-.168-.168-.673h76.439v1.514h-4.377v-.673h-1.347v.673h-8.924v-.673h-1.347v.673h-8.923v-.673h-1.347v.673h-8.924v-.673h-1.347v.673h-8.923v-.673h-1.347v.673h-8.924v-.673h-1.515v.673h-8.756v-.673h-1.515v.673h-8.755v-.673h-.674l.674-.168Zm6.399 98.739h-6.567v10.597h6.567v-10.597Z"/>
  <path fill="#F1F2F2" d="M591.314 193.609v13.456h-13.469v-13.456h13.469Zm-1.347 12.111v-10.598H579.36v10.598h10.607Z"/>
  <path fill="#6D6E71" d="M581.043 171.405h-1.852v1.514h1.852v-1.514Z"/>
  <path fill="#231F20" d="M589.967 195.122h-10.608v10.598h10.608v-10.598Z"/>
  <path fill="#6D6E71" d="M581.717 143.314h-1.516v.674h1.516v-.674Zm-.001-12.111h-1.515v12.111h1.515v-12.111Z"/>
  <path fill="#6D6E71" d="M581.717 130.53h-1.516v.674h1.516v-.674Zm.841 40.875h10.944v1.346h-12.459v-1.346h1.515Zm10.944-11.775v11.775h-1.515v-10.429h-9.429v10.429h-1.515V159.63h12.459Z"/>
  <path fill="#231F20" d="M591.987 161.144h-9.597v10.261h9.597v-10.261Z"/>
  <path fill="#6D6E71" d="M591.988 143.314h-1.516v.674h1.516v-.674Zm-.001-12.111h-1.515v12.111h1.515v-12.111Z"/>
  <path fill="#6D6E71" d="M591.988 130.53h-1.516v.674h1.516v-.674Z"/>
  <path fill="#F1F2F2" d="M606.972 193.609v13.456h-13.469v-13.456h13.469Zm-1.515 12.111v-10.598H594.85v10.598h10.607Z"/>
  <path fill="#6D6E71" d="M612.865 171.405v.673h8.251v-.673h11.617v1.346h-39.23v-1.346h19.362Z"/>
  <path fill="#231F20" d="M605.457 195.122H594.85v10.598h10.607v-10.598Z"/>
  <path fill="#6D6E71" d="M600.911 256.35v.842h18.857v-.842h1.347v2.355h-21.719v-2.355h1.515Zm0-1.513h-1.515v1.513h1.515v-1.513Zm0-10.429h-1.515v10.429h1.515v-10.429Z"/>
  <path fill="#6D6E71" d="M600.911 243.062h-1.515v1.514h1.515v-1.514Zm20.204-17.494v17.494h-1.347v-15.98h-18.857v15.98h-1.515v-17.494h21.719Zm-18.857-82.254h-1.516v.674h1.516v-.674Zm0-12.111h-1.516v12.111h1.516v-12.111Z"/>
  <path fill="#6D6E71" d="M602.258 130.53h-1.516v.674h1.516v-.674Zm17.51 125.82v.842H600.91v-.842h18.858Zm0-1.345v1.345H600.91v-1.513l18.858.168Z"/>
  <path fill="#A7A9AC" d="M619.768 244.408v10.597l-18.858-.168v-10.429h18.858Z"/>
  <path fill="#6D6E71" d="M619.768 243.062H600.91v1.514h18.858v-1.514Z"/>
  <path fill="#A7A9AC" d="M619.768 227.082H600.91v15.98h18.858v-15.98Z"/>
  <path fill="#F1F2F2" d="M623.472 193.609v13.456h-13.47v-13.456h13.47Zm-1.516 12.111v-10.598h-10.607v10.598h10.607Z"/>
  <path fill="#6D6E71" d="M612.53 143.314h-1.516v.674h1.516v-.674Zm-.001-12.111h-1.515v12.111h1.515v-12.111Z"/>
  <path fill="#6D6E71" d="M612.53 130.53h-1.516v.674h1.516v-.674Z"/>
  <path fill="#231F20" d="M621.958 195.122h-10.607v10.598h10.607v-10.598Z"/>
  <path fill="#6D6E71" d="M621.115 171.405h-8.25v.841h8.25v-.841Zm0-12.616v12.616h-8.25v-12.616h8.25Zm-1.347 11.943v-10.597h-5.556v10.597h5.556Z"/>
  <path fill="#231F20" d="M619.768 160.135h-5.556v10.597h5.556v-10.597Z"/>
  <path fill="#6D6E71" d="M621.115 255.005v1.345h-1.346v-1.345h1.346Zm0-10.597v10.597h-1.346v-10.597h1.346Z"/>
  <path fill="#6D6E71" d="M621.116 243.062h-1.515v1.514h1.515v-1.514Zm167.022 12.447 138.736-3.7c2.358 0 222.926-12.616 233.026-13.457l-.84 1.682c-17.01 1.178-180.328 10.597-232.186 13.457l-138.736 3.7-167.023-.672v-1.514l167.023.504Z"/>
  <path fill="#F1F2F2" d="M621.115 244.576H769.28l242.96-13.793 155.4-8.915h.17c.17 0 .34.336.17.504l-8.08 15.98c-10.27.841-230.837 13.289-233.026 13.457l-138.736 3.7-167.023-.504v-10.597.168Z"/>
  <path fill="#6D6E71" d="m625.156 243.062.842.505.337-.505h88.73l-.168.336 1.347.673v.337h-95.129v-1.346h4.041Zm-2.356-99.748h-1.516v.674h1.516v-.674Zm-.001-12.111h-1.515v12.111h1.515v-12.111Z"/>
  <path fill="#6D6E71" d="M622.8 130.53h-1.516v.674h1.516v-.674Zm100.852 98.402-6.903 14.13h-1.684l6.229-12.616h-87.383l-7.577 12.616h-1.178l-.506-.336 8.419-13.794h90.583Zm-97.317 14.13-.336.505-.843-.505h1.179Z"/>
  <path fill="#A7A9AC" d="m721.294 230.446-6.229 12.616h-88.731l7.577-12.616h87.383Z"/>
  <path fill="#6D6E71" d="M633.07 143.314h-1.516v.674h1.516v-.674Zm-.001-12.111h-1.515v12.111h1.515v-12.111Z"/>
  <path fill="#6D6E71" d="M633.07 130.53h-1.516v.674h1.516v-.674Zm.505 87.469-.505 1.009-1.347-.505.168-.504h1.684Z"/>
  <path fill="#6D6E71" d="M636.773 209.084v-1.346l5.388-11.438h54.72v1.345l-.168.169h-53.542l-9.597 20.185h-1.683l4.377-8.915h.505Zm-2.694-25.063h12.796v1.345h-14.143v-1.345h1.347Zm0-11.27h-1.347v11.27h1.347v-11.27Z"/>
  <path fill="#6D6E71" d="M634.079 171.405h-1.347v1.514h1.347v-1.514Zm12.796-13.961v13.961h-1.347v-12.616h-11.449v12.616h-1.347v-13.961h14.143Zm-13.301 60.555h357.112l.337 1.009 1.347-.505-.168-.504h15.318l5.9 11.102-1.52.168-5.22-9.756H633.069v-.505l.505-1.009Z"/>
  <path fill="#A7A9AC" d="M645.529 172.751h-11.281v11.27h11.281v-11.27Z"/>
  <path fill="#6D6E71" d="M645.529 171.405h-11.281v1.514h11.281v-1.514Z"/>
  <path fill="#231F20" d="M645.529 158.789h-11.281v12.616h11.281v-12.616Z"/>
  <path fill="#6D6E71" d="M636.773 209.084h-.504l.504-1.346v1.346Zm6.567-65.77h-1.516v.674h1.516v-.674Zm0-12.111h-1.516v12.111h1.516v-12.111Z"/>
  <path fill="#6D6E71" d="M643.34 130.53h-1.516v.674h1.516v-.674Zm3.536 42.221h-1.347v11.27h1.347v-11.27Z"/>
  <path fill="#6D6E71" d="M646.876 171.405h-1.347v1.514h1.347v-1.514Zm0 12.447h11.954c.169.505.505 1.01.842 1.514h-12.796v-1.514Z"/>
  <path fill="#F1F2F2" d="M667.585 172.751c-.336.673-.673 1.345-.841 2.018h-1.684c-3.704 0-6.735 3.028-6.735 6.729 0 .841.168 1.682.505 2.523h-11.954v-11.27h20.709Z"/>
  <path fill="#6D6E71" d="M660.514 171.405v.841h7.577c-.169.168-.337.505-.506.673h-20.709v-1.514h13.638Zm-12.123-41.716h-.673v1.514h.673v-1.514Zm.842 15.139v-1.682h49.164v1.682h.336v.168h-49.669v-.168h.169Z"/>
  <path fill="#6D6E71" d="M649.233 143.146h-.169v1.514h.169v-1.514Z"/>
  <path fill="#DEDFE1" d="M698.397 116.737h-49.164v26.577h49.164v-26.577Z"/>
  <path fill="#6D6E71" d="M658.325 181.498c0-3.701 3.031-6.729 6.903-6.561h1.684c-.168.169-.168.505-.168.673l1.347.168c0-.336 0-.504.168-.841h18.184c3.704 0 6.735 3.028 6.735 6.729h-.842v1.345h.505c-.842 3.028-3.536 5.047-6.566 5.047h-21.552c-2.189 0-4.041-1.01-5.388-2.692h2.021c1.01.841 2.189 1.346 3.536 1.346h21.719c2.863 0 5.22-2.355 5.22-5.214 0-2.86-2.357-5.215-5.22-5.215H665.06c-2.862 0-5.219 2.355-5.219 5.215 0 .841.336 1.682.673 2.523h-1.684a6.758 6.758 0 0 1-.505-2.523Z"/>
  <path fill="#6D6E71" d="M661.524 185.534h-1.852c-.337-.504-.674-1.009-.842-1.513h1.515c.337.504.674 1.009 1.179 1.513Z"/>
  <path fill="#F1F2F2" d="M664.891 176.451h21.72c2.862 0 5.219 2.355 5.219 5.215 0 2.859-2.357 5.214-5.219 5.214H665.06c-1.347 0-2.526-.504-3.536-1.345h8.587v-1.514h-9.766c-.505-.841-.673-1.682-.673-2.523 0-2.86 2.357-5.215 5.219-5.047Z"/>
  <path fill="#F1F2F2" d="M670.11 184.021v1.513h-8.587c-.505-.504-.842-1.009-1.178-1.513h9.765Z"/>
  <path fill="#6D6E71" d="M668.09 171.405h-7.576v.841h7.576v-.841Z"/>
  <path fill="#6D6E71" d="M668.764 158.789v12.784c-.337.168-.505.505-.674.673v-.841h-7.576v-12.616h8.25Zm-1.347 11.943v-10.597h-5.556v10.597h5.556Z"/>
  <path fill="#231F20" d="M667.418 160.135h-5.557v10.597h5.557v-10.597Z"/>
  <path fill="#6D6E71" d="M668.091 174.769c0 .337-.168.505-.168.842l-1.348-.168c.169-.337.169-.506.169-.674h1.347Z"/>
  <path fill="#6D6E71" d="M667.585 172.582h.505v-.672h.674v-.673c1.347-1.178 2.862-1.682 4.546-1.682h.841l-.168.504 1.347.337c.168-.337.168-.505.337-.841h19.194c3.704 0 6.735 3.027 6.735 6.728v.673h-.842v1.514h.505c-1.01 2.691-3.536 4.541-6.398 4.541h-1.684c.169-.504.169-1.009.169-1.513h1.515c2.357 0 4.546-1.683 5.051-4.037.168-.337.168-.842.168-1.178 0-2.86-2.357-5.214-5.219-5.214H673.31c-2.358 0-4.378 1.513-5.052 3.7h-1.515c.169-.673.337-1.346.842-2.187Z"/>
  <path fill="#6D6E71" d="M668.09 172.078v.673h-.505c.168-.169.336-.337.505-.673Zm.673-.505v.505h-.673c.168-.168.336-.337.673-.505Z"/>
  <path fill="#F1F2F2" d="M673.31 171.237h21.551c2.862 0 5.22 2.355 5.22 5.214 0 .337 0 .841-.169 1.178-.505 2.355-2.694 4.037-5.051 4.037h-1.515v-.169c0-3.7-3.031-6.728-6.735-6.728h-18.352c.673-2.018 2.694-3.532 5.051-3.532Z"/>
  <path fill="#6D6E71" d="M675.668 169.723a1.287 1.287 0 0 0-.337.842l-1.348-.337.169-.505h1.516Zm4.881-4.71h.842l-.168.168c-.337.505-.505.841-.674 1.346-2.188 0-4.04 1.345-4.882 3.196h-1.516c.842-2.692 3.368-4.542 6.398-4.71Z"/>
  <path fill="#F1F2F2" d="M680.55 166.527v.673c0 .673.336 1.345.842 1.85.505.505 1.01.673 1.683.673h-7.408c.842-1.85 2.694-3.196 4.883-3.196Z"/>
  <path fill="#6D6E71" d="M680.55 166.863h1.852c-.168.168-.168.337-.168.505 0 .336.168.505.336.673.169.168.337.168.674.168.336 0 .505-.168.673-.336l1.01-1.178h2.189l-1.852 2.187c-.505.504-1.178.841-1.852.841h-.337c-.673 0-1.178-.337-1.683-.673-.505-.505-.842-1.177-.842-1.85v-.673.336Zm.673-1.682.169-.168h2.188l-1.178 1.346v.168h-1.852c0-.337.168-.841.673-1.346Z"/>
  <path fill="#6D6E71" d="m701.26 144.828-17.679 20.353h-2.357l17.847-20.353h2.189Z"/>
  <path fill="#F1F2F2" d="M682.402 166.359h2.525l-1.01 1.177c-.168.168-.337.337-.673.337-.169.168-.506 0-.674-.169-.168-.168-.337-.504-.337-.673 0-.168 0-.336.169-.672Z"/>
  <path fill="#F1F2F2" d="M683.749 165.181h2.526l-1.347 1.514-2.526-.168 1.347-1.346Zm1.684 3.701 2.02-2.187h14.648c1.347 0 2.694.505 3.704 1.514a5.213 5.213 0 0 1 1.516 3.701c0 2.859-2.358 5.214-5.22 5.214h-.505v-.673c0-3.7-3.031-6.728-6.735-6.728h-11.449c.674 0 1.347-.337 2.021-.841Zm18.351-24.054-17.678 20.353h-2.526l17.679-20.353h2.525Z"/>
  <path fill="#6D6E71" d="m688.462 165.181-1.346 1.346h-2.189l1.178-1.346h2.357Zm17.679-20.353-17.678 20.353h-2.358l17.679-20.353h2.357Z"/>
  <path fill="#6D6E71" d="m695.365 165.181-.505.505 1.01.841h-8.755l1.347-1.346h6.903Z"/>
  <path fill="#F1F2F2" d="m728.367 144.828 1.516.336v-.336h208.778l.842 2.691h-113.65v8.411H703.112l-7.745 9.251h-6.903l17.679-20.353h22.224Z"/>
  <path fill="#6D6E71" d="M693.177 181.666c0 .504 0 1.009-.169 1.514h-.504v-1.514h.673Zm4.209-16.485-1.347 1.346h-.168l-1.011-.841.505-.505h2.021Zm128.467-9.251v.841h1.515v-.841h10.102v2.859h105.399l.506 1.178h1.178v.168h-108.43v-2.691H703.785l-6.398 7.737h-2.021l7.745-9.251h122.742Z"/>
  <path fill="#6D6E71" d="M696.039 166.527v.167l-.168-.167h.168Zm5.895-1.514c3.704 0 6.734 3.028 6.734 6.728 0 3.701-3.03 6.729-6.734 6.729h-.842c.168-.169.168-.337.168-.505 0-.168.168-.505.168-.841h.506a5.23 5.23 0 0 0 3.704-1.514c2.02-2.018 2.02-5.383 0-7.401a5.23 5.23 0 0 0-3.704-1.514h-5.725l1.179-1.514 4.546-.168Zm-5.053 32.8h-.167l.167-.167v.167Zm7.241-13.792h38.388l-7.24 13.793h-38.388v-.169l7.24-13.624Zm6.903 12.279v.673h1.347v-.673h2.02v.673h1.516v-.673H725v.673h1.515v-.673h2.02v.673h1.516v-.673h4.546l5.724-10.934h-10.27v-.673h-1.516v.673h-2.02v-.673H725v.673h-9.092v-.673h-1.516v.673h-1.852v-.673h-1.515v.673h-6.061l-5.893 10.934h11.954Zm-12.291-53.154h-.337v1.514h.337v-1.514Zm3.872.168-1.347 1.514h-2.189l1.179-1.514h2.357Z"/>
  <path fill="#231F20" d="M711.025 185.534V196.3H699.07l5.893-10.766h6.062Z"/>
  <path fill="#6D6E71" d="M730.387 109.84c.842 0 1.516.169 2.021.673.505.505.841 1.178.841 1.851 0 .504 0 .841-.168 1.177-.168.336-.337.673-.505.841l-17.174 19.512-8.081 9.252h-2.189l26.265-30.11c.169-.168.169-.504.169-.672 0-.337-.169-.505-.337-.673-.168 0-.505-.168-.673-.168-.337 0-.506.168-.674.336l-27.276 31.455h-2.357l28.286-32.464c.505-.505 1.179-.841 1.852-1.01Zm-29.801 67.452h.841c0 .168-.168.505-.168.841 0 .168-.169.337-.169.505h-.504v-1.346Z"/>
  <path fill="#F1F2F2" d="m705.131 143.314-1.347 1.514h-2.525l1.347-1.514h2.525Z"/>
  <path fill="#F1F2F2" d="M730.555 111.691c.337 0 .505 0 .673.168.169.168.337.336.337.673.168.168 0 .504-.168.673l-26.266 30.109h-2.526l27.276-31.455c.169-.168.505-.336.674-.168Z"/>
  <path fill="#6D6E71" d="m707.32 143.314-1.179 1.514h-2.357l1.347-1.514h2.189Zm8.756 0v.505h1.516v-.505h11.28l-.505 1.514h-22.224l1.178-1.514h8.755Zm-3.703 52.986h-1.517v.673h1.517v-.673Z"/>
  <path fill="#231F20" d="M712.372 185.534h-1.516v10.934h1.516v-10.934Z"/>
  <path fill="#6D6E71" d="M712.373 184.693h-1.517v.674h1.517v-.674Z"/>
  <path fill="#231F20" d="M714.392 185.534h-2.021v10.934h2.021v-10.934Z"/>
  <path fill="#6D6E71" d="M715.909 196.3h-1.516v.673h1.516v-.673Z"/>
  <path fill="#6D6E71" d="M715.908 185.534h-1.515v10.934h1.515v-10.934Zm.001-.841h-1.516v.674h1.516v-.674Zm.841 58.369-.506 1.009-1.347-.673.169-.336h1.684Z"/>
  <path fill="#231F20" d="M724.999 185.534h-9.092v10.934h9.092v-10.934Z"/>
  <path fill="#6D6E71" d="M717.592 143.314h-1.516v.505h1.516v-.505Z"/>
  <path fill="#6D6E71" d="m727.862 134.735 6.23-20.857 15.826-53.49.506 3.363-21.215 71.825-.168.505h-11.45v7.233h-1.515v-8.579h11.786Zm-11.113 108.327h52.7l101.864-5.887 140.587-7.906.51 1.009v.336l-242.961 13.794h-53.205v-.337l.505-1.009Z"/>
  <path fill="#F1F2F2" d="m729.04 136.081.168-.505 21.215-71.825.673 4.71-22.224 74.853h-11.281v-7.233h11.449Z"/>
  <path fill="#6D6E71" d="M726.347 196.3h-1.516v.673h1.516v-.673Z"/>
  <path fill="#231F20" d="M726.346 185.534h-1.515v10.934h1.515v-10.934Z"/>
  <path fill="#6D6E71" d="M726.347 184.693h-1.516v.674h1.516v-.674Z"/>
  <path fill="#231F20" d="M728.366 185.534h-2.02v10.934h2.02v-10.934Z"/>
  <path fill="#F1F2F2" d="M737.795 227.755v13.457h-9.429v-13.457h9.429Zm-1.515 11.943v-10.597h-6.398v10.597h6.398Z"/>
  <path fill="#6D6E71" d="M729.882 196.3h-1.516v.673h1.516v-.673Z"/>
  <path fill="#6D6E71" d="M729.882 185.534h-1.516v10.934h1.516v-10.934Zm0-.841h-1.516v.674h1.516v-.674Zm0-39.865v.337l-1.516-.337h1.516Zm.505-1.514-.505 1.514h-1.516l.505-1.514h1.516Zm21.214-71.489-5.556 19.176h-1.01v1.514h.505l-.505 1.514h-.674v1.514h.337l-7.072 23.212h-.842v1.514h.506l-.506 1.514h-1.01v1.514h.674l-6.062 20.017h-1.515l22.225-74.853.505 3.364Z"/>
  <path fill="#231F20" d="M736.448 229.101h-6.566v10.597h6.566v-10.597Zm3.704-43.567-5.724 10.766h-4.546v-10.766h10.27Z"/>
  <path fill="#6D6E71" d="M762.882 143.314v.505l1.516-.169v-.336h7.071l.169.673 1.346-.337v-.336h69.032l-.337 1.178v.336H729.882l.505-1.514h32.495Zm-26.097-21.531-.337 1.514h-.674v-1.514h1.011Zm22.73 0 .168 1.514h-23.235l.337-1.514h22.73Z"/>
  <path fill="#F1F2F2" d="m759.178 120.269.337 1.514h-22.73l.505-1.514h21.888Z"/>
  <path fill="#6D6E71" d="m737.626 118.755-.336 1.514h-.505v-1.514h.841Zm21.384 0 .168 1.514H737.29l.337-1.514h21.383Z"/>
  <path fill="#F1F2F2" d="M748.57 227.755v13.457h-9.428v-13.457h9.428Zm-1.515 11.943v-10.597h-6.566v10.597h6.566Z"/>
  <path fill="#6D6E71" d="m745.204 0 27.781 143.314h-1.516l-27.612-141.8h-1.684l9.26 59.041h-.168l-1.347-.336v.168L740.489 0h4.715Z"/>
  <path fill="#231F20" d="M747.056 229.101h-6.567v10.597h6.567v-10.597Z"/>
  <path fill="#F1F2F2" d="m743.857 1.514 27.612 141.8h-7.071l-11.786-74.517-1.179-8.242-9.26-59.041h1.684Z"/>
  <path fill="#6D6E71" d="m947.584 184.021.505 1.513h-5.556l-.337-1.009-1.347.505.168.504h-6.398l-.336-1.009-1.347.505.168.504h-9.092l-.337-1.009-1.347.505.169.504h-10.439l-.337-1.009-1.347.505.169.504H897.41l-.337-1.009-1.347.505v.504h-14.985l-.337-1.009-1.347.505.169.504h-16.837l-.337-1.009-1.347.505.169.504h-16.332l-.337-1.009-1.347.505.168.504h-18.015l-.337-1.009-1.347.505.168.504h-15.49l-.336-1.009-1.347.505.168.504h-12.291l-.337-1.009-1.347.505.169.504h-7.914v-.841h-1.346v.841h-2.189v-.841h-1.347v.841h-9.597v-.841h-1.516v.841h-2.02v-.841h-1.347v.841h-8.924v-.841h-1.515v.841h-1.852v-.841h-1.515v.841h-.169l-5.724 10.766h5.893v.841h1.515v-.841h1.852v.841h1.515v-.841h8.924v.841h1.347v-.841h2.02v.841h1.516v-.841h9.597v.841h1.347v-.841h2.189v.841h1.346v-.841h11.281l.337 1.009 1.347-.505-.168-.504h12.291l.336 1.009 1.347-.505-.168-.504h15.49l.337 1.009 1.347-.505-.169-.504h18.016l.336 1.009 1.347-.505-.168-.504h16.332l.337 1.009 1.347-.505-.169-.504h16.837l.337 1.009 1.347-.505-.168-.504h15.153l.337 1.009 1.346-.505-.168-.504h13.133l.337 1.009 1.347-.505-.169-.504h10.608l.168 1.009 1.515-.505-.168-.504h8.923l.337 1.009 1.347-.505-.168-.504h6.398l.337 1.009 1.346-.505-.168-.504h5.556l.505 1.514H743.352l7.239-13.793h196.993Zm-202.55-89.992-.336 1.514h-.337v-1.514h.673Zm10.103 0 .169 1.514h-10.608l.337-1.514h10.102Zm-9.092-3.028-.505 1.514h-.505V91h1.01Z"/>
  <path fill="#F1F2F2" d="m754.969 92.515.168 1.514h-10.102l.505-1.514h9.429Z"/>
  <path fill="#6D6E71" d="m754.632 91.001.337 1.514h-9.429l.505-1.514h8.587Z"/>
  <path fill="#231F20" d="M751.601 185.534V196.3h-5.893l5.725-10.766h.168Z"/>
  <path fill="#6D6E71" d="m751.265 60.555-.842 3.196-.505-3.364v-.168l1.347.336Zm.169 0 1.179 8.242-1.347-.504-.169.168-.673-4.71.842-3.196h.168Z"/>
  <path fill="#6D6E71" d="m752.612 68.797-1.01 3.028-.505-3.364.168-.168 1.347.504Zm.506 127.503h-1.516v.673h1.516v-.673Z"/>
  <path fill="#231F20" d="M753.117 185.534h-1.515v10.934h1.515v-10.934Z"/>
  <path fill="#6D6E71" d="M753.118 184.693h-1.516v.674h1.516v-.674Zm11.28-41.379h-1.516l-3.199-20.017h.337v-1.514h-.505l-.337-1.514h.169v-1.513h-.337l-3.704-23.213h.168v-1.514h-.337l-.168-1.514h.505v-1.514h-.842l-3.03-19.176 1.01-3.028 11.786 74.517Z"/>
  <path fill="#231F20" d="M754.969 185.534h-1.852v10.934h1.852v-10.934Z"/>
  <path fill="#6D6E71" d="M755.473 91.001v1.514h-.505L754.632 91h.841Zm1.012 105.299h-1.516v.673h1.516v-.673Z"/>
  <path fill="#6D6E71" d="M756.484 185.534h-1.515v10.934h1.515v-10.934Zm.001-.841h-1.516v.674h1.516v-.674Zm-1.012-90.664v1.514h-.168l-.168-1.514h.336Z"/>
  <path fill="#231F20" d="M765.408 185.534h-8.924v10.934h8.924v-10.934Z"/>
  <path fill="#6D6E71" d="M759.346 118.755v1.514h-.168l-.168-1.514h.336Z"/>
  <path fill="#F1F2F2" d="M768.607 227.755v13.457h-9.428v-13.457h9.428Zm-1.347 11.943v-10.597h-6.566v10.597h6.566Z"/>
  <path fill="#6D6E71" d="M760.02 121.783v1.514h-.336l-.168-1.514h.504Z"/>
  <path fill="#231F20" d="M767.26 229.101h-6.567v10.597h6.567v-10.597Z"/>
  <path fill="#6D6E71" d="M764.398 143.314v.337l-1.516.168v-.505h1.516Zm2.357 52.986h-1.516v.673h1.516v-.673Z"/>
  <path fill="#6D6E71" d="M766.755 185.534h-1.516v10.934h1.516v-10.934Zm0-.841h-1.516v.674h1.516v-.674Z"/>
  <path fill="#231F20" d="M768.775 185.534h-2.02v10.934h2.02v-10.934Z"/>
  <path fill="#6D6E71" d="M770.291 196.3h-1.516v.673h1.516v-.673Z"/>
  <path fill="#6D6E71" d="M770.291 185.534h-1.516v10.934h1.516v-10.934Zm0-.841h-1.516v.674h1.516v-.674Z"/>
  <path fill="#F1F2F2" d="M779.383 227.755v13.457h-9.429v-13.457h9.429Zm-1.516 11.943v-10.597h-6.566v10.597h6.566Z"/>
  <path fill="#231F20" d="M779.888 185.534h-9.597v10.934h9.597v-10.934Zm-2.021 43.567h-6.566v10.597h6.566v-10.597Z"/>
  <path fill="#6D6E71" d="M772.985 143.314v.337l-1.348.337-.168-.674h1.516Zm8.25 52.986h-1.516v.673h1.516v-.673Z"/>
  <path fill="#6D6E71" d="M781.234 185.534h-1.515v10.934h1.515v-10.934Zm.001-.841h-1.516v.674h1.516v-.674Z"/>
  <path fill="#231F20" d="M783.423 185.534h-2.021v10.934h2.021v-10.934Z"/>
  <path fill="#6D6E71" d="M784.772 196.3h-1.516v.673h1.516v-.673Z"/>
  <path fill="#6D6E71" d="M784.771 185.534h-1.515v10.934h1.515v-10.934Zm.001-.841h-1.516v.674h1.516v-.674Z"/>
  <path fill="#231F20" d="m792.684 185.534 3.367 10.766h-11.28v-10.766h7.913Z"/>
  <path fill="#6D6E71" d="m793.863 184.525.336 1.01h-1.515l-.168-.505 1.347-.505Z"/>
  <path fill="#6D6E71" d="m794.2 185.534 3.367 10.766h-1.515l-3.367-10.766h1.515Z"/>
  <path fill="#231F20" d="m806.49 185.534 3.368 10.766h-12.291l-3.368-10.766h12.291Z"/>
  <path fill="#6D6E71" d="m797.566 196.3.168.504-1.347.505-.336-1.009h1.515Zm10.102-11.775.337 1.01h-1.515l-.169-.505 1.347-.505Z"/>
  <path fill="#6D6E71" d="m808.006 185.534 3.367 10.766h-1.515l-3.368-10.766h1.516Z"/>
  <path fill="#231F20" d="m823.495 185.534 3.367 10.766h-15.49l-3.367-10.766h15.49Z"/>
  <path fill="#6D6E71" d="m811.373 196.3.168.504-1.347.505-.337-1.009h1.516Zm13.301-11.775.337 1.01h-1.515l-.169-.505 1.347-.505Z"/>
  <path fill="#6D6E71" d="m825.01 185.534 3.368 10.766h-1.515l-3.368-10.766h1.515Z"/>
  <path fill="#231F20" d="m843.026 185.534 3.368 10.766h-18.016l-3.367-10.766h18.015Z"/>
  <path fill="#6D6E71" d="M827.369 155.93h-1.516v.673h1.516v-.673Zm112.133-8.411.505 1.682H827.368v6.729h-1.515v-8.411h113.649ZM828.379 196.3l.168.504-1.347.505-.337-1.009h1.516Z"/>
  <path fill="#231F20" d="m845.384 149.201 2.862 9.588H837.47v-2.859h-10.102v-6.729h18.016Z"/>
  <path fill="#6D6E71" d="m847.067 144.155.336-1.177h18.858c0 .336 0 .504.168.841l.674-.337.673-.168v-.168h72.062l4.546 15.307v.168h-1.515l-2.862-9.588h.505v-1.514h-1.011l-.841-2.859h-96.981v-.168l5.388-.337Z"/>
  <path fill="#6D6E71" d="M843.531 143.314h3.704l-.168 1.178h-5.388l.336-1.178h1.516Z"/>
  <path fill="#6D6E71" d="m853.801 103.112-10.27 39.866v.336h-1.515l11.112-43.566.673 3.364Zm-9.597 81.413.337 1.01h-1.515l-.169-.505 1.347-.505Z"/>
  <path fill="#6D6E71" d="m844.541 185.534 3.367 10.766h-1.515l-3.368-10.766h1.516Zm1.347-42.556 8.756-35.829.673 3.364-8.082 32.801h-3.704v-.336h2.357Z"/>
  <path fill="#F1F2F2" d="m854.644 107.149-8.756 35.829h-2.357l10.271-39.866.842 4.037Z"/>
  <path fill="#231F20" d="m860.874 185.534 3.367 10.766h-16.332l-3.367-10.766h16.332Zm-6.735-36.333 3.031 9.588h-8.924l-2.862-9.588h8.755Z"/>
  <path fill="#6D6E71" d="m847.909 196.3.168.504-1.347.505-.336-1.009h1.515Zm2.694-129.016.168.84c5.388 24.727 15.827 71.658 16.837 75.19h-1.515c-1.515-6.392-10.944-47.94-16.669-74.012l-1.01.336 6.23 30.278-1.516-.336v.168l-6.398-31.119 3.873-1.345Z"/>
  <path fill="#F1F2F2" d="M849.593 69.134c5.724 26.072 14.985 67.62 16.668 74.012h-3.872l1.178-.168-7.408-35.829-1.515-7.233-6.23-30.278 1.179-.504Z"/>
  <path fill="#6D6E71" d="m854.644 100.084-.842 3.028-.673-3.364v-.168l1.515.504Z"/>
  <path fill="#6D6E71" d="m854.644 99.916 1.515 7.401-1.515-.336v.168l-.842-4.037.842-3.028v-.168Z"/>
  <path fill="#231F20" d="m862.894 149.201 3.031 9.588h-8.756l-3.03-9.588h8.755Z"/>
  <path fill="#6D6E71" d="m856.159 107.317-.842 3.196-.673-3.364v-.168l1.515.336Zm7.408 35.829-1.178.168h-.337l-6.735-32.801.842-3.196 7.408 35.829Z"/>
  <path fill="#F1F2F2" d="M871.312 223.213v11.943h-12.123v-11.943h12.123Zm-1.684 10.766v-9.252h-9.092v9.084l9.092.168Z"/>
  <path fill="#F1F2F2" d="m1006.51 219.513 5.22 9.756-140.25 7.906-.168-2.019v-11.943h-12.123v-3.7h147.321Zm-121.055 15.811v-11.943h-12.123v11.943h12.123Zm19.699 0v-11.943H893.2v11.943h11.954Z"/>
  <path fill="#231F20" d="M869.797 224.727h-9.092v9.083h9.092v-9.083Z"/>
  <path fill="#6D6E71" d="m862.052 184.525.337 1.01h-1.515l-.169-.505 1.347-.505Z"/>
  <path fill="#6D6E71" d="m862.388 185.534 3.368 10.766h-1.516l-3.367-10.766h1.515Zm.001-42.22-.336.169v-.169h.336Z"/>
  <path fill="#231F20" d="m879.226 185.534 3.367 10.766h-16.837l-3.367-10.766h16.837Zm-7.408-36.333 3.031 9.588h-8.924l-3.03-9.588h8.923Z"/>
  <path fill="#6D6E71" d="m865.756 196.3.169.504-1.347.505-.337-1.009h1.515Zm2.021-52.649-.674.168-.674.337c0-.337-.168-.505-.168-.842h1.516v.337Z"/>
  <path fill="#231F20" d="m880.573 149.201 3.03 9.588h-8.755l-3.031-9.588h8.756Z"/>
  <path fill="#F1F2F2" d="M885.455 223.213v11.943h-11.954v-11.943h11.954Zm-1.515 10.766v-9.252h-9.092v9.084l9.092.168Z"/>
  <path fill="#231F20" d="M883.94 224.727h-9.092v9.083h9.092v-9.083Z"/>
  <path fill="#6D6E71" d="m880.405 184.525.336 1.01h-1.515l-.168-.505 1.347-.505Z"/>
  <path fill="#6D6E71" d="m880.741 185.534 3.367 10.766h-1.515l-3.367-10.766h1.515Z"/>
  <path fill="#231F20" d="m889.328 149.201 3.031 9.588h-8.755l-3.031-9.588h8.755Zm6.398 36.333 3.536 10.766h-15.153l-3.368-10.766h14.985Z"/>
  <path fill="#6D6E71" d="m884.108 196.3.168.504-1.346.505-.337-1.009h1.515Z"/>
  <path fill="#231F20" d="m898.252 149.201 3.03 9.588h-8.923l-3.031-9.588h8.924Z"/>
  <path fill="#F1F2F2" d="M905.154 223.213v11.943H893.2v-11.943h11.954Zm-1.347 10.766v-9.252h-9.092v9.084l9.092.168Z"/>
  <path fill="#231F20" d="M903.807 224.727h-9.092v9.083h9.092v-9.083Z"/>
  <path fill="#6D6E71" d="m897.073 184.525.337 1.01h-1.683v-.505l1.346-.505Z"/>
  <path fill="#6D6E71" d="m897.41 185.534 3.368 10.766h-1.516l-3.535-10.766h1.683Z"/>
  <path fill="#231F20" d="m910.543 185.534 3.367 10.766h-13.132l-3.368-10.766h13.133Zm-3.536-36.333 3.031 9.588h-8.755l-3.031-9.588h8.755Z"/>
  <path fill="#6D6E71" d="m900.777 196.3.168.504-1.347.505-.336-1.009h1.515Z"/>
  <path fill="#231F20" d="m915.762 149.201 3.031 9.588h-8.755l-3.031-9.588h8.755Z"/>
  <path fill="#6D6E71" d="m911.721 184.525.337 1.01h-1.516l-.168-.505 1.347-.505Z"/>
  <path fill="#6D6E71" d="m912.057 185.534 3.368 10.766h-1.516l-3.367-10.766h1.515Z"/>
  <path fill="#231F20" d="m922.497 185.534 3.535 10.766h-10.607l-3.367-10.766h10.439Z"/>
  <path fill="#6D6E71" d="m915.425 196.3.169.504-1.347.505-.337-1.009h1.515Z"/>
  <path fill="#231F20" d="m924.685 149.201 3.031 9.588h-8.924l-3.03-9.588h8.923Z"/>
  <path fill="#6D6E71" d="m923.676 184.525.337 1.01h-1.516l-.168-.505 1.347-.505Z"/>
  <path fill="#6D6E71" d="m924.012 185.534 3.536 10.766h-1.515l-3.536-10.766h1.515Z"/>
  <path fill="#231F20" d="m933.105 185.534 3.367 10.766h-8.924l-3.535-10.766h9.092Zm.336-36.333 3.03 9.588h-8.755l-3.03-9.588h8.755Z"/>
  <path fill="#6D6E71" d="m927.547 196.3.169.504-1.515.505-.169-1.009h1.515Zm6.735-11.775.337 1.01h-1.515l-.168-.505 1.346-.505Z"/>
  <path fill="#6D6E71" d="m934.62 185.534 3.367 10.766h-1.515l-3.368-10.766h1.516Z"/>
  <path fill="#231F20" d="m940.007 149.201 2.862 9.588h-6.398l-3.031-9.588h6.567Zm1.01 36.333 3.368 10.766h-6.398l-3.368-10.766h6.398Z"/>
  <path fill="#6D6E71" d="m937.986 196.3.168.504-1.347.505-.336-1.009h1.515Zm2.695-48.781v1.682h-.673l-.505-1.682h1.178Zm1.516 37.006.336 1.01h-1.515l-.168-.505 1.347-.505Z"/>
  <path fill="#6D6E71" d="M942.533 185.534 945.9 196.3h-1.515l-3.367-10.766h1.515Z"/>
  <path fill="#231F20" d="m948.089 185.534 3.368 10.766h-5.556l-3.368-10.766h5.556Z"/>
  <path fill="#6D6E71" d="M944.384 158.789h.169v1.178h-1.179l-.505-1.178h1.515Z"/>
  <path fill="#6D6E71" d="m960.212 158.621 6.903 22.877h-18.689l4.546 14.802h-1.516l-3.367-10.765h.505v-1.514h-1.01l-1.179-3.869h18.689l-5.893-20.185h-14.648v-1.178h-.168v-.168h15.827ZM945.9 196.3l.168.504-1.346.505-.337-1.009h1.515Z"/>
  <path fill="#6D6E71" d="M948.594 184.021v1.513h-.505l-.505-1.513h1.01Zm4.041 12.279v1.514h-.674l-.505-1.514h1.179Z"/>
  <path fill="#6D6E71" d="M952.634 197.814V196.3h.337l1.01 3.364h31.991l6.229 18.335h-1.515l-5.725-16.989h-31.99l-1.01-3.196h.673Z"/>
  <path fill="#6D6E71" d="m992.201 217.999.168.504-1.347.505-.336-1.009h1.515Zm21.219 11.102.17.504-1.18.673-.51-1.009 1.52-.168Z"/>
  <path fill="#6D6E71" d="m1013.42 229.605-.17-.336 155.4-8.915c.34 0 .51 0 .68.168.67.336.84 1.009.5 1.514l-9.26 17.662h-.17l-.17-.673-.16-.673h-.17l8.08-15.98v-.168c0-.168-.17-.336-.34-.336l-155.23 8.915v-.505l1.01-.673Zm134.19 33.137h.16l.17 1.346-1.34.168.84-1.345.17-.169Z"/>
  <path fill="#DDAE2B" d="m1147.61 262.742-.17.168v-.168h.17Zm.67-1.345-.67 1.345h-.17l.67-1.345h.17Z"/>
  <path fill="#6D6E71" d="m1148.11 261.565 10.95-21.531 1.51-.168h.17l-12.63 24.558-.33-.168v-1.514h-.17l.67-1.345-.17.168Zm11.79-23.213h.33l.17.673.17.673-1.51.168.84-1.514Zm-227.469-89.823 1.515-.337 3.199 10.261.168.841-1.347.336-3.535-11.101Zm-8.755 0 1.347-.337 3.367 10.261.169.841-1.347.336-3.536-11.101Zm-8.756 0 1.347-.337 3.199 10.261.337.841-1.347.336-3.536-11.101Zm-8.923 0 1.515-.337 3.199 10.261.169.841-1.347.336-3.536-11.101Zm-8.756 0 1.347-.337 3.368 10.261.168.841-1.347.336-3.536-11.101Zm-8.755 0 1.347-.337 3.199 10.261.337.841-1.347.336-3.536-11.101Zm-8.924 0 1.516-.337 3.367 11.102-1.347.336-3.536-11.101Zm-8.754 0 1.347-.337 3.367 10.261.168.841-1.347.336-3.535-11.101Zm-8.755 0 1.347-.337 3.199 10.261.336.841-1.515.336-3.367-11.101Zm-8.924 0 1.515-.337 3.199 10.261.169.841-1.347.336-3.536-11.101Zm-8.755 0 1.347-.337 3.367 10.261.169.841-1.347.336-3.536-11.101Z"/>
  <path fill="#fff" d="M867.104 266.779v-5.046h1.515l1.178 3.196 1.179-3.196h1.515v5.046h-1.01v-3.7l-1.515 3.7h-.505l-1.516-3.7v3.7h-.841Zm6.061-5.214h1.179l1.347 3.869 1.347-3.869h1.178l-2.02 5.046h-1.347l-1.684-5.046Zm8.587 5.214v-5.046h1.515l1.179 3.196 1.179-3.196h1.515v5.046h-1.01v-3.7l-1.516 3.7h-.505l-1.515-3.7v3.7h-.842Zm6.061 0 2.021-5.046h1.347l2.02 5.046h-1.178l-.337-.841h-2.189l-.337.841h-1.347Zm1.853-1.85h1.515l-.842-2.187-.673 2.187Zm3.871 1.85v-5.046h1.01v4.205h2.189v1.01h-3.199v-.169Zm3.703 0 2.021-5.046h1.347l2.02 5.046h-1.179l-.336-.841h-2.189l-.337.841h-1.347Zm1.852-1.85h1.516l-.842-2.187-.674 2.187Zm3.875 1.177.673-.841c.418.418.928.673 1.516.673.34 0 .841-.065.841-.504 0-1.297-3.03-.82-3.03-2.524 0-.504.168-.841.505-1.177.337-.336.842-.505 1.347-.505.842 0 1.515.169 2.02.673l-.673.841c-.384-.383-2.189-.999-2.189 0 0 1.174 3.031.677 3.031 2.355 0 .505-.169.841-.505 1.178-.337.336-.842.504-1.516.504-.842 0-1.515-.168-2.02-.673Zm4.883.673v-5.046h2.357c.824 0 1.684.85 1.684 1.682 0 .957-.77 1.682-1.684 1.682h-1.347v1.851h-1.01v-.169Zm1.01-2.781h1.347c.168 0 .337 0 .505-.168.242-.241.242-.846 0-1.088-.168-.168-.337-.168-.505-.168h-1.347v1.424Zm3.872 2.781v-5.046h1.011v5.046h-1.011Zm2.02 0v-5.046h1.179l2.357 3.196v-3.196h1.01v5.046h-1.01l-2.357-3.364v3.364h-1.179Zm5.052 0 2.02-5.046h1.347l2.021 5.046h-1.179l-.337-.841h-2.189l-.336.841h-1.347Zm1.852-1.85h1.515l-.842-2.187-.673 2.187Z"/>
  <path fill="url(#a)" d="m74.42 219.513-12.965 23.549 711.53 1.346 238.915-15.139-5.22-10.766-932.26 1.01Z" opacity=".27"/>
  <path fill="url(#b)" d="M951.961 196.3H745.708l6.566-16.148h194.131l5.556 16.148Z" opacity=".27"/>
  <defs>
    <linearGradient id="a" x1="536.684" x2="536.684" y1="225.637" y2="237.479" gradientUnits="userSpaceOnUse">
      <stop stop-color="#231F20"/>
      <stop offset=".13" stop-color="#524F4F"/>
      <stop offset=".3" stop-color="#868484"/>
      <stop offset=".46" stop-color="#B1B0B0"/>
      <stop offset=".61" stop-color="#D3D2D3"/>
      <stop offset=".76" stop-color="#EBEBEB"/>
      <stop offset=".89" stop-color="#FAFAFA"/>
      <stop offset="1" stop-color="#fff"/>
    </linearGradient>
    <linearGradient id="b" x1="848.84" x2="848.84" y1="188.648" y2="177.832" gradientUnits="userSpaceOnUse">
      <stop stop-color="#fff"/>
      <stop offset=".11" stop-color="#FAFAFA"/>
      <stop offset=".24" stop-color="#EBEBEB"/>
      <stop offset=".39" stop-color="#D3D2D3"/>
      <stop offset=".54" stop-color="#B1B0B0"/>
      <stop offset=".7" stop-color="#868484"/>
      <stop offset=".87" stop-color="#524F4F"/>
      <stop offset="1" stop-color="#231F20"/>
    </linearGradient>
  </defs>
</svg>
