<svg width="57" height="35" viewBox="0 0 57 35" fill="none" xmlns="http://www.w3.org/2000/svg">
<path d="M49.4847 20.2257C52.0847 19.7257 54.4847 18.2257 55.6847 16.0257C57.7847 12.2257 55.7847 7.82569 51.2847 6.02569C49.1847 5.22569 46.7847 5.12569 44.7847 5.72569C44.3847 3.62569 42.6847 1.62569 40.1847 0.625688C36.2847 -0.874312 31.7847 0.425687 29.7847 3.42569C29.0847 2.62569 28.0847 1.92569 26.8847 1.52569C23.4847 0.225689 19.3847 1.12569 17.2847 3.62569C16.3847 2.72569 15.2847 2.02569 13.8847 1.52569C8.9847 -0.374311 3.0847 1.42569 0.884702 5.52569C-1.1153 9.22569 0.384696 13.5257 4.2847 15.7257C3.6847 16.2257 3.0847 16.8257 2.6847 17.6257C0.984704 20.7257 2.5847 24.4257 6.2847 25.8257C8.8847 26.8257 11.7847 26.4257 13.8847 25.1257C14.4847 27.6257 16.5847 29.9257 19.5847 31.1257C22.0847 32.1257 24.7847 32.1257 27.1847 31.4257C27.7847 32.5257 28.8847 33.4257 30.2847 33.9257C33.3847 35.1257 36.9847 34.1257 38.6847 31.7257C43.1847 33.4257 48.5847 31.8257 50.5847 28.0257C52.2847 25.4257 51.6847 22.4257 49.4847 20.2257Z" fill="url(#paint0_linear_2267_1197)"/>
<defs>
<linearGradient id="paint0_linear_2267_1197" x1="28.2603" y1="0" x2="28.2603" y2="34.4342" gradientUnits="userSpaceOnUse">
<stop stop-color="white"/>
<stop offset="1" stop-color="#CCDAE7"/>
</linearGradient>
</defs>
</svg>
