<svg width="92" height="62" viewBox="0 0 92 62" fill="none" xmlns="http://www.w3.org/2000/svg">
<path d="M87.1 33.3C85.9 32.3 84.6 31.4 83 30.7C85.9 28.6 87.9 25.8 88.6 22.5C88.8 21.7 88.9 20.8 88.9 19.9C88.9 12 81.2 5.7 71.8 5.7C68 5.7 64.5 6.7 61.7 8.5C59.1 3.5 53 0 46 0C37.6 0 30.7 5 29.2 11.7C26.1 9.7 22.3 8.5 18.1 8.5C8.10001 8.5 0 15.3 0 23.6C0 30.9 6.2 37 14.5 38.4C13.3 40.3 12.7 42.4 12.7 44.6C12.7 52.1 20 58.2 29 58.2C33 58.2 36.7 57 39.6 54.9C42.4 58.9 47.6 61.5 53.6 61.5C61 61.5 67.2 57.4 69.2 51.8C71.4 52.9 73.9 53.5 76.6 53.5C84.6 53.5 91.1 48.1 91.1 41.5C91 38.4 89.5 35.5 87.1 33.3Z" fill="url(#paint0_linear_2267_1206)"/>
<defs>
<linearGradient id="paint0_linear_2267_1206" x1="45.55" y1="0" x2="45.55" y2="61.5" gradientUnits="userSpaceOnUse">
<stop stop-color="white"/>
<stop offset="1" stop-color="#E3F4FE" stop-opacity="0.94"/>
</linearGradient>
</defs>
</svg>
