<svg xmlns="http://www.w3.org/2000/svg" width="499" height="570" fill="currentColor" viewBox="0 0 499 570">
  <path d="M430.749 251.327C434.312 237.124 436 221.309 436 204 436 91.334 338.398 0 218 0S0 91.334 0 204s49 179.5 169.5 116c43.322 10.219 80.548 15.734 112.249 16.893A30 30 0 0 0 274 357.016v4.648c0 3.53-.623 7.032-1.84 10.345l-5.642 15.358a29.98 29.98 0 0 1-4.16 7.655L208 467.5l-3.974 5.109a30 30 0 0 0-4.642 28.309l12.684 36.322a30.002 30.002 0 0 0 14.522 16.747l24.42 12.65a29.99 29.99 0 0 0 13.8 3.363h12.196a24.44 24.44 0 0 0 20.26-10.773l3.018-4.475a14.243 14.243 0 0 0 1.415-13.253 14.243 14.243 0 0 1 2.4-14.546l75.075-87.794a30.002 30.002 0 0 1 27.295-10.164l19.197 2.909a30.002 30.002 0 0 0 24.331-7.155L469 408l21.886-23.345A30.001 30.001 0 0 0 499 364.137v-49.066c0-7.446-2.77-14.627-7.77-20.145l-1.391-1.535a26.47 26.47 0 0 1-6.548-13.749 26.47 26.47 0 0 0-11.639-18.105l-11.436-7.505a30.003 30.003 0 0 0-23.205-4.15l-6.262 1.445Z"/>
</svg>
