<svg width="193" height="32" viewBox="0 0 193 32" fill="none" xmlns="http://www.w3.org/2000/svg">
<path d="M23.5849 8.15892C22.8495 6.35233 21.0581 4.40076 17.7026 4.66864C13.4285 5.12596 12.0963 9.157 12.7423 11.5614C11.04 10.4273 8.14543 9.92827 5.61892 12.058C2.35661 15.2759 4.10121 19.6281 5.89512 20.6716C3.91867 20.4914 0.794781 21.806 0.103558 25.2434C-0.631552 29.5119 2.6751 31.9998 5.89512 31.9998H41.5982C45.3213 31.9998 47.387 28.8303 47.1555 25.8417C46.7899 21.9403 43.1623 20.4433 41.1834 20.7641C42.8371 19.8564 45.0451 15.5926 41.6872 12.24C39.0222 9.74542 35.6244 10.6535 34.4298 11.7413C35.0736 9.65769 34.0177 5.34978 29.6949 4.66847C29.3964 4.63552 29.1088 4.61787 28.8346 4.61787C25.5343 4.6181 24.0507 6.99181 23.5849 8.15892Z" fill="white"/>
<path d="M6.21334 12.7369C4.32852 14.4163 3.64202 18.2213 7.04031 20.4451L20.5969 29.5969L14.0236 14.7789C12.6464 11.2822 8.87829 10.5196 6.21334 12.7369Z" fill="#F35E1C"/>
<path d="M17.8827 5.53241C15.6788 5.5767 12.3702 8.15887 13.8429 12.1019L20.641 27.8785L23.0295 11.2847C23.5825 7.16103 20.4116 5.25776 17.8827 5.53241Z" fill="#CE154C"/>
<path d="M24.0906 10.6515H25.376C25.376 10.6515 26.0625 10.6515 26.1557 10.9702C25.6501 11.3767 24.2731 11.4277 24.4559 13.5991L26.6171 27.8763L33.3686 12.0582C34.7499 8.52617 31.8509 5.5767 29.2798 5.48628C29.1594 5.47757 29.039 5.47081 28.9143 5.47081C26.6061 5.47081 23.9614 7.1216 24.0906 10.6515Z" fill="#6055AF"/>
<path d="M33.0971 14.9133L26.7107 29.5539L40.2628 20.3533C43.3869 18.1731 42.8834 14.6869 41.1346 12.9639C40.401 12.1529 39.0553 11.5264 37.6294 11.5264C35.9446 11.5259 34.1422 12.4054 33.0971 14.9133Z" fill="#4088CF"/>
<path d="M38.7456 22.4365L26.0184 31.1846H41.6894C44.9044 31.1846 46.9704 27.9226 46.0519 24.9289C45.437 23.0476 43.6167 21.5709 41.5041 21.5687C40.6151 21.5687 39.6724 21.8322 38.7456 22.4365Z" fill="#34B540"/>
<path d="M5.84802 31.1846H21.2874L8.55757 22.4365C5.61621 20.5771 2.30955 21.6654 1.1155 24.7509C0.103538 28.283 2.63051 31.1846 5.84802 31.1846Z" fill="#F9B00B"/>
<path d="M80.0954 31.2439V1.50785H73.0052L65.1452 14.0826L57.2856 1.50785H50.1954V31.2439H56.6442V11.9577L64.9741 24.5323H65.1452L73.5607 11.8308V31.2439H80.0954Z" fill="#100F0D"/>
<path d="M105.818 22.4506V22.3649C105.817 21.0621 105.612 19.9441 105.198 19.0092C104.785 18.0746 104.173 17.2604 103.361 16.5669C102.55 15.8735 101.553 15.2787 100.372 14.7832C99.1891 14.2876 97.8437 13.8413 96.3352 13.4447C95.0531 13.1049 93.9929 12.8078 93.1522 12.5527C92.3127 12.2977 91.6506 12.0289 91.1666 11.7458C90.6826 11.4629 90.3478 11.1441 90.1629 10.7902C89.9779 10.4366 89.8852 10.0189 89.8852 9.53719V9.4517C89.8852 8.71549 90.2055 8.0995 90.8463 7.60396C91.4864 7.10819 92.4475 6.86059 93.7296 6.86036C95.0105 6.86059 96.2914 7.12251 97.5729 7.64671C98.8544 8.17096 100.165 8.88562 101.504 9.79149L104.921 4.86404C103.383 3.64639 101.696 2.71186 99.8587 2.06075C98.0218 1.4094 96.0068 1.08393 93.8143 1.08393C92.2764 1.08393 90.8676 1.29635 89.5861 1.72118C88.3046 2.14578 87.2012 2.75461 86.2752 3.54766C85.3498 4.34048 84.6307 5.28234 84.1179 6.37244C83.6057 7.46271 83.3493 8.6873 83.3493 10.0469V10.1311C83.3493 11.6039 83.5838 12.8359 84.0534 13.8272C84.523 14.8183 85.1856 15.6465 86.0401 16.3122C86.8952 16.9776 87.9347 17.5368 89.1591 17.99C90.3836 18.4433 91.7503 18.854 93.2588 19.2223C94.5121 19.5333 95.5302 19.8306 96.3133 20.1137C97.0964 20.3969 97.7083 20.6801 98.1497 20.9632C98.5916 21.2468 98.8907 21.5512 99.0474 21.8769C99.2041 22.2022 99.2825 22.5775 99.2825 23.0028V23.0885C99.2825 23.9653 98.9057 24.652 98.1502 25.1471C97.396 25.6429 96.3346 25.8909 94.9679 25.8909C93.2594 25.8909 91.6858 25.5652 90.2476 24.9143C88.8094 24.263 87.4069 23.3851 86.0407 22.2805L82.1536 26.9109C83.9474 28.5248 85.9405 29.7211 88.1335 30.5001C90.326 31.279 92.5616 31.6685 94.8399 31.6685C96.4637 31.6685 97.9445 31.4632 99.2825 31.0525C100.621 30.6411 101.774 30.0468 102.743 29.2679C103.711 28.4889 104.465 27.5265 105.006 26.3793C105.547 25.2328 105.818 23.9227 105.818 22.4506Z" fill="#100F0D"/>
<path d="M135.022 31.2439V1.50785H128.529V19.8161L114.52 1.50785H108.453V31.2439H114.945V12.3403L129.427 31.2439H135.022Z" fill="#100F0D"/>
<path d="M157.911 22.2805C157.911 23.3851 157.498 24.1992 156.673 24.723C155.846 25.2467 154.708 25.5086 153.255 25.5086H145.439V18.9671H153.041C154.75 18.9671 155.989 19.2576 156.758 19.8385C157.527 20.4193 157.911 21.2049 157.911 22.1948V22.2805ZM156.246 10.3865C156.246 11.4911 155.819 12.291 154.964 12.7868C154.11 13.2824 152.957 13.5302 151.505 13.5302H145.439V7.24291H151.931C153.327 7.24291 154.395 7.505 155.135 8.02834C155.876 8.55213 156.246 9.30982 156.246 10.3009V10.3865ZM164.447 23.0885V23.0028C164.447 21.0203 163.948 19.4696 162.952 18.3515C161.956 17.233 160.589 16.348 158.852 15.6965C159.392 15.4128 159.897 15.0731 160.368 14.6769C160.837 14.2807 161.251 13.8202 161.607 13.2963C161.962 12.772 162.248 12.1845 162.462 11.5331C162.675 10.882 162.781 10.1315 162.781 9.28203V9.19654C162.781 6.8465 161.906 4.9775 160.155 3.58972C158.403 2.20177 155.989 1.50785 152.913 1.50785H139.032V31.2439H153.255C154.936 31.2439 156.467 31.0738 157.848 30.734C159.229 30.3944 160.41 29.8845 161.393 29.2052C162.375 28.5254 163.13 27.6753 163.657 26.6557C164.183 25.6362 164.447 24.4465 164.447 23.0885Z" fill="#100F0D"/>
<path d="M192.997 26.4431L188.811 22.238C187.644 23.3139 186.469 24.1633 185.286 24.7863C184.105 25.4097 182.659 25.7213 180.951 25.7213C179.67 25.7213 178.495 25.4735 177.427 24.9777C176.359 24.4819 175.448 23.8093 174.693 22.9598C173.939 22.1104 173.347 21.1192 172.92 19.9867C172.493 18.854 172.28 17.6505 172.28 16.3758V16.2914C172.28 15.0166 172.493 13.82 172.92 12.7011C173.347 11.5826 173.945 10.5984 174.714 9.74898C175.483 8.89909 176.402 8.23382 177.47 7.7526C178.537 7.27087 179.698 7.03026 180.951 7.03026C182.461 7.03026 183.82 7.32754 185.03 7.92204C186.241 8.517 187.43 9.33847 188.598 10.3865L192.783 5.5861C192.1 4.90702 191.36 4.28404 190.563 3.71733C189.765 3.15102 188.897 2.66935 187.957 2.27294C187.017 1.87607 185.97 1.56452 184.817 1.33795C183.664 1.11167 182.39 0.998444 180.994 0.998444C178.688 0.998444 176.58 1.40224 174.672 2.20933C172.764 3.01648 171.127 4.1209 169.76 5.52255C168.393 6.92443 167.325 8.55299 166.556 10.4081C165.787 12.2631 165.403 14.2522 165.403 16.3758V16.4613C165.403 18.585 165.787 20.5809 166.556 22.4506C167.325 24.3201 168.393 25.9413 169.76 27.3145C171.127 28.6877 172.75 29.7711 174.629 30.5639C176.508 31.3569 178.545 31.7531 180.737 31.7531C182.19 31.7531 183.5 31.6327 184.668 31.3921C185.835 31.1514 186.91 30.7973 187.893 30.3306C188.875 29.8633 189.78 29.3037 190.605 28.6523C191.43 28.0005 192.228 27.2641 192.997 26.4431Z" fill="#100F0D"/>
</svg>
