<svg xmlns="http://www.w3.org/2000/svg" width="55" height="56" fill="none" viewBox="0 0 55 56">
  <path fill="#6DBE49" d="m22.367 39.562-5.125 11.75-1.117-.527 5.97-11.35.272.127Z"/>
  <path fill="#D22968" d="m19.573 37.566-6.402 7.839-1.532-1.39 7.168-7.152.766.703Z"/>
  <path fill="#F8E65C" d="m1.58 35.092.64 1.98 5.395-2.044-.495-1.437-5.54 1.5Zm13.97-3.801L8.366 33.24l.463 1.421 7.024-2.395-.303-.974Z"/>
  <path fill="#D22968" d="M14.848 28.306 0 28.546l.096-2.762 14.8 1.485-.048 1.037Z"/>
  <path fill="#325CA8" d="m23.9 15.486-5.62-13.33L22 .893l2.89 14.273-.99.32Z"/>
  <path fill="#6DBE49" d="M28.178 15.295 28.306 0l2.06.08-1.15 15.262-1.038-.047Z"/>
  <path fill="#754FA0" d="m34.389 17.482 5.045-8.924 1.756 1.117-5.923 8.35-.878-.543Z"/>
  <path fill="#325CA8" d="m37.662 20.356 11.24-9.324 1.165 1.629-11.894 8.51-.511-.815Z"/>
  <path fill="#F8E65C" d="m40.057 25.05 14.672-3.417-.511-1.964-14.369 4.63.208.75Z"/>
  <path fill="#754FA0" d="m40.855 26.997 12.133-.59-.175-2.044-11.99 2.075.032.559Z"/>
  <path fill="#D22968" d="m40.344 29.52 14.576 1.117.08-2.06-14.608-.095-.048 1.038Z"/>
  <path fill="#6DBE49" d="M37.023 37.007 47.241 47.13l1.022-.974L37.247 36.8l-.224.207Z"/>
  <path fill="#37C0C9" d="m33.367 39.61-.91.494 4.933 10.058 1.836-.974-5.859-9.579Z"/>
  <path fill="#D22968" d="m31.85 40.04-.99.32.671 2.41 1.134-.335-.814-2.395Zm5.014 14.225-3.896-11.08-1.197.4 3.113 11.319 1.98-.639Z"/>
  <path fill="#DC5937" d="m28.69 40.807 1.436 14.433 2.044-.272-2.794-14.193-.687.032Z"/>
  <path fill="#37C0C9" d="M14.592 14.64 8.717 8.877 7.328 10.41l6.242 5.3 1.022-1.07Zm1.006.99-.974.974 3.496 3.033.703-.766-3.225-3.241Z"/>
  <path fill="#010101" d="M25.848 5.843 25.72 2.38l-2.395.32.782 3.368 1.74-.224Zm.143 1.932-1.612.24 1.293 8.237.798-.127-.479-8.35Z"/>
  <path fill="#F8E65C" d="m38.668 5.284.766-1.692-1.916-.782-.639 1.74 1.789.734Zm-2.14.208-3.975 11.016.718.383 4.966-10.664-1.709-.735Z"/>
  <path fill="#D22968" d="m40.472 15.838 7.392-7.36-1.533-1.39-6.865 7.792 1.006.958Zm-2.156.382-2.17 2.555.765.687 2.331-2.38-.926-.861Z"/>
  <path fill="#DC5937" d="m45.549 31.643-5.413-.99-.207 1.006 5.364 1.389.256-1.405Zm1.931.351-.223 1.549 6.817 1.756.447-2.012-7.04-1.293Z"/>
  <path fill="#37C0C9" d="m20.42 40.2.91-1.34-.879-.544-.91 1.31.878.574Zm-3.002 5.221 2.57-4.47-.957-.575-2.922 4.263 1.309.782Zm-2.395.814-2.842 4.135 1.757 1.101 2.506-4.358-1.42-.878Z"/>
  <path fill="#DC5937" d="m12.389 35.363-9.675 4.63.958 1.836 9.308-5.3-.591-1.166Z"/>
  <path fill="#325CA8" d="m35.842 38.14-.447.32 7.982 11.335 1.645-1.261-9.18-10.393Z"/>
  <path fill="#DC5937" d="m16.237 33.51-2.315 1.038.447.783 2.219-1.15-.351-.67Z"/>
  <path fill="#F8E65C" d="m17.881 7.44-1.341.718 5.06 8.398.48-.24-4.2-8.876Zm31.18 33.415-1.054 1.58 2.044 1.405 1.101-1.756-2.091-1.229Z"/>
  <path fill="#010101" d="M23.038 40.44 18.71 54.362l-1.277-.448 5.316-13.586.288.112Z"/>
  <path fill="#DC5937" d="M17.242 20.723 5.668 12.501 4.31 14.576l12.404 6.93.527-.783Z"/>
  <path fill="#D22768" d="m32.984 12.117 2.57-9.69-2.027-.431-1.708 9.866 1.165.255Z"/>
  <path fill="#6DBE49" d="m6.61 18.025-.942 2.187 10.68 3.433.224-.67-9.962-4.95Z"/>
  <path fill="#010101" d="m3.911 31.978 6.93-1.15-.256-1.356-6.929.654.255 1.852Z"/>
  <path fill="#754FA0" d="m23.98 42.58-3.4 12.5 2.937.575 1.772-12.836-1.31-.24Z"/>
  <path fill="#010101" d="m50.099 36.48-10.457-3.847-.384.958 10.202 4.646.639-1.757Z"/>
  <path fill="#37C0C9" d="m40.392 22.351 12.676-4.63-1.804-3.815-11.415 7.232.543 1.213Z"/>
  <path fill="#D22968" d="m20.068 16.396-6.69-10.17-2.586 1.932 8.254 8.909 1.022-.67Z"/>
  <path fill="#010101" d="m13.57 29.169-2.139.223.224 1.293 2.107-.367-.192-1.15Z"/>
  <path fill="#754FA0" d="m13.842 23.629-11.655-2.97-.32 1.9 11.847 1.884.128-.814Z"/>
  <path fill="#F8E65C" d="m40.52 35.857-.655.99 6.833 4.694.99-1.485-7.168-4.199Z"/>
  <path fill="#325CA8" d="m16.3 35.299-10.744 7.68 1.277 1.627 10.138-8.381-.67-.926ZM27.268 51.79l.08-11.845-.574-.016-.91 11.814 1.404.048Z"/>
</svg>
