<svg xmlns="http://www.w3.org/2000/svg" width="56" height="62" fill="none" viewBox="0 0 56 62">
  <path fill="#754FA0" d="m30.205 10.45-2.107 1.892-8.354-6.89 3.16-3.16 7.3 8.158Z"/>
  <path fill="#DC5937" d="m28.848 18.251-2.089 2.214-9.586-8.39 3.16-3.178 8.515 9.354Z"/>
  <path fill="#37C0C9" d="m28.83 20.768-2.23-2.142 8.622-9.408 3.16 3.16-9.55 8.39Z"/>
  <path fill="#D22968" d="m28.509 12.217-2.142-2.142 6.712-7.694 3.177 3.16-7.747 6.676Z"/>
  <path fill="#6DBE49" d="m25.742 51.544 2.285-2.356 8.247 7.122-3.16 3.178-7.372-7.944Z"/>
  <path fill="#F8E65C" d="m27.17 43.529 2.035-2.25 9.622 8.426-3.16 3.178-8.497-9.354Z"/>
  <path fill="#DC5937" d="m26.902 40.887 2.303 2.445-8.408 9.23-3.178-3.16 9.283-8.515Z"/>
  <path fill="#D22968" d="m27.348 49.544 2.41 2.339-6.837 7.515-3.177-3.16 7.604-6.694Z"/>
  <path fill="#6DBE49" d="m46.592 22.678-3.088-.982 2.41-10.532 4.463 1.196-3.785 10.318Z"/>
  <path fill="#325CA8" d="m38.97 25.16-2.696-.59L38.88 12.2l4.32 1.178-4.23 11.782Z"/>
  <path fill="#37C0C9" d="m37.131 26.606.768-2.803 12.37 2.678-1.195 4.32-11.943-4.195Z"/>
  <path fill="#D22968" d="m44.397 22.375.892-3.356 9.89 2.232-1.196 4.32-9.586-3.196Z"/>
  <path fill="#325CA8" d="m9.461 39.137 2.946 1.036-2.267 10.532-4.32-1.178 3.641-10.39Z"/>
  <path fill="#F8E65C" d="m16.745 36.406 2.963.91-2.553 12.354-4.32-1.178 3.91-12.086Z"/>
  <path fill="#37C0C9" d="m18.958 35.031-.981 3.017-12.193-2.66 1.178-4.32 11.996 3.963Z"/>
  <path fill="#754FA0" d="m11.675 39.53-.803 2.999-9.997-1.91 1.178-4.32 9.622 3.23Zm32.846 3.767-.839-3.392 10.372-3.231 1.107 4.338-10.64 2.285Z"/>
  <path fill="#6DBE49" d="m38.488 38.388-1.018-3.892 12.21-3.41 1.107 4.338-12.3 2.964Z"/>
  <path fill="#37C0C9" d="m35.828 36.745 3.427-.839 3.66 12.14-4.338 1.106-2.75-12.407Z"/>
  <path fill="#010101" d="m43.486 40.87 3.195-.893 3.196 9.746-4.32 1.107-2.071-9.96ZM11.568 18.787l.714 3.034-10.3 3.374-1.107-4.338 10.693-2.07Z"/>
  <path fill="#F8E65C" d="m17.727 24.07.75 2.946-12.122 3.767-1.107-4.338 12.479-2.374Z"/>
  <path fill="#37C0C9" d="m19.726 25.142-2.892.643-3.695-11.96 4.32-1.108 2.267 12.425Z"/>
  <path fill="#D22968" d="m12.389 21.054-2.856.732-3.374-9.64 4.338-1.106 1.892 10.014Z"/>
  <path fill="#F8E65C" d="M29.134 31.194h-2.571L25.617.4h4.73l-1.213 30.794Z"/>
  <path fill="#325CA8" d="m27.384 31.354 1.053-1.624L55.5 44.42l-2.428 3.999-25.688-17.066Z"/>
  <path fill="#D22968" d="m27.01 30.069 1.267 2.445-25.6 15.317-2.052-3.624L27.009 30.07Z"/>
  <path fill="#6DBE49" d="m28.616 29.622-1.41 2.268L.5 17.77l2.428-4.053 25.688 15.905Z"/>
  <path fill="#DC5937" d="m28.063 32.086-1.107-2.178 26.402-16.013 2.124 4.035-27.42 14.156Z"/>
  <path fill="#37C0C9" d="M26.456 31.265h3.16l.589 30.115h-4.41l.66-30.115Z"/>
  <path fill="#fff" d="M30.865 25.82H24.76l-3.053 5.284 3.053 5.302h6.105l3.053-5.302-3.053-5.284Z"/>
</svg>
