<svg width="162" height="120" viewBox="0 0 162 120" fill="none" xmlns="http://www.w3.org/2000/svg">
<path d="M161.8 57.6C161.8 48.4 155.3 40.5 145.9 36.9C146 35.7 146.1 34.6 146.1 33.4C146.1 15 128.2 0 106.1 0C93.2 0 81.7 5.1 74.3 13.1C68.9 9.6 62.2 7.6 54.9 7.6C37.4 7.6 23.2 19.4 23.2 34C23.2 35.9 23.4 37.7 23.9 39.5C23.7 39.5 23.4 39.5 23.2 39.5C10.4 39.5 0 48.2 0 58.8C0 67.5 6.8 74.8 16.2 77.2C14.7 80.1 13.9 83.4 13.9 86.8C13.9 100.5 27.2 111.5 43.6 111.5C44.4 111.5 45.1 111.5 45.9 111.4C50.7 116.4 58.1 119.7 66.4 119.7C75.4 119.7 83.3 115.9 88.1 110.2C91.1 111 94.3 111.5 97.6 111.5C107.5 111.5 116.2 107.5 121.6 101.3C124.4 102.2 127.5 102.7 130.7 102.7C145.2 102.7 156.9 92.9 156.9 80.8C156.9 77.9 156.2 75.1 154.9 72.5C159.2 68.6 161.8 63.4 161.8 57.6Z" fill="url(#paint0_linear_2267_1202)"/>
<defs>
<linearGradient id="paint0_linear_2267_1202" x1="80.9" y1="0" x2="80.9" y2="119.7" gradientUnits="userSpaceOnUse">
<stop stop-color="white"/>
<stop offset="1" stop-color="#E3F4FE" stop-opacity="0"/>
</linearGradient>
</defs>
</svg>
