<svg width="91" height="57" viewBox="0 0 91 57" fill="none" xmlns="http://www.w3.org/2000/svg">
<path d="M85.1524 26.9006C84.1524 26.4006 83.0523 26.0006 81.9523 25.8006C83.6523 21.1006 81.3523 15.8006 76.0523 13.1006C72.6523 11.4006 68.7523 11.1006 65.3523 12.0006C64.8523 8.00063 62.2523 4.20063 57.7523 1.90063C50.2523 -1.89937 40.5523 0.200627 36.0523 6.40063C35.8523 6.70063 35.6523 7.00063 35.4523 7.30063C35.1523 7.10063 34.9524 7.00063 34.6524 6.90063C27.5524 3.40063 18.4524 5.30063 14.1524 11.2006C12.5524 13.5006 11.8523 16.0006 12.0523 18.5006C7.95235 18.4006 3.95235 20.0006 1.65235 23.2006C-1.64765 27.8006 0.152352 33.7006 5.65235 36.5006C7.55235 37.5006 9.65233 37.9006 11.7523 37.9006C10.5523 40.8006 11.9523 44.1006 15.2523 45.8006C15.9523 46.2006 16.7523 46.4006 17.5523 46.6006C18.4523 49.6006 20.6523 52.3006 24.0523 54.0006C24.0523 54.0006 24.0524 54.0006 24.1524 54.0006C24.8524 54.6006 25.6523 55.2006 26.5523 55.7006C31.2523 58.1006 37.3523 56.9006 40.3523 53.1006C40.7523 52.8006 41.1523 52.6006 41.4523 52.3006C41.8523 52.6006 42.3523 53.0006 42.8523 53.2006C46.2523 54.9006 50.4523 54.3006 52.9523 51.9006C54.0523 53.1006 55.3523 54.1006 56.9523 54.9006C63.7523 58.3006 72.4523 56.5006 76.5523 50.8006C77.8523 49.0006 78.5523 47.0006 78.5523 45.0006C82.6523 45.2006 86.7523 43.5006 89.0523 40.3006C92.3523 35.5006 90.6524 29.6006 85.1524 26.9006Z" fill="url(#paint0_linear_2267_1210)"/>
<defs>
<linearGradient id="paint0_linear_2267_1210" x1="45.3659" y1="0" x2="45.3659" y2="56.9405" gradientUnits="userSpaceOnUse">
<stop stop-color="white"/>
<stop offset="1" stop-color="#E3F4FE" stop-opacity="0"/>
</linearGradient>
</defs>
</svg>
