<svg width="552" height="359" viewBox="0 0 552 359" fill="none" xmlns="http://www.w3.org/2000/svg">
<path d="M1.51522e-05 149.832C1.51522e-05 99.9328 48.487 59.4387 108.183 59.4387C112.876 59.4387 117.568 59.7 122.26 60.2225C131.384 32.791 157.452 9.80073 193.166 2.48566C238.264 -6.91943 283.623 11.107 304.217 44.0248C311.777 40.106 320.379 37.2322 329.243 35.4035C379.294 24.9534 430.127 50.2949 442.64 92.0953V92.6178C445.507 91.5728 448.635 90.789 451.764 90.2665C495.037 81.1227 538.832 103.068 549.52 139.121C560.468 175.174 534.139 211.749 490.866 220.893C490.345 220.893 489.823 221.154 489.563 221.154C492.169 225.334 493.994 230.037 495.037 235C502.336 266.089 478.353 296.133 441.076 302.404C428.823 304.494 416.832 303.71 405.883 300.575C396.238 327.223 370.43 349.168 335.499 356.483C295.875 364.843 255.73 351.78 232.79 326.178C226.533 328.79 219.756 330.88 212.717 332.448C160.841 343.42 108.444 317.034 95.4099 273.927C92.021 262.432 91.7603 250.937 94.1065 240.225C41.1879 233.694 1.51522e-05 195.813 1.51522e-05 149.832Z" fill="url(#paint0_linear_2267_1214)"/>
<defs>
<linearGradient id="paint0_linear_2267_1214" x1="276" y1="0" x2="276" y2="359" gradientUnits="userSpaceOnUse">
<stop stop-color="white"/>
<stop offset="1" stop-color="#CCDAE7"/>
</linearGradient>
</defs>
</svg>
