<svg width="164" height="98" viewBox="0 0 164 98" fill="none" xmlns="http://www.w3.org/2000/svg">
<path d="M148.485 22.5058C142.885 20.1058 136.785 19.3058 130.985 20.0058C128.985 14.9058 124.785 10.5058 118.685 7.80583C109.385 3.70583 98.385 5.00583 90.785 10.3058C88.485 7.00583 85.085 4.30583 80.785 2.40583C68.485 -2.99417 53.185 1.00583 46.685 11.3058C45.485 13.3058 44.585 15.3058 44.185 17.4058C33.985 14.8058 22.685 18.5058 17.585 26.7058C15.885 29.4058 15.085 32.2058 15.085 35.0058C9.88498 36.5058 5.28498 39.6058 2.58497 44.0058C-3.21503 53.2058 1.08498 64.5058 12.085 69.3058C16.685 71.3058 21.585 71.8058 26.285 71.1058C27.685 80.8058 34.585 89.7058 45.685 94.5058C61.285 101.306 80.085 97.8058 90.885 86.9058C93.285 89.8058 96.585 92.3058 100.585 94.1058C113.785 99.9058 130.185 95.6058 137.085 84.6058C140.485 79.2058 140.985 73.1058 138.985 67.7058C147.885 66.7058 156.185 62.2058 160.685 55.0058C168.085 43.3058 162.685 28.7058 148.485 22.5058Z" fill="url(#paint0_linear_2267_1200)"/>
<defs>
<linearGradient id="paint0_linear_2267_1200" x1="81.9987" y1="0" x2="81.9987" y2="97.9852" gradientUnits="userSpaceOnUse">
<stop stop-color="white"/>
<stop offset="1" stop-color="#E3F4FE" stop-opacity="0"/>
</linearGradient>
</defs>
</svg>
