<svg width="61" height="46" viewBox="0 0 61 46" fill="none" xmlns="http://www.w3.org/2000/svg">
<path d="M60.985 21.7514C60.985 18.2514 58.585 15.3514 54.985 13.9514C55.085 13.5514 55.085 13.0514 55.085 12.6514C55.085 5.75143 48.385 0.151428 39.985 0.151428C35.085 0.151428 30.785 2.05143 28.085 5.05143C26.085 3.75143 23.585 2.95143 20.785 2.95143C14.185 2.95143 8.88507 7.35143 8.88507 12.8514C8.88507 13.5514 8.98506 14.2514 9.18506 14.9514C9.08506 14.9514 8.98507 14.9514 8.88507 14.9514C4.08507 14.9514 0.185059 18.2514 0.185059 22.2514C0.185059 25.5514 2.78503 28.2514 6.28503 29.1514C5.68503 30.2514 5.38507 31.4514 5.38507 32.7514C5.38507 37.8514 10.385 42.0514 16.585 42.0514C16.885 42.0514 17.185 42.0514 17.485 42.0514C19.285 43.9514 22.0851 45.1514 25.1851 45.1514C28.5851 45.1514 31.585 43.7514 33.285 41.5514C34.385 41.8514 35.5851 42.0514 36.8851 42.0514C40.5851 42.0514 43.8851 40.5514 45.8851 38.2514C46.9851 38.5514 48.085 38.7514 49.285 38.7514C54.685 38.7514 59.1851 35.0514 59.1851 30.5514C59.1851 29.4514 58.885 28.4514 58.485 27.4514C59.985 25.8514 60.985 23.8514 60.985 21.7514Z" fill="url(#paint0_linear_2267_1201)"/>
<defs>
<linearGradient id="paint0_linear_2267_1201" x1="30.5851" y1="0.151428" x2="30.5851" y2="45.1514" gradientUnits="userSpaceOnUse">
<stop stop-color="white"/>
<stop offset="1" stop-color="#E3F4FE" stop-opacity="0"/>
</linearGradient>
</defs>
</svg>
