<svg width="323" height="219" viewBox="0 0 323 219" fill="none" xmlns="http://www.w3.org/2000/svg">
<path d="M308.818 118.58C304.563 115.019 299.954 111.815 294.281 109.322C304.563 101.844 311.654 91.8732 314.136 80.122C314.845 77.2732 315.2 74.0683 315.2 70.8634C315.2 42.7317 287.899 20.2976 254.571 20.2976C241.098 20.2976 228.688 23.8585 218.761 30.2683C209.542 12.4634 187.914 0 163.095 0C133.313 0 108.848 17.8049 103.53 41.6634C92.5389 34.5415 79.0659 30.2683 64.1746 30.2683C28.719 30.2683 0 54.4829 0 84.039C0 110.034 21.9824 131.756 51.4105 136.741C47.1559 143.507 45.0285 150.985 45.0285 158.82C45.0285 185.527 70.9111 207.249 102.821 207.249C117.003 207.249 130.122 202.976 140.404 195.498C150.332 209.741 168.768 219 190.042 219C216.279 219 238.261 204.4 245.352 184.459C253.153 188.376 262.016 190.512 271.589 190.512C299.954 190.512 323 171.283 323 147.78C322.645 136.741 317.327 126.415 308.818 118.58Z" fill="url(#paint0_linear_2267_1206)"/>
<defs>
<linearGradient id="paint0_linear_2267_1206" x1="161.5" y1="0" x2="161.5" y2="219" gradientUnits="userSpaceOnUse">
<stop stop-color="white"/>
<stop offset="1" stop-color="#CCDAE7"/>
</linearGradient>
</defs>
</svg>
