<svg width="59" height="37" viewBox="0 0 59 37" fill="none" xmlns="http://www.w3.org/2000/svg">
<path d="M54.7597 17.3041C54.0597 17.0041 53.4597 16.7041 52.7597 16.6041C53.8597 13.5041 52.3598 10.1041 48.9598 8.40414C46.7598 7.30414 44.2598 7.10414 42.0598 7.70414C41.7598 5.10414 40.0598 2.60414 37.1598 1.20414C32.3598 -1.19586 26.0598 0.104145 23.1598 4.10415C23.0598 4.30414 22.8597 4.50414 22.7597 4.70414C22.5597 4.60414 22.4597 4.50414 22.2597 4.40414C17.6597 2.10414 11.7598 3.30414 9.05976 7.20414C7.95976 8.70414 7.55974 10.3041 7.75974 11.9041C5.15974 11.8041 2.45976 12.9041 1.05976 14.9041C-1.04024 17.9041 0.0597634 21.7041 3.65976 23.5041C4.85976 24.1041 6.25976 24.4041 7.65976 24.4041C6.95976 26.3041 7.75975 28.4041 9.95975 29.5041C10.4598 29.7041 10.9598 29.9041 11.4598 30.0041C12.0598 31.9041 13.4598 33.7041 15.6598 34.8041C16.0598 35.2041 16.5598 35.6041 17.1598 35.9041C20.1598 37.4041 24.1598 36.7041 26.0598 34.2041C26.2598 34.0041 26.5597 33.9041 26.7597 33.7041C27.0597 33.9041 27.3598 34.1041 27.6598 34.3041C29.8598 35.4041 32.5597 35.0041 34.2597 33.5041C34.9597 34.3041 35.7597 34.9041 36.8597 35.4041C41.2597 37.6041 46.8598 36.4041 49.4598 32.8041C50.2598 31.6041 50.7597 30.3041 50.7597 29.1041C53.4597 29.2041 56.0598 28.1041 57.5598 26.1041C59.3598 22.9041 58.2597 19.1041 54.7597 17.3041Z" fill="url(#paint0_linear_2267_1209)"/>
<defs>
<linearGradient id="paint0_linear_2267_1209" x1="29.2066" y1="0" x2="29.2066" y2="36.6878" gradientUnits="userSpaceOnUse">
<stop stop-color="white"/>
<stop offset="1" stop-color="#E3F4FE" stop-opacity="0"/>
</linearGradient>
</defs>
</svg>
