<svg width="60" height="39" viewBox="0 0 60 39" fill="none" xmlns="http://www.w3.org/2000/svg">
<path d="M59.6715 16.0651C59.6715 10.6651 54.4715 6.36512 47.9715 6.36512C47.4715 6.36512 46.9715 6.36513 46.4715 6.46513C45.4715 3.46513 42.6715 1.06513 38.7715 0.265126C33.8715 -0.734874 28.9715 1.16513 26.7715 4.76513C25.9715 4.36513 25.0715 4.06512 24.0715 3.86512C18.6715 2.76512 13.1715 5.46513 11.8715 9.96513C11.5715 9.86513 11.2715 9.76512 10.8715 9.66512C6.17147 8.66512 1.47147 11.0651 0.271465 14.9651C-0.928535 18.8651 1.97147 22.7651 6.57147 23.7651C6.57147 23.7651 6.67147 23.7651 6.77147 23.7651C6.47147 24.2651 6.27147 24.7651 6.17147 25.2651C5.37147 28.5651 7.97148 31.8651 11.9715 32.5651C13.2715 32.7651 14.5715 32.6651 15.7715 32.3651C16.8715 35.2651 19.5715 37.5651 23.3715 38.3651C27.6715 39.2651 31.9715 37.8651 34.4715 35.0651C35.1715 35.3651 35.8715 35.5651 36.6715 35.7651C42.2715 36.9651 47.8715 34.0651 49.3715 29.4651C49.7715 28.2651 49.7715 26.9651 49.4715 25.8651C55.1715 25.1651 59.6715 21.0651 59.6715 16.0651Z" fill="url(#paint0_linear_2267_1213)"/>
<defs>
<linearGradient id="paint0_linear_2267_1213" x1="29.8357" y1="0" x2="29.8357" y2="38.6364" gradientUnits="userSpaceOnUse">
<stop stop-color="white"/>
<stop offset="1" stop-color="#E3F4FE" stop-opacity="0"/>
</linearGradient>
</defs>
</svg>
