<svg xmlns="http://www.w3.org/2000/svg" width="356" height="140" fill="currentColor" viewBox="0 0 356 140">
  <path d="M222.995 138.742a1.62 1.62 0 0 1-1.08 1.078h-.54c-.72-.179-1.26-.898-1.08-1.617 0-.18 3.06-12.94-3.06-22.105-3.059-4.673-7.919-7.549-14.578-8.627-.36 0-.72-.359-.9-.539-.18-.359-.36-.719-.18-1.078 0 0 1.26-6.29-1.8-10.604-1.62-2.156-4.139-3.594-7.559-3.953-.72 0-1.26-.72-1.26-1.438 0-.54 0-12.041-13.138-13.659-12.959 1.797-13.139 13.3-13.139 13.659 0 .719-.54 1.258-1.26 1.438-3.419.359-5.939 1.797-7.559 3.953-3.059 4.314-1.8 10.604-1.8 10.604 0 .359 0 .719-.18 1.078a.99.99 0 0 1-.899.539c-6.66 1.078-11.519 3.954-14.579 8.627-6.119 8.985-3.06 21.925-3.06 21.925.18.719-.359 1.438-1.079 1.618h-.54c-.54 0-.9-.54-1.08-1.079-.18-.539-3.24-14.197 3.419-24.082 3.24-5.032 8.459-8.087 15.119-9.525-.18-2.336-.36-7.368 2.519-11.322 1.8-2.516 4.68-4.313 8.279-4.852.36-3.595 2.52-13.659 15.479-15.277h.36c12.958 1.618 15.118 11.682 15.478 15.276 3.6.54 6.479 2.337 8.279 4.853 2.88 3.954 2.7 8.986 2.52 11.322 6.839 1.438 11.878 4.493 15.118 9.525 7.019 10.244 3.78 23.723 3.78 24.262Z"/>
  <path d="M199.598 122.388c-.54-1.618-1.26-2.876-2.34-4.134-1.98-2.156-4.68-3.414-7.379-3.594-1.08-3.774-5.4-17.253-11.699-19.41h-1.26c-3.059 1.258-5.759 5.032-7.739 9.166-1.98 4.133-3.24 8.447-3.78 10.424-2.699.359-5.399 1.617-7.199 3.594-1.08 1.078-1.8 2.516-2.339 4.133-.36 1.618-.54 3.235-.18 4.853.719 3.055 3.239 5.751 6.479 6.47 1.62.359 3.239.179 4.679-.54 1.44-.718 2.7-1.797 3.24-3.234.72-1.438.9-3.056.36-4.493-.54-1.438-1.62-2.516-2.88-3.056 1.08.719 1.98 1.977 2.16 3.235.18 1.258 0 2.516-.72 3.595-1.44 2.156-4.139 3.055-6.299 2.336-2.16-.719-3.96-2.696-4.32-5.032-.18-1.078-.18-2.336.18-3.415.36-1.078 1.08-2.156 1.8-3.055 1.62-1.797 3.96-2.875 6.299-2.875 1.26 0 2.34.179 3.6.719 1.08.539 2.34 1.078 3.24 1.976 1.799 1.618 2.879 4.134 3.239 6.83.54 2.695.72 5.391.9 8.267v-1.079c0 .36 0 .719.18 1.079.36-2.696.54-5.572.9-8.267.54-2.696 1.44-5.212 3.24-6.83.899-.898 1.979-1.437 3.239-1.976 1.08-.54 2.34-.719 3.6-.719 2.34 0 4.679 1.078 6.299 2.875.72.899 1.44 1.977 1.8 3.055.36 1.079.36 2.337.18 3.415-.36 2.336-2.34 4.313-4.5 5.032-2.159.719-4.859-.18-6.299-2.336-.72-.899-1.08-2.337-.72-3.595.18-1.258.9-2.516 2.16-3.235-1.26.54-2.34 1.618-2.88 3.056-.54 1.437-.36 3.055.36 4.493.72 1.437 1.98 2.516 3.24 3.234 1.44.719 3.06.899 4.679.54 3.24-.719 5.58-3.415 6.48-6.47.54-1.797.36-3.415 0-5.032Zm-15.299-6.65c-1.44.719-2.699 1.438-3.779 2.696-1.08 1.078-1.8 2.516-2.34 3.954l-.54 2.156-.54-2.156a12.746 12.746 0 0 0-2.34-3.954 14.403 14.403 0 0 0-3.779-2.696c-.9-.359-1.98-.719-2.88-.898 1.44-5.033 5.22-14.737 9.359-16.714 4.14 1.977 7.919 11.681 9.359 16.893-.72 0-1.62.36-2.52.719Zm85.49-12.58c0 3.594-6.479 16.714-6.479 16.714s-6.659-13.479-6.479-17.074c0-3.594 3.059-6.47 6.659-6.47 3.6.36 6.299 3.236 6.299 6.83Zm-9.539 18.691s-13.678-5.931-16.018-8.807c-2.34-2.875-1.8-6.829.9-9.165 2.88-2.337 6.839-1.977 9.179.898 2.34 2.876 5.939 17.074 5.939 17.074Zm21.779-7.908c-2.34 2.696-15.839 8.626-15.839 8.626s3.6-14.557 5.94-17.252c2.34-2.696 6.479-3.056 9.179-.54 2.699 2.337 3.059 6.47.72 9.166Zm-14.579 17.253c-1.44 2.336-4.319 3.235-6.659 1.797s-3.24-4.313-1.8-6.65c1.44-2.336 4.32-3.234 6.66-1.797 2.339 1.258 3.239 4.314 1.799 6.65Z"/>
  <path d="M319.104 103.697c-5.759 0-11.159 1.438-16.018 3.774 0-.18 0-.18.18-.359.36-1.438 0-2.876-.9-3.954-.72-1.078-2.16-1.977-3.6-2.157-.54 0-1.259 0-1.799.18.18-.539.36-1.078.36-1.797 0-1.438-.72-2.696-1.8-3.774-1.08-.899-2.52-1.438-3.96-1.258-.54 0-1.26.18-1.8.539.18-.54.18-1.258 0-1.797-.18-1.258-1.079-2.516-2.519-3.235-1.44-.72-2.88-.899-4.14-.54-.54.18-1.08.54-1.62.9 0-.54-.18-1.259-.36-1.798-.54-1.258-1.619-2.157-3.059-2.696-1.44-.539-2.88-.36-4.14.36-.54.36-.9.719-1.44 1.078-.18-.54-.36-1.078-.72-1.617a5.559 5.559 0 0 0-3.599-1.977c-1.44-.18-2.88.18-3.96 1.258-.36.18-.54.539-.72.898 0-28.395-30.236-45.468-54.533-59.127-16.019-9.165-30.057-16.893-29.877-25.16 0-.72-.54-1.438-1.44-1.438-.72 0-1.44.54-1.44 1.438 0 7.728-13.498 15.276-29.337 24.262C122.566 39.358 91.97 56.79 91.97 85.546c-.18-.36-.54-.54-.72-.899-1.08-.899-2.52-1.438-3.96-1.258-1.44.18-2.7.898-3.6 1.977-.36.539-.54 1.078-.72 1.617a2.8 2.8 0 0 0-1.44-1.078c-1.259-.719-2.699-.899-4.139-.36-1.44.54-2.52 1.438-3.06 2.696-.18.54-.36 1.079-.36 1.797-.54-.359-1.08-.718-1.62-.898-1.259-.36-2.699-.18-4.139.54-1.26.898-2.16 1.976-2.52 3.234-.18.54-.18 1.258 0 1.797-.54-.18-1.08-.539-1.8-.539-1.439-.18-2.699.36-3.959 1.438-1.08 1.078-1.8 2.336-1.8 3.774 0 .539.18 1.258.36 1.797-.54-.18-1.26-.18-1.8-.18-1.44.18-2.7.899-3.419 2.157-.9 1.078-1.26 2.696-.9 3.954 0 .179.18.359.18.359-4.86-2.336-10.259-3.774-16.018-3.774C16.558 103.697.18 119.872 0 139.82h2.16c0-18.69 15.478-33.966 34.196-33.966 18.898 0 34.196 15.276 34.376 33.966h2.16c-.18-10.962-5.22-20.847-12.959-27.497 5.58-11.142 17.818-18.69 31.137-19.05 15.658-.539 28.617 9.705 34.556 19.949-5.759 10.783-3.42 23.903-2.88 26.419h3.06v-.18c0-.18-3.78-15.815 3.599-26.958 3.78-5.751 9.899-9.345 17.998-10.603.36 0 .72-.18.9-.539.18-.36.36-.719.18-1.079 0-.179-1.44-7.907 2.34-13.119 1.98-2.696 5.219-4.313 9.359-4.852.72 0 1.26-.72 1.26-1.438 0-.54 0-14.917 16.198-17.073 16.198 2.156 16.198 16.354 16.198 17.073 0 .719.54 1.258 1.26 1.438 4.14.539 7.379 2.156 9.359 4.852 3.78 5.212 2.34 13.119 2.34 13.119 0 .36 0 .719.18 1.079a.99.99 0 0 0 .9.539c8.099 1.258 14.218 4.852 17.998 10.603 7.379 11.143 3.779 26.958 3.779 26.958v.18h2.7c.54-2.516 2.88-15.636-2.88-26.599 5.94-10.423 18.898-20.487 34.556-19.948 13.499.36 25.737 7.907 31.137 19.05-7.739 6.649-12.779 16.534-12.959 27.497h2.16c.18-18.691 15.658-33.967 34.376-33.967 18.718 0 34.196 15.276 34.376 33.967h2.16c.18-19.769-16.018-35.944-36.176-35.944Zm-258.81 3.235c0-.18-.18-.359-.36-.359-.54-.36-1.26-.36-1.62.179-.36.539-.18 1.258.36 1.618.18.179.36.179.54.179-.36.54-.54.899-.9 1.438l-2.7-1.617c-.72-.36-1.08-1.079-1.26-1.797-.18-.719 0-1.618.54-2.337.36-.719 1.26-1.078 1.98-1.258.72 0 1.44.18 2.16.719l2.16 1.797c-.18.539-.54.899-.9 1.438Zm5.579-6.47c-.54-.719-1.26-.719-1.62-.359-.36.359-.54 1.078 0 1.617l.18.18-1.08 1.078-1.98-1.797c-.54-.539-.9-1.258-.9-1.977 0-.719.36-1.617 1.08-2.156.72-.54 1.44-.9 2.34-.72.72 0 1.44.54 1.8 1.079l1.44 1.977c-.36.36-.72.719-1.26 1.078Zm7.019-4.852c-.36-.54-1.08-.899-1.62-.54-.54.36-.72 1.079-.36 1.618-.54.36-.9.54-1.26.899l-1.44-2.157c-.36-.54-.54-1.438-.36-2.157a2.86 2.86 0 0 1 1.44-1.797c.72-.36 1.62-.539 2.34-.36.72.18 1.26.72 1.62 1.439l1.08 2.156c-.54.36-1.08.54-1.44.899Zm7.919-3.235c0-.18 0-.18 0 0-.18-.719-.72-.899-1.44-.719-.54.18-.9.899-.72 1.438-.54.18-1.08.36-1.44.539l-.9-2.337c-.36-.718-.36-1.437 0-2.156.36-.719.9-1.258 1.8-1.618.9-.18 1.62-.18 2.34.18.72.36 1.08.899 1.26 1.618l.54 2.336c-.54.36-1.08.54-1.44.719Zm8.279-1.618c0-.719-.54-1.078-1.26-1.078-.54 0-1.08.54-.9 1.258-.54 0-1.08.18-1.62.18l-.54-2.337c-.18-.718 0-1.437.54-2.156.54-.719 1.26-1.078 2.16-1.078.72 0 1.62.18 2.34.718.54.54.9 1.258.9 1.977v2.337c-.54 0-1.08 0-1.62.18Zm10.619-1.977-.54 2.337c-.54 0-1.08-.18-1.62-.18 0-.54-.36-1.258-.9-1.258s-1.08.36-1.26 1.078c-.54 0-1.08 0-1.62-.18v-2.336c0-.719.36-1.437.9-1.977.36-.18.72-.539 1.08-.539.36-.18.9-.18 1.26-.18.9 0 1.62.54 1.98 1.079.72.719.72 1.438.72 2.157Zm8.639 2.516-1.08 2.337c-.54-.18-1.08-.36-1.44-.54.18-.538-.18-1.257-.72-1.437-.54-.18-1.26.18-1.44.719-.54-.18-1.08-.36-1.439-.36l.539-2.336c.18-.719.54-1.438 1.26-1.797.72-.36 1.44-.54 2.34-.18.9.36 1.44.899 1.8 1.618.36.539.54 1.258.18 1.977Zm7.919 4.134-1.62 2.157c-.54-.36-.9-.54-1.44-.899l.18-.18c.36-.539.18-1.258-.36-1.437-.54-.36-1.26-.18-1.44.539v.18c-.539-.18-.899-.54-1.439-.72l1.08-2.336c.359-.719.899-1.258 1.619-1.438.72-.18 1.62-.18 2.34.36.72.36 1.26 1.078 1.44 1.797.18.719.18 1.438-.36 1.977Zm5.039 7.548c-.36-.359-.72-.719-1.259-1.078 0 0 .179 0 .179-.18.36-.539.54-1.078 0-1.617-.539-.36-1.259-.36-1.619.179l-.18.18c-.36-.359-.9-.719-1.26-1.078l1.62-2.157c.54-.539 1.08-.898 1.799-1.078.36 0 .72 0 1.08.18.36.18.72.36 1.08.719.54.539 1.08 1.257 1.08 2.156 0 .719-.36 1.438-.9 1.977l-1.62 1.797Zm8.639 3.595c-.18.718-.54 1.437-1.259 1.797l-1.98 1.258c-.36-.539-.54-.899-.9-1.258.54-.36.72-1.079.36-1.618-.36-.539-1.08-.539-1.62-.179-.36-.36-.72-.719-1.08-1.258l1.98-1.618a2.033 2.033 0 0 1 1.98-.539c.72 0 1.44.539 1.979 1.258.54.539.72 1.438.54 2.157Zm15.839-7.01c-5.4 1.079-9.899 3.056-13.499 6.111 0-.899-.36-1.797-.9-2.696-.9-1.258-2.16-1.977-3.599-2.156-.54 0-1.26 0-1.8.179.18-.539.36-1.258.36-1.797 0-1.438-.72-2.696-1.8-3.774-.54-.54-1.26-.899-1.8-1.078-.72-.18-1.44-.36-1.98-.18-.54 0-1.259.18-1.799.54a3.06 3.06 0 0 0 0-1.798c-.36-1.438-1.26-2.516-2.52-3.235-1.26-.719-2.7-.898-4.14-.54-.54.18-1.08.54-1.619.9 0-.54-.18-1.258-.36-1.798-.54-1.078-1.44-1.977-2.7-2.516 0-3.594.72-7.009 1.8-10.064 8.999-.18 28.976 11.143 36.716 15.995-.72 3.235-.54 6.11-.36 7.907Zm1.259-10.603c-4.679-2.875-25.197-15.456-36.535-15.995 1.259-2.875 3.059-5.57 5.039-8.087 8.819.719 26.097 15.456 32.756 21.566-.54.719-.9 1.618-1.26 2.516Zm2.88-4.672c-3.239-2.876-21.237-19.23-32.396-21.746a53.464 53.464 0 0 1 5.579-5.392c6.299 1.618 20.338 15.276 29.157 25.34-.72.36-1.62 1.079-2.34 1.797Zm8.999-4.493c-1.44.18-2.88.718-4.139 1.078-3.96-4.493-19.798-21.746-29.337-26.06 2.16-1.796 4.499-3.414 6.839-5.031 2.88.539 12.059 8.806 26.457 29.294l.36-.18c-.18.36-.18.719-.18.899Zm.72-3.954c-4.679-6.65-17.278-23.363-24.837-27.677 1.98-1.437 4.139-2.696 6.119-3.953 7.379 3.055 16.738 20.667 20.158 27.856-.54 1.258-1.08 2.516-1.44 3.774Zm3.24-6.65c-2.88-5.75-10.979-21.566-19.078-26.598l7.559-4.313c8.279 5.571 12.959 25.16 13.678 28.575-.899.719-1.619 1.617-2.159 2.336Zm4.499-4.313c-1.26-5.571-5.579-21.746-13.498-28.216 2.879-1.617 5.579-3.234 8.099-4.672 5.399 4.672 7.559 23.363 8.099 31.27-1.08.54-1.98 1.079-2.7 1.618Zm5.4-2.516c-.36-6.11-2.16-25.16-8.279-31.63 5.219-3.235 9.538-6.29 12.058-9.525v40.436c-1.44 0-2.7.36-3.779.719Zm6.299-.899V21.386c2.52 3.235 6.659 6.29 11.699 9.525-6.12 6.29-7.92 24.801-8.459 31.451-.9-.36-1.98-.719-3.24-.899Zm8.819 3.235c-.9-.539-1.8-1.078-2.7-1.437.54-8.267 2.7-26.419 8.099-30.912 2.52 1.618 5.22 3.055 8.099 4.673-7.739 6.11-12.058 21.746-13.498 27.676Zm4.679 4.314c-.72-.899-1.439-1.618-2.339-2.516 1.079-4.673 5.759-22.825 13.678-28.036l7.559 4.313c-7.919 4.672-15.838 19.948-18.898 26.239Zm1.8 2.695c3.6-7.727 12.779-24.621 19.978-27.317 1.98 1.258 4.139 2.516 6.119 3.954-7.379 3.954-19.618 20.308-24.657 27.317-.36-1.258-.72-2.516-1.44-3.954Zm2.34 8.088v-.54c14.938-21.206 24.297-29.114 26.637-29.114 2.34 1.618 4.679 3.235 6.839 5.032-9.179 3.774-24.837 20.668-29.337 25.7-1.439-.36-2.699-.899-4.139-1.078Zm8.819 4.492c-.72-.718-1.44-1.437-2.34-1.976 9.179-10.244 23.218-23.903 29.337-24.981 1.98 1.797 3.779 3.594 5.579 5.391-10.979 2.157-28.437 17.792-32.576 21.566Zm1.8 2.157c7.019-6.47 24.477-21.027 32.936-21.207 1.98 2.517 3.6 5.212 5.039 8.088-10.978.36-31.136 12.4-36.535 15.815-.54-1.078-.9-1.977-1.44-2.696Zm23.757 20.129c-.54-.54-1.26-.36-1.62.179-.36.539-.18 1.258.36 1.618-.36.359-.54.898-.9 1.258l-1.98-1.258c-.719-.36-1.079-1.079-1.259-1.797-.18-.719 0-1.618.54-2.337.54-.719 1.259-1.258 1.979-1.258.72-.18 1.44.18 2.16.539l1.98 1.618c-.54.719-.9 1.078-1.26 1.438Zm5.939-5.931s0-.18-.18-.18c-.36-.539-1.08-.539-1.619-.18-.54.36-.54 1.079 0 1.618l.18.18c-.36.359-.72.718-1.26 1.078l-1.98-1.797c-.54-.539-.9-1.258-.9-1.977 0-.899.36-1.618 1.08-2.157.36-.36.72-.539 1.08-.719.36-.18.72-.18 1.26-.18.72 0 1.439.36 1.799 1.079l1.62 2.157-1.08 1.078Zm6.84-4.852v-.18c-.36-.54-.9-.72-1.44-.54-.54.36-.72.9-.36 1.438 0 .18.18.18.18.18-.54.36-.9.54-1.44.899l-1.62-2.157c-.54-.54-.54-1.438-.36-2.157.18-.718.72-1.437 1.44-1.977.72-.359 1.62-.539 2.34-.359.72.18 1.26.719 1.62 1.438l1.079 2.336c-.36.54-.899.719-1.439 1.079Zm1.439-7.549c-.18.54-.36 1.079-.36 1.797-.539-.359-1.079-.718-1.619-.898-1.44-.36-2.88-.18-3.96.54-1.26.718-2.16 1.796-2.52 3.234-.18.54-.18 1.258 0 1.797-.54-.18-1.08-.539-1.799-.539-.72 0-1.44 0-1.98.18-.72.18-1.26.539-1.8 1.078-1.08.899-1.8 2.336-1.8 3.774 0 .54.18 1.258.36 1.797-.54-.179-1.26-.179-1.8-.179-1.439.179-2.519.898-3.599 2.156-.54.899-.9 1.618-.9 2.516-3.6-2.875-8.099-5.032-13.499-5.93.18-1.618.36-4.673-.36-7.908 8.1-5.212 28.077-16.534 36.716-15.815 1.08 3.055 1.62 6.29 1.62 9.884-1.26.54-2.16 1.438-2.7 2.516Zm6.48 4.134c-.18-.719-.72-1.079-1.44-.899-.54.18-.9.899-.72 1.438v.18c-.54.18-.9.36-1.44.539l-1.08-2.337c-.36-.718-.36-1.437 0-2.156.36-.719.9-1.258 1.8-1.618.9-.18 1.62-.18 2.34.18.72.36 1.08.899 1.26 1.797l.54 2.337c-.36.18-.72.36-1.26.539Zm2.879-7.01c-.36.54-.54 1.08-.72 1.618a2.797 2.797 0 0 0-1.439-1.078c-.54-.36-1.26-.54-1.8-.54-.36-23.722-25.737-38.1-46.255-49.78-13.498-7.729-25.377-14.199-25.197-21.028 0-.719-.54-1.438-1.44-1.438-.72 0-1.44.54-1.44 1.438 0 6.29-11.519 12.94-24.657 20.488-3.6 1.977-7.379 4.133-10.979 6.47h-.18v.18c-6.299 3.773-12.778 8.087-18.178 12.76h-.36v.359c-6.299 5.391-11.518 11.502-14.398 18.69v.18c-1.62 3.774-2.34 7.728-2.52 12.041-.72 0-1.26.36-1.8.54-.54.359-.9.718-1.439 1.078-.18-.54-.36-1.079-.72-1.618a5.564 5.564 0 0 0-3.6-1.977c-.72 0-1.44 0-2.16.18-.18 0-.36.18-.36.18.9-26.419 30.057-42.953 53.454-56.252C162.342 19.95 173.86 13.48 177.64 6.29c3.78 7.548 15.658 14.198 30.057 22.285 23.217 13.12 51.834 29.294 53.094 55.173-.18 0-.36-.18-.54-.18-.72-.179-1.44-.359-2.16-.179-1.26.18-2.52.898-3.42 1.977Zm5.4 5.392c0-.539-.54-1.078-1.26-1.078-.54 0-1.08.54-.9 1.258-.54 0-1.08.18-1.62.36l-.54-2.337c-.18-.719 0-1.438.54-2.156.54-.72 1.26-1.079 2.16-1.079.54 0 .9 0 1.26.18l1.08.54c.54.538.9 1.257.9 1.976v2.336c-.54-.18-1.08-.18-1.62 0Zm10.619-1.977-.54 2.337c-.54-.18-1.08-.18-1.62-.18 0-.719-.36-1.258-.9-1.258s-1.08.36-1.26 1.078c-.54 0-1.08 0-1.62-.18v-2.336c0-.719.36-1.437.9-1.977.54-.539 1.44-.718 2.34-.718.72 0 1.62.539 1.98 1.078.72.719.9 1.438.72 2.157Zm8.639 2.516-.9 2.337c-.54-.18-1.08-.36-1.44-.54.18-.538 0-1.257-.72-1.437-.54-.18-1.26.18-1.44.719-.54-.18-1.08-.36-1.44-.36l.54-2.336c.18-.719.54-1.438 1.26-1.797.72-.36 1.44-.54 2.34-.18.9.36 1.44.899 1.8 1.618.36.719.36 1.258 0 1.977Zm7.919 4.134-1.44 2.157c-.54-.36-.9-.54-1.26-.899.36-.54.18-1.258-.36-1.617-.54-.36-1.26 0-1.44.539-.54-.18-.9-.54-1.44-.72l1.08-2.335c.36-.72.9-1.259 1.62-1.438.72-.18 1.62-.18 2.34.36.72.538 1.26 1.078 1.44 1.976 0 .719 0 1.438-.54 1.977Zm5.039 7.728-1.08-1.078s.18 0 .18-.18c.36-.539.36-1.078 0-1.618-.54-.359-1.26-.359-1.62.18 0 0 0 .18-.18.18-.36-.36-.719-.719-1.259-1.078l1.619-1.977c.54-.54 1.08-.899 1.8-1.079.72 0 1.62.18 2.16.72.72.538 1.08 1.437 1.08 2.156 0 .719-.36 1.438-.9 1.977l-1.8 1.797Zm8.819 3.415c-.18.718-.54 1.437-1.26 1.797l-2.699 1.617c-.36-.539-.54-.898-.9-1.438.18 0 .36 0 .54-.179.54-.36.72-1.079.36-1.618-.36-.539-1.08-.539-1.62-.179l-.36.359c-.36-.539-.72-.899-1.08-1.438l2.16-1.797c.54-.539 1.26-.719 1.979-.719.9.18 1.62.539 1.98 1.258.72.719.9 1.618.9 2.337Z"/>
  <path d="M348.801 139.82h-2.16c0-15.096-12.419-27.317-27.537-27.317-15.118 0-27.357 12.221-27.537 27.317h-2.16c0-16.354 13.319-29.473 29.697-29.473s29.517 13.119 29.697 29.473Z"/>
  <path d="M326.663 139.82h-15.118c0-4.133 3.42-7.368 7.559-7.368 4.14 0 7.559 3.235 7.559 7.368Zm-6.839-9.884 1.8-12.401c0-1.437-1.26-2.695-2.7-2.695-1.44 0-2.699 1.258-2.699 2.695l1.799 12.401a.905.905 0 0 0 1.8 0Zm-5.039 1.078-4.5-11.682c-.72-1.258-2.34-1.797-3.599-.898-1.26.719-1.8 2.336-.9 3.594l7.739 9.705c.36.899 1.62.18 1.26-.719Zm-13.679-4.313c-1.26-.719-2.88-.36-3.599.898-.72 1.258-.36 2.876.899 3.595l11.699 4.493c.9.359 1.62-.899.9-1.438l-9.899-7.548Zm39.595.539c-.72-1.258-2.34-1.797-3.599-.899l-9.719 7.728c-.72.539 0 1.798.9 1.438l11.698-4.493c1.08-.898 1.44-2.516.72-3.774Zm-16.017 4.313 7.739-9.704c.72-1.258.36-2.876-.9-3.595-1.26-.719-2.88-.359-3.6.899l-4.499 11.681c-.54.899.72 1.438 1.26.719Zm19.437 8.267c0-.179 0 0 0 0 0-1.617-1.259-2.875-2.699-2.875l-12.419 1.797c-.54.18-.72.539-.72 1.078h15.838Zm-34.196 0h-15.658a2.723 2.723 0 0 1 2.699-2.336l12.419 1.797.54.539ZM98.81 102.978c0 3.595-6.48 17.073-6.48 17.073s-6.48-13.119-6.48-16.713c0-3.595 2.88-6.65 6.48-6.65 3.42-.18 6.48 2.696 6.48 6.29Zm12.417 10.244c-2.34 2.696-16.018 8.806-16.018 8.806s3.6-14.197 5.939-17.073c2.34-2.875 6.48-3.235 9.179-.898 2.88 2.156 3.24 6.29.9 9.165Zm-21.777 9.345s-13.498-5.93-15.838-8.626c-2.34-2.696-2.16-6.829.54-9.166 2.7-2.336 6.84-2.156 9.179.54 2.52 2.695 6.12 17.252 6.12 17.252Zm5.4 10.424c-2.34 1.438-5.4.539-6.66-1.797-1.44-2.336-.54-5.392 1.8-6.65 2.34-1.437 5.4-.539 6.66 1.797 1.26 2.337.54 5.212-1.8 6.65Zm-28.798 6.829h-2.16c0-15.096-12.418-27.317-27.536-27.317-15.119 0-27.357 12.221-27.537 27.317h-1.98c0-16.354 13.318-29.473 29.697-29.473 16.198 0 29.516 13.119 29.516 29.473Z"/>
  <path d="M43.915 139.82H28.797c0-4.133 3.42-7.368 7.559-7.368 4.14 0 7.56 3.235 7.56 7.368Zm-6.48-9.884 1.8-12.401c0-1.437-1.26-2.695-2.7-2.695-1.44 0-2.7 1.258-2.7 2.695l1.8 12.401c.36 1.078 1.62 1.078 1.8 0Zm4.86 1.977 7.74-9.705c.72-1.258.36-2.876-.9-3.594-1.26-.719-2.88-.36-3.6.898l-4.68 11.502c-.36.899.9 1.618 1.44.899Zm15.839-4.314c-.72-1.258-2.34-1.797-3.6-.898l-9.719 7.728c-.72.539 0 1.797.9 1.437l11.699-4.492c1.08-.719 1.44-2.517.72-3.775Zm-39.596-1.437c-1.26-.719-2.88-.36-3.6.898-.72 1.258-.36 2.876.9 3.595l11.699 4.493c.9.359 1.62-.899.9-1.438l-9.9-7.548Zm13.858 4.672-4.5-11.681c-.72-1.258-2.34-1.797-3.599-.899-1.26.719-1.8 2.337-.9 3.595l7.74 9.704c.36.719 1.619.18 1.259-.719Zm-5.219 8.986H11.519v-.179c0-1.438 1.26-2.696 2.7-2.696l12.238 1.797c.54.18.72.719.72 1.078Zm34.196 0H45.715c.18-.179.36-.359.72-.539l12.418-1.797c1.26 0 2.34 1.078 2.52 2.336Z"/>
</svg>
