<svg xmlns="http://www.w3.org/2000/svg" width="823" height="799" fill="currentColor" viewBox="0 0 823 799">
  <path d="M26 391.5c29.833-48.333 95.8-147.1 121-155.5 25.2-8.4 19.833-40.833 14-56l61-9c12.5-23.833 41.6-72.3 58-75.5 20.5-4-28-32.5 38.5-69C371.7-2.7 396.333-2 402 2c60 29 179.8 95.2 179 128-.8 32.8 39.667 47 60 50l5 42.5c21.5 13.5 66.6 44.2 75 59 8.4 14.8 42.833 71.833 59 98.5l43 25.5-63.5 56-107.5 127-17.5 50-59.5 27L402 799 230.5 665.5v-19l-69.5-8-27-29.5-55 5-35.5-60v-81.5L.5 427 26 391.5Z"/>
</svg>
