<svg xmlns="http://www.w3.org/2000/svg" width="498" height="567" fill="currentColor" viewBox="0 0 498 567">
  <path d="M320.92 98.492C327.3 88.537 331 76.7 331 64c0-35.346-28.654-64-64-64-35.346 0-64 28.654-64 64a63.866 63.866 0 0 0 3.865 21.954c-9.763 3.219-19.174 7.504-28.147 12.748C167.174 81.968 147.868 71 126 71c-35.346 0-64 28.654-64 64 0 26.237 15.788 48.786 38.381 58.667a235.88 235.88 0 0 0-10.238 31.898C82.16 221.989 73.313 220 64 220c-35.346 0-64 28.654-64 64 0 35.346 28.654 64 64 64 9.061 0 17.683-1.883 25.495-5.279a236.815 236.815 0 0 0 9.879 32.063C77.32 384.888 62 407.155 62 433c0 35.346 28.654 64 64 64 20.938 0 39.528-10.055 51.204-25.599 9.062 5.436 18.581 9.888 28.467 13.245A63.982 63.982 0 0 0 203 503c0 35.346 28.654 64 64 64 35.346 0 64-28.654 64-64 0-11.469-3.017-22.233-8.3-31.542 25.309-15.156 28.8-14.958 28.8-14.958l20.5-10 60-21 5-4.5 7-13v-7.5l5.5-16.5v-9l5.5-22.5 29-42.5 9-15 5-13.5-12-18.5-6-13.5-18-22.5-10-8-57.5-42c-37.534-45.167-31.008-53.78-73.58-78.508Z"/>
</svg>
