<svg xmlns="http://www.w3.org/2000/svg" width="395" height="391" fill="none" viewBox="0 0 395 391">
  <path fill="#211E1F" d="m328.645 208.755-6.329-.648.487-6.372.162-6.371 6.384.054-.163 6.641-.541 6.696Zm-5.031-1.728 3.949.378.433-5.4.163-5.399h-3.95l-.162 5.183-.433 5.238Z"/>
  <path fill="#211E1F" d="m326.752 220.743-6.275-1.242 1.136-6.263.811-6.318 6.33.648-.866 6.587-1.136 6.588Zm-4.815-2.214 3.895.756.92-5.346.703-5.345-3.949-.378-.649 5.129-.92 5.184Z"/>
  <path fill="#211E1F" d="m323.722 232.515-6.113-1.89.163-.594c.216-.702.378-1.35.595-2.051.324-1.188.649-2.322.973-3.51.163-.648.325-1.35.487-1.998.271-1.188.541-2.376.812-3.618l.108-.594 6.275 1.242-.108.594c-.27 1.296-.595 2.592-.866 3.834l-.486 2.052c-.325 1.296-.704 2.591-1.082 3.887-.163.648-.379 1.296-.541 1.998l-.217.648Zm-4.598-2.7 3.787 1.134c.108-.486.27-.918.378-1.404.379-1.296.758-2.537 1.082-3.833l.487-2.052c.271-1.08.487-2.16.758-3.24l-3.895-.756a61.108 61.108 0 0 1-.704 3.024c-.162.702-.324 1.35-.486 2.052l-.974 3.563c-.163.54-.325 1.026-.433 1.512Z"/>
  <path fill="#211E1F" d="m319.557 243.909-5.897-2.429.216-.54c.271-.648.487-1.296.758-1.944.432-1.134.919-2.268 1.352-3.456.217-.648.433-1.35.703-1.998.379-1.134.812-2.322 1.136-3.456l.163-.594 6.113 1.89-.163.594a101.048 101.048 0 0 1-1.244 3.78c-.216.648-.433 1.296-.649 1.998a53.118 53.118 0 0 1-1.461 3.726c-.27.648-.541 1.296-.757 1.944l-.27.485Zm-4.328-3.131 3.624 1.512c.163-.486.379-.918.541-1.404.487-1.242.974-2.43 1.407-3.672l.649-1.944c.379-1.026.703-2.106 1.082-3.132l-3.787-1.134-.974 2.916c-.216.648-.432 1.35-.703 1.998a93.596 93.596 0 0 1-1.352 3.51c-.163.432-.325.864-.487 1.35Z"/>
  <path fill="#211E1F" d="m314.255 254.818-5.626-3.024.27-.54c.325-.594.649-1.242.974-1.836.541-1.08 1.136-2.16 1.677-3.294.27-.594.541-1.242.865-1.89.487-1.134 1.028-2.214 1.515-3.348l.217-.54 5.896 2.43-.216.54c-.487 1.242-1.082 2.43-1.623 3.618-.271.648-.595 1.296-.866 1.89l-1.785 3.564c-.325.648-.649 1.242-.974 1.89l-.324.54Zm-4.004-3.51 3.463 1.89c.216-.432.433-.864.703-1.296.595-1.188 1.19-2.322 1.785-3.51.271-.648.595-1.242.866-1.89.433-1.026.919-1.998 1.352-3.024l-3.624-1.512c-.433.972-.866 1.89-1.299 2.862-.27.648-.595 1.242-.865 1.89-.541 1.134-1.136 2.214-1.677 3.348-.271.378-.487.81-.704 1.242Z"/>
  <path fill="#211E1F" d="m307.925 265.186-5.302-3.564.325-.486 1.136-1.782c.649-1.026 1.352-2.052 1.948-3.078.324-.594.703-1.188 1.027-1.782.596-1.08 1.245-2.106 1.84-3.186l.27-.54 5.626 3.024-.27.54a191.552 191.552 0 0 1-1.948 3.456c-.324.594-.703 1.188-1.028 1.782a118.888 118.888 0 0 1-2.163 3.402c-.379.594-.758 1.134-1.136 1.728l-.325.486Zm-3.625-3.888 3.3 2.214c.271-.378.541-.81.758-1.188.703-1.134 1.46-2.214 2.11-3.348.324-.594.703-1.188 1.027-1.782.541-.972 1.136-1.944 1.677-2.916l-3.462-1.89c-.487.918-1.028 1.782-1.515 2.7-.324.594-.703 1.188-1.027 1.836a62.473 62.473 0 0 1-2.002 3.132c-.325.378-.595.81-.866 1.242Z"/>
  <path fill="#211E1F" d="m300.621 274.906-4.922-4.05 3.949-5.022c.378-.54.811-1.134 1.244-1.728.703-.972 1.406-1.944 2.11-2.969l.324-.486 5.302 3.563-.325.486c-.757 1.08-1.514 2.16-2.326 3.24l-1.19 1.674-4.166 5.292Zm-3.245-4.266 3.029 2.484 3.354-4.266 1.19-1.674 1.948-2.754-3.3-2.214c-.595.81-1.19 1.674-1.785 2.484-.433.594-.812 1.188-1.245 1.728l-3.191 4.212Z"/>
  <path fill="#211E1F" d="m292.398 283.816-4.49-4.482 4.382-4.644 4.165-4.805 4.923 4.049-4.382 5.022-4.598 4.86Zm-2.813-4.482 2.813 2.808 3.733-3.942 3.516-4.104-3.029-2.483-3.408 3.941-3.625 3.78Z"/>
  <path fill="#211E1F" d="m283.363 291.97-4.057-4.914 4.815-4.157 4.598-4.374 4.49 4.482-4.815 4.589-5.031 4.374Zm-2.326-4.806 2.489 3.024 4.111-3.564 3.895-3.725-2.813-2.808-3.787 3.564-3.895 3.509Z"/>
  <path fill="#211E1F" d="m273.571 299.152-3.57-5.291.487-.324c1.028-.702 2.001-1.404 2.975-2.106.595-.432 1.19-.81 1.731-1.242l5.031-3.888 4.057 4.914-5.247 4.103-1.731 1.242-3.246 2.268-.487.324Zm-1.893-4.967 2.218 3.293c.919-.648 1.839-1.296 2.705-1.944l1.731-1.187 4.273-3.294-2.488-3.024-4.111 3.186c-.595.432-1.191.864-1.786 1.242-.865.54-1.677 1.134-2.542 1.728Z"/>
  <path fill="#211E1F" d="m263.13 305.362-3.03-5.615.541-.27c1.082-.594 2.11-1.188 3.192-1.782.595-.378 1.244-.702 1.839-1.08l3.084-1.944 1.785-1.134.487-.324 3.571 5.292-.541.323-1.786 1.135a182.06 182.06 0 0 1-3.354 2.106c-.595.324-1.19.702-1.785 1.026-1.136.648-2.326 1.349-3.462 1.943l-.541.324Zm-1.353-5.129 1.894 3.456c.974-.54 1.947-1.08 2.921-1.674.595-.324 1.19-.702 1.785-1.026 1.082-.648 2.218-1.404 3.3-2.106.433-.27.812-.54 1.245-.81l-2.218-3.294c-.433.27-.812.54-1.245.81-1.028.648-2.109 1.35-3.137 1.998-.65.378-1.245.702-1.84 1.08-.919.54-1.839 1.08-2.705 1.566Z"/>
  <path fill="#211E1F" d="m252.148 310.493-2.435-5.886.541-.216c1.136-.486 2.272-.972 3.354-1.512.649-.27 1.298-.594 1.894-.864l3.245-1.62c.65-.324 1.245-.648 1.894-.972l.541-.27 3.029 5.616-.54.269c-.649.324-1.245.649-1.894.973-1.19.594-2.326 1.188-3.517 1.782-.649.27-1.298.594-1.947.864-1.19.54-2.38 1.08-3.625 1.62l-.54.216Zm-.866-5.238 1.515 3.618c1.028-.432 2.001-.918 3.029-1.35.649-.27 1.298-.594 1.948-.864 1.136-.54 2.326-1.134 3.462-1.728.433-.216.865-.432 1.352-.702l-1.893-3.456c-.433.216-.92.486-1.353.702-1.081.54-2.218 1.134-3.299 1.674-.65.27-1.299.594-1.948.864a63.81 63.81 0 0 1-2.813 1.242Z"/>
  <path fill="#211E1F" d="m240.678 314.597-1.893-6.102.595-.162c1.19-.378 2.326-.756 3.516-1.134.649-.216 1.353-.432 2.002-.648l3.408-1.296c.649-.27 1.298-.54 1.947-.756l.541-.216 2.435 5.886-.595.216c-.649.27-1.299.486-1.948.756-1.244.486-2.488.972-3.732 1.404-.704.216-1.353.432-2.002.702-1.244.432-2.489.864-3.787 1.242l-.487.108Zm-.378-5.292 1.136 3.78c1.082-.324 2.109-.702 3.137-1.026.649-.216 1.353-.432 2.002-.648 1.244-.432 2.434-.918 3.678-1.404.433-.162.92-.378 1.353-.54l-1.515-3.618c-.487.162-.919.378-1.406.54-1.136.432-2.272.918-3.463 1.35-.703.216-1.352.432-2.001.648-.92.27-1.894.594-2.921.918Z"/>
  <path fill="#211E1F" d="m228.884 317.513-1.244-6.264.595-.108 3.571-.81c.703-.162 1.406-.324 2.055-.486 1.19-.324 2.327-.648 3.517-.972.649-.216 1.352-.378 2.055-.594l.595-.162 1.894 6.102-.595.162c-.649.162-1.353.378-2.002.594-1.244.378-2.542.702-3.841 1.08l-2.055.486c-1.299.324-2.597.594-3.895.864l-.65.108Zm.163-5.292.757 3.888c1.082-.216 2.164-.486 3.246-.756l2.056-.486c1.244-.324 2.488-.702 3.786-1.026.487-.162.974-.27 1.407-.432l-1.136-3.78c-.487.162-.974.27-1.461.432-1.19.324-2.38.702-3.57.972-.703.162-1.407.324-2.056.486a61.268 61.268 0 0 0-3.029.702Z"/>
  <path fill="#211E1F" d="m216.874 319.295-.649-6.318 6.329-.81 6.276-1.134 1.244 6.264-6.546 1.134-6.654.864Zm.649-5.292.379 3.942 5.41-.702 5.301-.918-.757-3.888-5.139.918-5.194.648Z"/>
  <path fill="#211E1F" d="m204.702 319.835-.055-6.372 6.384-.162 6.329-.486.649 6.318-6.654.486-6.653.216Zm1.19-5.184v3.942l5.409-.162 5.356-.432-.379-3.942-5.193.378-5.193.216Z"/>
  <path fill="#211E1F" d="m204.647 319.835-6.654-.162-6.708-.486.649-6.318 6.383.486 6.384.162-.054 6.318Zm-12.01-1.782 5.41.432 5.409.162v-3.942l-5.193-.162-5.247-.378-.379 3.888Z"/>
  <path fill="#211E1F" d="m192.528 319.295-6.6-.864-6.6-1.188 1.245-6.264 6.275 1.134 6.329.81-.649 6.372Zm-11.793-3.024 5.356.918 5.355.702.379-3.942-5.139-.648-5.14-.918-.811 3.888Z"/>
  <path fill="#211E1F" d="m180.518 317.513-.595-.108c-1.299-.27-2.597-.594-3.895-.864l-2.056-.486a79.686 79.686 0 0 1-3.841-1.08c-.649-.216-1.352-.378-2.001-.594l-.596-.162 1.894-6.102.595.162c.703.216 1.352.378 2.056.594 1.19.324 2.38.648 3.516.972.703.162 1.352.324 2.056.486l3.57.81.595.108-1.298 6.264Zm-11.469-4.104c.487.108.92.27 1.407.378 1.244.378 2.542.702 3.787 1.08l2.001.486c1.082.27 2.164.486 3.246.756l.757-3.888c-.973-.216-2.001-.432-2.975-.702-.703-.162-1.407-.324-2.056-.486l-3.57-.972c-.487-.162-.974-.27-1.461-.432l-1.136 3.78Z"/>
  <path fill="#211E1F" d="m168.67 314.597-.595-.162c-1.244-.378-2.543-.81-3.787-1.242a87.117 87.117 0 0 0-2.002-.648 74.125 74.125 0 0 1-3.678-1.404c-.649-.27-1.299-.54-1.948-.756l-.595-.216 2.435-5.886.54.216c.65.27 1.299.486 1.948.756 1.136.432 2.272.918 3.462 1.35l1.948.648c1.19.378 2.326.81 3.516 1.134l.595.162-1.839 6.048Zm-10.982-5.238c.487.162.92.378 1.407.54 1.19.486 2.434.972 3.678 1.404l1.948.648c1.028.378 2.11.702 3.137 1.08l1.136-3.78c-.973-.324-2.001-.648-2.975-.972l-1.947-.648a65.525 65.525 0 0 1-3.463-1.35c-.487-.162-.919-.378-1.406-.54l-1.515 3.618Z"/>
  <path fill="#211E1F" d="m157.255 310.493-.541-.216c-1.19-.486-2.435-1.08-3.625-1.62-.649-.27-1.298-.594-1.947-.864-1.19-.594-2.381-1.188-3.517-1.782-.649-.324-1.244-.648-1.893-.972l-.541-.27 3.029-5.616.541.27c.65.324 1.245.648 1.894.972 1.082.54 2.164 1.134 3.3 1.674.595.27 1.244.54 1.893.864 1.136.486 2.218 1.026 3.354 1.512l.541.216-2.488 5.832Zm-10.441-6.21c.433.216.865.432 1.352.702 1.136.594 2.327 1.188 3.517 1.782.649.27 1.298.594 1.893.864 1.028.432 2.002.918 3.03 1.35l1.514-3.618c-.974-.432-1.893-.864-2.867-1.296-.649-.27-1.244-.594-1.893-.864-1.136-.54-2.218-1.134-3.354-1.674-.433-.216-.866-.432-1.353-.702l-1.839 3.456Z"/>
  <path fill="#211E1F" d="m146.218 305.362-.541-.27a198.77 198.77 0 0 1-3.462-1.943c-.595-.324-1.19-.702-1.785-1.026-1.136-.702-2.272-1.404-3.354-2.106l-1.785-1.134-.541-.324 3.57-5.292.487.324 1.785 1.134c1.028.648 2.056 1.35 3.084 1.944.595.324 1.19.702 1.785 1.026 1.082.594 2.11 1.242 3.192 1.836l.541.27-2.976 5.561Zm-9.737-7.235c.432.27.865.54 1.244.81 1.082.702 2.218 1.404 3.3 2.106.595.324 1.19.702 1.785 1.026.974.54 1.948 1.134 2.921 1.674l1.894-3.456c-.92-.486-1.785-1.026-2.705-1.566-.595-.324-1.19-.702-1.785-1.026a61.889 61.889 0 0 1-3.138-1.998l-1.298-.81-2.218 3.24Z"/>
  <path fill="#211E1F" d="m135.777 299.152-.487-.324-3.246-2.268-1.731-1.188-5.302-4.103 4.058-4.914 5.031 3.942c.541.378 1.136.81 1.677 1.188.974.702 2.002 1.404 3.03 2.106l.486.324-3.516 5.237Zm-8.98-8.153 4.273 3.347 1.677 1.188c.92.648 1.786 1.296 2.705 1.944l2.218-3.293c-.865-.594-1.677-1.188-2.542-1.782-.595-.432-1.136-.81-1.731-1.242l-4.112-3.24-2.488 3.078Z"/>
  <path fill="#211E1F" d="m125.985 291.97-5.031-4.374-4.869-4.589 4.49-4.482 4.652 4.374 4.815 4.157-4.057 4.914Zm-8.169-9.017 3.949 3.725 4.112 3.51 2.488-3.024-3.949-3.401-3.787-3.618-2.813 2.808Z"/>
  <path fill="#211E1F" d="m116.95 283.816-4.598-4.806-4.382-5.076 4.923-4.049 4.165 4.805 4.382 4.59-4.49 4.536Zm-7.249-9.72 3.57 4.104 3.733 3.888 2.813-2.808-3.57-3.78-3.408-3.941-3.138 2.537Z"/>
  <path fill="#211E1F" d="m108.727 274.906-4.112-5.238-1.19-1.728c-.757-1.08-1.569-2.16-2.326-3.24l-.325-.486 5.302-3.563.325.486c.703 1.025 1.406 1.997 2.109 3.023.433.594.812 1.134 1.191 1.728l3.895 5.022-4.869 3.996Zm-6.276-10.422 1.948 2.754 1.19 1.674 3.3 4.266 3.03-2.484-3.192-4.104c-.433-.594-.812-1.134-1.244-1.728-.596-.864-1.191-1.674-1.786-2.538l-3.246 2.16Z"/>
  <path fill="#211E1F" d="m101.423 265.186-.324-.54-1.136-1.782c-.704-1.08-1.407-2.214-2.11-3.348-.325-.594-.703-1.188-1.028-1.782-.65-1.134-1.353-2.322-1.948-3.456l-.27-.54 5.626-3.024.271.54c.595 1.08 1.19 2.16 1.839 3.186.324.594.703 1.188 1.028 1.836l1.947 3.078 1.136 1.782.325.486-5.356 3.564Zm-5.247-10.962c.54.972 1.082 1.944 1.677 2.916.324.594.703 1.188 1.028 1.782.649 1.08 1.406 2.214 2.109 3.294.271.432.541.81.812 1.242l3.3-2.214c-.271-.432-.541-.81-.812-1.242-.649-1.026-1.352-2.106-2.001-3.132-.379-.648-.703-1.242-1.028-1.836a67.595 67.595 0 0 1-1.515-2.7l-3.57 1.89Z"/>
  <path fill="#211E1F" d="m95.094 254.818-.27-.54c-.325-.648-.65-1.242-.975-1.89-.595-1.188-1.19-2.322-1.785-3.51-.27-.648-.595-1.296-.865-1.944-.541-1.188-1.082-2.376-1.623-3.618l-.217-.54 5.897-2.43.216.54c.487 1.134.974 2.214 1.46 3.348.271.648.596 1.296.866 1.944.541 1.08 1.082 2.16 1.677 3.294.325.594.65 1.242.974 1.836l.271.54-5.626 2.97Zm-4.112-11.394c.433 1.026.92 1.998 1.353 3.024.27.648.595 1.296.865 1.944.541 1.188 1.136 2.322 1.785 3.51.217.432.433.864.704 1.296l3.462-1.89a15.272 15.272 0 0 0-.703-1.296c-.595-1.08-1.136-2.214-1.677-3.348-.27-.648-.596-1.296-.866-1.944a63.577 63.577 0 0 1-1.244-2.808l-3.679 1.512Z"/>
  <path fill="#211E1F" d="m89.846 243.909-.217-.594c-.27-.647-.486-1.295-.757-1.943-.487-1.242-.974-2.43-1.406-3.672a21.697 21.697 0 0 0-.704-1.998c-.433-1.242-.865-2.484-1.244-3.78l-.162-.594 6.113-1.89.162.594c.379 1.188.757 2.322 1.136 3.51.217.648.433 1.296.65 1.998.432 1.134.865 2.268 1.352 3.456.27.648.487 1.296.757 1.944l.217.54-5.897 2.429Zm-3.03-11.771c.325 1.08.704 2.106 1.082 3.132.217.648.433 1.296.65 1.998a99.62 99.62 0 0 0 1.406 3.618c.162.486.379.918.541 1.404l3.625-1.512c-.163-.432-.38-.918-.541-1.35-.487-1.134-.92-2.322-1.353-3.51-.216-.648-.433-1.35-.649-1.998-.325-.972-.65-1.944-.974-2.97l-3.787 1.188Z"/>
  <path fill="#211E1F" d="m85.626 232.515-.162-.594c-.217-.702-.379-1.35-.595-2.052-.379-1.242-.704-2.537-1.082-3.779l-.487-2.052a99.972 99.972 0 0 1-.866-3.888l-.108-.594 6.276-1.242.108.594c.27 1.188.54 2.376.811 3.51l.487 2.106c.325 1.134.65 2.322.974 3.51.216.701.378 1.349.595 2.051l.162.594-6.113 1.836Zm-1.84-11.987c.217 1.08.488 2.16.758 3.24l.487 2.052c.325 1.242.703 2.483 1.028 3.725.162.486.27.972.433 1.458l3.786-1.134c-.162-.486-.27-.972-.432-1.458-.325-1.187-.704-2.375-.974-3.509l-.487-2.106c-.216-.972-.487-1.998-.703-2.97l-3.895.702Z"/>
  <path fill="#211E1F" d="m82.597 220.743-1.136-6.534-.866-6.641 6.33-.648.81 6.318 1.083 6.263-6.221 1.242Zm-.65-12.095.704 5.399.92 5.292 3.894-.756-.92-5.13-.648-5.183-3.95.378Z"/>
  <path fill="#211E1F" d="m80.703 208.755-.487-6.642-.162-6.695 6.383-.054.163 6.371.487 6.318-6.384.702Zm.541-12.095.162 5.399.433 5.346 3.95-.378-.38-5.184-.162-5.237-4.003.054Z"/>
  <path fill="#211E1F" d="M86.383 195.417 80 195.363l.162-6.642.487-6.696 6.33.648-.487 6.372-.109 6.372Zm-5.139-1.242h3.95l.162-5.184.378-5.238-3.949-.378-.433 5.4-.108 5.4Z"/>
  <path fill="#211E1F" d="m86.924 183.915-6.33-.648.867-6.588 1.19-6.588 6.275 1.242-1.136 6.264-.866 6.318Zm-4.977-1.728 3.95.378.649-5.13.92-5.13-3.896-.756-.92 5.346-.703 5.292Z"/>
  <path fill="#211E1F" d="m88.602 172.52-6.276-1.241.108-.594c.27-1.296.595-2.592.866-3.888l.487-1.998c.324-1.296.703-2.538 1.082-3.834.216-.702.378-1.35.595-2.052l.162-.594 6.113 1.89-.162.594c-.217.702-.379 1.35-.595 2.052-.325 1.188-.65 2.322-.974 3.51l-.487 2.106c-.27 1.188-.54 2.376-.811 3.51l-.108.539Zm-4.815-2.213 3.895.756c.216-.972.433-1.998.703-2.97l.487-2.106.974-3.564c.162-.486.27-.972.432-1.458l-3.786-1.134c-.163.486-.27.972-.433 1.458a77.072 77.072 0 0 0-1.028 3.78l-.487 1.998c-.216 1.08-.487 2.16-.757 3.24Z"/>
  <path fill="#211E1F" d="m91.415 161.342-6.113-1.89.162-.594c.379-1.242.811-2.537 1.244-3.779.217-.648.433-1.296.65-1.998.432-1.242.919-2.484 1.406-3.726.27-.648.54-1.296.757-1.944l.217-.594 5.896 2.43-.216.54c-.27.648-.487 1.296-.758 1.944-.432 1.134-.92 2.268-1.352 3.456l-.65 1.944c-.378 1.187-.81 2.321-1.135 3.509l-.108.702Zm-4.599-2.646 3.787 1.134a197 197 0 0 0 .974-2.969c.216-.648.433-1.296.65-1.998a93.262 93.262 0 0 1 1.352-3.51c.162-.432.378-.918.54-1.35l-3.624-1.512c-.162.486-.379.918-.54 1.404a73.812 73.812 0 0 0-1.407 3.672l-.65 1.944c-.378 1.08-.757 2.105-1.082 3.185Z"/>
  <path fill="#211E1F" d="m95.256 150.488-5.897-2.43.217-.54c.487-1.188 1.082-2.43 1.623-3.618.27-.647.595-1.295.865-1.943.595-1.188 1.19-2.376 1.785-3.51.325-.648.65-1.242.974-1.89l.27-.54 5.627 3.024-.271.54c-.324.648-.649 1.242-.974 1.89-.54 1.08-1.136 2.159-1.677 3.293-.27.648-.595 1.296-.865 1.89-.487 1.134-1.028 2.214-1.46 3.348l-.217.486Zm-4.274-3.078 3.625 1.512c.433-.972.811-1.89 1.244-2.808.27-.648.595-1.296.865-1.944.541-1.133 1.137-2.213 1.678-3.347.216-.432.432-.864.703-1.35l-3.462-1.89c-.217.432-.433.864-.704 1.35a211.132 211.132 0 0 0-1.785 3.51c-.27.648-.595 1.295-.865 1.889-.433 1.08-.866 2.052-1.299 3.078Z"/>
  <path fill="#211E1F" d="m100.179 140.066-5.626-3.024.27-.54c.65-1.188 1.299-2.322 1.948-3.456.325-.594.703-1.188 1.028-1.782.703-1.134 1.406-2.213 2.11-3.347l1.136-1.782.324-.54 5.302 3.564-.325.486-1.136 1.781c-.649 1.026-1.352 2.052-2.002 3.132-.324.594-.703 1.188-1.027 1.782-.595 1.08-1.245 2.106-1.84 3.186l-.162.54Zm-4.003-3.51 3.462 1.89c.487-.918 1.028-1.782 1.515-2.7.324-.594.703-1.188 1.028-1.836.649-1.08 1.352-2.106 2.001-3.186.271-.432.541-.81.812-1.242l-3.3-2.213c-.271.432-.541.864-.812 1.242a172.808 172.808 0 0 0-2.11 3.293c-.324.594-.703 1.188-1.027 1.782-.433 1.026-1.028 1.998-1.57 2.97Z"/>
  <path fill="#211E1F" d="m106.076 130.184-5.302-3.564.325-.486 2.272-3.24 1.19-1.674 4.112-5.291 4.923 4.049-3.95 5.022c-.378.54-.811 1.134-1.19 1.674-.703 1.026-1.406 1.998-2.11 3.024l-.27.486Zm-3.625-3.888 3.3 2.214c.595-.864 1.191-1.674 1.786-2.538.378-.54.811-1.134 1.19-1.728l3.246-4.104-3.03-2.484-3.354 4.266-1.19 1.674c-.649.918-1.298 1.836-1.948 2.7Z"/>
  <path fill="#211E1F" d="m112.893 120.896-4.923-4.05 4.382-5.022 4.598-4.86 4.49 4.482-4.382 4.644-4.165 4.806Zm-3.192-4.158 3.029 2.484 3.409-3.942 3.624-3.78-2.813-2.808-3.733 3.942-3.516 4.104Z"/>
  <path fill="#211E1F" d="m120.629 112.364-4.49-4.482 4.815-4.59 5.085-4.374 4.057 4.914-4.815 4.158-4.652 4.374Zm-2.813-4.482 2.813 2.808 3.787-3.564 3.949-3.402-2.489-3.024-4.111 3.564-3.949 3.618Z"/>
  <path fill="#211E1F" d="m129.123 104.534-4.057-4.914 5.247-4.104 1.677-1.188c1.082-.756 2.164-1.566 3.246-2.322l.487-.324 3.57 5.292-.487.324c-1.028.702-2.001 1.404-3.029 2.106-.595.432-1.136.81-1.731 1.242l-4.923 3.888Zm-2.326-4.698 2.488 3.024 4.112-3.186c.595-.432 1.19-.81 1.731-1.242.865-.594 1.677-1.188 2.542-1.782l-2.218-3.294-2.759 1.944-1.677 1.188-4.219 3.348Z"/>
  <path fill="#211E1F" d="m138.32 97.622-3.57-5.292.541-.324 1.785-1.134c1.136-.702 2.218-1.404 3.354-2.106.595-.324 1.19-.702 1.785-1.026 1.136-.648 2.326-1.35 3.462-1.944l.541-.27 3.03 5.616-.541.27c-1.082.594-2.164 1.188-3.192 1.836-.595.324-1.19.702-1.785 1.026l-3.084 1.944-1.785 1.134-.541.27Zm-1.839-4.914 2.218 3.294 1.298-.81c1.028-.648 2.056-1.35 3.138-1.998.595-.378 1.244-.702 1.839-1.026.92-.54 1.785-1.026 2.705-1.566l-1.894-3.456c-.973.54-1.947 1.08-2.921 1.674-.595.324-1.19.702-1.785 1.026-1.082.648-2.218 1.404-3.3 2.106-.487.216-.866.486-1.298.756Z"/>
  <path fill="#211E1F" d="m148.166 91.627-3.029-5.615.541-.27c.649-.324 1.244-.648 1.893-.972 1.19-.594 2.326-1.188 3.517-1.782.649-.27 1.298-.594 1.947-.864 1.19-.54 2.38-1.08 3.625-1.62l.541-.216 2.434 5.886-.541.216c-1.136.486-2.272.972-3.354 1.512-.649.27-1.298.594-1.893.864-1.082.54-2.164 1.08-3.3 1.674-.595.324-1.245.648-1.84.972l-.541.215Zm-1.352-5.075 1.893 3.456c.433-.216.866-.432 1.299-.702 1.082-.594 2.218-1.134 3.354-1.674.649-.27 1.298-.594 1.893-.864.974-.432 1.893-.864 2.867-1.296l-1.514-3.618c-1.028.432-2.002.918-3.03 1.35-.649.27-1.298.594-1.947.864-1.191.54-2.327 1.134-3.517 1.782-.433.27-.865.486-1.298.702Z"/>
  <path fill="#211E1F" d="m158.554 86.66-2.435-5.886.595-.216c.649-.27 1.299-.486 1.948-.756 1.244-.486 2.434-.972 3.678-1.404a87.117 87.117 0 0 0 2.002-.648c1.244-.432 2.489-.864 3.787-1.242l.595-.162 1.893 6.102-.595.162c-1.19.378-2.326.756-3.462 1.134-.649.216-1.352.432-2.002.702l-3.408 1.296c-.649.27-1.298.54-1.947.755l-.649.162Zm-.866-5.238 1.515 3.618c.487-.162.919-.378 1.406-.54 1.136-.432 2.327-.918 3.463-1.35a21.787 21.787 0 0 0 2.001-.702l2.921-.972-1.136-3.78c-1.082.324-2.109.702-3.137 1.08-.649.216-1.299.432-2.002.648-1.19.432-2.434.918-3.624 1.404-.433.27-.92.432-1.407.594Z"/>
  <path fill="#211E1F" d="m169.374 82.663-1.894-6.101.595-.162c.65-.162 1.353-.378 2.002-.594 1.298-.378 2.543-.756 3.841-1.08l2.056-.486c1.298-.324 2.596-.594 3.895-.864l.595-.108 1.244 6.264-.595.108-3.571.81-2.109.486c-1.136.324-2.327.648-3.517.972-.703.216-1.352.378-2.055.593l-.487.162Zm-.325-5.237 1.136 3.78c.487-.162.974-.27 1.461-.432 1.19-.324 2.38-.648 3.516-.972l2.11-.486c.974-.216 2.002-.486 2.975-.702l-.757-3.888c-1.082.216-2.164.486-3.246.756l-2.001.486c-1.245.324-2.543.702-3.787 1.026-.433.162-.92.27-1.407.432Z"/>
  <path fill="#211E1F" d="m180.573 79.802-1.245-6.264 6.546-1.188 6.654-.864.649 6.318-6.329.81-6.275 1.188Zm.162-5.292.757 3.888 5.14-.918 5.193-.648-.379-3.942-5.41.702-5.301.918Z"/>
  <path fill="#211E1F" d="m191.934 78.02-.649-6.318 6.654-.486 6.708-.162.054 6.372-6.384.162-6.383.432Zm.703-5.238.379 3.942 5.193-.378 5.248-.162v-3.942l-5.41.162-5.41.378Z"/>
  <path fill="#211E1F" d="m217.414 78.02-6.383-.486-6.384-.162.055-6.372 6.653.162 6.709.486-.65 6.372Zm-11.522-1.836 5.193.162 5.247.378.379-3.942-5.41-.432-5.409-.162v3.996Z"/>
  <path fill="#211E1F" d="m228.83 79.802-6.276-1.134-6.329-.81.649-6.318 6.6.864 6.6 1.188-1.244 6.21Zm-11.307-2.97 5.14.648 5.139.918.757-3.888-5.356-.918-5.355-.702-.325 3.942Z"/>
  <path fill="#211E1F" d="m239.974 82.663-.595-.162c-.703-.215-1.352-.377-2.055-.593-1.191-.324-2.327-.648-3.517-.972-.649-.162-1.352-.324-2.055-.486l-3.571-.81-.595-.108 1.244-6.264.595.108c1.299.27 2.597.594 3.895.864l2.002.486c1.298.324 2.543.702 3.841 1.08.649.216 1.352.378 2.001.594l.596.162-1.786 6.102Zm-10.927-4.05c1.028.217 2.001.433 3.029.703.703.162 1.353.324 2.056.486l3.57.972c.487.162.974.27 1.461.432l1.136-3.78c-.487-.108-.974-.27-1.407-.432-1.244-.378-2.542-.702-3.786-1.026l-2.002-.486c-1.082-.27-2.164-.486-3.246-.756l-.811 3.888Z"/>
  <path fill="#211E1F" d="m250.794 86.66-.541-.216c-.649-.27-1.298-.54-1.947-.756-1.136-.432-2.272-.918-3.408-1.296a87.127 87.127 0 0 0-2.002-.648c-1.136-.378-2.326-.81-3.462-1.134l-.595-.162 1.893-6.102.595.162c1.245.378 2.543.81 3.787 1.242.649.216 1.299.432 2.002.648 1.244.432 2.488.972 3.733 1.458.649.27 1.298.54 1.947.756l.595.216-2.597 5.831ZM240.3 81.53l2.921.972c.649.216 1.352.432 2.001.702 1.191.432 2.327.864 3.463 1.35.487.162.919.378 1.406.54l1.515-3.618c-.433-.162-.92-.378-1.353-.54-1.244-.486-2.434-.972-3.678-1.404-.649-.216-1.298-.432-2.002-.648-1.028-.378-2.11-.702-3.137-1.026L240.3 81.53Z"/>
  <path fill="#211E1F" d="m261.182 91.627-.541-.27c-.649-.323-1.244-.647-1.894-.971-1.082-.54-2.164-1.134-3.3-1.674-.649-.27-1.244-.54-1.893-.864-1.136-.486-2.218-1.026-3.354-1.512l-.541-.216 2.434-5.886.541.216c1.191.486 2.435 1.08 3.625 1.62.649.27 1.298.594 1.947.864l3.571 1.782c.595.324 1.244.648 1.893.972l.541.27-3.029 5.67Zm-9.9-6.101c.974.432 1.893.864 2.867 1.242.649.27 1.244.594 1.894.864 1.136.54 2.218 1.134 3.354 1.674.432.216.865.432 1.352.702l1.893-3.456c-.432-.216-.865-.432-1.298-.702-1.19-.594-2.326-1.188-3.516-1.782-.649-.27-1.299-.594-1.894-.864-1.028-.432-2.001-.918-3.029-1.35l-1.623 3.672Z"/>
  <path fill="#211E1F" d="m271.028 97.622-.487-.324-1.785-1.134c-1.028-.648-2.056-1.35-3.138-1.998-.595-.324-1.19-.702-1.839-1.026-1.082-.594-2.11-1.242-3.192-1.782l-.541-.27 3.03-5.616.541.27c1.19.648 2.326 1.296 3.462 1.944.595.324 1.19.702 1.785 1.026 1.136.702 2.272 1.404 3.354 2.106l1.785 1.134.541.324-3.516 5.346Zm-9.251-7.02c.92.486 1.786 1.026 2.705 1.512.595.378 1.19.702 1.84 1.026 1.082.648 2.109 1.35 3.137 1.998.433.27.812.54 1.244.81l2.218-3.294c-.432-.27-.811-.54-1.244-.81a182.6 182.6 0 0 0-3.354-2.106c-.595-.324-1.19-.702-1.785-1.026-.974-.54-1.947-1.134-2.921-1.674l-1.84 3.564Z"/>
  <path fill="#211E1F" d="m280.279 104.534-5.031-3.942c-.541-.378-1.136-.81-1.731-1.242-.974-.702-2.001-1.404-2.975-2.106l-.487-.324 3.57-5.292.487.324c1.082.756 2.164 1.512 3.246 2.322l1.677 1.188 5.302 4.104-4.058 4.968Zm-8.601-7.884a99.28 99.28 0 0 1 2.488 1.782c.595.432 1.136.81 1.731 1.242l4.112 3.24 2.488-3.024-4.273-3.348-1.677-1.188-2.759-1.944-2.11 3.24Z"/>
  <path fill="#211E1F" d="m288.773 112.364-4.652-4.374-4.815-4.158 4.057-4.914 5.031 4.374 4.869 4.59-4.49 4.482Zm-7.736-8.694 3.949 3.402 3.787 3.618 2.813-2.808-3.949-3.726-4.111-3.51-2.489 3.024Z"/>
  <path fill="#211E1F" d="m296.455 120.896-4.165-4.806-4.382-4.59 4.49-4.482 4.598 4.806 4.382 5.076-4.923 3.996Zm-6.87-9.396 3.571 3.78 3.408 3.942 3.029-2.484-3.57-4.104-3.733-3.888-2.705 2.754Z"/>
  <path fill="#211E1F" d="m303.326 130.184-.324-.486c-.704-.972-1.407-1.998-2.11-2.97-.433-.594-.812-1.188-1.244-1.782l-3.895-5.022 4.923-4.049 4.111 5.237 1.244 1.728 2.272 3.24.325.486-5.302 3.618Zm-5.95-10.044 3.191 4.104c.433.594.866 1.188 1.245 1.782.595.81 1.19 1.674 1.785 2.484l3.3-2.214a116.94 116.94 0 0 0-1.948-2.7l-1.19-1.728-3.3-4.266-3.083 2.538Z"/>
  <path fill="#211E1F" d="m309.223 140.066-.27-.54c-.595-1.08-1.19-2.16-1.839-3.186-.325-.594-.704-1.188-1.028-1.836l-1.948-3.078-1.136-1.781-.324-.486 5.301-3.564.325.54c.378.594.757 1.188 1.136 1.728.703 1.134 1.46 2.213 2.109 3.347.325.594.704 1.188 1.028 1.782.65 1.134 1.353 2.322 1.948 3.456l.27.54-5.572 3.078Zm-4.923-10.53.812 1.296c.649 1.026 1.352 2.052 2.002 3.132.378.648.703 1.242 1.027 1.836a67.852 67.852 0 0 1 1.515 2.7l3.462-1.89c-.541-.972-1.082-1.944-1.677-2.916-.324-.594-.703-1.188-1.028-1.782-.703-1.08-1.406-2.214-2.109-3.347-.271-.432-.541-.81-.812-1.242l-3.192 2.213Z"/>
  <path fill="#211E1F" d="m314.092 150.488-.216-.54a93.723 93.723 0 0 0-1.515-3.402c-.27-.648-.595-1.242-.865-1.89a192.732 192.732 0 0 0-1.677-3.293c-.325-.594-.649-1.242-.974-1.89l-.271-.54 5.627-3.024.27.54c.325.648.649 1.242.974 1.89.595 1.188 1.19 2.322 1.785 3.51.271.648.595 1.296.866 1.943a237.128 237.128 0 0 1 1.623 3.618l.216.54-5.843 2.538Zm-3.841-10.961c.217.432.433.864.704 1.35.595 1.08 1.136 2.214 1.677 3.293.27.648.595 1.296.865 1.89.433.972.866 1.89 1.299 2.862l3.624-1.512c-.433-1.026-.919-1.998-1.352-3.024-.271-.648-.595-1.295-.866-1.943a103.152 103.152 0 0 0-1.731-3.456 33.603 33.603 0 0 0-.703-1.35l-3.517 1.89Z"/>
  <path fill="#211E1F" d="m317.988 161.342-.163-.594a243.185 243.185 0 0 0-1.136-3.455c-.216-.648-.432-1.35-.703-1.998l-1.298-3.402a28.853 28.853 0 0 1-.758-1.944l-.216-.54 5.897-2.43.216.594c.271.648.487 1.296.757 1.944.487 1.242.974 2.43 1.407 3.672.216.648.433 1.35.649 1.998.433 1.242.866 2.483 1.244 3.779l.163.594-6.059 1.782Zm-2.759-11.285c.162.486.378.918.541 1.404.432 1.134.919 2.322 1.352 3.456.217.702.433 1.35.703 1.998l.974 2.915 3.787-1.134c-.325-1.08-.703-2.105-1.082-3.131-.216-.648-.433-1.296-.649-1.998a99.817 99.817 0 0 0-1.407-3.618c-.162-.486-.378-.918-.541-1.404l-3.678 1.512Z"/>
  <path fill="#211E1F" d="m320.747 172.52-.108-.593a387.527 387.527 0 0 1-.812-3.618c-.162-.702-.324-1.35-.487-2.052a306.533 306.533 0 0 1-.973-3.51c-.217-.702-.379-1.35-.595-2.052l-.163-.594 6.113-1.89.163.594c.162.648.378 1.296.541 1.998.378 1.296.757 2.538 1.082 3.834l.486 2.052c.325 1.296.595 2.592.866 3.834l.108.594-6.221 1.403Zm-1.623-11.501c.162.486.27.972.433 1.458.324 1.188.703 2.376.974 3.564.162.702.324 1.35.486 2.052.217 1.026.487 1.998.704 3.024l3.895-.756a70.202 70.202 0 0 0-.758-3.24l-.487-2.052a97.464 97.464 0 0 0-1.082-3.78c-.108-.486-.27-.918-.378-1.404l-3.787 1.134Z"/>
  <path fill="#211E1F" d="m322.424 183.915-.811-6.318-1.082-6.264 6.275-1.242 1.136 6.534.866 6.642-6.384.648Zm-.487-11.61.92 5.13.649 5.184 3.949-.378-.703-5.4-.92-5.292-3.895.756Z"/>
  <path fill="#211E1F" d="m322.965 195.417-.162-6.372-.487-6.318 6.329-.648.487 6.642.163 6.696h-6.33Zm.649-11.61.379 5.184.162 5.238h3.949l-.162-5.4-.433-5.346-3.895.324Z"/>
  <path fill="#211E1F" d="M204.702 309.899c-30.621 0-59.457-11.934-81.097-33.534-21.64-21.601-33.597-50.383-33.597-80.947 0-30.565 11.957-59.347 33.597-80.947s50.476-33.535 81.097-33.535c30.62 0 59.456 11.934 81.096 33.535 44.741 44.658 44.741 117.289 0 161.894-21.694 21.6-50.476 33.534-81.096 33.534Zm0-220.485c-28.349 0-55.021 11.016-75.092 31.051-20.071 20.034-31.108 46.656-31.108 74.953 0 28.296 11.037 54.918 31.108 74.953 20.071 20.034 46.743 31.05 75.092 31.05 28.348 0 55.02-11.016 75.091-31.05 41.387-41.311 41.387-108.596 0-149.906-20.071-20.035-46.743-31.05-75.091-31.05Z"/>
  <path fill="#211E1F" d="M204.702 298.397c-56.86 0-103.17-46.171-103.17-102.979 0-56.755 46.256-102.98 103.17-102.98 56.859 0 103.169 46.171 103.169 102.98 0 56.754-46.31 102.979-103.169 102.979Zm0-202.34c-54.858 0-99.491 44.55-99.491 99.307-.054 54.81 44.578 99.361 99.491 99.361 54.857 0 99.49-44.551 99.49-99.307 0-54.757-44.633-99.362-99.49-99.362Z"/>
  <path fill="#211E1F" d="M203.782 288.731c0-1.026.811-1.836 1.785-1.836 1.028 0 1.84.81 1.84 1.782 0 1.026-.812 1.836-1.786 1.836-1.028.054-1.839-.756-1.839-1.782Zm-5.573 1.62c-1.027-.054-1.785-.918-1.677-1.944.054-.972.92-1.782 1.948-1.674.974.054 1.785.918 1.677 1.944a1.778 1.778 0 0 1-1.785 1.674h-.163Zm12.822-1.836c-.108-1.026.65-1.89 1.677-1.944a1.751 1.751 0 0 1 1.948 1.674c.108 1.026-.649 1.89-1.677 1.944h-.162c-.92 0-1.732-.702-1.786-1.674Zm-20.179 1.026c-.974-.162-1.677-1.08-1.515-2.052.108-.972 1.082-1.674 2.056-1.566.974.162 1.677 1.08 1.515 2.052-.109.918-.92 1.566-1.786 1.566-.108.054-.162.054-.27 0Zm27.375-1.782a1.828 1.828 0 0 1 1.514-2.106c.974-.162 1.948.486 2.11 1.512a1.827 1.827 0 0 1-1.514 2.106h-.325a1.795 1.795 0 0 1-1.785-1.512Zm-34.625.432c-.973-.216-1.569-1.188-1.352-2.16.216-.972 1.19-1.566 2.164-1.35.974.216 1.623 1.188 1.352 2.16-.162.81-.919 1.404-1.785 1.404-.108 0-.27 0-.379-.054Zm41.766-1.728c-.216-.972.379-1.944 1.352-2.214.974-.216 1.948.324 2.219 1.296.27.972-.379 1.944-1.353 2.214-.162.054-.27.054-.433.054-.865 0-1.569-.54-1.785-1.35Zm-48.907-.162c-.974-.324-1.515-1.296-1.19-2.268a1.762 1.762 0 0 1 2.272-1.188c.974.324 1.515 1.296 1.19 2.268-.216.756-.974 1.296-1.731 1.296-.162-.054-.379-.054-.541-.108Zm55.886-1.728c-.325-.972.216-1.998 1.136-2.268a1.856 1.856 0 0 1 2.326 1.134c.325.972-.216 1.998-1.19 2.322a1.948 1.948 0 0 1-.595.108 1.978 1.978 0 0 1-1.677-1.296Zm-62.865-.702c-.92-.378-1.407-1.404-1.028-2.376a1.839 1.839 0 0 1 2.381-1.026c.919.378 1.406 1.404 1.028 2.376-.271.702-.974 1.134-1.678 1.134-.27 0-.486-.054-.703-.108Zm69.736-1.674c-.379-.918.054-1.998.973-2.376.92-.378 2.002.054 2.381.972.379.918-.054 1.998-.974 2.376a1.667 1.667 0 0 1-.703.162c-.704-.054-1.407-.432-1.677-1.134Zm-76.498-1.35a1.75 1.75 0 0 1-.812-2.43 1.756 1.756 0 0 1 2.435-.81 1.75 1.75 0 0 1 .811 2.43 1.839 1.839 0 0 1-1.623 1.026c-.27 0-.541-.054-.811-.216Zm83.152-1.62a1.773 1.773 0 0 1 .757-2.43 1.756 1.756 0 0 1 2.435.81c.487.864.108 1.998-.812 2.43-.27.108-.541.216-.811.216-.649 0-1.298-.378-1.569-1.026Zm-89.645-1.89c-.865-.486-1.136-1.62-.649-2.484.487-.864 1.623-1.134 2.489-.648.866.486 1.136 1.62.649 2.484-.325.594-.92.864-1.569.864-.324.054-.649 0-.92-.216Zm95.975-1.512c-.541-.864-.271-1.998.595-2.484.866-.54 2.002-.27 2.489.594.541.864.27 1.998-.596 2.484-.324.162-.649.27-.973.27-.541 0-1.136-.324-1.515-.864Zm-102.196-2.43c-.812-.594-1.028-1.728-.433-2.538.595-.81 1.731-1.026 2.543-.432.811.594 1.028 1.728.433 2.538-.379.486-.92.756-1.515.756-.325 0-.703-.108-1.028-.324Zm108.309-1.512a1.809 1.809 0 0 1 .379-2.538 1.818 1.818 0 0 1 2.543.378 1.81 1.81 0 0 1-.379 2.538c-.325.216-.703.378-1.082.378-.541 0-1.082-.27-1.461-.756Zm-114.152-2.97c-.757-.648-.866-1.782-.216-2.538.649-.756 1.785-.864 2.542-.216.758.648.866 1.782.217 2.538a1.824 1.824 0 0 1-1.407.648c-.433 0-.811-.162-1.136-.432Zm119.941-1.404c-.649-.756-.595-1.89.216-2.538.758-.648 1.894-.594 2.597.216.649.756.541 1.89-.216 2.592-.325.27-.758.432-1.191.432-.541-.054-1.027-.27-1.406-.702Zm-125.459-3.51a1.854 1.854 0 0 1-.054-2.592 1.864 1.864 0 0 1 2.597-.054c.703.702.757 1.836.054 2.592-.379.378-.812.54-1.299.54-.487 0-.974-.162-1.298-.486Zm130.869-1.296c-.703-.702-.703-1.836 0-2.592l.054-.054c.703-.702 1.894-.702 2.597 0 .703.702.703 1.89 0 2.592l-.054.054c-.379.378-.812.54-1.299.54-.487 0-.919-.216-1.298-.54Zm-136.009-3.997a1.861 1.861 0 0 1 .163-2.592 1.869 1.869 0 0 1 2.596.162c.65.756.595 1.89-.162 2.592a1.676 1.676 0 0 1-1.19.486c-.541-.054-1.082-.27-1.407-.648Zm141.094-1.296c-.757-.648-.865-1.782-.216-2.538.649-.756 1.785-.864 2.597-.216.757.648.865 1.782.216 2.592a1.82 1.82 0 0 1-1.406.648c-.433-.054-.866-.216-1.191-.486Zm-145.8-4.428c-.596-.81-.487-1.944.324-2.538.812-.594 1.948-.432 2.543.324.595.81.433 1.944-.379 2.538-.324.216-.703.378-1.082.378-.541 0-1.082-.216-1.406-.702Zm150.399-1.188a1.809 1.809 0 0 1-.379-2.538 1.817 1.817 0 0 1 2.543-.378c.812.594.974 1.728.379 2.538-.379.486-.92.756-1.461.756-.379 0-.757-.108-1.082-.378Zm-154.673-4.86c-.541-.864-.325-1.944.541-2.484.865-.54 2.001-.324 2.542.54.541.864.325 1.998-.541 2.538-.324.216-.649.27-.974.27-.595 0-1.19-.324-1.568-.864Zm158.839-1.026c-.866-.54-1.136-1.674-.595-2.484.541-.864 1.677-1.134 2.488-.594.866.54 1.136 1.674.595 2.484-.324.54-.919.864-1.569.864-.27 0-.649-.108-.919-.27Zm-162.572-5.292c-.487-.864-.163-1.998.703-2.484s2.002-.162 2.489.756c.486.864.162 1.998-.758 2.484-.27.162-.595.216-.865.216-.65-.054-1.245-.378-1.569-.972Zm166.251-.972c-.92-.486-1.245-1.566-.812-2.43.487-.864 1.569-1.242 2.435-.756.919.432 1.244 1.566.811 2.43a1.891 1.891 0 0 1-1.623.972c-.27 0-.541-.054-.811-.216Zm-169.551-5.67c-.379-.918 0-1.998.919-2.376.92-.432 2.002 0 2.381.918.378.918 0 1.998-.92 2.376a1.667 1.667 0 0 1-.703.162c-.704 0-1.353-.432-1.677-1.08Zm172.742-.81c-.919-.378-1.352-1.458-.973-2.376.378-.918 1.46-1.35 2.38-.972.92.378 1.353 1.458.974 2.376-.271.702-.974 1.134-1.677 1.134-.217 0-.487-.054-.704-.162Zm-175.448-6.048c-.324-.972.163-1.998 1.082-2.322.974-.324 2.002.162 2.327 1.08.324.972-.162 1.998-1.136 2.322-.217.054-.379.108-.595.108a1.786 1.786 0 0 1-1.678-1.188Zm178.099-.702a1.771 1.771 0 0 1-1.136-2.268 1.85 1.85 0 0 1 2.272-1.188c.974.324 1.461 1.35 1.191 2.322a1.854 1.854 0 0 1-1.732 1.242c-.162 0-.378-.054-.595-.108Zm-180.263-6.372c-.27-.972.325-1.944 1.299-2.214s1.947.324 2.218 1.296c.271.972-.325 1.944-1.298 2.214-.163.054-.325.054-.487.054-.812 0-1.515-.54-1.732-1.35Zm182.427-.54c-.973-.216-1.569-1.242-1.352-2.214.216-.972 1.244-1.566 2.218-1.35.974.216 1.569 1.242 1.353 2.214-.217.81-.974 1.404-1.786 1.404-.162 0-.27 0-.433-.054Zm-184.05-6.642c-.216-.972.487-1.944 1.461-2.106.974-.162 1.948.486 2.11 1.458.216.972-.487 1.944-1.461 2.106h-.324c-.866 0-1.677-.594-1.786-1.458Zm185.619-.432a1.84 1.84 0 0 1-1.514-2.106 1.842 1.842 0 0 1 2.109-1.512 1.84 1.84 0 0 1 1.515 2.106 1.795 1.795 0 0 1-1.785 1.512.346.346 0 0 1-.325 0Zm-186.701-6.858c-.108-.972.65-1.89 1.623-1.998a1.817 1.817 0 0 1 2.002 1.62c.108 1.026-.595 1.89-1.623 1.998h-.216c-.92 0-1.677-.702-1.786-1.62Zm187.783-.27c-.973-.108-1.731-.972-1.677-1.944a1.849 1.849 0 0 1 1.948-1.674c.974.108 1.731.972 1.677 1.944a1.778 1.778 0 0 1-1.785 1.674h-.163Zm-188.324-7.128c0-1.026.758-1.836 1.786-1.89 1.028-.054 1.839.756 1.893 1.782.054 1.026-.757 1.836-1.785 1.89h-.054c-.974 0-1.785-.756-1.84-1.782Zm188.811-.108c-1.028 0-1.785-.81-1.785-1.836s.811-1.836 1.839-1.782c.974 0 1.786.81 1.786 1.836-.054.972-.866 1.782-1.84 1.782Zm-186.971-5.346c-1.028-.054-1.785-.918-1.731-1.89a1.81 1.81 0 0 1 1.893-1.728c1.028.054 1.785.918 1.731 1.89a1.837 1.837 0 0 1-1.839 1.728h-.054Zm184.915-3.564c-.054-1.026.704-1.89 1.678-1.944 1.027-.054 1.893.702 1.947 1.674.054 1.026-.703 1.89-1.677 1.944h-.108c-.974 0-1.785-.702-1.84-1.674Zm-184.428-3.672c-.974-.108-1.677-1.027-1.569-1.999.108-.972 1.028-1.728 2.002-1.566.973.108 1.731 1.026 1.568 1.998-.108.918-.919 1.62-1.785 1.62-.054 0-.162-.053-.216-.053Zm183.671-3.403c-.162-.972.541-1.89 1.515-2.052.974-.162 1.893.54 2.056 1.566a1.856 1.856 0 0 1-1.569 2.052h-.271c-.811 0-1.569-.648-1.731-1.566Zm-182.643-3.726c-.974-.216-1.623-1.188-1.407-2.16.216-.972 1.19-1.62 2.164-1.404.974.216 1.623 1.188 1.407 2.16a1.8 1.8 0 0 1-1.786 1.458c-.108-.054-.27-.054-.378-.054Zm181.345-3.24a1.794 1.794 0 0 1 1.406-2.16c.974-.216 1.948.378 2.164 1.35.217.972-.378 1.944-1.352 2.16-.108.054-.271.054-.379.054-.866 0-1.623-.54-1.839-1.404Zm-179.722-3.834c-.974-.27-1.515-1.296-1.245-2.268.271-.972 1.299-1.512 2.273-1.242.973.27 1.514 1.296 1.244 2.268-.217.81-.974 1.296-1.785 1.296-.163 0-.325 0-.487-.054Zm177.882-3.024c-.27-.972.217-1.998 1.19-2.268.974-.27 2.002.216 2.273 1.188.27.972-.217 1.998-1.191 2.268a1.918 1.918 0 0 1-.541.108c-.757 0-1.46-.54-1.731-1.296Zm-175.772-3.888a1.82 1.82 0 0 1-1.082-2.322 1.825 1.825 0 0 1 2.326-1.08c.974.324 1.407 1.404 1.082 2.322-.271.702-.974 1.188-1.677 1.188-.217 0-.433-.054-.649-.108Zm173.392-2.808c-.379-.918.108-1.998 1.028-2.376.919-.378 2.001.108 2.38 1.026s-.108 1.998-1.028 2.376c-.216.108-.433.108-.649.108-.757 0-1.407-.432-1.731-1.134Zm-170.741-3.942a1.813 1.813 0 0 1-.866-2.43 1.819 1.819 0 0 1 2.434-.864 1.813 1.813 0 0 1 .866 2.43c-.325.648-.974 1.08-1.677 1.08-.216 0-.487-.108-.757-.216Zm167.873-2.538c-.432-.918-.054-1.998.812-2.43.92-.432 2.002-.054 2.434.81.433.918.055 1.998-.811 2.43-.271.108-.541.216-.812.216a1.839 1.839 0 0 1-1.623-1.026Zm-164.682-3.942c-.865-.486-1.19-1.62-.703-2.484.487-.864 1.623-1.188 2.489-.702.865.486 1.19 1.62.703 2.484-.325.594-.974.918-1.569.918-.324 0-.595-.054-.92-.216Zm161.328-2.322c-.487-.864-.216-1.998.649-2.484.866-.486 2.002-.216 2.489.648.487.864.216 1.998-.649 2.484-.271.162-.595.27-.92.27a1.755 1.755 0 0 1-1.569-.918Zm-157.649-3.888c-.865-.594-1.082-1.674-.487-2.538.595-.81 1.677-1.08 2.543-.486a1.813 1.813 0 0 1 .487 2.538c-.379.54-.92.81-1.515.81-.324-.054-.703-.108-1.028-.324Zm153.754-2.052c-.595-.81-.379-1.944.433-2.538.811-.594 1.947-.378 2.543.432.595.81.378 1.944-.433 2.538a1.917 1.917 0 0 1-1.028.324c-.595 0-1.136-.27-1.515-.756Zm-149.588-3.888c-.811-.594-.92-1.782-.325-2.538.65-.756 1.786-.918 2.543-.27.812.594.92 1.782.271 2.538a1.797 1.797 0 0 1-1.407.702 2.522 2.522 0 0 1-1.082-.432Zm145.314-1.782c-.649-.756-.541-1.944.216-2.538.758-.648 1.948-.54 2.543.216.649.756.541 1.89-.216 2.538-.325.27-.758.432-1.136.432-.541 0-1.082-.216-1.407-.648Zm-140.661-3.834a1.91 1.91 0 0 1-.109-2.592c.704-.756 1.84-.756 2.597-.108.758.702.758 1.836.109 2.592-.379.378-.866.594-1.353.594s-.92-.108-1.244-.486Zm135.9-1.458a1.809 1.809 0 0 1 .054-2.592 1.816 1.816 0 0 1 2.597.054c.703.702.649 1.89-.054 2.592-.379.324-.811.486-1.244.486-.541 0-1.028-.162-1.353-.54Zm-130.923-3.726c-.703-.756-.649-1.89.108-2.592.758-.702 1.894-.648 2.597.108.703.702.649 1.89-.108 2.592-.379.324-.812.486-1.245.486-.486 0-.973-.216-1.352-.594Zm125.784-1.188c-.758-.648-.812-1.836-.163-2.592a1.87 1.87 0 0 1 2.597-.162c.758.648.812 1.836.162 2.592-.378.378-.865.594-1.352.594-.433 0-.866-.108-1.244-.432Zm-120.32-3.618c-.595-.81-.487-1.944.271-2.538.811-.594 1.947-.486 2.542.27.595.81.487 1.944-.27 2.538-.325.27-.758.378-1.136.378-.541 0-1.082-.216-1.407-.648Zm114.855-.918a1.81 1.81 0 0 1-.378-2.538 1.816 1.816 0 0 1 2.542-.378c.812.594.974 1.728.379 2.538a1.816 1.816 0 0 1-1.461.702 1.366 1.366 0 0 1-1.082-.324Zm-109.12-3.51c-.541-.81-.325-1.944.487-2.538.811-.54 1.947-.324 2.542.486.541.81.325 1.944-.487 2.538a1.781 1.781 0 0 1-1.027.324c-.596 0-1.137-.27-1.515-.81Zm103.278-.54a1.773 1.773 0 0 1-.541-2.484 1.78 1.78 0 0 1 2.488-.54 1.773 1.773 0 0 1 .541 2.484c-.378.54-.919.81-1.515.81-.324 0-.649-.054-.973-.27Zm-97.165-3.402c-.487-.864-.216-1.998.703-2.484.866-.486 2.002-.216 2.489.702.487.864.162 1.998-.703 2.484-.271.162-.595.216-.866.216-.703 0-1.298-.324-1.623-.918Zm91.051-.216c-.865-.486-1.19-1.566-.757-2.484.487-.865 1.569-1.243 2.488-.756.866.486 1.191 1.566.758 2.484a1.891 1.891 0 0 1-1.623.972c-.271 0-.595-.054-.866-.216Zm-84.667-3.187c-.433-.918 0-1.998.866-2.43a1.819 1.819 0 0 1 2.434.864 1.814 1.814 0 0 1-.866 2.431c-.27.108-.486.162-.757.162a1.86 1.86 0 0 1-1.677-1.027Zm78.283.109c-.919-.432-1.352-1.459-.919-2.377.378-.918 1.46-1.35 2.38-.918.92.432 1.353 1.458.92 2.376a1.817 1.817 0 0 1-1.677 1.08 14.4 14.4 0 0 0-.704-.161Zm-71.683-3.079c-.378-.918.108-1.998 1.082-2.322.974-.378 2.002.108 2.381 1.08.378.918-.109 1.998-1.082 2.322-.217.054-.433.108-.65.108-.757 0-1.46-.432-1.731-1.188Zm65.083.432c-.974-.324-1.461-1.35-1.136-2.322.325-.972 1.407-1.458 2.326-1.134.974.324 1.461 1.35 1.136 2.322a1.852 1.852 0 0 1-1.731 1.242c-.216 0-.378 0-.595-.108Zm-58.212-2.808c-.271-.972.27-1.998 1.244-2.268.974-.27 2.002.27 2.273 1.242.27.972-.271 1.998-1.245 2.268-.162.054-.324.054-.487.054-.811 0-1.569-.54-1.785-1.296Zm51.45.756c-.974-.27-1.569-1.242-1.299-2.214.271-.972 1.244-1.566 2.218-1.296s1.569 1.242 1.299 2.214c-.217.81-.974 1.35-1.732 1.35-.216 0-.378-.054-.486-.054Zm-44.471-2.646c-.216-.972.433-1.944 1.407-2.16.973-.216 1.947.432 2.164 1.404.216.972-.433 1.944-1.407 2.16-.108.054-.216.054-.379.054-.811 0-1.569-.594-1.785-1.458Zm37.492 1.08c-.974-.162-1.623-1.134-1.461-2.106.162-.972 1.136-1.62 2.11-1.458.974.162 1.677 1.134 1.461 2.106-.163.864-.92 1.512-1.786 1.512-.108-.054-.216-.054-.324-.054Zm-30.351-2.376a1.866 1.866 0 0 1 1.569-2.052c.974-.108 1.894.594 2.056 1.566.108.972-.595 1.89-1.569 2.052h-.216c-.92 0-1.732-.702-1.84-1.566Zm23.318 1.35a1.815 1.815 0 0 1-1.623-1.998c.108-.972 1.027-1.728 2.001-1.62 1.028.108 1.731.972 1.623 1.998-.108.918-.919 1.62-1.785 1.62h-.216Zm-16.122-2.16c-.055-1.026.703-1.836 1.731-1.89 1.028-.054 1.893.702 1.893 1.728.054 1.026-.703 1.89-1.731 1.89h-.108c-.92 0-1.731-.756-1.785-1.728Zm9.034 1.674a1.896 1.896 0 0 1-1.785-1.89c0-.972.866-1.782 1.894-1.782 1.027 0 1.785.864 1.785 1.89-.054.972-.866 1.782-1.84 1.782h-.054Zm54.313 147.053a88.443 88.443 0 0 1-1.382 1.379l-54.133-34.012v-1.31l-56.235 35.332a78.144 78.144 0 0 1-1.351-1.347l34.721-55.181-34.756-55.065a108.352 108.352 0 0 1 1.347-1.345l54.22 34.067v1.311l56.251-35.343a94.152 94.152 0 0 1 1.337 1.336l-35.408 56.148h1.315l34.074 54.03Z"/>
  <path fill="#211E1F" d="m257.664 254.763-52.676-33.096-52.599 33.073c29.926 26.724 75.341 26.732 105.275.023Zm6.357-6.345-33.119-52.509 33.141-52.513c26.723 29.869 26.716 75.161-.022 105.022Zm-6.31-111.351c-29.93-26.746-75.368-26.756-105.309-.03l52.694 33.113 52.615-33.083Zm-111.669 6.322c-26.721 29.861-26.723 75.141-.005 105.004l33.091-52.538-33.086-52.466ZM95.595 85.97l-.163.593c-.162 0-.432.054-.757.162-.379.108-.595.162-.757.27-.27.162-.433.432-.595.81-.163.378-.325.918-.487 1.566l-2.11 9.018h-.757l-5.031-10.314-1.57 6.696c-.053.324-.108.594-.162.918-.054.324-.054.54-.054.756 0 .216 0 .378.054.486l.163.324c.108.108.324.216.757.324.379.108.65.162.757.162l-.108.594h-5.03l.107-.594c.217 0 .487-.054.812-.162.379-.108.595-.162.757-.27.217-.162.433-.432.595-.756.162-.324.325-.918.487-1.674l1.407-5.94c.054-.216.054-.378.108-.486v-.378c0-.162 0-.27-.054-.378-.054-.108-.108-.27-.217-.378a1.833 1.833 0 0 0-.757-.486 2.127 2.127 0 0 0-.757-.162l.162-.594h3.516l4.653 9.558 1.406-6.102c.054-.324.108-.594.162-.918.054-.27.054-.54.054-.756 0-.216 0-.324-.054-.486a1.18 1.18 0 0 0-.162-.27 2.893 2.893 0 0 0-.703-.324c-.325-.108-.595-.162-.812-.162l.163-.594h4.977v-.054Zm17.691 0-.108.593c-.162 0-.324.054-.541.108-.216.054-.378.162-.595.216-.216.108-.433.27-.595.432-.162.162-.325.432-.487.702-.595 1.08-1.406 2.592-2.434 4.482-1.028 1.89-2.056 3.834-3.138 5.832h-.758l-1.028-9.45-5.356 9.45h-.757c-.108-2.592-.27-4.806-.325-6.588-.108-1.782-.162-3.132-.216-4.05 0-.162-.054-.324-.108-.486a1.012 1.012 0 0 0-.325-.378c-.108-.108-.27-.162-.487-.216-.162-.054-.378-.054-.487-.108l.109-.594h4.923l-.108.594c-.704.054-1.136.108-1.353.216-.216.108-.325.216-.325.378v1.188c0 .378.055 1.188.109 2.376s.162 2.7.27 4.536l5.14-9.126h.811l1.028 9.342c.703-1.35 1.353-2.592 1.894-3.672.541-1.08 1.028-1.998 1.406-2.862.271-.54.433-.918.541-1.188.109-.27.163-.486.163-.594 0-.162-.109-.324-.379-.432-.271-.108-.649-.162-1.136-.216l.108-.594h4.544v.108Zm205.04 0-.162.593c-.162 0-.433.054-.757.162-.379.108-.595.162-.758.27-.27.162-.432.432-.595.81-.162.378-.324.918-.486 1.566l-2.11 9.018h-.758l-5.031-10.314-1.569 6.696c-.054.324-.108.594-.162.918-.054.324-.054.54-.054.756 0 .216 0 .378.054.486l.162.324c.109.108.325.216.758.324.378.108.649.162.757.162l-.108.594h-5.031l.108-.594c.216 0 .487-.054.812-.162.378-.108.595-.162.757-.27.216-.162.433-.432.595-.756.162-.324.325-.918.487-1.674l1.406-5.94c.055-.216.055-.378.109-.486v-.378c0-.162 0-.27-.054-.378-.055-.108-.109-.27-.217-.378a1.834 1.834 0 0 0-.757-.486 2.13 2.13 0 0 0-.758-.162l.163-.594h3.516l4.652 9.558 1.407-6.102c.054-.324.108-.594.162-.918.054-.27.054-.54.054-.756 0-.216 0-.324-.054-.486a1.18 1.18 0 0 0-.162-.27 2.899 2.899 0 0 0-.703-.324c-.325-.108-.595-.162-.812-.162l.162-.594h4.977v-.054Zm10.334 0-.703 2.97h-.65c-.054-.595-.162-1.135-.378-1.513-.217-.432-.541-.648-.92-.702-.162 0-.379-.054-.649-.054h-2.759l-1.136 4.914h1.406c.433 0 .758-.054.974-.108.217-.108.433-.216.649-.432.163-.162.325-.432.487-.702.163-.324.271-.54.325-.756h.649l-1.082 4.752h-.649v-.486c0-.216 0-.432-.054-.594-.054-.216-.054-.324-.108-.432-.109-.216-.271-.378-.541-.432a3.776 3.776 0 0 0-.866-.108h-1.298l-.866 3.726c-.054.162-.054.27-.108.432 0 .162-.054.27-.054.378 0 .324.108.54.324.648.217.108.704.162 1.515.162.974 0 1.623-.054 1.948-.108.324-.054.595-.162.757-.324.325-.27.703-.702 1.136-1.296.433-.594.757-1.026.866-1.296h.595l-1.082 3.618h-10.171l.109-.594c.162 0 .432-.054.703-.054.27-.054.487-.054.595-.108a.789.789 0 0 0 .487-.324c.108-.162.162-.324.216-.54l2.056-8.856c0-.054 0-.108.054-.162v-.162c0-.108 0-.216-.054-.324-.054-.108-.162-.162-.271-.216-.162-.054-.324-.162-.595-.216-.27-.054-.432-.108-.595-.108l.109-.594h9.629ZM88.616 309.1c-.703 0-1.352-.108-1.839-.27a4.87 4.87 0 0 1-1.298-.594l-.487.648h-.703l.865-4.212h.703c.055.486.109.972.217 1.404.108.432.27.81.54 1.188.217.378.542.648.92.864.38.216.866.324 1.407.324.865 0 1.569-.216 2.056-.702.54-.486.757-1.134.757-1.944 0-.432-.108-.81-.325-1.188-.216-.324-.54-.594-.973-.81-.433-.162-.812-.324-1.245-.486-.378-.162-.811-.324-1.19-.486-.54-.27-.92-.594-1.244-1.08a2.682 2.682 0 0 1-.487-1.566c0-.54.108-1.08.379-1.512.27-.486.595-.864.974-1.188.378-.324.865-.594 1.406-.81.541-.216 1.082-.27 1.677-.27.487 0 .974.054 1.46.162.434.108.92.324 1.353.702l.487-.594h.703l-.865 4.05h-.703c0-.432-.055-.918-.109-1.35-.054-.486-.216-.864-.378-1.188-.217-.324-.433-.594-.812-.81-.324-.216-.811-.27-1.352-.27-.704 0-1.245.216-1.731.702-.487.486-.704 1.026-.704 1.674 0 .432.109.81.27 1.08.163.27.434.54.812.702.379.216.758.378 1.19.486.433.162.812.27 1.137.432.649.324 1.19.702 1.568 1.134.379.432.541.972.541 1.62 0 .594-.108 1.188-.378 1.728s-.595.972-1.082 1.35a5.545 5.545 0 0 1-1.57.864c-.648.108-1.243.216-1.947.216Zm24.941-12.474-.108.594c-.163 0-.325.054-.541.108-.217.054-.379.162-.595.216-.217.108-.433.27-.595.432-.163.162-.325.432-.487.702-.595 1.08-1.407 2.592-2.435 4.482-1.028 1.89-2.056 3.834-3.138 5.832h-.757l-1.028-9.45-5.356 9.45h-.757c-.109-2.592-.27-4.806-.325-6.588-.108-1.782-.162-3.132-.216-4.05 0-.162-.054-.324-.109-.486a1.012 1.012 0 0 0-.324-.378c-.108-.108-.27-.162-.487-.216-.162-.054-.379-.054-.487-.108l.108-.594h4.923l-.108.594c-.703.054-1.136.108-1.352.216-.217.108-.325.216-.325.378v1.188c0 .378.054 1.188.108 2.376s.163 2.7.27 4.536l5.14-9.126h.812l1.028 9.342c.703-1.35 1.352-2.592 1.893-3.672.541-1.08 1.028-1.998 1.407-2.862.27-.54.433-.918.541-1.188.108-.27.162-.486.162-.594 0-.162-.108-.324-.379-.432-.27-.108-.649-.162-1.136-.216l.109-.594h4.544v.108Zm183.4 12.474c-.703 0-1.352-.108-1.839-.27a4.858 4.858 0 0 1-1.298-.594l-.487.648h-.703l.865-4.212h.703c.055.486.109.972.217 1.404.108.432.27.81.541 1.188.216.378.541.648.92.864.378.216.865.324 1.406.324.866 0 1.569-.216 2.056-.702.541-.486.757-1.134.757-1.944 0-.432-.108-.81-.324-1.188-.217-.324-.541-.594-.974-.81-.433-.162-.812-.324-1.244-.486-.379-.162-.812-.324-1.191-.486-.541-.27-.919-.594-1.244-1.08-.324-.486-.487-.972-.487-1.566 0-.54.108-1.08.379-1.512.27-.486.595-.864.974-1.188.378-.324.865-.594 1.406-.81.541-.216 1.082-.27 1.677-.27.487 0 .974.054 1.461.162.433.108.92.324 1.352.702l.487-.594h.703l-.865 4.05h-.703c0-.432-.054-.918-.109-1.35-.054-.486-.216-.864-.378-1.188-.217-.324-.433-.594-.812-.81-.324-.216-.811-.27-1.352-.27-.703 0-1.244.216-1.731.702-.487.486-.703 1.026-.703 1.674 0 .432.108.81.27 1.08.162.27.433.54.811.702.379.216.758.378 1.191.486.432.162.811.27 1.136.432.649.324 1.19.702 1.568 1.134.379.432.541.972.541 1.62 0 .594-.108 1.188-.378 1.728-.271.54-.595.972-1.082 1.35a5.549 5.549 0 0 1-1.569.864c-.595.108-1.244.216-1.948.216Zm17.691-12.474-.703 2.97h-.65c-.054-.594-.162-1.134-.378-1.512-.217-.432-.541-.648-.92-.702-.162 0-.379-.054-.649-.054h-2.759l-1.136 4.914h1.406c.433 0 .758-.054.974-.108.217-.108.433-.216.649-.432.163-.162.325-.432.487-.702.163-.324.271-.54.325-.756h.649l-1.082 4.752h-.649v-.486c0-.216 0-.432-.054-.594-.054-.216-.054-.324-.108-.432-.109-.216-.271-.378-.541-.432a3.776 3.776 0 0 0-.866-.108h-1.352l-.866 3.726c-.054.162-.054.27-.108.432 0 .162-.054.27-.054.378 0 .324.108.54.324.648.217.108.758.162 1.515.162.974 0 1.623-.054 1.948-.108.324-.054.595-.162.757-.324.325-.27.703-.702 1.136-1.296.433-.594.757-1.026.866-1.296h.595l-1.082 3.618h-10.171l.109-.594c.162 0 .432-.054.703-.054.27-.054.487-.054.595-.108a.789.789 0 0 0 .487-.324c.108-.162.162-.324.216-.54l2.056-8.856c0-.054 0-.108.054-.162v-.162c0-.108 0-.216-.054-.324-.054-.108-.162-.162-.271-.216-.162-.054-.324-.162-.595-.216-.27-.054-.432-.108-.595-.108l.108-.594h9.684Zm79.366-113.941-1.353 5.994h-1.244a6.924 6.924 0 0 0-1.136-2.862c-.595-.864-1.19-1.404-1.894-1.512a18.755 18.755 0 0 0-1.352-.162h-4.707l-2.11 9.18h2.273c.811 0 1.46-.108 1.947-.27a3.91 3.91 0 0 0 1.299-.756c.324-.27.649-.702 1.082-1.35a8.305 8.305 0 0 0 .865-1.674h1.244l-2.272 9.774h-1.244v-.594c0-.486-.054-1.026-.162-1.512-.109-.54-.217-.864-.379-1.08a1.74 1.74 0 0 0-1.136-.81c-.487-.162-1.028-.216-1.623-.216h-2.272l-1.515 6.534c-.054.324-.163.702-.217 1.08-.054.378-.108.648-.108.81 0 .702.217 1.134.703 1.35.487.162 1.299.27 2.543.27 1.569 0 2.759-.054 3.463-.216.703-.162 1.298-.324 1.623-.648.649-.54 1.46-1.404 2.38-2.538.92-1.134 1.569-1.998 1.894-2.538h1.19l-2.164 7.29h-21.857l.271-1.188c.27 0 .703-.054 1.244-.108s.974-.108 1.19-.216c.433-.162.758-.378.974-.648.216-.324.379-.648.487-1.026l3.787-16.416c.054-.216.108-.432.108-.594 0-.162.054-.27.054-.324 0-.486-.216-.81-.703-1.08s-1.244-.486-2.272-.594l.27-1.188h20.829v-.162Zm-354.196 0-.325 1.188c-.378.054-.703.108-1.082.27-.378.108-.703.27-1.082.432-.54.27-.92.54-1.244.864-.325.324-.595.756-.92 1.296-1.082 1.836-2.705 4.536-4.76 8.154-2.11 3.618-4.274 7.452-6.6 11.448h-3.463l-2.11-17.28-9.522 17.28H5.356c-.487-4.158-.866-7.992-1.298-11.664-.38-3.618-.704-6.318-.866-8.046-.054-.594-.216-1.026-.379-1.296-.162-.27-.487-.594-.865-.864-.27-.162-.541-.324-.866-.432-.325-.108-.65-.162-1.082-.216l.27-1.188h12.281l-.324 1.188c-.812.108-1.407.162-1.84.27-.433.108-.757.216-.974.324-.216.108-.324.216-.324.378-.054.162-.054.27-.054.432 0 .216 0 .486.054.756 0 .27.054.594.108.972.108 1.026.27 2.646.487 4.914.216 2.214.487 4.86.812 7.83l9.25-17.064h3.517l2.164 17.604c1.299-2.376 2.543-4.59 3.68-6.642 1.135-2.052 2-3.726 2.704-4.968.433-.756.758-1.512 1.082-2.16.325-.648.433-1.134.433-1.296 0-.324-.27-.648-.866-.864-.595-.216-1.406-.378-2.542-.432l.324-1.188h9.576ZM218.945 0l-.271 1.188c-.324.054-.757.108-1.352.162a5.188 5.188 0 0 0-1.731.648c-.487.324-.866.81-1.245 1.512-.324.702-.649 1.782-1.028 3.186l-3.895 16.848h-2.813L196.547 4.806l-2.705 11.718c-.162.594-.27 1.188-.324 1.728-.055.54-.109.972-.109 1.296 0 .432.054.81.109 1.026.108.27.216.432.378.594.271.27.704.486 1.353.648.649.162 1.082.324 1.406.378l-.27 1.188h-10.117l.271-1.188c.324-.054.757-.108 1.406-.216a5.132 5.132 0 0 0 1.677-.594c.487-.324.92-.81 1.245-1.512.324-.702.649-1.782.973-3.186l2.543-11.07c.054-.27.108-.486.162-.702.055-.216.055-.432.055-.594 0-.324-.055-.648-.109-.972a1.486 1.486 0 0 0-.432-.81 3.534 3.534 0 0 0-1.137-.864c-.432-.216-.973-.378-1.568-.486l.27-1.188h8.71l8.873 16.524 2.218-9.612c.162-.702.27-1.296.324-1.728.055-.432.109-.864.109-1.242 0-.432-.054-.756-.163-1.026-.108-.27-.216-.486-.378-.648a3.194 3.194 0 0 0-1.299-.648 8.024 8.024 0 0 0-1.406-.378l.27-1.188h10.063V0Zm-18.07 390.047c-1.298 0-2.597-.162-3.949-.486-1.299-.324-2.489-.756-3.463-1.296l-1.406 1.134h-1.407l1.731-8.478h1.407c.108.81.379 1.674.703 2.592.379.864.812 1.674 1.353 2.376.541.702 1.244 1.296 2.11 1.782.865.486 1.839.702 2.921.702 1.623 0 2.867-.378 3.841-1.188.974-.756 1.461-1.782 1.461-3.078 0-.81-.271-1.512-.812-2.16-.541-.594-1.406-1.134-2.65-1.566-.758-.27-1.515-.54-2.219-.81-.703-.27-1.406-.54-2.055-.81-1.299-.54-2.273-1.296-2.922-2.322a5.663 5.663 0 0 1-.974-3.186c0-1.026.217-2.052.704-2.97.487-.972 1.136-1.782 2.056-2.538.865-.756 1.947-1.35 3.246-1.782 1.298-.432 2.705-.648 4.219-.648 1.299 0 2.543.162 3.787.54 1.245.378 2.164.756 2.76 1.08l1.244-.972h1.461l-1.732 7.992h-1.406c-.163-.918-.325-1.836-.595-2.646a7.83 7.83 0 0 0-1.136-2.214c-.487-.648-1.028-1.134-1.732-1.512-.703-.378-1.515-.594-2.488-.594-1.353 0-2.489.378-3.355 1.134-.919.756-1.352 1.674-1.352 2.808 0 .81.27 1.512.811 2.106.541.594 1.407 1.134 2.543 1.566.703.27 1.407.54 2.164.81.758.27 1.461.54 2.164.81 1.299.54 2.272 1.242 3.03 2.16.757.918 1.136 1.998 1.136 3.24 0 1.188-.271 2.268-.812 3.348a8.31 8.31 0 0 1-2.272 2.7c-1.028.81-2.218 1.404-3.57 1.836a20.16 20.16 0 0 1-4.545.54Z"/>
  <path fill="#fff" d="M170.82 231.831 34 200.78l136.82-31.05 28.944-126.956L201.982 33l31.108 136.73 136.82 31.05-136.82 31.051-31.108 136.73-31.162-136.73Z"/>
  <path fill="#211E1F" d="M202.214 357.818a1243.244 1243.244 0 0 1-8.223-31.752c-2.597-10.584-5.085-21.223-7.574-31.861-2.435-10.638-4.815-21.33-7.033-32.022A1298.29 1298.29 0 0 1 173 230.052a1244.4 1244.4 0 0 1 8.223 31.753c2.597 10.584 5.086 21.222 7.574 31.86 2.381 10.638 4.761 21.331 7.033 32.023 2.273 10.638 4.383 21.384 6.384 32.13Z"/>
  <path fill="#211E1F" d="M202.214 201c.487 13.176.812 26.298.92 39.475.216 13.176.27 26.298.27 39.474 0 13.176-.054 26.298-.27 39.475a1599.671 1599.671 0 0 1-.974 39.474 1604.608 1604.608 0 0 1-.974-39.474c-.216-13.177-.27-26.299-.27-39.475 0-13.176.054-26.298.27-39.474.217-13.177.541-26.353 1.028-39.475Z"/>
  <path fill="#211E1F" d="M231.544 170.302 201.464 38l-1.028 4.59-29.052 127.712L39 200.326l132.384 30.025 30.134 132.247 30.134-132.247 132.384-30.025-132.492-30.024Zm-.649 57.781-26.564-26.515h143.583l-117.019 26.515Zm-1.623 1.728-26.618 116.857v-143.48l26.618 26.623Zm-28.998-32.347-26.564-26.568 26.564-116.858v143.426Zm4.057 1.674 26.564-26.568 117.073 26.568H204.331Zm-1.677-1.674V53.984l26.618 116.804-26.618 26.676Zm-30.621-24.894 26.564 26.568H54.96l117.073-26.568Zm26.509 28.944-26.509 26.569L54.96 201.514h143.582Zm1.732 1.674v143.426l-26.618-116.857 26.618-26.569Z"/>
  <path fill="#211E1F" d="M358.572 200.326a1248.517 1248.517 0 0 1-31.811 8.208c-10.604 2.592-21.262 5.076-31.92 7.56-10.657 2.43-21.369 4.806-32.081 7.021a1303.62 1303.62 0 0 1-32.19 6.372 1251.651 1251.651 0 0 1 31.811-8.209c10.604-2.592 21.262-5.076 31.919-7.56 10.658-2.376 21.37-4.752 32.082-7.02 10.658-2.268 21.424-4.428 32.19-6.372Z"/>
  <path fill="#211E1F" d="M350.836 200.11a619.067 619.067 0 0 1-17.529 6.75 2420.141 2420.141 0 0 1-33.434 6.21c-11.199 1.944-22.344 3.888-33.542 5.671a1174.984 1174.984 0 0 1-33.651 5.022 622.14 622.14 0 0 1 17.529-6.751 2417.37 2417.37 0 0 1 33.434-6.21c11.199-1.944 22.343-3.888 33.542-5.67a1741.296 1741.296 0 0 1 33.651-5.022Z"/>
  <path fill="#211E1F" d="M343.153 199.948a455.015 455.015 0 0 1-3.246 5.292c-11.631 1.782-23.317 3.348-34.949 4.914-11.685 1.512-23.371 2.97-35.057 4.32a1943.724 1943.724 0 0 1-35.111 3.727 446.926 446.926 0 0 1 3.246-5.293c11.632-1.782 23.317-3.348 34.949-4.914 11.686-1.512 23.371-2.97 35.057-4.32a1245.774 1245.774 0 0 1 35.111-3.726Z"/>
  <path fill="#211E1F" d="M335.417 199.732a652.604 652.604 0 0 1 10.982 3.834c-12.172 1.35-24.345 2.484-36.518 3.564-12.172 1.08-24.345 2.052-36.517 2.97-12.173.918-24.4 1.728-36.626 2.376a655.847 655.847 0 0 1-10.983-3.834c12.173-1.35 24.345-2.484 36.518-3.564 12.173-1.08 24.345-2.052 36.518-2.97a2839.072 2839.072 0 0 1 36.626-2.376Z"/>
  <path fill="#211E1F" d="M327.734 199.57c8.44.702 16.826 1.512 25.265 2.376a1481.383 1481.383 0 0 1-38.032 2.268c-12.66.648-25.373 1.134-38.033 1.62-12.659.432-25.373.81-38.087 1.08-8.439-.702-16.825-1.512-25.265-2.376 12.66-.918 25.319-1.62 38.033-2.268 12.66-.648 25.373-1.134 38.033-1.62 12.713-.486 25.373-.864 38.086-1.08Z"/>
  <path fill="#211E1F" d="M201.464 200.326c13.2-.486 26.347-.756 39.547-.918 13.201-.216 26.347-.27 39.548-.27 13.2 0 26.347.054 39.547.27 13.201.162 26.347.486 39.548.972-13.201.486-26.347.81-39.548.972-13.2.216-26.347.27-39.547.27-13.201 0-26.347-.054-39.548-.27-13.2-.27-26.401-.54-39.547-1.026Zm.216 148.664a617.154 617.154 0 0 1-6.762-17.496 2412.09 2412.09 0 0 1-6.222-33.372c-1.948-11.179-3.895-22.303-5.681-33.481a1170.766 1170.766 0 0 1-5.031-33.588 617.171 617.171 0 0 1 6.763 17.496 2397.254 2397.254 0 0 1 6.221 33.372c1.948 11.179 3.895 22.303 5.681 33.481a1170.766 1170.766 0 0 1 5.031 33.588Z"/>
  <path fill="#211E1F" d="M201.897 341.322a448.737 448.737 0 0 1-5.302-3.24c-1.786-11.61-3.354-23.274-4.923-34.884-1.515-11.665-2.976-23.329-4.328-34.993a1918.91 1918.91 0 0 1-3.733-35.046c1.785 1.08 3.57 2.16 5.301 3.24 1.786 11.61 3.355 23.274 4.924 34.938 1.514 11.664 2.975 23.329 4.328 34.993a1787.223 1787.223 0 0 1 3.733 34.992Z"/>
  <path fill="#211E1F" d="M202.059 333.6a653.507 653.507 0 0 1-3.841 10.962c-1.353-12.15-2.489-24.3-3.571-36.45a2745.727 2745.727 0 0 1-2.975-36.451c-.92-12.15-1.732-24.354-2.381-36.558a653.507 653.507 0 0 1 3.841-10.962c1.353 12.15 2.489 24.3 3.571 36.45 1.082 12.15 2.056 24.3 2.975 36.451.92 12.204 1.732 24.408 2.381 36.558Z"/>
  <path fill="#211E1F" d="M202.275 325.932c-.703 8.424-1.515 16.794-2.38 25.218a1471.443 1471.443 0 0 1-2.272-37.962c-.65-12.636-1.136-25.327-1.623-37.963a2931.432 2931.432 0 0 1-1.082-38.016c.703-8.424 1.514-16.794 2.38-25.219.92 12.637 1.623 25.273 2.272 37.963.649 12.636 1.136 25.326 1.623 37.962.433 12.691.812 25.327 1.082 38.017ZM45.33 200.326a1247.119 1247.119 0 0 1 31.81-8.208c10.605-2.592 21.262-5.076 31.92-7.56 10.658-2.43 21.37-4.806 32.082-7.02a1303.62 1303.62 0 0 1 32.19-6.372 1247.51 1247.51 0 0 1-31.812 8.208c-10.603 2.592-21.261 5.076-31.919 7.56-10.658 2.376-21.37 4.752-32.081 7.02-10.658 2.268-21.424 4.374-32.19 6.372Z"/>
  <path fill="#211E1F" d="M53.012 200.488a618.808 618.808 0 0 1 17.529-6.75c11.144-2.16 22.29-4.212 33.434-6.21 11.199-1.944 22.343-3.888 33.542-5.67a1174.984 1174.984 0 0 1 33.651-5.022 619.067 619.067 0 0 1-17.529 6.75 2420.141 2420.141 0 0 1-33.434 6.21c-11.199 1.944-22.344 3.888-33.542 5.67a1147.01 1147.01 0 0 1-33.65 5.022Z"/>
  <path fill="#211E1F" d="M60.748 200.704a455.013 455.013 0 0 1 3.247-5.292c11.631-1.782 23.317-3.348 34.948-4.914 11.686-1.512 23.372-2.97 35.058-4.32a1933.759 1933.759 0 0 1 35.111-3.726 455.015 455.015 0 0 1-3.246 5.292c-11.632 1.782-23.318 3.348-35.003 4.914-11.686 1.512-23.372 2.97-35.057 4.32a1831.379 1831.379 0 0 1-35.058 3.726Z"/>
  <path fill="#211E1F" d="M68.43 200.866a655.463 655.463 0 0 1-10.982-3.834c12.173-1.35 24.346-2.484 36.518-3.564 12.173-1.08 24.345-2.052 36.518-2.97a1645.298 1645.298 0 0 1 36.626-2.376 655.847 655.847 0 0 1 10.983 3.834c-12.173 1.35-24.346 2.484-36.518 3.564-12.173 1.08-24.346 2.052-36.518 2.97-12.173.918-24.4 1.728-36.626 2.376Z"/>
  <path fill="#211E1F" d="M76.167 201.082c-8.44-.702-16.825-1.512-25.265-2.376a1481.41 1481.41 0 0 1 38.033-2.268c12.659-.648 25.373-1.134 38.032-1.62 12.66-.432 25.374-.81 38.087-1.08 8.44.702 16.825 1.512 25.265 2.376-12.659.918-25.319 1.62-38.033 2.268-12.659.648-25.373 1.134-38.032 1.62-12.714.432-25.427.81-38.087 1.08Z"/>
  <path fill="#211E1F" d="M202.438 200.326c-13.201.486-26.347.756-39.548.918-13.2.216-26.347.27-39.547.27-13.201 0-26.347-.054-39.548-.27-13.2-.162-26.347-.486-39.547-.972 13.2-.486 26.347-.81 39.547-.972 13.2-.216 26.347-.27 39.548-.27 13.2 0 26.347.054 39.547.27 13.201.216 26.401.54 39.548 1.026Zm-.054-156.386a1243.274 1243.274 0 0 1 8.223 31.752c2.597 10.585 5.085 21.223 7.574 31.861 2.434 10.638 4.815 21.33 7.033 32.022a1300.13 1300.13 0 0 1 6.384 32.131 1238.102 1238.102 0 0 1-8.224-31.753c-2.596-10.584-5.085-21.222-7.574-31.86-2.38-10.638-4.76-21.33-7.033-32.023-2.272-10.638-4.382-21.384-6.383-32.13Z"/>
  <path fill="#211E1F" d="M202.221 51.608a617.067 617.067 0 0 1 6.763 17.497 2397.322 2397.322 0 0 1 6.221 33.372c1.948 11.178 3.896 22.302 5.681 33.48a1171.363 1171.363 0 0 1 5.031 33.589 617.154 617.154 0 0 1-6.762-17.496 2415.007 2415.007 0 0 1-6.222-33.373c-1.948-11.178-3.895-22.302-5.68-33.48a1139.611 1139.611 0 0 1-5.032-33.589Z"/>
  <path fill="#211E1F" d="M202.005 59.33c1.785 1.08 3.57 2.16 5.302 3.24 1.785 11.61 3.354 23.275 4.923 34.885a2577.91 2577.91 0 0 1 4.328 34.992 1927.901 1927.901 0 0 1 3.733 35.047 448.737 448.737 0 0 1-5.302-3.24c-1.785-11.61-3.354-23.275-4.923-34.885-1.515-11.664-2.976-23.328-4.328-34.992-1.353-11.664-2.651-23.328-3.733-35.047Z"/>
  <path fill="#211E1F" d="M201.842 66.999a653.53 653.53 0 0 1 3.842-10.963c1.352 12.15 2.488 24.3 3.57 36.45 1.082 12.151 2.056 24.301 2.976 36.451a1639.673 1639.673 0 0 1 2.38 36.559 653.507 653.507 0 0 1-3.841 10.962c-1.352-12.15-2.489-24.3-3.571-36.451-1.082-12.15-2.055-24.3-2.975-36.45-.92-12.15-1.731-24.354-2.381-36.558Z"/>
  <path fill="#211E1F" d="M201.626 74.72c.703-8.424 1.515-16.794 2.38-25.218a1471.52 1471.52 0 0 1 2.273 37.963c.649 12.636 1.136 25.326 1.623 37.962.432 12.636.811 25.327 1.082 38.017-.704 8.424-1.515 16.794-2.381 25.218-.919-12.636-1.623-25.272-2.272-37.962-.649-12.637-1.136-25.327-1.623-37.963-.433-12.69-.866-25.38-1.082-38.016Z"/>
  <path fill="#211E1F" d="M202.384 200.758c-.487-13.176-.812-26.298-.92-39.474-.217-13.176-.271-26.299-.271-39.475 0-13.176.054-26.298.271-39.474.162-13.176.487-26.299.974-39.475.487 13.176.811 26.299.974 39.475.216 13.176.27 26.298.27 39.474 0 13.176-.054 26.299-.27 39.475a1932.866 1932.866 0 0 1-1.028 39.474Z"/>
</svg>
