<?xml version="1.0" encoding="utf-8"?>
<!-- Generator: Adobe Illustrator 22.1.0, SVG Export Plug-In . SVG Version: 6.00 Build 0)  -->
<svg version="1.1" id="Layer_1" xmlns="http://www.w3.org/2000/svg" xmlns:xlink="http://www.w3.org/1999/xlink" x="0px" y="0px"
	 viewBox="0 0 1133.9 566.9" style="enable-background:new 0 0 1133.9 566.9;" xml:space="preserve">
<style type="text/css">
	.st0{clip-path:url(#SVGID_2_);}
	.st1{fill:#318ECD;}
	.st2{fill:#5FB2E0;}
</style>
<title>Alaska page</title>
<g>
	<g id="Waves_front">
		<g>
			<g>
				<defs>
					<rect id="SVGID_1_" x="-1.2" y="-1" width="1135.9" height="566.9"/>
				</defs>
				<clipPath id="SVGID_2_">
					<use xlink:href="#SVGID_1_"  style="overflow:visible;"/>
				</clipPath>
				<g class="st0">
					<path class="st1" d="M1135.5,584c-8.6,0.8-8.7-1.6-17.3-1.6s-8.6,1.6-17.2,1.6s-8.6-1.6-17.2-1.6s-8.6,1.6-17.2,1.6
						s-8.6-1.6-17.2-1.6s-8.5,1.6-17.2,1.6s-8.6-1.6-17.2-1.6s-8.6,1.6-17.2,1.6s-8.6-1.6-17.2-1.6s-8.5,1.6-17.1,1.6
						s-8.6-1.6-17.2-1.6s-8.6,1.6-17.2,1.6s-8.6-1.6-17.2-1.6s-8.6,1.6-17.2,1.6s-8.6-1.6-17.2-1.6s-8.6,1.6-17.2,1.6
						s-8.6-1.6-17.2-1.6s-8.6,1.6-17.2,1.6s-8.6-1.6-17.2-1.6s-8.6,1.6-17.1,1.6s-8.6-1.6-17.2-1.6s-8.6,1.6-17.2,1.6
						s-8.6-1.6-17.2-1.6s-8.6,1.6-17.2,1.6s-8.6-1.6-17.2-1.6s-8.6,1.6-17.1,1.6s-8.6-1.6-17.2-1.6s-8.6,1.6-17.2,1.6
						s-8.6-1.6-17.2-1.6s-8.6,1.6-17.2,1.6s-8.6-1.6-17.2-1.6s-8.6,1.6-17.2,1.6s-8.6-1.6-17.2-1.6s-8.6,1.6-17.2,1.6
						s-8.6-1.6-17.2-1.6s-8.6,1.6-17.2,1.6s-8.6-1.6-17.2-1.6s-8.6,1.6-17.2,1.6s-8.6-1.6-17.2-1.6s-8.6,1.6-17.2,1.6
						s-8.6-1.6-17.2-1.6s-8.6,1.6-17.2,1.6s-8.6-1.6-17.2-1.6s-8.6,1.6-17.2,1.6s-8.6-1.6-17.2-1.6s-8.6,1.6-17.2,1.6
						s-8.6-1.6-17.2-1.6s-8.6,1.6-17.2,1.6s-8.6-1.6-17.2-1.6s-8.6,1.6-17.2,1.6s-8.6-1.6-17.2-1.6s-8.6,1.6-17.2,1.6
						s-8.6-1.6-17.2-1.6s-8.6,1.6-17.2,1.6s-8.6-1.6-17.2-1.6s-8.6,1.6-17.2,1.6s-8.6-1.6-17.2-1.6s-8.6,1.6-17.2,1.6
						s-8.6-1.6-17.2-1.6s-8.6,1.6-17.2,1.6s-8.6-1.6-17.2-1.6s-8.6,1.6-17.1,1.6s-8.6-1.6-17.2-1.6S43.6,584,35,584
						s-8.6-1.6-17.2-1.6S10.6,584,2,584s-8.6-0.8-17.1-1.6c-0.8-0.1-0.9,0-0.9-0.8s1.6-0.8,1.6-1.6s-1.6-0.8-1.6-1.7
						s1.6-0.8,1.6-1.6s-1.6-0.8-1.6-1.6s1.6-0.8,1.6-1.6s-1.6-0.8-1.6-1.7s1.6-0.8,1.6-1.6s-1.6-0.8-1.6-1.7s1.6-0.8,1.6-1.7
						s-1.6-0.8-1.6-1.7s1.6-0.8,1.6-1.7s-1.6-0.8-1.6-1.7s1.6-0.8,1.6-1.7s-1.6-0.8-1.6-1.6s1.6-0.8,1.6-1.6s-1.6-0.9-1.6-1.6
						s1.6-0.8,1.6-1.7s-1.6-0.8-1.6-1.6s1.6-0.8,1.6-1.7s-1.6-0.8-1.6-1.7s1.6-0.8,1.6-1.7s-1.6-0.8-1.6-1.7s1.6-0.8,1.6-1.6
						s-1.6-0.8-1.6-1.7s1.6-0.8,1.6-1.7s-1.6-0.8-1.6-1.7s1.6-0.8,1.6-1.7s-1.6-0.8-1.6-1.7s1.6-0.8,1.6-1.6s-1.6-0.8-1.6-1.6
						s1.6-0.8,1.6-1.7s-1.6-0.8-1.6-1.7s1.6-0.8,1.6-1.7s-1.6-0.8-1.6-1.7s1.6-0.8,1.6-1.7s-1.6-0.8-1.6-1.6s1.6-0.8,1.6-1.7
						s-1.6-0.8-1.6-1.6s1.6-0.8,1.6-1.7s-1.6-0.8-1.6-1.6s1.6-0.8,1.6-1.7s-1.6-0.8-1.6-1.6s1.6-0.8,1.6-1.6s-1.6-0.8-1.6-1.6
						s1.6-0.8,1.6-1.6s-1.6-0.9-1.6-1.7s1.6-0.8,1.6-1.6s-1.6-0.8-1.6-1.6s1.6-0.8,1.6-1.6s-1.6-0.8-1.6-1.6s1.6-0.8,1.6-1.6
						s-1.6-0.8-1.6-1.7s1.6-0.8,1.6-1.6s-1.6-0.8-1.6-1.6s1.6-0.8,1.6-1.6s-1.6-0.8-1.6-1.6s1.6-0.8,1.6-1.6s-1.6-0.8-1.6-1.6
						s1.6-0.8,1.6-1.6s-1.6-0.8-1.6-1.6s1.6-0.8,1.6-1.6s-1.6-0.8-1.6-1.7s1.6-0.8,1.6-1.6s-1.6-0.8-1.6-1.7s1.6-0.8,1.6-1.7
						s-1.7-2.4-0.9-2.5c8.5-0.8,8.7,1.6,17.3,1.6s8.6-1.6,17.2-1.6s8.6,1.6,17.2,1.6S45,472,53.6,472s8.6,1.6,17.2,1.6
						S79.4,472,88,472s8.6,1.6,17.2,1.6s8.6-1.6,17.2-1.6s8.6,1.6,17.2,1.6s8.6-1.6,17.2-1.6s8.6,1.6,17.2,1.6s8.6-1.6,17.2-1.6
						s8.6,1.6,17.2,1.6s8.6-1.6,17.2-1.6s8.6,1.6,17.2,1.6s8.6-1.6,17.2-1.6c8.6,0,8.6,1.6,17.2,1.6s8.6-1.6,17.2-1.6
						s8.6,1.6,17.2,1.6s8.6-1.6,17.2-1.6s8.6,1.6,17.2,1.6s8.6-1.6,17.2-1.6s8.6,1.6,17.2,1.6s8.6-1.6,17.2-1.6s8.6,1.6,17.2,1.6
						s8.6-1.6,17.2-1.6s8.6,1.6,17.2,1.6s8.6-1.6,17.2-1.6s8.6,1.6,17.2,1.6s8.6-1.6,17.2-1.6s8.6,1.6,17.2,1.6s8.6-1.6,17.2-1.6
						s8.6,1.6,17.2,1.6s8.6-1.6,17.2-1.6s8.6,1.6,17.2,1.6s8.6-1.6,17.2-1.6s8.6,1.6,17.2,1.6s8.6-1.6,17.2-1.6s8.6,1.6,17.2,1.6
						s8.6-1.6,17.2-1.6s8.6,1.6,17.2,1.6s8.6-1.6,17.2-1.6s8.6,1.6,17.2,1.6s8.6-1.6,17.2-1.6s8.6,1.6,17.2,1.6s8.6-1.6,17.2-1.6
						s8.6,1.6,17.2,1.6s8.6-1.6,17.2-1.6s8.6,1.6,17.2,1.6s8.6-1.6,17.2-1.6s8.6,1.6,17.2,1.6s8.6-1.6,17.2-1.6s8.6,1.6,17.2,1.6
						s8.6-1.6,17.2-1.6s8.6,1.6,17.2,1.6s8.6-1.6,17.2-1.6s8.6,1.6,17.2,1.6s8.6-1.6,17.2-1.6s8.6,1.6,17.2,1.6s8.6-1.6,17.2-1.6
						s8.6,1.6,17.2,1.6s8.6-1.6,17.2-1.6s8.6,1.6,17.2,1.6s8.6-1.6,17.2-1.6s8.6,1.6,17.2,1.6s8.6-1.6,17.2-1.6s8.6,0.8,17.1,1.6
						c0.8,0.1,0.9,0,0.9,0.8s-1.6,0.8-1.6,1.6s1.6,0.8,1.6,1.6s-1.6,0.8-1.6,1.6s1.6,0.8,1.6,1.6s-1.6,0.8-1.6,1.6s1.6,0.8,1.6,1.6
						s-1.6,0.8-1.6,1.6s1.6,0.8,1.6,1.6s-1.6,0.8-1.6,1.6s1.6,0.8,1.6,1.6s-1.6,0.8-1.6,1.6s1.6,0.8,1.6,1.6s-1.6,0.8-1.6,1.6
						s1.6,0.8,1.6,1.6s-1.6,0.8-1.6,1.6s1.6,0.8,1.6,1.6s-1.6,0.8-1.6,1.6s1.6,0.8,1.6,1.6s-1.6,0.8-1.6,1.6s1.6,0.8,1.6,1.6
						s-1.6,0.8-1.6,1.6s1.6,0.8,1.6,1.6s-1.6,0.8-1.6,1.7s1.6,0.8,1.6,1.6s-1.6,0.8-1.6,1.7s1.6,0.8,1.6,1.7s-1.6,0.8-1.6,1.7
						s1.6,0.8,1.6,1.7s-1.6,0.8-1.6,1.7s1.6,0.8,1.6,1.6s-1.6,0.8-1.6,1.7s1.6,0.8,1.6,1.7s-1.6,0.8-1.6,1.7s1.6,0.8,1.6,1.7
						s-1.6,0.8-1.6,1.7s1.6,0.8,1.6,1.7s-1.6,0.8-1.6,1.7s1.6,0.8,1.6,1.6s-1.6,0.8-1.6,1.7s1.6,0.8,1.6,1.7s-1.6,0.8-1.6,1.6
						s1.6,0.8,1.6,1.7s-1.6,0.8-1.6,1.7s1.6,0.8,1.6,1.7s-1.6,0.8-1.6,1.6s1.6,0.8,1.6,1.7s-1.6,0.8-1.6,1.7s1.6,0.8,1.6,1.7
						s-1.6,0.8-1.6,1.7s1.6,0.8,1.6,1.7s-1.6,0.8-1.6,1.7s1.6,0.8,1.6,1.7s-1.6,0.8-1.6,1.7s1.6,0.8,1.6,1.7s-1.6,0.8-1.6,1.7
						s1.6,0.8,1.6,1.7s-1.6,0.8-1.6,1.7s1.6,0.8,1.6,1.7s-1.6,0.8-1.6,1.7s1.6,0.8,1.6,1.7s-1.6,0.8-1.6,1.7s1.6,0.8,1.6,1.7
						s-1.6,0.8-1.6,1.7s1.6,0.8,1.6,1.7s-1.8,1-1.6,1.8C1134.9,583,1136.3,583.9,1135.5,584z"/>
					<path class="st2" d="M1135.5,636.3c-15.1,1.4-15.3-2.6-30.4-2.6s-15.1,2.7-30.3,2.7s-15.1-2.7-30.3-2.7s-15.1,2.7-30.3,2.7
						s-15.1-2.7-30.3-2.7s-15.1,2.7-30.3,2.7s-15.1-2.7-30.3-2.7s-15.1,2.7-30.3,2.7s-15.1-2.7-30.3-2.7s-15.1,2.7-30.3,2.7
						s-15.1-2.7-30.3-2.7s-15.1,2.7-30.3,2.7s-15.1-2.7-30.3-2.7s-15.1,2.7-30.3,2.7s-15.1-2.7-30.3-2.7s-15.1,2.7-30.2,2.7
						s-15.1-2.7-30.3-2.7s-15.1,2.7-30.3,2.7s-15.1-2.7-30.3-2.7s-15.2,2.7-30.3,2.7s-15.1-2.7-30.3-2.7s-15.1,2.7-30.3,2.7
						s-15.1-2.7-30.3-2.7s-15.1,2.7-30.3,2.7s-15.1-2.7-30.3-2.7s-15.1,2.7-30.3,2.7s-15.1-2.7-30.3-2.7s-15.1,2.7-30.3,2.7
						s-15.1-2.7-30.3-2.7s-15.1,2.7-30.3,2.7s-15.1-2.7-30.3-2.7s-15.1,2.7-30.3,2.7s-15.1-2.7-30.3-2.7s-15.2,2.7-30.3,2.7
						s-15.1-2.7-30.3-2.7s-15.2,2.7-30.3,2.7s-15.1-2.7-30.3-2.7s-15.3,4-30.4,2.6c-1.4-0.1,1.4-2.7,1.4-4s-2.6-1.4-2.6-2.7
						s2.6-1.4,2.6-2.7s-2.6-1.4-2.6-2.7s2.6-1.4,2.6-2.7s-2.6-1.4-2.6-2.7s2.6-1.4,2.6-2.7s-2.6-1.4-2.6-2.7s2.6-1.4,2.6-2.7
						s-2.6-1.4-2.6-2.7s2.6-1.4,2.6-2.7s-2.6-1.4-2.6-2.7s2.6-1.4,2.6-2.7s-2.6-1.4-2.6-2.7s2.6-1.4,2.6-2.7s-2.6-1.4-2.6-2.7
						s2.6-1.4,2.6-2.7s-2.6-1.4-2.6-2.7s2.6-1.4,2.6-2.7s-2.6-1.4-2.6-2.7s2.6-1.4,2.6-2.7s-2.6-1.4-2.6-2.7s2.6-1.4,2.6-2.7
						s-2.6-1.4-2.6-2.7s2.6-1.4,2.6-2.7s-2.6-1.4-2.6-2.7s2.6-1.4,2.6-2.7s-2.6-1.4-2.6-2.7s2.6-1.4,2.6-2.7s-2.6-1.4-2.6-2.7
						s2.6-1.4,2.6-2.7s-2.6-1.4-2.6-2.7s2.6-1.4,2.6-2.7s-2.6-1.4-2.6-2.7s2.6-1.4,2.6-2.7s-2.6-1.4-2.6-2.7s2.6-1.4,2.6-2.7
						s-2.8-3.9-1.4-4c15.1-1.4,15.3,2.6,30.4,2.6s15.1-2.7,30.3-2.7s15.1,2.7,30.3,2.7s15.1-2.7,30.3-2.7s15.1,2.7,30.3,2.7
						s15.1-2.7,30.3-2.7s15.1,2.7,30.3,2.7s15.1-2.7,30.3-2.7s15.1,2.7,30.3,2.7c15.2,0,15.1-2.7,30.3-2.7s15.1,2.7,30.3,2.7
						s15.1-2.7,30.3-2.7s15.1,2.7,30.3,2.7s15.1-2.7,30.3-2.7s15.1,2.7,30.3,2.7s15.1-2.7,30.3-2.7s15.1,2.7,30.3,2.7
						c15.2,0,15.1-2.7,30.3-2.7s15.1,2.7,30.3,2.7s15.1-2.7,30.3-2.7s15.1,2.7,30.3,2.7s15.1-2.7,30.3-2.7s15.1,2.7,30.3,2.7
						s15.1-2.7,30.3-2.7s15.2,2.7,30.3,2.7s15.1-2.7,30.3-2.7s15.1,2.7,30.3,2.7s15.1-2.7,30.3-2.7s15.1,2.7,30.3,2.7
						s15.1-2.7,30.3-2.7s15.1,2.7,30.3,2.7s15.1-2.7,30.3-2.7s15.1,2.7,30.3,2.7s15.1-2.7,30.3-2.7s15.2,2.7,30.3,2.7
						s15.1-2.7,30.3-2.7s15.2,2.7,30.3,2.7s15.3-4,30.4-2.6c1.3,0.1-1.4,2.7-1.4,4s2.7,1.4,2.7,2.7s-2.7,1.4-2.7,2.7
						s2.7,1.4,2.7,2.7s-2.7,1.4-2.7,2.7s2.7,1.4,2.7,2.7s-2.7,1.4-2.7,2.7s2.7,1.4,2.7,2.7s-2.7,1.4-2.7,2.7s2.7,1.4,2.7,2.7
						s-2.7,1.4-2.7,2.7s2.7,1.4,2.7,2.7s-2.7,1.4-2.7,2.7s2.7,1.4,2.7,2.7s-2.7,1.4-2.7,2.7s2.7,1.4,2.7,2.7s-2.7,1.4-2.7,2.7
						s2.7,1.4,2.7,2.7s-2.7,1.4-2.7,2.7s2.7,1.4,2.7,2.7s-2.7,1.4-2.7,2.7s2.7,1.4,2.7,2.7s-2.7,1.4-2.7,2.7s2.7,1.4,2.7,2.7
						s-2.7,1.4-2.7,2.7s2.7,1.4,2.7,2.7s-2.7,1.4-2.7,2.7s2.7,1.4,2.7,2.7s-2.7,1.4-2.7,2.7s2.7,1.4,2.7,2.7s-2.7,1.4-2.7,2.7
						s2.7,1.4,2.7,2.7s-2.7,1.4-2.7,2.7s2.7,1.4,2.7,2.7s-2.7,1.4-2.7,2.7s2.7,1.4,2.7,2.7s-2.9,1.7-2.6,3
						C1134.6,634.7,1136.9,636.2,1135.5,636.3z"/>
				</g>
			</g>
		</g>
	</g>
</g>
</svg>
