<svg xmlns="http://www.w3.org/2000/svg" width="450" height="450" fill="none" viewBox="0 0 450 450">
  <g clip-path="url(#clip0_2433_1170)">
    <path fill="#fff" d="M98.7 45.4c-15.4 0-31.4 11.5-31.4 30.6 0 7.3 2.8 14.2 8 19.4 5.4 5.5 13 8.5 21.3 8.5 16.6 0 31.1-13.2 31.5-28.8.2-7.5-2.9-15.4-8.4-21-3.8-4-10.6-8.7-21-8.7zM126.4 75c-.4 14.7-14.1 27.2-29.8 27.2-17.9 0-27.5-13.5-27.5-26.2 0-18.1 15.1-28.9 29.7-28.9 9.8 0 16.2 4.4 19.8 8.1 5.1 5.3 8 12.7 7.8 19.8z"/>
    <path fill="#fff" d="M119.8 54.3c-1.8-.5-3.6-.7-5.5-.7-16.4 0-28.6 15-28.6 28.4 0 8.1 3.4 18.1 13 21.8.1 0 .2.1.3.1.3 0 .7-.2.8-.5.2-.4 0-.9-.5-1.1-8.8-3.5-11.9-12.7-11.9-20.2 0-15 14.5-26.7 26.9-26.7 1.7 0 3.4.2 5.1.7.5.1.9-.1 1-.6.1-.6-.2-1.1-.6-1.2z"/>
    <path fill="#fff" d="M113.3 49.3c-21.1 2.2-32.2 17.5-32.2 31.4 0 8.9 2.7 16.4 8 22.2.2.2.4.3.6.3.2 0 .4-.1.6-.2.3-.3.4-.9.1-1.2-5-5.5-7.6-12.6-7.6-21.1 0-13.2 10.5-27.6 30.7-29.7.5 0 .8-.5.8-.9s-.5-.9-1-.8z"/>
    <path fill="#fff" d="M107.5 46.7c-7.2.3-15.5 5.1-20.2 9.3-7.2 6.4-11 14.8-11 24.1 0 6.6 2.3 15.9 6.8 20.7.2.2.4.3.6.3.2 0 .4-.1.6-.2.3-.3.4-.9.1-1.2-4.1-4.5-6.3-13.3-6.3-19.6 0-8.8 3.6-16.7 10.5-22.8 4.7-4.2 12.7-8.6 19.2-8.9.5 0 .8-.4.8-.9-.3-.5-.7-.9-1.1-.8zM203.3 289.3c-15.4 0-31.4 11.5-31.4 30.6 0 7.3 2.8 14.2 8 19.4 5.4 5.5 13 8.5 21.3 8.5 16.6 0 31.1-13.2 31.5-28.8.2-7.5-2.9-15.4-8.4-21-3.8-4-10.6-8.7-21-8.7zM231 319c-.4 14.7-14.1 27.2-29.8 27.2-17.9 0-27.5-13.5-27.5-26.2 0-18.1 15.1-28.9 29.7-28.9 9.8 0 16.2 4.4 19.8 8.1 5 5.3 8 12.7 7.8 19.8z"/>
    <path fill="#fff" d="M224.3 298.2c-1.8-.5-3.6-.7-5.5-.7-16.4 0-28.6 15-28.6 28.4 0 8.1 3.4 18.1 13 21.8.1 0 .2.1.3.1.3 0 .7-.2.8-.5.2-.4 0-.9-.5-1.1-8.8-3.5-11.9-12.7-11.9-20.2 0-15 14.5-26.7 26.9-26.7 1.7 0 3.4.2 5.1.7.5.1.9-.1 1-.6.2-.6-.1-1.1-.6-1.2z"/>
    <path fill="#fff" d="M217.9 293.2c-21.1 2.2-32.2 17.5-32.2 31.4 0 8.9 2.7 16.4 8 22.2.2.2.4.3.6.3.2 0 .4-.1.6-.2.3-.3.4-.9.1-1.2-5-5.5-7.6-12.6-7.6-21.1 0-13.2 10.5-27.6 30.7-29.7.5 0 .8-.5.8-.9-.1-.5-.5-.8-1-.8z"/>
    <path fill="#fff" d="M212 290.6c-7.1.4-15.5 5.1-20.2 9.3-7.2 6.4-11 14.8-11 24.1 0 6.6 2.3 15.9 6.8 20.7.2.2.4.3.6.3.2 0 .4-.1.6-.2.3-.3.4-.9.1-1.2-4.1-4.5-6.3-13.3-6.3-19.6 0-8.8 3.6-16.7 10.5-22.8 4.7-4.2 12.7-8.6 19.2-8.9.5 0 .8-.4.8-.9-.2-.4-.6-.8-1.1-.8zM379.6 106.9c-3.1-1-6.4-1.5-9.7-1.5-13.1 0-25.1 7.9-29.2 19.3-2.5 7.1-1.9 15.6 1.5 22.6 2.4 4.9 7.4 11.5 17.4 14.7 3.2 1 6.5 1.5 9.9 1.5 13.7 0 25.2-8.3 29.3-21.1 2.2-7 1.7-14.4-1.6-20.9-3.4-6.9-9.7-12-17.6-14.6zm17.7 35c-3.9 12.1-14.8 19.9-27.7 19.9-3.2 0-6.4-.5-9.4-1.5-9.4-3-14.1-9.2-16.4-13.8-3.3-6.6-3.8-14.6-1.5-21.3 3.8-10.7 15.1-18.2 27.6-18.2 3.1 0 6.2.5 9.2 1.4 7.5 2.4 13.4 7.3 16.7 13.7 3 6.3 3.6 13.2 1.5 19.8z"/>
    <path fill="#fff" d="M377.6 106.4c-.4-.3-.9-.2-1.2.1-.3.4-.2.9.1 1.2 7.3 6 7.4 15.7 5.1 22.9-1.9 5.9-6.7 11.4-12.9 14.8-6.7 3.7-14.1 4.5-20.9 2.4-1.7-.5-3.2-1.3-4.6-2.2-.4-.3-.9-.1-1.2.2-.3.4-.1.9.2 1.2 1.5 1 3.2 1.8 5 2.4 2.6.8 5.3 1.3 8.1 1.3 4.8 0 9.6-1.3 14.1-3.7 6.6-3.6 11.7-9.5 13.8-15.8 2.6-7.7 2.4-18.2-5.6-24.8z"/>
    <path fill="#fff" d="M385.2 109.7c-.4.2-.6.7-.4 1.1 3.1 6.8 3.4 14.3.8 22.4-4 12.5-18.5 23.1-38.3 18.9-.5-.1-.9.2-1 .7-.1.5.2.9.7 1 3.1.7 6.1 1 9 1 16.1 0 27.7-9.7 31.3-21 2.7-8.5 2.4-16.4-.8-23.6-.4-.5-.9-.7-1.3-.5z"/>
    <path fill="#fff" d="M390.4 113.6c-.4.2-.6.7-.4 1.1 2.6 5.6 1.9 14.6 0 20.6-2.7 8.4-8.6 14.8-16.9 18.5-5.7 2.5-14.7 4.3-21 2.6-.5-.1-.9.1-1 .6-.1.5.1.9.6 1 1.9.5 4 .7 6.1.7 5.7 0 11.8-1.5 16-3.4 8.8-3.9 15-10.7 17.9-19.6 2-6.3 2.7-15.9-.1-21.8-.2-.3-.7-.5-1.2-.3zM57.7 178.6c-3.1-1-6.4-1.5-9.7-1.5-13.1 0-25.1 7.9-29.2 19.3-2.5 7.1-1.9 15.6 1.5 22.6 2.4 4.9 7.4 11.5 17.4 14.7 3.2 1 6.5 1.5 9.9 1.5 13.7 0 25.2-8.3 29.3-21.1 2.2-7 1.7-14.4-1.6-20.9-3.5-6.9-9.7-12.1-17.6-14.6zm17.6 34.9c-3.9 12.1-14.8 19.9-27.7 19.9-3.2 0-6.4-.5-9.4-1.5-9.4-3-14.1-9.2-16.4-13.8-3.3-6.6-3.8-14.6-1.5-21.3 3.8-10.7 15.1-18.2 27.6-18.2 3.1 0 6.2.5 9.2 1.4 7.5 2.4 13.4 7.3 16.7 13.7 3.1 6.3 3.6 13.3 1.5 19.8z"/>
    <path fill="#fff" d="M55.7 178.1c-.4-.3-.9-.2-1.2.1-.3.4-.2.9.1 1.2 7.3 6 7.4 15.7 5.1 22.9-1.9 5.9-6.7 11.4-13 14.8-6.7 3.7-14.1 4.5-20.9 2.4-1.7-.5-3.2-1.3-4.6-2.2-.4-.3-.9-.1-1.2.2-.3.4-.1.9.2 1.2 1.5 1 3.2 1.8 5 2.4 2.6.8 5.3 1.3 8.1 1.3 4.8 0 9.6-1.3 14.1-3.7 6.6-3.6 11.7-9.5 13.8-15.8 2.6-7.8 2.4-18.3-5.5-24.8z"/>
    <path fill="#fff" d="M63.3 181.3c-.4.2-.6.7-.4 1.1 3.1 6.8 3.4 14.3.8 22.4-4 12.5-18.5 23.1-38.3 18.9-.5-.1-.9.2-1 .7-.1.5.2.9.7 1 3.1.7 6.1 1 9 1 16.1 0 27.7-9.7 31.3-21 2.7-8.5 2.4-16.4-.8-23.6-.4-.5-.9-.7-1.3-.5z"/>
    <path fill="#fff" d="M68.5 185.2c-.4.2-.6.7-.4 1.1 2.6 5.6 1.9 14.6 0 20.6-2.7 8.4-8.6 14.8-16.9 18.5-5.7 2.5-14.8 4.3-21 2.6-.5-.1-.9.1-1 .6-.1.5.2.9.6 1 1.9.5 4 .7 6.1.7 5.7 0 11.8-1.5 16-3.4 8.8-3.9 15-10.7 17.9-19.6 2-6.3 2.7-15.9-.1-21.8-.3-.3-.8-.5-1.2-.3zM67.5 370.7c-3.1-1-6.4-1.5-9.7-1.5-13.1 0-25.1 7.9-29.2 19.3-2.5 7.1-1.9 15.6 1.5 22.6 2.4 4.9 7.4 11.5 17.4 14.7 3.2 1 6.5 1.5 9.9 1.5 13.7 0 25.2-8.3 29.3-21.1 2.2-7 1.7-14.4-1.6-20.9-3.5-6.9-9.7-12-17.6-14.6zm17.6 35c-3.9 12.1-14.8 19.9-27.7 19.9-3.2 0-6.4-.5-9.4-1.5-9.4-3-14.1-9.2-16.3-13.8-3.3-6.6-3.8-14.6-1.5-21.3 3.8-10.7 15.1-18.2 27.6-18.2 3.1 0 6.2.5 9.2 1.4 17 5.6 22 21.4 18.1 33.5z"/>
    <path fill="#fff" d="M65.5 370.2c-.4-.3-.9-.2-1.2.1-.3.4-.2.9.1 1.2 7.3 6 7.4 15.7 5.1 22.9-1.9 5.9-6.7 11.4-13 14.8-6.7 3.7-14.1 4.5-20.9 2.4-1.7-.5-3.2-1.3-4.6-2.2-.4-.3-.9-.1-1.2.2-.3.4-.1.9.2 1.2 1.5 1 3.2 1.8 5 2.4 2.6.8 5.3 1.3 8.1 1.3 4.8 0 9.6-1.3 14.1-3.7 6.6-3.6 11.7-9.5 13.8-15.8 2.6-7.7 2.4-18.2-5.5-24.8z"/>
    <path fill="#fff" d="M73.1 373.5c-.4.2-.6.7-.4 1.1 3.1 6.8 3.4 14.3.8 22.4-4 12.5-18.5 23.1-38.3 18.9-.5-.1-.9.2-1 .7-.1.5.2.9.7 1 3.1.7 6.1 1 9 1 16.1 0 27.7-9.7 31.3-21 2.7-8.5 2.4-16.4-.8-23.6-.4-.5-.9-.7-1.3-.5z"/>
    <path fill="#fff" d="M78.3 377.4c-.4.2-.6.7-.4 1.1 2.6 5.6 1.9 14.6 0 20.6-2.7 8.4-8.6 14.8-16.9 18.5-5.7 2.5-14.8 4.3-21 2.6-.5-.1-.9.1-1 .6-.1.5.2.9.6 1 1.9.5 4 .7 6.1.7 5.7 0 11.8-1.5 16-3.4 8.8-3.9 15-10.7 17.9-19.6 2-6.3 2.7-15.9-.1-21.8-.2-.3-.8-.5-1.2-.3zM442.9 419.6c-3.5-6.9-9.7-12-17.6-14.6-3.1-1-6.4-1.5-9.7-1.5-13.1 0-25.1 7.9-29.2 19.3-2.5 7.1-1.9 15.6 1.5 22.6.7 1.4 1.6 3 2.8 4.6h2.2c-1.5-1.8-2.7-3.7-3.5-5.3-3.3-6.6-3.8-14.6-1.5-21.3 3.8-10.7 15.1-18.2 27.6-18.2 3.1 0 6.2.5 9.2 1.4 7.5 2.4 13.4 7.3 16.7 13.7 3.1 6.1 3.6 13.1 1.5 19.6-1.2 3.8-3.1 7.2-5.6 10h2.2c2.2-2.8 3.9-6 5-9.5 2.3-6.9 1.7-14.3-1.6-20.8z"/>
    <path fill="#fff" d="M423.3 404.6c-.4-.3-.9-.2-1.2.1-.3.4-.2.9.1 1.2 7.3 6 7.4 15.7 5.1 22.9-1.9 5.9-6.7 11.4-12.9 14.8-6.7 3.7-14.1 4.5-20.9 2.4-1.7-.5-3.2-1.3-4.6-2.2-.4-.3-.9-.1-1.2.2-.3.4-.1.9.2 1.2 1.5 1 3.2 1.8 5 2.4 2.6.8 5.3 1.3 8.1 1.3 4.8 0 9.6-1.3 14.1-3.7 6.6-3.6 11.7-9.5 13.8-15.8 2.5-7.8 2.3-18.3-5.6-24.8z"/>
    <path fill="#fff" d="M432.8 431.8c2.7-8.5 2.4-16.4-.8-23.6-.2-.4-.7-.6-1.1-.4-.4.2-.6.7-.4 1.1 3.1 6.8 3.4 14.3.8 22.4-2.7 8.4-10.1 15.9-20.7 18.7h5.2c8.6-3.7 14.6-10.6 17-18.2z"/>
    <path fill="#fff" d="M437.3 433.9c2-6.3 2.7-15.9-.1-21.8-.2-.4-.7-.6-1.1-.4-.4.2-.6.7-.4 1.1 2.6 5.6 1.9 14.6 0 20.6-2.3 7.1-6.8 12.8-13.2 16.6h3.1c5.6-4 9.6-9.4 11.7-16.1zM405.3 10.1c3.2 1 6.5 1.5 9.9 1.5 9.9 0 18.6-4.4 24.3-11.6h-2.2c-5.3 6.2-13.2 9.9-22.1 9.9-3.2 0-6.4-.5-9.4-1.5-6-1.9-10.1-5.2-12.9-8.5h-2.2c3 4 7.5 7.9 14.6 10.2z"/>
    <path fill="#fff" d="M392.9.2c-.5-.1-.9.2-1 .7-.1.5.2.9.7 1 3.1.7 6.1 1 9 1 5.3 0 10.1-1 14.2-2.8h-5.2c-5.3 1.3-11.2 1.5-17.7.1z"/>
    <path fill="#fff" d="M397.8 4.5c-.5-.1-.9.1-1 .6-.1.5.1.9.6 1 1.9.5 4 .7 6.1.7 5.7 0 11.8-1.5 16-3.4 2.2-1 4.3-2.1 6.1-3.5h-3.1c-1.2.7-2.4 1.4-3.7 1.9-5.8 2.7-14.8 4.4-21 2.7zM137.4 119.1l-.3-.2c-.4-.4-.4-.6-.4-.7 0-.1.1-.3.1-.4.1-.2.1-.4.1-.7 0-.3-.1-.6-.3-.9-.4-.4-.9-.5-1.3-.5-2.6 0-9.9 2.6-10.2 2.7-1.1.4-1.8 1-2.1 1.8-.5 1.3.2 2.6.8 3.6l.1.2c.1.2.2.4.3.5.4.9 1.1 2.3 2.7 2.3.7 0 1.4-.2 2.3-.7l1.3-.8c1.9-1.1 4.3-2.4 5.8-3.3 1.1-.6 1.7-1 1.8-1.8.2-.4-.3-.7-.7-1.1zm-1.8 1.6c-1.5.9-3.9 2.2-5.8 3.3l-1.3.8c-.8.4-1.2.5-1.5.5-.5 0-.7-.3-1.1-1.3l-.3-.6-.1-.2c-.4-.8-.9-1.7-.7-2.2.1-.4.7-.6 1.1-.8 3.4-1.2 7.6-2.5 9.4-2.6 0 .2-.1.3-.1.5-.1 1 .5 1.7 1 2.2.1.1.1.1.2.1-.3 0-.5.2-.8.3z"/>
    <path fill="#fff" d="M181.2 105.4c-2.4-.7-4.9-1.3-7.4-1.5-15.4-1.7-26.3 5.3-34.2 10.4-1.4.9-2.7 1.7-4 2.5-.4.2-.5.8-.3 1.2.2.4.8.5 1.2.3 1.3-.7 2.6-1.6 4-2.5 7.7-5 18.3-11.7 33.1-10.1 2 .2 4 .6 5.9 1.1-2.3 2.8-4.2 5-6.6 7.1-7.8 6.8-13.4 6.2-21.2 5.4-1.8-.2-3.7-.4-5.7-.5-3.3-.2-6.3-.1-9.2.1-.5 0-.8.5-.8.9 0 .5.4.8.9.8 2.8-.3 5.7-.3 9-.1 2 .1 3.8.3 5.6.5 2.4.2 4.6.5 6.8.5 5.1 0 9.9-1.2 15.7-6.3 2.6-2.3 4.6-4.6 7.1-7.6l.5-.6c.2-.2.2-.5.2-.8-.1-.5-.3-.7-.6-.8zM126.5 125.2c-.4-.1-.9.1-1 .6-1.4 5-4.9 10.7-13.4 9.8-2.8-.3-4.7-1.2-6.9-2.3-1.3-.6-2.7-1.3-4.5-1.9 3.3-1.4 5.4-4.1 7.2-6.6 2.6-3.4 4.8-6.3 9.5-5.8 1.9.2 3.9 1 6.2 2.3.4.2.9.1 1.2-.3.2-.4.1-.9-.3-1.2-2.5-1.5-4.7-2.3-6.9-2.5-5.6-.6-8.4 3-11 6.4-2.3 3.1-4.7 6.2-9.2 6.7-.4 0-.7.4-.8.8-.1.4.3.8.7.9 3.1.6 5.2 1.6 7.2 2.6 2.3 1.1 4.4 2.1 7.5 2.4.7.1 1.3.1 1.9.1 6.6 0 11.3-3.9 13.3-11.1 0-.3-.3-.8-.7-.9z"/>
    <path fill="#fff" d="M124 120.9c-.9-.2-2-.4-3-.5-5.9-.6-8.5 2.7-10.7 5.7-1.9 2.5-3.4 4.5-6.5 4.1-.5-.1-.9.3-.9.8-.1.5.3.9.8.9h.9c3.5 0 5.4-2.5 7.2-4.8 2.2-2.9 4.3-5.6 9.2-5.1.9.1 1.9.3 2.8.5.5.1.9-.2 1-.7 0-.4-.3-.8-.8-.9z"/>
    <path fill="#fff" d="M124.6 122.6c-5.6.1-7.4 2.7-9.1 4.9-1.4 1.9-2.6 3.6-5.9 4.1-.5.1-.8.5-.7 1 .1.4.4.7.8.7h.1c4-.7 5.6-2.8 7-4.8 1.6-2.2 3.1-4.1 7.8-4.2.5 0 .8-.4.8-.9s-.4-.9-.8-.8z"/>
    <path fill="#fff" d="M125 124.1c-4.7 1.8-5.6 4-6.3 5.7-.6 1.5-1.1 2.6-3.9 3.4-.4.1-.7.6-.6 1.1.1.4.4.6.8.6h.2c3.6-1.1 4.3-2.8 5-4.4.6-1.6 1.3-3.2 5.4-4.8.4-.2.7-.7.5-1.1-.2-.5-.7-.7-1.1-.5zM215.1 389.5l-1.5-.5c-2.1-.7-4.6-1.5-6.3-2.1-.9-.3-1.4-.4-1.7-.4-.4 0-.7.1-.9.4-.4.4-.4.9-.3 1.3v.3c0 .6-.1.7-.2.8-.1.1-.2.1-.4.2l-.6.3c-.3.2-.5.6-.5 1 .1 1.6 5.2 4.6 9.4 6.8.7.4 1.3.5 1.9.5 1.9 0 2.6-1.8 3-3.2l.1-.3c.1-.2.1-.4.2-.5.4-.8.8-1.9.3-2.9-.4-.6-1.2-1.2-2.5-1.7zm.6 4.1l-.3.6-.1.3c-.4 1.2-.8 2-1.4 2-.3 0-.6-.1-1.1-.3-3.7-2-7.2-4.2-8.2-5.2.2-.1.3-.2.4-.3.9-.6.9-1.5.9-2.2v-.2c.2 0 .4.1.7.2 1.7.5 4.2 1.4 6.3 2.1l1.5.5c.8.3 1.4.6 1.5.9.3.4.1 1-.2 1.6z"/>
    <path fill="#fff" d="M199.7 381.2c-1.3-1.6-2.4-3-3.4-4.5-4.7-6.4-8.4-11.4-19.4-12.8-3.4-.4-6.5-.3-10.4-.2h-.8c-.3 0-.5.2-.7.4-.1.2-.2.5 0 .8 1.1 2.3 2.4 4.5 3.9 6.6 9.1 12.5 21.5 15.9 30.6 18.4 1.6.4 3.1.9 4.5 1.3h.3c.4 0 .7-.2.8-.6.1-.4-.1-.9-.6-1.1-1.4-.4-2.9-.9-4.5-1.3-8.8-2.4-21-5.7-29.7-17.8-1.2-1.6-2.2-3.3-3.1-5.1 3.6-.1 6.5-.2 9.7.2 10.3 1.3 13.6 5.8 18.3 12.1 1.1 1.5 2.2 3 3.5 4.6 2.1 2.6 4.1 4.8 6.3 6.7.3.3.9.3 1.2 0 .3-.3.3-.9 0-1.2-2.5-1.9-4.5-4-6.5-6.5zM238.1 402.3c-.7-2.4-1.4-4.7-3.2-7.2-4.5-6.2-11-7.6-18.4-3.9-.4.2-.6.7-.4 1.1.2.4.7.6 1.1.4 4.6-2.3 11.2-3.6 16.3 3.4 1.6 2.3 2.2 4.3 2.9 6.6.4 1.4.9 2.9 1.6 4.6-3.2-1.5-6.6-1.2-9.7-1-4.2.4-7.9.7-10.6-3.2-1.1-1.5-1.9-3.5-2.4-6.1-.1-.5-.5-.8-1-.7-.5.1-.8.5-.7 1 .6 2.8 1.5 5 2.7 6.8 3.3 4.6 7.8 4.2 12.1 3.8 3.8-.3 7.8-.7 11.2 2.4.2.1.4.2.6.2.2 0 .4-.1.5-.2.3-.3.4-.7.2-1.1-1.5-2.5-2.1-4.8-2.8-6.9z"/>
    <path fill="#fff" d="M227.5 402c-3.6.3-7 .6-9.9-3.5-.6-.8-1.1-1.6-1.5-2.4-.2-.4-.8-.5-1.2-.3-.4.2-.5.8-.3 1.2.5.8 1 1.7 1.6 2.5 3.5 4.8 7.7 4.4 11.4 4.1 3.1-.2 5.6-.4 7.4 2.1.2.2.4.4.7.4.2 0 .3-.1.5-.2.4-.3.5-.8.2-1.2-2.3-3.2-5.7-2.9-8.9-2.7z"/>
    <path fill="#fff" d="M225.1 397.3c-2.7.3-5.1.5-8.4-2.9-.3-.3-.9-.4-1.2 0-.3.3-.4.9 0 1.2 3.8 4 7 3.7 9.8 3.5 2.4-.2 4.4-.4 7 1.7.2.1.3.2.5.2s.5-.1.7-.3c.3-.4.2-.9-.1-1.2-3.2-2.7-5.9-2.5-8.3-2.2z"/>
    <path fill="#fff" d="M230.8 394.2c-3.2-2-5-1.3-6.6-.7-1.6.6-3.3 1.2-7.1-.8-.4-.2-.9 0-1.1.4-.2.4 0 .9.4 1.1 4.5 2.3 6.7 1.5 8.5.9 1.5-.5 2.6-.9 5.2.6.1.1.3.1.4.1.3 0 .6-.1.7-.4.2-.5.1-1-.4-1.2z"/>
    <g>
      <path fill="#fff" d="M348.3 420.7c-1.2 0-2.2.9-3 1.6l-.2.2c-.1.1-.3.2-.5.4-.7.6-1.6 1.2-1.7 2.4-.1.9.4 1.8 1.3 2.8l1.1 1.2c1.5 1.6 3.3 3.5 4.5 4.8.9.9 1.4 1.3 2 1.3.7 0 1-.6 1.3-1.1l.2-.3c.3-.5.4-.6.6-.6h1.1c.4 0 .7-.3.9-.6.7-1.4-2.4-6.5-5-10.5-.8-1.1-1.7-1.6-2.6-1.6zm5.8 11.1h-.5c-1 .1-1.6.9-1.9 1.5 0 .1-.1.1-.1.2l-.5-.5c-1.2-1.3-3-3.2-4.5-4.8l-1.1-1.2c-.6-.6-.9-1.2-.9-1.5 0-.4.5-.8 1-1.2.2-.1.4-.3.5-.4l.2-.2c.6-.6 1.3-1.2 1.9-1.2.3 0 .7.3 1.1.9 2.4 3.4 4.4 7 4.8 8.4z"/>
      <path fill="#fff" d="M358.3 435.3c-1.2-1.1-2.3-2.2-3.3-3.3-.3-.3-.9-.3-1.2 0-.3.3-.3.9 0 1.2 1 1.1 2.2 2.1 3.4 3.3 3.7 3.5 8.2 7.8 11.7 13.5h2c-3.8-6.3-8.6-10.9-12.6-14.7zM356.3 448.2c-.2-1.8-.5-3.7-.9-5.7-.6-3.3-1.4-6.2-2.3-8.9-.2-.4-.6-.7-1.1-.5-.4.2-.7.6-.5 1.1.9 2.6 1.6 5.5 2.2 8.7.4 2 .6 3.8.9 5.6.1.5.1 1.1.2 1.6h1.7c0-.7-.1-1.3-.2-1.9zM341.3 405.4c-3.5-1.5-7.1-3.1-8.7-7.4-.1-.4-.5-.6-1-.5-.4.1-.7.4-.7.9.1 3.1-.4 5.4-.9 7.6-.5 2.4-1 4.8-.6 7.8 1 7.6 6.1 11.9 14.3 12.2.5 0 .8-.4.8-.8 0-.5-.3-.9-.8-.9-5.2-.2-11.6-2.2-12.7-10.8-.4-2.8.1-4.8.6-7.2.3-1.4.6-3 .8-4.8 2.1 2.9 5.2 4.2 8.1 5.5 3.9 1.7 7.2 3.2 7.8 7.8.2 1.9 0 4-.8 6.5-.1.4.1.9.6 1.1.5.1.9-.1 1.1-.6.8-2.8 1.1-5.1.8-7.3-.6-5.6-4.7-7.4-8.7-9.1z"/>
      <path fill="#fff" d="M340 409.6c-2.9-1.3-5.2-2.3-5.6-5.4-.1-.5-.5-.8-1-.7-.5.1-.8.5-.7 1 .5 4 3.6 5.4 6.6 6.7 3.3 1.5 6.4 2.9 7.1 7.8.1.9.2 1.9.2 2.9 0 .5.4.8.8.8.5 0 .8-.4.8-.9 0-1-.1-2-.2-3-.7-5.9-4.6-7.7-8-9.2z"/>
      <path fill="#fff" d="M339.8 414.9c-2.2-.9-4.1-1.7-5.4-4.8-.2-.4-.7-.6-1.1-.5-.4.2-.6.7-.5 1.1 1.6 3.7 4.1 4.8 6.3 5.7 2.5 1.1 4.7 2 6 6.6.1.4.4.6.8.6h.2c.5-.1.7-.6.6-1-1.4-5.3-4.3-6.6-6.9-7.7z"/>
      <g>
        <path fill="#fff" d="M338.3 418.6c-1.6-.2-2.8-.4-4.3-3-.2-.4-.8-.5-1.2-.3-.4.2-.5.8-.3 1.2 1.9 3.3 3.7 3.5 5.5 3.8 1.7.3 3.4.5 5.9 4.1.2.2.4.4.7.4.2 0 .3 0 .5-.1.4-.3.5-.8.2-1.2-2.8-4.3-5.1-4.6-7-4.9z"/>
      </g>
    </g>
    <g>
      <path fill="#fff" d="M365.6 18.9c2.8 2 5.6 3.4 9.1 5.1l.8.4c.1.1.2.1.4.1.1 0 .3 0 .4-.1.2-.1.4-.4.4-.7.2-2.5.1-5.1-.3-7.6-.8-6.4-2.9-11.6-5.6-16.1h-2c2.8 4.5 5 9.8 5.9 16.3.3 2 .4 4 .3 6-3.2-1.6-5.8-2.9-8.4-4.8-7.8-5.5-9-10.7-10-17.5h-1.7c1 7.1 2.3 12.9 10.7 18.9z"/>
    </g>
    <g>
      <path fill="#fff" d="M76.8 257.6h-.3c-.6-.1-.7-.2-.7-.4-.1-.1-.1-.3-.1-.4-.1-.2-.1-.4-.2-.6-.2-.4-.6-.6-1-.6-1.7 0-5.8 5.1-8.2 8.1-.7.9-1 1.8-.8 2.6.3 1.3 1.6 2 2.6 2.6l.2.1c.2.1.3.2.5.3.6.4 1.4.9 2.2.9 1.1 0 2-.7 2.8-2.2l.7-1.3c1-2 2.3-4.3 3.1-5.9.6-1.1.9-1.8.6-2.4-.3-.6-.9-.7-1.4-.8zm-.7 2.4c-.8 1.6-2.1 3.9-3.1 5.9l-.7 1.3c-.3.6-.8 1.3-1.3 1.3-.4 0-.8-.3-1.3-.6-.2-.1-.4-.3-.6-.4l-.2-.1c-.8-.4-1.7-.9-1.8-1.5-.1-.4.2-.9.5-1.3 2.6-3.4 5.4-6.4 6.5-7.3.1.2.1.3.2.5.5.9 1.4 1.2 2 1.3h.2c-.1.4-.2.6-.4.9z"/>
      <path fill="#fff" d="M106.5 222.6c-2.4.7-4.8 1.6-7.1 2.7-13.9 6.8-19.3 18.5-23.3 27.1-.7 1.5-1.4 2.9-2 4.2-.2.4 0 .9.4 1.1.4.2.9 0 1.1-.4.7-1.3 1.3-2.7 2-4.3 3.9-8.3 9.2-19.7 22.5-26.3 1.8-.9 3.7-1.6 5.6-2.2-.5 3.6-.9 6.5-1.8 9.5-3 9.9-8 12.5-15 15.9-1.6.8-3.3 1.7-5.1 2.6-2.9 1.6-5.5 3.3-7.7 5-.4.3-.4.8-.2 1.2.2.2.4.3.7.3.2 0 .4-.1.5-.2 2.2-1.7 4.7-3.3 7.5-4.9 1.7-1 3.4-1.8 5-2.6 7.1-3.5 12.7-6.3 15.9-17 1-3.3 1.4-6.4 1.9-10.3l.1-.8c0-.3-.1-.6-.3-.8-.1.2-.4.2-.7.2zM70.8 268.6c-.4.1-.7.6-.6 1.1 1.5 5 1.6 11.7-6.1 15.5-2.5 1.2-4.6 1.5-7 1.8-1.4.2-3 .4-4.8.8 2-2.9 2.3-6.3 2.6-9.4.4-4.2.7-7.9 4.9-9.9 1.7-.8 3.8-1.3 6.4-1.4.5 0 .8-.4.8-.9s-.4-.8-.9-.8c-2.9.1-5.2.6-7.1 1.5-5.1 2.5-5.5 7-5.8 11.3-.3 3.8-.7 7.8-4.2 10.6-.3.3-.4.7-.2 1.1.2.3.4.4.7.4.1 0 .2 0 .3-.1 2.9-1.1 5.2-1.4 7.5-1.6 2.5-.3 4.8-.6 7.6-1.9 6.9-3.4 9.3-9.6 7-17.5-.2-.5-.6-.7-1.1-.6z"/>
      <path fill="#fff" d="M66.4 266.3c-.9.3-1.9.7-2.8 1.2-5.3 2.6-5.7 6.8-6 10.6-.3 3.1-.5 5.6-3.3 7-.4.2-.6.7-.4 1.1.1.3.4.5.8.5.1 0 .3 0 .4-.1 3.6-1.8 4-5.1 4.2-8.4.3-3.6.6-7 5.1-9.2.9-.4 1.8-.8 2.6-1.1.4-.2.7-.7.5-1.1-.1-.5-.6-.7-1.1-.5z"/>
      <path fill="#fff" d="M67.8 267.4c-4.6 3.1-4.9 6.3-5.1 9-.2 2.4-.3 4.4-2.8 6.7-.4.3-.4.8-.1 1.2.2.2.4.3.6.3.2 0 .4-.1.6-.2 3-2.7 3.2-5.4 3.4-7.8.2-2.8.4-5.1 4.3-7.8.4-.3.5-.8.2-1.2-.2-.3-.7-.4-1.1-.2z"/>
      <path fill="#fff" d="M69 268.5c-3 4.1-2.6 6.4-2.3 8.2.3 1.6.5 2.7-1.5 5-.3.4-.3.9.1 1.2.2.1.4.2.6.2.2 0 .5-.1.6-.3 2.5-2.9 2.1-4.7 1.8-6.4-.3-1.7-.6-3.4 2-6.9.3-.4.2-.9-.2-1.2-.3-.3-.8-.2-1.1.2z"/>
    </g>
    <g>
      <path fill="#fff" d="M284.1 150.6c-8.2 0-20.9 17.7-20.9 23.1 0 3.9 3.1 6.9 7.3 6.9 6.3 0 8.9-4.6 12.5-10.9 1.8-3.1 3.7-6.5 6.5-10.1 1.4-1.9 1.6-4.1.7-5.9-.9-1.9-3.2-3.1-6.1-3.1zm4.1 8.1c-2.8 3.7-4.9 7.2-6.6 10.3-3.5 6-5.8 10-11 10-2.7 0-5.6-1.8-5.6-5.2 0-4.6 12-21.4 19.2-21.4 2.2 0 3.9.8 4.6 2.2.6 1.2.4 2.7-.6 4.1z"/>
      <path fill="#fff" d="M267.8 179.1c-1.9 2.9-3.4 5.8-4.7 8.5-2 4.1-3.6 7.4-5.8 7.4-1 0-2.3-.8-2.3-1.7 0-2.8 7.8-11.4 11.1-15.1.3-.3.3-.9-.1-1.2-.3-.3-.9-.3-1.2.1-6.9 7.7-11.6 13.4-11.6 16.2 0 1.9 2.1 3.4 4 3.4 3.2 0 5-3.7 7.3-8.4 1.3-2.6 2.7-5.5 4.6-8.3.3-.4.2-.9-.2-1.2-.3-.2-.9-.1-1.1.3z"/>
      <path fill="#fff" d="M267.3 186.8c-1.3 0-2.8.4-4.3 1.1-.4.2-.6.7-.4 1.1.2.4.7.6 1.1.4 1.3-.6 2.5-1 3.5-1 2.8 0 3.9 1.6 3.9 6 0 11-15.8 25.1-28.1 25.1-9.7 0-11.8-9.9-11.8-13.7 0-8.5 10.1-25.9 21.9-25.9 3.5 0 4.7 3.1 5.1 5 .1.5.5.8 1 .7.5-.1.8-.5.7-1-.8-4-3.4-6.3-6.8-6.3-7.9 0-13.9 6.6-16.8 10.6-4.1 5.6-6.8 12.4-6.8 17 0 4.3 2.4 15.4 13.5 15.4 13.4 0 29.8-14.8 29.8-26.8.1-3.6-.5-7.7-5.5-7.7z"/>
    </g>
    <g>
      <path fill="#fff" d="M14.7 274.2c-3.1-.4-5.5.7-6.6 2.7-1 1.7-.9 3.7.2 5.7 2.3 3.9 3.9 7.6 5.3 10.8 2.9 6.7 5 11.5 11.2 12.2.3 0 .6.1.9.1 3.8 0 6.7-2.5 7.1-6.1.7-5.4-9.9-24.5-18.1-25.4zm16.4 25.2c-.4 3.1-3.1 4.6-5.4 4.6H25c-5.2-.6-7.1-4.8-9.8-11.2-1.4-3.3-3-7-5.4-11-.8-1.4-.9-2.9-.2-4 .7-1.2 2.2-1.9 4-1.9.3 0 .6 0 1 .1 7.1.7 17.1 18.9 16.5 23.4z"/>
      <path fill="#fff" d="M29.7 302.5c-.4.3-.5.8-.2 1.2 2.9 4 9.6 13.5 9.3 16.2 0 .4-.3.7-.8 1-.5.3-1.1.4-1.7.4-2.1-.2-3.3-3.7-4.9-8-1-2.8-2.1-5.9-3.7-8.9-.2-.4-.7-.6-1.1-.4-.4.2-.6.7-.4 1.1 1.5 3 2.6 6 3.6 8.7 1.7 4.9 3.1 8.8 6.3 9.1h.4c.8 0 1.6-.2 2.3-.6 1-.6 1.6-1.4 1.7-2.3.3-2.8-3.6-9-9.6-17.4-.3-.3-.9-.4-1.2-.1z"/>
      <path fill="#fff" d="M42.2 305.3c-3.4-.4-6.2 1.7-7.4 5.5-.1.4.1.9.5 1.1.4.1.9-.1 1.1-.5.6-1.8 2.1-4.8 5.6-4.4 11.7 1.4 19.8 19.8 18.8 28.2-.3 2.2-1.3 5.6-3.4 8.2-2.5 3.1-5.8 4.5-9.9 4-12.3-1.4-26.3-17.2-25-28.2.2-2.1.7-3.5 1.3-4.4.4-.6 1.3-1.4 3.3-1.2 1 .1 2.2.6 3.4 1.4.4.3.9.1 1.2-.2.3-.4.1-.9-.2-1.2-1.4-.9-2.8-1.5-4.1-1.6-2.1-.3-3.8.4-4.8 1.9-.8 1.1-1.3 2.8-1.6 5.2-1.4 11.9 13.2 28.5 26.5 30 .6.1 1.2.1 1.7.1 3.9 0 7.2-1.6 9.7-4.8 2.3-2.9 3.5-6.6 3.7-9.1.5-4.5-1.4-11.6-4.8-17.7-2.6-4.1-7.8-11.4-15.6-12.3z"/>
    </g>
    <g>
      <path fill="#fff" d="M212.9 237.7c-2 .3-3.7.6-5.2.8-33.1 6-59 9.4-77.9 11.8-9.7 1.2-18.2 2.3-25 3.4-.3.1-.6.3-.7.6-.1.3 0 .7.3.9 9 7 16.6 16.4 23.8 29.7.2.3.4.4.7.4h.2c16.5-3.2 37.8-6.1 56.5-8.6 7.5-1 14.5-2 20.7-2.9.4-.1.7-.3.7-.7 1.2-7.7 2.6-13.6 3.9-18.7 1.4-5.6 2.6-10.5 3-15.9 0-.3-.1-.5-.3-.7-.2-.1-.5-.1-.7-.1zm-3.7 16.4c-1.2 5.1-2.6 10.8-3.8 18.3-6 .9-12.8 1.8-20.1 2.8-18.5 2.5-39.5 5.4-56 8.5-6.8-12.5-14-21.6-22.4-28.5 6.4-1 14.2-2 23-3.1 18.9-2.4 44.9-5.7 78-11.8 1.2-.2 2.5-.4 4.1-.7-.4 4.8-1.5 9.3-2.8 14.5z"/>
      <path fill="#fff" d="M194.9 223.6c0-.2-.1-.4-.3-.6-.2-.1-.4-.2-.7-.2-8.5 1.3-17.1 2.8-25.4 4.3-10 1.8-20.4 3.7-30.6 5-.5.1-.8.5-.7 1 .5 3.7 1 7.6 1.4 11.8.2 1.6.4 3.3.5 4.9 0 .4.4.8.8.8h.1c.5 0 .8-.5.8-.9-.2-1.7-.3-3.3-.5-5-.4-3.9-.9-7.6-1.3-11 10-1.4 20.1-3.2 29.9-4.9 8-1.4 16.3-2.9 24.4-4.2.3 3 .7 7.6 1.5 14.4.1.8.2 1.7.3 2.5.1.5.5.8.9.7.5-.1.8-.5.7-.9-.1-.8-.2-1.7-.3-2.5-.8-7.4-1.2-12.2-1.5-15.2z"/>
      <path fill="#fff" d="M157.9 212.1c-.2-.1-.5-.1-.8-.1-3.4 1.3-6.9 2.6-10.3 3.6-.4.1-.7.5-.6.9.4 3.4 1 6.9 1.5 10.2.3 1.6.5 3.1.7 4.7.1.4.4.7.8.7h.1c.5-.1.8-.5.7-1-.2-1.6-.5-3.1-.7-4.7-.5-3.1-1-6.3-1.4-9.4 3-.9 5.9-2 8.8-3.1.7 5.7 1.5 11.4 2.1 15.7.1.5.5.8 1 .7.5-.1.8-.5.7-1-.7-4.6-1.5-10.6-2.2-16.7 0-.1-.2-.3-.4-.5zM179.4 209.8c-.1-.4-.4-.8-.9-.7-.7 0-1.4.1-2.2.1-2.2.1-4.5.3-6.7.5-.6.1-1.3.1-1.9.2-.2 0-.4.2-.6.4-.1.2-.2.4-.1.7.6 2.8 1.7 8.8 3 16.8.1.4.4.7.8.7h.1c.5-.1.8-.5.7-1-1.1-7-2.2-12.4-2.9-16 .3 0 .6-.1 1-.1 2.2-.2 4.4-.4 6.6-.5.5 0 .9-.1 1.4-.1.4 2.6.8 5.3 1.2 7.9.4 2.4.8 4.8 1.1 7.2.1.5.5.8 1 .7.5-.1.8-.5.7-1-.3-2.4-.8-4.9-1.2-7.3-.2-2.7-.7-5.7-1.1-8.5zM151.2 234.6c-1.8 0-3.5.7-4.6 1.9-.9 1-1.3 2.4-1.2 3.9.3 2.8 2.6 4.8 5.5 4.8h.7c2.1-.2 3.3-1.4 4-2.3.7-1.1 1.1-2.5 1-3.7-.4-3.2-3-4.6-5.4-4.6zm3 7.3c-.4.6-1.3 1.4-2.7 1.6h-.5c-1.7 0-3.6-1-3.9-3.3-.1-1 .1-1.9.8-2.5.8-.8 2-1.3 3.3-1.3 1.6 0 3.5.8 3.7 3 .1.6-.1 1.6-.7 2.5zM127.9 257.5c-1.4 0-2.8.6-3.7 1.5-.8.9-1.1 1.9-1 3.1.3 2.3 2.1 3.9 4.5 3.9h.6c3-.3 4.2-3.1 4-4.9-.3-2.5-2.5-3.6-4.4-3.6zm.2 6.8h-.4c-1.2 0-2.6-.6-2.8-2.4-.1-.7.1-1.3.5-1.8.6-.6 1.5-1 2.4-1 1.2 0 2.5.6 2.7 2.2.1.9-.4 2.8-2.4 3zM167.1 232.6c-1.8 0-3.5.7-4.6 1.9-.9 1-1.3 2.4-1.2 3.9.3 2.8 2.6 4.8 5.5 4.8h.7c3.8-.4 5.2-3.8 4.9-6-.3-3.2-2.9-4.6-5.3-4.6zm.3 8.8h-.5c-1.7 0-3.6-1-3.9-3.3-.1-1 .1-1.9.8-2.5.8-.8 2-1.3 3.3-1.3 1.6 0 3.5.8 3.7 3 .2 1.5-.8 3.9-3.4 4.1zM181.9 230.1c-1.8 0-3.5.7-4.6 1.9-.9 1-1.3 2.4-1.2 3.9.3 2.8 2.6 4.8 5.5 4.8h.7c2.1-.2 3.3-1.4 4-2.3.7-1.1 1.1-2.5 1-3.7-.3-3.2-3-4.6-5.4-4.6zm3 7.2c-.4.6-1.3 1.4-2.7 1.6h-.5c-1.7 0-3.6-1-3.9-3.3-.1-1 .1-1.9.8-2.5.8-.8 2-1.3 3.3-1.3 1.6 0 3.5.8 3.7 3 .1.6-.1 1.6-.7 2.5z"/>
      <path fill="#fff" d="M137.7 264.1c-.4-.2-.9 0-1.1.5-.2.4 0 .9.5 1.1.7.3 1.1 1.2 1.1 1.9.1.5-.2 1.2-.8 1.5-.8.4-2.1 0-3.5-1.2-1-.9-2.2-2.2-3.6-3.8-.3-.4-.8-.4-1.2-.1-.4.3-.4.8-.1 1.2 1.4 1.7 2.7 3 3.8 3.9 1.6 1.4 2.9 1.8 3.9 1.8.7 0 1.2-.2 1.5-.4 1.2-.6 1.9-1.9 1.7-3.2-.2-1.2-.8-2.6-2.2-3.2zM125.7 258.1c-1.1-1.5-1.5-2.1-1.8-2.3-.3-.3-.8-.3-1.1 0-.3.3-.4.7-.2 1.1.2.4.9 1.3 2 2.8.2.2.4.3.7.3.2 0 .4-.1.5-.2.4-.3.5-.8.2-1.2l-.3-.5z"/>
      <path fill="#fff" d="M130.1 264.3c-.3-.4-.8-.5-1.2-.2-.4.3-.5.8-.2 1.2 1.2 1.8 2.2 3.1 2.8 4.2.6 1 1.2 2.4.8 3.3-.1.2-.3.6-1.2.9-.7.2-1.4.1-2.1-.3-.8-.5-1.4-1.4-1.7-2.6-.1-.5-.6-.7-1-.6-.5.1-.7.6-.6 1 .5 2.1 1.6 3.2 2.4 3.7.7.4 1.5.6 2.3.6.4 0 .7 0 1.1-.1 1.5-.4 2.1-1.2 2.4-1.9.7-1.8-.4-4-.9-4.8-.7-1.2-1.7-2.6-2.9-4.4z"/>
    </g>
    <g>
      <path fill="#fff" d="M.9 392c5.9-14 12.5-24.1 20.8-31.9.2-.2.3-.6.2-.9-.1-.3-.4-.5-.7-.6-5.9-.4-13-.6-21.1-.9v1.7c7.2.2 13.6.4 19.1.8-7.5 7.4-13.6 16.9-19.1 29.5v2.8h.1c.2 0 .5-.2.7-.5z"/>
      <path fill="#fff" d="M3.6 368.8c0-1.1-.4-2.1-1.1-2.9-.6-.6-1.5-1.1-2.5-1.3v1.8c.5.1 1 .4 1.3.7.4.4.6 1 .6 1.7 0 1.4-.9 2.2-1.9 2.5v1.8c2.1-.4 3.6-2.1 3.6-4.3z"/>
      <path fill="#fff" d="M3.4 362.5c-.3-.2-.8-.2-1.1.1-.3.3-.6.9-1.6 2.5l-.3.5c-.2.4-.1.9.3 1.2.1.1.3.1.4.1.3 0 .6-.1.7-.4 1.1-1.8 1.6-2.6 1.7-3 .4-.4.3-.8-.1-1zM2 378c.1-.5-.3-.9-.7-1-.5-.1-.9.3-1 .7l-.3 1.2v2.9c.8-.5 1.7-1.7 2-3.8z"/>
    </g>
    <g>
      <path fill="#fff" d="M449.5 390.8c-16.7-1.5-37.8-2.3-56.5-3.1-7.3-.3-14.2-.5-20.2-.8-1.9-7.3-3.8-12.9-5.6-17.8-1.8-5-3.3-9.4-4.2-14.2 1.5.1 2.9.2 4.1.3 33.6 2.8 59.7 3.6 78.8 4.2 1.4 0 2.8.1 4.1.1v-1.7c-1.3 0-2.7-.1-4.1-.1-19.1-.6-45.2-1.4-78.7-4.2-1.5-.1-3.2-.2-5.2-.3-.3 0-.5.1-.7.3-.2.2-.2.5-.2.7.9 5.3 2.6 10.1 4.5 15.5 1.8 5 3.8 10.7 5.7 18.3.1.4.4.6.8.6 6.2.3 13.4.6 20.9.9 18.9.7 40.3 1.5 57.1 3.1v-2.8c-.3.3-.4.6-.6 1z"/>
      <path fill="#fff" d="M436.1 340.4c-10.3-.4-20.8-1.2-31-2.1-8.4-.7-17.1-1.4-25.7-1.8-.2 0-.5.1-.6.2-.2.2-.3.4-.3.6 0 2.9 0 7.7-.1 15.3v2.5c0 .5.4.9.8.9.5 0 .9-.4.9-.8v-2.5c.1-6.9.1-11.5.1-14.5 8.2.4 16.6 1.1 24.7 1.8 9.9.8 20.1 1.6 30.2 2-.1 3.5-.2 7.2-.3 11.1v5c0 .5.4.9.8.9.5 0 .8-.4.8-.8v-5c.1-4.2.1-8.1.3-11.9.2-.5-.2-.9-.6-.9z"/>
      <path fill="#fff" d="M425.7 324.9c-3.6-.7-7.1-1.7-10.6-2.6h-.1c-.3-.1-.5 0-.7.1-.2.2-.3.4-.3.7-.1 6.1-.4 12.2-.6 16.9 0 .5.3.9.8.9s.9-.3.9-.8c.2-4.4.5-10.1.6-15.8 3 .8 6 1.6 9.1 2.2-.1 3.2-.3 6.4-.5 9.5-.1 1.6-.2 3.2-.3 4.7 0 .5.3.9.8.9.4 0 .8-.3.8-.8.1-1.6.2-3.1.3-4.7.2-3.4.4-6.9.5-10.3 0-.5-.3-.8-.7-.9zM404.2 321.2c-.6 0-1.3 0-1.9-.1-2.2 0-4.5.1-6.7.1-.7 0-1.4.1-2.1.1-.5 0-.8.4-.8.8-.1 2.9-.3 5.9-.5 8.7-.2 2.4-.3 4.9-.4 7.4 0 .5.3.9.8.9s.9-.3.9-.8c.1-2.4.3-4.9.4-7.3.2-2.6.4-5.3.5-8h1.4c2.2-.1 4.4-.2 6.6-.1h1c-.3 3.2-.8 8.8-1.3 16.2 0 .5.3.9.8.9h.1c.4 0 .8-.3.8-.8.5-8.1 1.1-14.1 1.4-17 0-.2 0-.5-.2-.6-.4-.3-.6-.4-.8-.4zM423.8 344.1c-2.8 0-5.6 1.7-5.6 5.1 0 2.2 1.7 5.4 5.5 5.5h.1c3.3 0 5.6-2.2 5.7-5.3 0-1.4-.5-2.6-1.4-3.6-1.1-1.1-2.7-1.7-4.3-1.7zm-.1 8.9v.8-.8c-2.7 0-3.9-2.3-3.9-3.8 0-2.3 2-3.4 3.9-3.4 1.2 0 2.3.4 3.1 1.2.6.6.9 1.4.9 2.3 0 2.5-2.1 3.7-4 3.7zM449 371.4v.8-.8c-1.1 0-1.8-.5-2.1-1-.5-.6-.7-1.3-.7-1.8 0-1.7 1.4-2.4 2.8-2.4.3 0 .6.1.9.1v-1.8c-.3-.1-.6-.1-.9-.1-2.2 0-4.5 1.4-4.5 4.1 0 1 .4 2.1 1.1 2.9.8 1 2 1.5 3.4 1.6h.1c.3 0 .7 0 1-.1v-1.8c-.4.3-.8.3-1.1.3zM407.7 343.6c-2.8 0-5.6 1.7-5.6 5.1 0 1.2.5 2.5 1.3 3.6.7.9 2 1.9 4.2 1.9h.1c3.3 0 5.6-2.2 5.7-5.3 0-1.4-.5-2.6-1.4-3.6-1-1.1-2.6-1.7-4.3-1.7zm0 8.9v.8-.8c-1.5 0-2.4-.7-2.9-1.3-.7-.8-.9-1.8-.9-2.4 0-2.3 2-3.4 3.9-3.4 1.2 0 2.3.4 3.1 1.2.6.6.9 1.4.9 2.3-.1 2.4-2.2 3.6-4.1 3.6zM392.8 342.5c-2.8 0-5.6 1.7-5.6 5.1 0 2.2 1.7 5.4 5.5 5.5h.1c3.3 0 5.6-2.2 5.7-5.3 0-1.4-.5-2.6-1.4-3.6-1.1-1.1-2.7-1.7-4.3-1.7zm-.1 8.9v.8-.8c-2.7 0-3.9-2.3-3.9-3.8 0-2.3 2-3.4 3.9-3.4 1.2 0 2.3.4 3.1 1.2.6.6.9 1.4.9 2.3 0 2.5-2.1 3.7-4 3.7z"/>
      <path fill="#fff" d="M446.7 371.5c-1.2 1.7-2.3 3.1-3.2 4.1-1.2 1.3-2.5 1.9-3.3 1.5-.6-.3-1-.9-1-1.5 0-.7.3-1.6 1-2 .4-.2.6-.7.4-1.1-.2-.4-.7-.6-1.1-.4-1.4.7-1.9 2.2-1.9 3.5 0 1.3.8 2.6 2 3.1.3.1.7.2 1.2.2 1 0 2.4-.5 4-2.2 1-1.1 2.1-2.5 3.4-4.3.3-.4.2-.9-.2-1.2-.5-.2-1-.1-1.3.3z"/>
      <path fill="#fff" d="M448.9 380.6c-.6.4-1.3.6-2 .5-1-.2-1.2-.6-1.3-.8-.4-.8 0-2.3.5-3.3.6-1.1 1.3-2.6 2.4-4.5.2-.4.1-.9-.3-1.2-.4-.2-.9-.1-1.2.3-1.1 1.9-1.9 3.4-2.5 4.6-.4.9-1.3 3.2-.5 4.9.3.6 1 1.4 2.6 1.6.2 0 .5.1.7.1.9 0 1.9-.3 2.6-.9l.1-.1V379c-.2.7-.6 1.2-1.1 1.6z"/>
    </g>
    <g>
      <path fill="#fff" d="M378.1 48.7c-6.7-1.8-14.9-3.8-24.5-6.1-18.6-4.4-44-10.5-76.2-20-1.5-.4-3.1-.9-5.1-1.4-.2-.1-.5 0-.7.1-.2.2-.3.4-.3.7-.2 5.4.5 10.4 1.3 16.1.7 5.3 1.5 11.3 1.9 19 0 .4.3.7.6.8 6.1 1.6 13 3.3 20.3 5.1 18.4 4.5 39.2 9.6 55.3 14.6h.2c.3 0 .5-.1.7-.4 8.6-12.5 17.1-21.1 26.8-27 .3-.2.4-.5.4-.8-.1-.4-.4-.6-.7-.7zm-27.6 27.1c-16-4.9-36.6-9.9-54.8-14.4-7.1-1.7-13.8-3.4-19.7-4.9-.4-7.6-1.2-13.4-1.9-18.6-.7-5.3-1.3-9.9-1.3-14.8 1.5.4 2.8.7 4 1.1 32.3 9.5 57.8 15.6 76.3 20 8.7 2.1 16.3 3.9 22.6 5.6-9 6-17.1 14.3-25.2 26z"/>
      <path fill="#fff" d="M347.5 23.7c-10-2.5-20.1-5.4-29.9-8.3-8.1-2.4-16.5-4.8-24.8-7-.2-.1-.5 0-.7.1-.2.1-.3.3-.4.6-.6 2.9-1.5 7.6-3.2 15-.2.8-.4 1.6-.5 2.5-.1.5.2.9.6 1 .4.1.9-.2 1-.6.2-.8.4-1.6.5-2.5 1.5-6.7 2.4-11.2 3-14.2 8 2.1 16.1 4.5 23.9 6.7 9.5 2.8 19.4 5.7 29.2 8.1-.8 3.4-1.6 6.9-2.5 10.8-.4 1.6-.7 3.2-1.1 4.9-.1.5.2.9.7 1h.2c.4 0 .7-.3.8-.7.3-1.6.7-3.2 1-4.9.9-4.2 1.8-8 2.7-11.6.2-.3-.1-.8-.5-.9z"/>
      <path fill="#fff" d="M340.4 6.4c-3.4-1.4-6.7-3.1-10-4.7-.2-.1-.5-.1-.7 0-.2.1-.4.3-.5.6-1.3 6-2.8 11.9-4 16.4-.1.5.2.9.6 1 .4.1.9-.2 1-.6 1.1-4.2 2.5-9.7 3.8-15.4 2.8 1.4 5.6 2.8 8.5 4-.8 3.1-1.6 6.2-2.4 9.2-.4 1.5-.8 3-1.2 4.6-.1.5.1.9.6 1h.2c.4 0 .7-.3.8-.6.4-1.5.8-3 1.2-4.6.9-3.3 1.8-6.6 2.6-10 .1-.3-.1-.7-.5-.9zM314.3 15.4c-.1.5.1.9.6 1h.2c.4 0 .7-.2.8-.6 2-7.4 3.7-12.9 4.6-15.9h-1.8c-.9 3.1-2.5 8.5-4.4 15.5zM304.4 12.6c-.1.5.2.9.6 1 .5.1.9-.2 1-.6.6-2.4 1.3-4.8 1.9-7.1.5-1.9 1.1-3.9 1.6-5.9h-1.8c-.5 1.8-1 3.7-1.5 5.4-.5 2.4-1.2 4.8-1.8 7.2zM333.3 24.7c-2.6 0-4.6 1.5-5.2 4-.5 2.1.6 5.7 4.3 6.5.5.1.9.2 1.4.2 2.7 0 4.8-1.7 5.3-4.2.3-1.6 0-3-.9-4.2-1.1-1.5-3-2.3-4.9-2.3zm4.2 6c-.5 2.1-2.2 2.9-3.7 2.9-.3 0-.7 0-1-.1-2.6-.6-3.3-3-3-4.5.5-2.5 2.8-2.6 3.5-2.6 1.4 0 2.8.6 3.6 1.6.6.8.8 1.7.6 2.7zM354.2 49.9c-2.1 0-3.7 1.2-4.2 3.2-.4 1.7.5 4.6 3.4 5.2.4.1.7.1 1.1.1 2.2 0 3.9-1.3 4.3-3.4.3-1.3 0-2.4-.8-3.4-.7-1-2.3-1.7-3.8-1.7zm3 4.8c-.3 1.5-1.6 2.1-2.7 2.1-.2 0-.5 0-.8-.1-2-.4-2.3-2.4-2.1-3.2.4-1.7 1.9-1.9 2.5-1.9 1 0 2.1.5 2.6 1.2.6.5.7 1.2.5 1.9zM317.7 21c-2.6 0-4.6 1.5-5.2 4-.5 2.1.6 5.7 4.3 6.5.5.1.9.2 1.4.2 2.7 0 4.8-1.7 5.3-4.2.3-1.6 0-3-.9-4.2-1.1-1.4-3-2.3-4.9-2.3zm4.2 6c-.5 2.1-2.2 2.9-3.7 2.9-.3 0-.7 0-1-.1-2.6-.6-3.3-3-3-4.5.5-2.5 2.8-2.6 3.5-2.6 1.4 0 2.8.6 3.6 1.6.6.8.8 1.7.6 2.7zM303.3 16.9c-2.6 0-4.6 1.5-5.2 4-.5 2.1.6 5.7 4.3 6.5.5.1.9.2 1.4.2 2.7 0 4.8-1.7 5.3-4.2.3-1.6 0-3-.9-4.2-1.1-1.4-3-2.3-4.9-2.3zm4.1 6c-.5 2.1-2.2 2.9-3.7 2.9-.3 0-.7 0-1-.1-2.6-.6-3.3-3-3-4.5.5-2.5 2.8-2.6 3.5-2.6 1.4 0 2.8.6 3.6 1.6.7.8.9 1.7.6 2.7z"/>
      <path fill="#fff" d="M351.6 56.3c-1.5 1.4-2.8 2.6-3.9 3.4-1.5 1-2.8 1.3-3.6.8-.6-.4-.8-1.1-.7-1.6.1-.7.6-1.5 1.3-1.7.5-.1.7-.6.6-1-.1-.5-.6-.7-1-.6-1.5.4-2.3 1.8-2.5 3-.3 1.3.3 2.7 1.4 3.4.4.3 1 .5 1.9.5.9 0 2.1-.3 3.6-1.4 1.2-.8 2.6-2 4.2-3.5.3-.3.3-.9 0-1.2-.4-.4-.9-.4-1.3-.1zM358.9 48.7c-.3.2-.8.8-2 2.1l-.4.5c-.3.3-.3.9.1 1.2.2.2.4.2.6.2.2 0 .5-.1.6-.3 1.4-1.5 2.1-2.2 2.3-2.6.2-.3.2-.8-.1-1.1-.3-.2-.7-.2-1.1 0z"/>
      <g>
        <path fill="#fff" d="M354.9 62.7c-.4-.2-.9.1-1.1.5-.4 1.2-1.1 2-1.9 2.4-.7.3-1.4.3-2.1.1-1-.4-1.1-.8-1.1-1-.3-.9.5-2.3 1.1-3.2.8-1 1.9-2.3 3.3-3.9.3-.4.3-.9-.1-1.2-.4-.3-.9-.3-1.2.1-1.4 1.6-2.5 2.9-3.3 4-.6.8-2 2.8-1.4 4.7.2.7.7 1.6 2.2 2.1.5.2 1 .3 1.5.3.6 0 1.3-.1 1.9-.4.9-.4 2.1-1.4 2.8-3.4.1-.5-.1-1-.6-1.1z"/>
      </g>
    </g>
    <g>
      <path fill="#fff" d="M150.2 26.8c.7 2.4 2 5 3.7 7.9.2.3.4.4.7.4h.3c8.1-2.7 15.2-5.1 22-7.4.2-.1.4-.2.5-.4.1-.2.1-.4 0-.6-.1-.3-.2-.6-.3-.8-2.2-7.1-1.3-15.7 7.6-18.5 1.1-.3 2.2-.5 3.3-.5 5.2 0 9.9 4.2 12.8 11.6.2.4.6.6 1.1.5l11.6-4.2c.2-.1.4-.2.5-.5.1-.2.1-.5 0-.7-.6-1.4-1.1-2.8-1.5-4-1-3.2-1.2-6.7-.4-9.6h-1.8c-.8 3.1-.5 6.8.5 10.1.3 1 .7 2.2 1.2 3.3L202 17c-3.2-7.6-8.3-11.9-14.1-11.9-1.2 0-2.5.2-3.8.6-6.6 2-12.4 8.5-8.7 20.6v.1c-6.3 2.2-13 4.4-20.5 6.9-1.4-2.5-2.5-4.9-3.2-6.9-3.8-12.4 3.4-22.1 12-26.3h-3.5c-10.4 6.5-12.7 18-10 26.7zM235.2 5.1c-.9-2-1.8-3.7-2.7-5.1h-2.1c1.3 1.8 2.5 4 3.5 6.5.2.4.6.6 1.1.5 5.2-1.9 11-3.9 17.5-6.2.4-.1.6-.5.6-.8h-3.3c-5.3 1.9-10.2 3.6-14.6 5.1z"/>
      <path fill="#fff" d="M187.8 8.8c-.9 0-1.9.1-2.8.4-2.8.9-5.1 2.8-6.3 5.4-1.2 2.5-1.3 5.4-.5 8.2 1.7 5.6 6 9.2 10.9 9.2 1.1 0 2.3-.2 3.5-.5 5.8-1.8 8.1-6.9 6.1-13.5-1.6-5.4-6.1-9.2-10.9-9.2zm4.3 21c-1 .3-2 .5-3 .5-5 0-8.1-4.1-9.2-8-.7-2.4-.6-4.9.4-7 1-2.2 2.8-3.8 5.2-4.5.8-.2 1.5-.3 2.3-.3 4.1 0 7.9 3.3 9.3 8 1.7 5.6-.2 9.8-5 11.3zM214 8.7c1.7 5.5 5.3 8.8 9.6 8.8 1.1 0 2.2-.2 3.2-.6 4.4-1.7 6-6.5 4.1-12.5-.5-1.6-1.3-3.1-2.4-4.4h-2.3c1.4 1.3 2.5 3 3 4.9 1.6 5.2.4 9.1-3.1 10.4-.9.3-1.7.5-2.6.5-3.5 0-6.5-2.8-8-7.6-.9-2.8-.8-6 .4-8.2H214c-.9 2.5-.8 5.8 0 8.7z"/>
      <path fill="#fff" d="M188 12.5c-.7 0-1.4.1-2.1.4-2.7 1.2-4.7 4.4-3.5 8.4 1.5 4.9 5.1 5.5 6.6 5.5.6 0 1.3-.1 1.8-.3 2.9-.9 5.2-4.1 3.9-8.4-1.1-3.9-4.2-5.6-6.7-5.6zm2.4 12.4c-.4.1-.9.2-1.3.2-1.4 0-3.9-.6-5-4.3-1-3.2.6-5.5 2.5-6.4.4-.2.9-.3 1.4-.3 1.9 0 4.2 1.4 5.1 4.4 1.1 3.4-.6 5.8-2.7 6.4zM218.1 1c-1.2 1.5-1.5 3.7-.9 6.2.8 3.3 3.3 4.8 5.5 4.8.8 0 1.5-.2 2.2-.5 1.3-.7 2.2-1.9 2.5-3.4.4-2-.2-4.5-1.7-6.3-.7-.8-1.3-1.4-2.1-1.8h-4.4c-.4.3-.8.6-1.1 1zm3.2.1c1 0 2.1.6 3 1.7 1.2 1.5 1.7 3.4 1.4 4.9-.2 1-.8 1.8-1.6 2.2-.4.2-.9.3-1.4.3-1.5 0-3.3-1.1-3.9-3.5-.5-2-.2-3.7.6-4.7.5-.6 1.2-.9 1.9-.9zM150.4 25.8c-.7.7-1.2 1.4-1.5 1.9-.3-.9-.6-2.3-1-4-.3-1.3-.6-2.4-.9-3.2-.1-.2-.1-.4-.2-.6.1.1.2.1.4.2.6.4 1.4.8 2.4 1.3.4.2.9.1 1.1-.4.2-.4.1-.9-.4-1.1-1-.5-1.8-1-2.4-1.3-1.4-.8-2.1-1.2-2.7-.7-.6.5-.4 1.2.1 3 .2.8.5 1.8.8 3.1 1.2 4.9 1.4 5.7 2.4 5.9h.2c.6 0 1-.6 1.4-1.2.3-.5.8-1.2 1.4-1.8.3-.3.4-.9 0-1.2-.2-.2-.8-.2-1.1.1zM142.9 28.4c-.3.2-.8.6-1.3 1-2.3 1.6-5.8 4-4.9 6.8.3 1.1 1.5 1.7 2.7 1.7.3 0 .7 0 1-.1.3-.1.6-.3.8-.5.3-.4.3-.9-.1-1.2-.4-.3-.9-.3-1.2.1-.6.2-1.4 0-1.5-.4-.5-1.6 2.5-3.7 4.2-4.9.6-.4 1.1-.8 1.5-1.1.4-.3.4-.8.1-1.2-.4-.5-1-.5-1.3-.2zM143.9 24.9c-2.5-1.3-5.6-1.6-7.9-.9-.8.2-1.8.8-2.4 1.4-1 .8-1.4 1.8-1.1 2.6.2.5.6 1 1.2 1.2.3.1.7.2 1 .2.2 0 .4 0 .5-.1.1 0 .2-.1.3-.1.4-.2.6-.7.4-1.1-.2-.4-.7-.6-1.1-.4-.2 0-.5-.1-.6-.2 0-.4 1.1-1.4 2.4-1.8 2.2-.7 4.9-.1 6.6.8.4.2.9 0 1.1-.4.2-.5 0-1-.4-1.2zM141.3 20.6c-3.3-1.6-6.8-3.2-10.5-3.2-.5 0-.9.4-.9.8 0 .5.4.9.8.9 3.3 0 6.7 1.5 9.8 3 .1.1.2.1.4.1.3 0 .6-.2.8-.5.2-.4.1-.9-.4-1.1zM175 21.1c-5.9 2.4-17.4 6.4-23.4 6.4-.5 0-.8.4-.8.9s.4.8.9.8c5.8 0 16.6-3.5 24-6.6.4-.2.6-.7.5-1.1-.2-.4-.7-.6-1.2-.4zM211.2 8.6c-4 1.5-8 2.9-12 4.4-.4.2-.7.6-.5 1.1.1.3.5.6.8.6h.3c4-1.4 8.1-2.9 12.1-4.4.4-.2.7-.7.5-1.1-.2-.5-.7-.7-1.2-.6z"/>
      <g>
        <path fill="#fff" d="M231.6 1.6c.1.4.4.6.8.6h.2c2.1-.7 4.4-1.4 6.6-2.2h-5.4c-.6.2-1.1.4-1.7.5-.4.2-.7.6-.5 1.1z"/>
      </g>
    </g>
    <g>
      <path fill="#fff" d="M251.6 443.3c-5.5-17.9-16.8-23.8-33.4-17.2-5.6-8.9-14.6-14.2-24.4-14.2-2.9 0-5.8.4-8.7 1.3-14 4.3-26.9 15.7-21.3 34.9-1.3.6-2.4 1.2-3.5 1.9h3.5c.4-.2.9-.4 1.3-.6.4-.2.6-.7.5-1.1l-.1-.2c-1.8-5.8-5.6-25.5 20-33.3 2.7-.8 5.5-1.3 8.2-1.3 9.4 0 18.1 5.2 23.3 14 .2.4.7.5 1.1.4 4.5-1.8 8.5-2.8 12.1-2.8 9.4 0 15.8 6.1 19.7 18.7.5 1.8 1 3.7 1.4 5.7-.5.2-1 .3-1.5.5h3.3v-.1c-.4-2.3-.9-4.5-1.5-6.6z"/>
      <path fill="#fff" d="M220.4 442.1c-1.1 0-2.3.2-3.4.5-3.3 1-5.6 3.4-6.6 7 0 .1-.1.2-.1.4h1.8c.6-2.1 2-4.7 5.4-5.8.9-.3 1.9-.4 2.9-.4 3.8 0 7.2 2.2 10.1 6.2h2.1c-4.4-6.7-9.4-7.9-12.2-7.9z"/>
      <path fill="#fff" d="M220.4 445.6c-.7 0-1.4.1-2 .3-2.1.6-3.5 2.2-4.2 4.1h1.9c.6-1.2 1.6-2.1 2.9-2.5.5-.1 1-.2 1.5-.2 2 0 4.2 1.1 5.9 2.7h2.3c-2.2-2.7-5.3-4.4-8.3-4.4z"/>
      <path fill="#fff" d="M219.3 450h4.4c-.7-.4-1.5-.6-2.3-.6-.8 0-1.5.2-2.1.6zM258.5 437.4c-.8-2.7-.7-4.2-.6-4.9.4-.6.5-1.1.4-1.4-.2-.4-.7-.7-1.1-.5-.4.1-.7.5-.9 1.2-.7.8-2.8 2.7-8.3 4.9-.4.2-.6.7-.5 1.1.2.4.7.6 1.1.5 3.3-1.4 5.8-2.8 7.4-4 .1 1 .3 2.3.7 3.7l.3.9c-.8-.1-1.8 0-3.1.4-1.4.4-2.8 1.3-4.3 2.5-.4.3-.4.8-.1 1.2.2.2.4.3.6.3.2 0 .4-.1.5-.2 1.2-1 2.5-1.8 3.7-2.1 2.5-.8 3.5 0 3.6.1.3.3.8.3 1.1 0 .3-.3.4-.8.2-1.1.2-.4-.2-1.1-.7-2.6z"/>
      <path fill="#fff" d="M251.5 443.2c-.3-.4-.8-.5-1.2-.2-4.4 3-10.7 5.2-16.5 7h5.4c4.4-1.5 8.7-3.3 12-5.6.5-.3.6-.8.3-1.2zM279.6 429.7c-.1 0-.2 0-.3-.1.2-.7.1-1.4-.1-2.2-.3-1.1-1.6-2-3.2-2.5 1.9-2.3 3-5.3 2.1-8.4-1-3.4-5.1-2.1-6.5-1.7-7 2.1-9.7 9-11.4 15.4-.1.5.1.9.6 1 .4.1.9-.1 1-.6 1.6-6 4-12.3 10.3-14.2 3.8-1.2 4.2 0 4.4.6.8 2.7-.4 5.5-2.4 7.5-1.1-.1-2.3 0-3.5.2-1.6.4-2.8 1.6-3.1 2.5-.2.6 0 1.1.3 1.5.5.5 1.2.6 2.2.2 1.5-.5 3.1-1.4 4.5-2.7 1.5.3 2.7.9 2.9 1.6.2.5.1 1 0 1.5-.9 0-1.9.1-2.7.3-1.9.6-3.3 1.7-3.5 2.8-.1.6 0 1.1.4 1.5.6.6 1.6.6 3.1.2 1.2-.4 2.8-1.4 3.8-3 .1 0 .3.1.4.1.7.2 2 .7 2.3 1.9.9 2.9-2.4 5.1-4.9 5.8-2 .6-7.5.9-9.1-1.2-.4-.5-.6-1.3-.4-1.6.3-.4.2-.9-.2-1.2-.4-.3-.9-.2-1.2.2-.8 1.2-.2 2.9.4 3.6 1.4 1.7 4.2 2.3 6.7 2.3 1.7 0 3.3-.2 4.2-.5 3.8-1.2 7.1-4.3 6-8-.1-1.2-1.3-2.3-3.1-2.8zm-9.9-2.3c-.1 0-.2.1-.3.1.2-.4.8-.9 1.7-1.1.4-.1.7-.1 1.1-.2-.9.6-1.7 1-2.5 1.2zm4.7 5.2c-.7.2-1.1.2-1.3.2.2-.3.9-1 2.3-1.5.4-.1.8-.2 1.2-.2-.7.7-1.5 1.2-2.2 1.5zM303.3 428c.7-1.2.8-2.5.4-4-.8-2.5-2.9-4.3-6-5.2-.8-.2-1.5-.3-2.3-.4 1.4-2.9 2.2-6.3 1.2-9.4-.7-2.2-2.4-3.5-4.5-3.5-3.6 0-8.4 3.8-10.9 12.1-.1.5.1.9.6 1.1.5.1.9-.1 1.1-.6 2.2-7.4 6.3-10.9 9.2-10.9 1.4 0 2.4.8 2.9 2.3.9 3-.1 6.2-1.5 8.8-1.2 0-2.2.2-2.9.4-2.4.7-3.8 2.4-4.1 3.6-.2.7 0 1.4.5 1.8.4.4 1.4.8 3.1.3 1.2-.4 3-2.1 4.4-4.4.9 0 1.8.2 2.7.4 1.8.5 4.1 1.6 4.9 4.1.3 1 .2 1.8-.2 2.5-1.7-.9-3.6-1.2-5-.8-.4.1-1.1.5-1.6.9-.3.2-1.4 1-1.1 2 .2.8 1.1 1.4 2.5 1.6 1 .2 2.1.1 2.8-.1 1.1-.3 2-.8 2.8-1.4 1.1.8 1.8 1.8 2.1 2.8.3.8 0 1.9-.7 2.9-.6.8-1.8 2-4 2.7-5.7 1.8-10.2-1.9-10.8-3.8v-.1c-.1-.5-.6-.7-1-.6-.5.1-.7.6-.6 1v.1c.7 2.3 4.4 5.5 9.4 5.5 1.1 0 2.3-.2 3.6-.5 2.7-.8 4.2-2.3 4.9-3.3 1-1.4 1.3-3 .9-4.4-.5-1.2-1.5-2.5-2.8-3.5zm-13.7-5.1c-1 .3-1.4.2-1.4.1 0 0 0-.2.1-.4.3-.7 1.3-1.7 2.9-2.2.4-.1.8-.2 1.3-.3-1.2 1.6-2.3 2.6-2.9 2.8zm9.4 6.2c-.7.2-2.4 0-3-.3.3-.3 1.1-.8 1.4-.9.9-.3 2.1-.1 3.3.4-.5.4-1.1.6-1.7.8zM180.4 421.8c-.9 0-1.7.2-2.6.5-7.5 2.3-11 10.3-10.6 17.1 0 1.1.2 2.2.5 3.2.6 2 1.6 3.9 4.2 3.9.7 0 1.6-.2 2.6-.5.1 0 11.2-3.5 12.3-4.3 3.1-2.1 2.4-5.3 1.3-8.9-2.3-7.9-4.5-11-7.7-11zm5.6 18.6c-.8.5-9.8 3.4-11.9 4-.9.3-1.6.4-2.1.4-1.1 0-1.8-.4-2.5-2.7-.3-.9-.4-1.8-.4-2.8-.4-5.9 2.8-13.4 9.4-15.4.7-.2 1.4-.4 2.1-.4 1.6 0 3.5 1.2 6.2 9.8.9 3.8 1.1 5.7-.8 7.1z"/>
      <g>
        <path fill="#fff" d="M211.5 425.9c-3.1-5.4-8.8-8.9-14.4-8.9-1.3 0-2.6.2-3.9.6-1.4.4-3.4 1-4.1 3.4-.7 2.2-.2 5.7 1.4 11.2 1.1 3.6 2.3 6.7 6.1 6.7 1.4 0 12.5-3.3 12.6-3.3 4.4-1.3 4.6-3.6 3.7-6.6-.4-1.1-.8-2.1-1.4-3.1zm-2.9 8c-2 .6-11.1 3.2-12.1 3.3-2.4 0-3.3-1.7-4.4-5.5-1.5-5-2-8.4-1.4-10.2.4-1.4 1.4-1.8 3-2.2 1.1-.3 2.2-.5 3.4-.5 5 0 10.2 3.2 13 8 .5.8.9 1.7 1.2 2.6.7 2.5.4 3.5-2.7 4.5z"/>
      </g>
    </g>
    <g>
      <path fill="#fff" d="M435.1 215.2c5.6-19.3-7.3-30.7-21.3-34.9-2.9-.9-5.8-1.3-8.7-1.3-9.8 0-18.9 5.3-24.4 14.2-16.6-6.6-27.9-.7-33.4 17.2-.6 2.1-1.1 4.3-1.5 6.6-.1.4.2.8.6.9 6.5 2.3 12.3 4.3 17.5 6.2.4.2.9-.1 1.1-.5 3.3-8.2 8.1-12.7 13.6-12.7 1 0 1.9.1 2.9.4 3.4 1.1 4.9 3.8 5.4 5.9.8 2.7.6 6.2-.4 9.5-.4 1.2-.9 2.6-1.5 4-.1.2-.1.5 0 .7.1.2.3.4.5.5l11.6 4.2c.4.2.9-.1 1.1-.5 2.9-7.4 7.5-11.6 12.8-11.6 1.1 0 2.2.2 3.3.5 4 1.2 6.6 3.6 7.9 7.2 1.1 3.1 1 7.1-.3 11.3-.1.3-.2.6-.3.8-.1.2-.1.4 0 .6.1.2.3.4.5.4 6.8 2.3 14 4.8 22 7.4h.3c.3 0 .6-.2.7-.4 1.7-2.9 2.9-5.5 3.7-7.9 2.8-9.6-.2-22.6-13.7-28.7zm12 28.2c-.6 2-1.7 4.4-3.2 6.9-7.4-2.5-14.1-4.7-20.5-6.9v-.1c1.4-4.5 1.5-8.8.2-12.3-1.4-4.1-4.5-6.9-9-8.3-1.3-.4-2.6-.6-3.8-.6-5.8 0-10.9 4.3-14.1 11.9l-10-3.6c.5-1.2.9-2.3 1.2-3.3 1.1-3.7 1.3-7.4.4-10.4-1-3.6-3.3-6-6.6-7-1.1-.3-2.2-.5-3.4-.5-3.5 0-10 1.7-14.8 13-4.9-1.7-10.2-3.6-16.1-5.6.4-2 .8-3.9 1.4-5.7 3.8-12.6 10.3-18.7 19.7-18.7 3.6 0 7.7.9 12.1 2.8.4.2.8 0 1.1-.4 5.2-8.7 13.9-14 23.3-14 2.7 0 5.4.4 8.2 1.3 25.6 7.8 21.8 27.5 20 33.3l-.1.2c-.1.4.1.9.5 1 9.3 4 17.4 14 13.5 27z"/>
      <path fill="#fff" d="M413.9 226.3c-.9-.3-1.9-.4-2.8-.4-4.8 0-9.3 3.8-10.9 9.2-2 6.5.4 11.7 6.1 13.5 1.2.4 2.3.5 3.5.5 4.9 0 9.2-3.6 10.9-9.2.9-2.8.7-5.7-.5-8.2-1.2-2.6-3.5-4.6-6.3-5.4zm5.1 13.1c-1.2 3.8-4.2 8-9.2 8-1 0-2-.2-3-.5-4.9-1.5-6.7-5.7-5-11.4 1.4-4.7 5.3-8 9.3-8 .8 0 1.5.1 2.3.3 2.4.7 4.2 2.3 5.2 4.5s1.1 4.7.4 7.1zM380.5 213c-.6-.2-1.3-.3-2-.3-4.4 0-9.1 3.9-10.6 8.8-1.8 6-.3 10.8 4.1 12.5 1.1.4 2.1.6 3.2.6 4.3 0 7.9-3.3 9.6-8.8 1.6-5.2.4-11.4-4.3-12.8zm2.7 12.2c-1.5 4.8-4.4 7.6-8 7.6-.9 0-1.7-.2-2.6-.5-3.5-1.4-4.7-5.2-3.1-10.4 1.3-4.2 5.3-7.6 8.9-7.6.5 0 1.1.1 1.5.2 3.8 1.2 4.6 6.4 3.3 10.7z"/>
      <path fill="#fff" d="M412.9 230c-.6-.3-1.3-.4-2.1-.4-2.5 0-5.6 1.7-6.8 5.6-.6 1.9-.5 3.8.3 5.4.7 1.5 2 2.6 3.6 3 .6.2 1.2.3 1.8.3 1.5 0 5.1-.5 6.6-5.5 1.3-4-.7-7.3-3.4-8.4zm1.9 7.9c-1.1 3.7-3.6 4.3-5 4.3-.5 0-.9-.1-1.3-.2-1.1-.3-2-1.1-2.5-2.2-.6-1.2-.7-2.6-.2-4.1.9-3.1 3.3-4.4 5.1-4.4.5 0 1 .1 1.4.3 1.9.8 3.5 3.1 2.5 6.3zM377.5 216.5c-1.6 0-3.1.8-4.3 2.4-1.5 1.9-2.2 4.3-1.7 6.3.3 1.5 1.2 2.7 2.5 3.4.7.3 1.4.5 2.2.5 2.2 0 4.8-1.5 5.5-4.8.6-2.5.2-4.7-.9-6.2-.8-1.1-2-1.6-3.3-1.6zm2.6 7.4c-.7 3.2-3.6 4-5.3 3.2-.9-.5-1.4-1.2-1.6-2.2-.3-1.5.2-3.5 1.4-4.9.9-1.1 2-1.7 3-1.7.8 0 1.4.3 1.9 1 .8.9 1 2.6.6 4.6zM350.8 203.7c-5.5-2.3-7.5-4.1-8.3-4.9-.2-.7-.5-1.1-.9-1.2-.4-.1-.9.1-1.1.5-.1.4 0 .8.4 1.4.2.7.2 2.3-.6 4.9-.5 1.6-.8 2.2-1 2.4-.2.4-.2.9.2 1.1.3.3.8.2 1.1 0 .2-.2 1.1-.9 3.6-.1 1.2.4 2.4 1.1 3.7 2.1.2.1.4.2.5.2.2 0 .5-.1.6-.3.3-.4.3-.9-.1-1.2-1.4-1.2-2.9-2-4.3-2.5-1.3-.4-2.3-.5-3.1-.4l.3-.9c.4-1.4.7-2.7.7-3.7 1.6 1.2 4.1 2.6 7.4 4 .4.2.9 0 1.1-.5.4-.2.2-.7-.2-.9zM448.1 238.2c.2.4.7.6 1.1.4.2-.1.5-.3.7-.4v-1.9c-.4.2-.9.5-1.5.8-.3.2-.5.7-.3 1.1zM448.5 242.9c-.3-.3-.9-.3-1.2 0-.3.3-.3.9 0 1.2.7.6 1.1 1.3 1.4 1.8.4.6.7 1.1 1.2 1.2v-2.3c-.3-.6-.7-1.2-1.4-1.9z"/>
      <path fill="#fff" d="M447.2 244.6c-6 0-17.5-4.1-23.4-6.4-.4-.2-.9 0-1.1.5-.2.4 0 .9.5 1.1 7.4 3 18.2 6.5 24 6.6.5 0 .8-.4.8-.8.1-.6-.3-1-.8-1zM399.7 230.1c-4-1.4-8.1-2.9-12-4.4-.4-.2-.9.1-1.1.5-.2.4.1.9.5 1.1 4 1.5 8 2.9 12.1 4.4h.3c.4 0 .7-.2.8-.6.1-.4-.2-.9-.6-1zM366.8 217.6c-6.2-1.9-13.3-4.2-18.2-7.6-.4-.3-.9-.2-1.2.2-.3.4-.2.9.2 1.2 5.1 3.5 12.3 5.8 18.7 7.8h.2c.4 0 .7-.2.8-.6.2-.4-.1-.9-.5-1zM327.2 181.9c-1.3-.4-5.4-1.7-6.5 1.7-.9 3 .2 6 2.1 8.4-1.6.5-2.8 1.4-3.2 2.5-.2.8-.2 1.5-.1 2.2-1.7.4-3.2 1.4-3.7 3.1-.6 1.8-.1 3.6 1.4 5.2 1.1 1.2 2.8 2.2 4.6 2.8.9.3 2.5.5 4.2.5 2.5 0 5.4-.5 6.7-2.3.6-.8 1.3-2.5.4-3.6-.3-.4-.8-.5-1.2-.2-.4.3-.5.8-.2 1.2.2.3 0 1.1-.4 1.6-1.6 2.1-7.1 1.8-9.1 1.2-1.5-.5-3-1.3-3.9-2.3-1-1.1-1.4-2.3-1-3.5.3-1 1.4-1.7 2.8-2 1 1.5 2.6 2.6 3.8 3 1.4.4 2.5.4 3.1-.2.4-.4.5-.9.4-1.5-.3-1.2-1.7-2.3-3.5-2.8-.8-.2-1.8-.4-2.7-.3-.1-.5-.1-1 0-1.5.2-.6 1.3-1.3 2.9-1.6 1.4 1.3 3 2.3 4.5 2.7 1 .3 1.8.2 2.2-.2.4-.4.5-.9.3-1.5-.3-1-1.4-2.2-3.1-2.5-1.2-.3-2.4-.3-3.5-.2-1.9-2-3.2-4.8-2.4-7.5.2-.6.5-1.8 4.4-.6 6.2 1.9 8.7 8.2 10.3 14.2.1.5.6.7 1 .6.5-.1.7-.6.6-1-1.5-6.7-4.2-13.5-11.2-15.6zm-3.7 16.5c1.4.4 2.1 1.1 2.3 1.5-.2 0-.6 0-1.3-.2-.7-.2-1.6-.7-2.3-1.5.5 0 .9.1 1.3.2zm4.3-4.9c.9.2 1.4.7 1.7 1.1-.1 0-.2 0-.3-.1-.8-.2-1.6-.7-2.4-1.2.3 0 .7.1 1 .2zM306.8 172.6c-2.2 0-3.9 1.3-4.6 3.5-.9 3.1-.2 6.5 1.2 9.3-3.5.4-7.2 2-8.3 5.6-.4 1.5-.3 2.8.4 4-1.3 1-2.3 2.3-2.7 3.6-.8 2.6 1.2 6.3 5.8 7.7 1.3.4 2.5.5 3.5.5 2.1 0 3.9-.6 5.1-1.2 2.1-1.1 3.8-2.7 4.3-4.3v-.2c.1-.5-.2-.9-.6-1-.5-.1-.9.2-1.1.7-.3.9-1.5 2.3-3.4 3.3-1.6.8-4.2 1.5-7.4.6-3.8-1.2-5.1-4-4.7-5.6.3-1.1 1.1-2.1 2.1-2.8.7.6 1.7 1.1 2.8 1.4.7.2 1.8.2 2.8.1 1.4-.2 2.3-.8 2.5-1.6.3-1-.7-1.7-1.1-2-.5-.4-1.2-.8-1.6-.9-1.6-.5-3.4-.1-5 .8-.4-.7-.5-1.6-.2-2.5 1-3.1 4.6-4.3 7.6-4.5 1.4 2.3 3.2 4 4.4 4.4 1.8.5 2.7.1 3.1-.3.5-.4.7-1.1.5-1.8-.3-1.2-1.7-2.9-4.1-3.6-.8-.2-1.8-.4-2.9-.4-1.4-2.5-2.4-5.8-1.4-8.8.5-1.5 1.5-2.3 2.9-2.3 2.9 0 7 3.4 9.2 10.9.1.4.6.7 1.1.6.5-.1.7-.6.6-1.1-2.4-8.3-7.2-12.1-10.8-12.1zm-5.3 22.4c.3.1 1 .5 1.4.9-.6.3-2.3.5-3 .3-.6-.2-1.2-.5-1.7-.8 1.2-.5 2.4-.7 3.3-.4zm6.2-7.5c1.5.5 2.6 1.4 2.9 2.2.1.3.1.4.1.4-.1.1-.5.2-1.4-.1-.6-.2-1.7-1.2-2.8-2.7.4 0 .9 0 1.2.2zM421 189.4c-.9-.3-1.7-.5-2.6-.5-3.2 0-5.4 3.1-7.8 11-1.1 3.6-1.8 6.8 1.3 8.9 1.2.8 12.2 4.2 12.3 4.3 1 .3 1.9.5 2.6.5 2.6 0 3.5-1.9 4.2-3.9.3-1 .5-2.1.5-3.2.5-6.8-3-14.8-10.5-17.1zm8.9 17c0 1-.2 1.9-.4 2.8-.7 2.3-1.4 2.7-2.5 2.7-.6 0-1.3-.1-2.1-.4-2.1-.6-11-3.5-11.9-4-2-1.3-1.8-3.3-.6-7 2.6-8.7 4.6-9.8 6.2-9.8.6 0 1.3.2 2.1.4 6.4 1.9 9.6 9.3 9.2 15.3z"/>
      <g>
        <path fill="#fff" d="M405.7 184.7c-1.2-.4-2.5-.6-3.9-.6-5.6 0-11.3 3.5-14.4 8.8-.6 1-1.1 2-1.4 3-.4 1.3-.7 2.8-.1 4.1.6 1.1 1.7 1.9 3.8 2.6.1 0 11.1 3.3 12.6 3.3 3.7 0 4.9-3 6.1-6.7 3.5-11.6 1.1-13.3-2.7-14.5zm1.1 14c-1.2 3.8-2.1 5.5-4.4 5.5-1 0-10-2.6-12.1-3.3-1.5-.5-2.4-1-2.8-1.7-.3-.6-.2-1.5.2-2.8.3-.9.7-1.7 1.2-2.6 2.8-4.8 8-8 13-8 1.2 0 2.3.2 3.4.5 2.5.8 4.8 1.5 1.5 12.4z"/>
      </g>
    </g>
    <g>
      <path fill="#fff" d="M.4 247.1c.9-.2 1.1-.9 2.4-5.9.3-1.3.6-2.4.8-3.1.5-1.8.7-2.5.1-3s-1.3-.1-2.7.7c-.3.1-.6.3-.9.5v1.9c.7-.4 1.3-.7 1.7-1 .1-.1.2-.1.4-.2-.1.2-.1.4-.2.6-.2.8-.5 1.9-.9 3.2-.4 1.6-.8 3.1-1 4v-.1 2.3h.2c-.1.1 0 .1.1.1zM7.3 246.4c-.6-.4-1-.7-1.3-1-.4-.3-.9-.3-1.2.1-.3.4-.3.9.1 1.2.4.3.9.7 1.5 1.1 1.8 1.2 4.7 3.3 4.2 4.9-.1.4-.9.6-1.5.5-.3-.4-.8-.4-1.2-.1-.4.3-.4.8-.1 1.2.2.2.5.4.8.5.3.1.7.1 1 .1 1.2 0 2.3-.6 2.7-1.7.8-2.8-2.7-5.2-5-6.8zM15.3 242.5c-.7-.6-1.6-1.1-2.4-1.4-2.3-.7-5.4-.3-7.9.9-.4.2-.6.7-.4 1.1.2.4.7.6 1.1.4 1.7-.9 4.4-1.5 6.6-.8 1.3.4 2.4 1.5 2.4 1.8-.1.1-.4.3-.6.2-.4-.2-.9 0-1.1.4-.2.4 0 .9.4 1.1.1 0 .2.1.3.1.1 0 .3.1.5.1.8 0 1.9-.5 2.2-1.4.2-.8-.1-1.7-1.1-2.5zM18.1 234.4c-3.7 0-7.2 1.6-10.5 3.2-.4.2-.6.7-.4 1.1.1.3.5.5.8.5.1 0 .3 0 .4-.1 3.1-1.5 6.4-3 9.8-3 .5 0 .8-.4.8-.9-.1-.4-.5-.7-.9-.8z"/>
    </g>
    <g>
      <path fill="#fff" d="M308 372.6c-7.7 1.8-14.4 3.3-20.4 4.6-.5.1-.7.6-.6 1 .1.4.4.7.8.7h.2c6-1.3 12.6-2.8 20.4-4.6.5-.1.7-.6.6-1-.1-.5-.6-.8-1-.7z"/>
      <path fill="#fff" d="M338.8 349.5c-7.2-36.4-16.1-36.4-43.3-31.1-53.8 10.6-55.1 14.8-49.3 44 2.6 13 4.3 19.2 7.6 21.4 1.1.7 2.4 1 3.8 1 1.8 0 3.9-.4 6.5-1h.2c.5-.1.8-.5.7-1-.1-.5-.5-.8-1-.7h-.2c-4.4.9-7.1 1.5-9 .2-2.8-1.9-4.5-8.3-6.9-20.4-5.6-28.2-4.4-31.7 48-42 24.8-4.9 34.1-6.7 41.3 29.7.3 1.6.6 3.1.9 4.4 2.1 9.8 2.3 10.6-6.4 12.9-.5.1-.7.6-.6 1 .1.5.6.7 1 .6 10.2-2.6 9.7-5 7.6-14.9-.3-1-.6-2.5-.9-4.1z"/>
      <path fill="#fff" d="M330 325c-6.6 3.5-15.2 6.3-25.8 8.4-5.5 1.1-11.2 1.8-16.8 2.6-5.6.7-11.4 1.5-17 2.6-10.9 2.1-19.1 5.3-25.9 9.8-.4.3-.5.8-.2 1.2.2.2.4.4.7.4.2 0 .3 0 .5-.1 6.6-4.4 14.6-7.4 25.3-9.5 5.5-1.1 11.3-1.9 16.9-2.6 5.6-.7 11.4-1.5 16.9-2.6 10.7-2.1 19.6-5 26.3-8.5.4-.2.6-.7.4-1.1-.4-.7-.9-.8-1.3-.6zM274.6 359c-1.2-3.9-2.5-8-3.4-12.1-.1-.2-.2-.4-.4-.5-.2-.1-.4-.2-.7-.1-3.5.9-7 1.7-10.4 2.5-1.4.3-2.8.6-4.1.9-.2.1-.4.2-.5.4-.1.2-.2.4-.1.7 1.2 4.7 2 9 2.8 13.6.2 1.2.5 2.4.7 3.7 0 .2.2.4.4.6.1.1.3.1.5.1h.2c2.7-.7 5.4-1.4 8.1-2 2.6-.6 5.2-1.2 7.8-1.9.2-.1.4-.2.5-.4.1-.2.1-.4.1-.7-.5-1.7-1-3.3-1.5-4.8zm-7.3 6c-2.4.6-4.8 1.1-7.3 1.8-.2-.9-.3-1.9-.5-2.8-.8-4.3-1.6-8.4-2.6-12.8 1.1-.3 2.2-.5 3.3-.8 3.2-.7 6.4-1.5 9.6-2.3.9 3.8 2.1 7.6 3.2 11.3.4 1.3.8 2.6 1.2 3.8-2.3.7-4.7 1.3-6.9 1.8zM300.8 353c-1.2-3.9-2.5-8-3.4-12.1-.1-.2-.2-.4-.4-.5-.2-.1-.4-.2-.7-.1-3.5.9-7 1.7-10.5 2.5-1.4.3-2.7.6-4.1.9-.2.1-.4.2-.5.4-.1.2-.2.4-.1.7 1.2 4.7 2 9 2.8 13.6.2 1.2.5 2.4.7 3.7 0 .2.2.4.4.6.1.1.3.1.5.1h.2c2.7-.7 5.5-1.4 8.1-2 2.5-.6 5.2-1.2 7.8-1.9.2-.1.4-.2.5-.4.1-.2.1-.4.1-.7-.4-1.6-.9-3.2-1.4-4.8zm-7.3 6.1c-2.4.6-4.8 1.1-7.3 1.8-.2-.9-.3-1.9-.5-2.8-.8-4.3-1.6-8.4-2.6-12.8 1.1-.2 2.2-.5 3.2-.7 3.2-.7 6.5-1.5 9.7-2.3.9 3.8 2.1 7.7 3.2 11.4.4 1.3.8 2.6 1.2 3.8-2.3.5-4.7 1-6.9 1.6zM326.6 346.7c-1.2-3.9-2.5-8-3.4-12.1-.1-.2-.2-.4-.4-.5-.2-.1-.4-.2-.7-.1-3.5.9-7 1.7-10.5 2.5-1.4.3-2.7.6-4.1.9-.2.1-.4.2-.5.4-.1.2-.2.4-.1.7 1.2 4.7 2 9 2.8 13.6.2 1.2.5 2.4.7 3.7 0 .2.2.4.4.6.1.1.3.1.5.1h.2c2.7-.7 5.5-1.4 8.1-2 2.5-.6 5.2-1.2 7.8-1.9.2-.1.4-.2.5-.4.1-.2.1-.4.1-.7-.4-1.7-.9-3.2-1.4-4.8zm-7.4 6c-2.4.6-4.8 1.1-7.3 1.8-.2-.9-.3-1.9-.5-2.8-.8-4.3-1.6-8.4-2.6-12.8 1.1-.2 2.2-.5 3.2-.7 3.2-.7 6.5-1.5 9.7-2.3.9 3.8 2.1 7.6 3.2 11.3.4 1.3.8 2.6 1.2 3.8-2.3.6-4.6 1.2-6.9 1.7zM320.4 357.4c-.8 0-1.7.1-2.5.3-9.7 1.9-11.8 9.6-10.5 16.2 1.2 6.2 6.2 10.4 12.4 10.4 1.1 0 2.3-.1 3.4-.4 7.9-1.8 10.8-9.1 9.6-15.4-1.3-6.6-6.4-11.1-12.4-11.1zm2.4 24.8c-1 .2-2.1.4-3.1.4-5.3 0-9.7-3.6-10.7-9-1.5-7.5 1.9-12.8 9.2-14.2.7-.1 1.5-.2 2.2-.2 5.2 0 9.6 4 10.7 9.7 1.1 5.3-1.4 11.7-8.3 13.3z"/>
      <path fill="#fff" d="M320.3 361.7c-.5 0-1.1.1-1.6.2-2.8.6-5.1 2.3-6.2 4.8-1.1 2.4-1 5.1.3 7.3 1.5 2.5 4.1 4 7.1 4 2.4 0 4.7-1 6.1-2.8 1.1-1.3 2.3-3.7 1.5-7.5-.7-3.6-3.6-6-7.2-6zm4.4 12.4c-1.1 1.4-2.9 2.2-4.8 2.2-2.3 0-4.4-1.2-5.6-3.2-1-1.6-1.1-3.8-.2-5.7.9-2 2.7-3.4 5-3.9.4-.1.9-.1 1.3-.1 2.8 0 5 1.9 5.6 4.6.3 2.5-.1 4.6-1.3 6.1zM276.6 368.4c-.8 0-1.7.1-2.5.3-9.7 1.9-11.8 9.6-10.5 16.2 1.2 6.2 6.2 10.4 12.4 10.4 1.1 0 2.3-.1 3.4-.4 7.9-1.8 10.8-9.1 9.6-15.4-1.3-6.6-6.4-11.1-12.4-11.1zm2.4 24.8c-1 .2-2.1.4-3.1.4-5.3 0-9.7-3.6-10.7-9-1.5-7.5 2-12.8 9.2-14.2.7-.1 1.5-.2 2.2-.2 5.2 0 9.6 4 10.7 9.7 1.1 5.3-1.4 11.7-8.3 13.3z"/>
      <path fill="#fff" d="M276.5 372.7c-.5 0-1.1.1-1.6.2-2.8.6-5.1 2.3-6.2 4.8-1.1 2.4-1 5.1.3 7.3 1.5 2.5 4.1 4 7.1 4 2.4 0 4.7-1 6.1-2.8 1.1-1.3 2.3-3.7 1.5-7.5-.7-3.6-3.6-6-7.2-6zm4.4 12.4c-1.1 1.4-2.9 2.2-4.8 2.2-2.3 0-4.4-1.2-5.6-3.2-1-1.6-1.1-3.8-.2-5.7.9-2 2.7-3.4 5-3.9.4-.1.9-.1 1.3-.1 2.8 0 5 1.9 5.6 4.6.3 2.5-.1 4.6-1.3 6.1zM341.4 340.3c-1.7.2-4.5 4.1-4.9 6.1-.1.5.2.9.6 1 .5.1.9-.2 1-.6.4-1.6 2.3-4 3.2-4.6 1.2 2.7 1.9 9.8 1.5 11.1-1.6-.6-2.6-.3-3.5 0-.2.1-.4.1-.7.2-.5.1-.7.6-.6 1 .1.4.4.6.8.6h.2c.3-.1.5-.1.7-.2.8-.3 1.4-.4 2.5 0 .6.3 1.3.1 1.7-.3 1.9-2.1-.8-12.5-1.4-13.6-.1-.5-.6-.8-1.1-.7zM248.9 372.9c-.8.9-1.5 1.7-1.9 2.2-.4-.7-1.1-2.6-2.1-7.5-.1-.4-.1-.7-.2-1-.2-.8-.4-1.7-.3-1.9.1 0 .7 0 2.8 1.2.4.2.9.1 1.2-.3.2-.4.1-.9-.3-1.2-2-1.2-3.2-1.6-4-1.4-.6.1-.9.4-1.1.7-.5.8-.3 1.8 0 3.2.1.3.1.6.2 1 .1.7.6 2.9 1.1 4.9.7 2.5 1.5 4.2 2.6 4.2h.3c.2 0 .4-.1.5-.3 0 0 1.1-1.3 2.4-2.8.3-.3.3-.9-.1-1.2-.3-.1-.8-.1-1.1.2z"/>
    </g>
    <g>
      <path fill="#fff" d="M32.4 151.6c-7.8 1.8-14.5 3.3-20.4 4.6-.5.1-.7.6-.6 1 .1.4.4.7.8.7h.2c5.9-1.3 12.6-2.8 20.4-4.6.5-.1.7-.6.6-1-.1-.6-.5-.8-1-.7zM48 98.6c6.1 3.6 10.1 12.3 13.6 30.2.3 1.6.6 3.1.9 4.4 2.1 9.8 2.3 10.6-6.4 12.9-.5.1-.7.6-.6 1 .1.5.6.7 1 .6 10.2-2.6 9.7-5 7.6-14.9-.3-1.3-.6-2.8-.9-4.4-3.6-18.4-7.8-27.5-14.4-31.3-6.5-3.8-15.3-2.4-28.9.2-7.7 1.5-14.3 2.9-20 4.2v1.7c5.7-1.4 12.4-2.8 20.3-4.3 13.3-2.5 21.7-3.8 27.8-.3z"/>
      <path fill="#fff" d="M29 114c10.7-2.1 19.6-5 26.3-8.5.4-.2.6-.7.4-1.1-.2-.4-.7-.6-1.1-.4-6.6 3.5-15.2 6.3-25.8 8.4-5.5 1.1-11.2 1.8-16.8 2.6-3.9.5-7.9 1.1-11.8 1.7v1.7c4-.7 8.1-1.2 12-1.7 5.4-.9 11.2-1.6 16.8-2.7zM.5 143.3c.1-.2.1-.4.1-.7-.2-.6-.4-1.2-.5-1.7v2.8l.4-.4zM25.3 132c-1.2-3.9-2.5-8-3.4-12.1-.1-.2-.2-.4-.4-.5-.2-.1-.4-.2-.7-.1-3.5.9-7 1.7-10.5 2.5-1.4.3-2.7.6-4.1.9-.2.1-.4.2-.5.4-.1.2-.2.4-.1.6 1.2 4.7 2 9 2.8 13.6.2 1.2.4 2.4.7 3.7 0 .2.2.4.4.6.1.1.3.1.5.1h.2c2.7-.7 5.4-1.4 8.1-2 2.6-.6 5.2-1.2 7.8-1.9.2-.1.4-.2.5-.4.1-.2.1-.4.1-.7-.4-1.6-.9-3.2-1.4-4.7zm-7.4 6c-2.4.6-4.8 1.1-7.3 1.8-.2-.9-.3-1.9-.5-2.8-.8-4.3-1.6-8.4-2.6-12.9 1.1-.2 2.2-.5 3.2-.7 3.2-.7 6.5-1.5 9.7-2.3.9 3.8 2.1 7.6 3.2 11.3.4 1.3.8 2.6 1.2 3.8-2.3.7-4.6 1.3-6.9 1.8zM51.1 125.6c-1.2-3.9-2.5-8-3.4-12.1-.1-.2-.2-.4-.4-.5-.2-.1-.4-.2-.7-.1-3.5.9-7 1.7-10.5 2.5-1.4.3-2.7.6-4.1.9-.2.1-.4.2-.5.4-.1.2-.2.4-.1.6 1.2 4.7 2 9 2.8 13.6.2 1.2.4 2.4.7 3.7 0 .2.2.4.4.6.1.1.3.1.5.1h.2c2.7-.7 5.4-1.4 8.1-2 2.6-.6 5.2-1.2 7.8-1.9.2-.1.4-.2.5-.4.1-.2.1-.4.1-.7-.5-1.5-1-3.1-1.4-4.7zm-7.4 6.1c-2.4.6-4.8 1.1-7.3 1.8-.2-.9-.3-1.9-.5-2.8-.8-4.3-1.6-8.4-2.6-12.9 1.1-.2 2.2-.5 3.2-.7 3.2-.7 6.5-1.5 9.7-2.3.9 3.8 2.1 7.6 3.2 11.3.4 1.3.8 2.6 1.2 3.8-2.3.7-4.6 1.2-6.9 1.8zM44.9 136.3c-.8 0-1.7.1-2.5.3-9.7 1.9-11.8 9.6-10.5 16.2 1.2 6.2 6.2 10.4 12.4 10.4 1.1 0 2.3-.1 3.4-.4 7.9-1.8 10.8-9.1 9.6-15.4-1.3-6.5-6.4-11.1-12.4-11.1zm2.4 24.8c-1 .2-2.1.4-3.1.4-5.3 0-9.7-3.6-10.7-9-1.5-7.5 1.9-12.8 9.2-14.2.7-.1 1.5-.2 2.2-.2 5.2 0 9.6 4 10.7 9.7 1.1 5.4-1.4 11.7-8.3 13.3z"/>
      <path fill="#fff" d="M44.7 140.6c-.5 0-1.1.1-1.6.2-2.8.6-5.1 2.3-6.2 4.8-1.1 2.4-1 5.1.3 7.3 1.5 2.5 4.1 4 7.1 4 2.4 0 4.7-1 6.1-2.8 1.1-1.3 2.3-3.7 1.5-7.5-.7-3.6-3.6-6-7.2-6zm4.4 12.4c-1.1 1.4-2.9 2.2-4.8 2.2-2.3 0-4.4-1.2-5.6-3.2-1-1.6-1.1-3.8-.2-5.7.9-2 2.7-3.4 5-3.9.4-.1.9-.1 1.3-.1 2.8 0 5 1.9 5.6 4.6.4 2.5 0 4.6-1.3 6.1zM.4 174.2c1.1 0 2.3-.1 3.4-.4 7.9-1.8 10.8-9.1 9.6-15.4-1.3-6.5-6.4-11-12.4-11-.4 0-.7 0-1.1.1v1.7c.4 0 .7-.1 1.1-.1 5.2 0 9.6 4 10.7 9.7 1.1 5.5-1.4 11.8-8.3 13.4-1 .2-2.1.4-3.1.4h-.4v1.7c.2-.1.4-.1.5-.1z"/>
      <path fill="#fff" d="M.5 167.9c2.4 0 4.7-1 6.1-2.8 1.1-1.3 2.3-3.7 1.5-7.5-.7-3.6-3.6-6-7.2-6-.3 0-.6 0-.9.1v1.7c.3 0 .6-.1.9-.1 2.8 0 5 1.9 5.6 4.6.5 2.5.1 4.6-1.2 6.1-1.1 1.4-2.9 2.2-4.8 2.2H0v1.7h.5zM65.8 119.2c-1.7.2-4.5 4.1-4.9 6.1-.1.5.2.9.6 1 .5.1.9-.2 1-.6.4-1.6 2.3-4 3.2-4.6 1.2 2.7 1.9 9.8 1.5 11.1-1.6-.6-2.5-.3-3.5 0-.2.1-.4.1-.7.2-.5.1-.7.6-.6 1 .1.4.4.6.8.6h.2c.3-.1.5-.1.7-.2.8-.3 1.4-.4 2.5 0 .6.3 1.3.1 1.7-.3 1.9-2.1-.8-12.5-1.4-13.6-.1-.5-.5-.7-1.1-.7z"/>
    </g>
    <g>
      <path fill="#fff" d="M420.6 141.4c2.6 13 4.3 19.2 7.6 21.4 1.1.7 2.4 1 3.8 1 1.8 0 3.9-.4 6.5-1h.2c.5-.1.8-.5.7-1-.1-.5-.5-.8-1-.7h-.2c-4.4.9-7.1 1.5-9 .2-2.8-1.9-4.5-8.3-6.9-20.4-4.7-24-4.6-30.1 27.7-37.7v-1.7c-34 8.2-34.3 14.8-29.4 39.9z"/>
      <path fill="#fff" d="M444.8 117.5c-10.9 2.1-19.1 5.3-25.9 9.8-.4.3-.5.8-.2 1.2.2.2.4.4.7.4.2 0 .3 0 .5-.1 6.6-4.4 14.6-7.4 25.3-9.5 1.6-.3 3.2-.6 4.9-.9v-1.7c-1.9.2-3.6.5-5.3.8zM449.1 137.9c-1.2-3.9-2.5-8-3.4-12.1-.1-.2-.2-.4-.4-.5-.2-.1-.4-.2-.7-.1-3.5.9-7 1.7-10.5 2.5-1.4.3-2.7.6-4.1.9-.2.1-.4.2-.5.4-.1.2-.2.4-.1.6 1.2 4.7 2 9 2.8 13.6.2 1.2.5 2.4.7 3.7 0 .2.2.4.4.6.1.1.3.1.5.1h.2c2.7-.7 5.4-1.4 8.1-2 2.6-.6 5.2-1.2 7.8-1.9h.1v-2.8l-.9-3zm-7.4 6c-2.4.6-4.8 1.1-7.3 1.8-.2-.9-.3-1.9-.5-2.8-.8-4.3-1.6-8.4-2.6-12.9 1.1-.3 2.2-.5 3.3-.7 3.2-.7 6.4-1.5 9.7-2.3.9 3.8 2.1 7.6 3.2 11.3.4 1.3.8 2.6 1.2 3.8-2.4.8-4.7 1.3-7 1.8zM439.7 163.5c-1.5-7.5 2-12.8 9.2-14.2.4-.1.8-.1 1.1-.2v-1.7c-.5 0-1 .1-1.5.2-9.7 1.9-11.8 9.6-10.5 16.2 1.2 6.1 6 10.2 12 10.4v-1.7c-5.1-.2-9.3-3.8-10.3-9z"/>
      <path fill="#fff" d="M444.9 163c-1-1.6-1.1-3.8-.2-5.7.9-2 2.7-3.4 5-3.9.1 0 .2 0 .3-.1v-1.7c-.2 0-.4.1-.7.1-2.8.6-5.1 2.3-6.2 4.8-1.1 2.4-1 5.1.3 7.3 1.4 2.4 3.8 3.8 6.6 4v-1.7c-2.1-.1-4-1.3-5.1-3.1zM423.3 151.9c-.8.9-1.5 1.7-1.9 2.2-.4-.7-1.1-2.6-2.1-7.5-.1-.4-.1-.7-.2-1-.2-.8-.4-1.7-.3-1.9.1 0 .7 0 2.8 1.2.4.2.9.1 1.2-.3.2-.4.1-.9-.3-1.2-2-1.2-3.2-1.6-4-1.4-.6.1-.9.4-1.1.7-.5.8-.3 1.8 0 3.2.1.3.1.6.2 1 .1.7.6 2.9 1.1 4.9.7 2.5 1.5 4.2 2.6 4.2h.3c.2 0 .4-.1.5-.3 0 0 1.1-1.3 2.4-2.8.3-.4.3-.9-.1-1.2-.2-.2-.8-.2-1.1.2z"/>
    </g>
    <g>
      <path fill="#fff" d="M101.5 11.1c-2.6 1-5.4 2.8-7.8 4.3-2 1.2-3.8 2.4-5.2 3-1.4.6-2.9.8-4.4 1-1 .1-2 .3-3 .5-.7.1-1.3.2-1.9.5-3.4 1.3-5.1 4.6-4 7.5.9 2.2 2.7 3.5 4.9 3.5.8 0 1.6-.2 2.4-.5 1-.4 2.2-1.1 3.4-1.8 1.4-.8 3.1-1.8 4.6-2.4 1.7-.7 4.1-1.1 6.7-1.5 2.9-.5 6-1 8.6-2 2.1-.8 3.9-2.2 5-3.8 1.3-1.9 1.7-3.9 1-5.7-1.6-3.6-5.1-4.6-10.3-2.6zm7.8 7.4c-1 1.4-2.5 2.5-4.3 3.2-2.4 1-5.4 1.4-8.2 1.9-2.6.4-5.1.8-7 1.6-1.7.7-3.4 1.7-4.9 2.5-1.2.7-2.3 1.4-3.2 1.7-2.2.9-4.2 0-5.1-2.1-.7-1.7.3-4.2 3-5.3.5-.2 1-.3 1.6-.4h.1c1-.2 2-.4 2.9-.5 1.6-.2 3.2-.5 4.8-1.1 1.5-.6 3.5-1.8 5.5-3.1 2.4-1.5 5.1-3.2 7.5-4.2 1.6-.6 2.9-.9 4.1-.9 1.9 0 3.1.8 3.9 2.6.7 1.6 0 3.1-.7 4.1zM61.8 2.3c.5 1.3 1.5 3.1 4 3.1.9 0 2-.2 3.3-.8 2.1-.8 3.7-2.2 5.2-3.4.5-.4 1-.9 1.6-1.3h-2.7c-1.5 1.2-2.9 2.4-4.7 3.1-1.1.4-2 .6-2.7.6-1.2 0-1.9-.6-2.5-2-.2-.4-.3-1-.2-1.7h-1.7c0 .9.1 1.7.4 2.4z"/>
      <path fill="#fff" d="M6 19.7c2.6-.5 5-1 7.2-1.9 4-1.6 7.2-4 10.1-6.1 2.3-1.7 4.4-3.2 6.4-4 3.6-1.4 7.4-.8 11.3-.1 4.6.8 9.4 1.6 14.7-.5 3-1.2 5-2.6 7.4-4.2.4-.3.5-.8.2-1.2-.3-.4-.8-.5-1.2-.2-2.3 1.7-4.2 2.9-7 4-4.8 1.9-9.4 1.1-13.8.4-4.2-.7-8.2-1.4-12.2.2-2.2.9-4.4 2.5-6.8 4.3-2.8 2.1-6 4.4-9.7 5.9-2 .8-4.4 1.3-6.9 1.8-1.9.4-3.8.8-5.7 1.3v1.8c2-.7 4-1.1 6-1.5zM22.7 43.3c3.2-2.9 6.7-7 5.2-10.7-2-5-7-3.5-12.8-1.7-4.4 1.3-9.6 2.9-15.1 2.5v1.7c5.8.5 11.2-1.2 15.6-2.5 6.1-1.9 9.4-2.7 10.7.7.8 2.1-.9 5.3-4.8 8.8-3.4 3.1-8.1 6-12 7.6C6 51 2.8 51.8 0 52v1.7c3.1-.2 6.5-1.1 10.2-2.5 4.1-1.6 9-4.7 12.5-7.9zM22.9 62.8c10.7-10.1 22.9-21.6 39.7-28.3 4.7-1.9 9.6-3.5 14.1-5 .4-.1.7-.6.5-1.1-.1-.4-.6-.7-1.1-.5-4.6 1.5-9.5 3.1-14.2 5-17.1 6.8-29.4 18.4-40.3 28.6C13.8 69 7 75.4 0 78.3v1.8c.1 0 .2-.1.3-.1 7.4-2.9 14.4-9.6 22.6-17.2z"/>
      <path fill="#fff" d="M3.8 23.2c2.7-.5 6-1.1 10.6-3 5.5-2.2 8.9-4.7 11.6-6.7 1.9-1.4 3.6-2.7 5.5-3.4 2.1-.8 4.8-.4 7.9.1 5.1.8 11.4 1.8 19.3-1.8 3-1.4 4.7-2.4 6-3.6.3-.3.4-.9 0-1.2-.3-.3-.9-.4-1.2 0-1.2 1.1-2.7 2-5.6 3.3-7.4 3.4-13.5 2.4-18.4 1.6-3.4-.5-6.3-1-8.8 0-2.1.8-3.9 2.1-5.9 3.7-2.8 2.1-6 4.4-11.2 6.5-4.3 1.8-7.4 2.3-10.2 2.9-1.2.2-2.3.4-3.4.7v1.8c1.2-.4 2.4-.6 3.8-.9zM24.2 34.1c-.7-1.9-3.5-2.1-8.3-.4C8.7 36.3 3.8 36.8 0 36.4v1.7c4 .4 9.1-.2 16.5-2.8 4.5-1.6 5.9-1.1 6.1-.6.7 1.8-5.7 8.9-14.1 12-3.2 1.2-6.1 1.9-8.5 2.1v1.7c2.6-.2 5.7-.9 9.1-2.2 8.3-3.1 16.4-10.7 15.1-14.2z"/>
      <g>
        <path fill="#fff" d="M62.1 31.7c4-1.6 8.3-2.8 12.4-4l1.3-.4c.5-.1.7-.6.6-1-.1-.5-.6-.7-1-.6l-1.3.4c-4.2 1.2-8.5 2.4-12.6 4-17.4 6.9-29.6 18.1-40.4 28-7.4 6.8-14 12.8-21.1 16.6v1.9c7.7-3.8 14.5-10.1 22.3-17.2C32.9 49.6 45 38.5 62.1 31.7z"/>
      </g>
    </g>
    <g>
      <path fill="#fff" d="M84.2 446.5c1.7-.4 3.4-.8 5-1.5 5.2-2.1 8-6.1 6.6-9.5-1-2.5-3.3-3.9-6.2-3.9-1.3 0-2.6.3-3.8.8-2.7 1.1-4.9 3-7 4.9-2.2 1.9-4.4 3.9-7.2 5-.7.3-1.4.5-2.1.8-.7.3-1.4.5-2.1.8-2.5 1-4.3 2.4-5.2 4-.4.7-.6 1.4-.7 2.2h1.7c.1-.4.2-.9.5-1.3.7-1.3 2.2-2.4 4.4-3.3.7-.3 1.4-.5 2.1-.8.7-.3 1.4-.5 2.1-.8 3-1.2 5.4-3.3 7.7-5.3 2.1-1.9 4.1-3.6 6.5-4.6 1.1-.4 2.2-.6 3.2-.6 1.3 0 3.7.4 4.6 2.8 1.1 2.9-2 5.8-5.7 7.3-1.5.6-3.2 1-4.8 1.4-1.6.4-3.3.8-4.9 1.4-2.4.9-4 2.3-5.7 3.7h2.7c1.1-.8 2.2-1.6 3.6-2.1 1.5-.6 3.1-1 4.7-1.4z"/>
    </g>
    <g>
      <path fill="#fff" d="M440.6 30.7c-.4-.2-.9 0-1.1.5-.2.4 0 .9.5 1.1 1.9.8 4.2 1.6 7 2.3 1 .2 2 .4 3 .4v-1.7c-.9-.1-1.8-.2-2.6-.4-2.7-.6-4.9-1.4-6.8-2.2z"/>
      <path fill="#fff" d="M447 20.4c-4.8 1.9-8.7 5.8-10.9 10.9-2.1 4.7-2.4 9.8-.8 13.7 1.9 4.9 5.4 7.8 10.3 8.6.9.2 1.9.2 2.9.2.5 0 1 0 1.5-.1V52c-1.5.1-2.9.1-4.2-.1-4.3-.7-7.3-3.2-9-7.6-1.4-3.4-1.1-8.1.8-12.4 2.1-4.7 5.6-8.3 10-10 .8-.3 1.6-.6 2.4-.8v-1.8c-1 .3-2 .7-3 1.1z"/>
      <path fill="#fff" d="M449.7 78.4c-26.9 10.7-45.4-.1-51.2-14.7-4.1-10.4-1.4-24.3 18.5-32.2 10-4 14.7-2.7 20.2-.4.4.2.9 0 1.1-.5.2-.4 0-.9-.5-1.1-5.7-2.3-10.9-3.7-21.5.4-9.3 3.7-15.8 9.1-19 15.7-2.8 5.8-2.9 12.4-.4 18.6 4.4 11.1 15.7 20.1 32.1 20.1 6.3 0 13.3-1.3 21-4.3v-1.8c-.1.1-.2.2-.3.2z"/>
      <path fill="#fff" d="M447.5 23.2c-7.1 3.1-12.1 13.6-9.5 20 1.9 4.9 5.5 7.3 10.8 7.3h1.2v-1.7c-5.2.4-8.6-1.7-10.4-6.2-.8-2.1-.7-4.8.1-7.5.5.2.9.4 1.3.5 2.6 1.1 5.3 2.2 8.9 2.5v-1.7c-3.2-.3-5.7-1.3-8.3-2.4-.5-.2-.9-.4-1.4-.6 1.6-3.8 4.5-7.2 7.9-8.7.6-.3 1.2-.4 1.8-.6v-1.8c-.7.2-1.5.5-2.4.9z"/>
      <g>
        <path fill="#fff" d="M446.3 76.3c-22.2 8.8-39.7-1.2-45.5-15.7-1.6-4-1-9 1.6-13.6 2.1-3.8 6.5-9.1 15.6-12.6 7.5-3 13-2.1 18-.6.5.1.9-.1 1.1-.6.1-.5-.1-.9-.6-1.1-7.1-2.1-12.7-1.9-19.1.7-9.5 3.8-14.2 9.4-16.4 13.4-2.9 5.1-3.5 10.6-1.7 15.1 3.8 9.5 10.9 15.9 20.7 18.5 3.2.9 6.7 1.3 10.2 1.3 5.6 0 11.4-1.1 16.8-3.2 1-.4 2-.9 3-1.4v-1.9c-1.2.7-2.4 1.3-3.7 1.7z"/>
      </g>
    </g>
    <g>
      <path fill="#fff" d="M438.7 300.4c-1.2-1.1-3.1-1.8-5.5-2.2-2.3-.4-4.9-.5-7.4-.5H423c-2 0-3.5 0-4.6-.2-1.5-.3-2.9-.9-4.3-1.5-.9-.4-1.9-.8-2.9-1.1-.6-.3-1.2-.5-1.9-.6-.5-.1-1-.1-1.4-.1-3 0-5.5 1.8-5.9 4.4-.6 3.2 1.2 5.8 4.6 6.4 1.1.2 2.4.2 3.9.3 1.7 0 3.6.1 5.2.4 1.8.3 4.1 1.3 6.4 2.3 2.8 1.2 5.6 2.4 8.4 2.9.7.1 1.4.2 2.2.2 3.5 0 7.3-1.6 7.9-5.1.2-2.5-.4-4.3-1.9-5.6zm0 5c-.5 2.5-3.5 3.7-6.3 3.7-.6 0-1.3-.1-1.9-.2-2.6-.5-5.3-1.6-8-2.8-2.4-1-4.8-2-6.8-2.4-1.8-.3-3.8-.4-5.5-.4-1.4 0-2.7-.1-3.6-.2-2.4-.4-3.6-2.1-3.2-4.4.3-1.8 2.1-3 4.3-3 .4 0 .7 0 1.1.1.5.1 1.1.3 1.5.5h.1c.9.3 1.9.7 2.8 1.1 1.5.6 3 1.3 4.7 1.6 1.3.2 2.9.3 4.9.3h2.8c2.4 0 5 .1 7.1.4 2.1.4 3.7 1 4.6 1.9 1.3 1 1.7 2.2 1.4 3.8zM435 265.4c-.8-.1-1.7-.2-2.6-.2-2 0-4 .3-5.9.7-2 .3-4 .7-6 .7-1 0-1.9-.1-2.7-.2-.7-.1-1.4-.3-2.2-.5-.7-.2-1.5-.3-2.2-.5-.9-.2-1.8-.3-2.6-.3-4.3 0-6.2 2.3-6.6 4.5-.2 1-.3 2.5.6 3.7.8 1.1 2.2 1.8 4.3 2.1 2 .4 4.2.1 6.3-.1 2-.3 4.2-.5 6.2-.1 1.6.3 3.1.8 4.7 1.3s3.3 1.1 5 1.4c.9.2 1.9.3 2.8.3 4.3 0 7.3-1.8 7.8-4.8.4-2-.2-3.9-1.7-5.4-1.3-1.3-3.1-2.3-5.2-2.6zm5.2 7.7c-.5 2.5-3.5 3.4-6.2 3.4-.8 0-1.7-.1-2.5-.2-1.6-.3-3.2-.8-4.8-1.3-1.6-.5-3.2-1.1-4.9-1.4-.9-.2-1.7-.2-2.7-.2-1.4 0-2.8.2-4.1.4-1.3.2-2.4.3-3.7.3-.7 0-1.4-.1-2.1-.2-1.7-.3-2.8-.8-3.3-1.5-.4-.6-.5-1.3-.3-2.4.5-2.5 3.2-3.7 7.3-2.9.7.1 1.4.3 2.2.5.7.2 1.5.3 2.2.5 1 .2 1.9.3 3 .3 2.2 0 4.3-.4 6.3-.7 2-.3 3.8-.6 5.7-.6.8 0 1.6.1 2.3.2 1.7.3 3.2 1.1 4.2 2.1.9.5 1.7 1.8 1.4 3.7z"/>
      <path fill="#fff" d="M404.9 269c-2.9.2-5.1.3-8.1-.3-5.1-.9-8.6-4-11.9-6.9-3.2-2.8-6.2-5.5-10.5-6.3-2.3-.4-5.1-.2-8 0-3.5.3-7.4.6-11.4-.1-2.1-.4-4.4-1.2-6.8-2.1-2.8-1-5.6-2.1-8.6-2.6-5.1-.9-10.4.3-15.1 3.5-4.2 2.9-7.2 7.1-8 11.2-.9 5.2.5 9.5 4.2 12.8 3.1 2.7 7.7 4.7 13.7 5.7 2.1.4 4.5.6 7 .6 2.7 0 5.4-.2 7.8-.6 4.2-.7 9.4-2.4 10.1-6.3 1-5.3-4.1-6.7-10-8.2-5.1-1.4-11.4-3-16.2-7.7-1.9-1.9-3.4-3.8-4.5-5.4-.3-.4-.8-.5-1.2-.2-.4.3-.5.8-.2 1.2 1.2 1.6 2.7 3.6 4.7 5.6 5.1 4.9 11.6 6.7 16.9 8.1 6.2 1.6 9.4 2.7 8.7 6.3-.4 2.2-3.6 4-8.7 4.9-4.5.8-10.1.8-14.2.1-5.7-1-10-2.8-12.9-5.4-3.3-2.9-4.5-6.6-3.7-11.2.7-3.7 3.4-7.4 7.2-10.1 4.2-2.9 9.1-4 13.8-3.2 2.9.5 5.7 1.6 8.4 2.6 2.5.9 4.8 1.8 7.1 2.2 4.2.8 8.2.4 11.8.2 2.8-.2 5.5-.4 7.6 0 3.8.7 6.7 3.2 9.7 5.9 3.5 3.1 7.1 6.3 12.7 7.3 3.2.6 5.6.5 8.5.3.5 0 .8-.4.8-.9.1-.6-.3-1-.7-1z"/>
      <path fill="#fff" d="M402.8 298.9c-4.7-1.2-9.7-2.3-14.7-3.3-18.1-3.3-34.7 0-49.3 3-10.8 2.2-20.1 4-27.7 2.7-12.7-2.3-22.8-7.6-29.2-15.4-5.8-7-8.1-15.6-6.6-24.1 2-11 11.6-21.4 32.7-17.5 10.6 1.9 13.9 5.5 17.4 10.3.3.4.8.5 1.2.2.4-.3.5-.8.2-1.2-3.6-5-7.3-8.9-18.4-11-9.8-1.8-18.3-.6-24.5 3.3-5.4 3.4-9 9-10.2 15.6-1.6 9 .8 18.1 6.9 25.5 6.7 8.1 17.1 13.6 30.2 16 1.9.3 3.9.5 5.9.5 6.5 0 14-1.5 22.4-3.2 14.5-2.9 30.9-6.2 48.7-3 5 .9 10 2.1 14.6 3.2.5.1.9-.2 1-.6.2-.4-.1-.8-.6-1z"/>
      <path fill="#fff" d="M405 271.6c-1.6.3-3.3.3-6.5-.1-8-1.1-12.7-5.1-16.5-8.3-2.6-2.2-4.8-4.1-7.5-4.6-2.2-.4-4.4-.2-6.9 0-3.5.3-7.4.6-13-.4-4.7-.8-7.6-2-10.2-3-2-.8-3.8-1.5-5.8-1.8-7.7-1.1-17.4 5.1-18.7 12-1.5 8.1 3.5 13.1 15.2 15.5 2.1.4 4.4.6 6.6.6 6.8 0 13.2-1.9 13.8-4.7.4-2-1.9-3.6-6.8-4.7-13.8-3.1-17.2-7.7-20.7-12.6l-.9-1.2c3.3-2.4 7.7-3.8 11.3-3.2 1.9.3 3.5.9 5.5 1.7 2.5 1 5.7 2.2 10.5 3.1 5.8 1.1 10 .7 13.4.4 2.4-.2 4.5-.4 6.5 0 2.2.4 4.3 2.2 6.7 4.2 3.9 3.4 8.8 7.6 17.4 8.7 3.3.4 5.2.5 7 .1.5-.1.8-.5.7-1-.2-.5-.7-.8-1.1-.7zm-56.8 2.1c4.6 1 5.6 2.2 5.5 2.7-.4 1.9-9.5 4.5-18.3 2.7-10.7-2.2-15.1-6.4-13.8-13.5.4-2.3 2-4.5 4.1-6.3l.9 1.2c3.5 4.8 7.2 9.9 21.6 13.2z"/>
      <path fill="#fff" d="M403.3 296.7l-1.3-.4c-4.2-1.2-8.4-2.5-12.8-3.2-18.4-3.3-34.7-.3-49.1 2.4-11.6 2.2-21.5 4-30.7 2.4-23.6-4.3-33.1-22-30.3-37.3 1.6-8.8 12.7-16.1 28.5-13.2 7.9 1.4 12.2 5.2 15.6 9 .3.3.8.4 1.2.1.3-.3.4-.9.1-1.2-5-5.5-9.8-8.3-16.5-9.5-16.8-3.1-28.7 5-30.4 14.6-1.8 10 .9 19.2 7.7 26.7 5.9 6.4 14.6 11 23.9 12.7 2.6.5 5.2.7 7.8.7 7.2 0 14.9-1.4 23.5-3 14.2-2.7 30.3-5.7 48.5-2.4 4.3.8 8.5 2 12.6 3.2l1.3.4c.5.1.9-.1 1.1-.6 0-.8-.2-1.3-.7-1.4z"/>
    </g>
    <g>
      <path fill="#fff" d="M194.7 81.1c-.6-.2-1.3-.3-2-.3-1-.2-2.1-.2-3.1-.3-1.6-.1-3.1-.2-4.5-.7-1.4-.4-3.4-1.5-5.4-2.5-2.6-1.3-5.5-2.9-8.1-3.7-5.3-1.6-8.7-.4-9.9 3.5-.6 1.8-.1 3.8 1.4 5.6 1.3 1.5 3.2 2.8 5.3 3.4 2.7.8 5.8 1.1 8.7 1.3 2.6.2 5 .4 6.7.9 1.6.5 3.3 1.3 4.8 2 1.3.6 2.5 1.2 3.5 1.5.7.2 1.3.3 1.9.3 2.4 0 4.3-1.5 5-3.9.4-1.4.2-2.9-.6-4.3-.6-1.3-2-2.3-3.7-2.8zm2.9 6.7c-.7 2.2-2.6 3.2-4.9 2.5-.9-.3-2.1-.8-3.3-1.4-1.6-.8-3.3-1.6-5.1-2.1-2-.6-4.5-.8-7.1-1-2.9-.2-5.9-.5-8.4-1.2-1.8-.6-3.5-1.6-4.5-2.9-.8-.9-1.6-2.3-1.1-4 .6-2 1.9-3 4.2-3 1 0 2.2.2 3.6.6 2.5.8 5.3 2.3 7.8 3.6 2.1 1.1 4.2 2.2 5.7 2.7 1.6.5 3.3.6 4.9.7 1 .1 2 .1 3 .3h.1c.5 0 1.1.1 1.6.3 1.3.4 2.4 1.2 3 2.2.7.7.8 1.7.5 2.7zM204.3 53.6c-.7-.2-1.5-.4-2.2-.6l-2.1-.6c-2.8-.9-5.2-2.7-7.6-4.4-2.3-1.7-4.6-3.5-7.4-4.3-1-.3-2.1-.5-3.1-.5-3.3 0-5.8 1.7-6.6 4.4-1.1 3.5 2 7.3 7.3 8.9 1.7.5 3.4.8 5.1 1.1 1.7.3 3.2.5 4.8 1 2.2.7 3.9 1.9 5.5 3s3.3 2.3 5.5 3c1.1.3 2 .5 2.9.5 2.8 0 3.8-2 4.2-3.4.5-1.5.2-3.1-.7-4.5-1.1-1.6-3-2.8-5.6-3.6zm4.6 7.5c-.5 1.6-1.2 2.2-2.6 2.2-.6 0-1.5-.1-2.4-.4-1.9-.6-3.4-1.6-5-2.8-1.7-1.2-3.5-2.5-5.9-3.2-1.6-.5-3.4-.8-5-1-1.6-.3-3.3-.5-4.9-1-3.8-1.2-7.1-3.9-6.2-6.8.9-2.9 3.8-3.2 5-3.2.9 0 1.8.1 2.6.4 2.5.8 4.6 2.4 6.9 4.1 2.4 1.8 5 3.7 8.1 4.7.7.2 1.5.4 2.2.6l2.1.6c2.2.7 3.8 1.7 4.6 2.9.8 1.1.7 2.2.5 2.9z"/>
      <path fill="#fff" d="M276.6 74.4c-3-.9-6-1.3-8.9-1.6-2.5-.3-5-.6-7-1.2-3.9-1.2-7.2-3.3-10.2-5.1-2.5-1.5-4.8-3-7.1-3.7-4.2-1.3-8.1-.3-12.2.8-4.3 1.1-8.8 2.2-13.8.7-2.9-.9-4.8-2-7.3-3.5-.4-.2-.9-.1-1.2.3-.2.4-.1.9.3 1.2 2.5 1.5 4.6 2.7 7.7 3.6 5.4 1.7 10.1.5 14.7-.7 3.9-1 7.6-1.9 11.3-.8 2.1.6 4.3 2 6.7 3.5 3 1.9 6.5 4 10.6 5.3 2.2.7 4.7 1 7.3 1.3 2.8.3 5.8.7 8.6 1.6 4.5 1.4 8.3 4.7 10.8 9.2 2.2 4.1 2.9 8.7 1.8 12.3-1.4 4.4-4.2 7.2-8.4 8.2-3.7.9-8.4.5-13.9-1.2-4-1.2-9-3.8-12.6-6.6-4.1-3.2-6.1-6.2-5.4-8.4 1.1-3.5 4.4-2.9 10.6-1.6 5.3 1.2 12 2.7 18.8.6 2.7-.9 4.9-1.9 6.7-2.8.4-.2.6-.7.4-1.1-.2-.4-.7-.6-1.1-.4-1.8.9-3.9 1.9-6.5 2.7-6.3 1.9-12.8.5-17.9-.6-5.9-1.3-11-2.4-12.6 2.7-1.2 3.8 2.6 7.6 6 10.2 3.8 2.9 8.9 5.6 13.1 6.9 3.7 1.1 7.1 1.7 10.1 1.7 1.7 0 3.2-.2 4.7-.5 4.8-1.2 8.1-4.4 9.6-9.4 1.2-4 .5-9-1.9-13.6-2.7-4.9-6.9-8.5-11.8-10z"/>
      <path fill="#fff" d="M307.9 81.6c-10.8-3.3-15.9-1.5-21.4 1.3-.4.2-.6.7-.4 1.1.2.4.7.6 1.1.4 5.3-2.7 9.9-4.3 20.2-1.2 20.5 6.3 24.3 19.9 21 30.6-4.6 15-22.2 27.2-49.9 18.7-7.3-2.2-14.7-8.2-23.3-15.1-11.6-9.3-24.8-19.9-42.4-25.3-4.9-1.5-9.9-2.8-14.6-3.9-.5-.1-.9.2-1 .6-.1.5.2.9.6 1 4.7 1.1 9.6 2.4 14.5 3.8 17.3 5.3 30.3 15.8 41.9 25 8.7 7 16.3 13 23.9 15.4 6.5 2 12.5 2.9 17.9 2.9 18.6 0 30.4-10.5 34.2-22.7 2-6.4 1.3-13-1.9-18.5-3.9-6.3-10.9-11.2-20.4-14.1z"/>
      <path fill="#fff" d="M276.2 77.3c-2-.7-3.8-.9-6-1.1-2.8-.3-5.9-.6-10.5-2-5.4-1.7-8.8-3.8-11.7-5.6-2.1-1.3-4-2.5-6.2-3.2-2.6-.8-5.4-.1-8.8.7-4.8 1.2-10.8 2.6-18.5-.2-3-1.1-4.5-1.8-5.8-2.9-.4-.3-.9-.2-1.2.1-.3.4-.2.9.1 1.2 1.5 1.2 3.2 2 6.3 3.1 8.1 2.9 14.4 1.4 19.4.2 3.1-.7 5.7-1.4 7.9-.7 2 .6 3.7 1.7 5.8 3 2.9 1.8 6.5 4.1 12.1 5.8 4.7 1.4 8.1 1.8 10.8 2.1 2.1.2 3.9.4 5.6 1 3.5 1.2 6.7 4.4 8.6 8.1-.5.2-.9.4-1.3.7-5.4 2.7-10.4 5.2-24.2 1.6-4.9-1.3-7.7-.9-8.2 1.1-1 3.6 7.6 10.5 16.2 12.9 3.4 1 6.4 1.5 9 1.5 6.1 0 9.9-2.7 11.6-8.2 2.1-6.7-3.7-16.7-11-19.2zm9.5 18.7c-2.1 6.9-8 8.6-18.5 5.6-8.6-2.5-15.5-8.9-15-10.8.1-.3.6-.6 1.8-.6 1 0 2.4.2 4.4.7 14.3 3.8 19.9.9 25.3-1.8.4-.2.9-.4 1.3-.6 1 2.6 1.4 5.3.7 7.5z"/>
      <path fill="#fff" d="M307 84.5c-6.6-2-12.1-1.8-19.1.8-.4.2-.7.7-.5 1.1.2.4.7.7 1.1.5 4.8-1.8 10.3-3.2 18-.8 9.3 2.9 14.1 7.8 16.5 11.4 3 4.4 3.9 9.3 2.7 13.5-4.6 14.9-21.2 26.3-44.1 19.2-8.9-2.7-16.9-9-26.2-16.2-11.5-9-24.6-19.2-42.5-24.7-4.3-1.3-8.6-2.2-12.9-3l-1.3-.3c-.5-.1-.9.2-1 .7-.1.5.2.9.7 1l1.3.3c4.2.8 8.5 1.7 12.7 3 17.6 5.4 30.5 15.5 41.9 24.4 9.4 7.3 17.5 13.7 26.7 16.5 4.4 1.4 9 2 13.5 2 4.8 0 9.4-.8 13.6-2.3 9.5-3.4 16.1-10.4 19.1-20.1 1.4-4.6.4-10.1-2.9-14.9-2.4-3.9-7.5-9.1-17.3-12.1z"/>
    </g>
    <g>
      <path fill="#fff" d="M180.5 177.4c-2.2-.9-4.4-1.7-6.6-2.5-.4-.2-.9.1-1.1.5-.2.4.1.9.5 1.1 2.2.8 4.4 1.7 6.6 2.5.1 0 .2.1.3.1.3 0 .7-.2.8-.5.2-.6 0-1.1-.5-1.2z"/>
      <path fill="#fff" d="M225.3 132.2c-5.9-2.8-23.4-6.6-28 1.1-1 1.6-1.9 3.3-2.8 5.2-1 2.2-2 4.6-3 7.5-11-5-34.8-15.2-45.7 8.2-1.3 2.9-2.5 6.2-3.3 9.9-.1.4.1.8.5 1 3.7 1.3 7.6 2.7 11.6 4.2.4.2.9-.1 1.1-.5.2-.4-.1-.9-.5-1.1-3.8-1.4-7.4-2.7-10.9-3.9.8-3.3 1.8-6.3 3-8.8 9.3-19.9 27.6-14.7 44.3-7 .2.1.5.1.7 0 .2-.1.4-.3.5-.5 1.1-3.3 2.1-5.9 3.2-8.2.9-1.8 1.7-3.5 2.7-5.1 3.8-6.4 20.1-3.2 25.9-.5 6.9 3.2 2.3 13.3-3 24.9-2 4.3-4 8.8-5.6 13.2l-.4 1.2c-1.8 5.5-3.6 10.6-5.6 15.8l-6.7-2.6c-.4-.2-.9 0-1.1.5-.2.4 0 .9.5 1.1l7.5 2.9c.1 0 .2.1.3.1.3 0 .7-.2.8-.5 2.2-5.5 4-10.9 5.9-16.7l.4-1.2c1.6-4.4 3.6-8.8 5.5-13.1 5.5-11.9 10.6-23.1 2.2-27.1z"/>
      <path fill="#fff" d="M199.2 167.3c-1.8-.8-3.8-1.3-5.8-1.3-5.6 0-10.4 3.2-12.8 8.4-1.7 3.5-1.9 6.9-.8 10.1 1.4 3.8 4.7 6.4 7.3 7.6 2.1 1 4.2 1.5 6.3 1.5 5 0 9.1-3 11.7-8.4 3.5-7.7-.3-15.3-5.9-17.9zm4.3 17.2c-2.3 4.8-5.8 7.4-10.1 7.4-1.8 0-3.7-.4-5.6-1.3-2.3-1-5.2-3.3-6.4-6.6-1-2.7-.8-5.6.7-8.7 2.2-4.7 6.4-7.5 11.3-7.5 1.7 0 3.5.4 5 1.1 4.9 2.2 8.2 8.8 5.1 15.6zM169.3 161.9c-1.4-.6-3-1-4.6-1-4.4 0-8.2 2.3-10 6.2-2.6 5.5-.4 11.5 5.2 14.1 1.5.7 3.2 1.1 4.9 1.1 4.6 0 8.2-2.8 10.1-7.6 2-5.4-1.3-10.8-5.6-12.8zm4 12.2c-2.1 5.6-6.2 6.5-8.5 6.5-1.4 0-2.9-.3-4.2-.9-4.7-2.2-6.6-7.2-4.4-11.8 1.5-3.3 4.7-5.2 8.4-5.2 1.4 0 2.7.3 3.9.8 3.7 1.7 6.5 6.1 4.8 10.6zM146.8 142.9c-.1-.6-.2-1.1-.5-1.2-.4-.2-.8-.2-1.1.1-.2.3-.2.8-.1 1.4 0 .7-.1 2.2-1.2 4.5-1.6 3.3-2.6 4.2-2.6 4.2-.2.1-.3.3-.3.4-.1.4.1.9.5 1h.2c.2 0 .3-.1.5-.2 0 0 1.5-.9 5.2 0 .5.1.9-.2 1-.6.1-.5-.2-.9-.6-1-1.5-.4-2.8-.5-3.9-.4.7-1.1 1.3-2.4 1.5-2.8.4-.9.8-1.8 1-2.6.8 1.2 1.8 2.5 2.8 3.7.3.4.8.4 1.2.1.4-.3.4-.8.1-1.2-2.3-2.6-3.3-4.5-3.7-5.4zM224.6 168.6c-2.6 1-5 1.5-7.3 1.5-.5 0-.8.4-.8.9s.4.8.9.8c1.6 0 3.3-.2 5-.7-.6.9-1.2 1.8-1.6 2.8-1 2.2-1.6 4-2 5.3-.6-.5-1.4-1-2.4-1.5-.4-.2-.8-.3-1.2-.5-.5-.1-.9.1-1.1.5-.1.4.1.9.5 1.1.3.1.7.2 1 .4 2 .9 2.6 1.8 2.9 2.2 0 .4.1.6.3.8.2.2.4.3.7.3h.3c.3-.1.6-.5.6-.8 0-.2 0-.4-.1-.6 0-.7.3-2.6 2.1-6.4.9-1.8 2-3.4 3.3-4.6.3-.3.4-.7.1-1.1-.4-.4-.8-.5-1.2-.4zM211.3 134.3c-1.1-.4-2.2-.6-3.4-.6-4.6 0-8.6 3.4-10.9 9.3l-.3.7c-.7 1.6-1.1 2.8-.6 4 .5 1.1 1.9 1.9 5.3 2.9.7.2 1.3.4 1.8.6 1 .4 1.8.6 2.6.6 2.2 0 3.2-2.1 5.7-8.5 2.7-6.8 2.7-7.9-.2-9zm-1.4 8.4c-2.2 5.5-3.1 7.4-4.1 7.4-.5 0-1.1-.2-2-.5-.6-.2-1.2-.4-1.9-.6-1.8-.5-3.9-1.2-4.2-2-.2-.5.1-1.4.6-2.6l.3-.8c2.1-5.2 5.5-8.2 9.3-8.2.9 0 1.9.2 2.8.5 1.4.5 1.7.6-.8 6.8zM223.4 138.5l-.3-.1c-2.6-1.1-4.1-1.7-5.3-1.7-1.9 0-2.7 1.5-3.4 3.2-.2.6-.5 1.2-.8 1.9-.7 1.6-1.6 3.7-2.5 6-.2.5-.3.9-.5 1.2-.5 1.3-1 2.3-.5 3.4s1.6 1.8 4.7 3c1.5.6 2.5.8 3.3.8 2.1 0 2.8-1.7 3.7-3.9.1-.3.3-.7.4-1 .5-1.2 1-2.3 1.4-3.3 1.5-3.3 2.5-5.7 1.8-7.6-.3-.8-1-1.4-2-1.9zm-1.4 8.8c-.5 1-.9 2.1-1.4 3.3-.2.4-.3.7-.4 1.1-.9 2.4-1.2 2.9-2.1 2.9-.6 0-1.4-.2-2.7-.7-1.6-.6-3.5-1.4-3.7-2.1-.2-.4.1-1.1.5-2.1.2-.4.3-.8.5-1.3.9-2.3 1.8-4.4 2.5-6 .3-.7.6-1.3.8-1.9.8-2 1.3-2.2 1.8-2.2.9 0 2.4.6 4.7 1.6l.3.1c.8.3 1 .7 1.1.9.4 1.3-.6 3.6-1.9 6.4z"/>
      <path fill="#fff" d="M196.3 172.8c-1-.5-2.1-.7-3.2-.7-3.1 0-5.9 1.9-7.3 4.8-1 2.1-1.1 4.4-.3 6.5.8 2.2 2.5 3.9 4.5 4.8 1.1.5 2.2.7 3.4.7 3.8 0 6.5-2.7 7.4-5.3 1.8-4.3-.1-8.8-4.5-10.8zm3 10.2c-.8 2-2.9 4.2-5.9 4.2-.9 0-1.8-.2-2.7-.6-1.6-.7-3-2.1-3.6-3.9-.5-1.2-.8-3.1.2-5.2 1.1-2.4 3.3-3.9 5.7-3.9.9 0 1.7.2 2.5.6 3.7 1.8 5.2 5.3 3.8 8.8zM167.1 167c-1-.4-2-.7-3-.7-2.4 0-4.4 1.4-5.5 3.7-1.3 3.1.5 6.1 3.1 7.3.8.4 1.6.5 2.5.5 2.3 0 4.3-1.3 5.3-3.4.6-1.4.8-2.9.4-4.3-.5-1.3-1.4-2.5-2.8-3.1zm.9 6.8c-.7 1.4-2.1 2.4-3.8 2.4-.6 0-1.2-.1-1.7-.4-1.8-.9-3.2-3-2.3-5.1.8-1.7 2.1-2.7 3.9-2.7.8 0 1.5.2 2.3.5.9.4 1.6 1.2 1.9 2.2.2 1 .1 2.1-.3 3.1z"/>
    </g>
    <g>
      <path fill="#fff" d="M116.4 356.1c-2.3-.5-4.6-.9-6.9-1.4-.5-.1-.9.2-1 .7-.1.5.2.9.7 1 2.3.5 4.6.9 6.9 1.4h.2c.4 0 .8-.3.8-.7 0-.4-.3-.9-.7-1z"/>
      <path fill="#fff" d="M117 322.4c.7-3 1.2-5.6 1.5-7.9.3-2.1.4-4 .4-5.9.3-9-16.6-15.2-23-16-9.2-1.2-10.9 11.1-12.7 24.1-.7 4.7-1.3 9.5-2.3 14l-.3 1.2c-1.5 5.9-2.8 11.5-3.9 17.3-.1.5.2.9.7 1l7.9 1.5c.5.1.9-.2 1-.7.1-.5-.2-.9-.7-1l-7-1.4c1.1-5.5 2.4-10.8 3.8-16.4l.3-1.2c1-4.6 1.7-9.5 2.4-14.2 1.8-12.7 3.3-23.6 10.8-22.6 6.4.8 21.8 6.9 21.6 14.3 0 1.8-.1 3.7-.4 5.7-.3 2.5-.9 5.3-1.7 8.7-.1.2 0 .5.1.7.1.2.3.3.6.4 18.2 2.5 36.5 8 33.6 29.7-.4 2.8-1.1 5.9-2.2 9.1-3.6-.8-7.4-1.7-11.3-2.6-.5-.1-.9.2-1 .6-.1.5.2.9.6 1 4.2.9 8.2 1.8 12.1 2.7h.2c.4 0 .7-.2.8-.6 1.3-3.6 2.1-7 2.6-10.1 2.9-25.5-22.6-29.7-34.5-31.4z"/>
      <path fill="#fff" d="M99.1 336.2c-.5-.1-1-.1-1.5-.1-5.6 0-12 4.2-13.1 12.1-1.1 8.4 3.3 14.4 11.4 15.5.6.1 1.2.1 1.9.1 5.6 0 12-3 13.1-11.5.5-4-.5-7.9-2.9-10.9-2.1-2.9-5.4-4.7-8.9-5.2zm10.2 15.8c-1.2 9.3-9 10.1-11.4 10.1-.6 0-1.1 0-1.7-.1-7.2-1-11-6.1-10-13.6.9-6.9 6.5-10.6 11.4-10.6.4 0 .9 0 1.3.1 3 .4 5.9 2 7.9 4.5 2 2.6 2.9 6 2.5 9.6zM127.2 347.7c-.5-.1-.9-.1-1.4-.1-5.1 0-9.3 3.2-10.2 7.9-.7 3.5-.2 6.6 1.5 9.1 1.7 2.4 4.5 4 7.6 4.4.5.1 1.1.1 1.6.1 5.4 0 9.7-3.8 10.4-9.2.9-6.4-4.2-11.5-9.5-12.2zm7.9 12c-.6 4.6-4.1 7.7-8.7 7.7-.4 0-.9 0-1.3-.1-2.6-.3-5-1.7-6.5-3.7s-1.9-4.7-1.3-7.8c.9-4.5 5.1-6.5 8.6-6.5.4 0 .8 0 1.2.1 3.8.5 8.7 4.4 8 10.3zM157.4 343c-.3 0-.7.3-1.1.8-.8.6-2.6 1.6-6.1 2.7-.4.1-.7.6-.6 1.1.1.4.6.7 1.1.6 1.5-.5 3.1-1 4.3-1.7-.2.8-.4 1.7-.6 2.7-.1.5-.2 1.8-.2 3.2-.8-.6-2-1.2-3.5-1.7-.4-.2-.9.1-1.1.5-.2.4.1.9.5 1.1 3.6 1.3 4.4 2.8 4.4 2.8.1.3.3.5.6.5h.2c.4 0 .7-.3.8-.6 0-.1 0-.3-.1-.5 0 0-.5-1.3 0-5 .3-2.5 1-3.9 1.4-4.5.5-.4.8-.8.7-1.2.1-.5-.2-.8-.7-.8zM82.3 328.9c-1.9-1.2-3.7-3-5.4-5.2-.2-.3-.7-.4-1.1-.3-.4.2-.6.6-.5 1 .5 1.8.6 3.7.3 5.7-.5 4.2-1.3 5.9-1.7 6.5-.2.2-.4.3-.4.5-.2.3-.2.7.1 1 .2.2.4.3.7.3h.2c.2-.1.4-.2.7-.5.4-.2 1.4-.6 3.6-.3.3 0 .7.1 1.1.2.5.1.9-.2 1-.6.1-.5-.2-.9-.6-1-.4-.1-.9-.2-1.3-.2-1.1-.1-2-.1-2.8-.1.4-1.3.9-3.1 1.2-5.5.1-1.1.2-2.2.1-3.3 1.2 1.3 2.5 2.4 3.8 3.2.4.3.9.1 1.2-.3.4-.4.2-.9-.2-1.1zM106.6 301.8c-.5-.1-.9-.2-1.2-.2-2.1 0-2.7 2.1-3.8 7.7-1.7 8.8-1.7 10 2.8 11 .5.1 1.2.3 1.9.5 2 .6 3.3.8 4.3.8 2.6 0 3-1.9 3.4-4.1l.1-.8c1.1-6.4-.7-13.6-7.5-14.9zm5.7 14.7l-.2.8c-.4 2.4-.6 2.7-1.7 2.7-.8 0-2-.2-3.8-.8-.7-.2-1.4-.4-2-.5-3-.7-3.1-.7-1.5-9.1 1-5.3 1.5-6.3 2.1-6.3.2 0 .6.1 1 .1 3.9.8 7.7 4.7 6.1 13.1zM94.4 299l-.3-.1c-.3 0-.5-.1-.8-.1-3.2 0-3.8 3.5-4.4 7.9-.2 1.1-.3 2.3-.6 3.5-.1.4-.1.8-.2 1.1-.7 3.7-.8 5.4 4.2 6.4 1.7.3 2.8.5 3.6.5 2.7 0 3-1.7 3.3-3.6.1-.4.1-.8.2-1.3.5-2.5.9-4.7 1.1-6.4.1-.7.2-1.4.3-2 .3-1.6.3-2.9-.3-3.8-.7-1.2-2.5-1.5-6.1-2.1zm4.9 5.6c-.1.6-.2 1.3-.3 2-.3 1.7-.6 3.9-1.1 6.4-.1.5-.2.9-.3 1.4-.4 2-.4 2.2-1.6 2.2-.7 0-1.8-.1-3.3-.4-3.6-.7-3.6-1-2.9-4.4.1-.3.1-.7.2-1.1.2-1.3.4-2.5.6-3.6.6-4.3 1.1-6.5 2.8-6.5h.5l.3.1c2.9.5 4.7.8 5.1 1.4.2.4.2 1.1 0 2.5z"/>
      <path fill="#fff" d="M98.6 342.3c-.4-.1-.9-.1-1.3-.1-4.2 0-7.5 2.7-8.4 6.8-.5 2.2 0 4.5 1.3 6.4 1.2 1.8 3.1 2.9 5.4 3.3.4.1.8.1 1.3.1 3.7 0 7.8-2.5 8.4-7.4.5-4.5-2.4-8.5-6.7-9.1zm4.9 8.9c-.6 4.3-4.5 6.3-7.7 5.8-1.8-.3-3.3-1.2-4.3-2.6-1-1.4-1.4-3.4-1-5 .7-3.4 3.3-5.5 6.7-5.5.4 0 .7 0 1.1.1 3.4.5 5.7 3.6 5.2 7.2zM126.3 353.2c-3-.4-5.7 1.9-6.1 5.1-.4 3.2 1.8 6.1 5 6.5.3 0 .5.1.8.1 2.5 0 5.3-1.6 5.7-4.6.3-1.8-.1-3.3-1-4.6-.9-1.4-2.5-2.3-4.4-2.5zm3.8 6.8c-.4 2.3-2.7 3.3-4.7 3.1-2.3-.3-3.9-2.4-3.6-4.6.3-2.1 1.9-3.6 3.7-3.6h.5c1.4.2 2.6.8 3.3 1.8.8.9 1.1 2 .8 3.3z"/>
    </g>
    <g>
      <path fill="#fff" d="M108.8 162.6c-5-1.6-13.4-4.3-19.2-6.4-.3-.1-.7 0-.9.2-.2.2-.3.6-.2.9 1.5 4.3 4.4 11.7 5.6 14.8.3.7.5 1.2.5 1.4.4 1.3.9 2.6 1.3 3.8.1.4.4.6.8.6h.1c8.8-1.5 13.4-6.9 12.5-14.6.1-.3-.2-.6-.5-.7zm-11.5 13.6c-.3-1.1-.7-2.1-1.1-3.2-.1-.2-.3-.7-.5-1.4-1.1-2.8-3.4-8.8-5-13.1 5.5 1.9 12.5 4.2 17.1 5.6.6 8.3-6 11.1-10.5 12.1z"/>
      <path fill="#fff" d="M97.4 176.6c-.3-.4-.8-.4-1.2-.1-.4.3-.4.8-.1 1.2 10.3 13 19.2 22.9 27.2 30.4.2.2.4.2.6.2.2 0 .5-.1.6-.3.3-.3.3-.9 0-1.2-8-7.4-16.8-17.3-27.1-30.2zM109.1 162.8c-.4-.3-.9-.2-1.2.1-.3.4-.2.9.1 1.2 1.1 1 24.4 26.4 27.6 30.1.2.2.4.3.6.3.2 0 .4-.1.6-.2.4-.3.4-.8.1-1.2-2.3-2.7-26.6-29.3-27.8-30.3z"/>
      <path fill="#fff" d="M136.1 192.8c-.5.1-.8.6-.7 1 .4 2.1 0 4.3-1.3 6.3-2.1 3.2-6.1 5.7-10.4 6.5-.5.1-.8.5-.7 1 .1.4.4.7.8.7h.2c4.8-1 9.2-3.8 11.5-7.3 1.6-2.4 2.1-5 1.6-7.6-.1-.4-.5-.7-1-.6zM96.9 158.8c-.5 0-.8.4-.8.9.2 3.1-.7 3.4-2.4 3.6-.5.1-1.1.1-1.7 0-.5-.1-.9.3-1 .7-.1.5.3.9.7 1 .4.1.8.1 1.2.1.3 0 .6 0 .9-.1 3.1-.4 4.1-1.8 3.9-5.4.1-.4-.3-.8-.8-.8z"/>
      <path fill="#fff" d="M103.3 174.6c-.3-.4-.8-.4-1.2-.1-.4.3-.4.8-.1 1.2 6.5 7.3 18.6 21 27.2 30 .2.2.4.3.6.3.2 0 .4-.1.6-.2.3-.3.4-.9 0-1.2-8.5-9-20.6-22.7-27.1-30zM107.7 170.5c-.3-.3-.9-.4-1.2 0-.3.3-.4.9 0 1.2 7.1 7.6 19.8 21.2 27.8 29.5.2.2.4.3.6.3.2 0 .4-.1.6-.2.3-.3.4-.9 0-1.2-8-8.4-20.7-21.9-27.8-29.6z"/>
    </g>
    <g>
      <path fill="#fff" d="M118.8 414.4c-.3.1-.6.3-.7.7-1 5.1-2.9 13.8-4.3 19.8-.1.3 0 .7.3.9.2.1.3.2.5.2.1 0 .2 0 .4-.1 4.1-1.9 11.2-5.6 14.2-7.1.7-.4 1.1-.6 1.3-.7 1.2-.6 2.5-1.1 3.7-1.7.4-.2.6-.6.5-1-2.5-8.5-8.3-12.6-15.9-11zm10.9 12.1c-.2.1-.6.3-1.3.7-2.7 1.4-8.4 4.3-12.6 6.3 1.3-5.6 2.9-12.9 3.8-17.6.8-.1 1.6-.2 2.3-.2 6.6 0 9.5 5.6 10.7 9.4-.8.5-1.9.9-2.9 1.4z"/>
      <path fill="#fff" d="M160.5 395c-6.6 8.7-15.5 18.5-27.3 30-.3.3-.3.9 0 1.2.2.2.4.3.6.3.2 0 .4-.1.6-.2 11.8-11.6 20.8-21.5 27.5-30.2.3-.4.2-.9-.2-1.2-.4-.4-.9-.3-1.2.1zM145.5 384c-2.4 2.6-26.4 29.5-27.3 30.8-.2.4-.1.9.3 1.2.1.1.3.1.5.1.3 0 .6-.1.7-.4.8-1.2 23.8-27 27.1-30.6.3-.3.3-.9 0-1.2-.4-.3-1-.2-1.3.1z"/>
      <path fill="#fff" d="M153.6 384.6c-2.6-1.3-5.2-1.6-7.7-.8-.4.1-.7.6-.5 1.1.1.4.6.7 1.1.5 2-.7 4.2-.4 6.4.7 3.4 1.7 6.3 5.4 7.6 9.7.1.4.4.6.8.6h.3c.4-.1.7-.6.6-1.1-1.6-4.7-4.9-8.8-8.6-10.7zM116.3 426.4c-.5.1-.8.5-.7 1 .1.5.5.8 1 .7 3.1-.5 3.4.3 3.8 2 .1.5.2 1.1.1 1.7 0 .5.4.9.8.9.5 0 .8-.4.8-.8 0-.8 0-1.5-.2-2.1-.6-3.2-2.1-4.1-5.6-3.4z"/>
      <path fill="#fff" d="M157.7 389.3c-8 9.4-20.4 22.9-27.1 30.1-.3.3-.3.9.1 1.2.2.2.4.2.6.2.2 0 .5-.1.6-.3 6.6-7.2 19-20.7 27.1-30.1.3-.4.3-.9-.1-1.2-.4-.3-.9-.3-1.2.1zM152.6 384.8c-7.5 8.8-19.6 22.8-26.5 30.6-.3.4-.3.9.1 1.2.2.1.4.2.6.2.2 0 .5-.1.6-.3 6.8-7.8 19-21.8 26.5-30.6.3-.4.3-.9-.1-1.2-.4-.3-.9-.3-1.2.1z"/>
    </g>
    <g>
      <path fill="#fff" d="M234 242.9c-.3-.2-.6-.2-.9-.1-.3.1-.5.4-.5.8 0 4.5.2 12.5.3 15.9v1.5c0 1.4 0 2.7-.1 4 0 .4.3.8.7.9 1.3.2 2.6.3 3.8.3 6.8 0 11.4-3.5 12.9-9.9.1-.3 0-.7-.3-.9-4.1-3.2-11.1-8.6-15.9-12.5zm3.4 21.5c-.9 0-1.8-.1-2.8-.2 0-1.1.1-2.2.1-3.3v-1.5c-.1-3-.3-9.5-.3-14 4.5 3.6 10.4 8.1 14.2 11-1.9 6.6-7.1 8-11.2 8z"/>
      <path fill="#fff" d="M234.6 264.7c-.2-.4-.6-.7-1.1-.5-.4.2-.7.6-.5 1.1 5.4 15.7 10.4 28 15.4 37.8.2.3.4.5.8.5.1 0 .3 0 .4-.1.4-.2.6-.7.4-1.1-5.1-9.8-10.1-22.1-15.4-37.7zM250.2 255.6c-.2-.4-.8-.5-1.2-.3-.4.2-.5.8-.3 1.2.8 1.3 14.1 33.1 15.9 37.6.1.3.5.5.8.5.1 0 .2 0 .3-.1.4-.2.6-.7.5-1.1-1.2-3.2-15.1-36.4-16-37.8z"/>
      <path fill="#fff" d="M265.6 293c-.5-.1-.9.3-1 .7-.3 2.1-1.5 4-3.4 5.5-3 2.3-7.6 3.3-12 2.7-.5-.1-.9.3-1 .7-.1.5.3.9.7 1 .9.1 1.9.2 2.8.2 3.9 0 7.7-1.1 10.4-3.2 2.3-1.7 3.7-4 4-6.6.3-.6 0-1-.5-1zM240.1 247.8c-.5-.1-.9.1-1 .6-.8 3-1.7 2.9-3.4 2.6-.5-.1-1-.3-1.6-.6-.4-.2-.9 0-1.1.4-.2.4 0 .9.4 1.1.7.4 1.3.6 2 .8.6.1 1.1.2 1.6.2 2 0 3.1-1.2 3.8-4 0-.5-.3-1-.7-1.1z"/>
      <path fill="#fff" d="M240.8 264.8c-.2-.4-.7-.6-1.1-.5-.4.2-.6.7-.5 1.1 3.7 9.1 10.5 26.1 15.5 37.4.1.3.5.5.8.5.1 0 .2 0 .3-.1.4-.2.6-.7.4-1.1-4.9-11.3-11.8-28.2-15.4-37.3zM246.3 262.4c-.2-.4-.7-.6-1.1-.4-.4.2-.6.7-.4 1.1 4.1 9.6 11.5 26.6 16.2 37.1.1.3.5.5.8.5.1 0 .2 0 .3-.1.4-.2.6-.7.4-1.1-4.6-10.5-12.1-27.5-16.2-37.1z"/>
    </g>
  </g>
  <defs>
    <clipPath id="clip0_2433_1170">
      <path fill="#fff" d="M0 0h450v450H0z"/>
    </clipPath>
  </defs>
</svg>
