<svg width="402" height="374" viewBox="0 0 402 374" fill="none" xmlns="http://www.w3.org/2000/svg">
<circle cx="102.5" cy="108.5" r="102.5" fill="#DB5836"/>
<circle cx="102.5" cy="108.5" r="102.5" fill="#DB5836"/>
<circle cx="102.5" cy="108.5" r="102.5" fill="#36C0C8"/>
<circle cx="102.5" cy="108.5" r="71.75" fill="#DB5836"/>
<circle cx="102.5" cy="108.5" r="71.75" fill="#DB5836"/>
<circle cx="102.5" cy="108.5" r="71.75" fill="#DB5836"/>
<circle cx="102.5" cy="108.5" r="41.7321" fill="#DB5836"/>
<circle cx="102.5" cy="108.5" r="41.7321" fill="#DB5836"/>
<circle cx="102.5" cy="108.5" r="41.7321" fill="#F9E75C"/>
<circle cx="227.5" cy="199.5" r="174.5" fill="url(#paint0_linear_1961_1168)"/>
<path d="M330.656 12.6562C331.686 11.0413 334.167 11.5595 334.355 13.4288L336.213 31.9242C336.297 32.7635 336.913 33.443 337.747 33.6171L356.955 37.6294C358.882 38.032 359.051 40.6673 357.197 41.4108L339.385 48.5538C338.533 48.8952 338.004 49.7514 338.094 50.6423L339.913 68.7553C340.104 70.6532 337.725 71.7624 336.42 70.3839L323.182 56.3942C322.626 55.8067 321.753 55.6243 320.98 55.9343L302.576 63.3144C300.763 64.0417 299.123 62.0928 300.169 60.4532L310.15 44.8053C310.641 44.0356 310.556 43.0512 309.944 42.404L297.131 28.864C295.798 27.4545 297.163 25.1399 299.091 25.5425L318.299 29.5547C319.133 29.7289 320.002 29.3596 320.464 28.6345L330.656 12.6562Z" fill="#F9E75C"/>
<path d="M221.178 54.7359C221.162 52.86 223.59 52.1057 224.79 53.6142L227.572 57.1115C228.11 57.7885 229.019 58.073 229.834 57.8198L234.023 56.5186C235.9 55.9357 237.51 58.0913 236.338 59.6179L233.919 62.767C233.382 63.4659 233.403 64.4443 233.971 65.158L236.536 68.3831C237.752 69.9118 236.315 71.9986 234.429 71.4447L229.916 70.12C229.107 69.8826 228.249 70.1491 227.756 70.7907L225.006 74.3711C223.856 75.868 221.359 75.0029 221.342 73.1018L221.306 69.0912C221.298 68.2037 220.683 67.4098 219.802 67.1513L215.833 65.9861C213.908 65.4213 213.801 62.7991 215.678 62.2161L219.867 60.915C220.683 60.6618 221.225 59.9268 221.217 59.0849L221.178 54.7359Z" fill="#F9E75C"/>
<defs>
<linearGradient id="paint0_linear_1961_1168" x1="227.5" y1="25" x2="227.5" y2="374" gradientUnits="userSpaceOnUse">
<stop stop-color="#174375"/>
<stop offset="1" stop-color="#3378A8"/>
</linearGradient>
</defs>
</svg>
