<svg width="77" height="112" viewBox="0 0 77 112" fill="none" xmlns="http://www.w3.org/2000/svg">
<path d="M36.454 94.167C35.1051 95.4342 35.7399 96.6222 36.6127 97.8102C37.0888 98.4438 37.8029 99.1566 37.8823 99.8693C38.1996 103.275 40.4213 104.542 43.4365 105.096C43.9919 105.176 44.468 105.255 44.9441 105.334C45.1821 105.572 45.3408 105.651 45.4202 105.888C47.0864 111.274 52.5613 113.016 57.3221 111.749C59.7025 111.116 62.0036 110.324 63.9079 108.66C66.8437 106.205 68.6686 103.433 67.1611 99.3941C69.4621 97.4934 72.3979 96.147 72.3979 92.5831C72.3979 90.6031 72.0805 88.7815 70.3349 87.5144C71.8425 82.6041 71.6045 81.9705 66.5263 78.4857C66.0502 74.2882 65.4948 70.0115 65.0981 65.814C64.9394 64.5468 64.7013 63.2004 66.1296 62.0916C74.3022 55.7558 77.3967 47.0439 76.9207 37.0649C76.4446 26.7691 72.874 17.6613 65.6535 10.2958C59.0677 3.64314 50.7364 0.712798 41.4528 0.0792099C30.9791 -0.633577 21.9336 2.69276 13.999 9.34544C8.36541 14.0973 3.84267 19.7204 1.70032 26.9275C-1.94961 39.1241 0.192741 50.4495 7.88934 60.6661C12.8088 67.2396 19.2359 71.5163 27.0118 73.8922C28.1227 74.209 29.1542 74.8426 30.1857 75.3178C30.6617 78.4065 30.9791 81.3369 31.5346 84.2672C32.2487 87.8312 32.9628 88.3856 36.5334 87.9104C38.517 87.6728 40.5007 87.1184 42.4843 86.6432C49.3875 84.7424 56.2906 82.9209 63.1144 80.8617C65.1774 80.2281 66.685 81.0201 68.2719 81.8121C70.1762 82.7625 69.9382 85.6136 67.8752 86.8016C67.0024 87.356 65.8915 87.6728 64.86 87.9104C56.6873 89.7319 48.5147 92.0287 40.0246 92.3455C38.4377 92.4247 36.7714 92.4247 35.2638 92.1871C34.153 92.0287 33.0421 91.3159 32.09 90.9199C31.9313 92.3455 32.4074 93.1375 34.0736 93.6919C34.8671 93.9295 35.6606 94.0878 36.454 94.3254C46.9277 93.6919 57.1634 92.0287 67.2404 88.8607C68.6686 88.3856 69.4621 88.7815 69.9382 90.4447C68.9067 90.9991 67.9545 91.7119 66.923 92.0287C60.8134 93.8503 54.7037 95.751 48.5147 97.2558C45.8962 97.8894 42.9604 97.8102 40.2626 97.6518C38.1996 97.4934 36.2953 96.7806 36.454 94.167ZM45.9756 83.9504C42.8811 84.7424 39.7866 85.6928 36.6921 86.3264C34.153 86.8016 33.5976 86.4056 33.2008 83.9504C32.8041 81.9705 32.4867 79.9905 32.4074 77.9314C32.328 74.6842 30.5824 73.1002 27.7259 72.3083C27.2498 72.1499 26.6944 71.9915 26.2183 71.8331C13.2055 67.0812 5.11222 57.8941 2.33509 44.5096C-0.203991 32.313 3.68398 21.7004 12.4914 13.0678C22.8858 2.77196 35.2638 -0.712775 49.5462 3.08875C56.2906 4.91032 62.2416 8.07826 66.6056 13.7806C73.112 22.4132 76.2065 31.9962 75.0164 42.7672C74.2229 50.1327 71.1284 56.231 65.1774 60.6661C63.6698 61.7749 63.1937 63.042 63.4318 64.7844C63.7492 67.6355 64.0666 70.4867 64.3046 73.3378C64.4633 75.0802 64.5426 76.9018 64.622 78.7233C61.4481 79.5153 58.5917 80.2281 55.8145 80.9409C55.5765 80.6241 55.4178 80.4657 55.3385 80.3073C54.3863 74.6842 53.1961 68.9819 52.482 63.2796C51.7679 57.9733 52.6407 52.9046 55.2591 48.1527C56.2113 46.4895 57.0047 44.7472 57.6395 42.9256C59.6232 37.4609 57.3221 34.3722 51.5298 34.5306C51.2124 34.5306 50.8951 34.6098 50.5777 34.6098C47.5625 35.0058 44.7854 36.4313 41.6909 36.6689C40.58 36.7481 39.4692 37.8569 38.517 38.6489C37.8823 39.2033 37.4855 39.9953 37.1681 40.4705C31.6932 38.2529 30.265 38.8865 27.1705 44.5888C26.4564 44.5888 25.7423 44.5888 25.0281 44.5888C21.6163 44.668 20.2674 46.1727 20.3467 49.5783C20.4261 53.063 22.7271 54.9638 25.4249 56.3894C27.8846 57.6565 30.503 58.7653 33.1215 59.4781C37.5649 60.6661 39.7866 63.7548 41.1355 67.7939C42.643 73.1794 44.23 78.4065 45.9756 83.9504ZM47.3245 37.0649C48.7527 36.7481 49.7842 36.3521 50.8951 36.2729C55.9732 35.8769 57.6395 38.0153 55.8939 42.7672C55.1798 44.7472 54.1483 46.6479 53.1961 48.5487C51.2124 52.4294 50.2603 56.5478 50.5777 60.9037C50.8157 64.626 51.4505 68.2691 52.0059 71.9915C52.482 75.0802 53.1961 78.1689 53.8309 81.5745C51.5298 82.2873 49.5462 82.8417 47.4038 83.4752C47.0071 82.4457 46.6897 81.6537 46.4517 80.8617C45.1821 76.5058 43.9919 72.0707 42.5637 67.7147C41.1355 63.042 38.6757 59.1613 33.4389 57.9733C32.4074 57.7357 31.3759 57.4189 30.4237 56.9437C28.2813 55.9934 26.2183 54.9638 24.1553 53.855C22.6478 53.063 22.013 51.5582 21.6956 49.8951C21.3782 48.0735 22.1717 46.8063 23.5999 46.4103C25.5836 45.9352 26.8531 46.4895 27.5672 48.3903C27.7259 48.7863 27.8053 49.1823 27.964 49.5783C28.6781 50.9247 29.7889 51.3998 30.8204 50.6871C31.8519 49.9743 32.0106 48.8655 31.1378 47.6775C30.8204 47.2815 30.4237 46.8855 30.027 46.4895C28.9161 45.5392 28.9955 44.5096 29.5509 43.3216C30.7411 40.7081 32.8834 40.3121 35.3432 42.292C35.1845 43.3216 34.9464 44.3512 34.8671 45.46C34.7084 46.7271 34.9464 47.9943 36.2953 48.3111C37.2475 48.5487 38.7551 48.4695 39.2311 47.8359C39.8659 47.1231 39.9453 45.6976 39.7072 44.668C39.4692 43.5592 38.6757 42.688 37.9616 41.5C39.4692 40.0745 40.5007 38.1737 42.9604 38.3321C42.9604 39.9953 42.8017 41.5 42.9604 42.9256C43.1985 44.668 44.468 45.6976 46.1343 46.0935C47.6419 46.4895 49.7049 45.7768 50.419 44.668C51.3711 43.1632 50.8157 41.7376 49.9429 40.4705C49.4668 39.5201 48.594 38.5697 47.3245 37.0649ZM39.0725 99.5525C50.2603 100.028 60.2579 95.6718 70.6523 92.5039C70.4936 95.4342 68.4306 96.7014 66.2883 97.4934C61.5275 99.3149 56.6873 100.978 51.8472 102.562C49.9429 103.196 47.8799 103.433 45.8962 103.592C42.3257 103.829 40.342 102.641 39.0725 99.5525ZM65.4948 100.028C66.6056 102.404 65.8122 104.304 64.2252 106.047C61.6068 108.898 58.2743 110.086 54.6243 110.561C51.2124 110.957 47.9592 108.502 47.0071 105.651C53.1168 103.829 59.3058 101.929 65.4948 100.028ZM44.706 40.6289C44.7854 40.4705 45.1028 39.4409 45.7375 39.0449C46.0549 38.8073 47.0864 39.6785 47.7212 40.1537C48.1973 40.5497 48.6734 41.104 48.8321 41.6584C49.0701 42.3712 49.2288 43.48 48.8321 43.876C48.4353 44.3512 47.3245 44.5888 46.6104 44.4304C45.1028 44.1136 44.468 42.9256 44.706 40.6289ZM38.6757 46.8855C36.1366 46.1727 36.1366 46.0935 37.6442 43.7968C37.9616 44.8264 38.279 45.6184 38.6757 46.8855Z" fill="black"/>
</svg>
