<svg xmlns="http://www.w3.org/2000/svg" xmlns:xlink="http://www.w3.org/1999/xlink" width="1700" height="506" fill="none" viewBox="0 0 1700 506">
  <path stroke="#6798EF" stroke-dasharray="6 6" d="M850 62.239c93.667-6.09 332.8 2.998 540 88.075 259 106.347 301.5 231.902 309 288.589M850 62.238c107-2.81 358.5 15.367 508.5 110.564 187.5 118.996 204.5 201.45 216 283.904M850 62.238c97.167 2.811 321.4 37.854 441 155.539 119.6 117.684 136.83 208.321 130.5 238.929M850 62.238c84.167 2.811 278.1 47.037 380.5 201.45 20.17 26.704 60.5 102.693 60.5 193.018M850 62.238c64 .625 207.1 47.599 267.5 230.497 14.67 43.569 41 145.793 29 206.135M850 62.238c34.667-3.279 110.8 38.229 138 230.497 7 57.624 19.8 180.93 15 213.162M850 62.238l6 400.09m-6.5-400.089c-93.667-6.09-332.8 2.998-540 88.075C50.5 256.661 8 382.216.5 438.903m849-376.665c-107-2.81-347 26.142-497 121.339C165 302.573 136.5 374.252 125 456.706M849.5 62.238c-97.167 2.811-321.4 37.854-441 155.539C288.9 335.461 271.667 426.098 278 456.706M849.5 62.238c-84.167 2.811-278.1 47.037-380.5 201.45-20.167 26.704-60.5 102.693-60.5 193.018m441-394.468c-64 .625-207.1 47.599-267.5 230.497-14.667 43.569-41 145.793-29 206.135M849.5 62.238c-34.667-3.279-110.8 38.229-138 230.497-7 57.624-19.8 180.93-15 213.162"/>
  <path stroke="#6798EF" stroke-dasharray="6 6" d="M848.5 180.195c-152.447.617-301.919-33.353-424.5-74.781m432.5 74.781c152.45.617 301.92-33.353 424.5-74.781M853 250.662c-257.275-4.697-469.701-27.835-647.5-76.724"/>
  <path stroke="#6798EF" stroke-dasharray="6 6" d="M852 250.662c257.28-4.697 469.7-27.835 647.5-76.724M22 271.705c321 59.212 597 59.212 831 59.212"/>
  <path stroke="#6798EF" stroke-dasharray="6 6" d="M1683 271.705c-321 59.212-597 59.212-831 59.212"/>
  <g clip-path="url(#a)">
    <path fill="#93B4E1" d="M779.178 87.105a.412.412 0 0 0 .099-.016l52.442-22.52a.513.513 0 0 0 .271-.426c0-.166-.115-.258-.263-.191l-52.409 22.503c-.148.067-.271.258-.288.433-.016.125.05.217.148.217Zm-1.19 10.644c.025 0 .057-.009.09-.017l52.697-20.703c.148-.058.271-.25.279-.425.008-.175-.107-.275-.254-.217l-52.656 20.687c-.148.058-.279.25-.296.433-.024.142.041.233.14.242Z"/>
    <path fill="#99B1D1" d="m777.463 103.808-7.954 2.967c-.238.092-.369-.142-.255-.45l8.488-23.337a.662.662 0 0 1 .32-.375l6.599-2.9c.23-.1.378.1.288.383l-7.133 23.278c-.05.201-.197.376-.353.434Z"/>
    <path fill="#99B1D1" d="M769.107 106.858c-.074-.133-.074-.333 0-.55l8.487-23.337c.09-.25.279-.467.476-.55l6.599-2.9c.156-.067.304-.042.386.066.082.109.099.3.041.5l-7.133 23.279c-.09.283-.303.542-.525.625l-7.946 2.984c-.057.017-.106.033-.155.025a.297.297 0 0 1-.23-.142Zm8.372-3.242a.376.376 0 0 0 .197-.233l7.133-23.279c.025-.075.016-.142-.016-.183-.033-.042-.083-.05-.14-.025l-6.608 2.9a.351.351 0 0 0-.172.2l-8.479 23.337c-.025.075-.033.15 0 .2.025.05.082.067.14.042l7.945-2.959Zm32.923-35.106-4.293 24.263c-.041.216-.197.425-.369.491l-12.394 4.626c-.222.084-.362-.108-.288-.383l5.968-24.046c.049-.183.18-.358.328-.425l10.72-4.826c.213-.108.369.042.328.3Z"/>
    <path fill="#99B1D1" d="M792.96 97.99c-.082-.108-.107-.283-.058-.483l5.976-24.046c.066-.266.263-.525.484-.625l10.72-4.826c.148-.066.287-.05.378.042.09.092.123.25.09.425l-4.285 24.262c-.057.317-.287.626-.533.717l-12.395 4.626c-.057.025-.106.033-.156.025a.294.294 0 0 1-.221-.117Zm17.286-29.446c.008-.067 0-.125-.033-.158-.032-.034-.082-.042-.139-.017l-10.72 4.826c-.082.033-.156.133-.181.233l-5.959 24.054c-.016.075-.008.133.017.175.032.041.082.05.139.033l12.386-4.617c.091-.033.173-.15.197-.267l4.293-24.262Zm16.326-7.776 12.321-5.551c.189-.084.345.025.345.242l-.181 24.945c0 .234-.164.484-.361.559l-14.241 5.309c-.197.075-.345-.067-.321-.309l2.11-24.704c.016-.2.156-.416.328-.491Z"/>
    <path fill="#99B1D1" d="M824.102 86.413c-.091-.083-.132-.225-.115-.391l2.101-24.713c.025-.3.238-.608.484-.725l12.321-5.55c.131-.059.262-.059.353.008.098.066.148.191.148.341l-.173 24.946a.91.91 0 0 1-.156.492.742.742 0 0 1-.369.317l-14.241 5.309a.29.29 0 0 1-.165.025c-.065.025-.131 0-.188-.059ZM838.901 55.4l-12.329 5.551a.347.347 0 0 0-.18.267l-2.093 24.704c-.009.058.008.116.041.141.033.034.082.042.131.017l14.233-5.31a.25.25 0 0 0 .131-.116.322.322 0 0 0 .058-.183l.18-24.946c0-.058-.016-.1-.057-.125a.149.149 0 0 0-.058-.017c-.008 0-.032 0-.057.017Zm-13.913 6.51-2.118 24.57c-.016.225-.18.459-.369.525l-14.783 5.518c-.205.075-.353-.084-.304-.35l4.285-24.404a.648.648 0 0 1 .337-.459l12.616-5.675c.197-.092.353.033.336.275Z"/>
    <path fill="#99B1D1" d="M807.34 92.648c-.082-.1-.114-.259-.082-.442l4.293-24.404c.05-.283.255-.567.485-.667l12.616-5.684c.139-.058.27-.058.361.025.09.075.139.217.123.384l-2.11 24.57c-.032.333-.262.675-.533.775l-14.783 5.518c-.058.016-.107.033-.156.025a.326.326 0 0 1-.214-.1Zm17.312-30.838-12.625 5.684a.383.383 0 0 0-.18.25l-4.285 24.404c-.008.066 0 .125.033.158s.082.042.131.025l14.783-5.517c.099-.034.189-.159.197-.284l2.126-24.57c.008-.059-.008-.109-.049-.142a.092.092 0 0 0-.066-.025.246.246 0 0 0-.065.017Zm-38.267 17.069 11.073-4.95c.221-.1.377.074.312.35l-5.73 23.528c-.049.208-.197.392-.361.458l-12.337 4.776c-.229.092-.369-.117-.279-.408l6.994-23.337a.656.656 0 0 1 .328-.417Z"/>
    <path fill="#99B1D1" d="M778.948 103.141c-.082-.117-.09-.308-.032-.508l6.993-23.337c.082-.259.271-.5.484-.592l11.073-4.95c.156-.068.296-.05.386.05.09.1.115.274.065.466l-5.721 23.529c-.074.3-.287.575-.525.666l-12.337 4.768a.41.41 0 0 1-.164.033.278.278 0 0 1-.222-.125Zm18.51-29.03-11.081 4.951a.398.398 0 0 0-.181.217l-6.993 23.345c-.025.075-.017.142.008.184.033.041.082.058.14.033l12.336-4.767c.091-.034.165-.134.197-.242l5.73-23.529c.016-.066.008-.133-.025-.166-.016-.025-.041-.034-.074-.034-.016-.008-.033-.008-.057.009Z"/>
    <path fill="#1B1C20" d="m830.463 83.821.156-.058 1.363-25.646-.156.059-1.363 25.645Z"/>
    <path fill="url(#b)" d="m777.249 103.675-7.945 2.967c-.238.092-.37-.142-.255-.45l8.487-23.329a.664.664 0 0 1 .321-.375l6.599-2.9c.23-.1.378.091.287.383l-7.133 23.27c-.065.2-.213.375-.361.434Z"/>
    <path fill="url(#c)" d="m810.181 68.386-4.302 24.245c-.041.217-.197.425-.369.492l-12.378 4.626c-.222.083-.361-.109-.287-.384l5.975-24.037c.05-.183.181-.358.329-.425l10.72-4.826c.205-.1.361.05.312.309Z"/>
    <path fill="url(#d)" d="m826.351 60.643 12.32-5.55c.189-.084.345.024.345.24l-.189 24.938c0 .233-.164.483-.361.558l-14.233 5.31c-.197.075-.345-.067-.32-.309l2.101-24.695a.665.665 0 0 1 .337-.492Z"/>
    <path fill="url(#e)" d="m824.767 61.785-2.126 24.562c-.017.225-.181.458-.37.525l-14.775 5.517c-.205.075-.352-.083-.303-.35l4.293-24.395a.646.646 0 0 1 .336-.459l12.608-5.675c.197-.092.353.041.337.275Z"/>
    <path fill="url(#f)" d="m786.172 78.754 11.072-4.95c.222-.1.378.074.312.35l-5.737 23.52c-.049.208-.197.391-.361.458l-12.337 4.768c-.23.091-.37-.117-.279-.409l6.993-23.329a.7.7 0 0 1 .337-.408Z"/>
    <g opacity=".32">
      <path fill="#1B1C20" d="m777.192 83.813 61.816-27.854v-.075l-61.816 27.854v.075Zm-.599 1.65L839 57.693v-.076l-62.399 27.771-.008.075Zm-.6 1.651 62.99-27.68v-.075l-62.99 27.68v.075Zm-.607 1.658 63.589-27.596v-.066l-63.581 27.587-.008.075Zm-.599 1.658 64.171-27.495v-.075l-64.171 27.496v.075Zm-.608 1.668 64.763-27.405v-.075l-64.763 27.405v.075Zm-.607 1.675 65.362-27.313v-.066l-65.362 27.304v.075Zm-.616 1.675 65.961-27.212v-.075l-65.952 27.212-.009.075Zm-.607 1.684 66.56-27.113v-.075l-66.56 27.113v.075Zm-.616 1.692 67.16-27.013v-.075L771.742 98.74l-.009.084Zm-.615 1.692 67.758-26.913.009-.067-67.767 26.905v.075Zm-.624 1.7 68.374-26.804v-.075l-68.366 26.796-.008.083Zm-.616 1.7 68.974-26.696v-.075l-68.966 26.696-.008.075Zm-.624 1.717 69.581-26.596.009-.075-69.581 26.588-.009.083Z" opacity=".32"/>
      <path fill="#FFFDEE" d="m777.192 83.871 61.824-27.862-.008-.175L777.2 83.688l-.008.183Zm-.599 1.642L839 57.743v-.176L776.601 85.33l-.008.183Zm-.608 1.651 62.998-27.68v-.175L776.002 86.98l-.017.184Zm-.599 1.658 63.589-27.587v-.184L775.394 88.64l-.008.183Zm-.607 1.668 64.18-27.505v-.175l-64.164 27.487-.016.192Zm-.608 1.666 64.771-27.404.008-.183-64.762 27.395-.017.192Zm-.607 1.667 65.37-27.304v-.184L773.58 93.64l-.016.183Zm-.608 1.684 65.961-27.213v-.183l-65.944 27.204-.017.192Zm-.615 1.683 66.568-27.112v-.184L772.357 97l-.016.191Zm-.616 1.684 67.168-27.004v-.192l-67.151 27.004-.017.192Zm-.615 1.7 67.766-26.913.009-.183-67.759 26.904-.016.192Zm-.616 1.7 68.374-26.804v-.192l-68.358 26.796-.016.2Zm-.624 1.701 68.982-26.696v-.192l-68.966 26.696-.016.192Zm-.624 1.717 69.589-26.596.009-.192-69.573 26.588-.025.2Z" opacity=".32"/>
    </g>
    <path fill="#FFFDEE" d="m837.12 81.346.156-.067.418-25.737-.155.067-.419 25.737Zm-2.036.75.156-.058.681-25.696-.156.067-.681 25.687Zm-2.035.759.156-.059.935-25.654-.156.058-.935 25.654Zm-2.036.758.164-.058 1.19-25.613-.156.059-1.198 25.612Zm-2.036.758.164-.058 1.453-25.57-.156.058-1.461 25.57Zm-2.027.759.156-.05 1.715-25.538-.156.059-1.715 25.529Zm-2.036.758.156-.05 1.97-25.495-.156.05-1.97 25.495Zm-2.035.759.164-.05 2.224-25.454-.156.05-2.232 25.454Zm-2.028.758.156-.05 2.487-25.412-.156.05-2.487 25.412Zm-2.035.759.164-.05 2.733-25.37-.148.05-2.749 25.37Zm-2.028.75.156-.042 2.996-25.329-.156.05-2.996 25.32Zm-2.027.758.156-.041 3.242-25.288-.148.042-3.25 25.287Zm-2.036.758.156-.04 3.505-25.246-.156.041-3.505 25.246Zm-2.027.75.156-.033 3.759-25.195-.156.033-3.759 25.196Zm-2.028.76.156-.034 4.006-25.154-.156.033-4.006 25.154Zm-2.027.758.156-.033 4.252-25.113-.148.034-4.26 25.112Zm-2.028.75.156-.025 4.507-25.07-.156.033-4.507 25.062Zm-2.027.758.148-.025 4.76-25.029-.147.034-4.761 25.02Zm-2.027.759.147-.034 5.015-24.979-.155.025-5.007 24.988Zm-2.028.75.148-.025 5.261-24.937-.147.025-5.262 24.937Zm-2.027.758.156-.025 5.499-24.887-.148.017-5.507 24.895Zm-2.028.751.156-.017 5.754-24.846-.148.017-5.762 24.846Zm-2.027.758.156-.017 6-24.804-.148.017-6.008 24.804Zm-2.019.75.147-.008 6.247-24.763-.148.017-6.246 24.754Zm-2.028.758.148-.016 6.501-24.713-.148.017-6.501 24.712Zm-2.019.751.148-.009 6.739-24.662-.148.008-6.739 24.663Zm-2.027.758.147-.008 6.985-24.62-.147.008-6.985 24.62Zm-2.02.75.148-.008 7.223-24.57-.139.008-7.232 24.57Zm-2.027.75h.148l7.469-24.528-.139.008-7.478 24.52Zm-2.019.759h.147l7.708-24.48h-.14l-7.715 24.48Zm-2.02.75.14.008 7.962-24.437h-.148l-7.954 24.429Zm-2.027.758h.148l8.2-24.387h-.148l-8.2 24.387Zm-1.871.759 8.438-24.338-.14-.008-8.446 24.337.148.009Zm-2.028.75 8.684-24.287-.139-.008-8.684 24.287.139.008Z" opacity=".29"/>
    <path fill="#fff" d="M773.432 94.123a.252.252 0 0 0 .107-.025l65.387-27.096c.172-.075.312-.291.32-.5 0-.2-.14-.308-.312-.233l-65.329 27.079c-.173.075-.329.3-.345.508-.008.159.058.267.172.267Z" opacity=".59"/>
    <path fill="#fff" d="M813.784 90.356c.025 0 .049 0 .074-.009.172-.05.336-.266.369-.483l3.226-24.887c.025-.209-.09-.334-.254-.292-.173.05-.329.25-.353.458l-3.243 24.888c-.032.191.05.325.181.325ZM798.5 96.107h.05c.172-.025.344-.234.394-.459l5.228-24.929c.041-.208-.057-.358-.221-.333-.165.025-.337.225-.378.433l-5.245 24.93c-.049.2.033.35.172.358Zm-13.945 4.85h.024c.164-.016.353-.208.411-.433l6.509-24.054c.057-.216-.025-.375-.189-.366-.164.016-.337.2-.402.416l-6.526 24.046c-.041.225.025.391.173.391Zm46.417-16.969a.392.392 0 0 0 .098-.016c.173-.067.329-.292.337-.5l1.19-25.613c.008-.2-.123-.308-.295-.25a.57.57 0 0 0-.329.483l-1.206 25.621c0 .159.082.275.205.275Z" opacity=".59"/>
    <path fill="#BED2ED" d="M826.145 61.06c.017 0 .042 0 .058-.017l12.78-5.793c.082-.041.156-.15.148-.25 0-.1-.074-.141-.156-.108l-12.78 5.792a.307.307 0 0 0-.156.25c.008.084.049.126.106.126Z"/>
    <path fill="#EFFFFF" d="M824.061 86.255c.016 0 .024 0 .041-.008l14.659-5.526c.074-.025.132-.117.132-.2s-.049-.133-.123-.108l-14.66 5.526c-.074.025-.131.116-.131.2 0 .066.032.116.082.116Z"/>
    <path fill="#BED2ED" d="M811.658 67.594c.016 0 .041 0 .057-.017l12.797-5.8a.307.307 0 0 0 .156-.25c0-.1-.074-.15-.156-.109l-12.788 5.801a.307.307 0 0 0-.156.25c-.008.075.033.117.09.125Z"/>
    <path fill="#EFFFFF" d="M807.267 92.548c.016 0 .024 0 .041-.008l15.242-5.743c.074-.025.132-.117.132-.2.008-.083-.05-.133-.124-.108l-15.226 5.742c-.074.025-.131.117-.139.2 0 .067.033.109.074.117Zm-14.192 5.367c.016 0 .024 0 .041-.008l12.394-4.626c.074-.025.131-.117.14-.2.008-.083-.05-.133-.115-.108l-12.386 4.617c-.074.025-.132.117-.14.2-.016.075.016.117.066.125Zm-14.209 5.143c.017 0 .025 0 .041-.009l12.6-4.934c.074-.025.131-.116.139-.208.009-.083-.049-.133-.114-.108l-12.592 4.934c-.074.025-.131.116-.139.208-.009.067.016.117.065.117Zm-9.784 3.759c.008 0 .025 0 .041-.009l8.11-2.983c.065-.026.131-.117.139-.201.009-.083-.041-.141-.106-.108l-8.102 2.984c-.066.025-.131.117-.148.2-.008.067.017.117.066.117Z"/>
    <path fill="#BED2ED" d="M799.075 73.087c.016 0 .041 0 .057-.017l10.72-4.826a.307.307 0 0 0 .156-.25c0-.1-.066-.15-.156-.108L799.14 72.71a.338.338 0 0 0-.164.25c.009.084.05.126.099.126Zm-13.092 5.975c.016 0 .041 0 .057-.016l11.459-5.06a.335.335 0 0 0 .164-.25c0-.1-.066-.15-.148-.116l-11.45 5.05a.335.335 0 0 0-.164.25c-.017.092.024.142.082.142Zm-8.389 3.768c.016 0 .033 0 .057-.009l7.002-2.917a.303.303 0 0 0 .164-.25c.008-.1-.057-.158-.139-.117l-7.002 2.918c-.082.033-.164.15-.172.25 0 .066.033.116.09.125Z"/>
    <path fill="url(#g)" d="M850.015 32.689a.3.3 0 0 0 .049.166c.123.2.468.35.87.35h.017c.509 0 .927-.225.935-.508l.009-.334.049-1.583c.008-.283-.411-.509-.919-.517-.526 0-.953.217-.961.5l-.049 1.926Z"/>
    <path fill="url(#h)" d="M850.072 32.855c.124.2.468.35.87.35h.017c.509 0 .927-.225.936-.508l.008-.334c-.115-.2-.46-.35-.87-.358-.526.008-.952.217-.961.508v.342Z"/>
    <path fill="url(#i)" d="M850.836 40.19c.271 0 .5-.225.5-.5l.115-6.843a.501.501 0 1 0-1.001-.017l-.115 6.843a.497.497 0 0 0 .493.517h.008Z"/>
    <path fill="url(#j)" d="m851.583 43.898.115-4.475s-.074-.325-.854-.417c-.501-.058-.854.308-.854.308l-.525 4.46 2.118.124Z"/>
    <path fill="url(#k)" d="m854.201 48.941-.057-2.267-1.388-1.075-1.838 1.017 3.283 2.325Z"/>
    <path fill="url(#l)" d="m852.141 47.524.057-4.192-1.559-1.126-1.617.792-.837 4.926 3.956-.4Z"/>
    <path fill="url(#m)" d="M850.639 42.206s-.222 5.943-.394 5.885c-.164-.059-2.06-.167-2.06-.167l.837-4.926 1.617-.791Z"/>
    <path fill="url(#n)" d="m872.514 63.585-21.268-17.453-27.555 10.394-2.626 29.18 20.734 12.793 30.189-8.26.526-26.654Z"/>
    <path fill="url(#o)" d="m851.246 46.132-1.707 27.98-28.474 11.593 2.626-29.18 27.555-10.393Z"/>
    <path fill="#93B4E1" d="M880.894 44.332a.415.415 0 0 1-.394-.275.43.43 0 0 1 .238-.559l78.331-31.304a.419.419 0 0 1 .55.241.43.43 0 0 1-.238.559L881.05 44.299a.327.327 0 0 1-.156.033Zm4.301 13.418a.433.433 0 0 1-.402-.283.425.425 0 0 1 .255-.55L963.83 28.28a.416.416 0 0 1 .542.259c.073.225-.033.475-.255.55l-78.782 28.638a.45.45 0 0 1-.14.025Z"/>
    <path fill="#99B1D1" d="m887.863 65.252-11.927 4.109a.542.542 0 0 1-.714-.534l.641-29.68a.566.566 0 0 1 .336-.5l9.875-4.042c.344-.141.722.109.747.484l1.403 29.613a.534.534 0 0 1-.361.55Z"/>
    <path fill="#99B1D1" d="M875.764 69.653a.758.758 0 0 1-.468-.159.82.82 0 0 1-.32-.667l.64-29.68a.8.8 0 0 1 .493-.724l9.874-4.043a.769.769 0 0 1 .723.067.81.81 0 0 1 .361.642l1.403 29.613a.81.81 0 0 1-.533.8L876.01 69.61a.803.803 0 0 1-.246.041Zm10.523-34.83a.25.25 0 0 0-.107.024l-9.874 4.042a.29.29 0 0 0-.181.267l-.64 29.68c0 .1.041.183.115.241a.27.27 0 0 0 .262.042l11.927-4.109a.295.295 0 0 0 .197-.292l-1.403-29.613c-.009-.1-.05-.183-.132-.233a.336.336 0 0 0-.164-.05Zm38.365-15.853 5.91 31.063a.554.554 0 0 1-.361.625l-18.534 6.392a.54.54 0 0 1-.714-.458l-3.358-30.721a.55.55 0 0 1 .329-.567l15.981-6.726c.32-.15.681.05.747.392Z"/>
    <path fill="#99B1D1" d="M911.486 57.334a.797.797 0 0 1-.427-.125.802.802 0 0 1-.361-.592l-3.357-30.721a.814.814 0 0 1 .484-.834l15.982-6.726a.782.782 0 0 1 .681.034.782.782 0 0 1 .402.558l5.91 31.063a.813.813 0 0 1-.525.917L911.741 57.3a1.226 1.226 0 0 1-.255.034Zm12.633-38.556a.286.286 0 0 0-.115.025l-15.982 6.726a.314.314 0 0 0-.18.308l3.357 30.722a.288.288 0 0 0 .131.216c.074.05.164.059.247.034l18.534-6.393a.287.287 0 0 0 .188-.333l-5.91-31.063a.301.301 0 0 0-.147-.2c-.025-.034-.074-.042-.123-.042ZM948.53 8.201l18.411-7.75a.542.542 0 0 1 .714.316l12.066 32.23a.555.555 0 0 1-.329.717l-21.218 7.318a.544.544 0 0 1-.697-.367l-9.251-31.797a.547.547 0 0 1 .304-.667Z"/>
    <path fill="#99B1D1" d="M957.986 41.306a.802.802 0 0 1-.362-.091.77.77 0 0 1-.394-.484l-9.25-31.796a.813.813 0 0 1 .459-.975L966.85.208a.756.756 0 0 1 .616.009c.197.083.353.25.427.45l12.066 32.23a.824.824 0 0 1-.025.625.76.76 0 0 1-.46.417l-21.218 7.318a.806.806 0 0 1-.27.05Zm-9.358-32.871a.287.287 0 0 0-.164.358l9.242 31.788a.285.285 0 0 0 .148.175.316.316 0 0 0 .23.017l21.218-7.318a.305.305 0 0 0 .172-.15.288.288 0 0 0 .009-.233L967.417.842a.282.282 0 0 0-.156-.167.277.277 0 0 0-.23 0l-18.403 7.76Zm-2.241 1.325 9.194 31.597a.552.552 0 0 1-.345.675l-22.08 7.61a.543.543 0 0 1-.706-.417l-5.951-31.272a.563.563 0 0 1 .328-.617l18.83-7.926a.537.537 0 0 1 .73.35Z"/>
    <path fill="#99B1D1" d="M932.983 49.925a.769.769 0 0 1-.402-.109.8.8 0 0 1-.377-.542l-5.951-31.271a.816.816 0 0 1 .476-.9l18.829-7.926a.8.8 0 0 1 .649.016c.205.1.353.284.418.5l9.194 31.597a.803.803 0 0 1-.509.992l-22.08 7.61a1.17 1.17 0 0 1-.247.032ZM945.87 9.617a.286.286 0 0 0-.115.025l-18.829 7.927a.3.3 0 0 0-.173.325l5.951 31.271a.295.295 0 0 0 .14.2c.074.042.156.05.238.025l22.08-7.61a.301.301 0 0 0 .189-.366l-9.193-31.597a.29.29 0 0 0-.156-.183c-.05-.008-.091-.017-.132-.017Zm-57.268 23.839 16.523-6.902a.544.544 0 0 1 .747.442l3.521 30.038a.538.538 0 0 1-.361.584l-18.395 6.576c-.336.125-.697-.125-.722-.492l-1.65-29.713a.56.56 0 0 1 .337-.533Z"/>
    <path fill="#99B1D1" d="M890.457 64.485a.79.79 0 0 1-.788-.758l-1.65-29.713a.817.817 0 0 1 .492-.792l16.523-6.901c.23-.1.485-.075.706.05.214.125.353.35.386.6l3.521 30.038a.817.817 0 0 1-.525.859l-18.394 6.567a.781.781 0 0 1-.271.05ZM888.7 33.69a.297.297 0 0 0-.18.291l1.649 29.714c.009.091.05.174.132.224.074.05.172.067.254.034l18.395-6.576a.294.294 0 0 0 .189-.317l-3.522-30.038a.283.283 0 0 0-.394-.233l-16.523 6.9Z"/>
    <path fill="url(#p)" d="m849.539 74.112 22.449 16.127-30.189 8.26-20.734-12.794 28.474-11.593Z"/>
    <path fill="url(#q)" d="M819.472 54.75c-7.363 9.952-8.315 21.845-2.126 26.563 6.189 4.717 17.172.475 24.526-9.477 7.363-9.951 8.315-21.845 2.126-26.562-6.18-4.718-17.163-.475-24.526 9.476Z"/>
    <path fill="url(#r)" d="M819.472 54.75c-7.363 9.952-8.561 21.654-2.676 26.146 5.886 4.492 16.622.058 23.985-9.885 7.363-9.943 8.561-21.653 2.676-26.146-5.886-4.492-16.622-.066-23.985 9.885Z"/>
    <path fill="url(#s)" d="M826.852 61.03h1.231v.833h-1.231z"/>
    <path fill="url(#t)" d="M819.137 58.446h14.775v13.252h-14.775z"/>
    <path fill="url(#u)" d="M833.091 70.781h2.38v2.25h-2.38z"/>
    <path fill="url(#v)" d="M822.666 48.611h22.901v6.584h-22.901z"/>
    <path fill="url(#w)" d="M822.666 54.612h1.806v1.083h-1.806z"/>
    <path fill="url(#x)" d="M822.748 56.279h.657v1.167h-.657z"/>
    <path fill="url(#y)" d="M816.51 57.196h11.163v23.42H816.51z"/>
    <path fill="url(#z)" d="M815.525 58.196h1.97v2.5h-1.97z"/>
    <path fill="url(#A)" d="m870.404 63.827-3.874-3.15-.197 6.525 4.071 3.26v-6.635Z"/>
    <path fill="url(#B)" d="m860.538 55.934-2.586-1.875-.738 15.269 2.757 1.95.567-15.344Z"/>
    <path fill="url(#C)" d="m855.761 68.36-2.676-1.758s-.501 4.642-.337 4.642c.164 0 2.791 1.642 2.791 1.642l.222-4.525Z"/>
    <path fill="url(#D)" d="m855.153 51.825-1.838-1.467-.058 1.867 1.896 1.584v-1.984Z"/>
    <path fill="url(#E)" d="m864.519 76.17.221 2.8c0-.008-.008-.024-.008-.041a1.545 1.545 0 0 0-.033-.2.31.31 0 0 1-.016-.092c-.468-1.517-3.168-1.908-3.168-1.908l-.033.008.246-1.992c1.642-.017 2.791 1.425 2.791 1.425Z"/>
    <path fill="url(#F)" d="m858.272 75.779 3.407-1.017h.041l-.246 1.992-3.259.9.057-1.875Z"/>
    <path fill="url(#G)" d="m858.215 77.645 3.283 2.092 3.234-.733s0-.008-.008-.033c0-.009-.008-.025-.008-.042-.008-.042-.017-.108-.033-.2a.311.311 0 0 1-.016-.092c-.468-1.517-3.169-1.909-3.169-1.909l-3.283.917Z"/>
    <path fill="#1B1C20" d="M870.265 79.204a.285.285 0 0 1-.156-.05l-.403-.308a.264.264 0 0 1-.049-.359.254.254 0 0 1 .353-.05l.402.309a.264.264 0 0 1 .05.358.246.246 0 0 1-.197.1Zm-1.141-.884a.284.284 0 0 1-.156-.05l-.739-.574a.263.263 0 0 1-.049-.359.254.254 0 0 1 .353-.05l.738.575a.264.264 0 0 1 .05.359.244.244 0 0 1-.197.1Zm-1.478-1.141a.287.287 0 0 1-.156-.05l-.739-.575a.264.264 0 0 1-.049-.359.254.254 0 0 1 .353-.05l.739.576a.263.263 0 0 1 .049.358.243.243 0 0 1-.197.1Zm-1.477-1.142a.285.285 0 0 1-.156-.05l-.739-.575a.263.263 0 0 1-.049-.359.254.254 0 0 1 .353-.05l.738.576a.264.264 0 0 1 .05.358.233.233 0 0 1-.197.1Zm-1.478-1.142a.29.29 0 0 1-.156-.05l-.738-.575a.264.264 0 0 1-.05-.358.254.254 0 0 1 .353-.05l.739.575a.263.263 0 0 1 .049.358.256.256 0 0 1-.197.1Zm-1.477-1.15a.285.285 0 0 1-.156-.05l-.739-.575a.263.263 0 0 1-.049-.359.254.254 0 0 1 .353-.05l.738.576a.264.264 0 0 1 .05.358.223.223 0 0 1-.197.1Zm-1.478-1.142a.29.29 0 0 1-.156-.05l-.402-.308a.263.263 0 0 1-.049-.359.254.254 0 0 1 .353-.05l.402.309a.263.263 0 0 1 .049.358.223.223 0 0 1-.197.1Zm8.414-10.61-2.939-2.1 1.568-.592 1.313.908.058 1.784Zm-2.52-2.042 2.298 1.642-.049-1.275-1.141-.792-1.108.425Z"/>
    <path fill="url(#H)" d="m865.972 58.934-2.093-1.617-.173 4.76-.747-.509-.082 2.209 2.676 1.867.419-6.71Z"/>
    <path fill="#40424F" d="m862.582 57.117 10.293-6.142c.394-.234.886.083.87.566l-.279 6.343c-.017.3-.222.542-.501.583l-10.014 1.326c-.353.05-.665-.234-.665-.609V57.66c0-.225.115-.425.296-.542Z"/>
    <path fill="#2D4E5C" d="M834.594 65.439c.501-.677.587-1.47.192-1.772-.395-.301-1.121.003-1.622.68-.501.678-.587 1.471-.192 1.772.395.302 1.121-.003 1.622-.68Z"/>
    <path fill="url(#I)" d="M862.04 60.468c.694 0 1.256-.97 1.256-2.167 0-1.197-.562-2.167-1.256-2.167s-1.256.97-1.256 2.167c0 1.197.562 2.167 1.256 2.167Z"/>
    <path fill="url(#J)" d="m862.573 56.817 9.957-5.7a.562.562 0 0 1 .837.524l-.262 5.885a.576.576 0 0 1-.485.541l-9.685 1.376a.565.565 0 0 1-.641-.567v-1.559a.56.56 0 0 1 .279-.5Z"/>
    <path fill="#1B1C20" d="m956.489 4.504-.242.081 10.748 33.068.242-.081-10.748-33.068Z"/>
    <path fill="url(#K)" d="m887.412 65.102-11.927 4.109a.542.542 0 0 1-.714-.534l.64-29.68a.567.567 0 0 1 .337-.5l9.874-4.041c.345-.142.722.108.747.483l1.404 29.613a.543.543 0 0 1-.361.55Z"/>
    <path fill="url(#L)" d="m924.201 18.82 5.91 31.063a.553.553 0 0 1-.362.625L911.215 56.9a.54.54 0 0 1-.714-.458l-3.357-30.73a.55.55 0 0 1 .328-.566l15.982-6.726c.32-.142.681.05.747.4Z"/>
    <path fill="url(#M)" d="M948.078 8.043 966.489.292a.542.542 0 0 1 .714.317l12.067 32.23a.556.556 0 0 1-.329.716l-21.218 7.318a.545.545 0 0 1-.698-.366l-9.25-31.797a.542.542 0 0 1 .303-.667Z"/>
    <path fill="url(#N)" d="m945.936 9.61 9.193 31.596a.552.552 0 0 1-.345.676l-22.08 7.61a.543.543 0 0 1-.706-.418l-5.951-31.271a.564.564 0 0 1 .329-.617l18.829-7.926a.533.533 0 0 1 .731.35Z"/>
    <path fill="url(#O)" d="m888.15 33.305 16.523-6.9a.543.543 0 0 1 .747.441l3.522 30.038a.539.539 0 0 1-.362.583l-18.394 6.576c-.337.125-.698-.125-.722-.491l-1.65-29.713a.562.562 0 0 1 .336-.534Z"/>
    <path fill="#93B4E1" d="M871.988 53.217a.494.494 0 0 1-.468-.334.511.511 0 0 1 .296-.658l3.472-1.325c.263-.1.55.033.648.3a.51.51 0 0 1-.295.658l-3.472 1.325c-.066.017-.123.034-.181.034Zm0 4.159a.51.51 0 0 1-.484-.375.507.507 0 0 1 .345-.625l3.513-1.009a.497.497 0 0 1 .615.35.507.507 0 0 1-.344.625l-3.513 1.009a.37.37 0 0 1-.132.025Z"/>
    <path fill="#C9DAF0" d="M871.89 52.825a.222.222 0 0 1-.205-.142.22.22 0 0 1 .131-.283l3.472-1.325a.215.215 0 0 1 .279.133.22.22 0 0 1-.131.283l-3.472 1.326c-.025.008-.05.008-.074.008Zm0 4.167a.23.23 0 0 1-.214-.158.224.224 0 0 1 .148-.275l3.513-1.009a.22.22 0 0 1 .271.15.223.223 0 0 1-.148.275l-3.513 1.009c-.024 0-.041.008-.057.008Z"/>
    <g opacity=".32">
      <path fill="#1B1C20" d="m875.403 40.24-.033-.092 92.104-38.814.033.091-92.104 38.815Zm92.938-36.576-93.027 38.602.038.093 93.026-38.602-.037-.093Zm.841 2.269-93.92 38.46.037.092 93.92-38.46-.037-.092Zm.871 2.31-94.835 38.293.036.093 94.835-38.293-.036-.093Zm.853 2.273-95.724 38.168.036.093 95.724-38.167-.036-.094Zm.863 2.298-96.634 37.997.036.093 96.634-37.996-.036-.094Zm.862 2.317-97.546 37.82.035.093 97.546-37.82-.035-.093Zm.871 2.303-98.461 37.634.034.094 98.461-37.635-.034-.093Zm.855 2.269-99.354 37.52.034.094 99.355-37.52-.035-.094Zm.848 2.314L874.941 59.33l.034.094 100.264-37.312-.034-.094Zm.883 2.338L874.894 61.453l.033.094L976.122 24.45l-.034-.094Zm.852 2.263-102.092 36.97.033.093 102.092-36.968-.033-.095Zm.828 2.232-102.94 36.952.033.094 102.94-36.952-.033-.094Zm.858 2.325L874.762 67.908l.033.095L978.658 31.27l-.032-.095Z" opacity=".32"/>
      <path fill="#FFFDEE" d="m967.454 1.272-92.113 38.802.098.239L967.551 1.51l-.097-.239Zm.846 2.29-93.006 38.653.096.239 93.007-38.653-.097-.24Zm.849 2.3-93.91 38.48.095.24 93.91-38.48-.095-.24Zm.882 2.308-94.834 38.302.094.24 94.834-38.303-.094-.24Zm.862 2.28-95.734 38.157.093.24 95.734-38.156-.093-.24Zm.85 2.298-96.634 37.997.092.241 96.634-37.997-.092-.24Zm.865 2.3-97.546 37.83.09.241 97.546-37.83-.09-.24Zm.848 2.283-98.44 37.677.09.242 98.44-37.677-.09-.242Zm.864 2.307-99.355 37.5.089.242 99.354-37.5-.088-.242Zm.861 2.318L874.917 59.268l.087.243 100.264-37.312-.087-.243Zm.854 2.261L874.883 61.425l.087.243L976.121 24.46l-.086-.243Zm.877 2.286L874.841 63.547l.086.244 102.07-37.046-.085-.243Zm.855 2.337L874.783 65.67l.085.243 102.984-36.83-.085-.244Zm.844 2.265-103.874 36.71.084.245 103.874-36.71-.084-.245Z" opacity=".32"/>
    </g>
    <path fill="#FFFDEE" d="m965.031.916-.238.09 12.134 33.246.238-.09L965.031.916Zm-2.646 1.117-.24.087 11.754 33.176.239-.088-11.753-33.175Zm-2.666 1.127-.24.085 11.368 33.1.241-.085-11.369-33.1Zm-2.647 1.1-.241.082 10.991 33.03.241-.083-10.991-33.03Zm-2.655 1.133-.242.08 10.606 32.956.242-.08-10.606-32.956Zm-2.65 1.112-.243.078 10.227 32.888.243-.078-10.227-32.888Zm-2.649 1.125-.243.074 9.845 32.817.243-.075-9.845-32.817Zm-2.656 1.11-.244.073 9.465 32.749.244-.073-9.465-32.748Zm-2.643 1.108-.244.07 9.085 32.679.245-.07-9.086-32.679Zm-2.655 1.124-.245.068 8.703 32.604.245-.067-8.703-32.605Zm-2.65 1.118-.246.065 8.322 32.535.247-.065-8.323-32.535Zm-2.653 1.132-.247.062 7.938 32.46.247-.062-7.938-32.46Zm-2.639 1.104-.248.06 7.56 32.393.248-.06-7.56-32.393Zm-2.666 1.12-.248.056 7.178 32.319.249-.057-7.179-32.318Zm-2.641 1.116-.249.054 6.798 32.252.249-.054-6.798-32.252Zm-2.659 1.13-.249.05 6.414 32.178.25-.052-6.415-32.176Zm-2.65 1.106-.25.049 6.036 32.11.25-.049-6.036-32.11Zm-2.657 1.12-.251.045L925.352 52l.251-.046-5.654-32.035Zm-2.64 1.119-.251.043 5.273 31.97.251-.043-5.273-31.97Zm-2.654 1.111-.252.04 4.893 31.895.251-.04-4.892-31.895Zm-2.658 1.119-.252.037 4.513 31.827.251-.037-4.512-31.827Zm-2.65 1.127-.252.034 4.129 31.754.252-.034-4.129-31.754Zm-2.644 1.115-.252.03 3.749 31.687.253-.03-3.75-31.687Zm-2.656 1.119-.253.028 3.366 31.613.253-.028-3.366-31.613Zm-2.659 1.112-.253.024 2.987 31.543.253-.025-2.987-31.543Zm-2.646 1.118-.253.021 2.605 31.47.254-.022-2.606-31.47Zm-2.654 1.119-.253.018 2.224 31.398.253-.018-2.224-31.398Zm-2.656 1.123-.254.015 1.842 31.323.254-.015-1.842-31.323Zm-2.644 1.118-.254.012 1.461 31.254.254-.013-1.461-31.253Zm-2.651 1.118-.254.009 1.081 31.186.254-.009-1.081-31.186Zm-2.656 1.111-.254.006.699 31.112.255-.006-.7-31.112Zm-2.658 1.123-.255.003.319 31.043.254-.002-.318-31.044Zm-2.907 1.12-.052 30.972h.254l.052-30.972h-.254Zm-2.646 1.112-.44 30.901.255.004.44-30.902-.255-.003Z" opacity=".29"/>
    <path fill="#fff" d="M875.108 53.492a.493.493 0 0 1-.468-.334.51.51 0 0 1 .295-.658l97.637-37.556c.262-.1.55.033.648.3a.511.511 0 0 1-.295.659l-97.637 37.555a.459.459 0 0 1-.18.034Z" opacity=".59"/>
    <path fill="#fff" d="M942.267 46.64a.508.508 0 0 1-.484-.383l-7.798-31.938a.509.509 0 0 1 .369-.617c.271-.066.542.1.608.375l7.789 31.93a.509.509 0 0 1-.484.634Zm-22.819 7.927a.497.497 0 0 1-.492-.434l-4.925-31.88a.515.515 0 0 1 .418-.583.509.509 0 0 1 .575.425l4.925 31.88a.514.514 0 0 1-.419.583c-.024.009-.057.009-.082.009Zm-21.07 6.776a.51.51 0 0 1-.501-.467l-2.709-30.671a.505.505 0 0 1 .452-.55.5.5 0 0 1 .541.458l2.709 30.672a.503.503 0 0 1-.451.55c-.009.008-.025.008-.041.008Zm69.564-23.487a.501.501 0 0 1-.476-.35l-10.991-33.03a.502.502 0 0 1 .312-.642.49.49 0 0 1 .632.317l10.991 33.03a.501.501 0 0 1-.312.642.351.351 0 0 1-.156.033Z" opacity=".59"/>
    <path fill="#BED2ED" d="M947.939 8.601a.247.247 0 0 1-.23-.158.255.255 0 0 1 .131-.333L966.908.017c.131-.059.271.008.328.133a.255.255 0 0 1-.131.333l-19.076 8.102a.424.424 0 0 1-.09.016Z"/>
    <path fill="#EFFFFF" d="M957.469 41.015a.191.191 0 0 1-.189-.142c-.033-.108.016-.225.123-.258l21.834-7.601c.106-.034.221.016.254.125.033.108-.016.225-.123.258l-21.834 7.601c-.024.009-.041.017-.065.017Z"/>
    <path fill="#BED2ED" d="M926.327 17.711a.247.247 0 0 1-.23-.158.255.255 0 0 1 .131-.334l19.068-8.092a.246.246 0 0 1 .328.133.255.255 0 0 1-.131.333l-19.068 8.093c-.033.025-.066.025-.098.025Z"/>
    <path fill="#EFFFFF" d="M932.409 49.691a.193.193 0 0 1-.189-.142c-.033-.108.016-.224.123-.258l22.737-7.918c.107-.033.222.017.254.125.033.109-.016.225-.123.259l-22.736 7.918c-.025.016-.042.016-.066.016ZM911.215 57.1a.191.191 0 0 1-.188-.141c-.033-.108.024-.225.123-.258l18.534-6.393a.204.204 0 0 1 .254.125c.033.108-.025.225-.123.258l-18.534 6.401c-.025.009-.049.009-.066.009Zm-21.382 7.152a.203.203 0 0 1-.189-.134.196.196 0 0 1 .123-.258l18.748-6.801a.191.191 0 0 1 .254.125.196.196 0 0 1-.123.258l-18.747 6.801c-.017 0-.042.009-.066.009Zm-14.611 5.192a.191.191 0 0 1-.188-.142c-.033-.108.024-.225.123-.258l12.189-4.142a.204.204 0 0 1 .254.125c.033.108-.024.225-.123.258l-12.189 4.142c-.025.017-.049.017-.066.017Z"/>
    <path fill="#BED2ED" d="M907.472 25.396a.249.249 0 0 1-.23-.159.26.26 0 0 1 .14-.333l15.99-6.726a.25.25 0 0 1 .328.142.26.26 0 0 1-.14.333l-15.989 6.726a.407.407 0 0 1-.099.017Zm-19.469 8.318a.24.24 0 0 1-.23-.159.259.259 0 0 1 .139-.333l17.122-7.051a.253.253 0 0 1 .329.142.26.26 0 0 1-.14.333l-17.122 7.043a.218.218 0 0 1-.098.025Zm-12.493 5.242a.266.266 0 0 1-.238-.167.25.25 0 0 1 .147-.325l10.572-4.092a.246.246 0 0 1 .321.15.251.251 0 0 1-.148.325l-10.572 4.093a.295.295 0 0 1-.082.016Z"/>
    <path fill="url(#P)" d="M817.469 52.958c-2.002 2.7-2.364 5.86-.812 7.043 1.551 1.184 4.432-.05 6.435-2.75 2.003-2.7 2.364-5.86.813-7.043-1.56-1.183-4.441.05-6.436 2.75Z"/>
    <path fill="url(#Q)" d="M819.144 53.8c-.673.909-.87 1.909-.443 2.234.426.325 1.313-.15 1.986-1.05.673-.909.87-1.909.443-2.234-.427-.333-1.313.142-1.986 1.05Z"/>
    <path fill="url(#R)" d="M822.42 54.612h.985v1.25h-.985z"/>
    <path fill="url(#S)" d="M815.279 50.111h7.634v8.335h-7.634z"/>
    <path fill="url(#T)" d="M822.174 54.362h2.38v1.75h-2.38z"/>
    <path fill="url(#U)" d="m824.766 55.042-1.625-.675a.539.539 0 0 0-.681.242l-.386.708a.551.551 0 0 0 .099.667l1.297 1.267 1.296-2.21Z"/>
    <path fill="url(#V)" d="m863.797 80.954-1.182-2.783s-.78-.926-2.208-.35l-2.02 2.242 5.41.891Z"/>
    <path fill="url(#W)" d="M858.281 80.438c-.124.758 1.009 1.583 2.536 1.841 1.527.259 2.865-.15 2.988-.916.123-.759-1.01-1.584-2.537-1.842-1.526-.25-2.864.158-2.987.917Z"/>
    <path fill="url(#X)" d="m850.951 77.07-2.816-2.383-3.267 1.333v2.584l3.374 2.1 2.709-1.05V77.07Z"/>
    <path fill="url(#Y)" d="m850.951 79.654-3.037-2.342s-3.284 1.292-3.037 1.292l2.93 2.342 3.144-1.292Z"/>
    <path fill="url(#Z)" d="m846.994 80.413.813-1.867s.098-.184.386-.217a.357.357 0 0 1 .427.308l.114 1.934-1.74-.158Z"/>
    <path fill="url(#aa)" d="M847.807 80.946c.484.042.895-.117.936-.367.032-.25-.329-.491-.805-.533-.484-.042-.894.117-.935.367-.042.25.32.492.804.533Z"/>
    <path fill="url(#ab)" d="M847.914 77.312V74.78l-3.037 1.241v2.592c.254-.158 3.037-1.3 3.037-1.3Z"/>
    <path fill="url(#ac)" d="m828.189 86.264-2.815-2.384-3.267 1.333v2.584l3.373 2.1 2.709-1.05v-2.583Z"/>
    <path fill="url(#ad)" d="m828.189 88.847-3.037-2.342s-3.283 1.292-3.037 1.292l2.931 2.342 3.143-1.292Z"/>
    <path fill="url(#ae)" d="m824.233 89.606.813-1.867s.098-.184.385-.217a.357.357 0 0 1 .427.308l.115 1.934-1.74-.158Z"/>
    <path fill="url(#af)" d="M825.046 90.14c.484.04.894-.118.935-.368.033-.25-.328-.491-.804-.533-.484-.042-.895.117-.936.367-.041.25.32.492.805.533Z"/>
    <path fill="url(#ag)" d="M825.152 86.505v-2.534l-3.037 1.242v2.592c.255-.158 3.037-1.3 3.037-1.3Z"/>
    <path fill="url(#ah)" d="m869.05 89.356-2.151-1.809-2.479 1.009v1.967l2.561 1.6 2.069-.8v-1.967Z"/>
    <path fill="url(#ai)" d="m869.05 91.323-2.315-1.784s-2.495.983-2.315.983l2.233 1.776 2.397-.975Z"/>
    <path fill="url(#aj)" d="m866.038 91.898.615-1.417s.074-.142.296-.167a.266.266 0 0 1 .32.234l.09 1.475-1.321-.125Z"/>
    <path fill="url(#ak)" d="M866.653 92.306c.369.033.681-.092.714-.283.025-.192-.246-.375-.616-.409-.369-.033-.681.092-.714.284-.024.191.247.366.616.408Z"/>
    <path fill="url(#al)" d="M866.735 89.54v-1.926l-2.315.942v1.967c.197-.117 2.315-.984 2.315-.984Z"/>
    <path fill="url(#am)" d="m845.632 96.048-2.151-1.808-2.479 1.008v1.967l2.561 1.6 2.069-.8v-1.967Z"/>
    <path fill="url(#an)" d="m845.632 98.015-2.315-1.783s-2.495.983-2.315.983l2.233 1.775 2.397-.975Z"/>
    <path fill="url(#ao)" d="m842.619 98.59.616-1.416s.074-.142.296-.167a.266.266 0 0 1 .32.233l.09 1.475-1.322-.125Z"/>
    <path fill="url(#ap)" d="M843.235 98.999c.369.033.681-.092.714-.284.025-.191-.246-.375-.616-.408-.369-.033-.681.092-.714.283-.024.192.247.375.616.409Z"/>
    <path fill="url(#aq)" d="M843.317 96.232v-1.926l-2.315.942v1.967c.197-.108 2.315-.983 2.315-.983Z"/>
    <path fill="url(#ar)" d="m834.148 88.98.756-3.125c.517-2.9 7.141-4.876 13.059-3.25 5.795 1.591 8.257 4.383 8.397 6.867l-.755 3.384-2.389-.433c-2.15.783-5.179 1-8.438.45-3.447-.584-6.378-1.884-8.142-3.443l-2.488-.45Z"/>
    <path fill="url(#as)" d="M834.148 88.98c-.467 2.876 3.957 6.027 9.883 7.018 5.926 1 11.114-.525 11.582-3.409.468-2.875-3.956-6.025-9.883-7.017-5.926-.992-11.114.533-11.582 3.409Z"/>
    <path fill="url(#at)" d="M847.594 96.565c-1.166 0-2.381-.1-3.612-.308-2.906-.492-5.549-1.5-7.445-2.85-1.953-1.384-2.889-2.976-2.643-4.468s1.633-2.692 3.924-3.359c2.224-.65 5.048-.742 7.945-.258 2.906.491 5.549 1.5 7.445 2.85 1.953 1.384 2.889 2.975 2.643 4.467-.246 1.492-1.633 2.693-3.924 3.36-1.272.374-2.749.566-4.333.566Zm-5.434-11.043c-1.527 0-2.963.183-4.195.55-2.093.617-3.357 1.667-3.57 2.95-.214 1.292.656 2.7 2.438 3.968 1.838 1.308 4.407 2.283 7.239 2.758 2.832.475 5.574.392 7.724-.241 2.093-.617 3.357-1.667 3.571-2.95.213-1.293-.657-2.701-2.438-3.968-1.839-1.309-4.408-2.284-7.24-2.759a20.833 20.833 0 0 0-3.529-.308Z"/>
    <path fill="url(#au)" d="m848.743 91.856-1.732-4.076s-1.396-1.3-3.234-.508l-2.955 3.284 7.921 1.3Z"/>
    <path fill="url(#av)" d="M840.649 91.098c-.18 1.116 1.486 2.325 3.719 2.7 2.232.375 4.194-.225 4.375-1.342.18-1.117-1.486-2.325-3.719-2.7-2.232-.375-4.194.225-4.375 1.342Z"/>
    <path fill="url(#aw)" d="m830.463 58.692 3.858 5.026s.353.542 0 1.342c-.476 1.092-1.519.625-1.519.625l-5.507-2.709 3.168-4.284Z"/>
    <path fill="url(#ax)" d="M827.738 59.96c-.878 1.183-1.075 2.533-.443 3.008.632.484 1.846-.091 2.725-1.275.878-1.183 1.075-2.534.443-3.009-.624-.475-1.847.092-2.725 1.276Z"/>
  </g>
  <defs>
    <linearGradient id="b" x1="762.43" x2="830.421" y1="104.49" y2="54.728" gradientUnits="userSpaceOnUse">
      <stop stop-color="#2870A9"/>
      <stop offset="1" stop-color="#264483"/>
    </linearGradient>
    <linearGradient id="c" x1="759.044" x2="825.052" y1="115.68" y2="67.368" gradientUnits="userSpaceOnUse">
      <stop stop-color="#2870A9"/>
      <stop offset="1" stop-color="#264483"/>
    </linearGradient>
    <linearGradient id="d" x1="753.241" x2="820.225" y1="130.488" y2="81.462" gradientUnits="userSpaceOnUse">
      <stop stop-color="#2870A9"/>
      <stop offset="1" stop-color="#264483"/>
    </linearGradient>
    <linearGradient id="e" x1="757.349" x2="822.781" y1="122.085" y2="74.195" gradientUnits="userSpaceOnUse">
      <stop stop-color="#2870A9"/>
      <stop offset="1" stop-color="#264483"/>
    </linearGradient>
    <linearGradient id="f" x1="761.45" x2="826.527" y1="109.098" y2="61.468" gradientUnits="userSpaceOnUse">
      <stop stop-color="#2870A9"/>
      <stop offset="1" stop-color="#264483"/>
    </linearGradient>
    <linearGradient id="g" x1="851.545" x2="849.728" y1="31.737" y2="31.737" gradientUnits="userSpaceOnUse">
      <stop stop-color="#B1C3D1"/>
      <stop offset="1" stop-color="#385E76"/>
    </linearGradient>
    <linearGradient id="h" x1="847.899" x2="852.99" y1="32.947" y2="32.409" gradientUnits="userSpaceOnUse">
      <stop stop-color="#7B99B1"/>
      <stop offset=".995" stop-color="#103E5B"/>
    </linearGradient>
    <linearGradient id="i" x1="851.537" x2="850.337" y1="36.3" y2="36.23" gradientUnits="userSpaceOnUse">
      <stop stop-color="#B1C3D1"/>
      <stop offset="1" stop-color="#385E76"/>
    </linearGradient>
    <linearGradient id="j" x1="852.114" x2="849.89" y1="41.56" y2="41.386" gradientUnits="userSpaceOnUse">
      <stop stop-color="#B1C3D1"/>
      <stop offset="1" stop-color="#385E76"/>
    </linearGradient>
    <linearGradient id="k" x1="853.499" x2="850.422" y1="47.271" y2="47.271" gradientUnits="userSpaceOnUse">
      <stop stop-color="#B1C3D1"/>
      <stop offset="1" stop-color="#385E76"/>
    </linearGradient>
    <linearGradient id="l" x1="851.336" x2="847.581" y1="45.062" y2="45.062" gradientUnits="userSpaceOnUse">
      <stop stop-color="#B1C3D1"/>
      <stop offset="1" stop-color="#385E76"/>
    </linearGradient>
    <linearGradient id="m" x1="844.435" x2="852.66" y1="45.802" y2="44.933" gradientUnits="userSpaceOnUse">
      <stop stop-color="#B1C3D1"/>
      <stop offset=".995" stop-color="#103E5B"/>
    </linearGradient>
    <linearGradient id="n" x1="860.077" x2="844.238" y1="61.697" y2="76.361" gradientUnits="userSpaceOnUse">
      <stop stop-color="#A6B7C2"/>
      <stop offset="1" stop-color="#D0DAE3"/>
    </linearGradient>
    <linearGradient id="o" x1="834.72" x2="840.79" y1="78.307" y2="37.956" gradientUnits="userSpaceOnUse">
      <stop stop-color="#385E76"/>
      <stop offset="1" stop-color="#B1C3D1"/>
    </linearGradient>
    <linearGradient id="p" x1="776.081" x2="883.846" y1="107.972" y2="76.133" gradientUnits="userSpaceOnUse">
      <stop stop-color="#B1C3D1"/>
      <stop offset="1" stop-color="#58788C"/>
    </linearGradient>
    <linearGradient id="q" x1="837.855" x2="826.49" y1="43.563" y2="73.848" gradientUnits="userSpaceOnUse">
      <stop stop-color="#B1C3D1"/>
      <stop offset=".995" stop-color="#103E5B"/>
    </linearGradient>
    <linearGradient id="r" x1="836.17" x2="820.94" y1="73.638" y2="47.32" gradientUnits="userSpaceOnUse">
      <stop stop-color="#B1C3D1"/>
      <stop offset="1" stop-color="#5D7B8F"/>
    </linearGradient>
    <linearGradient id="A" x1="865.718" x2="878.288" y1="67.644" y2="58.443" gradientUnits="userSpaceOnUse">
      <stop stop-color="#2870A9"/>
      <stop offset="1" stop-color="#264483"/>
    </linearGradient>
    <linearGradient id="B" x1="853.475" x2="878.708" y1="66.806" y2="48.338" gradientUnits="userSpaceOnUse">
      <stop stop-color="#2870A9"/>
      <stop offset="1" stop-color="#264483"/>
    </linearGradient>
    <linearGradient id="C" x1="852.123" x2="861.978" y1="71.402" y2="64.189" gradientUnits="userSpaceOnUse">
      <stop stop-color="#2870A9"/>
      <stop offset="1" stop-color="#264483"/>
    </linearGradient>
    <linearGradient id="D" x1="853.334" x2="857.533" y1="52.761" y2="49.687" gradientUnits="userSpaceOnUse">
      <stop stop-color="#2870A9"/>
      <stop offset="1" stop-color="#264483"/>
    </linearGradient>
    <linearGradient id="E" x1="864.998" x2="850.899" y1="76.844" y2="77.023" gradientUnits="userSpaceOnUse">
      <stop stop-color="#58788C"/>
      <stop offset="1" stop-color="#B1C3D1"/>
    </linearGradient>
    <linearGradient id="F" x1="862.052" x2="846.626" y1="76.174" y2="76.37" gradientUnits="userSpaceOnUse">
      <stop stop-color="#58788C"/>
      <stop offset="1" stop-color="#B1C3D1"/>
    </linearGradient>
    <linearGradient id="G" x1="852.792" x2="866.188" y1="80.973" y2="77.015" gradientUnits="userSpaceOnUse">
      <stop stop-color="#58788C"/>
      <stop offset="1" stop-color="#B1C3D1"/>
    </linearGradient>
    <linearGradient id="H" x1="861.833" x2="874.584" y1="63.656" y2="54.323" gradientUnits="userSpaceOnUse">
      <stop stop-color="#2870A9"/>
      <stop offset="1" stop-color="#264483"/>
    </linearGradient>
    <linearGradient id="I" x1="862.48" x2="861.472" y1="56.499" y2="60.469" gradientUnits="userSpaceOnUse">
      <stop stop-color="#213848"/>
      <stop offset="1" stop-color="#2D556E"/>
    </linearGradient>
    <linearGradient id="J" x1="865.502" x2="870.499" y1="62.854" y2="50.811" gradientUnits="userSpaceOnUse">
      <stop stop-color="#5A91BD"/>
      <stop offset="1" stop-color="#264483"/>
    </linearGradient>
    <linearGradient id="K" x1="865.757" x2="935.985" y1="63.746" y2="12.347" gradientUnits="userSpaceOnUse">
      <stop stop-color="#2870A9"/>
      <stop offset="1" stop-color="#264483"/>
    </linearGradient>
    <linearGradient id="L" x1="872.344" x2="942.571" y1="72.746" y2="21.346" gradientUnits="userSpaceOnUse">
      <stop stop-color="#2870A9"/>
      <stop offset="1" stop-color="#264483"/>
    </linearGradient>
    <linearGradient id="M" x1="880.291" x2="950.518" y1="83.603" y2="32.203" gradientUnits="userSpaceOnUse">
      <stop stop-color="#2870A9"/>
      <stop offset="1" stop-color="#264483"/>
    </linearGradient>
    <linearGradient id="N" x1="876.25" x2="946.477" y1="78.082" y2="26.682" gradientUnits="userSpaceOnUse">
      <stop stop-color="#2870A9"/>
      <stop offset="1" stop-color="#264483"/>
    </linearGradient>
    <linearGradient id="O" x1="868.706" x2="938.933" y1="67.774" y2="16.375" gradientUnits="userSpaceOnUse">
      <stop stop-color="#2870A9"/>
      <stop offset="1" stop-color="#264483"/>
    </linearGradient>
    <linearGradient id="P" x1="816.524" x2="822.993" y1="50.743" y2="58.033" gradientUnits="userSpaceOnUse">
      <stop stop-color="#385E76"/>
      <stop offset="1" stop-color="#B1C3D1"/>
    </linearGradient>
    <linearGradient id="Q" x1="820.255" x2="819.552" y1="55.354" y2="53.406" gradientUnits="userSpaceOnUse">
      <stop stop-color="#A6B7C2"/>
      <stop offset="1" stop-color="#D0DAE3"/>
    </linearGradient>
    <linearGradient id="U" x1="823.191" x2="823.584" y1="56.599" y2="53.989" gradientUnits="userSpaceOnUse">
      <stop stop-color="#385E76"/>
      <stop offset="1" stop-color="#B1C3D1"/>
    </linearGradient>
    <linearGradient id="V" x1="858.789" x2="863.768" y1="79.555" y2="79.22" gradientUnits="userSpaceOnUse">
      <stop stop-color="#385E76"/>
      <stop offset="1" stop-color="#B1C3D1"/>
    </linearGradient>
    <linearGradient id="W" x1="861.337" x2="860.667" y1="79.708" y2="82.346" gradientUnits="userSpaceOnUse">
      <stop stop-color="#213848"/>
      <stop offset="1" stop-color="#2D556E"/>
    </linearGradient>
    <linearGradient id="X" x1="851.502" x2="824.891" y1="77.654" y2="77.992" gradientUnits="userSpaceOnUse">
      <stop stop-color="#58788C"/>
      <stop offset="1" stop-color="#B1C3D1"/>
    </linearGradient>
    <linearGradient id="Y" x1="845.467" x2="853.125" y1="80.527" y2="76.25" gradientUnits="userSpaceOnUse">
      <stop stop-color="#B1C3D1"/>
      <stop offset="1" stop-color="#58788C"/>
    </linearGradient>
    <linearGradient id="Z" x1="848.449" x2="846.561" y1="79.449" y2="80.194" gradientUnits="userSpaceOnUse">
      <stop stop-color="#385E76"/>
      <stop offset="1" stop-color="#B1C3D1"/>
    </linearGradient>
    <linearGradient id="aa" x1="847.942" x2="848.375" y1="80.398" y2="79.855" gradientUnits="userSpaceOnUse">
      <stop stop-color="#2D556E"/>
      <stop offset="1" stop-color="#213848"/>
    </linearGradient>
    <linearGradient id="ab" x1="848.21" x2="834.735" y1="76.669" y2="76.84" gradientUnits="userSpaceOnUse">
      <stop stop-color="#3D6279"/>
      <stop offset="1" stop-color="#B1C3D1"/>
    </linearGradient>
    <linearGradient id="ac" x1="828.742" x2="802.131" y1="86.848" y2="87.186" gradientUnits="userSpaceOnUse">
      <stop stop-color="#58788C"/>
      <stop offset="1" stop-color="#B1C3D1"/>
    </linearGradient>
    <linearGradient id="ad" x1="822.707" x2="830.365" y1="89.721" y2="85.443" gradientUnits="userSpaceOnUse">
      <stop stop-color="#B1C3D1"/>
      <stop offset="1" stop-color="#58788C"/>
    </linearGradient>
    <linearGradient id="ae" x1="825.688" x2="823.801" y1="88.643" y2="89.388" gradientUnits="userSpaceOnUse">
      <stop stop-color="#385E76"/>
      <stop offset="1" stop-color="#B1C3D1"/>
    </linearGradient>
    <linearGradient id="af" x1="825.182" x2="825.614" y1="89.591" y2="89.049" gradientUnits="userSpaceOnUse">
      <stop stop-color="#2D556E"/>
      <stop offset="1" stop-color="#213848"/>
    </linearGradient>
    <linearGradient id="ag" x1="825.45" x2="811.974" y1="85.862" y2="86.034" gradientUnits="userSpaceOnUse">
      <stop stop-color="#3D6279"/>
      <stop offset="1" stop-color="#B1C3D1"/>
    </linearGradient>
    <linearGradient id="ah" x1="869.465" x2="849.231" y1="89.799" y2="90.055" gradientUnits="userSpaceOnUse">
      <stop stop-color="#58788C"/>
      <stop offset="1" stop-color="#B1C3D1"/>
    </linearGradient>
    <linearGradient id="ai" x1="864.876" x2="870.699" y1="91.983" y2="88.731" gradientUnits="userSpaceOnUse">
      <stop stop-color="#B1C3D1"/>
      <stop offset="1" stop-color="#58788C"/>
    </linearGradient>
    <linearGradient id="aj" x1="867.144" x2="865.708" y1="91.163" y2="91.73" gradientUnits="userSpaceOnUse">
      <stop stop-color="#385E76"/>
      <stop offset="1" stop-color="#B1C3D1"/>
    </linearGradient>
    <linearGradient id="ak" x1="866.758" x2="867.087" y1="91.885" y2="91.472" gradientUnits="userSpaceOnUse">
      <stop stop-color="#2D556E"/>
      <stop offset="1" stop-color="#213848"/>
    </linearGradient>
    <linearGradient id="al" x1="866.962" x2="856.716" y1="89.05" y2="89.18" gradientUnits="userSpaceOnUse">
      <stop stop-color="#3D6279"/>
      <stop offset="1" stop-color="#B1C3D1"/>
    </linearGradient>
    <linearGradient id="am" x1="846.047" x2="825.813" y1="96.494" y2="96.751" gradientUnits="userSpaceOnUse">
      <stop stop-color="#58788C"/>
      <stop offset="1" stop-color="#B1C3D1"/>
    </linearGradient>
    <linearGradient id="an" x1="841.458" x2="847.281" y1="98.679" y2="95.426" gradientUnits="userSpaceOnUse">
      <stop stop-color="#B1C3D1"/>
      <stop offset="1" stop-color="#58788C"/>
    </linearGradient>
    <linearGradient id="ao" x1="843.725" x2="842.29" y1="97.859" y2="98.425" gradientUnits="userSpaceOnUse">
      <stop stop-color="#385E76"/>
      <stop offset="1" stop-color="#B1C3D1"/>
    </linearGradient>
    <linearGradient id="ap" x1="843.34" x2="843.668" y1="98.58" y2="98.168" gradientUnits="userSpaceOnUse">
      <stop stop-color="#2D556E"/>
      <stop offset="1" stop-color="#213848"/>
    </linearGradient>
    <linearGradient id="aq" x1="843.543" x2="833.297" y1="95.745" y2="95.875" gradientUnits="userSpaceOnUse">
      <stop stop-color="#3D6279"/>
      <stop offset="1" stop-color="#B1C3D1"/>
    </linearGradient>
    <linearGradient id="ar" x1="858.316" x2="761.439" y1="87.434" y2="88.664" gradientUnits="userSpaceOnUse">
      <stop stop-color="#4E7085"/>
      <stop offset="1" stop-color="#B1C3D1"/>
    </linearGradient>
    <linearGradient id="as" x1="856.327" x2="825.718" y1="90.385" y2="91.433" gradientUnits="userSpaceOnUse">
      <stop stop-color="#58788C"/>
      <stop offset="1" stop-color="#B1C3D1"/>
    </linearGradient>
    <linearGradient id="at" x1="855.835" x2="833.919" y1="90.402" y2="91.153" gradientUnits="userSpaceOnUse">
      <stop stop-color="#B1C3D1"/>
      <stop offset=".987" stop-color="#1B4662"/>
    </linearGradient>
    <linearGradient id="au" x1="845.163" x2="843.651" y1="92.299" y2="88.109" gradientUnits="userSpaceOnUse">
      <stop stop-color="#385E76"/>
      <stop offset="1" stop-color="#B1C3D1"/>
    </linearGradient>
    <linearGradient id="av" x1="843.56" x2="846.119" y1="94.442" y2="88.633" gradientUnits="userSpaceOnUse">
      <stop stop-color="#2D556E"/>
      <stop offset="1" stop-color="#213848"/>
    </linearGradient>
    <linearGradient id="aw" x1="832.908" x2="827.392" y1="61.015" y2="68.742" gradientUnits="userSpaceOnUse">
      <stop stop-color="#385E76"/>
      <stop offset="1" stop-color="#B1C3D1"/>
    </linearGradient>
    <linearGradient id="ax" x1="829.017" x2="829.797" y1="61.178" y2="63.117" gradientUnits="userSpaceOnUse">
      <stop stop-color="#2D556E"/>
      <stop offset="1" stop-color="#213848"/>
    </linearGradient>
    <pattern id="s" width="1" height="1" patternContentUnits="objectBoundingBox">
      <use xlink:href="#ay" transform="scale(.06667 .1)"/>
    </pattern>
    <pattern id="t" width="1" height="1" patternContentUnits="objectBoundingBox">
      <use xlink:href="#az" transform="scale(.00556 .00629)"/>
    </pattern>
    <pattern id="u" width="1" height="1" patternContentUnits="objectBoundingBox">
      <use xlink:href="#aA" transform="scale(.03448 .03704)"/>
    </pattern>
    <pattern id="v" width="1" height="1" patternContentUnits="objectBoundingBox">
      <use xlink:href="#aB" transform="scale(.00358 .01266)"/>
    </pattern>
    <pattern id="w" width="1" height="1" patternContentUnits="objectBoundingBox">
      <use xlink:href="#aC" transform="scale(.04545 .07692)"/>
    </pattern>
    <pattern id="x" width="1" height="1" patternContentUnits="objectBoundingBox">
      <use xlink:href="#aD" transform="scale(.125 .07143)"/>
    </pattern>
    <pattern id="y" width="1" height="1" patternContentUnits="objectBoundingBox">
      <use xlink:href="#aE" transform="scale(.00735 .00356)"/>
    </pattern>
    <pattern id="z" width="1" height="1" patternContentUnits="objectBoundingBox">
      <use xlink:href="#aF" transform="scale(.04167 .03333)"/>
    </pattern>
    <pattern id="R" width="1" height="1" patternContentUnits="objectBoundingBox">
      <use xlink:href="#aG" transform="scale(.08333 .06667)"/>
    </pattern>
    <pattern id="S" width="1" height="1" patternContentUnits="objectBoundingBox">
      <use xlink:href="#aH" transform="scale(.01075 .01)"/>
    </pattern>
    <pattern id="T" width="1" height="1" patternContentUnits="objectBoundingBox">
      <use xlink:href="#aI" transform="scale(.03448 .04762)"/>
    </pattern>
    <clipPath id="a">
      <path fill="#fff" d="M0 0h211v107H0z" transform="translate(769)"/>
    </clipPath>
  </defs>
</svg>
