<svg width="119" height="46" viewBox="0 0 119 46" fill="none" xmlns="http://www.w3.org/2000/svg">
<path d="M104.984 46H2.97635C2.08345 46 0.405866 46 0 34.0671C0 33.7694 0.108231 33.4988 0.297635 33.2824C0.48704 33.0659 0.784675 32.9576 1.08231 32.9306C1.51523 32.9306 43.2924 32.1188 62.6387 31.8212C106.283 31.1176 117.404 26.9235 117.512 26.8694C118.026 26.6529 118.621 26.8694 118.892 27.3565C119.162 27.8435 119.027 28.4388 118.567 28.7906C113.318 32.6059 109.963 38.64 107.96 42.2659C106.986 44.0247 106.337 45.1612 105.742 45.7294C105.525 45.8918 105.255 46 104.984 46ZM3.38222 43.8082H104.497C104.876 43.2941 105.471 42.2388 106.039 41.2106C107.663 38.3153 110.098 33.9047 113.724 30.1435C107.149 31.4965 92.4563 33.5529 62.6928 34.04C45.1594 34.3106 9.11846 34.9871 2.27285 35.1224C2.4352 38.7753 2.89518 42.6988 3.38222 43.8082Z" fill="#1C3361"/>
<path d="M77.8722 33.6071C77.4393 33.6071 77.0334 33.3635 76.8711 32.9306C76.7087 32.5518 75.2747 29.1965 75.6535 27.0318C75.8158 26.1118 76.0593 25.1918 76.3029 24.4612L63.8563 24.9482L51.8156 24.7859L51.6803 32.5247C51.6803 33.12 51.1662 33.6071 50.571 33.6071C49.9486 33.6071 49.4886 33.0929 49.4886 32.4976L49.651 23.6494C49.651 23.0541 50.1651 22.54 50.7604 22.5671L63.8292 22.7565L77.8181 22.2153C78.224 22.1882 78.5487 22.3776 78.7651 22.6753C78.9816 22.9729 79.0357 23.3788 78.8734 23.7306C78.8734 23.7576 78.0887 25.6518 77.791 27.4106C77.6016 28.5471 78.3593 30.8741 78.8734 32.0918C79.1169 32.66 78.8463 33.3094 78.3051 33.5529C78.1699 33.58 78.0075 33.6071 77.8722 33.6071Z" fill="#1C3361"/>
<path d="M40.0996 33.6071C39.4773 33.6071 38.9902 33.12 38.9902 32.4976V18.86C38.9902 18.2647 39.4773 17.7506 40.0996 17.7506H49.0828C49.5428 17.7506 49.9757 18.0482 50.138 18.5082L51.7885 23.3247C51.978 23.8929 51.6803 24.5153 51.1121 24.7318C50.5439 24.9212 49.9216 24.6235 49.7051 24.0553L48.3252 19.9965H41.209V32.5518C41.209 33.12 40.7219 33.6071 40.0996 33.6071Z" fill="#1C3361"/>
<path d="M23.0803 33.6071C22.9991 33.6071 22.9179 33.6071 22.8367 33.58C22.2415 33.4447 21.8627 32.8765 21.9979 32.2812L23.5943 24.8671C23.7026 24.3529 24.1626 24.0012 24.6767 24.0012H34.8233C34.9315 24.0012 35.0398 24.0282 35.1209 24.0553L40.4243 25.5976C41.0195 25.76 41.3442 26.3824 41.1819 26.9776C41.0195 27.5729 40.3972 27.8976 39.829 27.7353L34.688 26.22H25.5425L24.1355 32.7412C24.0273 33.2553 23.5673 33.6071 23.0803 33.6071Z" fill="#1C3361"/>
<path d="M6.87267 35.0141C6.2774 35.0141 5.76331 34.5271 5.76331 33.9047V29.4129C5.76331 28.8176 6.22329 28.3306 6.81856 28.3035L23.2967 27.4376C23.9191 27.4106 24.4332 27.8706 24.4602 28.4929C24.4873 29.0882 24.0273 29.6294 23.405 29.6565L7.98204 30.4682V33.9047C7.98204 34.5271 7.495 35.0141 6.87267 35.0141Z" fill="#1C3361"/>
<path d="M51.0039 24.7588C50.5709 24.7588 50.138 24.4882 49.9757 24.0553L48.0816 19.2388C47.9463 18.8871 48.0005 18.5082 48.1899 18.2106C48.4063 17.9129 48.7581 17.7235 49.1098 17.7506L68.4832 18.1835C69.0784 18.1835 69.5655 18.6976 69.5655 19.2929V23.6765C69.5655 24.2718 69.0784 24.7859 68.4561 24.7859C67.8338 24.7859 67.3467 24.2988 67.3467 23.6765V20.3482L50.7062 19.9965L52.005 23.2706C52.2215 23.8388 51.9509 24.4882 51.3827 24.7047C51.2744 24.7318 51.1391 24.7588 51.0039 24.7588Z" fill="#1C3361"/>
<path d="M83.3108 32.9306C83.2296 32.9306 83.1755 32.9306 83.0944 32.9035C82.4991 32.7953 82.1203 32.2 82.2285 31.6047C83.0944 27.3565 85.6378 25.4623 90.4811 25.4623C95.8656 25.4623 97.8138 28.8447 98.0844 30.6306C98.1655 31.2259 97.7597 31.7941 97.1644 31.8753C96.5691 31.9565 96.0009 31.5506 95.9197 30.9553C95.8656 30.6035 95.1892 27.6541 90.4811 27.6541C86.693 27.6541 85.0425 28.8447 84.3931 32.0376C84.2849 32.5788 83.8249 32.9306 83.3108 32.9306Z" fill="#1C3361"/>
<path d="M93.9986 28.3576C93.4304 28.3576 92.9704 27.9518 92.9163 27.3835C92.8622 26.7882 93.2951 26.2471 93.8904 26.1659L100.005 25.4894C100.628 25.4353 101.142 25.8682 101.223 26.4635C101.277 27.0588 100.844 27.6 100.249 27.6812L94.1339 28.3576C94.0798 28.3576 94.0257 28.3576 93.9986 28.3576Z" fill="#1C3361"/>
<path d="M65.7774 28.0329H63.8292C63.2069 28.0329 62.7198 27.5459 62.7198 26.9235C62.7198 26.3282 63.2069 25.8141 63.8292 25.8141H65.7774C66.3997 25.8141 66.8867 26.3012 66.8867 26.9235C66.8867 27.5459 66.3997 28.0329 65.7774 28.0329Z" fill="#1C3361"/>
<path d="M58.4718 28.0329H56.5237C55.9013 28.0329 55.4143 27.5459 55.4143 26.9235C55.4143 26.3282 55.9013 25.8141 56.5237 25.8141H58.4718C59.0942 25.8141 59.5812 26.3012 59.5812 26.9235C59.5812 27.5459 59.0942 28.0329 58.4718 28.0329Z" fill="#1C3361"/>
<path d="M73.083 28.0329H71.1348C70.5125 28.0329 70.0255 27.5459 70.0255 26.9235C70.0255 26.3282 70.5125 25.8141 71.1348 25.8141H73.083C73.7053 25.8141 74.1923 26.3012 74.1923 26.9235C74.1923 27.5459 73.7053 28.0329 73.083 28.0329Z" fill="#1C3361"/>
<path d="M58.0389 20.2129C57.5248 20.2129 57.0919 19.8612 56.9566 19.3471L54.3861 7.95529L51.9509 18.86C51.8156 19.4553 51.2203 19.8341 50.6251 19.6988C50.0298 19.5635 49.651 18.9682 49.7863 18.3729L52.465 6.49412C52.5732 5.98 53.0332 5.62823 53.5473 5.62823H55.2519C55.766 5.62823 56.226 5.98 56.3342 6.49412L59.1212 18.86C59.2565 19.4553 58.8777 20.0506 58.2824 20.1859C58.2012 20.2129 58.1201 20.2129 58.0389 20.2129Z" fill="#1C3361"/>
<path d="M54.4673 7.84706C53.845 7.84706 53.3579 7.36 53.3579 6.73765V1.10941C53.3579 0.514118 53.845 0 54.4673 0C55.0896 0 55.5766 0.487059 55.5766 1.10941V6.73765C55.5496 7.33294 55.0626 7.84706 54.4673 7.84706Z" fill="#1C3361"/>
<path d="M57.2813 4.2753H51.7074C51.0851 4.2753 50.598 3.78824 50.598 3.16588C50.598 2.57059 51.0851 2.05647 51.7074 2.05647H57.2813C57.9036 2.05647 58.3907 2.54353 58.3907 3.16588C58.3907 3.78824 57.9036 4.2753 57.2813 4.2753Z" fill="#1C3361"/>
<path d="M58.2824 11.9871H50.598C49.9757 11.9871 49.4886 11.5 49.4886 10.8776C49.4886 10.2824 49.9757 9.76823 50.598 9.76823H58.3095C58.9318 9.76823 59.4188 10.2553 59.4188 10.8776C59.3918 11.5 58.9047 11.9871 58.2824 11.9871Z" fill="#1C3361"/>
<path d="M58.8506 16.3706H50.0568C49.4345 16.3706 48.9474 15.8835 48.9474 15.2612C48.9474 14.6659 49.4345 14.1518 50.0568 14.1518H58.8506C59.4729 14.1518 59.96 14.6388 59.96 15.2612C59.96 15.8835 59.4459 16.3706 58.8506 16.3706Z" fill="#1C3361"/>
<path d="M29.8988 26.193C29.2765 26.193 28.7894 25.7059 28.7894 25.0835V21.8635C28.7894 21.2682 29.2765 20.7541 29.8988 20.7541C30.5211 20.7541 31.0082 21.2412 31.0082 21.8635V25.0835C31.0082 25.7059 30.4941 26.193 29.8988 26.193Z" fill="#1C3361"/>
<path d="M32.6046 22.9729H27.0307C26.4084 22.9729 25.9213 22.4859 25.9213 21.8635C25.9213 21.2682 26.4084 20.7541 27.0307 20.7541H32.5775C33.1999 20.7541 33.6869 21.2412 33.6869 21.8635C33.6869 22.4859 33.1999 22.9729 32.6046 22.9729Z" fill="#1C3361"/>
<path d="M17.6146 29.9812C17.0193 29.9812 16.5052 29.4941 16.5052 28.8718V25.3271C16.5052 24.7318 16.9923 24.2176 17.6146 24.2176C18.2099 24.2176 18.724 24.7047 18.724 25.3271V28.8718C18.724 29.4671 18.2369 29.9812 17.6146 29.9812Z" fill="#1C3361"/>
<path d="M18.8593 28.2494H16.2347C15.6394 28.2494 15.1253 27.7623 15.1253 27.14C15.1253 26.5447 15.6123 26.0306 16.2347 26.0306H18.8593C19.4816 26.0306 19.9686 26.5176 19.9686 27.14C19.9686 27.7353 19.4816 28.2494 18.8593 28.2494Z" fill="#1C3361"/>
<path d="M47.8381 26.4635H45.7276C45.1053 26.4635 44.6182 25.9765 44.6182 25.3541C44.6182 24.7588 45.1053 24.2447 45.7276 24.2447H47.8381C48.4604 24.2447 48.9475 24.7318 48.9475 25.3541C48.9204 25.9765 48.4334 26.4635 47.8381 26.4635Z" fill="#1C3361"/>
<path d="M35.0939 32.3353C34.4716 32.3353 33.9846 31.8482 33.9846 31.2259V28.1953C33.9846 27.6 34.4716 27.0859 35.0939 27.0859C35.7163 27.0859 36.2033 27.5729 36.2033 28.1953V31.2259C36.1762 31.8482 35.6892 32.3353 35.0939 32.3353Z" fill="#1C3361"/>
<path d="M29.3035 34.6082C28.6812 34.6082 28.1942 34.1212 28.1942 33.4988V28.8718C28.1942 28.2765 28.6812 27.7624 29.3035 27.7624C29.9259 27.7624 30.4129 28.2494 30.4129 28.8718V33.4988C30.4129 34.1212 29.9259 34.6082 29.3035 34.6082Z" fill="#1C3361"/>
<path d="M1.3529 39.2082C0.757628 39.2082 0.24353 38.7212 0.24353 38.1259C0.24353 37.5306 0.73057 37.0165 1.32584 37.0165C1.78582 37.0165 46.5393 36.7729 64.7763 36.4753C105.228 35.8259 111.234 33.0388 111.451 32.9306C111.992 32.66 112.641 32.8494 112.939 33.3906C113.21 33.9047 113.047 34.5541 112.533 34.8518C111.992 35.1765 105.985 38.0176 64.8033 38.6671C46.5935 38.9647 1.81288 39.2082 1.3529 39.2082Z" fill="#1C3361"/>
</svg>
