<svg width="133" height="48" viewBox="0 0 133 48" fill="none" xmlns="http://www.w3.org/2000/svg">
<path d="M127.628 46.6626H115.722C117.435 40.9896 121.892 40.6957 122.096 40.6957C122.386 40.681 122.648 40.4752 122.706 40.1813L127.25 20.3552C127.294 20.1641 127.25 19.9437 127.12 19.7967C126.989 19.635 126.8 19.5469 126.611 19.5469H120.978V3.26271L122.328 0.99939C122.459 0.793634 122.459 0.543787 122.343 0.323334C122.226 0.117578 122.009 -0.0146942 121.762 -0.0146942H99.0821C98.8643 -0.0146942 98.6756 0.0881839 98.5449 0.264546C98.4142 0.440909 98.3852 0.661362 98.4578 0.867119L99.2418 3.17453V5.32027H94.0293C93.6663 5.32027 93.3759 5.61421 93.3759 5.98163V19.5028H90.1235C89.8186 19.5028 89.5572 19.7085 89.4846 20.0025L87.1324 29.0998H82.3264V20.2817C82.3264 19.9143 82.036 19.6203 81.673 19.6203H76.838V10.6111C76.838 10.2437 76.5476 9.94979 76.1846 9.94979H64.9754V0.690756C64.9754 0.323334 64.6851 0.0293964 64.3221 0.0293964H47.3921C47.0292 0.0293964 46.7388 0.323334 46.7388 0.690756V9.93509H42.5716C42.5281 9.93509 42.5135 9.96449 42.47 9.97918C42.4264 9.97918 42.4119 9.93509 42.3683 9.93509H25.4675C25.1045 9.93509 24.8141 10.229 24.8141 10.5965V19.635H14.4471C14.0841 19.635 13.7937 19.929 13.7937 20.2964V29.1145H0.871179C0.653384 29.1145 0.464629 29.2174 0.333952 29.3938C0.217795 29.5701 0.174236 29.7906 0.246834 29.9963L4.57369 42.5181C4.64629 42.7238 4.80601 42.8855 5.00928 42.9443C7.76801 43.7379 8.55208 45.6338 8.76987 46.6479H0.653384C0.290393 46.6479 0 46.9418 0 47.3093C0 47.6767 0.290393 47.9706 0.653384 47.9706H9.51037H114.85H127.628C127.991 47.9706 128.281 47.6767 128.281 47.3093C128.281 46.9418 127.991 46.6626 127.628 46.6626ZM26.1209 11.2725H41.715V19.5322H26.1209V11.2725ZM48.0601 1.36681H63.6542V9.62646H48.0601V1.36681ZM81.0051 29.1292H65.4256V20.9725H81.0051V29.1292ZM32.0449 29.1292V20.9725H47.5519V29.1292H32.0449ZM48.8586 20.9725H64.1043V29.1292H48.8586V20.9725ZM75.5167 19.5322H59.9226V11.2725H75.5022V19.5322H75.5167ZM43.225 11.2725H58.6013V19.5322H43.225V11.2725ZM30.6945 20.9725V29.1292H15.1004V20.9725H30.6945ZM87.6406 30.4666C87.9455 30.4666 88.2069 30.2609 88.2795 29.9669L90.6317 20.8696H94.0438H99.8081H99.9097H120.31H125.769L121.529 39.417C120.063 39.6669 115.896 40.8867 114.342 46.6479H10.1057C9.88788 45.4281 9.03122 42.8708 5.70622 41.7685L1.80044 30.4519H87.6406V30.4666ZM94.6972 6.68708H99.1547V19.5469H94.6972V6.68708ZM106.444 19.4293V11.9927H114.197V19.4293H106.444ZM115.518 19.5322V11.3313C115.518 10.9639 115.228 10.6699 114.865 10.6699H105.805C105.442 10.6699 105.151 10.9639 105.151 11.3313V19.5322H100.578V3.67422H119.671V19.5322H115.518ZM119.976 2.3515H100.36L100.011 1.33742H120.586L119.976 2.3515Z" fill="#338BC8"/>
<path d="M113.82 4.7177H103.714C103.351 4.7177 103.06 5.01164 103.06 5.37906C103.06 5.74648 103.351 6.04042 103.714 6.04042H113.82C114.183 6.04042 114.473 5.74648 114.473 5.37906C114.473 5.02633 114.183 4.7177 113.82 4.7177Z" fill="#338BC8"/>
<path d="M117.943 4.7177H116.302C115.939 4.7177 115.649 5.01164 115.649 5.37906C115.649 5.74648 115.939 6.04042 116.302 6.04042H117.943C118.306 6.04042 118.597 5.74648 118.597 5.37906C118.597 5.02633 118.306 4.7177 117.943 4.7177Z" fill="#338BC8"/>
<path d="M49.9331 2.49847C49.5701 2.49847 49.2797 2.79241 49.2797 3.15983V8.30374C49.2797 8.67116 49.5701 8.9651 49.9331 8.9651C50.2961 8.9651 50.5864 8.67116 50.5864 8.30374V3.15983C50.601 2.79241 50.2961 2.49847 49.9331 2.49847Z" fill="#338BC8"/>
<path d="M57.1784 2.49847C56.8154 2.49847 56.525 2.79241 56.525 3.15983V8.30374C56.525 8.67116 56.8154 8.9651 57.1784 8.9651C57.5414 8.9651 57.8318 8.67116 57.8318 8.30374V3.15983C57.8463 2.79241 57.5414 2.49847 57.1784 2.49847Z" fill="#338BC8"/>
<path d="M54.7681 2.49847C54.4051 2.49847 54.1147 2.79241 54.1147 3.15983V8.30374C54.1147 8.67116 54.4051 8.9651 54.7681 8.9651C55.1311 8.9651 55.4215 8.67116 55.4215 8.30374V3.15983C55.436 2.79241 55.1311 2.49847 54.7681 2.49847Z" fill="#338BC8"/>
<path d="M52.3579 2.49847C51.9949 2.49847 51.7045 2.79241 51.7045 3.15983V8.30374C51.7045 8.67116 51.9949 8.9651 52.3579 8.9651C52.7208 8.9651 53.0112 8.67116 53.0112 8.30374V3.15983C53.0112 2.79241 52.7208 2.49847 52.3579 2.49847Z" fill="#338BC8"/>
<path d="M59.3563 2.49847C58.9933 2.49847 58.7029 2.79241 58.7029 3.15983V8.30374C58.7029 8.67116 58.9933 8.9651 59.3563 8.9651C59.7193 8.9651 60.0097 8.67116 60.0097 8.30374V3.15983C60.0097 2.79241 59.7193 2.49847 59.3563 2.49847Z" fill="#338BC8"/>
<path d="M61.7666 2.49847C61.4036 2.49847 61.1132 2.79241 61.1132 3.15983V8.30374C61.1132 8.67116 61.4036 8.9651 61.7666 8.9651C62.1296 8.9651 62.42 8.67116 62.42 8.30374V3.15983C62.42 2.79241 62.1296 2.49847 61.7666 2.49847Z" fill="#338BC8"/>
<path d="M12.4143 38.3883H101.042C101.405 38.3883 101.696 38.0943 101.696 37.7269C101.696 37.3595 101.405 37.0655 101.042 37.0655H12.4143C12.0513 37.0655 11.7609 37.3595 11.7609 37.7269C11.7609 38.0943 12.0513 38.3883 12.4143 38.3883Z" fill="#338BC8"/>
<path d="M104.745 38.3883H108.462C108.825 38.3883 109.115 38.0943 109.115 37.7269C109.115 37.3595 108.825 37.0655 108.462 37.0655H104.745C104.382 37.0655 104.091 37.3595 104.091 37.7269C104.091 38.0943 104.382 38.3883 104.745 38.3883Z" fill="#338BC8"/>
<path d="M120.048 35.4489C120.107 35.4636 120.165 35.4636 120.208 35.4636C120.499 35.4636 120.774 35.2578 120.847 34.9639L123.736 23.4121C123.824 23.0594 123.62 22.692 123.257 22.6038C122.894 22.5156 122.546 22.7361 122.459 23.0888L119.569 34.6405C119.482 35.008 119.7 35.3607 120.048 35.4489Z" fill="#338BC8"/>
<path d="M45.1271 12.0955C44.7641 12.0955 44.4737 12.3895 44.4737 12.7569V17.9008C44.4737 18.2682 44.7641 18.5622 45.1271 18.5622C45.4901 18.5622 45.7805 18.2682 45.7805 17.9008V12.7569C45.7805 12.3895 45.4901 12.0955 45.1271 12.0955Z" fill="#338BC8"/>
<path d="M52.3724 12.0955C52.0094 12.0955 51.719 12.3895 51.719 12.7569V17.9008C51.719 18.2682 52.0094 18.5622 52.3724 18.5622C52.7354 18.5622 53.0258 18.2682 53.0258 17.9008V12.7569C53.0258 12.3895 52.7354 12.0955 52.3724 12.0955Z" fill="#338BC8"/>
<path d="M49.9621 12.0955C49.5991 12.0955 49.3087 12.3895 49.3087 12.7569V17.9008C49.3087 18.2682 49.5991 18.5622 49.9621 18.5622C50.3251 18.5622 50.6155 18.2682 50.6155 17.9008V12.7569C50.6155 12.3895 50.3251 12.0955 49.9621 12.0955Z" fill="#338BC8"/>
<path d="M47.5373 12.0955C47.1743 12.0955 46.8839 12.3895 46.8839 12.7569V17.9008C46.8839 18.2682 47.1743 18.5622 47.5373 18.5622C47.9003 18.5622 48.1907 18.2682 48.1907 17.9008V12.7569C48.2052 12.3895 47.9003 12.0955 47.5373 12.0955Z" fill="#338BC8"/>
<path d="M54.5358 12.0955C54.1728 12.0955 53.8824 12.3895 53.8824 12.7569V17.9008C53.8824 18.2682 54.1728 18.5622 54.5358 18.5622C54.8988 18.5622 55.1892 18.2682 55.1892 17.9008V12.7569C55.2037 12.3895 54.8988 12.0955 54.5358 12.0955Z" fill="#338BC8"/>
<path d="M56.9606 12.0955C56.5976 12.0955 56.3072 12.3895 56.3072 12.7569V17.9008C56.3072 18.2682 56.5976 18.5622 56.9606 18.5622C57.3236 18.5622 57.614 18.2682 57.614 17.9008V12.7569C57.614 12.3895 57.3236 12.0955 56.9606 12.0955Z" fill="#338BC8"/>
<path d="M61.8972 18.5769C62.2602 18.5769 62.5506 18.2829 62.5506 17.9155V12.7716C62.5506 12.4042 62.2602 12.1102 61.8972 12.1102C61.5343 12.1102 61.2439 12.4042 61.2439 12.7716V17.9155C61.2294 18.2829 61.5343 18.5769 61.8972 18.5769Z" fill="#338BC8"/>
<path d="M69.1426 18.5769C69.5056 18.5769 69.796 18.2829 69.796 17.9155V12.7716C69.796 12.4042 69.5056 12.1102 69.1426 12.1102C68.7796 12.1102 68.4892 12.4042 68.4892 12.7716V17.9155C68.4747 18.2829 68.7796 18.5769 69.1426 18.5769Z" fill="#338BC8"/>
<path d="M66.7178 18.5769C67.0808 18.5769 67.3712 18.2829 67.3712 17.9155V12.7716C67.3712 12.4042 67.0808 12.1102 66.7178 12.1102C66.3548 12.1102 66.0644 12.4042 66.0644 12.7716V17.9155C66.0644 18.2829 66.3548 18.5769 66.7178 18.5769Z" fill="#338BC8"/>
<path d="M64.3075 18.5769C64.6705 18.5769 64.9609 18.2829 64.9609 17.9155V12.7716C64.9609 12.4042 64.6705 12.1102 64.3075 12.1102C63.9445 12.1102 63.6542 12.4042 63.6542 12.7716V17.9155C63.6396 18.2829 63.9445 18.5769 64.3075 18.5769Z" fill="#338BC8"/>
<path d="M71.306 18.5769C71.669 18.5769 71.9594 18.2829 71.9594 17.9155V12.7716C71.9594 12.4042 71.669 12.1102 71.306 12.1102C70.943 12.1102 70.6526 12.4042 70.6526 12.7716V17.9155C70.6526 18.2829 70.943 18.5769 71.306 18.5769Z" fill="#338BC8"/>
<path d="M73.7163 18.5769C74.0793 18.5769 74.3697 18.2829 74.3697 17.9155V12.7716C74.3697 12.4042 74.0793 12.1102 73.7163 12.1102C73.3533 12.1102 73.0629 12.4042 73.0629 12.7716V17.9155C73.0629 18.2829 73.3533 18.5769 73.7163 18.5769Z" fill="#338BC8"/>
<path d="M67.1824 28.3503C67.5454 28.3503 67.8358 28.0563 67.8358 27.6889V22.545C67.8358 22.1776 67.5454 21.8836 67.1824 21.8836C66.8194 21.8836 66.5291 22.1776 66.5291 22.545V27.6889C66.5291 28.0416 66.8194 28.3503 67.1824 28.3503Z" fill="#338BC8"/>
<path d="M74.4277 28.3503C74.7907 28.3503 75.0811 28.0563 75.0811 27.6889V22.545C75.0811 22.1776 74.7907 21.8836 74.4277 21.8836C74.0647 21.8836 73.7743 22.1776 73.7743 22.545V27.6889C73.7743 28.0416 74.0647 28.3503 74.4277 28.3503Z" fill="#338BC8"/>
<path d="M72.0175 28.3503C72.3805 28.3503 72.6708 28.0563 72.6708 27.6889V22.545C72.6708 22.1776 72.3805 21.8836 72.0175 21.8836C71.6545 21.8836 71.3641 22.1776 71.3641 22.545V27.6889C71.3641 28.0416 71.6545 28.3503 72.0175 28.3503Z" fill="#338BC8"/>
<path d="M69.5927 28.3503C69.9557 28.3503 70.2461 28.0563 70.2461 27.6889V22.545C70.2461 22.1776 69.9557 21.8836 69.5927 21.8836C69.2297 21.8836 68.9393 22.1776 68.9393 22.545V27.6889C68.9393 28.0416 69.2297 28.3503 69.5927 28.3503Z" fill="#338BC8"/>
<path d="M76.5912 28.3503C76.9542 28.3503 77.2445 28.0563 77.2445 27.6889V22.545C77.2445 22.1776 76.9542 21.8836 76.5912 21.8836C76.2282 21.8836 75.9378 22.1776 75.9378 22.545V27.6889C75.9378 28.0416 76.2282 28.3503 76.5912 28.3503Z" fill="#338BC8"/>
<path d="M79.016 28.3503C79.379 28.3503 79.6693 28.0563 79.6693 27.6889V22.545C79.6693 22.1776 79.379 21.8836 79.016 21.8836C78.653 21.8836 78.3626 22.1776 78.3626 22.545V27.6889C78.348 28.0416 78.653 28.3503 79.016 28.3503Z" fill="#338BC8"/>
<path d="M50.6881 28.3503C51.0511 28.3503 51.3415 28.0563 51.3415 27.6889V22.545C51.3415 22.1776 51.0511 21.8836 50.6881 21.8836C50.3251 21.8836 50.0347 22.1776 50.0347 22.545V27.6889C50.0347 28.0416 50.3251 28.3503 50.6881 28.3503Z" fill="#338BC8"/>
<path d="M57.9334 28.3503C58.2964 28.3503 58.5868 28.0563 58.5868 27.6889V22.545C58.5868 22.1776 58.2964 21.8836 57.9334 21.8836C57.5704 21.8836 57.28 22.1776 57.28 22.545V27.6889C57.28 28.0416 57.5704 28.3503 57.9334 28.3503Z" fill="#338BC8"/>
<path d="M55.5231 28.3503C55.8861 28.3503 56.1765 28.0563 56.1765 27.6889V22.545C56.1765 22.1776 55.8861 21.8836 55.5231 21.8836C55.1601 21.8836 54.8698 22.1776 54.8698 22.545V27.6889C54.8698 28.0416 55.1601 28.3503 55.5231 28.3503Z" fill="#338BC8"/>
<path d="M53.1129 28.3503C53.4758 28.3503 53.7662 28.0563 53.7662 27.6889V22.545C53.7662 22.1776 53.4758 21.8836 53.1129 21.8836C52.7499 21.8836 52.4595 22.1776 52.4595 22.545V27.6889C52.445 28.0416 52.7499 28.3503 53.1129 28.3503Z" fill="#338BC8"/>
<path d="M60.1114 28.3503C60.4744 28.3503 60.7648 28.0563 60.7648 27.6889V22.545C60.7648 22.1776 60.4744 21.8836 60.1114 21.8836C59.7484 21.8836 59.458 22.1776 59.458 22.545V27.6889C59.4435 28.0416 59.7484 28.3503 60.1114 28.3503Z" fill="#338BC8"/>
<path d="M62.5216 28.3503C62.8846 28.3503 63.175 28.0563 63.175 27.6889V22.545C63.175 22.1776 62.8846 21.8836 62.5216 21.8836C62.1586 21.8836 61.8682 22.1776 61.8682 22.545V27.6889C61.8537 28.0416 62.1586 28.3503 62.5216 28.3503Z" fill="#338BC8"/>
<path d="M33.9179 21.8689C33.5549 21.8689 33.2645 22.1629 33.2645 22.5303V27.6742C33.2645 28.0416 33.5549 28.3356 33.9179 28.3356C34.2809 28.3356 34.5713 28.0416 34.5713 27.6742V22.5303C34.5713 22.1629 34.2809 21.8689 33.9179 21.8689Z" fill="#338BC8"/>
<path d="M41.1632 21.8689C40.8002 21.8689 40.5098 22.1629 40.5098 22.5303V27.6742C40.5098 28.0416 40.8002 28.3356 41.1632 28.3356C41.5262 28.3356 41.8166 28.0416 41.8166 27.6742V22.5303C41.8311 22.1629 41.5262 21.8689 41.1632 21.8689Z" fill="#338BC8"/>
<path d="M38.7529 21.8689C38.3899 21.8689 38.0995 22.1629 38.0995 22.5303V27.6742C38.0995 28.0416 38.3899 28.3356 38.7529 28.3356C39.1159 28.3356 39.4063 28.0416 39.4063 27.6742V22.5303C39.4063 22.1629 39.1159 21.8689 38.7529 21.8689Z" fill="#338BC8"/>
<path d="M36.3427 21.8689C35.9797 21.8689 35.6893 22.1629 35.6893 22.5303V27.6742C35.6893 28.0416 35.9797 28.3356 36.3427 28.3356C36.7057 28.3356 36.9961 28.0416 36.9961 27.6742V22.5303C36.9961 22.1629 36.7057 21.8689 36.3427 21.8689Z" fill="#338BC8"/>
<path d="M43.3412 21.8689C42.9782 21.8689 42.6878 22.1629 42.6878 22.5303V27.6742C42.6878 28.0416 42.9782 28.3356 43.3412 28.3356C43.7041 28.3356 43.9945 28.0416 43.9945 27.6742V22.5303C43.9945 22.1629 43.7041 21.8689 43.3412 21.8689Z" fill="#338BC8"/>
<path d="M45.7514 21.8689C45.3884 21.8689 45.098 22.1629 45.098 22.5303V27.6742C45.098 28.0416 45.3884 28.3356 45.7514 28.3356C46.1144 28.3356 46.4048 28.0416 46.4048 27.6742V22.5303C46.4048 22.1629 46.1144 21.8689 45.7514 21.8689Z" fill="#338BC8"/>
<path d="M16.988 28.3503C17.351 28.3503 17.6414 28.0563 17.6414 27.6889V22.545C17.6414 22.1776 17.351 21.8836 16.988 21.8836C16.625 21.8836 16.3346 22.1776 16.3346 22.545V27.6889C16.3201 28.0416 16.625 28.3503 16.988 28.3503Z" fill="#338BC8"/>
<path d="M24.2188 28.3503C24.5817 28.3503 24.8721 28.0563 24.8721 27.6889V22.545C24.8721 22.1776 24.5817 21.8836 24.2188 21.8836C23.8558 21.8836 23.5654 22.1776 23.5654 22.545V27.6889C23.5654 28.0416 23.8558 28.3503 24.2188 28.3503Z" fill="#338BC8"/>
<path d="M21.8085 28.3503C22.1715 28.3503 22.4619 28.0563 22.4619 27.6889V22.545C22.4619 22.1776 22.1715 21.8836 21.8085 21.8836C21.4455 21.8836 21.1552 22.1776 21.1552 22.545V27.6889C21.1552 28.0416 21.4455 28.3503 21.8085 28.3503Z" fill="#338BC8"/>
<path d="M19.3983 28.3503C19.7613 28.3503 20.0516 28.0563 20.0516 27.6889V22.545C20.0516 22.1776 19.7613 21.8836 19.3983 21.8836C19.0353 21.8836 18.7449 22.1776 18.7449 22.545V27.6889C18.7304 28.0416 19.0353 28.3503 19.3983 28.3503Z" fill="#338BC8"/>
<path d="M26.3967 28.3503C26.7597 28.3503 27.0501 28.0563 27.0501 27.6889V22.545C27.0501 22.1776 26.7597 21.8836 26.3967 21.8836C26.0337 21.8836 25.7433 22.1776 25.7433 22.545V27.6889C25.7433 28.0416 26.0337 28.3503 26.3967 28.3503Z" fill="#338BC8"/>
<path d="M28.807 28.3503C29.17 28.3503 29.4604 28.0563 29.4604 27.6889V22.545C29.4604 22.1776 29.17 21.8836 28.807 21.8836C28.444 21.8836 28.1536 22.1776 28.1536 22.545V27.6889C28.1536 28.0416 28.444 28.3503 28.807 28.3503Z" fill="#338BC8"/>
<path d="M28.023 12.0955C27.66 12.0955 27.3696 12.3895 27.3696 12.7569V17.9008C27.3696 18.2682 27.66 18.5622 28.023 18.5622C28.3859 18.5622 28.6763 18.2682 28.6763 17.9008V12.7569C28.6763 12.3895 28.3859 12.0955 28.023 12.0955Z" fill="#338BC8"/>
<path d="M35.2682 12.0955C34.9052 12.0955 34.6148 12.3895 34.6148 12.7569V17.9008C34.6148 18.2682 34.9052 18.5622 35.2682 18.5622C35.6312 18.5622 35.9216 18.2682 35.9216 17.9008V12.7569C35.9216 12.3895 35.6312 12.0955 35.2682 12.0955Z" fill="#338BC8"/>
<path d="M32.8434 12.0955C32.4805 12.0955 32.1901 12.3895 32.1901 12.7569V17.9008C32.1901 18.2682 32.4805 18.5622 32.8434 18.5622C33.2064 18.5622 33.4968 18.2682 33.4968 17.9008V12.7569C33.5113 12.3895 33.2064 12.0955 32.8434 12.0955Z" fill="#338BC8"/>
<path d="M30.4332 12.0955C30.0702 12.0955 29.7798 12.3895 29.7798 12.7569V17.9008C29.7798 18.2682 30.0702 18.5622 30.4332 18.5622C30.7962 18.5622 31.0866 18.2682 31.0866 17.9008V12.7569C31.0866 12.3895 30.7962 12.0955 30.4332 12.0955Z" fill="#338BC8"/>
<path d="M37.4316 12.0955C37.0687 12.0955 36.7783 12.3895 36.7783 12.7569V17.9008C36.7783 18.2682 37.0687 18.5622 37.4316 18.5622C37.7946 18.5622 38.085 18.2682 38.085 17.9008V12.7569C38.085 12.3895 37.7946 12.0955 37.4316 12.0955Z" fill="#338BC8"/>
<path d="M39.8419 12.0955C39.4789 12.0955 39.1885 12.3895 39.1885 12.7569V17.9008C39.1885 18.2682 39.4789 18.5622 39.8419 18.5622C40.2049 18.5622 40.4953 18.2682 40.4953 17.9008V12.7569C40.5098 12.3895 40.2049 12.0955 39.8419 12.0955Z" fill="#338BC8"/>
<path d="M132.332 46.6626H129.675C129.312 46.6626 129.022 46.9565 129.022 47.324C129.022 47.6914 129.312 47.9853 129.675 47.9853H132.332C132.695 47.9853 132.985 47.6914 132.985 47.324C132.985 46.9565 132.695 46.6626 132.332 46.6626Z" fill="#338BC8"/>
</svg>
