<svg xmlns="http://www.w3.org/2000/svg" width="336" height="388" fill="currentColor" viewBox="0 0 336 388">
  <path d="m135.02 4.522-14.498 8.732A30 30 0 0 0 106 38.953v17.856C106 64.646 99.646 71 91.809 71a14.191 14.191 0 0 0-9.95 4.073L58.504 98.037a29.982 29.982 0 0 0-4.373 5.438L36.81 131.063a17.168 17.168 0 0 0 3.268 22.079c8.213 7.148 7.782 20.038-.89 26.623l-4.73 3.591a22 22 0 0 0-7.597 10.654L17.5 222.5l-8 28-7.08 21.915a30 30 0 0 0 .887 20.84l3.567 8.493a30.006 30.006 0 0 0 7.686 10.767L42 337l21.285 21.284a30.004 30.004 0 0 0 12.254 7.419l65.332 20.441a30.006 30.006 0 0 0 18.227-.099l64.063-20.811a30.009 30.009 0 0 0 9.69-5.281L261 337l36.092-27.544a30.026 30.026 0 0 1 4.024-2.59l20.3-10.884c3.358-1.801 6.441-4.159 8.591-7.306 3.523-5.155 5.508-10.367 4.9-16.168-.441-4.2-3.147-7.708-6.18-10.646l-9.7-9.398a29.999 29.999 0 0 1-3.652-4.272l-12.278-17.434c-1.935-2.748-3.269-5.862-4.724-8.891a20.846 20.846 0 0 0-.194-.398c-.88-1.766-2.135-3.307-3.492-4.739L267 187.5l-13.431-17.998c-6.317-8.464-4.336-20.482 4.363-26.471 8.164-5.622 10.493-16.653 5.298-25.095L252.5 100.5l-17.593-21.625A21.347 21.347 0 0 0 218.348 71C206.558 71 197 61.442 197 49.653V39.525a30 30 0 0 0-15.266-26.132l-16.502-9.305a30 30 0 0 0-30.212.434Z"/>
</svg>
