<svg width="223" height="204" viewBox="0 0 223 204" fill="none" xmlns="http://www.w3.org/2000/svg">
<g filter="url(#filter0_d)">
<path d="M154.777 24C127 24 116.144 31.8228 116.144 31.8228C116.144 31.8228 106.5 24 79.4424 24C53.3849 24 28 47.6432 28 80.8714C28 114.1 53.0432 132.714 75.5791 148.689C98.1151 164.664 103.583 180 116.144 180C128.705 180 138.036 165.942 154.777 148.689C171.518 131.436 203 117.934 203 80.8714C203 43.8092 178.554 24 154.777 24Z" fill="white"/>
</g>
<g filter="url(#filter1_d)">
<path d="M146.719 40C131.108 40 120.868 46.3333 116.504 49.5C112.475 46 105.928 40 87.7986 40C65.1367 40 46 58.5 46 84.5C46 110.5 67.1511 123.5 84.777 136C102.403 148.5 109.957 160.5 116.504 160.5C122.959 160.5 133.333 149.803 146.175 136.561L146.719 136C159.813 122.5 186 113.5 186 84.5C186 55.5 162.331 40 146.719 40Z" fill="white"/>
</g>
<path d="M111.725 68.0739C113.726 70.966 114.727 72.4121 115.235 72.6403C115.895 72.9361 116.094 72.9417 116.769 72.6833C117.29 72.4839 118.387 71.0749 120.58 68.2569C125.104 62.444 132.731 57 143.762 57C162.095 57 171 75.8571 171 84.2381C171 100 165.45 106.5 141.734 122.5C124.983 133.801 120.278 140.763 117.373 143.482C117.175 143.668 117.075 143.76 116.66 143.899C116.394 143.987 115.698 143.993 115.431 143.91C115.013 143.779 114.891 143.668 114.647 143.448C111.95 141.012 106.944 135.25 91.2752 123.5C77.1468 112.905 61 108 61 84.2381C61 66.9524 76.7143 57 86.6667 57C100.651 57 107.75 62.3303 111.725 68.0739Z" fill="url(#paint0_radial)"/>
<defs>
<filter id="filter0_d" x="0" y="0" width="223" height="204" filterUnits="userSpaceOnUse" color-interpolation-filters="sRGB">
<feFlood flood-opacity="0" result="BackgroundImageFix"/>
<feColorMatrix in="SourceAlpha" type="matrix" values="0 0 0 0 0 0 0 0 0 0 0 0 0 0 0 0 0 0 127 0"/>
<feOffset dx="-4"/>
<feGaussianBlur stdDeviation="12"/>
<feColorMatrix type="matrix" values="0 0 0 0 0 0 0 0 0 0 0 0 0 0 0 0 0 0 0.09 0"/>
<feBlend mode="normal" in2="BackgroundImageFix" result="effect1_dropShadow"/>
<feBlend mode="normal" in="SourceGraphic" in2="effect1_dropShadow" result="shape"/>
</filter>
<filter id="filter1_d" x="30" y="24" width="164" height="144.5" filterUnits="userSpaceOnUse" color-interpolation-filters="sRGB">
<feFlood flood-opacity="0" result="BackgroundImageFix"/>
<feColorMatrix in="SourceAlpha" type="matrix" values="0 0 0 0 0 0 0 0 0 0 0 0 0 0 0 0 0 0 127 0"/>
<feOffset dx="-4" dy="-4"/>
<feGaussianBlur stdDeviation="6"/>
<feColorMatrix type="matrix" values="0 0 0 0 0 0 0 0 0 0 0 0 0 0 0 0 0 0 0.09 0"/>
<feBlend mode="normal" in2="BackgroundImageFix" result="effect1_dropShadow"/>
<feBlend mode="normal" in="SourceGraphic" in2="effect1_dropShadow" result="shape"/>
</filter>
<radialGradient id="paint0_radial" cx="0" cy="0" r="1" gradientUnits="userSpaceOnUse" gradientTransform="translate(115.759 100.476) rotate(-18.3528) scale(53.2347 64.9221)">
<stop stop-color="#F5072B"/>
<stop offset="1" stop-color="#C6001C"/>
</radialGradient>
</defs>
</svg>
