<svg width="577" height="280" viewBox="0 0 577 280" fill="none" xmlns="http://www.w3.org/2000/svg">
<path d="M23.0864 260.258L0 269V280H577V0L566.231 20.3996L546.293 11.1127L525.712 23.602L515.743 44.7377L492.268 60.4294L485.193 75.4806L467.828 103.341L459.467 107.184L446.926 105.263L437.278 116.151L425.38 134.084L414.125 119.994L395.795 122.556L380.359 131.843L359.778 121.595L348.523 161.304L337.589 184.041L314.757 198.132L303.18 189.485L291.604 209.02L280.348 215.745L258.16 209.981L246.261 217.026L235.328 215.745L224.715 222.47L215.068 221.189L203.17 228.875L190.307 226.953L158.149 241.364L144.321 239.763L113.128 251.612C109.591 252.145 102.323 253.213 101.551 253.213C100.78 253.213 93.7262 257.269 90.2961 259.297L77.1114 260.258L57.1736 257.376L35.3063 264.101L23.0864 260.258Z" fill="url(#paint0_linear_15_48)" fill-opacity="0.2"/>
<defs>
<linearGradient id="paint0_linear_15_48" x1="289" y1="51" x2="289" y2="373" gradientUnits="userSpaceOnUse">
<stop stop-color="#2028E8"/>
<stop offset="1" stop-color="#2028E8" stop-opacity="0"/>
</linearGradient>
</defs>
</svg>
