<svg width="103" height="45" viewBox="0 0 103 45" fill="none" xmlns="http://www.w3.org/2000/svg">
<path fill-rule="evenodd" clip-rule="evenodd" d="M27.0837 22.6508C27.0837 10.8942 36.5219 1.40741 48.2464 1.40741C59.9124 1.40741 69.3506 10.9524 69.3506 22.709C69.3506 34.4656 59.9124 44.0106 48.2464 44.0106C36.5219 43.9524 27.0837 34.4656 27.0837 22.6508ZM0 44.5926V0.59259H26.6147L27.3768 12.6402H12.5452V18.4603H24.6801V30.3333H12.5452V44.5926H0ZM103 44.4762L89.6927 21.7196L101.828 0.767193H88.403L83.0097 10.1376L77.4991 0.767193H63.7814L76.0922 21.8942L63.0194 44.4762H76.4439L82.7752 33.5344L89.2237 44.4762H103ZM51.881 31.381V13.9206C51.881 11.8254 50.2982 10.0794 48.2464 10.0794C46.3119 10.0794 44.6705 11.8254 44.6705 13.9206V31.381C44.6705 33.3016 46.3119 34.9312 48.2464 34.9312C50.3569 34.9894 51.881 33.5344 51.881 31.381Z" fill="#2E3191"/>
</svg>
