<svg xmlns="http://www.w3.org/2000/svg" width="379" height="85" fill="none" viewBox="0 0 379 85">
  <g clip-path="url(#a)">
    <path fill="url(#b)" d="M99.228 79.867H7.318a3.017 3.017 0 0 1-2.943-2.275v-.032A2.847 2.847 0 0 1 4.407 76c.049-.179.113-.373.212-.552l2.78-5.377.097-.196 4.553-8.822.698-1.349L42.752 1.625A3.02 3.02 0 0 1 45.45 0h15.644a3.02 3.02 0 0 1 2.699 1.625l30.409 58.86 1.35 2.632.44.86 1.968 3.786.049.114 3.918 7.57c.065.13.114.245.164.374.016.049.032.08.032.113.048.13.065.244.097.357.324 1.789-1.025 3.576-2.993 3.576Z"/>
    <path fill="#fff" d="M102.333 76.341c-.032-.016-.081-.016-.113-.048a11.312 11.312 0 0 1-.422-.146c-1.496-.552-2.667-.99-5.302-.99-2.618 0-3.789.438-5.285.99-1.74.65-3.918 1.446-7.871 1.446-3.951 0-6.115-.796-7.855-1.446-.91-.34-1.692-.633-2.764-.796-.699-.13-1.496-.196-2.537-.196-2.618 0-3.79.438-5.285.99-1.74.65-3.919 1.447-7.871 1.447-1.188 0-2.211-.065-3.106-.196-.064 0-.113-.016-.163-.016-2.017-.276-3.398-.796-4.585-1.234-1.496-.553-2.667-.99-5.285-.99-2.634 0-3.805.437-5.285.99-.731.276-1.545.569-2.521.813-1.35.357-3.057.633-5.35.633-3.951 0-6.115-.797-7.871-1.446-1.48-.553-2.65-.99-5.285-.99-2.619 0-3.79.437-5.286.99-1.74.65-3.902 1.446-7.854 1.446h-.062c-.277 0-.537 0-.781-.016l.016-.033L4.407 76c.049-.179.113-.373.212-.552l2.78-5.377.097-.196c.016 0 .033 0 .049-.016.797-.18 1.447-.406 2.178-.682 1.74-.65 3.903-1.446 7.855-1.446 3.951 0 6.131.797 7.871 1.446 1.48.553 2.667.974 5.285.974 1.008 0 1.789-.048 2.471-.163 1.09-.179 1.903-.471 2.814-.812 1.74-.65 3.92-1.446 7.872-1.446 3.95 0 6.114.796 7.854 1.446.683.244 1.3.471 2.017.65a.48.48 0 0 0 .163.032c.814.179 1.773.292 3.106.292 2.634 0 3.805-.422 5.3-.974 1.741-.65 3.903-1.446 7.856-1.446 1.918 0 3.448.195 4.683.455 1.3.293 2.293.666 3.188.99 1.496.553 2.667.975 5.285.975 2.634 0 3.805-.422 5.301-.974 1.74-.65 3.903-1.446 7.855-1.446.52 0 .992.016 1.448.032h.016l.048.113 3.919 7.571c.065.13.113.244.163.374.016.048.033.08.033.113l.207.408Z"/>
    <path fill="#fff" d="M53.92 52.027v27.164H41.325c-2.889 0-5.532-1.71-6.617-4.383a34.072 34.072 0 0 1-1.376-4.305c-.168-.657-.306-1.344-.459-2.062a53.892 53.892 0 0 1-.473-3.145c-.337-2.81-.474-5.986-.337-9.558l21.702-3.68.077-.015.078-.016Z"/>
    <path fill="#94C9E4" d="M75.363 64.7a58.12 58.12 0 0 1-.55 3.742c-.153.718-.29 1.405-.459 2.062a34.055 34.055 0 0 1-1.375 4.306c-1.086 2.672-3.73 4.382-6.618 4.382H53.767V52.027l.076.015.077.015 21.702 3.68c.124 3.33.016 6.307-.259 8.964Z"/>
    <path fill="#94C9E4" d="M70.072 42.241v10.312l-16.247-2.688-15.665 2.596V42.24c0-1.09.884-1.972 1.974-1.972h27.964a1.976 1.976 0 0 1 1.974 1.973Z"/>
    <path fill="#fff" d="M53.825 49.865 38.16 52.462V42.24c0-1.09.884-1.972 1.974-1.972h13.744l-.053 9.597Zm5.403-11.477H48.83V26.57c0-.588.478-1.066 1.067-1.066h8.265c.588 0 1.066.478 1.066 1.066v11.818Z"/>
    <path fill="#94C9E4" d="M59.225 38.407h-5.25V25.503h4.27c.542 0 .98.438.98.979v11.925Z"/>
    <path fill="#46658A" d="M106.675 84.82c-2.178-.276-3.642-.812-4.879-1.266-1.496-.553-2.667-.99-5.301-.99-2.619 0-3.79.437-5.286.99-1.74.633-3.918 1.446-7.87 1.446s-6.115-.813-7.855-1.446c-1.496-.553-2.667-.99-5.302-.99-2.618 0-3.789.437-5.285.99-1.74.633-3.919 1.446-7.871 1.446-3.953 0-6.115-.813-7.855-1.446-1.496-.553-2.667-.99-5.285-.99-2.635 0-3.805.437-5.285.99C36.844 84.187 34.682 85 30.73 85c-3.953 0-6.115-.813-7.871-1.446-1.48-.553-2.651-.99-5.286-.99-2.618 0-3.789.437-5.285.99C10.548 84.187 8.386 85 4.433 85c-1.82 0-3.252-.163-4.439-.422l3.594-7.002.016-.033a11 11 0 0 0 .765.017h.064c2.619 0 3.79-.422 5.286-.975 1.74-.65 3.902-1.446 7.854-1.446 3.951 0 6.131.797 7.872 1.446 1.48.553 2.666.975 5.285.975 2.503 0 3.692-.39 5.09-.91.064-.016.129-.032.195-.065 1.74-.65 3.919-1.446 7.87-1.446 3.952 0 6.116.797 7.856 1.446.682.244 1.3.472 2.017.65a.48.48 0 0 0 .163.032c.813.18 1.772.293 3.105.293 2.634 0 3.805-.422 5.301-.975 1.74-.65 3.903-1.446 7.855-1.446.96 0 1.821.049 2.586.13 2.407.243 3.967.828 5.285 1.315 1.496.552 2.667.974 5.285.974 2.635 0 3.806-.422 5.302-.974 1.74-.65 3.902-1.446 7.855-1.446 2.422 0 4.162.292 5.561.682h.033c.016.048.032.08.032.113l.212.405 4.342 8.483Z"/>
    <path fill="#fff" d="m30.397 54.492-.8 1.577h-.017l.817-1.577Zm71.726 21.442-.065-.113-4.066-7.944-.048-.114-1.952-3.785 1.968 3.785.048.114 3.919 7.57c.065.13.113.245.163.374.016.049.033.08.033.113Z"/>
    <path fill="#010101" d="M122.152 1.446h8.519v2.66h-5.14v6.659h4.031v2.658h-4.031v10.281h-3.379V1.446Zm10.854 0h3.666c.418 0 .877.02 1.377.053.5.034 1 .119 1.5.254s.983.337 1.448.606c.464.27.878.639 1.24 1.108.36.469.65 1.058.866 1.765.218.708.327 1.565.327 2.574v.56c0 1.693-.245 3.073-.732 4.137-.486 1.064-1.204 1.831-2.152 2.3l3.575 8.9h-3.575l-2.961-8.327h-1.265v8.327h-3.312V1.446h-.002Zm3.822 11.495c.591 0 1.091-.065 1.5-.195.409-.131.739-.35.992-.659.251-.307.434-.716.548-1.224.114-.508.17-1.136.17-1.882V7.22a6.24 6.24 0 0 0-.156-1.486c-.105-.417-.281-.761-.528-1.028-.248-.27-.577-.47-.985-.6-.407-.13-.923-.195-1.541-.195h-.509v9.03h.509Zm9.929-11.495h3.379v22.258h-3.379V1.446Zm7.266 0h8.257v2.66h-4.878v6.659h3.77v2.658h-3.77v7.624h5.009v2.659h-8.388V1.446Zm10.906 0h2.739l5.4 14.896h.079a45.793 45.793 0 0 0-.104-1.16 38.51 38.51 0 0 1-.116-1.453 62.017 62.017 0 0 1-.131-4.163v-8.12h3.026v22.258h-2.766l-5.373-14.503h-.103c.026.392.06.816.103 1.27.044.457.084.993.117 1.61.034.618.065 1.336.093 2.158.027.821.038 1.796.038 2.924v6.541h-3V1.446h-.002Zm14.782 0h3.508c.531 0 1.081.016 1.651.046.57.03 1.126.125 1.669.279a5.413 5.413 0 0 1 1.54.723c.483.325.906.782 1.271 1.37.365.584.655 1.324.868 2.214.213.89.319 1.98.319 3.266v6.463c0 1.286-.106 2.374-.319 3.271-.213.893-.503 1.633-.868 2.215-.365.582-.788 1.036-1.271 1.362a5.37 5.37 0 0 1-1.54.723 7.417 7.417 0 0 1-1.669.28c-.57.03-1.12.045-1.651.045h-3.508V1.446Zm4.239 19.9c.609 0 1.111-.08 1.506-.236.396-.155.708-.432.939-.827.231-.397.39-.935.477-1.617.086-.681.13-1.544.13-2.587V9.175c0-1.042-.044-1.905-.13-2.587-.089-.683-.246-1.221-.477-1.616a1.85 1.85 0 0 0-.939-.828c-.397-.156-.897-.233-1.506-.233h-.86v17.434h.86Zm8.819-2.151c0-.477.029-.92.085-1.322.056-.404.141-.84.254-1.31h2.622v1.08c0 .6.036 1.13.111 1.59.074.46.196.85.365 1.166.169.317.396.557.678.717.283.16.628.241 1.037.241.645 0 1.134-.176 1.474-.527.34-.351.509-.867.509-1.545a6.01 6.01 0 0 0-.072-.957 3.918 3.918 0 0 0-.249-.867 5.888 5.888 0 0 0-.475-.905 11.59 11.59 0 0 0-.769-1.062l-3.521-4.184c-.627-.8-1.11-1.605-1.448-2.418a6.707 6.707 0 0 1-.509-2.6c0-.738.115-1.416.344-2.033.231-.617.564-1.15.999-1.598a4.473 4.473 0 0 1 1.611-1.042c.64-.246 1.363-.371 2.173-.371.982 0 1.803.14 2.459.417.656.278 1.181.644 1.571 1.095.391.451.666.957.828 1.516a6.17 6.17 0 0 1 .24 1.688c0 .477-.035.918-.111 1.322-.073.403-.157.85-.254 1.336h-2.608v-1.05c0-1.182-.169-2.088-.509-2.718-.34-.63-.89-.945-1.656-.945-.636 0-1.109.175-1.423.526-.313.353-.469.825-.469 1.415 0 .312.025.594.072.847.047.251.118.483.211.698.091.213.201.419.332.619s.278.407.444.626l3.926 4.743c.712.93 1.261 1.823 1.643 2.678a6.57 6.57 0 0 1 .575 2.717c0 .79-.125 1.502-.372 2.137a4.449 4.449 0 0 1-1.063 1.617 4.72 4.72 0 0 1-1.671 1.022c-.652.238-1.386.359-2.204.359-1.009 0-1.846-.135-2.511-.404-.665-.27-1.196-.626-1.591-1.07a3.788 3.788 0 0 1-.834-1.51 6.14 6.14 0 0 1-.244-1.733Zm24.133 4.705a8.43 8.43 0 0 1-1.16-.086 4.5 4.5 0 0 1-2.421-1.133c-.378-.333-.712-.774-1.005-1.32-.291-.549-.524-1.224-.699-2.027-.175-.804-.26-1.76-.26-2.873V8.575c0-1.121.09-2.078.268-2.873.178-.795.414-1.464.71-2.006.294-.542.633-.976 1.011-1.298a4.398 4.398 0 0 1 1.188-.736c.412-.169.824-.28 1.233-.332.407-.053.787-.08 1.134-.08.331 0 .697.026 1.102.073.403.048.809.152 1.212.313.404.16.799.4 1.181.717.382.317.722.746 1.016 1.289.296.543.533 1.216.711 2.02.178.804.268 1.774.268 2.911v7.886c0 1.104-.092 2.052-.274 2.848-.182.797-.422 1.468-.718 2.02s-.637.994-1.022 1.328a5.078 5.078 0 0 1-1.189.782c-.403.186-.806.31-1.206.371-.397.06-.757.092-1.08.092Zm0-2.541c.331 0 .62-.056.868-.17.247-.112.452-.308.612-.586.161-.276.283-.643.366-1.1.083-.457.124-1.032.124-1.727V7.65c0-.713-.041-1.308-.124-1.786-.083-.478-.205-.863-.366-1.154-.16-.29-.365-.496-.612-.618a1.943 1.943 0 0 0-.868-.182c-.338 0-.635.06-.888.182-.252.122-.46.327-.627.618-.166.291-.288.676-.37 1.154-.084.478-.125 1.071-.125 1.786v10.125c0 .695.041 1.27.125 1.727.082.457.206.824.37 1.1a1.4 1.4 0 0 0 .627.587c.253.113.55.169.888.169Zm8.767-19.913h8.517v2.66h-5.138v6.659h4.029v2.658h-4.029v10.281h-3.379V1.446Z"/>
    <path fill="#628FC6" d="M124.604 30.837h3.888l4.122 22.259h-3.417l-.614-3.987h-4.07l-.587 3.987h-3.43l4.108-22.258Zm3.588 15.73-1.565-11.09h-.143l-1.578 11.09h3.286Zm6.653-15.73h3.379v19.6h4.604v2.659h-7.983V30.838Zm12.655 0h3.888l4.121 22.259h-3.417l-.613-3.987h-4.07l-.587 3.987h-3.43l4.108-22.258Zm3.588 15.73-1.565-11.09h-.143l-1.578 11.09h3.286Zm5.792 2.02c0-.478.028-.92.086-1.323.056-.404.141-.84.254-1.31h2.621v1.081c0 .6.037 1.13.112 1.59.074.46.196.85.365 1.166.169.317.396.556.678.717.283.16.628.24 1.037.24.644 0 1.134-.176 1.474-.527.34-.351.509-.867.509-1.544 0-.347-.024-.666-.071-.957a4.023 4.023 0 0 0-.248-.867 6.16 6.16 0 0 0-.475-.905c-.2-.318-.458-.672-.77-1.063l-3.521-4.184c-.627-.8-1.109-1.605-1.448-2.417a6.706 6.706 0 0 1-.508-2.601c0-.738.114-1.416.345-2.033a4.577 4.577 0 0 1 .997-1.597 4.49 4.49 0 0 1 1.611-1.042c.64-.247 1.364-.372 2.173-.372.982 0 1.802.14 2.458.417.656.278 1.181.644 1.571 1.095.391.451.668.957.828 1.517a6.13 6.13 0 0 1 .241 1.687c0 .478-.035.918-.11 1.323-.074.402-.159.849-.255 1.335h-2.608v-1.056c0-1.182-.169-2.087-.509-2.718-.339-.63-.891-.944-1.656-.944-.635 0-1.108.174-1.421.526-.313.352-.469.824-.469 1.415 0 .311.023.594.072.846.047.252.118.484.209.698.091.213.201.42.332.62.13.199.278.406.443.625l3.926 4.744c.713.93 1.261 1.822 1.645 2.678.382.855.575 1.76.575 2.717 0 .79-.125 1.502-.372 2.136a4.49 4.49 0 0 1-1.064 1.617 4.71 4.71 0 0 1-1.669 1.023c-.652.238-1.388.358-2.205.358-1.01 0-1.845-.135-2.511-.404-.667-.27-1.196-.626-1.592-1.07a3.787 3.787 0 0 1-.834-1.51 6.07 6.07 0 0 1-.246-1.727Zm13.411-17.75h3.379v9.723h.104l3.861-9.721H181l-4.304 10.44 4.786 11.818h-3.613l-4.095-10.594h-.104v10.594h-3.379v-22.26Zm15.641 0h3.887l4.122 22.259h-3.417l-.613-3.987h-4.071l-.585 3.987h-3.43l4.107-22.258Zm3.587 15.73-1.565-11.09h-.143l-1.578 11.09h3.286Zm12.447-15.73h4.409l2.139 8.614c.225.955.404 1.866.534 2.73.13.864.257 1.68.379 2.443h.103c.122-.765.249-1.579.379-2.443.131-.865.309-1.775.534-2.73l2.205-8.614h4.318v22.259h-3.157v-7.363c0-1.13.01-2.216.031-3.258.02-1.042.05-2 .085-2.873.034-.874.075-1.644.118-2.313.043-.669.084-1.198.118-1.59h-.249l-3.364 14.53h-2.14l-3.391-14.53h-.249c.034.392.076.921.118 1.59.043.669.083 1.439.118 2.313a154.889 154.889 0 0 1 .116 6.131v7.363h-3.157V30.838h.003Zm21.341 0h3.888l4.121 22.259h-3.417l-.613-3.987h-4.07l-.586 3.987h-3.43l4.107-22.258Zm3.586 15.73-1.565-11.09h-.142l-1.579 11.09h3.286Zm6.653-15.73h3.666c.418 0 .877.02 1.377.053.5.034 1 .12 1.5.255s.983.336 1.448.605c.464.27.878.64 1.24 1.108.36.469.648 1.058.866 1.765.218.708.327 1.565.327 2.575v.56c0 1.693-.243 3.073-.73 4.136-.487 1.065-1.205 1.832-2.152 2.3l3.574 8.9h-3.574l-2.961-8.327h-1.265v8.327h-3.314V30.837h-.002Zm3.823 11.496c.59 0 1.092-.065 1.501-.196.409-.13.74-.35.991-.658.253-.307.436-.716.549-1.224.112-.509.169-1.137.169-1.883v-1.76c0-.574-.053-1.069-.156-1.485-.104-.417-.281-.761-.528-1.029-.249-.27-.577-.468-.986-.6-.407-.13-.92-.195-1.538-.195h-.509v9.03h.507Zm9.928-11.496h3.379v22.259h-3.379V30.838Zm7.267 0h2.739l5.4 14.896h.078c-.026-.347-.06-.733-.103-1.16-.044-.426-.084-.91-.117-1.453a59.94 59.94 0 0 1-.131-4.163v-8.118h3.027v22.257h-2.766l-5.373-14.504h-.104c.026.393.06.816.104 1.27.043.457.082.993.118 1.61.034.618.064 1.337.091 2.158.026.822.038 1.796.038 2.924v6.542h-2.999V30.838h-.002Zm14.779 0h8.257v2.66h-4.878v6.659h3.77v2.659h-3.77v7.624h5.007v2.658h-8.386v-22.26Zm16.7 0h3.379v9.319h4.004v-9.319h3.378v22.259h-3.378V42.815h-4.004v10.28h-3.379V30.838Zm14.674 0h3.379v22.259h-3.379V30.838Zm11.768 22.467c-.262 0-.565-.03-.913-.085a3.873 3.873 0 0 1-1.076-.358 4.559 4.559 0 0 1-1.088-.775c-.356-.334-.677-.777-.958-1.33-.282-.551-.512-1.228-.685-2.032-.174-.804-.262-1.76-.262-2.873v-7.885c0-1.12.093-2.078.275-2.873.182-.795.427-1.463.731-2.006.303-.542.653-.975 1.05-1.297a4.696 4.696 0 0 1 1.233-.736c.425-.17.847-.28 1.264-.333a9.438 9.438 0 0 1 1.162-.079c.903 0 1.666.125 2.288.372.623.248 1.127.586 1.514 1.015.387.43.665.933.834 1.505.169.575.254 1.182.254 1.824 0 .478-.029.918-.085 1.323-.057.402-.134.849-.228 1.335h-2.7V36.96c0-2.441-.657-3.661-1.97-3.661-.356 0-.665.06-.927.182-.26.122-.478.328-.651.619-.174.29-.302.676-.386 1.154-.082.477-.123 1.07-.123 1.785v10.086c0 .695.041 1.27.123 1.732.084.46.211.83.38 1.108.169.28.382.475.64.593.255.117.563.176.919.176.374 0 .696-.097.965-.294.269-.195.491-.461.665-.8a4.35 4.35 0 0 0 .385-1.199c.082-.46.124-.96.124-1.5v-2.905h-1.736v-2.212h5.022v11.272h-2.243l-.365-2.112c-.427.826-.915 1.42-1.467 1.78-.554.36-1.207.54-1.965.54Zm9.239-22.467h3.377v9.319h4.006v-9.319h3.379v22.259h-3.379V42.815h-4.006v10.28h-3.377V30.838Zm13.254 0h3.234l1.501 13.448.169 3.141h.326l.314-3.53 2.4-13.059h2.699l2.297 13.06.261 3.529h.339l.156-3.14 1.369-13.449h3.248l-3.117 22.259h-3.43l-1.839-10.697-.575-4.653h-.26l-.562 4.653-1.932 10.697h-3.39l-3.208-22.258Zm23.243 0h3.888l4.122 22.259h-3.418l-.613-3.987h-4.07l-.585 3.987h-3.431l4.107-22.258Zm3.588 15.73-1.565-11.09h-.144l-1.577 11.09h3.286Zm9.301-.885-4.488-14.845h3.404l2.727 10.647h.156l2.701-10.647H379l-4.511 14.845v7.414h-3.379v-7.414Z"/>
    <path fill="#010101" d="M121.292 77.978c0-.477.028-.92.085-1.322.056-.404.142-.84.255-1.311h2.621v1.082c0 .6.037 1.13.112 1.59.073.46.195.849.365 1.165.169.317.395.557.678.717.282.16.628.241 1.037.241.644 0 1.134-.176 1.474-.527.339-.352.509-.867.509-1.545 0-.347-.024-.666-.071-.957a4.03 4.03 0 0 0-.249-.867 5.978 5.978 0 0 0-.475-.905c-.2-.317-.457-.672-.769-1.063l-3.522-4.183c-.626-.8-1.109-1.605-1.447-2.418a6.706 6.706 0 0 1-.509-2.6c0-.739.115-1.416.346-2.033.231-.618.563-1.15.997-1.598a4.483 4.483 0 0 1 1.611-1.042c.64-.247 1.363-.371 2.172-.371.983 0 1.802.14 2.458.417.656.278 1.182.644 1.571 1.095.392.45.668.956.828 1.516.161.562.242 1.124.242 1.687 0 .478-.037.919-.111 1.323-.073.403-.158.85-.254 1.336h-2.608v-1.057c0-1.181-.169-2.087-.509-2.717-.34-.63-.891-.945-1.656-.945-.636 0-1.108.175-1.421.526-.314.353-.469.825-.469 1.415 0 .312.023.594.072.847.047.251.117.483.208.698.092.213.202.419.333.618.129.2.278.408.443.627l3.926 4.743c.713.93 1.26 1.823 1.644 2.678.383.855.574 1.76.574 2.717 0 .79-.124 1.502-.372 2.137a4.463 4.463 0 0 1-1.064 1.616 4.729 4.729 0 0 1-1.669 1.023c-.652.238-1.387.359-2.205.359-1.009 0-1.845-.135-2.511-.404-.667-.27-1.196-.626-1.592-1.07a3.812 3.812 0 0 1-.834-1.51 6.14 6.14 0 0 1-.244-1.728Zm16.058-2.905-4.486-14.844h3.404l2.725 10.647h.156l2.699-10.647h3.392l-4.513 14.844v7.414h-3.377v-7.414Zm9.081 2.905c0-.477.028-.92.085-1.322.056-.404.141-.84.254-1.311h2.622v1.082c0 .6.036 1.13.111 1.59.074.46.196.849.365 1.165.169.317.396.557.678.717.283.16.628.241 1.037.241.645 0 1.135-.176 1.474-.527.34-.352.509-.867.509-1.545a6.02 6.02 0 0 0-.07-.957 4.03 4.03 0 0 0-.249-.867 6.07 6.07 0 0 0-.475-.905 12.27 12.27 0 0 0-.769-1.063l-3.522-4.183c-.626-.8-1.109-1.605-1.447-2.418a6.688 6.688 0 0 1-.509-2.6c0-.739.115-1.416.345-2.033a4.56 4.56 0 0 1 .998-1.598 4.479 4.479 0 0 1 1.61-1.042c.64-.247 1.364-.371 2.173-.371.983 0 1.802.14 2.458.417.656.278 1.181.644 1.571 1.095.391.45.668.956.828 1.516.161.562.241 1.124.241 1.687 0 .478-.036.919-.11 1.323-.073.403-.159.85-.254 1.336h-2.608v-1.057c0-1.181-.17-2.087-.509-2.717-.34-.63-.892-.945-1.657-.945-.635 0-1.107.175-1.421.526-.313.353-.469.825-.469 1.415 0 .312.024.594.072.847.047.251.118.483.209.698.091.213.202.419.333.618.129.2.278.408.442.627l3.926 4.743c.714.93 1.261 1.823 1.645 2.678.382.855.574 1.76.574 2.717 0 .79-.124 1.502-.373 2.137a4.448 4.448 0 0 1-1.063 1.616 4.724 4.724 0 0 1-1.67 1.023c-.651.238-1.387.359-2.205.359-1.009 0-1.844-.135-2.511-.404-.666-.27-1.195-.626-1.591-1.07a3.788 3.788 0 0 1-.834-1.51 6.14 6.14 0 0 1-.244-1.728Zm15.471-15.089h-3.586v-2.66h10.539v2.66h-3.574v19.598h-3.377V62.889h-.002Zm9.314-2.66h8.256v2.66h-4.877v6.658h3.77v2.659h-3.77v7.624h5.008v2.659h-8.387v-22.26Zm10.906 0h4.41l2.138 8.613c.225.955.403 1.866.534 2.73.131.865.256 1.68.378 2.443h.105c.122-.764.247-1.578.378-2.442a34.37 34.37 0 0 1 .534-2.73l2.205-8.614h4.318v22.258h-3.156v-7.362a161.789 161.789 0 0 1 .117-6.132 86.985 86.985 0 0 1 .234-3.903h-.247l-3.365 14.531h-2.139l-3.392-14.53h-.247a86.985 86.985 0 0 1 .234 3.903 154.713 154.713 0 0 1 .117 6.131v7.362h-3.156V60.229Z"/>
  </g>
  <defs>
    <linearGradient id="b" x1="53.274" x2="53.274" y1="69.783" y2="11.016" gradientUnits="userSpaceOnUse">
      <stop offset="0" stop-color="#46658A"/>
      <stop offset=".55" stop-color="#6182B2"/>
      <stop offset=".833" stop-color="#6C90C6"/>
    </linearGradient>
    <clipPath id="a">
      <path fill="#fff" d="M0 0h379v85H0z"/>
    </clipPath>
  </defs>
</svg>
