<svg xmlns="http://www.w3.org/2000/svg" width="1920" height="219" fill="none" viewBox="0 0 1920 219">
  <path fill="#318ECD" d="M0 .698C3.292.274 6.896 0 13.444 0c7.281 0 10.922.677 14.562 1.353 3.64.677 7.281 1.354 14.562 1.354S53.49 2.03 57.131 1.353C60.77.677 64.41 0 71.692 0c7.28 0 10.921.677 14.562 1.353 3.64.677 7.28 1.354 14.562 1.354 7.281 0 10.922-.677 14.562-1.354C119.02.677 122.66 0 129.941 0s10.922.677 14.562 1.353c3.641.677 7.281 1.354 14.563 1.354 7.281 0 10.921-.677 14.562-1.354C177.268.677 180.909 0 188.19 0s10.921.677 14.562 1.353c3.64.677 7.281 1.354 14.562 1.354s10.922-.677 14.562-1.354C235.517.677 239.157 0 246.438 0S257.36.677 261 1.353c3.641.677 7.281 1.354 14.562 1.354 7.282 0 10.922-.677 14.563-1.354C293.765.677 297.406 0 304.687 0s10.921.677 14.562 1.353c3.64.677 7.281 1.354 14.562 1.354s10.922-.677 14.562-1.354C352.014.677 355.654 0 362.935 0c7.282 0 10.922.677 14.563 1.353 3.64.677 7.281 1.354 14.562 1.354s10.921-.677 14.562-1.354C410.262.677 413.903 0 421.184 0s10.921.677 14.562 1.353c3.64.677 7.281 1.354 14.562 1.354s10.922-.677 14.562-1.354C468.511.677 472.151 0 479.432 0s10.922.677 14.563 1.353c3.64.677 7.281 1.354 14.562 1.354s10.921-.677 14.562-1.354C526.759.677 530.4 0 537.681 0s10.922.677 14.562 1.353c3.641.677 7.281 1.354 14.562 1.354s10.922-.677 14.562-1.354C585.008.677 588.648 0 595.929 0s10.922.677 14.563 1.353c3.64.677 7.281 1.354 14.562 1.354s10.921-.677 14.562-1.354C643.256.677 646.897 0 654.178 0S665.1.677 668.74 1.353c3.641.677 7.281 1.354 14.562 1.354s10.922-.677 14.562-1.354C701.505.677 705.145 0 712.426 0c7.282 0 10.922.677 14.563 1.353 3.64.677 7.281 1.354 14.562 1.354s10.921-.677 14.562-1.354C759.753.677 763.394 0 770.675 0s10.922.677 14.562 1.353c3.641.677 7.281 1.354 14.562 1.354s10.922-.677 14.562-1.354C818.002.677 821.643 0 828.924 0c7.281 0 10.921.677 14.562 1.353 3.64.677 7.281 1.354 14.562 1.354s10.921-.677 14.562-1.354C876.25.677 879.891 0 887.172 0s10.922.677 14.562 1.353c3.641.677 7.281 1.354 14.562 1.354s10.922-.677 14.562-1.354C934.499.677 938.14 0 945.421 0c7.281 0 10.921.677 14.562 1.353 3.64.677 7.281 1.354 14.562 1.354s10.921-.677 14.562-1.354C992.747.677 996.388 0 1003.67 0c7.28 0 10.92.677 14.56 1.353 3.64.677 7.28 1.354 14.56 1.354s10.92-.677 14.57-1.354C1051 .677 1054.64 0 1061.92 0s10.92.677 14.56 1.353c3.64.677 7.28 1.354 14.56 1.354s10.92-.677 14.56-1.354C1109.24.677 1112.89 0 1120.17 0s10.92.677 14.56 1.353c3.64.677 7.28 1.354 14.56 1.354s10.92-.677 14.56-1.354C1167.49.677 1171.13 0 1178.41 0c7.29 0 10.93.677 14.57 1.353 3.64.677 7.28 1.354 14.56 1.354s10.92-.677 14.56-1.354C1225.74.677 1229.38 0 1236.66 0s10.92.677 14.57 1.353c3.64.677 7.28 1.354 14.56 1.354s10.92-.677 14.56-1.354C1283.99.677 1287.63 0 1294.91 0s10.92.677 14.56 1.353c3.64.677 7.28 1.354 14.57 1.354 7.28 0 10.92-.677 14.56-1.354C1342.24.677 1345.88 0 1353.16 0s10.92.677 14.56 1.353c3.64.677 7.28 1.354 14.56 1.354 7.29 0 10.93-.677 14.57-1.354C1400.49.677 1404.13 0 1411.41 0s10.92.677 14.56 1.353c3.64.677 7.28 1.354 14.56 1.354s10.92-.677 14.57-1.354C1458.74.677 1462.38 0 1469.66 0s10.92.677 14.56 1.353c3.64.677 7.28 1.354 14.56 1.354s10.92-.677 14.56-1.354C1516.98.677 1520.62 0 1527.91 0c7.28 0 10.92.677 14.56 1.353 3.64.677 7.28 1.354 14.56 1.354s10.92-.677 14.56-1.354C1575.23.677 1578.87 0 1586.15 0c7.29 0 10.93.677 14.57 1.353 3.64.677 7.28 1.354 14.56 1.354s10.92-.677 14.56-1.354C1633.48.677 1637.12 0 1644.4 0s10.92.677 14.56 1.353c3.65.677 7.29 1.354 14.57 1.354s10.92-.677 14.56-1.354C1691.73.677 1695.37 0 1702.65 0s10.92.677 14.56 1.353c3.64.677 7.28 1.354 14.57 1.354 7.28 0 10.92-.677 14.56-1.354C1749.98.677 1753.62 0 1760.9 0s10.92.677 14.56 1.353c3.64.677 7.28 1.354 14.56 1.354 7.29 0 10.93-.677 14.57-1.354C1808.23.677 1811.87 0 1819.15 0s10.92.677 14.56 1.353c3.64.677 7.28 1.354 14.56 1.354s10.92-.677 14.56-1.354C1866.48.677 1870.12 0 1877.4 0s10.92.677 14.56 1.353c3.64.677 7.28 1.354 14.56 1.354 6.48 0 10.14-.804 13.48-1.577v184.926c-3.3.427-6.91.703-13.48.703-7.28 0-10.92-.677-14.56-1.353-3.64-.677-7.28-1.354-14.56-1.354s-10.92.677-14.57 1.354c-3.64.676-7.28 1.353-14.56 1.353s-10.92-.677-14.56-1.353c-3.64-.677-7.28-1.354-14.56-1.354s-10.92.677-14.56 1.354c-3.64.676-7.28 1.353-14.57 1.353-7.28 0-10.92-.677-14.56-1.353-3.64-.677-7.28-1.354-14.56-1.354s-10.92.677-14.56 1.354c-3.64.676-7.28 1.353-14.56 1.353-7.29 0-10.93-.677-14.57-1.353-3.64-.677-7.28-1.354-14.56-1.354s-10.92.677-14.56 1.354c-3.64.676-7.28 1.353-14.56 1.353s-10.92-.677-14.57-1.353c-3.64-.677-7.28-1.354-14.56-1.354s-10.92.677-14.56 1.354c-3.64.676-7.28 1.353-14.56 1.353s-10.92-.677-14.56-1.353c-3.64-.677-7.28-1.354-14.57-1.354-7.28 0-10.92.677-14.56 1.354-3.64.676-7.28 1.353-14.56 1.353s-10.92-.677-14.56-1.353c-3.64-.677-7.28-1.354-14.56-1.354-7.29 0-10.93.677-14.57 1.354-3.64.676-7.28 1.353-14.56 1.353s-10.92-.677-14.56-1.353c-3.64-.677-7.28-1.354-14.56-1.354s-10.92.677-14.56 1.354c-3.65.676-7.29 1.353-14.57 1.353s-10.92-.677-14.56-1.353c-3.64-.677-7.28-1.354-14.56-1.354s-10.92.677-14.56 1.354c-3.64.676-7.28 1.353-14.57 1.353-7.28 0-10.92-.677-14.56-1.353-3.64-.677-7.28-1.354-14.56-1.354s-10.92.677-14.56 1.354c-3.64.676-7.28 1.353-14.56 1.353-7.29 0-10.93-.677-14.57-1.353-3.64-.677-7.28-1.354-14.56-1.354s-10.92.677-14.56 1.354c-3.64.676-7.28 1.353-14.56 1.353s-10.92-.677-14.56-1.353c-3.65-.677-7.29-1.354-14.57-1.354s-10.92.677-14.56 1.354c-3.64.676-7.28 1.353-14.56 1.353s-10.92-.677-14.56-1.353c-3.64-.677-7.28-1.354-14.57-1.354-7.28 0-10.92.677-14.56 1.354-3.64.676-7.28 1.353-14.56 1.353s-10.92-.677-14.56-1.353c-3.64-.677-7.28-1.354-14.56-1.354s-10.93.677-14.57 1.354c-3.64.676-7.28 1.353-14.56 1.353s-10.92-.677-14.56-1.353c-3.64-.677-7.28-1.354-14.56-1.354s-10.92.677-14.56 1.354c-3.65.676-7.29 1.353-14.57 1.353s-10.92-.677-14.56-1.353c-3.64-.677-7.28-1.354-14.56-1.354-7.282 0-10.923.677-14.563 1.354-3.641.676-7.281 1.353-14.562 1.353s-10.922-.677-14.562-1.353c-3.641-.677-7.281-1.354-14.562-1.354s-10.922.677-14.563 1.354c-3.64.676-7.281 1.353-14.562 1.353s-10.921-.677-14.562-1.353c-3.64-.677-7.281-1.354-14.562-1.354s-10.922.677-14.562 1.354c-3.641.676-7.281 1.353-14.562 1.353s-10.922-.677-14.562-1.353c-3.641-.677-7.281-1.354-14.562-1.354s-10.922.677-14.563 1.354c-3.64.676-7.281 1.353-14.562 1.353s-10.921-.677-14.562-1.353c-3.64-.677-7.281-1.354-14.562-1.354s-10.922.677-14.562 1.354c-3.641.676-7.281 1.353-14.562 1.353s-10.922-.677-14.562-1.353c-3.641-.677-7.281-1.354-14.563-1.354-7.281 0-10.921.677-14.562 1.354-3.64.676-7.281 1.353-14.562 1.353s-10.921-.677-14.562-1.353c-3.64-.677-7.281-1.354-14.562-1.354s-10.922.677-14.562 1.354c-3.641.676-7.281 1.353-14.562 1.353s-10.922-.677-14.562-1.353c-3.641-.677-7.282-1.354-14.563-1.354-7.281 0-10.921.677-14.562 1.354-3.64.676-7.281 1.353-14.562 1.353s-10.921-.677-14.562-1.353c-3.64-.677-7.281-1.354-14.562-1.354s-10.922.677-14.562 1.354c-3.641.676-7.281 1.353-14.562 1.353s-10.922-.677-14.562-1.353c-3.641-.677-7.282-1.354-14.563-1.354-7.281 0-10.921.677-14.562 1.354-3.64.676-7.281 1.353-14.562 1.353s-10.922-.677-14.562-1.353c-3.641-.677-7.281-1.354-14.562-1.354s-10.922.677-14.562 1.354c-3.641.676-7.281 1.353-14.562 1.353s-10.922-.677-14.562-1.353c-3.641-.677-7.281-1.354-14.563-1.354-7.281 0-10.921.677-14.562 1.354-3.64.676-7.281 1.353-14.562 1.353s-10.922-.677-14.562-1.353c-3.641-.677-7.281-1.354-14.562-1.354s-10.922.677-14.562 1.354c-3.641.676-7.281 1.353-14.563 1.353-7.281 0-10.921-.677-14.562-1.353-3.64-.677-7.281-1.354-14.562-1.354s-10.921.677-14.562 1.354c-3.64.676-7.281 1.353-14.562 1.353s-10.922-.677-14.562-1.353c-3.641-.677-7.281-1.354-14.562-1.354s-10.922.677-14.562 1.354c-3.641.676-7.281 1.353-14.562 1.353-7.282 0-10.922-.677-14.563-1.353-3.64-.677-7.281-1.354-14.562-1.354s-10.921.677-14.562 1.354c-3.64.676-7.281 1.353-14.562 1.353s-10.922-.677-14.562-1.353c-3.64-.677-7.281-1.354-14.562-1.354s-10.922.677-14.563 1.354c-3.64.676-7.28 1.353-14.562 1.353-7.28 0-10.921-.677-14.562-1.353-3.64-.677-7.28-1.354-14.562-1.354-6.455 0-10.116.798-13.444 1.568V.698Z"/>
  <path fill="#5FB2E0" d="M0 75.055c8.984-.758 24.825-1.161 32.508-1.161 12.89 0 19.324-1.104 25.748-2.205 6.403-1.098 12.795-2.194 25.558-2.194 12.89 0 19.324 1.104 25.748 2.205 6.403 1.098 12.795 2.194 25.558 2.194 12.89 0 19.324-1.104 25.748-2.205 6.403-1.098 12.795-2.194 25.558-2.194 12.89 0 19.325 1.104 25.748 2.205 6.403 1.098 12.795 2.194 25.558 2.194 12.89 0 19.325-1.104 25.749-2.205 6.402-1.098 12.794-2.194 25.557-2.194 12.89 0 19.325 1.104 25.749 2.205 6.402 1.098 12.795 2.194 25.558 2.194 12.89 0 19.324-1.104 25.748-2.205 6.402-1.098 12.795-2.194 25.558-2.194 12.89 0 19.324 1.104 25.748 2.205 6.403 1.098 12.795 2.194 25.558 2.194 12.89 0 19.324-1.104 25.748-2.205 6.403-1.098 12.795-2.194 25.558-2.194 12.89 0 19.324 1.104 25.748 2.205 6.403 1.098 12.795 2.194 25.558 2.194 12.89 0 19.324-1.104 25.748-2.205 6.403-1.098 12.795-2.194 25.558-2.194 12.89 0 19.325 1.104 25.748 2.205 6.403 1.098 12.795 2.194 25.558 2.194 12.89 0 19.325-1.104 25.748-2.205 6.403-1.098 12.795-2.194 25.558-2.194 12.89 0 19.325 1.104 25.749 2.205 6.402 1.098 12.794 2.194 25.557 2.194 12.89 0 19.325-1.104 25.749-2.205 6.402-1.098 12.795-2.194 25.558-2.194 12.89 0 19.324 1.104 25.748 2.205 6.402 1.098 12.795 2.194 25.558 2.194 12.89 0 19.324-1.104 25.748-2.205 6.403-1.098 12.795-2.194 25.558-2.194 12.89 0 19.324 1.104 25.748 2.205 6.403 1.098 12.795 2.194 25.558 2.194 12.89 0 19.324-1.104 25.748-2.205 6.403-1.098 12.795-2.194 25.554-2.194 12.89 0 19.33 1.104 25.75 2.205 6.4 1.098 12.8 2.194 25.56 2.194 12.89 0 19.32-1.104 25.75-2.205 6.4-1.098 12.79-2.194 25.56-2.194 12.89 0 19.32 1.104 25.74 2.205 6.41 1.098 12.8 2.194 25.56 2.194 12.89 0 19.33-1.104 25.75-2.205 6.4-1.098 12.8-2.194 25.56-2.194 12.89 0 19.32 1.104 25.75 2.205 6.4 1.098 12.79 2.194 25.55 2.194 12.89 0 19.33-1.104 25.75-2.205 6.41-1.098 12.8-2.194 25.56-2.194 12.89 0 19.33 1.104 25.75 2.205 6.4 1.098 12.79 2.194 25.56 2.194 12.89 0 19.32-1.104 25.74-2.205 6.41-1.098 12.8-2.194 25.56-2.194 12.89 0 19.33 1.104 25.75 2.205 6.4 1.098 12.8 2.194 25.56 2.194 12.89 0 19.32-1.104 25.75-2.205 6.4-1.098 12.79-2.194 25.56-2.194 12.89 0 19.32 1.104 25.74 2.205 6.41 1.098 12.8 2.194 25.56 2.194 12.89 0 19.33-1.104 25.75-2.205 6.4-1.098 12.79-2.194 25.56-2.194 12.89 0 19.32 1.104 25.75 2.205 6.4 1.098 12.79 2.194 25.55 2.194 12.89 0 19.33-1.104 25.75-2.205 6.4-1.098 12.8-2.194 25.56-2.194 12.89 0 19.32 1.104 25.75 2.205 6.4 1.098 12.79 2.194 25.56 2.194 12.89 0 19.32-1.104 25.74-2.205 6.41-1.098 12.8-2.194 25.56-2.194 12.89 0 19.33 1.104 25.75 2.205 6.4 1.098 12.79 2.194 25.56 2.194 11.66 0 18.07-1.408 24.03-2.715 4.9-1.076 9.49-2.083 16.44-2.179v149.122c-6.91-.097-11.47-1.099-16.34-2.171-5.95-1.309-12.37-2.722-24.13-2.722-12.89 0-19.33 1.103-25.75 2.204-6.4 1.098-12.8 2.194-25.56 2.194-12.89 0-19.32-1.103-25.75-2.205-6.4-1.098-12.79-2.193-25.55-2.193-12.89 0-19.33 1.103-25.75 2.204-6.41 1.098-12.8 2.194-25.56 2.194-12.89 0-19.32-1.103-25.75-2.205-6.4-1.098-12.79-2.193-25.56-2.193-12.89 0-19.32 1.103-25.74 2.204-6.41 1.098-12.8 2.194-25.56 2.194-12.89 0-19.33-1.103-25.75-2.205-6.4-1.098-12.8-2.193-25.56-2.193-12.89 0-19.32 1.103-25.75 2.204-6.4 1.098-12.79 2.194-25.55 2.194-12.9 0-19.33-1.103-25.75-2.205-6.41-1.098-12.8-2.193-25.56-2.193-12.89 0-19.33 1.103-25.75 2.204-6.4 1.098-12.79 2.194-25.56 2.194-12.89 0-19.32-1.103-25.75-2.205-6.4-1.098-12.79-2.193-25.55-2.193-12.89 0-19.33 1.103-25.75 2.204-6.4 1.098-12.8 2.194-25.56 2.194-12.89 0-19.32-1.103-25.75-2.205-6.4-1.098-12.79-2.193-25.56-2.193-12.89 0-19.32 1.103-25.74 2.204-6.41 1.098-12.8 2.194-25.56 2.194-12.89 0-19.33-1.103-25.75-2.205-6.4-1.098-12.79-2.193-25.56-2.193-12.89 0-19.32 1.103-25.75 2.204-6.4 1.098-12.79 2.194-25.55 2.194-12.89 0-19.33-1.103-25.75-2.205-6.4-1.098-12.8-2.193-25.56-2.193-12.89 0-19.32 1.103-25.75 2.204-6.4 1.098-12.79 2.194-25.56 2.194-12.886 0-19.321-1.103-25.744-2.205-6.403-1.098-12.795-2.193-25.558-2.193-12.89 0-19.325 1.103-25.748 2.204-6.403 1.098-12.795 2.194-25.558 2.194-12.89 0-19.325-1.103-25.748-2.205-6.403-1.098-12.795-2.193-25.558-2.193-12.89 0-19.325 1.103-25.749 2.204-6.402 1.098-12.794 2.194-25.557 2.194-12.89 0-19.325-1.103-25.749-2.205-6.403-1.098-12.795-2.193-25.558-2.193-12.89 0-19.324 1.103-25.748 2.204-6.403 1.098-12.795 2.194-25.558 2.194-12.89 0-19.324-1.103-25.748-2.205-6.403-1.098-12.795-2.193-25.558-2.193-12.89 0-19.324 1.103-25.748 2.204-6.403 1.098-12.795 2.194-25.558 2.194-12.89 0-19.324-1.103-25.748-2.205-6.403-1.098-12.795-2.193-25.558-2.193-12.89 0-19.324 1.103-25.748 2.204-6.403 1.098-12.795 2.194-25.558 2.194-12.869 0-19.261-1.1-25.653-2.199-6.392-1.1-12.784-2.199-25.653-2.199-12.89 0-19.325 1.103-25.749 2.204-6.402 1.098-12.794 2.194-25.557 2.194-12.89 0-19.325-1.103-25.749-2.205-6.402-1.098-12.794-2.193-25.557-2.193-12.89 0-19.325 1.103-25.749 2.204-6.402 1.098-12.794 2.194-25.558 2.194-12.89 0-19.324-1.103-25.748-2.205-6.403-1.098-12.795-2.193-25.558-2.193-12.89 0-19.324 1.103-25.748 2.204-6.403 1.098-12.795 2.194-25.558 2.194-12.89 0-19.324-1.103-25.748-2.205-6.403-1.098-12.795-2.193-25.558-2.193-12.89 0-19.324 1.103-25.748 2.204-6.403 1.098-12.795 2.194-25.558 2.194-12.89 0-19.325-1.103-25.748-2.205-6.403-1.098-12.795-2.193-25.558-2.193-6.112 0-12.001 1.306-17.274 2.475C9.122 217.06 3.838 218.232 0 216.969V75.055Z"/>
</svg>
