<svg id="Layer_1" data-name="Layer 1" xmlns="http://www.w3.org/2000/svg" viewBox="0 0 516.26 514"><title>Icons</title><path d="M246,45.73h7.67a1.25,1.25,0,0,0,.37.21C275,48.9,288,67.4,286,85.48a3.5,3.5,0,0,0,1.75,2.76c7,2.72,14,5.23,21.12,7.84.64-1.1,1.16-1.93,1.62-2.79,10.22-19.08,25.1-33.23,45.27-41.16,7.68-3,16-4.32,24.09-6.4h17.05c1.06.3,2.1.7,3.17.89,34.12,5.85,57.6,24.85,70,57.16,2.5,6.51,3.55,13.57,5.27,20.38v17.05c-.31,1.36-.72,2.71-.91,4.09-6.62,46.32-48.72,78.59-92.68,74.49-5.45-.51-10.86-1.43-16.54-2.2-11.77,32.65-23.52,65.26-35.36,98.13a91,91,0,0,1,32.46,25.77c13.37-8.68,26.4-17.25,39.57-25.61,2.68-1.69,3.07-3.24,2.2-6.19-4.32-14.57,2-31.11,14.74-39.55a36.63,36.63,0,0,1,42.55,1.72c8,6.35,12,14.8,14,24.51v8.53a3.83,3.83,0,0,0-.59,1.08c-4.39,27.82-37.57,40.47-59.34,21.77-2-1.69-3.22-1.4-5.13-.12-8.62,5.74-17.35,11.34-26,17l-13.79,9c25,49.29,1.17,101.33-40,120.28-20.77,9.56-42.18,11.19-63.85,4-27.64-9.18-46-28.22-56.15-55.66l-33.24,7.86c-.12,1.29-.22,2.27-.3,3.25-1.87,22-19.8,36.8-41.67,33.64-14.82-2.14-24.73-10.93-29.1-25.26s-.85-27,10-36.9c17.68-16.18,43.42-12,56,8.45.62,1,2.15,2.43,3,2.26,10.63-2.35,21.2-4.94,32.1-7.56a89.19,89.19,0,0,1,2.94-38.62c3.89-12.66,10.61-23.73,19.51-33.83-9.66-10.6-19.06-20.94-28.52-31.34-28,19.94-57.58,23.09-89,10.43-4,7.13-7.66,14-11.64,20.7-1.47,2.47-.89,3.91.91,5.84,14.87,16,13.25,39.27-3.58,53C87,403,71,404.61,59,398.16,45.75,391.1,37.77,377.33,39,363.72c1.43-15.58,11-27.9,25-32.36a38,38,0,0,1,22.2-.16c4.47-8.05,8.78-15.83,13.17-23.72C73.92,288.71,60.11,264.08,61,232.41c.92-31.86,16.32-55.68,43-73l-20-42c-1,.1-1.43.1-1.84.19-14.58,2.93-30-3.66-37.54-16.06C36.32,87.84,37.32,71.46,47,59.4c6.3-7.84,14.69-11.73,24.25-13.67H79.8c.22.17.42.44.67.49,15.43,2.85,25.75,11.72,29.78,26.84,3.77,14.12-.33,26.39-11.18,36.2-1.89,1.71-1.39,3-.54,4.78q7.29,15.15,14.47,30.34l4,8.41c46.77-13.33,82.51.83,108.61,41.22l79.56-33.71a85.24,85.24,0,0,1-1.09-50.43l-23.31-8.6-2.21,2.86c-12.23,15.89-35.23,19.05-50.49,6.94-16.74-13.3-19.34-36-6.09-52.11C228.3,51.31,236.61,47.58,246,45.73Zm-15,161.8c9.21,32.46,3,61.35-19.18,86.83l28.53,31.34c23-16.81,48.15-21.87,75.76-15,11.9-33,23.66-65.59,35.5-98.42a89.49,89.49,0,0,1-40.81-38.61ZM266.9,412.86c-13.34-20-12.71-38.79,1.74-51.74,14.17-12.7,34.05-13.06,48.5-.76a34.55,34.55,0,0,1,11.95,21.48c1.91,11.83-1.72,22-9.7,31.2a53.41,53.41,0,0,1,28.85,29.12c24.1-26.43,25.25-71.57-4.74-99.86-30.47-28.76-77.38-26.45-104.9,5.07-26.76,30.64-20.46,73.55-.16,94C247.24,426.17,248.83,423.28,266.9,412.86Zm176-232.63c24.79-27.51,24.87-73.94-7.42-102.36-30-26.36-77.41-22.54-103.3,8.73-26.41,31.89-18.23,74.16,1.24,93.23a52.79,52.79,0,0,1,28.37-28.56c-13.52-21-12.7-39.72,2.18-52.54,14.58-12.56,34.37-12.35,48.81.52s15.12,31.53,1.58,52A53,53,0,0,1,442.88,180.23ZM121.57,252.68c-6.7-7.47-10.37-16.23-10-26.28s4.24-18.81,11.88-25.53c13.51-11.88,32.75-12.66,46.21-2.2a36.36,36.36,0,0,1,4.94,53.52c5.85,4.42,11.93,8,16.7,12.88s8.12,10.92,12.06,16.42c25.38-27,22.5-73.54-6.42-100.26-29.8-27.52-76.2-25-103.68,5.92C67,216.78,71.84,259.65,93,281.63,102.15,265.22,102.15,265.22,121.57,252.68Zm68.88,40.92c-3.45-16.25-15.4-27.68-31.51-29.17a100.88,100.88,0,0,0-24.19.35C120.33,267,111,275.85,106.1,289.58c-1.07,3-.34,4.47,2.22,6.17C133,312.16,164.84,311.44,190.45,293.6ZM292.62,424.26c-2.6,0-6-.16-9.41,0-14.06.79-27.2,11.36-31.47,24.85-1,3.23-.56,5,2.41,6.9A71.58,71.58,0,0,0,333.91,455a4.72,4.72,0,0,0,1.45-4,35.09,35.09,0,0,0-13-19.41C313.8,424.83,303.88,423.45,292.62,424.26ZM388,162.17c-2.13,0-4.26-.06-6.39,0-17.55.57-31.52,11-35.61,26.39-.59,2.22-.27,3.52,1.75,4.93,23.22,16.22,57.45,16.19,80.63-.05,2.1-1.47,2.29-2.79,1.65-4.92a37.1,37.1,0,0,0-13-18.95C408.45,162.88,398.47,161.63,388,162.17ZM249.86,103.83a21.77,21.77,0,1,0-21.75-21.61A21.78,21.78,0,0,0,249.86,103.83Zm138,43.64A21.64,21.64,0,0,0,409.77,126a21.75,21.75,0,1,0-21.88,21.44ZM97,365.94a21.77,21.77,0,1,0-43.54,0,22,22,0,0,0,21.8,21.68A21.79,21.79,0,0,0,97,365.94Zm22,65.25a21.75,21.75,0,1,0,21.73-21.61A21.68,21.68,0,0,0,119,431.19ZM97,82a21.77,21.77,0,1,0-21.53,21.8A21.67,21.67,0,0,0,97,82Zm341.88,240a21.77,21.77,0,1,0-21.58-21.75A21.87,21.87,0,0,0,438.85,322.06ZM271.6,387.82a21.75,21.75,0,1,0,21.47-21.9A21.92,21.92,0,0,0,271.6,387.82Zm-102-160a21.64,21.64,0,0,0-21.38-21.93,21.76,21.76,0,1,0,21.38,21.93Z"/></svg>