<svg id="Layer_1" data-name="Layer 1" xmlns="http://www.w3.org/2000/svg" viewBox="0 0 516.26 514"><title>Icons</title><path d="M171.43,461.5a9.69,9.69,0,0,0-1.36-.6c-11.68-3.2-18.49-11.53-18.53-23.67q-.16-69.18,0-138.36c0-6.33,2.86-9,9.3-9q35.63,0,71.25,0h4c-2.19-6-4.29-11.94-6.55-17.79-.31-.8-1.39-1.39-2.22-1.89-22.46-13.49-43.87-28.74-67.53-40.25-11.45-5.56-19.72-14.71-26.47-25.35-5.41-8.52-10.47-13.43-16.94-16.66-.47.69-1,1.4-1.45,2.09-5.64,7.9-15.2,10.54-23.89,6.19s-17.09-8.8-25.43-13.56c-9.09-5.18-11.78-16-6.63-25.79q16.51-31.29,33.18-62.52c.29-.55.65-1.07.89-1.65,3-7.21,7.76-12.66,15.4-15.16h7.5c10.08,5.18,20.25,10.19,30.21,15.59,6.35,3.45,9.07,9.34,9.42,16.45.06,1.09.44,2.71,1.2,3.13,14.15,7.9,28.06,16.51,44.58,18.72,12.62,1.69,25.28,3.1,37.92,4.6,11.82,1.4,23.46,3.45,34.32,8.66a58.53,58.53,0,0,1,25.94,24.62c8.88,15.63,17.7,31.3,26.61,46.9,2,3.46,4.22,6.77,6.4,10.12,12.55,19.32,13.89,39.33,3.68,60-.49,1-1,1.93-1.84,3.5h83.14c7.58,0,10,2.46,10.05,10.13,0,44.24-.21,88.48.13,132.72.1,13.24-3.92,24.35-20,28.8Zm-4.75-112.17c-.08,1.69-.18,2.79-.18,3.9q0,41.06,0,82.12c0,8.26,3,11.15,11.39,11.15H401c8.85,0,11.55-2.73,11.55-11.72q0-40.48,0-81v-4.46H277.92a31.41,31.41,0,0,1-4.86-.24,7.33,7.33,0,0,1-.15-14.46,27,27,0,0,1,4.85-.28q64.88,0,129.75,0h4.71V305.1H166.79v29.23h4.74c11.63,0,23.25-.07,34.88,0,5,.05,8.11,3.13,8.11,7.46s-3.13,7.3-8.11,7.46c-3.87.12-7.75,0-11.63,0ZM302.05,204.16c-5.23-9.23-10.15-17.61-14.78-26.16-7-12.88-17.6-21.25-31.86-23.88-14.69-2.71-29.61-4.34-44.47-6.08-17.68-2.08-34.51-6.62-49.92-15.8-3.74-2.22-7.64-4.17-11.82-6.43l-25.8,48.56c11.26,6.19,18.64,15.64,25.23,26,5.22,8.2,12.78,13.86,21.46,18.18,6.47,3.22,12.95,6.48,19.12,10.24,15.35,9.34,30.52,19,45.79,28.48,2.22,1.38,4.56,2.57,6.9,3.73s3.91.44,4.6-2a16.09,16.09,0,0,0,.74-4.39,35,35,0,0,0-9.59-24.5c-5.25-5.68-10.72-11.18-16.08-16.76-3.55-3.7-7.16-7.34-10.64-11.1-9.35-10.09-6.45-21.49,6.75-25.35a66.71,66.71,0,0,1,15.86-2.39c12.76-.53,23.53,3.92,31.44,14.22,3,3.85,5.43,8.07,8.3,12,.67.9,2.14,1.95,3.07,1.81A62.86,62.86,0,0,1,302.05,204.16Zm-55.49,72.75c2.41,3.53,4.58,6.69,6.73,9.87,1.6,2.38,3.71,3.16,6.65,3.14q25.68-.23,51.36,0a7.5,7.5,0,0,0,6.41-2.86c19.74-23.12,9.55-59.06-19.43-68.27-15-4.77-33.39-.18-42.46,10.72,4.28,8.37,7,17.21,6.43,26.85C261.68,266.38,256.72,273.25,246.56,276.91Zm-175.67-110c1.22,1.17,2.35,2.77,3.89,3.63,7,3.88,14,7.58,21.1,11.31,4.19,2.21,5.58,1.83,7.77-2.29q17.82-33.53,35.6-67.08c2.09-4,1.65-5.29-2.36-7.44Q126.53,99.47,116.1,94c-4.43-2.34-5.71-2-8,2.36q-17.66,33.2-35.27,66.4C72.24,163.81,71.79,165,70.89,166.93Zm188.78,40.6c-9.37-17.2-21.87-22.54-38.1-15.85L246,217.08Z"/><path d="M289.6,371.36H359c7.25,0,9.69,2.44,9.7,9.64q0,17.06,0,34.12c0,6.64-2.71,9.47-9.26,9.47q-69.93,0-139.85,0c-6.36,0-9.1-2.85-9.11-9.22q0-17.44,0-34.87c0-6.52,2.58-9.13,9.05-9.14Q254.55,371.34,289.6,371.36Zm63.94,15.28H225.64v22.69h127.9Z"/><path d="M248.13,341.66a7.25,7.25,0,0,1-7.13,7.57,7.42,7.42,0,1,1,7.13-7.57Z"/></svg>