<svg id="Layer_1" data-name="Layer 1" xmlns="http://www.w3.org/2000/svg" viewBox="0 0 516.26 514"><title>Icons</title><path d="M461.38,204.5c-2.33,12.88-10.55,21.91-19.62,30.52-8.7,8.26-17,16.92-25.5,25.4a29.89,29.89,0,0,1-2.45,2.33,7.44,7.44,0,0,1-10.19-.49,7.07,7.07,0,0,1-.12-10.14c4.53-4.83,9.3-9.43,14-14.12,7.15-7.17,14.38-14.26,21.45-21.5,8-8.23,9.71-19.45,4.53-28.94-.35-.62-.8-1.19-1.62-2.42-3.18,12-12.58,18.56-20.26,26.43-11.78,12.07-23.84,23.88-35.74,35.84a19.36,19.36,0,0,1-11,5.92,6.25,6.25,0,0,0-3.12,1.74c-5.88,5.77-11.73,11.59-17.48,17.51a5.7,5.7,0,0,0-1.54,3.53q-.1,46.11,0,92.23a6.86,6.86,0,0,0,.33,1.22h48.06c6.86,0,9.48,2.74,9.32,9.64-.57,25.69-23.41,48.95-49.12,49.49-17.74.38-35.49.13-53.24.09-5,0-8.07-3-8.09-7.39s3.16-7.54,8.37-7.56c17.12-.06,34.24.11,51.36-.09,16.09-.19,30.54-11.79,34.54-27.3.12-.47.17-.95.3-1.67H181c-1.84,5.17-3.22,10.51-5.61,15.36s-5.71,8.93-8.83,13.68h4q34.69,0,69.37,0c5.91,0,9.65,3.65,8.9,8.53a7.34,7.34,0,0,1-7.19,6.4c-3.25.15-6.5.06-9.75.06-33.25,0-66.5-.51-99.73.15-29.78.59-51.32-21.58-54.18-44.58a5.8,5.8,0,0,0-.56-1.38V89c2.11-4.18,5.52-5.39,10.12-5.38q127.42.15,254.84.07c8,0,10.29,2.23,10.29,10.18v96l1,.34c.79-1,1.52-2,2.4-2.88,10.67-10.7,21.29-21.46,32.08-32.05,13.08-12.84,31.79-13.06,45.1-.63,3.28,3.07,6.26,6.46,9.59,9.48,9,8.22,16.54,17.32,18.57,29.87ZM92.38,98.87V374.75c0,1.37,0,2.75.06,4.12.8,18.87,17.07,34.65,36,34.91,19.44.26,36.21-15.08,37.41-34.21.51-8.11,2.53-10,10.62-10h161v-80c-1.09,1-1.78,1.65-2.5,2.28-8.06,7.07-15.7,14.72-24.28,21.08-13.75,10.19-30.22,14.69-46.26,19.77-2.1.66-5.37-.58-7.4-2-2.59-1.75-2.72-4.94-1.7-7.87,2.36-6.71,4.79-13.39,7.21-20.08a114,114,0,0,1,27.7-43.13c13.74-13.48,27.18-27.26,40.9-40.76a22.05,22.05,0,0,0,6.41-16.06c.29-33.38.14-66.75.14-100.13V98.87Zm335.31,76.87c-.21-5.54-3.44-10.91-10-13.75s-13.14-1.79-18.35,3.35c-16,15.8-31.83,31.78-47.78,47.62-1.95,1.95-1.93,3.38,0,5.29q9.26,9,18.28,18.29c2,2.05,3.5,2.21,5.59.1Q399,213,422.58,189.43C425.89,186.11,427.72,182.12,427.69,175.74ZM274.61,313.48c10.68-3.69,20.53-7.53,28.82-14a289.6,289.6,0,0,0,23.13-20.64c10.86-10.46,21.4-21.27,31.84-31.71L341.25,230a12,12,0,0,0-1.15.95c-14.3,14.3-28.73,28.47-42.83,43C286.56,284.92,279.9,298.4,274.61,313.48Z"/><path d="M281.56,421.45a7.28,7.28,0,0,1-7.39,7.31,7.47,7.47,0,1,1,.25-14.93A7.43,7.43,0,0,1,281.56,421.45Z"/><path d="M211.49,207.75H139.14a32,32,0,0,1-4.49-.17,7.35,7.35,0,0,1-1.06-14.29,18.5,18.5,0,0,1,4.82-.51q73.1,0,146.2,0a18.87,18.87,0,0,1,4.45.42,7.34,7.34,0,0,1-.73,14.38,32,32,0,0,1-4.49.17Z"/><path d="M183.08,297.08c14.12-6.53,29.94-1.55,28.61,20.45,2.36,0,4.7-.09,7,0,4.6.22,7.78,3.35,7.74,7.47a7.43,7.43,0,0,1-7.47,7.39c-5.74.22-11.5.23-17.24,0s-8.62-4.73-7.22-10.2a64.07,64.07,0,0,0,1.93-9.12c.35-3.57-1.67-4.86-4.9-3.17a12.94,12.94,0,0,0-4.49,3.85c-2.49,3.56-4.62,7.38-6.87,11.11a41,41,0,0,1-2.83,4.81,6.56,6.56,0,0,1-8.69,1.9,7.3,7.3,0,0,1-3.82-8.5c1.4-5.29,3.19-10.49,4.28-15.85,1.14-5.56-1.26-7.72-6.64-5.9-3,1-6.26,2.69-8.06,5.09-4.53,6-8.32,12.63-12.36,19-.46.73-.62,1.64-1,2.42-1.92,3.89-5.92,5.52-9.69,4a7.28,7.28,0,0,1-4.2-9.3c4.46-11.69,10.39-22.56,20.61-30.21a33.45,33.45,0,0,1,12.72-5.92C170.38,284.37,178.54,287.31,183.08,297.08Z"/><path d="M191.66,259.31q-27.34,0-54.69,0c-5.33,0-8.74-3.17-8.57-7.74.17-4.22,3.51-7.19,8.39-7.22,9.49-.06,19,0,28.47,0q40.45,0,80.92,0c5.49,0,8.72,2.49,9,6.86.35,4.91-2.9,8.1-8.49,8.11q-24,.06-47.95,0Z"/><path d="M233.54,141.31c17.49,0,35,0,52.45,0,5.52,0,9.05,3.44,8.58,8.07-.39,3.92-3.27,6.62-7.6,6.86-2.73.16-5.49.05-8.24.05q-47.76,0-95.53,0a24.63,24.63,0,0,1-4.47-.23,7.3,7.3,0,0,1-6.14-7.75,7,7,0,0,1,7-6.89c8.11-.19,16.23-.11,24.35-.11Q218.74,141.29,233.54,141.31Z"/></svg>