<?xml version="1.0" encoding="utf-8"?><svg xmlns="http://www.w3.org/2000/svg" xmlns:xlink="http://www.w3.org/1999/xlink"><symbol fill="none" viewBox="0 0 126 80" id="audio-wave" xmlns="http://www.w3.org/2000/svg"><path fill="#3C5CA2" d="M50.4 0h-2.8v79.2h2.8V0z"/><path fill="#805B75" d="M36.8 16.6H34v46h2.8v-46z"/><path fill="#9F5A5F" d="M27.2 25.5H30v28.2h-2.8V25.5z"/><path fill="#C45946" d="M23.2 33.7h-2.8v11.6h2.8V33.7z"/><path fill="#D05F40" d="M13.6 35.4h2.8v8.3h-2.8v-8.3z"/><path fill="#888D80" d="M2.8 37H0v4.5h2.8V37z"/><path fill="#B0745D" d="M9.6 37H6.8v5h2.8v-5z"/><path fill="#615B89" d="M40.8 19.3h2.8v41h-2.8v-41z"/><path fill="#73488F" d="M64 16.6h-2.8v46H64v-46z"/><path fill="#963D81" d="M68 25.5h2.8v27.7H68V25.5z"/><path fill="#BB3172" d="M77.6 31.5h-2.8v16h2.8v-16z"/><path fill="#D73C67" d="M81.6 31.5h2.8v16h-2.8v-16z"/><path fill="#E78B62" d="M98 33.7h-2.8v11.7H98V33.7z"/><path fill="#EFB35F" d="M102 35.4h2.8v8.3H102v-8.3z"/><path fill="#F9E45C" d="M111.6 37h-2.8v5.1h2.8V37z"/><path fill="#B7AA43" d="M115.6 37h2.8v5.1h-2.8V37z"/><path fill="#F1BD5E" d="M125.2 37h-2.8v4.6h2.8V37z"/><path fill="#766D2B" d="M125.2 37h-2.8v4.6h2.8V37z"/><path fill="#DF6265" d="M88.4 28.7h2.8v21.6h-2.8V28.7z"/><path fill="#4C549F" d="M54.4 6.5h2.8v65.8h-2.8V6.5z"/></symbol><symbol fill="none" viewBox="0 0 25 27" id="ball" xmlns="http://www.w3.org/2000/svg"><path fill="#5233FF" d="M13 0a11 11 0 100 22 11 11 0 000-22zm0 6a5 5 0 00-5 5 1 1 0 11-2 0 7 7 0 017-7 1 1 0 110 2z"/><path fill="#FF64C8" d="M25 23a3 3 0 01-3 3H4a3.005 3.005 0 11-.35-6 13.52 13.52 0 002.43 2 13 13 0 0013.84 0 13.52 13.52 0 002.43-2A3 3 0 0125 23z"/></symbol><symbol fill="none" viewBox="0 0 518 168" id="logo" xmlns="http://www.w3.org/2000/svg"><path fill="#6BBD48" d="M69.2 119.7l-14.1 35.8-3.4-1.4 16.6-34.8.9.4z"/><path fill="#D12767" d="M60.5 113.9l-18.3 24.3-4.8-4 20.7-22.3 2.4 2z"/><path fill="#F9E75C" d="M6.2 108.6l2.1 5.8 16-6.7-1.7-4.3-16.4 5.2zm41.5-13.1l-21.4 6.7 1.6 4.3 20.9-8-1.1-3z"/><path fill="#D12767" d="M45.3 86.6L.6 89v-8.3l44.7 2.8v3.1z"/><path fill="#305BA7" d="M71 47.1L52.6 7.6l11-4.2L73.9 46 71 47.1z"/><path fill="#6BBD48" d="M83.9 46L82.5 0h6.2L87 46h-3.1z"/><path fill="#744E9F" d="M102.8 51.8l14.1-27.3 5.4 3.1-16.8 25.8-2.7-1.6z"/><path fill="#305BA7" d="M112.9 60.1l32.8-29.3 3.7 4.8-34.8 26.9-1.7-2.4z"/><path fill="#F9E75C" d="M120.7 74l43.7-12-1.7-5.8L120 71.7l.7 2.3z"/><path fill="#744E9F" d="M123.3 79.7l36.4-3.1-.7-6.1-35.9 7.6.2 1.6z"/><path fill="#D12767" d="M122.1 87.4l43.9 1.7v-6.2l-43.9 1.4v3.1z"/><path fill="#6BBD48" d="M113 110.3l31.8 29.2 3-3-34.2-26.9-.6.7z"/><path fill="#33BFC8" d="M102.3 118.5l-2.7 1.6 15.9 29.7 5.4-3.1-18.6-28.2z"/><path fill="#D12767" d="M97.7 120l-2.9 1.1 2.3 7.1 3.4-1.1-2.8-7.1zm16.7 42.2l-12.9-32.9-3.6 1.4 10.7 33.6 5.8-2.1z"/><path fill="#DB5937" d="M88.3 122.7l6 43.2 6.1-1.1-10-42.3-2.1.2z"/><path fill="#33BFC8" d="M42.9 45.6L24.6 28.9l-4 4.8L40 48.9l2.9-3.3zm3.2 2.8l-2.9 3.1 10.9 8.7 2-2.4-10-9.4z"/><path fill="#000" d="M75.8 17.8L75 7.4l-7.2 1.3 2.8 10 5.2-.9zm.6 5.9l-4.8.9 4.8 24.6 2.4-.5-2.4-25z"/><path fill="#F9E75C" d="M114.2 14.7l2.2-5.2-5.9-2.1-1.7 5.3 5.4 2zm-6.4.9L97.1 49.2l2.3 1 13.7-32.6-5.3-2z"/><path fill="#D12767" d="M120.9 46.2l21.4-22.9-4.8-4-19.8 24.2 3.2 2.7zm-6.5 1.4l-6.2 7.9 2.4 2.1 6.7-7.5-2.9-2.5z"/><path fill="#DB5937" d="M138 93.2l-16.4-2.4-.6 3.1 16.4 3.5.6-4.2zm5.8.8l-.5 4.7 20.7 4.5 1.1-6.1-21.3-3.1z"/><path fill="#33BFC8" d="M63.4 121.8l2.5-4.2-2.6-1.5-2.6 4 2.7 1.7zm-8.5 16l7.2-13.7-2.9-1.6-8.3 13.1 4 2.2zm-7.1 2.7l-8 12.8 5.4 3.1 7-13.4-4.4-2.5z"/><path fill="#DB5937" d="M38.7 108.2l-28.6 15 3.1 5.4 27.4-17-1.9-3.4z"/><path fill="#305BA7" d="M109.5 113.8l-1.3 1 25.3 33.2 4.8-4-28.8-30.2z"/><path fill="#DB5937" d="M50 102.2l-6.8 3.3 1.4 2.3 6.6-3.7-1.2-1.9z"/><path fill="#F9E75C" d="M52 23.6l-4 2.3 16.2 24.7 1.5-.8L52 23.6zm97.6 96.9l-3 4.9 6.3 3.9 3.1-5.4-6.4-3.4z"/><path fill="#000" d="M71.3 122.2l-11.5 42.4-3.8-1.2 14.4-41.5.9.3z"/><path fill="#DB5937" d="M51.6 63.6L15.8 40.2 12 46.6 50.1 66l1.5-2.4z"/><path fill="#D12667" d="M97.9 35.9l6.7-29.4-6.2-1.1-4 29.9 3.5.6z"/><path fill="#6BBD48" d="M19.3 56.7l-2.6 6.6 32.6 9.2.5-2.1-30.5-13.7z"/><path fill="#000" d="M12.8 98.9l20.7-4.2-.9-4.1-20.8 2.8 1 5.5z"/><path fill="#744E9F" d="M74.4 128.5l-8.8 38 8.9 1.4 3.8-38.8-3.9-.6z"/><path fill="#000" d="M152.2 107.2l-31.9-10.4-1.1 3 31.3 12.7 1.7-5.3z"/><path fill="#33BFC8" d="M121.4 65.8L159 50.5l-5.9-11.3-33.5 23 1.8 3.6z"/><path fill="#D12767" d="M59.6 50.2L38.3 20.4l-7.5 6.1 25.8 25.9 3-2.2z"/><path fill="#000" d="M41.5 89.4l-6.4.9.9 3.9 6.2-1.4-.7-3.4z"/><path fill="#744E9F" d="M41.7 72.7L6.3 65.1l-.7 5.8 35.8 4.2.3-2.4z"/><path fill="#F9E75C" d="M123.3 106.4l-1.8 3.1 21 13.3 2.8-4.6-22-11.8z"/><path fill="#305BA7" d="M50.4 107.5L19 131.8l4 4.8 29.5-26.4-2.1-2.7zm34.9 48.4l-1.1-35.7h-1.8L81 155.9h4.3z"/><path fill="#1A1A1A" d="M189.5 68.3c-.3 0-.6-.1-.9-.4-.3-.2-.4-.5-.4-.9 0-.3.1-.6.4-.9.3-.2.6-.4.9-.4h31.3c.3 0 .6.1.9.4.3.2.4.5.4.9s-.1.7-.4.9c-.3.2-.6.3-.9.3h-31.3v.1zm15.6 42.7c-.4 0-.7-.1-.9-.4-.2-.3-.4-.6-.4-.9V67.4h2.6v42.3c0 .3-.1.6-.4.9-.2.3-.5.4-.9.4zm58.3-45.2c.4 0 .7.1.9.4.2.3.4.6.4.9V95c0 3.1-.8 5.8-2.3 8.4-1.5 2.5-3.5 4.5-6 6s-5.3 2.3-8.3 2.3c-3.1 0-5.8-.8-8.4-2.3-2.5-1.5-4.5-3.5-6-6s-2.3-5.3-2.3-8.4V67.1c0-.3.1-.6.4-.9.2-.3.6-.4 1-.4s.7.1 1 .4c.3.3.4.6.4.9V95c0 2.6.6 4.9 1.9 7.1 1.2 2.1 2.9 3.8 5.1 5.1 2.1 1.3 4.5 1.9 7 1.9 2.6 0 4.9-.6 7-1.9 2.1-1.3 3.8-3 5.1-5.1 1.3-2.1 1.9-4.5 1.9-7.1V67.1c0-.3.1-.6.4-.9.1-.2.4-.4.8-.4zm47.5 0c.4 0 .7.1.9.4.2.2.3.5.3.9v42.5c0 .5-.1.8-.4 1.1-.3.2-.6.4-.9.4-.2 0-.4 0-.5-.1-.2-.1-.4-.2-.5-.4l-29.9-40.9.9-.5V110c0 .3-.1.6-.4.8-.2.2-.5.3-.9.3s-.7-.1-.9-.3c-.2-.2-.3-.5-.3-.8V67.2c0-.5.1-.8.4-1 .3-.2.5-.3.8-.3.2 0 .3 0 .5.1s.3.2.5.4l29.8 40.6-.5 1.3V67.1c0-.3.1-.6.4-.9.1-.3.4-.4.7-.4zm34.7 45.8c-3.4 0-6.4-.6-9.3-1.7-2.8-1.1-5.3-2.8-7.4-4.8-2.1-2.1-3.7-4.5-4.8-7.4-1.1-2.8-1.7-5.9-1.7-9.3 0-3.4.6-6.5 1.7-9.3 1.1-2.8 2.8-5.3 4.8-7.4 2.1-2.1 4.5-3.7 7.4-4.8 2.8-1.1 5.9-1.7 9.3-1.7 2.4 0 4.6.3 6.8.9 2.2.6 4.1 1.5 5.9 2.6.2.1.4.3.5.5.1.2.1.4.1.6 0 .4-.2.8-.5 1-.3.2-.6.3-.8.3-.2 0-.3 0-.5-.1-.1-.1-.3-.1-.4-.2-1.6-.9-3.3-1.6-5.2-2.2-1.9-.6-3.9-.8-6-.8-4 0-7.5.9-10.6 2.7-3.1 1.8-5.5 4.2-7.2 7.3-1.7 3.1-2.6 6.6-2.6 10.6s.9 7.6 2.6 10.7c1.7 3.1 4.1 5.6 7.2 7.3 3.1 1.8 6.6 2.6 10.6 2.6 2.1 0 4.3-.3 6.4-1 2.1-.7 3.9-1.5 5.5-2.6l-.3 1.2V90.5l.9.8h-12.5c-.3 0-.6-.1-.9-.4-.3-.3-.4-.6-.4-.9 0-.4.1-.7.4-.9.3-.2.6-.4.9-.4h12.9c.4 0 .7.1.9.4.2.3.4.6.4.9v16.2c0 .2 0 .4-.1.6-.1.2-.2.4-.5.6-1.9 1.3-4 2.3-6.4 3.1-2.2.7-4.6 1.1-7.1 1.1zm37.2 0c-3.4 0-6.2-.5-8.6-1.7-2.4-1.2-4.7-2.9-7-5.1-.1-.1-.2-.2-.3-.4-.1-.1-.1-.4-.1-.6 0-.3.2-.7.5-1 .3-.3.6-.5 1-.5s.8.2 1.1.6c1.7 2 3.7 3.5 6 4.5s4.7 1.5 7.2 1.5c2.2 0 4.1-.4 5.9-1.1 1.7-.7 3.1-1.7 4.1-3 1-1.3 1.5-2.8 1.5-4.6 0-2.2-.6-4-1.8-5.3-1.2-1.3-2.7-2.4-4.5-3.3-1.8-.9-3.8-1.7-5.8-2.4-1.6-.6-3.2-1.2-4.7-1.9-1.5-.6-2.9-1.4-4.2-2.4-1.2-.9-2.2-2.1-3-3.5-.7-1.4-1.1-3.1-1.1-5.2s.6-4 1.7-5.7c1.1-1.7 2.8-3.1 4.9-4.1 2.1-1 4.7-1.5 7.6-1.5 2.5 0 4.8.4 7.2 1.3 2.3.9 4.2 2.2 5.5 4 .4.6.6 1.1.6 1.4 0 .3-.2.6-.5.9-.3.3-.7.5-1.1.5-.3 0-.6-.1-.8-.4-.8-1-1.7-1.9-2.8-2.7-1.1-.8-2.3-1.3-3.7-1.7-1.4-.4-2.8-.6-4.4-.6-2.1 0-4 .3-5.7 1-1.7.7-3.1 1.7-4.1 2.9-1 1.3-1.5 2.8-1.5 4.7 0 2 .6 3.6 1.7 4.9 1.1 1.3 2.6 2.3 4.4 3.2 1.8.8 3.6 1.6 5.4 2.3 1.6.6 3.3 1.2 4.9 1.8 1.6.7 3.1 1.5 4.4 2.5 1.3 1 2.4 2.2 3.1 3.7.8 1.5 1.2 3.4 1.2 5.7 0 2-.6 3.8-1.7 5.5-1.1 1.7-2.7 3-4.8 4.1-2.3 1.1-4.8 1.7-7.7 1.7zm21.5-43.3c-.3 0-.6-.1-.9-.4-.3-.2-.4-.5-.4-.9 0-.3.1-.6.4-.9.3-.2.6-.4.9-.4h31.3c.3 0 .6.1.9.4.3.2.4.5.4.9s-.1.7-.4.9c-.3.2-.6.3-.9.3h-31.3v.1zm15.6 42.7c-.4 0-.7-.1-.9-.4-.2-.3-.4-.6-.4-.9V67.4h2.6v42.3c0 .3-.1.6-.4.9-.2.3-.5.4-.9.4zm27.6-45.2h24.3c.3 0 .6.1.9.4.3.3.4.6.4.9 0 .4-.1.7-.4.9-.3.2-.6.4-.9.4h-23.5l.6-1.1v20l-.8-.9H469c.3 0 .6.1.9.4.3.3.4.6.4.9 0 .4-.1.7-.4.9-.3.2-.6.4-.9.4h-20.6l.6-.7v20.4l-.3-.3h23.2c.3 0 .6.1.9.4.3.3.4.6.4.9 0 .4-.1.7-.4.9-.3.2-.6.4-.9.4h-24.3c-.3 0-.6-.1-.9-.4-.3-.3-.4-.6-.4-.9V67.1c0-.3.1-.6.4-.9.2-.2.5-.4.8-.4zm68.6 0c.4 0 .7.1.9.4.2.2.3.5.3.9v42.5c0 .5-.1.8-.4 1.1-.3.2-.6.4-.9.4-.2 0-.4 0-.5-.1-.2-.1-.4-.2-.5-.4l-30-41 .9-.5v40.8c0 .3-.1.6-.4.8-.2.2-.5.3-.9.3s-.7-.1-.9-.3c-.2-.2-.3-.5-.3-.8V67.1c0-.5.1-.8.4-1 .3-.2.5-.3.8-.3.2 0 .3 0 .5.1s.3.2.5.4l29.8 40.6-.5 1.3V67c0-.3.1-.6.4-.9.2-.2.5-.3.8-.3z"/></symbol></svg>