<?xml version="1.0" encoding="utf-8"?><svg xmlns="http://www.w3.org/2000/svg" xmlns:xlink="http://www.w3.org/1999/xlink"><symbol viewBox="0 0 94 94" id="back-to-top" xmlns="http://www.w3.org/2000/svg"><path d="M22 54l25.225-20L72 53.09M91 47c0 24.3-19.7 44-44 44S3 71.3 3 47 22.7 3 47 3s44 19.7 44 44z" stroke-width="6"/></symbol><symbol viewBox="0 0 80 80" id="envelope" xmlns="http://www.w3.org/2000/svg"><path d="M40 0C17.92 0 0 17.92 0 40s17.92 40 40 40 40-17.92 40-40S62.08 0 40 0zM16.027 52.373v-22.64c0-.24.026-.48.053-.746l22.613 14.106c.027.027.054.027.08.054.027.026.054.026.08.053.16.08.32.16.507.187h.053a2.03 2.03 0 001.12 0h.054c.16-.054.32-.107.506-.187.027-.027.054-.027.08-.053.027-.027.054-.027.08-.054l22.614-14.106c.053.24.053.48.053.746v22.64a4.29 4.29 0 01-4.293 4.294H20.32a4.29 4.29 0 01-4.293-4.294zM16.32 28.8L40 14.053 63.68 28.8H16.32z"/></symbol><symbol viewBox="0 0 111 73" id="envelope-closed" xmlns="http://www.w3.org/2000/svg"><path d="M9.3 69.5l22.9-39.3m47.4 0l22.9 39.3M2.4 7.2l53 39.6 53-39.6m-6.3 62.3H8.7C5.5 69.5 3 67 3 63.8V8.7C3 5.5 5.5 3 8.7 3h93.4c3.1 0 5.7 2.5 5.7 5.7v55.1c0 3.2-2.6 5.7-5.7 5.7z"/></symbol><symbol viewBox="0 0 80 80" id="facebook" xmlns="http://www.w3.org/2000/svg"><path d="M40 0C17.897 0 0 17.897 0 40s17.897 40 40 40 40-17.897 40-40S62.103 0 40 0zm11.052 24.456h-5.847c-.927 0-2.282.5-2.282 2.496v5.419h8.057l-.926 9.198h-7.13v26.167H32.085V41.57h-5.134V32.37h5.134v-5.918c0-4.278 1.996-10.91 10.909-10.91h7.985v8.913h.072z"/></symbol><symbol viewBox="0 0 80 80" id="linkedin" xmlns="http://www.w3.org/2000/svg"><path d="M40 0C17.929 0 0 17.929 0 40s17.929 40 40 40 40-17.929 40-40S62.071 0 40 0zM29.5 59.643h-9.643V30.857h9.572v28.786h.071zm-4.786-32.714c-3.285 0-5.357-2.215-5.357-5 0-2.858 2.143-5 5.429-5 3.285 0 5.285 2.142 5.357 5-.072 2.785-2.143 5-5.429 5zM64 59.643h-9.571V44.214c0-3.857-1.358-6.5-4.858-6.5-2.642 0-4.214 1.786-4.928 3.5-.214.643-.286 1.5-.286 2.357v16.072h-9.571s.143-26.072 0-28.786h9.571v4.072C45.643 33 47.93 30.143 53 30.143c6.286 0 11 4.143 11 12.928v16.572zM44.357 35v-.071c0 .071-.071.071 0 .071z"/></symbol><symbol viewBox="0 0 80 80" id="twitter" xmlns="http://www.w3.org/2000/svg"><path d="M40 0C17.929 0 0 17.929 0 40s17.929 40 40 40 40-17.929 40-40S62.071 0 40 0zm19.857 33.571v1.215C59.857 47.429 50.214 62 32.571 62c-5.428 0-10.428-1.571-14.714-4.286.786.072 1.5.143 2.286.143 4.5 0 8.643-1.571 11.928-4.071-4.214-.072-7.714-2.857-8.928-6.643.571.143 1.214.143 1.786.143.857 0 1.714-.143 2.5-.357-4.358-.858-7.715-4.715-7.715-9.358v-.142a9.927 9.927 0 004.357 1.214 9.592 9.592 0 01-3-12.786c4.715 5.786 11.786 9.643 19.715 10a11.093 11.093 0 01-.215-2.214c0-5.286 4.286-9.572 9.572-9.572 2.786 0 5.214 1.143 7 3a20.107 20.107 0 006.071-2.285C62.5 27 61 28.929 59 30.07c1.929-.214 3.786-.785 5.5-1.5-1.214 2-2.786 3.715-4.643 5z"/></symbol></svg>