<svg width="80" height="80" fill="none" xmlns="http://www.w3.org/2000/svg"><path d="M40 0C17.929 0 0 17.929 0 40s17.929 40 40 40 40-17.929 40-40S62.071 0 40 0zM29.5 59.643h-9.643V30.857h9.572v28.786h.071zm-4.786-32.714c-3.285 0-5.357-2.215-5.357-5 0-2.858 2.143-5 5.429-5 3.285 0 5.285 2.142 5.357 5-.072 2.785-2.143 5-5.429 5zM64 59.643h-9.571V44.214c0-3.857-1.358-6.5-4.858-6.5-2.642 0-4.214 1.786-4.928 3.5-.214.643-.286 1.5-.286 2.357v16.072h-9.571s.143-26.072 0-28.786h9.571v4.072C45.643 33 47.93 30.143 53 30.143c6.286 0 11 4.143 11 12.928v16.572zM44.357 35v-.071c0 .071-.071.071 0 .071z" fill="#2581D0"/></svg>