<svg width="80" height="80" fill="none" xmlns="http://www.w3.org/2000/svg"><path d="M40 0C17.92 0 0 17.92 0 40s17.92 40 40 40 40-17.92 40-40S62.08 0 40 0zM16.027 52.373v-22.64c0-.24.026-.48.053-.746l22.613 14.106c.027.027.054.027.08.054.027.026.054.026.08.053.16.08.32.16.507.187h.053a2.03 2.03 0 001.12 0h.054c.16-.054.32-.107.506-.187.027-.027.054-.027.08-.053.027-.027.054-.027.08-.054l22.614-14.106c.053.24.053.48.053.746v22.64a4.29 4.29 0 01-4.293 4.294H20.32a4.29 4.29 0 01-4.293-4.294zM16.32 28.8L40 14.053 63.68 28.8H16.32z" fill="#2581D0"/></svg>