<svg xmlns="http://www.w3.org/2000/svg" viewBox="0 0 111.98 111.98"><path d="M55.99 0a56 56 0 1056 56 56 56 0 00-56-56zM41.26 83.52H27.85V43.19h13.41zm-6.7-45.83h-.09c-4.5 0-7.41-3.1-7.41-7s3-7 7.59-7 7.4 3 7.49 7-2.91 7-7.58 7zm55.05 45.83H76.2V61.94c0-5.42-1.94-9.12-6.79-9.12a7.33 7.33 0 00-6.88 4.96 9.22 9.22 0 00-.45 3.26v22.48H48.67s.18-36.55 0-40.33h13.41v5.71a13.34 13.34 0 0112.09-6.66c8.82 0 15.44 5.77 15.44 18.15zM62.08 49.04v-.14c0 .05-.06.09-.08.14z" fill="#007ab9"/><path d="M62.08 48.9v.14h-.09s.07-.09.09-.14z" fill="#fff"/><path d="M62.08 48.9v.14h-.09s.07-.09.09-.14z" fill="#fff"/></svg>