<?xml version="1.0" encoding="utf-8"?><svg xmlns="http://www.w3.org/2000/svg" xmlns:xlink="http://www.w3.org/1999/xlink"><symbol viewBox="0 0 172 57" id="audio-btn" xmlns="http://www.w3.org/2000/svg"><path clip-rule="evenodd" d="M45.618 10H4a4 4 0 00-4 4v30a4 4 0 004 4h41.618v-1H4a3 3 0 01-3-3V14a3 3 0 013-3h41.618v-1zm10.406 1v-1H168a4 4 0 014 4v30a4 4 0 01-4 4H56.024v-1H168a3 3 0 003-3V14a3 3 0 00-3-3H56.024z"/><path clip-rule="evenodd" d="M49.325 2.62h-1.821v51.89h1.821V2.62zm-8.91 10.876h-1.822v30.138h1.822V13.496zM34.3 19.328h1.82v18.475h-1.82V19.328zM31.764 24.7h-1.82v7.6h1.82v-7.6zm-6.114 1.114h1.822v5.438H25.65v-5.438zm-6.829 1.048H17v2.948h1.821v-2.948zm4.358 0h-1.821v3.276h1.82v-3.276zM42.95 15.265h1.821v26.862h-1.82V15.265zm15.09-1.769h-1.822v30.138h1.822V13.496zm2.536 5.832h1.821v18.148h-1.82V19.328zm6.114 3.93H64.87v10.483h1.821V23.26zm2.537 0h1.82v10.483h-1.82V23.26zM79.634 24.7h-1.821v7.665h1.821V24.7zm2.537 1.114h1.82v5.438h-1.82v-5.438zm6.179 1.048h-1.822v3.341h1.822v-3.341zm2.471 0h1.821v3.341h-1.82v-3.341zm6.179 0h-1.821v3.014H97v-3.014zm-23.48-5.438h1.821v14.152h-1.82V21.424zM51.862 6.88h1.821v43.11h-1.821V6.88z"/><path clip-rule="evenodd" d="M49.325 2.62h-1.821v51.89h1.821V2.62zm-8.91 10.876h-1.822v30.138h1.822V13.496zM34.3 19.328h1.82v18.475h-1.82V19.328zM31.764 24.7h-1.82v7.6h1.82v-7.6zm-6.114 1.114h1.822v5.438H25.65v-5.438zm-6.829 1.048H17v2.948h1.821v-2.948zm4.358 0h-1.821v3.276h1.82v-3.276zM42.95 15.265h1.821v26.862h-1.82V15.265zm15.09-1.769h-1.822v30.138h1.822V13.496zm2.536 5.832h1.821v18.148h-1.82V19.328zm6.114 3.93H64.87v10.483h1.821V23.26zm2.537 0h1.82v10.483h-1.82V23.26zM79.634 24.7h-1.821v7.665h1.821V24.7zm2.537 1.114h1.82v5.438h-1.82v-5.438zm6.179 1.048h-1.822v3.341h1.822v-3.341zm2.471 0h1.821v3.341h-1.82v-3.341zm6.179 0h-1.821v3.014H97v-3.014zm-23.48-5.438h1.821v14.152h-1.82V21.424zM51.862 6.88h1.821v43.11h-1.821V6.88z"/><defs><linearGradient id="apaint0_linear_322_816" x1="6.864" y1="28.446" x2="103.59" y2="28.446" gradientUnits="userSpaceOnUse"><stop stop-color="#36C0C8"/><stop offset=".218" stop-color="#DB5836"/><stop offset=".44" stop-color="#335CA8"/><stop offset=".637" stop-color="#D32968"/><stop offset=".834" stop-color="#F9E75B"/><stop offset="1"/></linearGradient></defs></symbol><symbol viewBox="0 0 126 80" id="audio-wave" xmlns="http://www.w3.org/2000/svg"><path d="M50.4 0h-2.8v79.2h2.8V0zM36.8 16.6H34v46h2.8v-46zM27.2 25.5H30v28.2h-2.8V25.5zM23.2 33.7h-2.8v11.6h2.8V33.7zM13.6 35.4h2.8v8.3h-2.8v-8.3zM2.8 37H0v4.5h2.8V37zM9.6 37H6.8v5h2.8v-5zM40.8 19.3h2.8v41h-2.8v-41zM64 16.6h-2.8v46H64v-46zM68 25.5h2.8v27.7H68V25.5zM77.6 31.5h-2.8v16h2.8v-16zM81.6 31.5h2.8v16h-2.8v-16zM98 33.7h-2.8v11.7H98V33.7zM102 35.4h2.8v8.3H102v-8.3zM111.6 37h-2.8v5.1h2.8V37zM115.6 37h2.8v5.1h-2.8V37zM125.2 37h-2.8v4.6h2.8V37z"/><path d="M125.2 37h-2.8v4.6h2.8V37zM88.4 28.7h2.8v21.6h-2.8V28.7zM54.4 6.5h2.8v65.8h-2.8V6.5z"/></symbol><symbol viewBox="0 0 94 94" id="back-to-top" xmlns="http://www.w3.org/2000/svg"><path d="M22 54l25.225-20L72 53.09M91 47c0 24.3-19.7 44-44 44S3 71.3 3 47 22.7 3 47 3s44 19.7 44 44z" stroke-width="6"/></symbol><symbol viewBox="0 0 16 11" id="dropdown-arrow" xmlns="http://www.w3.org/2000/svg"><path stroke-width="2" d="M14.64 7.62L8.707 1.687a1 1 0 00-1.414 0L1.36 7.62c-.63.63-.183 1.707.707 1.707h11.866c.89 0 1.337-1.077.707-1.707z"/></symbol><symbol viewBox="0 0 80 80" id="envelope" xmlns="http://www.w3.org/2000/svg"><path d="M40 0C17.92 0 0 17.92 0 40s17.92 40 40 40 40-17.92 40-40S62.08 0 40 0zM16.027 52.373v-22.64c0-.24.026-.48.053-.746l22.613 14.106c.027.027.054.027.08.054.027.026.054.026.08.053.16.08.32.16.507.187h.053a2.03 2.03 0 001.12 0h.054c.16-.054.32-.107.506-.187.027-.027.054-.027.08-.053.027-.027.054-.027.08-.054l22.614-14.106c.053.24.053.48.053.746v22.64a4.29 4.29 0 01-4.293 4.294H20.32a4.29 4.29 0 01-4.293-4.294zM16.32 28.8L40 14.053 63.68 28.8H16.32z"/></symbol><symbol viewBox="0 0 111 73" id="envelope-closed" xmlns="http://www.w3.org/2000/svg"><path d="M9.3 69.5l22.9-39.3m47.4 0l22.9 39.3M2.4 7.2l53 39.6 53-39.6m-6.3 62.3H8.7C5.5 69.5 3 67 3 63.8V8.7C3 5.5 5.5 3 8.7 3h93.4c3.1 0 5.7 2.5 5.7 5.7v55.1c0 3.2-2.6 5.7-5.7 5.7z"/></symbol><symbol viewBox="0 0 80 80" id="facebook" xmlns="http://www.w3.org/2000/svg"><path d="M40 0C17.897 0 0 17.897 0 40s17.897 40 40 40 40-17.897 40-40S62.103 0 40 0zm11.052 24.456h-5.847c-.927 0-2.282.5-2.282 2.496v5.419h8.057l-.926 9.198h-7.13v26.167H32.085V41.57h-5.134V32.37h5.134v-5.918c0-4.278 1.996-10.91 10.909-10.91h7.985v8.913h.072z"/></symbol><symbol viewBox="0 0 80 80" id="linkedin" xmlns="http://www.w3.org/2000/svg"><path d="M40 0C17.929 0 0 17.929 0 40s17.929 40 40 40 40-17.929 40-40S62.071 0 40 0zM29.5 59.643h-9.643V30.857h9.572v28.786h.071zm-4.786-32.714c-3.285 0-5.357-2.215-5.357-5 0-2.858 2.143-5 5.429-5 3.285 0 5.285 2.142 5.357 5-.072 2.785-2.143 5-5.429 5zM64 59.643h-9.571V44.214c0-3.857-1.358-6.5-4.858-6.5-2.642 0-4.214 1.786-4.928 3.5-.214.643-.286 1.5-.286 2.357v16.072h-9.571s.143-26.072 0-28.786h9.571v4.072C45.643 33 47.93 30.143 53 30.143c6.286 0 11 4.143 11 12.928v16.572zM44.357 35v-.071c0 .071-.071.071 0 .071z"/></symbol><symbol viewBox="0 0 80 80" id="twitter" xmlns="http://www.w3.org/2000/svg"><path d="M40 0C17.929 0 0 17.929 0 40s17.929 40 40 40 40-17.929 40-40S62.071 0 40 0zm19.857 33.571v1.215C59.857 47.429 50.214 62 32.571 62c-5.428 0-10.428-1.571-14.714-4.286.786.072 1.5.143 2.286.143 4.5 0 8.643-1.571 11.928-4.071-4.214-.072-7.714-2.857-8.928-6.643.571.143 1.214.143 1.786.143.857 0 1.714-.143 2.5-.357-4.358-.858-7.715-4.715-7.715-9.358v-.142a9.927 9.927 0 004.357 1.214 9.592 9.592 0 01-3-12.786c4.715 5.786 11.786 9.643 19.715 10a11.093 11.093 0 01-.215-2.214c0-5.286 4.286-9.572 9.572-9.572 2.786 0 5.214 1.143 7 3a20.107 20.107 0 006.071-2.285C62.5 27 61 28.929 59 30.07c1.929-.214 3.786-.785 5.5-1.5-1.214 2-2.786 3.715-4.643 5z"/></symbol><symbol viewBox="0 0 37 37" id="watch-video" xmlns="http://www.w3.org/2000/svg"><path d="M27.161 36.375H9.511c-1.824 0-3.293 0-4.45-.155-1.2-.162-2.21-.507-3.013-1.31-.802-.802-1.147-1.813-1.309-3.013-.155-1.156-.155-2.625-.155-4.449V9.552c0-1.824 0-3.293.155-4.45.162-1.2.507-2.21 1.31-3.013C2.85 1.287 3.861.942 5.061.78 6.218.625 7.687.625 9.51.625h8.825v2H9.584c-1.914 0-3.249.002-4.256.138-.978.131-1.496.372-1.865.74-.37.37-.61.888-.741 1.866-.136 1.007-.138 2.342-.138 4.256v17.75c0 1.914.002 3.249.138 4.256.131.978.372 1.496.74 1.865.37.37.888.61 1.866.741 1.007.136 2.342.138 4.256.138h17.504c1.914 0 3.248-.002 4.256-.138.978-.131 1.496-.372 1.865-.74.37-.37.61-.888.741-1.866.136-1.007.138-2.342.138-4.256v-10.75h2v10.823c0 1.824 0 3.293-.156 4.45-.16 1.2-.506 2.21-1.309 3.012-.802.803-1.813 1.148-3.013 1.31-1.156.155-2.626.155-4.449.155z"/><path d="M36.088.625H25.78v2h6.472l-7.1 5.721a1 1 0 101.256 1.558l7.679-6.189V11h2V.625z"/><path d="M14.75 10.996c-1.334-.767-2.998.195-2.998 1.733V24.27c0 1.539 1.664 2.501 2.998 1.734l10.024-5.77c1.337-.77 1.337-2.698 0-3.467l-10.024-5.77zm-.998 1.733L23.777 18.5l-10.025 5.77V12.73z" clip-rule="evenodd"/></symbol><symbol viewBox="0 0 40 40" id="wiki" xmlns="http://www.w3.org/2000/svg"><path d="M20 40c11.046 0 20-8.954 20-20S31.046 0 20 0 0 8.954 0 20s8.954 20 20 20zm.561-16.59c-1.05 2.274-2.463 5.306-3.17 6.683-.692 1.27-1.267 1.1-1.723.034-.764-1.896-1.916-4.482-3.076-7.084-1.242-2.786-2.491-5.59-3.281-7.585-.283-.71-.496-1.167-.697-1.346-.203-.178-.623-.284-1.262-.32-.236-.029-.352-.09-.352-.188v-.538l.059-.054c1.039-.005 6.076 0 6.076 0l.057.054v.513c0 .14-.084.208-.253.208l-.635.036c-.545.035-.818.194-.818.516 0 .16.06.39.187.71 1.217 3.128 5.42 12.437 5.42 12.437l.154.055 2.712-5.686-.542-1.262-1.866-3.858s-.357-.773-.481-1.03l-.166-.347c-.655-1.373-.695-1.457-1.462-1.565-.233-.027-.352-.06-.352-.176v-.554l.067-.053h4.829l.127.044v.533c0 .124-.085.177-.255.177l-.347.056c-.89.072-.744.45-.153 1.68l1.78 3.845 1.978-4.142c.33-.757.262-.947.125-1.12-.08-.099-.344-.26-.914-.283l-.226-.025a.249.249 0 01-.163-.06.184.184 0 01-.075-.152v-.506l.068-.053c1.403-.01 4.548 0 4.548 0l.067.053v.516c0 .143-.067.21-.217.21-.727.036-.88.113-1.151.52-.135.219-.422.695-.727 1.227l-2.589 5.052-.073.16 3.141 6.751.192.057 4.945-12.339c.173-.499.145-.853-.072-1.058-.222-.203-.39-.322-.964-.348l-.473-.02a.277.277 0 01-.17-.053.182.182 0 01-.082-.14v-.516l.067-.053h5.58l.047.053v.517c0 .14-.083.213-.235.213-.73.035-1.268.213-1.623.497-.354.302-.627.728-.829 1.262 0 0-4.548 10.944-6.104 14.586-.59 1.19-1.184 1.084-1.69-.037-.639-1.375-1.978-4.435-2.958-6.705z" clip-rule="evenodd"/></symbol></svg>