<svg width="172" height="57" viewBox="0 0 172 57" fill="none" xmlns="http://www.w3.org/2000/svg">
<path fill-rule="evenodd" clip-rule="evenodd" d="M45.6179 10H4C1.79086 10 0 11.7909 0 14V44C0 46.2091 1.79086 48 4 48H45.6179V47H4C2.34315 47 1 45.6569 1 44V14C1 12.3431 2.34315 11 4 11H45.6179V10ZM56.0244 11V10H168C170.209 10 172 11.7909 172 14V44C172 46.2091 170.209 48 168 48H56.0244V47H168C169.657 47 171 45.6569 171 44V14C171 12.3431 169.657 11 168 11H56.0244Z" fill="white"/>
<path fill-rule="evenodd" clip-rule="evenodd" d="M49.3252 2.62061H47.504V54.5103H49.3252V2.62061ZM40.4146 13.4965H38.5935V43.6344H40.4146V13.4965ZM34.3008 19.3275H36.1219V37.8034H34.3008V19.3275ZM31.7643 24.6999H29.9431V32.2999H31.7643V24.6999ZM25.6504 25.8137H27.4715V31.2516H25.6504V25.8137ZM18.8211 26.862H17V29.8103H18.8211V26.862ZM23.1789 26.862H21.3577V30.1378H23.1789V26.862ZM42.9512 15.2654H44.7723V42.1275H42.9512V15.2654ZM58.0406 13.4965H56.2195V43.6344H58.0406V13.4965ZM60.5773 19.3275H62.3984V37.4758H60.5773V19.3275ZM66.691 23.2585H64.8699V33.7413H66.691V23.2585ZM69.2277 23.2585H71.0488V33.7413H69.2277V23.2585ZM79.6341 24.6999H77.813V32.3655H79.6341V24.6999ZM82.1708 25.8137H83.9919V31.2516H82.1708V25.8137ZM88.3496 26.862H86.5284V30.2034H88.3496V26.862ZM90.8212 26.862H92.6423V30.2034H90.8212V26.862ZM97 26.862H95.1788V29.8758H97V26.862ZM73.5203 21.4241H75.3414V35.5758H73.5203V21.4241ZM51.8618 6.87923H53.683V49.9896H51.8618V6.87923Z" fill="url(#paint0_linear_322_816)"/>
<path fill-rule="evenodd" clip-rule="evenodd" d="M49.3252 2.62061H47.504V54.5103H49.3252V2.62061ZM40.4146 13.4965H38.5935V43.6344H40.4146V13.4965ZM34.3008 19.3275H36.1219V37.8034H34.3008V19.3275ZM31.7643 24.6999H29.9431V32.2999H31.7643V24.6999ZM25.6504 25.8137H27.4715V31.2516H25.6504V25.8137ZM18.8211 26.862H17V29.8103H18.8211V26.862ZM23.1789 26.862H21.3577V30.1378H23.1789V26.862ZM42.9512 15.2654H44.7723V42.1275H42.9512V15.2654ZM58.0406 13.4965H56.2195V43.6344H58.0406V13.4965ZM60.5773 19.3275H62.3984V37.4758H60.5773V19.3275ZM66.691 23.2585H64.8699V33.7413H66.691V23.2585ZM69.2277 23.2585H71.0488V33.7413H69.2277V23.2585ZM79.6341 24.6999H77.813V32.3655H79.6341V24.6999ZM82.1708 25.8137H83.9919V31.2516H82.1708V25.8137ZM88.3496 26.862H86.5284V30.2034H88.3496V26.862ZM90.8212 26.862H92.6423V30.2034H90.8212V26.862ZM97 26.862H95.1788V29.8758H97V26.862ZM73.5203 21.4241H75.3414V35.5758H73.5203V21.4241ZM51.8618 6.87923H53.683V49.9896H51.8618V6.87923Z" fill="white"/>
<defs>
<linearGradient id="paint0_linear_322_816" x1="6.86414" y1="28.4459" x2="103.59" y2="28.4459" gradientUnits="userSpaceOnUse">
<stop stop-color="#36C0C8"/>
<stop offset="0.2176" stop-color="#DB5836"/>
<stop offset="0.4404" stop-color="#335CA8"/>
<stop offset="0.6373" stop-color="#D32968"/>
<stop offset="0.8342" stop-color="#F9E75B"/>
<stop offset="1"/>
</linearGradient>
</defs>
</svg>
