<svg xmlns="http://www.w3.org/2000/svg" width="40" height="40" fill="currentColor" viewBox="0 0 40 40">
  <path fill-rule="evenodd" d="M20 40c11.046 0 20-8.954 20-20S31.046 0 20 0 0 8.954 0 20s8.954 20 20 20zm.561-16.59c-1.05 2.274-2.463 5.306-3.17 6.683-.692 1.27-1.267 1.1-1.723.034-.764-1.896-1.916-4.482-3.076-7.084-1.242-2.786-2.491-5.59-3.281-7.585-.283-.71-.496-1.167-.697-1.346-.203-.178-.623-.284-1.262-.32-.236-.029-.352-.09-.352-.188v-.538l.059-.054c1.039-.005 6.076 0 6.076 0l.057.054v.513c0 .14-.084.208-.253.208l-.635.036c-.545.035-.818.194-.818.516 0 .16.06.39.187.71 1.217 3.128 5.42 12.437 5.42 12.437l.154.055 2.712-5.686-.542-1.262-1.866-3.858s-.357-.773-.481-1.03l-.166-.347c-.655-1.373-.695-1.457-1.462-1.565-.233-.027-.352-.06-.352-.176v-.554l.067-.053h4.829l.127.044v.533c0 .124-.085.177-.255.177l-.347.056c-.89.072-.744.45-.153 1.68l1.78 3.845 1.978-4.142c.33-.757.262-.947.125-1.12-.08-.099-.344-.26-.914-.283l-.226-.025a.249.249 0 01-.163-.06.184.184 0 01-.075-.152v-.506l.068-.053c1.403-.01 4.548 0 4.548 0l.067.053v.516c0 .143-.067.21-.217.21-.727.036-.88.113-1.151.52-.135.219-.422.695-.727 1.227l-2.589 5.052-.073.16 3.141 6.751.192.057 4.945-12.339c.173-.499.145-.853-.072-1.058-.222-.203-.39-.322-.964-.348l-.473-.02a.277.277 0 01-.17-.053.182.182 0 01-.082-.14v-.516l.067-.053h5.58l.047.053v.517c0 .14-.083.213-.235.213-.73.035-1.268.213-1.623.497-.354.302-.627.728-.829 1.262 0 0-4.548 10.944-6.104 14.586-.59 1.19-1.184 1.084-1.69-.037-.639-1.375-1.978-4.435-2.958-6.705z" clip-rule="evenodd"/>
</svg>
