<svg xmlns="http://www.w3.org/2000/svg" version="1.1" xmlns:xlink="http://www.w3.org/1999/xlink" xmlns:svgjs="http://svgjs.com/svgjs" width="55" height="55"><svg width="55" height="55" viewBox="0 0 55 55" fill="none" xmlns="http://www.w3.org/2000/svg">
<path d="M22.5269 39.2108L17.8967 50.9381L16.7803 50.4795L22.2314 39.0798L22.5269 39.2108Z" fill="#6BBD48"></path>
<path d="M19.67 37.3109L13.6606 45.271L12.0844 43.9607L18.8819 36.6558L19.67 37.3109Z" fill="#D12767"></path>
<path d="M1.83893 35.5747L2.52854 37.4747L7.78262 35.2799L7.22437 33.8714L1.83893 35.5747Z" fill="#F9E75C"></path>
<path d="M15.4667 31.2835L8.43939 33.4783L8.9648 34.8868L15.828 32.2662L15.4667 31.2835Z" fill="#F9E75C"></path>
<path d="M14.6786 28.3681L0 29.1543V26.4354L14.6786 27.3526V28.3681Z" fill="#D12767"></path>
<path d="M23.118 15.4288L17.0758 2.48959L20.688 1.11376L24.0703 15.0685L23.118 15.4288Z" fill="#305BA7"></path>
<path d="M27.3541 15.0685L26.8944 0H28.9303L28.3721 15.0685H27.3541Z" fill="#6BBD48"></path>
<path d="M33.5605 16.9684L38.1907 8.02561L39.964 9.0411L34.4472 17.4926L33.5605 16.9684Z" fill="#744E9F"></path>
<path d="M36.8771 19.6873L47.648 10.0893L48.8631 11.6617L37.4354 20.4735L36.8771 19.6873Z" fill="#305BA7"></path>
<path d="M39.4385 24.2406L53.7888 20.3097L53.2305 18.4098L39.2087 23.4872L39.4385 24.2406Z" fill="#F9E75C"></path>
<path d="M40.2923 26.1078L52.2454 25.0923L52.0155 23.0941L40.2267 25.5837L40.2923 26.1078Z" fill="#744E9F"></path>
<path d="M39.8983 28.6301L54.3142 29.187V27.156L39.8983 27.6147V28.6301Z" fill="#D12767"></path>
<path d="M36.91 36.1316L47.3525 45.6968L48.3377 44.7141L37.107 35.9023L36.91 36.1316Z" fill="#6BBD48"></path>
<path d="M33.3963 38.8178L32.5097 39.3419L37.731 49.0709L39.5042 48.0554L33.3963 38.8178Z" fill="#33BFC8"></path>
<path d="M31.8858 39.3091L30.9335 39.6695L31.6888 41.9952L32.8053 41.6349L31.8858 39.3091Z" fill="#D12767"></path>
<path d="M37.3697 53.1328L33.1336 42.3556L31.9514 42.8142L35.4651 53.8207L37.3697 53.1328Z" fill="#D12767"></path>
<path d="M28.799 40.1936L30.7693 54.3448L32.7724 53.9845L29.4886 40.1281L28.799 40.1936Z" fill="#DB5937"></path>
<path d="M13.8905 14.9375L7.88116 9.46694L6.56763 11.0393L12.9382 16.0185L13.8905 14.9375Z" fill="#33BFC8"></path>
<path d="M14.9413 15.8547L13.989 16.8702L17.5684 19.7201L18.2251 18.9339L14.9413 15.8547Z" fill="#33BFC8"></path>
<path d="M24.6942 5.83085L24.4315 2.42407L22.0672 2.84992L22.9867 6.12567L24.6942 5.83085Z" fill="black"></path>
<path d="M24.8913 7.76355L23.3151 8.05837L24.8913 16.1167L25.6794 15.953L24.8913 7.76355Z" fill="black"></path>
<path d="M37.3041 4.81537L38.0265 3.11198L36.0891 2.42407L35.5308 4.16021L37.3041 4.81537Z" fill="#F9E75C"></path>
<path d="M35.2024 5.11019L31.6888 16.1167L32.444 16.4443L36.9429 5.76534L35.2024 5.11019Z" fill="#F9E75C"></path>
<path d="M39.5042 15.134L46.5315 7.63252L44.9553 6.32222L38.4534 14.2496L39.5042 15.134Z" fill="#D12767"></path>
<path d="M37.3697 15.5926L35.3338 18.1805L36.1219 18.8684L38.322 16.4116L37.3697 15.5926Z" fill="#D12767"></path>
<path d="M45.1195 30.5301L39.7341 29.7439L39.537 30.7594L44.9225 31.9059L45.1195 30.5301Z" fill="#DB5937"></path>
<path d="M47.0241 30.7921L46.86 32.3317L53.6574 33.8058L54.0187 31.8076L47.0241 30.7921Z" fill="#DB5937"></path>
<path d="M20.6223 39.8987L21.4433 38.5229L20.5895 38.0316L19.7357 39.3419L20.6223 39.8987Z" fill="#33BFC8"></path>
<path d="M17.8311 45.14L20.1954 40.6522L19.2431 40.1281L16.5175 44.4193L17.8311 45.14Z" fill="#33BFC8"></path>
<path d="M15.4996 46.0244L12.8725 50.2174L14.6458 51.2329L16.9445 46.8434L15.4996 46.0244Z" fill="#33BFC8"></path>
<path d="M12.5113 35.4437L3.11963 40.3574L4.13761 42.1263L13.1352 36.5575L12.5113 35.4437Z" fill="#DB5937"></path>
<path d="M35.7607 37.2781L35.3338 37.6057L43.6418 48.4812L45.218 47.1709L35.7607 37.2781Z" fill="#305BA7"></path>
<path d="M16.222 33.4783L13.989 34.5593L14.4487 35.3127L16.6161 34.1007L16.222 33.4783Z" fill="#DB5937"></path>
<path d="M16.8788 7.73079L15.5652 8.48422L20.885 16.5753L21.3776 16.3133L16.8788 7.73079Z" fill="#F9E75C"></path>
<path d="M48.9288 39.4729L47.9436 41.078L50.0124 42.3556L51.0304 40.5867L48.9288 39.4729Z" fill="#F9E75C"></path>
<path d="M23.2165 40.0298L19.4401 53.919L18.1923 53.5259L22.921 39.9315L23.2165 40.0298Z" fill="black"></path>
<path d="M16.7474 20.8338L4.99139 13.1686L3.74354 15.265L16.2548 21.62L16.7474 20.8338Z" fill="#DB5937"></path>
<path d="M31.9514 11.76L34.1516 2.12925L32.1156 1.76892L30.8021 11.5634L31.9514 11.76Z" fill="#D12667"></path>
<path d="M6.14071 18.5736L5.28692 20.7356L15.9921 23.7493L16.1563 23.0613L6.14071 18.5736Z" fill="#6BBD48"></path>
<path d="M4.00625 32.3973L10.8037 31.0214L10.5082 29.6784L3.67787 30.5956L4.00625 32.3973Z" fill="black"></path>
<path d="M24.2345 42.0935L21.3448 54.5414L24.2674 55L25.5152 42.2901L24.2345 42.0935Z" fill="#744E9F"></path>
<path d="M49.7825 35.1161L39.3072 31.7094L38.946 32.6921L49.2243 36.8523L49.7825 35.1161Z" fill="black"></path>
<path d="M39.6684 21.5545L52.0155 16.5426L50.0781 12.841L39.0773 20.3752L39.6684 21.5545Z" fill="#33BFC8"></path>
<path d="M19.3745 16.4443L12.38 6.68255L9.91711 8.68076L18.3893 17.165L19.3745 16.4443Z" fill="#D12767"></path>
<path d="M13.4308 29.2853L11.3292 29.5801L11.6247 30.8577L13.6607 30.3991L13.4308 29.2853Z" fill="black"></path>
<path d="M13.4965 23.8148L1.87177 21.3252L1.64191 23.2251L13.3979 24.601L13.4965 23.8148Z" fill="#744E9F"></path>
<path d="M40.2923 34.8541L39.7012 35.8696L46.5972 40.2263L47.5167 38.7195L40.2923 34.8541Z" fill="#F9E75C"></path>
<path d="M16.3534 35.2144L6.04221 43.1745L7.35573 44.7469L17.043 36.0989L16.3534 35.2144Z" fill="#305BA7"></path>
<path d="M27.8139 51.0691L27.4526 39.3746H26.8615L26.4018 51.0691H27.8139Z" fill="#305BA7"></path>
</svg><style>@media (prefers-color-scheme: light) { :root { filter: none; } }
</style></svg>