<svg xmlns="http://www.w3.org/2000/svg" width="345" height="311" fill="currentColor" viewBox="0 0 345 311">
  <path d="M97.5 270.5c9.546 0 21.648 12.862 30.919 25.431 6.962 9.44 18.068 15.359 29.746 14.252l21.371-2.027a25.85 25.85 0 0 0 22.376-18.496 25.849 25.849 0 0 1 7.669-12.107l9.341-8.28a30.002 30.002 0 0 1 16.474-7.353l56.744-6.522a30 30 0 0 0 25.749-22.818l2.786-11.636c.548-2.288.825-4.633.825-6.985V191.98c0-3.583.997-7.094 2.88-10.142a19.301 19.301 0 0 0-2.109-23.091l-2.831-3.129a24.916 24.916 0 0 1-6.44-16.717v-29.324a30.003 30.003 0 0 1 10.826-23.074l10.392-8.635c8.751-7.272 12.701-18.887 9.532-29.815C340.46 36.709 336.186 23.879 332 16 325.431 3.636 278.521.229 253.554.011a28.47 28.47 0 0 0-5.076.423L106.784 24.787a30 30 0 0 0-22.313 17.337l-4.464 10a29.13 29.13 0 0 1-3.795 6.272c-7.58 9.53-21.64 26.673-31.712 37.104-8.774 9.087-20.165 24.29-27.734 34.937-3.48 4.896-5.33 10.775-4.956 16.769.713 11.448 2.801 26.572 7.69 33.294 4.962 6.822 3.833 17.09 1.832 24.234-.994 3.553-3.157 6.616-5.742 9.25l-8.034 8.185c-8.422 8.581-9.479 21.966-2.508 31.763 4.104 5.769 10.464 9.512 17.505 10.253 24.942 2.625 62.92 6.315 74.947 6.315Z"/>
</svg>
