<svg xmlns="http://www.w3.org/2000/svg" viewBox="0 0 111.98 111.98"><path d="M56,.22a56,56,0,1,0,56,56A56,56,0,0,0,56,.22ZM41.27,83.74H27.86V43.41H41.27Zm-6.7-45.83h-.09c-4.5,0-7.41-3.1-7.41-7s3-7,7.59-7,7.4,3,7.49,7S39.24,37.91,34.57,37.91ZM89.62,83.74H76.21V62.16c0-5.42-1.94-9.12-6.79-9.12A7.33,7.33,0,0,0,62.54,58a9.22,9.22,0,0,0-.45,3.26V83.74H48.68s.18-36.55,0-40.33H62.09v5.71a13.34,13.34,0,0,1,12.09-6.66c8.82,0,15.44,5.77,15.44,18.15ZM62.09,49.26v-.14c0,.05-.06.09-.08.14Z" transform="translate(-0.01 -0.22)" fill="#007ab9"/><path d="M62.09,49.12v.14H62S62.07,49.17,62.09,49.12Z" transform="translate(-0.01 -0.22)" fill="#fff"/><path d="M62.09,49.12v.14H62S62.07,49.17,62.09,49.12Z" transform="translate(-0.01 -0.22)" fill="#fff"/></svg>