<svg xmlns="http://www.w3.org/2000/svg" viewBox="0 0 110.75 110.71"><defs><style>.a{fill:#231f20;}.b{fill:#fff;}</style></defs><path class="a" d="M79.3,14.6l-4-3-12.13-9a13.07,13.07,0,0,0-15.53,0l-12.13,9-4,3-4,3h10l4-3,4-3,5.68-4.23a7.05,7.05,0,0,1,8.36,0l5.68,4.23,4,3,4,3h10ZM98.21,28.69l-3-2.23-3-2.24v7.49l3,2.23,3,2.24,6.54,4.87V102a2.78,2.78,0,0,1-2.76,2.76H8.76a2.63,2.63,0,0,1-1-.21A2.75,2.75,0,0,1,6,102V41.05l0,0,7.28-5.43,3-2.23,3-2.24V23.65l-3,2.24-3,2.23L0,38l0,3.2V102a8.77,8.77,0,0,0,8.76,8.76H102a8.77,8.77,0,0,0,8.76-8.76V38Z"/><rect class="b" x="27.59" y="48.43" width="30.33" height="6"/><rect class="b" x="27.59" y="25.1" width="51.92" height="6"/><rect class="b" x="27.59" y="36.77" width="55.09" height="6"/><path class="b" d="M89.21,14.6H22.31a6,6,0,0,0-6,6V57.38l1.49,2,9.13,12.09.83,1.1H82.68l1.65-2L94.54,58.24l.67-.81V20.6A6,6,0,0,0,89.21,14.6Zm3,42.58L83.09,68.41l-1.75-3H30.44l-1.92,3.31L19.31,57.38V20.6a3,3,0,0,1,3-3h66.9a3,3,0,0,1,3,3Z"/><polygon class="a" points="105.06 106.21 99.87 109.22 97.25 104.71 78.54 72.54 77.88 71.4 33.89 71.4 33.23 72.54 14.52 104.71 11.9 109.22 6.72 106.21 7.71 104.5 25.29 74.26 26.93 71.44 28.52 68.71 30.44 65.4 81.34 65.4 83.09 68.41 84.33 70.55 86.32 73.96 103.79 104.03 105.06 106.21"/><polygon class="a" points="110.08 44.7 104.75 51.26 86.32 73.96 85.01 75.57 81.28 72.54 80.35 71.78 83.09 68.41 92.21 57.18 95.21 53.49 98.21 49.8 104.75 41.74 105.42 40.92 110.08 44.7"/><polygon class="a" points="31.01 71.78 30.08 72.54 26.35 75.57 25.29 74.26 6 50.51 1.28 44.7 5.94 40.92 6.03 41.03 13.31 49.99 16.31 53.68 19.31 57.38 28.52 68.71 31.01 71.78"/><path class="a" d="M98.21,20.6V58.24h-6V20.6a3,3,0,0,0-3-3H22.31a3,3,0,0,0-3,3V59.35h-6V20.6a9,9,0,0,1,9-9h66.9A9,9,0,0,1,98.21,20.6Z"/><rect class="a" x="27.59" y="25.1" width="51.92" height="6"/><rect class="a" x="27.59" y="36.77" width="55.09" height="6"/><rect class="a" x="27.59" y="48.43" width="30.33" height="6"/></svg>