<svg width="223" height="204" fill="none" xmlns="http://www.w3.org/2000/svg"><g filter="url(#filter0_d)"><path d="M154.777 24c-27.777 0-38.633 7.823-38.633 7.823S106.5 24 79.442 24C53.385 24 28 47.643 28 80.871c0 33.229 25.043 51.843 47.58 67.818C98.114 164.664 103.582 180 116.143 180s21.892-14.058 38.633-31.311C171.518 131.436 203 117.934 203 80.871 203 43.81 178.554 24 154.777 24z" fill="#fff"/></g><g filter="url(#filter1_d)"><path d="M146.719 40c-15.611 0-25.851 6.333-30.215 9.5-4.029-3.5-10.576-9.5-28.705-9.5C65.137 40 46 58.5 46 84.5s21.151 39 38.777 51.5 25.18 24.5 31.727 24.5c6.455 0 16.829-10.697 29.671-23.939l.544-.561C159.813 122.5 186 113.5 186 84.5S162.331 40 146.719 40z" fill="#fff"/></g><path d="M111.725 68.074c2.001 2.892 3.002 4.338 3.51 4.566.66.296.859.302 1.534.043.521-.2 1.618-1.608 3.811-4.426C125.104 62.444 132.731 57 143.762 57 162.095 57 171 75.857 171 84.238c0 15.762-5.55 22.262-29.266 38.262-16.751 11.301-21.456 18.263-24.361 20.982-.198.186-.298.278-.713.417-.266.088-.962.094-1.229.011-.418-.131-.54-.242-.784-.462-2.697-2.436-7.703-8.198-23.372-19.948C77.147 112.905 61 108 61 84.238 61 66.952 76.714 57 86.667 57c13.984 0 21.083 5.33 25.058 11.074z" fill="url(#paint0_radial)"/><defs><filter id="filter0_d" x="0" y="0" width="223" height="204" filterUnits="userSpaceOnUse" color-interpolation-filters="sRGB"><feFlood flood-opacity="0" result="BackgroundImageFix"/><feColorMatrix in="SourceAlpha" values="0 0 0 0 0 0 0 0 0 0 0 0 0 0 0 0 0 0 127 0"/><feOffset dx="-4"/><feGaussianBlur stdDeviation="12"/><feColorMatrix values="0 0 0 0 0 0 0 0 0 0 0 0 0 0 0 0 0 0 0.09 0"/><feBlend in2="BackgroundImageFix" result="effect1_dropShadow"/><feBlend in="SourceGraphic" in2="effect1_dropShadow" result="shape"/></filter><filter id="filter1_d" x="30" y="24" width="164" height="144.5" filterUnits="userSpaceOnUse" color-interpolation-filters="sRGB"><feFlood flood-opacity="0" result="BackgroundImageFix"/><feColorMatrix in="SourceAlpha" values="0 0 0 0 0 0 0 0 0 0 0 0 0 0 0 0 0 0 127 0"/><feOffset dx="-4" dy="-4"/><feGaussianBlur stdDeviation="6"/><feColorMatrix values="0 0 0 0 0 0 0 0 0 0 0 0 0 0 0 0 0 0 0.09 0"/><feBlend in2="BackgroundImageFix" result="effect1_dropShadow"/><feBlend in="SourceGraphic" in2="effect1_dropShadow" result="shape"/></filter><radialGradient id="paint0_radial" cx="0" cy="0" r="1" gradientUnits="userSpaceOnUse" gradientTransform="matrix(50.52696 -16.76186 20.44184 61.61988 115.759 100.476)"><stop stop-color="#F5072B"/><stop offset="1" stop-color="#C6001C"/></radialGradient></defs></svg>