<svg width="110" height="87" fill="none" xmlns="http://www.w3.org/2000/svg"><path d="M47.542 7.332c4.11 3.924 6.164 5.886 6.796 6.099 1.027.346.837.344 1.87.014.635-.203 2.655-2.071 6.694-5.81C67.514 3.37 74.085 0 82.762 0 101.095 0 110 18.857 110 27.238 110 43 104.45 49.5 80.734 65.5c-15.63 10.544-20.772 17.31-23.75 20.379-.206.212-.309.317-.959.553-.395.143-1.532.165-1.932.037-.66-.21-.798-.343-1.076-.607-2.852-2.72-8.214-8.468-22.742-19.362C16.147 55.905 0 51 0 27.238 0 9.952 15.714 0 25.667 0c10.852 0 17.558 3.21 21.875 7.332z" fill="url(#paint0_radial)"/><defs><radialGradient id="paint0_radial" cx="0" cy="0" r="1" gradientUnits="userSpaceOnUse" gradientTransform="matrix(50.52696 -16.76186 20.44184 61.61988 54.759 43.476)"><stop stop-color="#F5072B"/><stop offset="1" stop-color="#C6001C"/></radialGradient></defs></svg>