<svg xmlns="http://www.w3.org/2000/svg" width="1920" height="62" fill="none" viewBox="0 0 1920 62">
  <path fill="#D85427" d="M1906.06 42.624c-2.96-.796-6.22-.663-9.49-.398-4.15.398-8.3.53-11.86-.53a98 98 0 0 1-12.45-.797c-2.37.265-4.74 0-6.82-.265-8.9-.93-17.5-.93-26.09.53-2.08.398-3.86.531-5.93.398-8.6-.132-17.2 0-25.51-.53-13.64-.796-26.98-.266-40.32-.133-5.04 1.725-10.38 1.99-16.02.796-9.19 1.194-18.38.664-27.57.796-6.23.133-12.75.266-18.68-.796-1.19-.265-2.38-.53-3.56-.796-.59.133-1.19 0-1.78-.133-8.9-.265-17.5-.929-26.39.266-3.86.53-8.3 0-12.16-.398-7.12-.797-12.75-2.654-18.38-4.512-9.2-.398-18.09.796-27.28-.266-.3 0-.6.133-.89.133-2.08-.663-5.34.133-7.42-.663-1.78-.664-3.85-.266-5.93-.399h-.29c-1.19 0-2.38.133-3.56.266-.89.133-1.48.133-2.37.133h-5.64c-.89 0-1.48-.133-2.07-.266-1.78-.398-3.86-.398-5.64-.663-.89 0-1.78-.266-2.37-.266-13.94-1.062-27.87-.796-41.81-1.194-2.37 0-4.74 0-7.12.133-7.71-.399-15.71.928-23.42-.399-.3-.398-.59-.796-.89-1.194-2.37 0-4.45-.265-6.52-.398-.3.133-.6.265-.89.53-.89.532-2.38.664-3.86.664-10.97.133-21.94-.796-32.91 0-6.53.531-13.05.531-19.57.266-1.49-.266-2.67-.664-3.27-1.327v-.133c-4.15-.133-8-.398-12.15-.53h-6.23c-1.48 0-2.97.132-4.45.265-2.37.265-5.34 0-7.41-.797-2.37-.265-5.04-.53-7.41-.928-.89.265-1.49.663-2.38 1.061-2.07.53-4.44.929-6.82.664-8.89-.797-17.49 0-26.09 1.061-1.78.266-3.26.531-5.04.796-.89.133-1.48.133-2.37.266-5.04.398-10.09.796-15.13 1.46-1.48.265-2.96.398-4.74.53-.89.133-1.48.133-2.37.266-7.71.265-15.13 1.46-22.84.663-4.74-.265-9.19 1.195-14.23.797-11.86.928-24.31 1.194-35.88 3.052-2.07 0-4.15-.266-6.23-.266-3.26.398-6.52.664-9.78.531-.89.266-1.78.664-2.67 1.062-2.07 0-4.15.132-6.23.398-.89 0-1.78 0-2.37-.133-2.07-.265-4.45-.133-6.52-.53-19.57.53-39.14.795-58.71 1.06-29.95.532-59.6 1.328-88.96 3.451-.89.133-2.08.133-2.97.133-21.05-.796-42.1-2.521-63.15-1.194-1.49 0-3.27-.133-4.75-.266h-3.26c-2.97 0-5.93-.265-8.304.531-8.302-1.327-17.198-.663-25.797-1.725-3.559-.398-7.413 0-11.268.53-7.413.93-15.123.93-22.536.399-6.524-.531-12.751-.398-19.274-.266-6.524 0-13.344.133-19.571-1.061-2.075.133-4.151.398-6.227.663l-.889.133h-1.483c-.593 0-1.186-.133-1.483-.265l-.889-.133-.89-.133c-.593-.133-.889-.265-1.482-.398l-1.779-.398c-.297 0-.593-.133-.593-.133a8.054 8.054 0 0 1-3.559 0h-.889c-.89 0-1.483.133-2.373.133-2.668.265-5.041.265-7.413-.266-.296-.132-.593-.265-.889-.132-1.186-.133-1.779-.398-2.372-.796-7.414-1.858-15.716-2.522-24.019-2.92-2.372-.133-4.744 0-7.117-.265-.889.133-1.779.265-2.372.398-13.047-1.327-26.094-2.654-39.141-4.114-5.634-1.194-12.157-.53-17.791-1.858-2.669-.265-4.745-.929-7.413-1.327a4.33 4.33 0 0 0-1.78.398h-2.668c-.89 0-1.483 0-1.186-.265-1.186 0-2.076 0-2.966-.398-.296-.133-.889-.133-1.186-.133-2.372-.663-5.337.266-7.413-.796-.593-.398-1.482-.796-2.076-1.327-1.779 0-3.261-.133-5.04-.133l-1.78-.796c-7.116-1.725-14.529-2.654-22.832-1.725-2.372.265-5.337.133-8.006-.133-7.413-.796-15.123-1.061-22.832-1.061-7.117 0-14.234-.664-21.054-1.062-12.454-.664-24.908 0-37.065-.133-2.076.664-4.448.664-6.82.664-14.826.132-29.06 1.46-42.403 4.114a62.715 62.715 0 0 1-7.413.796c-.593.265-1.186.663-1.483 1.061-.593.266-1.483.398-2.372.531a16.248 16.248 0 0 1-3.558.398h-.594c-1.482 1.195-5.04 1.062-7.709 1.195-21.35 1.061-42.697 2.654-63.454 4.91-2.965.663-6.227.928-9.489.398-.593-.133-1.186-.133-1.779-.266-2.965.664-6.227 1.46-9.192 2.123-1.779.399-3.559.664-5.634.93-9.489.663-18.681.796-28.17.663-1.779-.265-3.855-.133-5.634-.265a15.939 15.939 0 0 0-3.855 1.194c-38.251-.664-76.206-1.062-114.458.265a156.162 156.162 0 0 1-22.239 1.195c-4.745.53-9.489 1.327-13.937 2.388-5.931.398-11.861.93-17.495 1.46v.133c-5.93-.797-12.158.132-17.792-.664-2.965-.265-5.93-.663-8.896-.929-.593 0-1.186.133-1.779.133h-1.186c-.296 0-.593.133-.593.133-.889 0-1.483 0-2.372-.133 0 0-.297 0-.297-.133h-10.081c-.594.133-1.187.266-2.076.266h-2.076v.265c-.593 1.725-3.855 2.389-7.116 2.389-11.268.398-22.24.929-33.508 1.592-1.779.133-3.558 0-4.744-.398a5.401 5.401 0 0 1-1.186.398c-2.669.133-5.338 0-8.006.133-26.391 1.46-50.409 2.92-74.131 5.175-5.634.531-10.675 1.725-16.309 1.725-13.64-.132-26.687 1.46-40.03 2.389-2.076.133-4.449 0-6.524.398-.593 0-1.186 0-1.78-.133-3.558.399-7.116.93-10.378 1.593-2.372.265-4.448.133-6.227-.93-2.668-.132-5.04.266-7.71.664L0 0h1919.99l.01 43.288c-4.74.265-9.19-.398-13.94-.664ZM748.434 27.231l.889.398c0-.266-.593-.398-.889-.398Z"/>
</svg>
