<svg xmlns="http://www.w3.org/2000/svg" width="1920" height="82" fill="none" viewBox="0 0 1920 82">
  <path fill="#D85427" d="M7.6 22.75c4.94-.166 9.499-.496 14.058-1.157 2.28.165 4.94.495 7.22.66 11.78-1.321 22.038-4.461 34.197-4.461.76.165 1.14 0 1.52-.165 4.56-.661 9.12-.827 13.68.165.38.165 1.14.33 1.52.496 5.319.165 10.638.826 15.578.991 18.999.33 37.997-1.322 56.616-.826 9.499.33 18.619 0 28.118-.496l6.839-.496c12.16-1.156 23.179-3.14 33.058-6.114 7.22-2.148 13.679-2.974 21.658-2.81 1.9 0 3.42 0 5.32.166.76-.991 2.66-1.652 5.32-2.148 18.618-.992 37.997.496 56.235-2.314 1.14-.165 2.28 0 3.42 0 11.019 1.488 22.419.661 33.438.661 4.56.661 8.739 1.157 12.919 1.818 9.119-.66 17.859-1.983 26.218-3.635 10.639-1.983 19.759-2.81 30.398-1.322 4.559.66 10.639 1.487 14.439.66 9.879-1.817 18.618 0 27.738.331 4.559.165 8.739 1.157 13.299.661 3.799.165 7.219.165 11.019.33 1.14 0 1.9.331 2.66.662h2.28l2.279.991c6.46.33 12.919-.496 18.999-1.487 3.8-.661 7.979-1.157 12.159-1.157 9.879 0 18.999-2.644 28.878-1.157.76.166 1.52 0 2.28-.165 9.879-2.479 19.758-1.322 28.878.33 8.359 1.488 15.959 3.47 25.458 3.47 1.52 0 3.04.992 4.559 1.488 3.8.992 7.6 1.818 11.78 2.81 1.9.33 2.66 1.156 2.66 1.982 3.039.496 5.319 1.157 6.459 2.314 2.66 2.313 6.84 2.644 11.779 2.479 1.9 0 3.8.165 5.32.165 6.459-.661 14.059-1.983 19.378-.165 4.56 1.652 8.36 1.652 12.919 1.322 3.8-.496 7.6-1.157 11.02.33 1.14 0 1.899.33 2.659.826l6.84 2.975c7.22.496 14.819-.165 22.038-.165 0-.166-.38-.166-.38-.33.38-.827 1.14-1.323 2.66-1.653 4.94-.827 9.879.33 14.819.165h3.42c1.14.165 1.9.33 3.04.496.76.33 1.519.495 2.279.826.76.33 1.52.661 1.9.991 0 .166 0 .496.38.662 7.22 1.817 14.819.66 22.419 1.156 1.52.33 3.419.33 4.939.992 1.14.165 1.9.66 2.66.826 1.14.661 3.42.33 4.56.991.38.166.76.496 1.14.662.38 0 1.14 0 1.52.165v.165c.76.496 1.519.661 1.899 1.157 1.14 1.322 4.18 1.322 6.46 1.487 7.979.33 16.339.992 23.938 1.487 11.779.826 23.179 2.148 35.338 1.983 5.699-2.148 11.019-1.652 15.958-.495.76-.166 1.52-.331 1.9-.496 1.14-.166 2.28-.33 3.8-.33 3.8.164 7.219.33 10.639.99 27.358-.33 54.716-.495 82.074-1.321 3.42.33 7.22.66 10.639.826 7.6-.496 15.199-.991 22.802-1.322 4.94-.33 8.74-.661 11.4-2.644.76-.826 3.04-.661 4.56-1.157.76-.495 1.52-.826 3.04-.991v.165c4.56.165 8.73 2.314 13.29-.165.38-.166.38-.33.76-.496 2.28-.826 5.32-.992 7.6-1.652.76-.166 1.9-.166 2.66-.331 2.66 0 5.7 0 8.36-.33 1.14 0 1.9-.166 2.66-.166 2.28 0 4.56.33 6.46.992.76.165 1.52.33 2.28.66 1.52.331 3.42.662 4.94.827.76.165 1.9.165 2.66.33 2.28.331 4.56.496 7.22.662 1.14 0 1.9 0 3.04.165h24.32c1.14 0 1.9 0 3.04-.166 1.9-.165 3.8-.33 5.7-.66 1.14-.166 1.9-.166 3.04-.331l4.56-.496c1.14 0 2.28-.165 3.04-.165 3.42-.496 6.84-.33 10.26-.496 2.28-.165 4.56-.495 6.46-.165a485.803 485.803 0 0 0 37.61 4.462c4.18.33 7.22 1.652 7.22 3.8l-1.14.496c.76.166 1.52.496 2.28.661 2.28.33 4.56.661 6.84.661 1.14 0 2.28 0 3.42-.33 10.64-1.983 21.28-1.488 31.54.496 3.04.66 6.08.826 8.74.495 11.02-1.818 22.42-1.322 33.44-.826 1.52.661 3.8 1.157 6.08.992 8.36-.661 14.06.826 19.38 3.635 6.07 2.975 14.05 5.123 24.31 5.453 8.36.33 17.48-.33 25.46 1.818.38.165.38.33.76.33 1.52 0 3.04.166 4.56.166 5.7.991 12.16 1.322 18.24 1.652 25.46 1.653 49.78 4.627 75.23 6.115 18.24.991 36.48 3.635 55.1 3.47 23.94-.661 47.12 1.818 69.92 4.792 28.11 3.636 56.23 3.801 84.73 1.157 10.26-.992 20.14-1.818 30.4-.496 2.28-.165 4.56-.33 6.84-.826 1.14-.165 2.28-.165 3.42-.165 1.52 0 3.04.33 4.56.495 1.52 0 3.42 0 5.32.166 3.8.33 7.59.496 11.77.496 1.52-.496 2.66-.992 4.18-1.983 1.14-.166 1.9-.331 3.04-.496 1.52-.33 3.04-.496 4.56-.827 1.14-.165 1.9-.33 3.04-.495 4.94-.33 9.5-.992 14.06-.827 3.8-.165 7.98 0 12.16.331 8.36.826 16.72.661 25.08.33 1.14-.165 2.66-.165 3.8-.165 1.9 0 3.8-.165 5.32-.165 0-.33.38-.661.76-.826 5.7-1.983 13.3-2.149 19.76-2.975 20.9-3.14 41.79-3.966 63.07-.826 5.32 0 10.64.165 15.58.826 7.22.992 14.82 1.322 22.42 1.157.76.165 1.14.33 2.28.496V81.86H0V22.419c1.52 0 4.18.165 7.6.33Z"/>
</svg>
