<svg width="121" height="38" viewBox="0 0 121 38" fill="none" xmlns="http://www.w3.org/2000/svg">
<path d="M49.3827 0C45.2061 0 42.7492 0.610932 40.6609 1.8328C38.9411 2.93248 37.3442 4.39871 36.1157 6.23151C35.2558 7.45338 34.5188 8.67524 34.0274 10.0193C34.0274 5.00965 30.8335 1.09968 26.2883 0.36656C25.0599 0.244373 23.0944 0 21.6203 0H0V38H21.1289C26.6569 38 28.9909 37.3891 31.0792 35.4341C32.9218 33.7235 33.9046 31.0354 33.9046 27.8585V27.6141C35.5015 32.0129 38.3269 35.3119 41.8893 36.5338C44.469 37.5113 47.7858 37.8778 52.5767 37.8778H61.4213V28.1029H55.0335C47.4173 28.1029 44.9604 28.7138 43.6091 23.2154H61.4213V14.6624H43.6091C43.6091 14.6624 44.469 9.65273 49.7513 9.65273H67.3178V37.8778H78.3736V9.77492H92.2548L95.3259 0H49.3827ZM9.33604 9.77492H21.2518C24.2 9.77492 24.0772 12.2186 24.0772 12.2186C24.0772 14.7846 21.2518 14.6624 21.2518 14.6624H9.33604V9.77492ZM24.2 25.7814C24.2 28.3473 21.3746 28.2251 21.3746 28.2251H9.45888V23.3376H21.3746C24.3228 23.3376 24.2 25.7814 24.2 25.7814ZM28.4995 19.0611C30.2193 18.328 31.8162 16.8617 32.799 15.0289C32.6761 16.2508 32.5533 17.4727 32.5533 18.6945C32.5533 20.1608 32.6761 21.627 32.799 22.9711C31.9391 21.2604 30.465 19.9164 28.4995 19.0611Z" fill="#110A0C"/>
<path d="M121 14.7846H105.645L100.977 0L96.3086 14.7846H80.9533L93.3604 23.582L88.5695 37.8778L100.977 28.9582L113.384 37.8778L108.593 23.582L121 14.7846Z" fill="#110A0C"/>
</svg>
