<svg width="102" height="48" viewBox="0 0 102 48" fill="none" xmlns="http://www.w3.org/2000/svg">
<path d="M93.8851 0.199848V37.6817C93.8851 38.0687 93.7931 38.296 93.7166 38.4146C93.642 38.5302 93.5611 38.5789 93.495 38.6003C93.3892 38.6346 93.0896 38.6498 92.7787 38.246L92.1188 37.1958C91.6778 36.4941 91.0435 35.4843 90.2696 34.252C88.7219 31.7875 86.6162 28.4333 84.3847 24.8743C79.9198 17.7534 74.9559 9.82094 72.9438 6.54909L72.916 6.50398L72.8848 6.46125C71.964 5.20268 70.454 4.70857 69.106 5.12474C67.7023 5.55814 66.758 6.87645 66.758 8.60808V37.6817C66.758 38.075 66.6666 38.3064 66.5911 38.4263C66.518 38.5423 66.4427 38.5852 66.3893 38.6028C66.3134 38.6278 66.0271 38.6608 65.7083 38.2447L65.0423 37.1923C64.5984 36.4907 63.9598 35.481 63.181 34.2488C61.6235 31.7845 59.5054 28.4305 57.2633 24.8718C52.7755 17.7489 47.8008 9.82212 45.8211 6.5563L45.7915 6.5074L45.7577 6.46125C44.837 5.20268 43.3269 4.70857 41.979 5.12474C40.5752 5.55814 39.631 6.87645 39.631 8.60808V37.4537C39.631 38.0443 39.1769 38.5292 38.5308 38.5292H24.4777C18.8189 38.5292 14.7351 36.5475 12.0621 33.6762C9.37067 30.7852 8.02568 26.9014 8.03572 22.9772C8.04577 19.0517 9.4121 15.1583 12.0489 12.2604C14.6661 9.38405 18.5967 7.41851 23.9018 7.41851H32.3821V13.5914H24.1985C10.4824 13.5914 8.98398 34.0491 25.1206 34.0491H32.555V33.9921C33.477 33.8781 34.111 33.1373 34.111 32.3395V8.74763C34.1686 -0.0280924 45.5219 -4.245 51.5731 5.95536C57.7396 16.3837 61.2551 22.4811 61.2551 22.4811V8.74763C61.2551 -0.0280924 72.6083 -4.245 78.7172 5.95536C84.8837 16.3837 88.3991 22.4811 88.3991 22.4811V0.199848H93.8851Z" fill="#E82133"/>
<path d="M96.5226 0.199848H102V39.2917C102 49.3211 90.0704 50.9167 85.2295 42.8818C82.3479 38.152 74.8559 26.0142 74.8559 26.0142V39.2917C74.9712 49.3211 63.0416 50.9167 58.0854 42.8818C55.2038 38.152 47.8271 26.0142 47.8271 26.0142V37.9811C47.8271 44.1355 44.1964 47.3836 38.4909 47.3836H25.4087C-8.24762 47.3836 -8.53577 0.199848 24.9477 0.199848H32.3821V4.78101H23.9018C17.8895 4.78101 13.2385 7.034 10.0981 10.4854C6.97718 13.9153 5.40978 18.459 5.39823 22.9705C5.38668 27.4834 6.93222 32.0367 10.1316 35.4734C13.3495 38.9299 18.1569 41.1667 24.4777 41.1667H38.5308C40.6492 41.1667 42.2685 39.4854 42.2685 37.4537V8.60808C42.2685 8.22599 42.3652 7.99986 42.4506 7.87578C42.5363 7.7514 42.6435 7.67991 42.7571 7.64486C42.9713 7.57872 43.3168 7.62094 43.6004 7.98085C45.6175 11.3051 50.5751 19.2042 55.0318 26.2778C57.2748 29.8379 59.3935 33.1929 60.9515 35.658C61.7305 36.8905 62.3693 37.9005 62.8134 38.6024L63.5062 39.6972L63.5067 39.698C63.5069 39.6982 63.5069 39.6983 64.6211 38.9929L63.5067 39.698L63.5306 39.7358L63.5568 39.7715C64.4384 40.9766 65.868 41.5521 67.2157 41.1075C68.5947 40.6525 69.3956 39.3032 69.3956 37.6817V8.60808C69.3956 8.22599 69.4922 7.99986 69.5777 7.87578C69.6634 7.7514 69.7706 7.67991 69.8841 7.64486C70.0989 7.57855 70.4456 7.62115 70.7296 7.98357C72.7696 11.2993 77.7116 19.1966 82.1501 26.2754C84.3821 29.8351 86.4881 33.1899 88.036 35.6547C88.81 36.8872 89.4445 37.8971 89.8855 38.599L90.5734 39.6935L90.5739 39.6944C90.574 39.6946 90.5741 39.6947 91.6906 38.9929L90.5739 39.6944L90.5988 39.734L90.6263 39.7715C91.5165 40.9884 92.9608 41.5451 94.3066 41.1099C95.6899 40.6625 96.5226 39.3236 96.5226 37.6817V0.199848Z" fill="#E82133"/>
</svg>
