<svg width="120" height="61" viewBox="0 0 120 61" fill="none" xmlns="http://www.w3.org/2000/svg">
<path d="M76.3728 22.0183C74.3465 19.8915 73.5238 17.8672 73.5238 15.6378C73.5238 11.3898 76.7799 7.92138 80.9943 7.92138C86.133 7.92138 88.7361 11.7411 88.7361 15.5291C88.7361 18.6224 87.1698 20.486 85.444 22.8108L73.7942 38.5003H89.805V43.8447H63.7874L82.2006 18.5111C82.9564 17.4612 83.7256 16.5909 83.7256 15.6559C83.7256 14.5796 82.742 13.1381 81.3199 13.1381C80.0282 13.1381 78.8056 14.2574 78.8056 15.7102C78.8451 16.7963 79.3985 17.2199 79.8462 17.6424L76.3728 22.0183Z" fill="#C1363F"/>
<path d="M75.2061 23.481L71.7874 27.8101C68.5284 24.9018 65.7097 21.2075 65.7097 15.4385C65.7097 7.58417 72.2424 0.0600891 81.0847 0.0600891C89.426 0.0600891 96.4417 6.63976 96.4417 15.3661C96.4417 19.1993 95.5727 21.7179 93.1135 25.0025L88.7723 30.8351H95.2479L105.149 17.2896H111.197L96.7311 37.2473C94.6299 40.1283 93.0954 42.1962 93.0954 45.7245C93.0954 51.049 97.434 55.5964 103.152 55.5964C108.56 55.5964 113.092 51.1063 113.092 45.5524C113.092 40.9624 110.09 37.9055 106.535 36.0518L106.083 32.7189L109.483 31.614C114.902 34.423 118.437 39.2157 118.437 45.4709C118.437 54.2805 111.515 60.9399 102.99 60.9399C95.1998 60.9399 87.7412 54.7142 87.7412 45.6882C87.7412 41.1794 89.2507 38.5691 91.1392 36.1621H78.464L88.4829 22.2311C90.1689 19.9637 91.146 17.8308 91.1057 15.4023C91.1057 10.0904 86.7237 5.47604 81.0486 5.47604C76.263 5.47604 71.1 9.30169 71.1 15.6921C71.1 18.8961 73.0407 21.7251 75.2061 23.481Z" fill="#4A4E9E"/>
<path d="M113.529 17.293L98.3003 38.5975C96.8254 40.7065 95.1732 42.3126 95.1732 45.5704C95.1732 50.4853 98.9138 53.6288 103.127 53.6288C107.738 53.6288 111.049 49.8311 111.049 45.5599C111.049 40.9008 107.528 38.5653 105.399 37.8251L119.94 17.293H113.529ZM103.033 43.18C104.386 43.18 105.482 44.2782 105.482 45.633C105.482 46.9878 104.386 48.086 103.033 48.086C101.68 48.086 100.583 46.9878 100.583 45.633C100.583 44.2782 101.68 43.18 103.033 43.18Z" fill="#C1363F"/>
<path d="M0.0599976 43.6777V25.4744H3.88171V32.7717L10.7362 25.4744H15.9144L8.49803 33.0022L16.1488 43.6777H11.283L5.64487 35.7835L3.88171 37.5365V43.6777H0.0599976Z" fill="#4A4E9E"/>
<path d="M22.0695 44.0792V28.7962H16.5939V25.4744H31.3652V28.7962H25.8912V44.0792H22.0695Z" fill="#4A4E9E"/>
<path d="M32.7022 38.1692H36.4734C36.8069 40.5591 38.627 41.2296 40.5124 41.2296C42.4164 41.2296 44.1568 40.4222 44.1568 38.7717C44.1568 35.0809 32.9797 37.7424 32.9797 30.5771C32.9797 28.7667 33.5935 27.3794 34.8211 26.4153C36.0488 25.4512 37.823 24.9691 40.1438 24.9691C42.3132 24.9691 44.0096 25.4828 45.2331 26.51C46.4565 27.5373 47.1019 28.9856 47.1692 30.8549H43.4988C43.4315 29.954 43.0868 29.2677 42.4646 28.7962C41.8423 28.3246 40.9552 28.0889 39.8032 28.0888C38.8026 28.0889 38.0311 28.2846 37.4888 28.6762C36.9464 29.0677 36.6752 29.6256 36.6752 30.3497C36.6752 31.3349 37.7305 32.0717 39.8411 32.5601C40.4129 32.6948 40.8585 32.8001 41.1781 32.8758C42.5318 33.2211 43.4925 33.4905 44.0601 33.6842C44.6277 33.8779 45.1217 34.0926 45.5421 34.3283C46.2989 34.7494 46.8665 35.3072 47.2449 36.0019C47.6232 36.6966 47.939 37.51 47.9391 38.4783C47.9391 42.692 44.381 44.1804 40.6531 44.1804C35.9034 44.0798 33.0062 43.0408 32.7022 38.1692Z" fill="#4A4E9E"/>
<path d="M50.8143 43.6783V25.4744H63.7804V28.7078H54.5856V32.9264H62.6452V36.1598H54.5856V43.6783H50.8143Z" fill="#4A4E9E"/>
</svg>
