<svg xmlns="http://www.w3.org/2000/svg" viewBox="0 0 110.75 110.71"><defs><style>.a{fill:#231f20}.b{fill:#fff}</style></defs><path class="a" d="M79.3 14.6l-4-3-12.13-9a13.07 13.07 0 00-15.53 0l-12.13 9-4 3-4 3h10l4-3 4-3 5.68-4.23a7.05 7.05 0 018.36 0l5.68 4.23 4 3 4 3h10zm18.91 14.09l-3-2.23-3-2.24v7.49l3 2.23 3 2.24 6.54 4.87V102a2.78 2.78 0 01-2.76 2.76H8.76a2.63 2.63 0 01-1-.21A2.75 2.75 0 016 102V41.05l7.28-5.43 3-2.23 3-2.24v-7.5l-3 2.24-3 2.23L0 38v64a8.77 8.77 0 008.76 8.76H102a8.77 8.77 0 008.76-8.76V38z"/><path class="b" d="M27.59 48.43h30.33v6H27.59zm0-23.33h51.92v6H27.59zm0 11.67h55.09v6H27.59z"/><path class="b" d="M89.21 14.6h-66.9a6 6 0 00-6 6v36.78l1.49 2 9.13 12.09.83 1.1h54.92l1.65-2 10.21-12.33.67-.81V20.6a6 6 0 00-6-6zm3 42.58l-9.12 11.23-1.75-3h-50.9l-1.92 3.31-9.21-11.34V20.6a3 3 0 013-3h66.9a3 3 0 013 3z"/><path class="a" d="M105.06 106.21l-5.19 3.01-2.62-4.51-18.71-32.17-.66-1.14H33.89l-.66 1.14-18.71 32.17-2.62 4.51-5.18-3.01.99-1.71 17.58-30.24 1.64-2.82 1.59-2.73 1.92-3.31h50.9l1.75 3.01 1.24 2.14 1.99 3.41 17.47 30.07 1.27 2.18z"/><path class="a" d="M110.08 44.7l-5.33 6.56-18.43 22.7-1.31 1.61-3.73-3.03-.93-.76 2.74-3.37 9.12-11.23 3-3.69 3-3.69 6.54-8.06.67-.82 4.66 3.78zM31.01 71.78l-.93.76-3.73 3.03-1.06-1.31L6 50.51 1.28 44.7l4.66-3.78.09.11 7.28 8.96 3 3.69 3 3.7 9.21 11.33 2.49 3.07z"/><path class="a" d="M98.21 20.6v37.64h-6V20.6a3 3 0 00-3-3h-66.9a3 3 0 00-3 3v38.75h-6V20.6a9 9 0 019-9h66.9a9 9 0 019 9z"/><path class="a" d="M27.59 25.1h51.92v6H27.59zm0 11.67h55.09v6H27.59zm0 11.66h30.33v6H27.59z"/></svg>