<svg xmlns="http://www.w3.org/2000/svg" width="681" height="863" fill="currentColor" viewBox="0 0 681 863">
  <path d="m52.632 820.438 94.165 39.806a30.002 30.002 0 0 0 15.98 2.058l457.259-66.201a30 30 0 0 0 23.996-19.72l11.091-31.474a30.025 30.025 0 0 1 3.761-7.295l15.974-22.699a30.002 30.002 0 0 0 2.491-30.289l-8.414-17.46a29.998 29.998 0 0 0-11.732-12.784l-39.13-23.189A30.008 30.008 0 0 0 602.779 627h-25.97a30 30 0 0 1-22.241-9.866l-26.309-29.062a30.007 30.007 0 0 1-7.759-20.134V411.011c0-13.807 9.423-25.831 22.829-29.131l38.38-9.447a29.985 29.985 0 0 0 7.217-2.805l26.975-14.742c7.967-4.354 13.549-12.079 15.036-21.035 2.766-16.667 6.163-39.145 7.063-52.351 1.145-16.799-15.839-45.867-25.648-60.072a27.34 27.34 0 0 0-3.011-3.617L419.935 25.031c-3.565-3.628-7.977-6.295-12.868-7.692C385.312 11.128 348.7 1.566 332 .5 308.5-1 233.5 5 182.5 19.5c-39.303 11.174-82.379 51.393-100.982 72.208a27.785 27.785 0 0 0-3.516 4.969l-38.316 68.451a30.002 30.002 0 0 0-3.645 17.91l7.497 68.653a30 30 0 0 0 6.556 15.682l25.33 31.12a30.002 30.002 0 0 0 9.85 7.894l21.861 10.931a29.996 29.996 0 0 1 14.555 15.987l12.781 32.962a30.003 30.003 0 0 1 2.029 10.846v165.793a30.007 30.007 0 0 1-4.071 15.09L70.745 663.987a29.998 29.998 0 0 1-14.95 12.829l-30.5 11.995a30.014 30.014 0 0 0-7.883 4.59l-6.088 4.922A30 30 0 0 0 .665 726.994l5.198 28.723a30 30 0 0 0 4.734 11.558l28.93 42.43a30.008 30.008 0 0 0 13.105 10.733Z"/>
</svg>
