<svg width="212" height="138" viewBox="0 0 212 138" fill="none" xmlns="http://www.w3.org/2000/svg">
<path d="M211.751 57.3514C211.751 38.2514 193.151 22.7514 170.251 22.7514C168.451 22.7514 166.651 22.8514 164.851 23.0514C161.351 12.5514 151.352 3.75144 137.652 0.95144C120.352 -2.64856 102.951 4.25144 95.0515 16.8514C92.1515 15.3514 88.8515 14.2514 85.4515 13.5514C66.2515 9.55144 46.7515 19.2514 41.9515 35.2514V35.4514C40.8515 35.0514 39.6515 34.7514 38.4515 34.5514C21.8515 31.0514 5.05149 39.4514 0.951493 53.2514C-3.24851 67.0514 6.85149 81.0514 23.4515 84.5514C23.6515 84.5514 23.8515 84.6514 23.9515 84.6514C22.9515 86.2514 22.2515 88.0514 21.8515 89.9514C19.0515 101.851 28.2515 113.351 42.5515 115.751C47.2515 116.551 51.8515 116.251 56.0515 115.051C59.7515 125.251 69.6515 133.651 83.0515 136.451C98.2515 139.651 113.651 134.651 122.451 124.851C124.851 125.851 127.452 126.651 130.152 127.251C150.051 131.451 170.152 121.351 175.152 104.851C176.452 100.451 176.551 96.0514 175.652 91.9514C195.952 89.4514 211.751 74.9514 211.751 57.3514Z" fill="url(#paint0_linear_2267_1214)"/>
<defs>
<linearGradient id="paint0_linear_2267_1214" x1="105.876" y1="0" x2="105.876" y2="137.415" gradientUnits="userSpaceOnUse">
<stop stop-color="white"/>
<stop offset="1" stop-color="#E3F4FE" stop-opacity="0.94"/>
</linearGradient>
</defs>
</svg>
