<svg width="154" height="102" viewBox="0 0 154 102" fill="none" xmlns="http://www.w3.org/2000/svg">
<path d="M152.102 50.2035C155.702 41.3035 149.902 31.7035 139.202 28.7035C137.402 28.2035 135.502 27.9035 133.702 27.9035C135.302 16.4035 127.002 5.10355 113.302 1.30355C100.402 -2.29645 86.6024 1.80354 79.2024 10.6035C69.1024 8.80355 58.9024 13.5035 55.5024 21.8035C55.5024 21.9035 55.4024 22.0035 55.4024 22.1035C54.1024 21.5035 52.8024 21.0035 51.4024 20.6035C39.4024 17.3035 26.5024 22.7035 22.5024 32.6035C21.9024 34.0035 21.6024 35.5035 21.4024 36.9035C12.4024 38.1035 4.40241 43.3035 1.30241 51.1035C-3.09759 62.1035 4.00241 74.1035 17.3024 77.8035C22.0024 79.1035 26.8024 79.2035 31.3024 78.3035C32.2024 88.1035 40.0024 97.0035 51.8024 100.304C64.1024 103.704 77.3024 100.104 84.9024 92.1035C87.7024 95.2035 91.7024 97.6035 96.5024 99.0035C107.402 102.004 119.002 98.3035 124.802 90.5035C134.502 89.8035 143.302 84.4035 146.602 76.2035C149.002 70.2035 148.002 63.9035 144.402 58.9035C147.802 56.8035 150.602 53.8035 152.102 50.2035Z" fill="url(#paint0_linear_2267_1212)"/>
<defs>
<linearGradient id="paint0_linear_2267_1212" x1="76.5852" y1="0" x2="76.5852" y2="101.582" gradientUnits="userSpaceOnUse">
<stop stop-color="white"/>
<stop offset="1" stop-color="#CCDAE7"/>
</linearGradient>
</defs>
</svg>
