<svg width="61" height="37" viewBox="0 0 61 37" fill="none" xmlns="http://www.w3.org/2000/svg">
<path d="M54.7452 8.28741C52.6452 7.38741 50.4452 7.08741 48.2452 7.38741C47.5452 5.48741 45.9452 3.88741 43.7452 2.88741C40.3452 1.38741 36.2452 1.88741 33.4452 3.78741C32.6452 2.58741 31.3452 1.58741 29.7452 0.887415C25.1452 -1.11259 19.5452 0.387418 17.1452 4.18742C16.6452 4.88742 16.3452 5.68742 16.2452 6.48742C12.4452 5.48742 8.3452 6.88741 6.4452 9.88741C5.8452 10.8874 5.5452 11.8874 5.5452 12.9874C3.6452 13.5874 1.9452 14.6874 0.945205 16.2874C-1.1548 19.6874 0.345205 23.8874 4.4452 25.5874C6.1452 26.2874 7.94521 26.4874 9.74521 26.2874C10.2452 29.8874 12.7452 33.1874 16.9452 34.9874C22.7452 37.4874 29.6452 36.1874 33.6452 32.1874C34.5452 33.2874 35.7452 34.1874 37.2452 34.7874C42.1452 36.8874 48.1452 35.3874 50.7452 31.2874C52.0452 29.2874 52.1452 27.0874 51.4452 24.9874C54.7452 24.5874 57.7452 22.9874 59.4452 20.2874C62.0452 15.8874 59.9452 10.5874 54.7452 8.28741Z" fill="url(#paint0_linear_2267_1199)"/>
<defs>
<linearGradient id="paint0_linear_2267_1199" x1="30.2802" y1="0" x2="30.2802" y2="36.2632" gradientUnits="userSpaceOnUse">
<stop stop-color="white"/>
<stop offset="1" stop-color="#CCDAE7"/>
</linearGradient>
</defs>
</svg>
