<svg xmlns="http://www.w3.org/2000/svg" width="126" height="80" fill="none" viewBox="0 0 126 80">
  <path fill="currentColor" d="M50.4 0h-2.8v79.2h2.8V0z"/>
  <path fill="currentColor" d="M36.8 16.6H34v46h2.8v-46z"/>
  <path fill="currentColor" d="M27.2 25.5H30v28.2h-2.8V25.5z"/>
  <path fill="currentColor" d="M23.2 33.7h-2.8v11.6h2.8V33.7z"/>
  <path fill="currentColor" d="M13.6 35.4h2.8v8.3h-2.8v-8.3z"/>
  <path fill="currentColor" d="M2.8 37H0v4.5h2.8V37z"/>
  <path fill="currentColor" d="M9.6 37H6.8v5h2.8v-5z"/>
  <path fill="currentColor" d="M40.8 19.3h2.8v41h-2.8v-41z"/>
  <path fill="currentColor" d="M64 16.6h-2.8v46H64v-46z"/>
  <path fill="currentColor" d="M68 25.5h2.8v27.7H68V25.5z"/>
  <path fill="currentColor" d="M77.6 31.5h-2.8v16h2.8v-16z"/>
  <path fill="currentColor" d="M81.6 31.5h2.8v16h-2.8v-16z"/>
  <path fill="currentColor" d="M98 33.7h-2.8v11.7H98V33.7z"/>
  <path fill="currentColor" d="M102 35.4h2.8v8.3H102v-8.3z"/>
  <path fill="currentColor" d="M111.6 37h-2.8v5.1h2.8V37z"/>
  <path fill="currentColor" d="M115.6 37h2.8v5.1h-2.8V37z"/>
  <path fill="currentColor" d="M125.2 37h-2.8v4.6h2.8V37z"/>
  <path fill="currentColor" d="M125.2 37h-2.8v4.6h2.8V37z"/>
  <path fill="currentColor" d="M88.4 28.7h2.8v21.6h-2.8V28.7z"/>
  <path fill="currentColor" d="M54.4 6.5h2.8v65.8h-2.8V6.5z"/>
</svg>
