<svg xmlns="http://www.w3.org/2000/svg" width="37" height="37" fill="none" viewBox="0 0 37 37">
  <path fill="#fff" d="M27.161 36.375H9.511c-1.824 0-3.293 0-4.45-.155-1.2-.162-2.21-.507-3.013-1.31-.802-.802-1.147-1.813-1.309-3.013-.155-1.156-.155-2.625-.155-4.449V9.552c0-1.824 0-3.293.155-4.45.162-1.2.507-2.21 1.31-3.013C2.85 1.287 3.861.942 5.061.78 6.218.625 7.687.625 9.51.625h8.825v2H9.584c-1.914 0-3.249.002-4.256.138-.978.131-1.496.372-1.865.74-.37.37-.61.888-.741 1.866-.136 1.007-.138 2.342-.138 4.256v17.75c0 1.914.002 3.249.138 4.256.131.978.372 1.496.74 1.865.37.37.888.61 1.866.741 1.007.136 2.342.138 4.256.138h17.504c1.914 0 3.248-.002 4.256-.138.978-.131 1.496-.372 1.865-.74.37-.37.61-.888.741-1.866.136-1.007.138-2.342.138-4.256v-10.75h2v10.823c0 1.824 0 3.293-.156 4.45-.16 1.2-.506 2.21-1.309 3.012-.802.803-1.813 1.148-3.013 1.31-1.156.155-2.626.155-4.449.155Z"/>
  <path fill="#fff" d="M36.088.625H25.78v2h6.472l-7.1 5.721a1 1 0 1 0 1.256 1.558l7.679-6.189V11h2V.625Z"/>
  <path fill="#fff" fill-rule="evenodd" d="M14.75 10.996c-1.334-.767-2.998.195-2.998 1.733V24.27c0 1.539 1.664 2.501 2.998 1.734l10.024-5.77c1.337-.77 1.337-2.698 0-3.467l-10.024-5.77Zm-.998 1.733L23.777 18.5l-10.025 5.77V12.73Z" clip-rule="evenodd"/>
</svg>
