<svg xmlns="http://www.w3.org/2000/svg" width="22" height="22" fill="none" viewBox="0 0 22 22">
  <path fill="#000" d="M20.25 11a.75.75 0 0 0 1.5 0h-1.5ZM11 21.75a.75.75 0 0 0 0-1.5v1.5ZM12.597.596a.75.75 0 0 0-1.194.908l1.194-.908ZM14.25 11a.75.75 0 0 0 1.5 0h-1.5ZM9.403 21.404a.75.75 0 1 0 1.194-.908l-1.194.908Zm1.194-19.9A.75.75 0 0 0 9.403.596l1.194.908ZM1.63 13.75a.75.75 0 0 0 0 1.5v-1.5Zm9.37 1.5a.75.75 0 0 0 0-1.5v1.5Zm-9.37-8.5a.75.75 0 0 0 0 1.5v-1.5Zm18.74 1.5a.75.75 0 0 0 0-1.5v1.5Zm.509 8.667.393-.639-.393.639Zm-.045 1.101.085.745-.085-.745Zm-2.567.291-.084-.745-.406.046-.181.365.671.334Zm-1.151 2.312-.671-.334.671.334Zm-1.05-.334-.735.15v.001l.735-.151Zm-1.255-6.116.735-.15v-.002l-.735.152Zm.75-.525-.393.638.393-.638ZM21.75 11C21.75 5.063 16.937.25 11 .25v1.5A9.25 9.25 0 0 1 20.25 11h1.5ZM11 .25C5.063.25.25 5.063.25 11h1.5A9.25 9.25 0 0 1 11 1.75V.25ZM.25 11c0 5.937 4.813 10.75 10.75 10.75v-1.5A9.25 9.25 0 0 1 1.75 11H.25ZM12 1.05c-.597.454-.597.453-.598.453l.004.005.02.027.084.12c.075.11.184.275.317.495.266.439.625 1.09.984 1.922A17.534 17.534 0 0 1 14.25 11h1.5c0-3.125-.781-5.715-1.561-7.522a17.35 17.35 0 0 0-1.079-2.106 12.066 12.066 0 0 0-.508-.77L12.599.6V.597h-.001L12 1.05Zm-2 19.9c.597-.454.597-.453.598-.453l-.004-.005a10.672 10.672 0 0 1-.421-.642 15.873 15.873 0 0 1-.984-1.922A17.534 17.534 0 0 1 7.75 11h-1.5c0 3.125.781 5.715 1.561 7.522.39.905.782 1.617 1.079 2.106a12.118 12.118 0 0 0 .499.757l.009.012a.17.17 0 0 1 .003.004v.002h.001L10 20.95ZM7.75 11c0-2.875.719-5.26 1.439-6.928.36-.833.718-1.483.984-1.922a10.672 10.672 0 0 1 .401-.615l.02-.027.004-.005L10 1.05C9.403.596 9.403.597 9.402.597L9.4.6a1.673 1.673 0 0 0-.043.057 12.11 12.11 0 0 0-.469.716c-.296.49-.687 1.201-1.078 2.106A19.034 19.034 0 0 0 6.25 11h1.5Zm-6.12 4.25H11v-1.5H1.63v1.5Zm0-7h18.74v-1.5H1.63v1.5Zm18.856 9.306c.006.003-.004.002-.003-.027 0-.018.008-.073.06-.137a.327.327 0 0 1 .206-.12l.17 1.491c.706-.08 1.042-.666 1.063-1.172a1.48 1.48 0 0 0-.71-1.313l-.786 1.278Zm.264-.283-2.567.29.169 1.491 2.567-.29-.17-1.491Zm-3.154.702-1.151 2.312 1.342.668 1.151-2.312-1.342-.668Zm-1.152 2.312a.328.328 0 0 1 .183-.153.244.244 0 0 1 .15-.01c.028.01.025.019.024.012l-1.47.302c.116.561.524.967.99 1.116.484.154 1.15.038 1.467-.6l-1.344-.667Zm.357-.15-1.255-6.117-1.47.302 1.255 6.116 1.47-.302Zm-1.255-6.117c0 .002.006.034-.013.085a.3.3 0 0 1-.11.142.3.3 0 0 1-.172.055.175.175 0 0 1-.083-.018l.787-1.277c-.43-.264-.969-.286-1.393.01-.424.297-.587.811-.486 1.306l1.47-.303Zm-.378.265 5.318 3.27.786-1.277-5.318-3.27-.786 1.277Z"/>
</svg>
