<svg width="123" height="50" viewBox="0 0 123 50" fill="none" xmlns="http://www.w3.org/2000/svg">
<path d="M21.2219 11.9565C21.0305 11.9565 20.8566 11.8886 20.7 11.7527L20.3521 11.4131C16.8383 8.15218 13.0984 5.0102 9.23673 2.089L8.55833 1.57949C8.22782 1.32474 8.17564 0.866179 8.41917 0.543488C8.68009 0.220798 9.14976 0.169847 9.48026 0.407619L10.1587 0.91713C14.0551 3.85531 17.8299 7.03126 21.3958 10.3431L21.7437 10.6828C22.0395 10.9545 22.0568 11.43 21.7611 11.7188C21.622 11.8886 21.4306 11.9565 21.2219 11.9565Z" fill="#1C3361"/>
<path d="M25.9185 10.7167H21.4306C20.4565 10.7167 19.6563 11.464 19.6042 12.4151L19.4998 14.6399H29.6759L28.9627 12.7887C28.5104 11.5489 27.2927 10.7167 25.9185 10.7167Z" fill="white"/>
<path d="M29.6932 15.3872H19.5172C19.3084 15.3872 19.1171 15.3023 18.9779 15.1664C18.8388 15.0136 18.7692 14.8268 18.7692 14.6229L18.8736 12.3981C18.9431 11.0564 20.0738 10.0034 21.448 10.0034H25.9185C27.5885 10.0034 29.0844 11.0224 29.6759 12.5509L30.389 14.4022C30.476 14.6229 30.4412 14.8777 30.3021 15.0815C30.1629 15.2683 29.9368 15.3872 29.6932 15.3872ZM20.3 13.9266H28.6148L28.2843 13.0605C27.919 12.1094 26.9796 11.464 25.9359 11.464H21.448C20.874 11.464 20.4043 11.9056 20.3695 12.466L20.3 13.9266Z" fill="#1C3361"/>
<path d="M15.1163 5.82541C13.9682 6.86141 13.4811 7.30299 11.759 7.30299C10.524 7.30299 8.71489 5.67256 7.42767 5.67256C6.14044 5.67256 5.30548 6.58968 5.30548 6.58968L0.747986 2.27582C0.747986 2.27582 1.79169 0.747284 2.74841 0.747284C4.55749 0.747284 5.2359 1.78329 6.78405 1.78329C8.3322 1.78329 9.01061 1.00204 9.01061 1.00204L15.1163 5.82541Z" fill="white"/>
<path d="M11.759 8.03329C10.9588 8.03329 10.1065 7.57473 9.27153 7.15014C8.61052 6.81046 7.87993 6.41984 7.41027 6.41984C6.48833 6.41984 5.84472 7.0822 5.84472 7.0822C5.70556 7.23505 5.51421 7.31997 5.32287 7.33696C5.11413 7.35394 4.92278 7.26902 4.76623 7.11617L0.226136 2.80231C-0.0347888 2.54755 -0.0695788 2.15693 0.121766 1.86821C0.330506 1.54552 1.46118 0 2.74841 0C3.8443 0 4.59228 0.32269 5.23589 0.611413C5.77514 0.849185 6.21001 1.03601 6.78405 1.03601C7.93212 1.03601 8.43657 0.526495 8.43657 0.526495C8.6975 0.220788 9.16716 0.186821 9.48027 0.424592L15.6033 5.26495C15.7773 5.40082 15.8816 5.60462 15.8816 5.80842C15.8816 6.02921 15.7947 6.23302 15.6381 6.36889C14.4378 7.43886 13.7942 8.03329 11.759 8.03329ZM7.42766 4.94226C8.26262 4.94226 9.14977 5.40082 10.0021 5.85937C10.6283 6.19905 11.3415 6.57269 11.759 6.57269C12.8723 6.57269 13.3072 6.40285 13.9682 5.85937L9.01061 1.93614C8.55834 2.20788 7.82775 2.51359 6.78405 2.51359C5.87951 2.51359 5.2011 2.22486 4.60967 1.95312C4.01824 1.69837 3.51379 1.4606 2.74841 1.4606C2.52228 1.4606 2.1048 1.80027 1.7569 2.1909L5.34026 5.60462C5.80993 5.28193 6.52312 4.94226 7.42766 4.94226Z" fill="#1C3361"/>
<path d="M69.406 26.5115C69.406 26.5115 11.5677 28.7704 11.3415 28.7704C11.1154 28.7704 10.7327 25.8152 10.7327 25.8152L11.011 25.4925C13.0636 23.1488 15.2728 20.9579 17.6037 18.9028L17.9516 18.5971C18.4735 18.1386 18.543 17.3743 18.0908 16.8308C17.7429 16.4232 17.3776 16.0156 16.9949 15.642C16.6122 15.2683 16.1947 14.9287 15.7598 14.589L14.5248 13.6549H29.067C35.2596 13.6549 41.4349 14.4361 47.4361 15.9986C47.871 16.1175 48.3233 16.2364 48.7582 16.3553C49.2104 16.4742 49.6627 16.61 50.0976 16.7459C54.5681 18.1216 58.8646 19.9728 62.9177 22.2826C63.4743 22.6053 64.031 22.928 64.5876 23.2676C64.8485 23.4375 65.1094 23.5903 65.3704 23.7602C66.1705 24.2697 66.9707 24.7962 67.7535 25.3397L69.406 26.5115Z" fill="white"/>
<path d="M11.3415 29.5007C10.6805 29.5007 10.5066 28.8383 10.4196 28.4816C10.35 28.2269 10.2804 27.8702 10.2109 27.4117C10.0891 26.6644 9.98473 25.9341 9.98473 25.9171C9.94994 25.7133 10.0195 25.5095 10.1587 25.3397L10.437 25.017C12.507 22.6562 14.751 20.4144 17.0993 18.3594L17.4472 18.0537C17.6733 17.8498 17.6907 17.5272 17.5168 17.2894C17.1863 16.8988 16.8384 16.5251 16.4731 16.1685C16.1078 15.8118 15.7077 15.4891 15.3076 15.1834L14.0726 14.2493C13.8116 14.0625 13.7246 13.7228 13.829 13.4341C13.9334 13.1454 14.2117 12.9416 14.5422 12.9416H29.0844C35.3466 12.9416 41.574 13.7398 47.6275 15.3023H47.6449C48.0972 15.4212 48.5494 15.5401 48.9843 15.659C49.4192 15.7778 49.8715 15.9137 50.3411 16.0666C54.8638 17.4422 59.23 19.3274 63.3178 21.6712C63.8744 21.9939 64.4485 22.3166 65.0051 22.6732C65.2834 22.8431 65.5443 23.0129 65.8053 23.1657C66.6054 23.6753 67.423 24.2187 68.2232 24.7792L69.8583 25.9171C70.1192 26.1039 70.2236 26.4266 70.1366 26.7153C70.0496 27.021 69.7713 27.2249 69.4408 27.2418C59.7692 27.6325 11.5677 29.5007 11.3415 29.5007ZM11.5329 26.053C11.6373 26.7833 11.759 27.5645 11.8634 28.0231C16.9775 27.8363 57.2991 26.2568 67.1969 25.8831C66.4663 25.3736 65.7183 24.8811 64.9877 24.4056C64.7268 24.2527 64.4832 24.0829 64.2049 23.913C63.6483 23.5734 63.109 23.2507 62.5524 22.945C58.5516 20.6691 54.2898 18.8179 49.8888 17.4762C49.4366 17.3403 48.9843 17.2045 48.5668 17.0856C48.1493 16.9667 47.7145 16.8478 47.2796 16.7289H47.2622C41.3305 15.1834 35.2249 14.4191 29.0844 14.4191H16.7166C16.9949 14.6569 17.2732 14.8947 17.5342 15.1494C17.9516 15.5401 18.3343 15.9647 18.6996 16.3893C19.3954 17.2215 19.291 18.4443 18.4735 19.1576L18.1256 19.4633C15.812 21.4844 13.6203 23.6922 11.6025 25.985L11.5329 26.053Z" fill="#1C3361"/>
<path d="M18.8562 21.2296L20.6826 19.786C21.8307 18.8689 23.1006 18.1216 24.4574 17.5441C25.9881 16.8988 27.6233 16.5081 29.2932 16.3553C31.8328 16.1345 34.3725 16.2024 36.8948 16.5251L38.0255 16.678C39.7476 16.8988 41.4349 17.3913 43.0004 18.1216C44.2007 18.682 45.3314 19.3784 46.3577 20.2106L47.5927 21.2126L45.975 21.0767C41.8176 20.7371 37.6254 20.5842 33.4506 20.5842C29.7107 20.5842 25.9533 20.7201 22.2308 20.9918L18.8562 21.2296Z" fill="white"/>
<path d="M18.8562 21.9599C18.5431 21.9599 18.2821 21.7731 18.1604 21.5013C18.0386 21.2126 18.1256 20.8729 18.3865 20.6691L20.213 19.2255C21.4132 18.2744 22.7526 17.4762 24.1616 16.8818C25.7794 16.2024 27.4841 15.7948 29.2236 15.642C31.8154 15.4212 34.4247 15.4721 36.9818 15.8118L38.1124 15.9647C39.9215 16.2024 41.661 16.7119 43.3135 17.4762C44.5834 18.0537 45.7662 18.8009 46.8273 19.6671L48.0624 20.6691C48.3059 20.8729 48.3929 21.2126 48.2711 21.5013C48.1493 21.7901 47.8362 21.9769 47.5231 21.9599L45.9054 21.824C41.7828 21.5013 37.5906 21.3315 33.4506 21.3315C29.7454 21.3315 25.9881 21.4674 22.283 21.7391L18.9084 21.9769C18.891 21.9599 18.8736 21.9599 18.8562 21.9599ZM32.2851 16.9497C31.311 16.9497 30.3195 16.9837 29.3453 17.0686C27.7624 17.2045 26.2143 17.5781 24.7357 18.2065C23.4484 18.75 22.2482 19.4633 21.1523 20.3295L22.1438 20.2615C25.8837 19.9898 29.6759 19.8539 33.4332 19.8539C37.347 19.8539 41.3131 20.0068 45.227 20.2955C44.4268 19.7011 43.5571 19.2085 42.6525 18.784C41.1392 18.0876 39.5388 17.6291 37.9037 17.4083L36.773 17.2554C35.2944 17.0516 33.7985 16.9497 32.2851 16.9497Z" fill="#1C3361"/>
<path d="M64.5876 23.3016L63.6657 23.1318C60.6911 22.5543 57.6992 22.0618 54.6899 21.6372C54.5507 21.6202 54.4115 21.5863 54.2724 21.5183C54.1332 21.4674 54.0115 21.3825 53.9071 21.2976C52.8112 20.4484 51.6457 19.6501 50.4629 18.9198C49.28 18.1895 48.045 17.5102 46.7751 16.9158L50.0976 16.7969C54.5681 18.1726 58.8647 20.0238 62.9177 22.3336C63.4917 22.6223 64.0484 22.962 64.5876 23.3016Z" fill="white"/>
<path d="M64.5876 24.0319C64.5354 24.0319 64.4832 24.0319 64.4485 24.0149L63.5265 23.8451C60.5694 23.2677 57.56 22.7751 54.5855 22.3675C54.3767 22.3336 54.168 22.2826 53.9767 22.1977C53.7853 22.1128 53.6114 22.0109 53.4374 21.875C52.3589 21.0428 51.2283 20.2615 50.0628 19.5312C48.8973 18.8179 47.6797 18.1556 46.4446 17.5611C46.1315 17.4083 45.975 17.0856 46.0445 16.7459C46.1141 16.4232 46.4098 16.1855 46.7577 16.1685L50.0802 16.0496C50.1672 16.0496 50.2541 16.0496 50.3411 16.0836C54.8638 17.4592 59.23 19.3444 63.3178 21.6882C63.8744 22.0109 64.4485 22.3336 65.0051 22.6902C65.3182 22.877 65.44 23.2507 65.3008 23.5734C65.179 23.8451 64.9007 24.0319 64.5876 24.0319ZM49.5757 17.5272C50.0106 17.7819 50.4455 18.0367 50.863 18.2914C52.0806 19.0387 53.2635 19.8539 54.3768 20.7201C54.4463 20.7711 54.4985 20.805 54.5855 20.839C54.6551 20.873 54.7247 20.8899 54.8116 20.9069C56.6729 21.1617 58.5515 21.4674 60.4128 21.7901C57.0904 20.0577 53.594 18.6311 50.0106 17.5272H49.5757Z" fill="#1C3361"/>
<path d="M4.22696 31.7765L5.87948 29.3988C6.74923 28.159 7.84512 27.106 9.14974 26.2907L9.46285 26.1039C10.7849 25.2717 12.2808 24.7113 13.829 24.4735C17.0471 23.964 20.2999 23.6922 23.5528 23.6583L43.8876 23.5054C47.2622 23.4715 50.6368 23.7772 53.9419 24.3716C56.0467 24.7452 58.1167 25.2547 60.1693 25.8831L61.8218 26.3926L35.8337 38.7568L6.5057 34.7316L4.22696 31.7765Z" fill="white"/>
<path d="M35.8337 39.4871C35.7989 39.4871 35.7641 39.4871 35.7293 39.4871L6.40134 35.4619C6.20999 35.428 6.01865 35.3261 5.91428 35.1732L3.63553 32.2011C3.44419 31.9463 3.42679 31.6066 3.61814 31.3519L5.27066 28.9742C6.1926 27.6494 7.35806 26.5285 8.74966 25.6623L9.04538 25.4755C10.4718 24.5754 12.0373 23.9979 13.6898 23.7262C16.9253 23.2167 20.2478 22.928 23.518 22.911L43.8528 22.7581C47.2622 22.7242 50.7064 23.0299 54.0636 23.6413C56.1858 24.0319 58.308 24.5414 60.378 25.1868L62.0305 25.6963C62.3262 25.7812 62.535 26.036 62.5524 26.3417C62.5698 26.6474 62.4132 26.9191 62.1349 27.055L36.1468 39.4191C36.0598 39.4531 35.9554 39.4871 35.8337 39.4871ZM6.90579 34.0523L35.7119 37.9925L59.7866 26.5285C57.8209 25.9341 55.8031 25.4416 53.7853 25.0679C50.515 24.4735 47.1926 24.1848 43.8702 24.2187L23.5354 24.3716C20.3347 24.4056 17.0993 24.6773 13.9334 25.1698C12.4722 25.4076 11.098 25.9171 9.84555 26.6984L9.53244 26.8852C8.31479 27.6494 7.28848 28.6175 6.48831 29.7894L5.1315 31.7255L6.90579 34.0523Z" fill="#1C3361"/>
<path d="M119.504 25.8492H86.2096C74.0331 25.8492 61.8392 26.2398 49.6975 27.021C34.9465 27.9721 20.2304 29.4837 5.58377 31.5727L4.22696 31.7595L2.08738 35.377C1.26981 36.7527 0.956701 38.3661 1.18284 39.9456L1.33939 41.0326C1.72208 43.5462 3.44419 45.6691 5.86209 46.5862L6.8536 46.9599C8.12344 47.4354 9.46285 47.7411 10.8197 47.8261C29.6758 49.0828 48.5668 49.5244 67.4578 49.1168L69.8061 49.0659C73.6156 48.9809 77.4077 48.7432 81.1998 48.3356C84.4527 47.9959 87.6359 47.2656 90.7149 46.1956C94.0025 45.0407 97.1336 43.4782 100.021 41.5421C105.657 37.7887 110.98 33.6107 115.972 29.0591L119.504 25.8492Z" fill="white"/>
<path d="M53.7853 50C39.4344 50 25.014 49.5244 10.7675 48.5564C9.3411 48.4545 7.9321 48.1488 6.59269 47.6392L5.60117 47.2656C2.93974 46.2466 1.00889 43.9028 0.60881 41.1345L0.452255 40.0475C0.173935 38.3152 0.521835 36.5319 1.42637 35.0204L3.56596 31.4028C3.68772 31.216 3.87907 31.0801 4.1052 31.0462L5.46201 30.8594C20.0564 28.7704 34.9117 27.2418 49.6279 26.2907C61.7522 25.5095 74.0505 25.1189 86.1922 25.1189H119.504C119.817 25.1189 120.095 25.3057 120.199 25.5774C120.304 25.8492 120.234 26.1719 120.008 26.3757L116.477 29.6026C111.484 34.1542 106.075 38.3831 100.439 42.1535C97.4989 44.1066 94.3156 45.7031 90.9584 46.875C87.8273 47.9789 84.5744 48.7092 81.2694 49.0489C77.4773 49.4565 73.633 49.6943 69.8235 49.7792L67.4752 49.8301C62.9177 49.949 58.3602 50 53.7853 50ZM4.67924 32.4388L2.7136 35.7507C1.98301 36.9735 1.6873 38.4341 1.91343 39.8437L2.06999 40.9307C2.40049 43.1725 3.96604 45.0747 6.12302 45.9069L7.11454 46.2806C8.31479 46.7391 9.56723 47.0109 10.8545 47.0958C29.6063 48.3526 48.6364 48.7941 67.423 48.3865L69.7713 48.3356C73.546 48.2507 77.3381 48.0129 81.0955 47.6223C84.2787 47.2826 87.4272 46.5693 90.4366 45.5163C93.672 44.3784 96.7336 42.8498 99.5689 40.9647C105.153 37.2452 110.493 33.0672 115.433 28.5496L117.59 26.5964H86.2096C74.1027 26.5964 61.8218 26.9871 49.7323 27.7683C35.0509 28.7024 20.2304 30.2479 5.68815 32.32L4.67924 32.4388Z" fill="#1C3361"/>
<path d="M98.7166 43.1046C98.6818 43.1046 98.6296 43.1046 98.5948 43.0876C91.4629 41.9327 84.1918 41.1685 76.9902 40.7948C70.7628 40.4721 64.431 40.3872 58.1689 40.5061C47.4535 40.7269 30.1107 41.2364 8.3322 42.3404C7.91472 42.3573 7.56682 42.0516 7.54943 41.644C7.53203 41.2364 7.84514 40.8967 8.26262 40.8798C30.0759 39.7758 47.4361 39.2663 58.1515 39.0455C64.4484 38.9096 70.815 39.0115 77.0772 39.3342C84.3483 39.7079 91.6716 40.4891 98.8557 41.644C99.2732 41.712 99.5341 42.0856 99.482 42.4932C99.395 42.8499 99.0819 43.1046 98.7166 43.1046Z" fill="#1C3361"/>
<path d="M71.476 26.7663C71.0759 26.7663 70.7454 26.4436 70.728 26.053C70.728 25.9171 70.7628 25.7812 70.815 25.6793C70.9194 25.4925 71.7369 23.8451 72.2588 22.7581C72.3632 22.5374 72.5893 22.3845 72.8328 22.3505L73.4416 22.2656C80.4692 21.2806 87.6186 20.5842 94.7157 20.2106C100.839 19.8879 107.031 19.769 113.154 19.8879L122.252 20.0577C122.548 20.0577 122.791 20.2276 122.913 20.4823C123.035 20.7371 123 21.0428 122.809 21.2466L118.529 26.2908C118.269 26.5965 117.799 26.6474 117.468 26.3927C117.155 26.1379 117.103 25.6793 117.364 25.3567L120.652 21.4844L113.102 21.3485C107.014 21.2296 100.856 21.3315 94.7679 21.6712C87.7229 22.0448 80.6084 22.7412 73.633 23.7092L73.4243 23.7432C73.2851 24.0319 73.0763 24.4565 72.8676 24.8641C72.6763 25.2378 72.5023 25.6114 72.3632 25.8831C72.2936 26.019 72.2414 26.1379 72.1892 26.2228C72.1022 26.4096 71.9283 26.7493 71.476 26.7663C71.4934 26.7663 71.476 26.7663 71.476 26.7663ZM70.8672 25.5944C70.8498 25.6114 70.8324 25.6284 70.8324 25.6624C70.8498 25.6454 70.8498 25.6114 70.8672 25.5944ZM71.4412 25.3057C71.3542 25.3057 71.2673 25.3227 71.1977 25.3567C71.2673 25.3227 71.3542 25.3057 71.4412 25.3057Z" fill="#1C3361"/>
<path d="M108.284 26.5795C108.145 26.5795 107.988 26.5455 107.866 26.4436C107.518 26.2228 107.431 25.7643 107.675 25.4246L111.345 20.1766C111.571 19.837 112.041 19.752 112.389 19.9898C112.737 20.2106 112.824 20.6692 112.58 21.0088L108.91 26.2568C108.753 26.4606 108.527 26.5795 108.284 26.5795Z" fill="#1C3361"/>
<path d="M95.0984 26.5795C94.9592 26.5795 94.8201 26.5455 94.6983 26.4606C94.3504 26.2398 94.246 25.7982 94.4548 25.4586L97.6903 20.3974C97.9164 20.0578 98.3687 19.9558 98.7166 20.1597C99.0645 20.3804 99.1689 20.822 98.9601 21.1617L95.7246 26.2228C95.5855 26.4606 95.3419 26.5795 95.0984 26.5795Z" fill="#1C3361"/>
<path d="M83.4612 26.5795C83.322 26.5795 83.2002 26.5455 83.0785 26.4776C82.7306 26.2738 82.6088 25.8152 82.8176 25.4755L85.4616 21.1957C85.6703 20.856 86.14 20.7371 86.4879 20.9409C86.8358 21.1447 86.9576 21.6033 86.7488 21.9429L84.1048 26.2228C83.9656 26.4606 83.7221 26.5795 83.4612 26.5795Z" fill="#1C3361"/>
<path d="M89.5494 34.1712C89.3581 34.1712 89.1841 34.0863 89.045 33.9504C88.8884 33.7806 88.8536 33.5428 88.958 33.339L89.4972 32.2351C89.6538 31.9124 89.9147 31.6576 90.2452 31.5048L90.454 31.4029C90.6801 31.301 90.941 31.233 91.2019 31.233L96.7857 31.1651C97.0292 31.1651 97.2728 31.25 97.4641 31.4199C97.7076 31.6237 97.7772 31.9633 97.6207 32.2351L97.1684 33.0673C97.0118 33.339 96.8031 33.5768 96.5248 33.7296L96.4204 33.7976C96.0725 34.0014 95.6724 34.1033 95.2724 34.1033L89.5494 34.1712Z" fill="white"/>
<path d="M89.5494 34.9015C89.1493 34.9015 88.7666 34.7317 88.4883 34.4429C88.123 34.0523 88.0534 33.5088 88.2796 33.0333L88.8188 31.9294C89.0449 31.4538 89.4276 31.0802 89.9147 30.8594L90.1234 30.7575C90.4539 30.6046 90.8192 30.5197 91.2019 30.5197L96.8031 30.4518C97.238 30.4518 97.6555 30.6046 97.9686 30.8764C98.473 31.301 98.6122 32.0143 98.2991 32.5917L97.8468 33.4239C97.6381 33.8145 97.3076 34.1542 96.9249 34.375L96.8205 34.4429C96.3682 34.7147 95.829 34.8505 95.3071 34.8505L89.5494 34.9015ZM96.7857 31.9124L91.2019 31.9803C91.0454 31.9803 90.9062 32.0143 90.767 32.0822L90.5583 32.1841C90.3844 32.269 90.2452 32.4049 90.1756 32.5578L89.7581 33.4239L95.2724 33.373C95.5507 33.373 95.8116 33.305 96.0551 33.1692L96.1595 33.1012C96.316 33.0163 96.4378 32.8804 96.5248 32.7276L96.9423 31.9463C96.8901 31.9294 96.8379 31.9124 96.7857 31.9124Z" fill="#1C3361"/>
<path d="M69.3539 33.8655C69.1625 33.8655 68.9886 33.7806 68.8494 33.6447C68.6928 33.4749 68.658 33.2371 68.7624 33.0333L69.3017 31.9293C69.4582 31.6067 69.7191 31.3519 70.0497 31.199L70.2584 31.0971C70.4845 30.9952 70.7454 30.9273 71.0064 30.9273L76.5902 30.8594C76.8337 30.8594 77.0772 30.9443 77.2686 31.1141C77.5121 31.3179 77.5817 31.6576 77.4251 31.9293L76.9728 32.7615C76.8163 33.0333 76.6076 33.2711 76.3292 33.4239L76.2249 33.4918C75.877 33.6956 75.4769 33.7976 75.0768 33.7976L69.3539 33.8655Z" fill="white"/>
<path d="M69.3712 34.5958C68.9711 34.5958 68.5884 34.4259 68.3101 34.1372C67.9448 33.7466 67.8752 33.2031 68.1014 32.7276L68.6406 31.6236C68.8668 31.1481 69.2494 30.7745 69.7365 30.5537L69.9452 30.4518C70.2757 30.2989 70.641 30.214 71.0237 30.214L76.6249 30.1461C77.0598 30.1461 77.4773 30.2989 77.7904 30.5706C78.2948 30.9952 78.434 31.7086 78.1209 32.286L77.6686 33.1182C77.4599 33.5088 77.1294 33.8485 76.7467 34.0693L76.6423 34.1372C76.19 34.409 75.6508 34.5448 75.1289 34.5448L69.3712 34.5958ZM76.6075 31.6067L71.0237 31.6746C70.8672 31.6746 70.728 31.7086 70.5889 31.7765L70.3801 31.8784C70.2062 31.9633 70.067 32.0992 69.9974 32.252L69.5799 33.1182L75.0942 33.0673C75.3725 33.0673 75.6334 32.9993 75.8769 32.8634L75.9813 32.7955C76.1379 32.7106 76.2596 32.5747 76.3466 32.4219L76.7641 31.6406C76.7119 31.6236 76.6597 31.6067 76.6075 31.6067Z" fill="#1C3361"/>
<path d="M49.2278 34.5448C49.0365 34.5448 48.8625 34.4769 48.7234 34.341C48.5668 34.1882 48.5146 33.9504 48.6016 33.7466L49.0887 32.6257C49.2278 32.303 49.4887 32.0312 49.8018 31.8784L50.0106 31.7765C50.2367 31.6576 50.4976 31.5897 50.7586 31.5727L56.3424 31.3179C56.5859 31.3179 56.8468 31.3859 57.0382 31.5387C57.2817 31.7255 57.3687 32.0652 57.2295 32.3539L56.812 33.2031C56.6729 33.4749 56.4641 33.7126 56.1858 33.8825L56.0814 33.9504C55.7335 34.1542 55.3509 34.2901 54.9508 34.3071L49.2278 34.5448Z" fill="white"/>
<path d="M49.2104 35.2751C48.8277 35.2751 48.4624 35.1223 48.1841 34.8505C47.8188 34.4769 47.7145 33.9334 47.9232 33.4409L48.4102 32.32C48.619 31.8444 49.0017 31.4538 49.4713 31.216L49.6801 31.1141C50.0106 30.9443 50.3759 30.8424 50.7412 30.8254L56.325 30.5707C56.7598 30.5537 57.1773 30.6895 57.5078 30.9613C58.0297 31.3689 58.2036 32.0652 57.9079 32.6597L57.4904 33.5088C57.2991 33.9164 56.986 34.2561 56.6033 34.4939L56.4989 34.5618C56.0466 34.8336 55.5248 35.0034 54.9856 35.0204L49.2452 35.2751C49.2452 35.2751 49.2278 35.2751 49.2104 35.2751ZM56.3772 32.0482L50.7934 32.303C50.6368 32.303 50.4976 32.3539 50.3585 32.4219L50.1497 32.5238C49.9758 32.6087 49.854 32.7446 49.7671 32.9144L49.4018 33.7976L54.916 33.5598C55.1943 33.5428 55.4552 33.4579 55.6814 33.322L55.7857 33.2541C55.9423 33.1522 56.064 33.0333 56.1336 32.8635L56.5337 32.0652C56.4815 32.0652 56.4293 32.0482 56.3772 32.0482Z" fill="#1C3361"/>
</svg>
