<svg width="135" height="50" viewBox="0 0 135 50" fill="none" xmlns="http://www.w3.org/2000/svg">
<path d="M66.5942 10.8695H85.5073C85.0181 9.25258 83.7138 7.99494 82.0652 7.56375L81.7391 7.47392C81.3225 7.36612 80.8877 7.31223 80.4529 7.31223H69.1304C68.6232 7.31223 68.1159 7.45595 67.6993 7.74341C66.9927 8.21054 66.558 9.00105 66.558 9.84546V10.8695H66.5942Z" fill="white"/>
<path d="M85.5072 11.6421H66.5942C66.1594 11.6421 65.8152 11.3007 65.8152 10.8695V9.84546C65.8152 8.73155 66.3587 7.70748 67.3007 7.09663C67.8623 6.71933 68.4963 6.53967 69.1666 6.53967H80.4891C80.9963 6.53967 81.4855 6.61154 81.9746 6.7373L82.3007 6.82713C84.221 7.34815 85.7065 8.76748 86.2862 10.6539C86.3586 10.8875 86.3043 11.139 86.1594 11.3367C85.9963 11.5343 85.7608 11.6421 85.5072 11.6421ZM67.3732 10.097H84.3115C83.7681 9.23461 82.8985 8.58782 81.884 8.31833L81.5579 8.2285C81.2137 8.13867 80.8514 8.08477 80.4891 8.08477H69.1666C68.8043 8.08477 68.4601 8.19257 68.1703 8.39019C67.6811 8.71359 67.3913 9.27054 67.3913 9.86342V10.097H67.3732Z" fill="#338BC8"/>
<path d="M23.5869 13.7082L27.3731 4.79697H33.7318C34.6014 4.79697 35.4529 5.01256 36.2318 5.40782C38.2608 6.44986 40.1992 7.65359 42.0289 9.00106L49.3297 14.3909L23.5869 13.7082Z" fill="white"/>
<path d="M49.3116 15.1635H49.2935L23.5688 14.4808C23.3152 14.4808 23.0797 14.337 22.9348 14.1214C22.7898 13.9058 22.7717 13.6363 22.8623 13.4028L26.6485 4.49154C26.7754 4.20408 27.0471 4.02441 27.3732 4.02441H33.7319C34.7282 4.02441 35.7065 4.25797 36.5942 4.7251C38.6594 5.7851 40.634 7.02477 42.5 8.39021L49.8007 13.7801C50.0724 13.9777 50.1811 14.337 50.0724 14.6604C49.9456 14.9479 49.6558 15.1635 49.3116 15.1635ZM24.7645 12.9716L46.884 13.5465L41.5761 9.62987C39.7826 8.30037 37.8623 7.1146 35.8877 6.09053C35.2355 5.74917 34.4927 5.56951 33.75 5.56951H27.8985L24.7645 12.9716Z" fill="#338BC8"/>
<path d="M116.214 26.3924L114.33 24.7575C109.964 20.9486 105.326 17.4811 100.435 14.373C98.2971 13.0076 95.9782 11.9655 93.5326 11.2648C91.1413 10.6001 88.6775 10.2408 86.2138 10.2408H68.4782C67.3913 10.2408 66.3224 10.4204 65.308 10.7797C64.0761 11.2109 62.971 11.8936 62.0109 12.774L61.413 13.3309H27.1739C25.0725 13.3309 22.971 13.5645 20.9239 14.0496C16.5217 15.0737 12.4638 17.1757 9.09419 20.1581L8.71376 20.4995C6.61231 22.35 4.80071 24.5239 3.36956 26.9314L1.81158 29.5544L20.0906 36.9565H96.6666L116.214 26.3924Z" fill="white"/>
<path d="M96.6848 37.747H20.0906C19.9819 37.747 19.8913 37.7291 19.8007 37.6931L1.52171 30.291C1.30432 30.2012 1.14128 30.0395 1.06881 29.8239C0.996348 29.6083 1.01446 29.3748 1.14128 29.1771L2.69925 26.5541C4.16664 24.0747 6.01447 21.8469 8.18838 19.9245L8.56881 19.5832C12.029 16.5289 16.2319 14.355 20.7427 13.295C22.8442 12.8099 25 12.5584 27.1739 12.5584H61.1051L61.4855 12.1991C62.5181 11.2468 63.7138 10.5102 65.0543 10.0431C66.1594 9.64785 67.3188 9.45023 68.4783 9.45023H86.1956C88.75 9.45023 91.2862 9.80955 93.7319 10.5102C96.25 11.2289 98.6413 12.3069 100.833 13.7082C105.743 16.8343 110.453 20.3378 114.837 24.1466L116.721 25.7815C116.92 25.9432 117.011 26.1947 116.975 26.4463C116.938 26.6978 116.793 26.9134 116.576 27.0392L97.0471 37.6213C96.9384 37.7111 96.8116 37.747 96.6848 37.747ZM20.2536 36.184H96.4855L114.855 26.2307L113.822 25.3324C109.493 21.5774 104.855 18.1099 100.018 15.0198C97.9348 13.7082 95.6884 12.6841 93.3152 12.0014C91.0145 11.3367 88.6232 10.9953 86.2138 10.9953H68.4783C67.4819 10.9953 66.5036 11.157 65.5797 11.4984C64.4565 11.8936 63.442 12.5045 62.5543 13.3309L61.9565 13.8879C61.8116 14.0316 61.6123 14.1035 61.413 14.1035H27.1739C25.1268 14.1035 23.0978 14.337 21.105 14.8042C16.8478 15.7923 12.8804 17.8584 9.61954 20.733L9.2391 21.0744C7.192 22.889 5.45287 24.991 4.05794 27.3266L2.95287 29.1771L20.2536 36.184Z" fill="#338BC8"/>
<path d="M83.0435 49.2275H36.4855C30.1449 49.2275 23.8225 48.94 17.5181 48.3651C13.2247 47.9698 9.25726 45.9576 6.44929 42.7237C4.76451 40.7833 3.46016 38.5376 2.62683 36.1301L0.833347 30.9378C0.59784 30.2731 1.10509 29.5724 1.81161 29.5724H68.7681C72.5 29.5724 76.2138 29.3029 79.9094 28.746L90.2536 27.2009C93.9312 26.6439 97.6631 26.3744 101.395 26.3744H134.221L122.844 35.8786C119.094 39.0047 115.091 41.8433 110.888 44.3406C106.504 46.9457 101.558 48.4549 96.4674 48.7963C92.0109 49.0837 87.5362 49.2275 83.0435 49.2275Z" fill="white"/>
<path d="M83.0435 50H36.4855C30.1449 50 23.75 49.7125 17.4456 49.1376C12.9348 48.7244 8.82245 46.6223 5.85144 43.2267C4.09419 41.2145 2.75361 38.8969 1.88404 36.3636L0.0905647 31.1714C-0.0905948 30.6144 -1.50632e-05 30.0036 0.326072 29.5365C0.670275 29.0693 1.21375 28.7819 1.81158 28.7819H68.7681C72.4457 28.7819 76.1594 28.5124 79.7826 27.9734L90.1268 26.4283C93.8406 25.8714 97.6268 25.6019 101.377 25.6019H134.203C134.529 25.6019 134.819 25.7995 134.946 26.1049C135.054 26.4103 134.964 26.7517 134.71 26.9673L123.333 36.4714C119.565 39.6155 115.507 42.4901 111.268 45.0054C106.793 47.6464 101.703 49.2274 96.5036 49.5688C92.0652 49.8563 87.5181 50 83.0435 50ZM1.8297 30.3449C1.721 30.3449 1.64854 30.4168 1.6123 30.4527C1.57607 30.4887 1.53984 30.5785 1.57607 30.6863L3.36955 35.8785C4.16665 38.2142 5.41665 40.3521 7.04709 42.2206C9.74636 45.3108 13.4964 47.2152 17.5906 47.5925C23.8406 48.1674 30.2174 48.4549 36.4855 48.4549H83.0435C87.4819 48.4549 91.9928 48.3112 96.4312 48.0237C101.377 47.7003 106.232 46.2091 110.489 43.6759C114.656 41.2145 118.641 38.3938 122.337 35.2857L132.065 27.147H101.395C97.7174 27.147 94.0036 27.4165 90.3804 27.9554L80.0362 29.5005C76.3225 30.0575 72.5362 30.327 68.7862 30.327H1.8297V30.3449Z" fill="#338BC8"/>
<path d="M126.268 33.7945H1.55798C1.12319 33.7945 0.778992 33.4531 0.778992 33.0219C0.778992 32.5907 1.12319 32.2494 1.55798 32.2494H126.268C126.703 32.2494 127.047 32.5907 127.047 33.0219C127.047 33.4531 126.703 33.7945 126.268 33.7945Z" fill="#338BC8"/>
<path d="M116.214 27.1649C116.033 27.1649 115.851 27.0931 115.706 26.9673L113.822 25.3324C109.493 21.5774 104.855 18.1099 100.018 15.0198C97.9347 13.7082 95.6884 12.6841 93.3152 12.0014C91.0145 11.3367 88.6232 10.9953 86.2137 10.9953H68.4783C67.4819 10.9953 66.5036 11.157 65.5797 11.4984C64.4565 11.8936 63.442 12.5045 62.5543 13.3309L60.7971 14.9659C60.4891 15.2533 59.9819 15.2353 59.692 14.9299C59.4022 14.6245 59.4203 14.1214 59.7283 13.834L61.4855 12.1991C62.5181 11.2468 63.7138 10.5102 65.0544 10.0431C66.1594 9.64785 67.3188 9.45023 68.4783 9.45023H86.1956C88.75 9.45023 91.2862 9.80955 93.7319 10.5102C96.25 11.2289 98.6413 12.3069 100.833 13.7082C105.743 16.8343 110.453 20.3378 114.837 24.1466L116.721 25.7815C117.047 26.069 117.083 26.5541 116.793 26.8775C116.649 27.0751 116.431 27.1649 116.214 27.1649Z" fill="#338BC8"/>
<path d="M11.6123 26.6259H4.07604C3.64126 26.6259 3.29706 26.2846 3.29706 25.8534C3.29706 25.4222 3.64126 25.0808 4.07604 25.0808H11.6304C12.0652 25.0808 12.4094 25.4222 12.4094 25.8534C12.4094 26.2846 12.0471 26.6259 11.6123 26.6259Z" fill="#338BC8"/>
<path d="M23.442 26.6259H17.9166C17.4818 26.6259 17.1376 26.2846 17.1376 25.8534C17.1376 25.4222 17.4818 25.0808 17.9166 25.0808H23.4601C23.8949 25.0808 24.2391 25.4222 24.2391 25.8534C24.2391 26.2846 23.8768 26.6259 23.442 26.6259Z" fill="#338BC8"/>
<path d="M35.8152 26.6259H30.2717C29.8369 26.6259 29.4927 26.2846 29.4927 25.8534C29.4927 25.4222 29.8369 25.0808 30.2717 25.0808H35.8152C36.25 25.0808 36.5942 25.4222 36.5942 25.8534C36.5942 26.2846 36.25 26.6259 35.8152 26.6259Z" fill="#338BC8"/>
<path d="M48.1884 26.6259H42.6449C42.2101 26.6259 41.8659 26.2846 41.8659 25.8534C41.8659 25.4222 42.2101 25.0808 42.6449 25.0808H48.1884C48.6231 25.0808 48.9673 25.4222 48.9673 25.8534C48.9673 26.2846 48.6231 26.6259 48.1884 26.6259Z" fill="#338BC8"/>
<path d="M60.5616 26.6259H55.0181C54.5833 26.6259 54.2391 26.2846 54.2391 25.8534C54.2391 25.4222 54.5833 25.0808 55.0181 25.0808H60.5616C60.9964 25.0808 61.3406 25.4222 61.3406 25.8534C61.3406 26.2846 60.9964 26.6259 60.5616 26.6259Z" fill="#338BC8"/>
<path d="M72.9347 26.6259H67.3913C66.9565 26.6259 66.6123 26.2846 66.6123 25.8534C66.6123 25.4222 66.9565 25.0808 67.3913 25.0808H72.9347C73.3695 25.0808 73.7137 25.4222 73.7137 25.8534C73.7137 26.2846 73.3695 26.6259 72.9347 26.6259Z" fill="#338BC8"/>
<path d="M12.2645 22.5656H7.37316C6.93838 22.5656 6.59418 22.2242 6.59418 21.793C6.59418 21.3618 6.93838 21.0205 7.37316 21.0205H12.2826C12.7174 21.0205 13.0616 21.3618 13.0616 21.793C13.0616 22.2242 12.6992 22.5656 12.2645 22.5656Z" fill="#338BC8"/>
<path d="M24.0942 22.5656H18.5507C18.1159 22.5656 17.7717 22.2242 17.7717 21.793C17.7717 21.3618 18.1159 21.0205 18.5507 21.0205H24.0942C24.529 21.0205 24.8732 21.3618 24.8732 21.793C24.8732 22.2242 24.529 22.5656 24.0942 22.5656Z" fill="#338BC8"/>
<path d="M36.4674 22.5656H30.9239C30.4891 22.5656 30.1449 22.2242 30.1449 21.793C30.1449 21.3618 30.4891 21.0205 30.9239 21.0205H36.4674C36.9021 21.0205 37.2463 21.3618 37.2463 21.793C37.2463 22.2242 36.9021 22.5656 36.4674 22.5656Z" fill="#338BC8"/>
<path d="M48.8405 22.5656H43.2971C42.8623 22.5656 42.5181 22.2242 42.5181 21.793C42.5181 21.3618 42.8623 21.0205 43.2971 21.0205H48.8405C49.2753 21.0205 49.6195 21.3618 49.6195 21.793C49.6195 22.2242 49.2753 22.5656 48.8405 22.5656Z" fill="#338BC8"/>
<path d="M61.2138 22.5656H55.6703C55.2355 22.5656 54.8913 22.2242 54.8913 21.793C54.8913 21.3618 55.2355 21.0205 55.6703 21.0205H61.2138C61.6485 21.0205 61.9927 21.3618 61.9927 21.793C61.9927 22.2242 61.6485 22.5656 61.2138 22.5656Z" fill="#338BC8"/>
<path d="M72.9348 22.5656H68.0435C67.6087 22.5656 67.2645 22.2242 67.2645 21.793C67.2645 21.3618 67.6087 21.0205 68.0435 21.0205H72.9348C73.3695 21.0205 73.7137 21.3618 73.7137 21.793C73.7137 22.2242 73.3695 22.5656 72.9348 22.5656Z" fill="#338BC8"/>
<path d="M12.9166 18.4872H12.3369C11.9021 18.4872 11.5579 18.1459 11.5579 17.7147C11.5579 17.2835 11.9021 16.9421 12.3369 16.9421H12.9166C13.3514 16.9421 13.6956 17.2835 13.6956 17.7147C13.6956 18.1459 13.3514 18.4872 12.9166 18.4872Z" fill="#338BC8"/>
<path d="M24.7463 18.4872H19.2029C18.7681 18.4872 18.4239 18.1459 18.4239 17.7147C18.4239 17.2835 18.7681 16.9421 19.2029 16.9421H24.7463C25.1811 16.9421 25.5253 17.2835 25.5253 17.7147C25.5253 18.1459 25.1811 18.4872 24.7463 18.4872Z" fill="#338BC8"/>
<path d="M37.1195 18.4872H31.576C31.1413 18.4872 30.7971 18.1459 30.7971 17.7147C30.7971 17.2835 31.1413 16.9421 31.576 16.9421H37.1195C37.5543 16.9421 37.8985 17.2835 37.8985 17.7147C37.8985 18.1459 37.5543 18.4872 37.1195 18.4872Z" fill="#338BC8"/>
<path d="M49.4927 18.4872H43.9492C43.5144 18.4872 43.1702 18.1459 43.1702 17.7147C43.1702 17.2835 43.5144 16.9421 43.9492 16.9421H49.4927C49.9275 16.9421 50.2717 17.2835 50.2717 17.7147C50.2717 18.1459 49.9275 18.4872 49.4927 18.4872Z" fill="#338BC8"/>
<path d="M61.8659 18.4872H56.3405C55.9057 18.4872 55.5615 18.1459 55.5615 17.7147C55.5615 17.2835 55.9057 16.9421 56.3405 16.9421H61.884C62.3188 16.9421 62.663 17.2835 62.663 17.7147C62.663 18.1459 62.3007 18.4872 61.8659 18.4872Z" fill="#338BC8"/>
<path d="M72.9347 18.4872H68.6956C68.2608 18.4872 67.9166 18.1459 67.9166 17.7147C67.9166 17.2835 68.2608 16.9421 68.6956 16.9421H72.9347C73.3695 16.9421 73.7137 17.2835 73.7137 17.7147C73.7137 18.1459 73.3695 18.4872 72.9347 18.4872Z" fill="#338BC8"/>
<path d="M72.9347 14.4269H68.6956C68.2608 14.4269 67.9166 14.0855 67.9166 13.6543C67.9166 13.2231 68.2608 12.8818 68.6956 12.8818H72.9347C73.3695 12.8818 73.7137 13.2231 73.7137 13.6543C73.7318 14.0855 73.3695 14.4269 72.9347 14.4269Z" fill="#338BC8"/>
<path d="M110.779 22.5656H94.3659C93.9311 22.5656 93.5869 22.2242 93.5869 21.793C93.5869 21.3618 93.9311 21.0205 94.3659 21.0205H110.779C111.214 21.0205 111.558 21.3618 111.558 21.793C111.558 22.2242 111.214 22.5656 110.779 22.5656Z" fill="#338BC8"/>
<path d="M87.5362 22.5656H82.5181C82.0833 22.5656 81.7391 22.2242 81.7391 21.793C81.7391 21.3618 82.0833 21.0205 82.5181 21.0205H87.5362C87.971 21.0205 88.3152 21.3618 88.3152 21.793C88.3152 22.2242 87.971 22.5656 87.5362 22.5656Z" fill="#338BC8"/>
<path d="M105.398 18.4872H93.5326C93.0978 18.4872 92.7536 18.1459 92.7536 17.7147C92.7536 17.2835 93.0978 16.9421 93.5326 16.9421H105.398C105.833 16.9421 106.177 17.2835 106.177 17.7147C106.177 18.1459 105.833 18.4872 105.398 18.4872Z" fill="#338BC8"/>
<path d="M87.1377 18.4872H82.1195C81.6847 18.4872 81.3405 18.1459 81.3405 17.7147C81.3405 17.2835 81.6847 16.9421 82.1195 16.9421H87.1377C87.5724 16.9421 87.9166 17.2835 87.9166 17.7147C87.9166 18.1459 87.5724 18.4872 87.1377 18.4872Z" fill="#338BC8"/>
<path d="M99.221 14.4269H92.6811C92.2463 14.4269 91.9021 14.0855 91.9021 13.6543C91.9021 13.2231 92.2463 12.8818 92.6811 12.8818H99.221C99.6558 12.8818 100 13.2231 100 13.6543C100 14.0855 99.6376 14.4269 99.221 14.4269Z" fill="#338BC8"/>
<path d="M86.884 14.4269H81.7391C81.3043 14.4269 80.9601 14.0855 80.9601 13.6543C80.9601 13.2231 81.3043 12.8818 81.7391 12.8818H86.884C87.3188 12.8818 87.663 13.2231 87.663 13.6543C87.663 14.0855 87.3188 14.4269 86.884 14.4269Z" fill="#338BC8"/>
<path d="M18.5688 15.5048C18.2427 15.5048 17.9348 15.2893 17.8261 14.9659C17.7898 14.8581 17.7717 14.7323 17.7898 14.6245C17.5724 13.4567 14.8551 5.74919 13.134 1.04204C12.9891 0.646778 13.2065 0.197622 13.6051 0.0538926C14.0036 -0.0898372 14.4565 0.125757 14.6014 0.521014C14.6195 0.556947 15.8514 3.95256 17.0471 7.34818C17.7536 9.34243 18.2971 10.9594 18.6775 12.1452C18.913 12.8458 19.0761 13.4208 19.1848 13.816C19.3659 14.4628 19.4203 14.7682 19.2753 15.0916C19.1848 15.2893 19.0217 15.433 18.8043 15.5048C18.7319 15.5048 18.6413 15.5048 18.5688 15.5048ZM18.3152 13.9957C18.2246 14.0316 18.1522 14.0675 18.0797 14.1214C18.1522 14.0675 18.2427 14.0316 18.3152 13.9957Z" fill="#338BC8"/>
</svg>
