<svg xmlns="http://www.w3.org/2000/svg" width="126" height="80" fill="none" viewBox="0 0 126 80">
  <path fill="#3C5CA2" d="M50.4 0h-2.8v79.2h2.8V0z"/>
  <path fill="#805B75" d="M36.8 16.6H34v46h2.8v-46z"/>
  <path fill="#9F5A5F" d="M27.2 25.5H30v28.2h-2.8V25.5z"/>
  <path fill="#C45946" d="M23.2 33.7h-2.8v11.6h2.8V33.7z"/>
  <path fill="#D05F40" d="M13.6 35.4h2.8v8.3h-2.8v-8.3z"/>
  <path fill="#888D80" d="M2.8 37H0v4.5h2.8V37z"/>
  <path fill="#B0745D" d="M9.6 37H6.8v5h2.8v-5z"/>
  <path fill="#615B89" d="M40.8 19.3h2.8v41h-2.8v-41z"/>
  <path fill="#73488F" d="M64 16.6h-2.8v46H64v-46z"/>
  <path fill="#963D81" d="M68 25.5h2.8v27.7H68V25.5z"/>
  <path fill="#BB3172" d="M77.6 31.5h-2.8v16h2.8v-16z"/>
  <path fill="#D73C67" d="M81.6 31.5h2.8v16h-2.8v-16z"/>
  <path fill="#E78B62" d="M98 33.7h-2.8v11.7H98V33.7z"/>
  <path fill="#EFB35F" d="M102 35.4h2.8v8.3H102v-8.3z"/>
  <path fill="#F9E45C" d="M111.6 37h-2.8v5.1h2.8V37z"/>
  <path fill="#B7AA43" d="M115.6 37h2.8v5.1h-2.8V37z"/>
  <path fill="#F1BD5E" d="M125.2 37h-2.8v4.6h2.8V37z"/>
  <path fill="#766D2B" d="M125.2 37h-2.8v4.6h2.8V37z"/>
  <path fill="#DF6265" d="M88.4 28.7h2.8v21.6h-2.8V28.7z"/>
  <path fill="#4C549F" d="M54.4 6.5h2.8v65.8h-2.8V6.5z"/>
</svg>
