<svg width="90" height="93" viewBox="0 0 90 93" fill="none" xmlns="http://www.w3.org/2000/svg">
<path d="M6.57993 9.89342C4.8589 10.8134 3.34034 12.2445 3.2391 14.3912C3.13786 17.049 4.75766 19.2979 7.49107 18.9912C8.09849 18.889 8.30097 17.7645 7.79478 17.4579C5.26385 15.8223 6.98488 12.0401 9.71829 12.6534C9.71829 12.7557 9.71829 12.8579 9.71829 12.9601C9.81953 14.1868 10.9331 15.1068 12.148 15.0045C12.4517 15.0045 12.7554 14.9023 13.0591 14.6979C13.5653 15.209 13.9703 15.7201 14.4764 16.3334C18.2222 21.5468 15.5901 26.1468 12.8566 31.0534C12.3505 31.9734 11.8443 32.8934 11.4393 33.9156C11.743 31.769 11.743 29.5201 10.8319 27.6801C8.60468 23.0801 1.92302 22.2623 0.201981 27.7823C-1.1141 32.1779 5.36509 36.6756 7.69354 31.9734C8.40221 30.6445 8.90839 27.9868 7.08612 27.169C5.26385 26.249 3.64405 27.2712 3.44158 29.3156C3.34034 30.2356 4.049 30.0312 4.55519 29.5201C4.75766 29.3156 5.77003 29.009 6.27622 29.6223C6.78241 30.3379 6.4787 31.769 5.26385 32.0756C5.06137 32.0756 4.8589 32.1779 4.65642 32.1779C3.94776 32.2801 3.2391 32.0756 2.53044 31.6668C0.303218 29.8268 1.01188 26.0445 3.94776 25.4312C6.88365 24.8179 9.71829 26.7601 10.2245 29.8268C10.6294 32.5868 10.3257 35.449 9.51582 38.209C9.11087 39.3334 8.70592 40.3556 8.40221 41.4801V41.5823C7.89602 42.809 7.38983 43.9334 6.78241 45.0579C6.78241 43.9334 6.57993 42.809 5.87127 42.0934C4.96014 41.0712 3.54281 40.7645 2.53044 41.6845C1.72054 42.4001 1.41683 44.1379 1.72054 45.2623C2.02425 46.489 3.13786 47.409 4.15024 46.3868C4.35271 46.1823 4.45395 44.649 4.15024 44.9556C3.84653 45.2623 3.34034 45.3645 2.93539 45.1601C2.4292 44.8534 1.72054 43.9334 2.22673 43.4223C2.63168 43.0134 3.34034 42.7068 4.049 42.9112C6.27622 43.5245 5.97251 46.8979 5.46632 49.3512C5.46632 49.3512 5.46632 49.3512 5.36509 49.3512C4.65642 49.3512 4.15024 49.9645 4.25147 50.6801C4.25147 51.089 4.55519 51.4979 4.8589 51.7023C4.8589 51.7023 4.8589 51.7023 4.8589 51.8045C4.75766 52.2134 4.65642 52.6223 4.55519 53.0312C3.84652 53.1334 3.2391 53.849 3.34034 54.5645C3.34034 55.0756 3.64405 55.4845 4.15024 55.7912C4.049 56.0979 4.049 56.609 4.049 57.1201C3.34034 57.3245 2.83415 58.0401 2.93539 58.8579C3.03663 59.5734 3.44158 60.1868 4.049 60.3912C4.049 61.0045 4.15024 61.5156 4.25147 62.129C3.64405 62.5379 3.2391 63.2534 3.2391 63.969C3.34034 64.9912 4.25147 65.809 5.26385 65.809C5.46632 66.2179 5.6688 66.6268 5.87127 67.0357C5.87127 67.1379 5.97251 67.2401 5.97251 67.3423C5.6688 67.7512 5.46632 68.2623 5.56756 68.8756C5.6688 70.1023 6.78241 71.0223 7.99726 70.9201C8.19973 70.9201 8.4022 70.8179 8.50344 70.8179C10.6294 73.169 13.4641 74.9068 16.7037 75.009C16.7037 75.009 16.7037 75.009 16.8049 75.009C16.8049 75.4179 16.8049 75.8268 16.8049 76.1334C16.9061 79.4045 18.6272 82.2668 20.9556 84.4134C20.8544 84.6179 20.8544 84.8223 20.8544 84.9245C20.7532 86.1512 21.6643 87.2756 22.8791 87.3779C23.3853 87.3779 23.9928 87.2756 24.3977 86.969C24.4989 86.969 24.6002 87.0712 24.7014 87.0712C25.1064 87.2756 25.5113 87.4801 25.9163 87.6845C25.9163 88.7068 26.7262 89.6268 27.7385 89.729C28.5484 89.8312 29.2571 89.4223 29.5608 88.7068C30.067 88.809 30.5732 88.9112 31.1806 88.9112C31.3831 89.5245 31.9905 90.0356 32.6992 90.0356C33.5091 90.1379 34.2177 89.6268 34.4202 88.9112C34.9264 88.9112 35.4326 88.809 35.8375 88.809C36.04 89.2179 36.445 89.5245 37.0524 89.6268C37.761 89.729 38.4697 89.1156 38.5709 88.4001C38.9759 88.2979 39.3808 88.1956 39.7858 88.0934C39.7858 88.0934 39.7858 88.0934 39.887 88.0934C40.0895 88.4001 40.3932 88.7068 40.8994 88.7068C41.6081 88.7068 42.2155 88.1956 42.2155 87.5823C42.2155 87.5823 42.2155 87.5823 42.2155 87.4801C44.5439 86.969 47.8848 86.6623 48.4922 88.9112C48.6947 89.5245 48.391 90.2401 47.8848 90.7512C47.2773 91.2623 46.3662 90.5468 46.1637 90.0356C45.9613 89.6268 45.9613 89.1156 46.3662 88.809C46.6699 88.5023 45.2526 88.6045 44.9489 88.809C43.9365 89.8312 44.8477 91.0579 46.0625 91.2623C47.0749 91.4668 48.7959 91.2623 49.6058 90.4445C50.5169 89.3201 50.2132 87.9912 49.2009 87.0712C48.391 86.3556 47.2773 86.1512 46.265 86.1512C47.3786 85.5379 48.4922 85.0268 49.707 84.5156H49.8083C50.9219 84.209 52.0355 83.8001 53.0479 83.3912C55.7813 82.6756 58.6159 82.2668 61.3493 82.6757C64.3865 83.0845 66.31 85.9468 65.7025 89.0134C65.0951 91.9779 61.4506 92.6934 59.5271 90.4445C59.1221 89.8312 58.9196 89.1156 59.0209 88.2979C59.0209 88.0934 59.1221 87.889 59.1221 87.6845C59.4258 86.4579 60.9444 86.1512 61.5518 86.6623C62.1592 87.1734 61.9568 88.1956 61.6531 88.4001C61.1469 88.9112 60.9444 89.6268 61.8555 89.5245C63.8803 89.3201 64.7914 87.6845 63.9815 85.8445C63.0704 84.0045 60.5394 84.5156 59.2234 85.2312C54.6677 87.6845 59.1221 94.2268 63.3741 92.7956C68.8409 91.0579 68.031 84.3112 63.4753 82.0623C61.653 81.1423 59.4258 81.1423 57.2998 81.449C58.211 80.9379 59.2234 80.529 60.1345 80.0179C64.9939 77.2579 69.5496 74.6001 74.7127 78.3823C75.3201 78.7912 75.8263 79.3023 76.3325 79.8134C76.13 80.1201 76.0288 80.4268 76.0288 80.7334C75.9275 81.9601 76.8387 83.0845 78.0535 83.1868C78.1547 83.1868 78.256 83.1868 78.3572 83.1868C78.9646 85.9468 75.2188 87.7868 73.5991 85.129C73.2953 84.6179 72.1817 84.8223 72.0805 85.4356C71.7768 88.2979 73.9028 89.9334 76.6362 89.729C78.7622 89.6268 80.1795 88.0934 81.0906 86.3557C84.0265 89.4223 89.5946 87.6845 89.8983 82.9823C89.9995 82.1645 88.6834 82.369 88.3797 82.7779C86.1525 86.2534 82.9129 84.3112 80.1795 81.8579C80.2807 81.6534 80.382 81.3468 80.382 81.0401C80.4832 79.8134 79.5721 78.689 78.3572 78.5868C77.9523 78.5868 77.5473 78.689 77.2436 78.7912C76.9399 78.4845 76.7374 78.2801 76.5349 78.0756C74.3077 76.0312 71.0681 74.8045 68.1322 75.2134C64.8926 75.6223 62.2605 77.2579 59.5271 78.8934C57.0974 80.3245 54.5664 81.5512 51.9343 82.4712C51.3268 82.6757 50.7194 82.8801 50.112 83.0845C50.7194 82.4712 51.3268 81.6534 51.6306 80.8356C53.8578 75.8268 50.5169 71.329 46.0625 69.3868C42.8229 67.9557 37.761 66.4223 34.0153 73.3734C33.6103 74.089 33.2054 74.7023 32.8004 75.3157C31.4843 77.3601 27.4348 78.2801 26.9286 75.5201C26.8274 74.9068 25.5113 75.2134 25.4101 75.7245C24.4989 77.9734 25.815 80.8357 28.4472 81.1423C29.8645 81.3468 31.1806 81.0401 32.2942 80.4268C31.8893 82.1645 31.5856 84.0045 31.5856 85.7423C31.5856 85.8445 31.5856 85.8445 31.5856 85.9468C31.5856 86.3557 32.4967 86.3556 32.9016 86.049C34.8252 84.7201 35.5338 82.7779 35.8375 80.8356C37.3561 82.5734 39.9883 83.289 42.3167 82.4712C45.1514 81.449 47.5811 78.3823 45.5563 75.4179C44.2402 73.3734 40.5957 73.8845 40.0895 76.3379C39.887 77.5645 40.292 78.689 41.4056 79.3023C41.8105 79.5068 42.2155 79.5068 42.6204 79.4045C41.0006 80.8357 37.6598 80.0179 37.1536 77.769C36.9511 76.6445 37.1536 75.3156 37.4573 74.2934C39.1784 68.1601 47.986 71.4312 49.9095 74.3957C52.9466 79.0979 49.2009 83.289 45.2526 85.3334C44.139 85.8445 43.0254 86.3556 41.8105 86.7645C41.6081 86.5601 41.3043 86.4579 41.0006 86.3556C40.3932 86.3556 39.7858 86.7645 39.6845 87.3779C39.2796 87.4801 38.7734 87.5823 38.3685 87.6845C38.166 87.2757 37.761 86.8668 37.1536 86.8668C36.445 86.7645 35.7363 87.3779 35.6351 88.0934C35.2301 88.0934 34.8252 88.1956 34.4202 88.1956C34.2177 87.4801 33.6103 86.8668 32.9016 86.8668C32.0917 86.5601 31.3831 87.0712 31.1806 87.889C30.6744 87.7868 30.2695 87.7868 29.7633 87.6845C29.7633 86.6623 28.9534 85.8445 27.941 85.7423C27.2324 85.7423 26.6249 85.9468 26.22 86.4579C25.815 86.2534 25.5113 86.049 25.1064 85.8445C25.2076 85.7423 25.3088 85.5379 25.3088 85.2312C25.4101 84.0045 24.4989 82.8801 23.2841 82.7779C22.7779 82.7779 22.2717 82.8801 21.8668 83.1868C21.7655 83.0845 21.5631 82.8801 21.4618 82.7779C19.4371 80.529 18.4247 77.769 18.4247 74.8045C19.1334 74.7023 19.7408 74.6001 20.3482 74.3957C20.4494 74.3957 21.4618 73.9868 21.5631 73.9868C23.689 73.0668 25.4101 71.329 25.9163 68.8756C28.6497 70.0001 27.7385 73.8845 29.1559 74.089C32.3955 74.089 31.1806 67.8534 26.1187 66.8312C25.815 60.6979 18.7284 58.9601 18.7284 62.4356C18.9309 63.969 23.4866 62.6401 24.1952 66.6268C24.094 66.6268 23.9928 66.6268 23.8915 66.6268C20.8544 66.8312 18.8297 68.7734 17.716 71.2268C17.716 71.329 17.3111 72.3512 17.3111 72.4534C17.2099 72.7601 17.2099 72.9645 17.1086 73.2712C14.5777 73.0668 12.148 72.0445 10.1232 70.2045C10.022 70.1023 9.81953 69.8979 9.71829 69.7956C10.022 69.3868 10.1232 68.8757 10.1232 68.3645C10.022 67.1379 8.90839 66.2179 7.69354 66.3201C7.38983 66.3201 7.18736 66.4223 7.08612 66.4223C6.88365 66.0134 6.68117 65.7068 6.4787 65.2979C6.98488 64.889 7.28859 64.2756 7.18736 63.5601C7.08612 62.5379 6.27622 61.7201 5.26385 61.7201C5.26385 61.3112 5.16261 60.9023 5.06137 60.3912C5.77003 60.1868 6.37746 59.4712 6.27622 58.6534C6.17498 57.8356 5.6688 57.2223 4.96014 57.1201C4.96014 56.7112 4.96014 56.3023 5.06137 55.8934C5.77003 55.7912 6.27622 55.0756 6.27622 54.3601C6.27622 53.849 5.87127 53.4401 5.46632 53.1334C5.56756 52.7245 5.6688 52.2134 5.77003 51.8045C6.37746 51.7023 6.78241 51.089 6.78241 50.4756C6.78241 50.169 6.57993 49.8623 6.37746 49.6579C6.78241 48.4312 7.28859 47.3068 7.79478 46.1823C9.81953 42.0934 14.0715 38.4134 18.6272 41.4801C21.5631 43.4223 24.8027 52.3156 18.7284 54.0534C17.716 54.3601 16.2987 54.5645 15.2863 54.3601C13.0591 53.849 12.2492 50.4756 13.6665 48.8401C13.5653 49.249 13.5653 49.6579 13.7678 50.0668C14.274 51.1912 15.4888 51.6001 16.7037 51.3956C19.2346 50.8845 19.6395 47.3068 17.6148 45.8756C14.6789 43.8312 11.6418 46.2845 10.6294 49.1468C9.81953 51.4979 10.427 54.0534 12.2492 55.689C10.2245 56.0979 8.4022 56.8134 7.08612 58.6534C6.78241 59.0623 6.68117 59.9823 7.18736 59.9823C7.18736 59.9823 7.28859 59.9823 7.38983 59.9823C9.11087 59.9823 10.9331 59.6756 12.6542 59.2668C12.0468 60.3912 11.743 61.6179 11.9455 63.1512C12.2492 65.809 14.9826 67.1379 17.3111 66.2179C17.716 66.0134 18.121 64.7868 17.5136 64.6845C14.7802 64.1734 15.6913 60.0845 17.716 58.7556C18.3235 58.3468 19.0321 57.9379 19.6395 57.529C26.6249 53.7468 25.0051 48.6356 23.5878 45.3645C21.6643 40.7645 17.2099 37.3912 12.2492 39.7423C11.4393 40.1512 10.7307 40.6623 10.022 41.2756C10.2245 40.6623 10.427 40.049 10.6294 39.4356C11.5406 36.7779 12.7554 34.1201 14.1727 31.769C15.7925 29.009 17.4123 26.3512 17.8173 23.0801C18.2222 20.0134 17.0074 16.7423 14.9826 14.5957C14.7802 14.3912 14.4764 14.0845 14.274 13.8801C14.4764 13.5734 14.4764 13.1645 14.4764 12.7557C14.3752 11.529 13.2616 10.609 12.0468 10.7112C11.743 10.7112 11.4393 10.8134 11.2369 10.9156C8.80716 8.15564 6.78241 4.88453 10.3257 2.63565C10.8319 2.32898 11.0344 1.10231 10.1232 1.10231C5.16261 1.30676 3.54281 6.92898 6.57993 9.89342ZM23.1829 68.6712C23.4866 68.6712 23.7903 68.6712 24.094 68.6712C23.7903 71.329 21.968 72.9645 19.3358 73.2712C19.0321 73.2712 18.7284 73.2712 18.4247 73.3734C18.8297 70.7157 20.4494 68.9779 23.1829 68.6712Z" fill="black"/>
<path d="M13.4641 77.4623C13.4641 77.4623 6.98488 79.609 5.26385 81.3467C3.2391 83.289 2.83415 84.4134 3.54281 85.9467C4.75766 88.2979 7.38983 87.9912 8.60468 86.7645C10.7307 84.6179 13.4641 77.4623 13.4641 77.4623Z" fill="black"/>
<path d="M5.06137 73.5779C3.74529 73.6801 3.03663 75.2134 3.44158 76.4401C3.94776 77.769 5.36508 78.7912 6.78241 78.689C8.60468 78.4845 10.9331 77.5645 13.2616 75.6223C10.427 75.8267 6.57993 73.3734 5.06137 73.5779Z" fill="black"/>
<path d="M16.7037 85.4356C16.9061 83.8001 14.7802 80.529 15.1851 77.5645C12.9579 80.1201 12.3505 83.0845 12.0467 84.9245C11.8443 86.4578 12.7554 87.5823 13.9703 87.7867C15.0839 87.889 16.6024 86.7645 16.7037 85.4356Z" fill="black"/>
<path d="M60.2357 72.8623C59.0209 74.4979 57.9073 76.3378 56.9961 78.1778L56.6924 78.8934L62.2605 75.929C62.8679 75.6223 63.4753 75.3156 63.9815 74.7023C64.3865 74.1912 64.7914 73.2712 64.6902 72.4534C64.4877 71.6356 63.8803 71.0223 63.0704 71.0223C62.8679 71.0223 62.6654 71.0223 62.5642 71.0223C61.5518 71.2267 60.8431 72.0445 60.2357 72.8623Z" fill="black"/>
<path d="M56.4899 70.1023C56.1862 71.1245 56.085 72.1467 55.9838 73.0667L55.68 78.2801L59.7295 72.249C60.0332 71.7379 60.337 71.329 60.5394 70.7156C60.7419 70.1023 60.8431 69.3867 60.6407 68.8756C60.4382 68.1601 59.8308 67.649 59.0209 67.649C58.7172 67.649 58.4135 67.649 58.211 67.7512C57.5023 68.1601 56.7937 68.9778 56.4899 70.1023Z" fill="black"/>
<path d="M55.5788 73.7823C55.68 72.8623 55.7813 71.6356 55.4776 70.5112C55.1739 69.3867 54.2627 68.569 53.3516 68.4667C52.238 68.3645 51.2256 69.3867 51.1244 70.5112C51.0231 71.5334 51.5293 72.249 52.0355 72.9645L52.238 73.169C53.1491 74.3956 54.1615 75.6223 54.7689 77.0534L55.2751 78.0756V76.9512C55.2751 76.2356 55.3763 75.5201 55.4776 74.8045C55.4776 74.3956 55.4776 74.089 55.5788 73.7823Z" fill="black"/>
<path d="M16.9061 29.009L13.9703 34.6312L14.6789 34.3245C16.6024 33.4045 18.3235 32.2801 19.9433 31.0534C20.7532 30.4401 21.5631 29.7245 21.7655 28.8045C21.7655 28.6001 21.8668 28.4978 21.7655 28.2934C21.6643 27.4756 21.1581 26.7601 20.3482 26.6578C19.4371 26.4534 18.6272 26.8623 18.121 27.3734C17.5136 27.7823 17.2099 28.3956 16.9061 29.009Z" fill="black"/>
<path d="M20.5507 31.5645L14.5777 35.6534L19.7408 35.3467C20.7532 35.2445 21.7655 35.2445 22.6767 34.8356C23.7903 34.4267 24.6002 33.8134 25.0051 32.9956C25.1064 32.689 25.1064 32.4845 25.1064 32.1778C25.0051 31.4623 24.6002 30.7467 23.8915 30.5423C23.3853 30.3379 22.6767 30.4401 22.0692 30.6445C21.4618 30.9512 20.9556 31.2579 20.5507 31.5645Z" fill="black"/>
<path d="M18.0198 35.9601C17.3111 36.0623 16.6024 36.1645 15.8938 36.1645H14.7802L15.7925 36.6756C17.2099 37.289 18.4247 38.3112 19.6396 39.2312L19.842 39.4356C20.4495 39.9467 21.2593 40.4578 22.2717 40.3556C23.3853 40.2534 24.3977 39.129 24.2965 38.1067C24.1952 37.0845 23.3853 36.2667 22.2717 35.9601C21.1581 35.6534 20.0445 35.7556 19.0321 35.8578C18.7284 35.8578 18.4247 35.8578 18.0198 35.9601Z" fill="black"/>
<path d="M75.6113 3.02734C75.1576 3.05404 74.4368 3.24089 73.4492 3.58789C72.4616 3.9082 71.7542 4.22852 71.3271 4.54883C70.2861 5.18945 69.5788 5.68327 69.2051 6.03027C68.8314 6.37728 68.1107 7.28483 67.043 8.75293C64.9609 11.6891 63.0391 14.6654 61.2773 17.6816C59.5156 20.6979 57.3135 24.5283 54.6709 29.1729C53.6833 30.8812 53.0293 32.2559 52.709 33.2969C52.3887 34.3379 52.2285 35.846 52.2285 37.8213V48.6719C52.2285 49.6328 52.4154 50.4736 52.7891 51.1943C53.1895 51.8883 53.8568 52.4489 54.791 52.876C55.3516 53.0895 56.3525 53.3564 57.7939 53.6768C59.2354 53.9704 60.3965 54.1305 61.2773 54.1572V57H34.6914V54.1572C35.4388 54.1038 36.5599 54.0104 38.0547 53.877C39.5495 53.7168 40.5905 53.5166 41.1777 53.2764C42.1387 52.876 42.7926 52.3288 43.1397 51.6348C43.5134 50.9408 43.7002 50.0866 43.7002 49.0723V35.2588C43.7002 34.8317 43.4333 34.0576 42.8994 32.9365C42.3923 31.7887 41.7783 30.5208 41.0576 29.1328C39.4561 26.0365 37.681 22.6865 35.7324 19.083C33.7839 15.4795 32.0889 12.3965 30.6475 9.83398C29.7666 8.3125 28.9792 7.16471 28.2852 6.39062C27.6178 5.61654 26.8438 4.93587 25.9629 4.34863C25.3223 3.94824 24.5482 3.64128 23.6406 3.42773C22.7598 3.21419 21.959 3.08073 21.2383 3.02734V0.18457H45.4619V3.02734C42.7393 3.08073 40.8174 3.26758 39.6963 3.58789C38.5752 3.9082 38.0147 4.36198 38.0147 4.94922C38.0147 5.10938 38.0947 5.38965 38.2549 5.79004C38.415 6.19043 38.6419 6.69759 38.9356 7.31152C39.2826 8.00553 39.6963 8.80632 40.1768 9.71387C40.6572 10.5947 41.111 11.4489 41.5381 12.2764C42.7926 14.652 44.0739 17.0277 45.3818 19.4033C46.6898 21.7523 48.3981 24.8219 50.5068 28.6123C54.6976 21.859 57.8874 16.6006 60.0762 12.8369C62.2917 9.04655 63.3994 6.77767 63.3994 6.03027C63.3994 5.41634 63.1725 4.92253 62.7188 4.54883C62.265 4.17513 61.6644 3.88151 60.917 3.66797C60.1429 3.45443 59.3021 3.32096 58.3945 3.26758C57.487 3.1875 56.6462 3.10742 55.8721 3.02734V0.18457H75.6113V3.02734Z" fill="black"/>
</svg>
