<svg width="727" height="388" viewBox="0 0 727 388" fill="none" xmlns="http://www.w3.org/2000/svg">
<path d="M0.167801 144.777C-3.03335 98.0891 39.9535 57.8092 96.2023 55.0628C119.525 54.1474 141.018 59.6401 158.853 69.2524C173.945 37.6692 209.614 14.3252 253.059 12.0365C282.784 10.6633 310.679 19.3601 331.258 34.4651C344.063 15.2406 367.843 1.50881 396.196 0.13563C421.805 -1.23755 445.128 7.91698 460.676 23.022C475.767 13.4097 494.517 7.45926 515.096 6.54381C570.43 3.79745 617.532 39.0424 620.733 85.2728C621.191 93.5119 620.276 101.751 617.99 109.532C620.276 112.736 622.105 115.94 623.935 119.145C677.897 117.771 723.628 152.559 726.829 197.874C730.03 243.646 687.958 283.468 632.624 285.757C626.679 286.215 620.734 285.757 614.789 285.299C604.728 308.643 578.661 325.579 547.107 327.41C533.388 327.868 520.126 325.579 508.236 321.002C497.718 357.62 459.761 385.542 412.659 387.83C368.757 390.119 329.886 369.063 312.051 337.938C295.588 348.923 275.467 355.789 253.059 356.705C209.614 358.993 170.743 338.396 152.908 307.27C147.878 308.643 142.39 309.101 136.902 309.559C95.2875 311.39 60.0749 285.299 57.7884 250.512C56.8738 239.069 60.075 228.083 65.5627 218.929C29.4354 207.486 2.91164 179.107 0.167801 144.777Z" fill="url(#paint0_linear_2267_1207)"/>
<defs>
<linearGradient id="paint0_linear_2267_1207" x1="363.5" y1="0" x2="363.5" y2="388" gradientUnits="userSpaceOnUse">
<stop stop-color="white"/>
<stop offset="1" stop-color="#CCDAE7"/>
</linearGradient>
</defs>
</svg>
