<svg xmlns="http://www.w3.org/2000/svg" width="1004" height="282" fill="none" viewBox="0 0 1004 282">
  <path fill="#fff" d="M1003.3 5.4v275.7L0 281.4V19.3c4.4-1.3 9.3-1.4 13.9-.2.4-2.1 1.3-4.2 2.5-6.1C22.9 2.6 38.2-1.3 50.5 4.1c4.3 1.9 7.7 4.7 10 7.9 7.6-5.3 18.6-6.6 27.9-2.5 6.1 2.7 10.3 7.1 12.3 12.2 5.8-.7 11.9.1 17.5 2.5s9.9 6.2 12.5 10.6c5.7-4.7 14.2-6.9 22.6-5.1 1.8.4 3.4.9 4.9 1.5 5.7-6.3 15.6-9.5 25.4-7.5 8 1.7 14.1 6.5 16.8 12.4 5-2.4 11.1-3.2 17.2-1.9.9.2 1.8.4 2.7.7v-.1c3.7-12.1 18.4-19.5 33-16.5 2.6.6 5.1 1.4 7.3 2.5 6-9.5 19.2-14.8 32.3-12 10.4 2.2 18 8.8 20.6 16.8 1.3-.1 2.7-.2 4.1-.2 12 0 22.4 5.6 27.7 13.8 3.8-.8 7.8-.9 11.9 0h.2c3-4.8 9.1-8 16-8 4.2 0 8 1.2 11.1 3.2 1.5-6.6 8.4-11.7 16.8-11.7 7 0 13 3.5 15.7 8.5 2.8-1.7 6.3-2.8 10.1-2.8 7.3 0 13.6 3.9 16 9.3.3-.2.7-.3 1-.5.1-.1.2-.1.4-.2.3-.1.5-.2.8-.4.3-.1.5-.2.8-.3.4-.2.8-.3 1.2-.4.1 0 .2 0 .2-.1.1 0 .2 0 .3-.1 0-.7.1-1.4.2-2.1.3-1.9 1-3.9 2.1-5.7.1-.2.2-.3.3-.5 5.1-8.1 16.4-11.9 26.6-9.3.4-2.1 1.3-4.2 2.5-6.1 3.1-4.9 8.2-8.4 14-10.1.3-.1.5-.1.8-.2.5-.1 1.1-.3 1.6-.4 1.9-.4 3.9-.6 5.9-.6 1.6 0 3.3.1 4.9.4.6.1 1.2.2 1.8.4.2.1.5.1.8.2l2.1.6c.7.2 1.4.5 2.1.8.8.4 1.6.7 2.3 1.2 1.7 1 3.3 2.1 4.6 3.3 1.2 1.1 2.2 2.2 3 3.4.8-.6 1.7-1.1 2.7-1.6 1.1-.6 2.2-1.1 3.4-1.5.9-.3 1.8-.6 2.7-.8.3-.1.6-.2.9-.2.6-.1 1.3-.3 2-.4.4-.1.7-.1 1.1-.1.3 0 .6-.1.9-.1.4 0 .9-.1 1.4-.1h.5c4.2-.1 8.4.7 12.4 2.4 6.1 2.7 10.4 7.1 12.3 12.2 5.8-.7 11.9.1 17.5 2.5s9.9 6.2 12.5 10.6c5.7-4.7 14.2-6.9 22.6-5.1 1.8.4 3.4.9 4.9 1.5 5.7-6.3 15.6-9.5 25.4-7.5 8 1.7 14.1 6.5 16.8 12.4 5-2.4 11.1-3.2 17.2-1.9.9.2 1.8.4 2.7.7v-.1c3.6-12.1 18.4-19.5 33-16.5 2.6.6 5.1 1.4 7.3 2.5 6-9.5 19.2-14.8 32.3-12 10.4 2.2 18 8.8 20.6 16.8 1.3-.1 2.7-.2 4.1-.2 12 0 22.4 5.6 27.7 13.8 3.8-.8 7.8-.9 11.9 0h.2c3-4.8 9.1-8 16-8 4.2 0 8 1.2 11.1 3.2 1.5-6.6 8.4-11.7 16.8-11.7 7 0 13 3.5 15.7 8.5 2.8-1.7 6.3-2.8 10.1-2.8 7.3 0 13.6 3.9 16 9.3 1.5-.8 3.1-1.4 4.7-1.9.1-2.8.9-5.6 2.6-8.3 5.1-8.1 16.4-11.9 26.6-9.3.4-2.1 1.3-4.2 2.5-6.1C948.6 1 963.8-3 976.1 2.4c4.3 1.9 7.7 4.7 10 7.9 4.9-3.3 11-5.1 17.2-4.9z"/>
</svg>
