<svg width="127" height="68" viewBox="0 0 127 68" fill="none" xmlns="http://www.w3.org/2000/svg">
<path d="M126.634 25.1168C127.234 16.9168 119.734 9.91681 109.934 9.51681C105.934 9.31681 102.134 10.3168 99.0341 12.0168C96.4341 6.51681 90.1341 2.4168 82.5341 2.1168C77.3341 1.9168 72.5341 3.41681 68.9341 6.01681C66.7341 2.61681 62.5341 0.216806 57.6341 0.0168064C53.2341 -0.183194 49.1341 1.41681 46.4341 4.01681C43.7341 2.31681 40.5341 1.31681 36.9341 1.1168C27.3341 0.616805 19.0341 6.8168 18.5341 14.8168C18.4341 16.3168 18.6341 17.7168 19.0341 19.1168C18.6341 19.6168 18.3341 20.2168 18.0341 20.8168C8.63406 20.6168 0.634062 26.6168 0.0340623 34.5168C-0.565938 42.5168 6.83405 49.4168 16.4341 49.9168C17.4341 50.0168 18.5341 49.9168 19.5341 49.8168C21.3341 53.9168 25.8341 56.9168 31.3341 57.1168C33.7341 57.2168 36.0341 56.8168 38.1341 55.9168C39.9341 62.3168 46.5341 67.2168 54.8341 67.6168C62.5341 68.0168 69.3341 64.3168 72.3341 58.9168C75.1341 60.8168 78.7341 62.0168 82.6341 62.2168C90.2341 62.6168 97.0341 59.0168 100.134 53.6168C101.034 53.8168 101.934 54.0168 102.934 54.0168C110.134 54.3168 116.334 49.8168 116.734 43.7168C116.834 41.7168 116.334 39.8168 115.334 38.2168C121.534 36.1168 126.234 31.1168 126.634 25.1168Z" fill="url(#paint0_linear_2267_1208)"/>
<defs>
<linearGradient id="paint0_linear_2267_1208" x1="63.3339" y1="0" x2="63.3339" y2="67.6464" gradientUnits="userSpaceOnUse">
<stop stop-color="white"/>
<stop offset="1" stop-color="#E3F4FE" stop-opacity="0"/>
</linearGradient>
</defs>
</svg>
