<svg width="58" height="38" viewBox="0 0 58 38" fill="none" xmlns="http://www.w3.org/2000/svg">
<path d="M56.6704 18.666C57.9704 15.366 55.8704 11.766 51.8704 10.666C51.1704 10.466 50.4704 10.366 49.7704 10.366C50.3704 6.06603 47.2704 1.86604 42.1704 0.466038C37.3704 -0.833962 32.2704 0.666038 29.4704 3.96604C25.7704 3.26604 21.8704 5.06603 20.6704 8.16603V8.26604C20.1704 8.06604 19.6704 7.86603 19.1704 7.66604C14.6704 6.46603 9.87041 8.46603 8.37041 12.166C8.17041 12.666 8.07041 13.266 7.97041 13.766C4.57041 14.166 1.67041 16.166 0.470412 19.066C-1.12959 23.166 1.47041 27.666 6.47041 28.966C8.17041 29.466 9.97042 29.466 11.6704 29.166C11.9704 32.766 14.8704 36.166 19.3704 37.366C23.9704 38.666 28.8704 37.266 31.6704 34.366C32.7704 35.566 34.1704 36.466 35.9704 36.966C39.9704 38.066 44.3704 36.666 46.4704 33.766C50.0704 33.466 53.3704 31.466 54.5704 28.466C55.4704 26.266 55.0704 23.866 53.7704 21.966C55.0704 21.166 56.0704 20.066 56.6704 18.666Z" fill="url(#paint0_linear_2267_1211)"/>
<defs>
<linearGradient id="paint0_linear_2267_1211" x1="28.5272" y1="0" x2="28.5272" y2="37.8537" gradientUnits="userSpaceOnUse">
<stop stop-color="white"/>
<stop offset="1" stop-color="#E3F4FE" stop-opacity="0"/>
</linearGradient>
</defs>
</svg>
