<svg width="53" height="36" viewBox="0 0 53 36" fill="none" xmlns="http://www.w3.org/2000/svg">
<path d="M50.7 19.5C50 18.9 49.2 18.4 48.3 18C50 16.8 51.2 15.1 51.6 13.2C51.7 12.7 51.8 12.2 51.8 11.7C51.8 7.1 47.3 3.40001 41.8 3.40001C39.6 3.40001 37.6 4 35.9 5C34.4 2.1 30.9 0 26.8 0C21.9 0 17.9 2.9 17 6.8C15.2 5.6 13 5 10.5 5C4.7 5 0 8.9 0 13.8C0 18 3.6 21.6 8.4 22.4C7.7 23.5 7.3 24.7 7.3 26C7.3 30.4 11.5 33.9 16.8 33.9C19.2 33.9 21.3 33.2 23 32C24.7 34.3 27.7 35.9 31.2 35.9C35.5 35.9 39.1 33.5 40.3 30.3C41.6 30.9 43 31.3 44.6 31.3C49.2 31.3 53 28.2 53 24.3C52.9 22.4 52.1 20.8 50.7 19.5Z" fill="url(#paint0_linear_2267_1205)"/>
<defs>
<linearGradient id="paint0_linear_2267_1205" x1="26.5" y1="0" x2="26.5" y2="35.9" gradientUnits="userSpaceOnUse">
<stop stop-color="white"/>
<stop offset="1" stop-color="#E3F4FE" stop-opacity="0"/>
</linearGradient>
</defs>
</svg>
