<svg width="112" height="69" viewBox="0 0 112 69" fill="none" xmlns="http://www.w3.org/2000/svg">
<path d="M97.9721 39.8077C103.172 38.8077 107.872 35.9077 110.272 31.5077C114.372 24.0077 110.472 15.2077 101.572 11.8077C97.3721 10.2077 92.7721 10.1077 88.6721 11.2077C87.8721 6.90772 84.5721 3.10772 79.5721 1.20772C71.9721 -1.69228 62.9721 0.80773 58.9721 6.80773C57.4721 5.20773 55.5721 3.90773 53.1721 3.00773C46.3721 0.407727 38.3721 2.30772 34.1721 7.20772C32.3721 5.50772 30.1721 4.00773 27.5721 3.00773C17.7721 -0.692273 6.27211 2.80773 1.77211 10.9077C-2.22789 18.2077 0.772103 26.7077 8.4721 31.1077C7.1721 32.1077 6.07211 33.4077 5.27211 34.8077C1.87211 40.9077 5.0721 48.2077 12.4721 51.1077C17.5721 53.1077 23.2721 52.4077 27.4721 49.8077C28.7721 54.8077 32.7721 59.3077 38.7721 61.7077C43.6721 63.6077 49.0721 63.7077 53.7721 62.3077C55.0721 64.4077 57.1721 66.2077 59.9721 67.3077C66.0721 69.7077 73.3721 67.7077 76.6721 62.9077C76.6721 62.9077 76.6721 62.9077 76.7721 62.9077C85.6721 66.3077 96.2721 63.1077 100.372 55.6077C103.372 50.1077 102.172 44.1077 97.9721 39.8077Z" fill="url(#paint0_linear_2267_1198)"/>
<defs>
<linearGradient id="paint0_linear_2267_1198" x1="55.9513" y1="0" x2="55.9513" y2="68.3247" gradientUnits="userSpaceOnUse">
<stop stop-color="white"/>
<stop offset="1" stop-color="#CCDAE7"/>
</linearGradient>
</defs>
</svg>
