<svg width="159" height="85" viewBox="0 0 159 85" fill="none" xmlns="http://www.w3.org/2000/svg">
<path d="M158.937 31.6296C159.637 21.4296 150.237 12.6296 137.937 12.0296C132.837 11.8296 128.137 13.0296 124.237 15.1296C120.937 8.22963 113.137 3.12963 103.637 2.62963C97.1374 2.32963 91.0374 4.22963 86.5374 7.52963C83.7374 3.32963 78.5375 0.329631 72.3375 0.0296313C66.7375 -0.270369 61.6375 1.72963 58.2374 5.02963C54.9375 2.92963 50.8375 1.62963 46.3375 1.42963C34.2375 0.829633 23.9374 8.52963 23.2374 18.6296C23.1374 20.4296 23.3375 22.2296 23.8375 23.9296C23.3375 24.6296 22.9374 25.3296 22.5374 26.0296C10.7374 25.7296 0.737436 33.3296 0.0374364 43.2296C-0.662564 53.2296 8.53744 61.9296 20.6374 62.4296C21.9374 62.5296 23.2374 62.4296 24.5374 62.3296C26.7374 67.4296 32.4375 71.1296 39.3375 71.5296C42.3375 71.6296 45.2375 71.1296 47.8375 70.1296C50.1375 78.1296 58.4375 84.2296 68.7374 84.7296C78.3374 85.2296 86.8374 80.6296 90.7374 73.8296C94.3374 76.2296 98.7374 77.7296 103.637 77.9296C113.137 78.4296 121.637 73.9296 125.537 67.1296C126.637 67.4296 127.837 67.5296 129.037 67.6296C138.137 68.0296 145.837 62.3296 146.337 54.7296C146.537 52.2296 145.837 49.8296 144.637 47.8296C152.537 45.3296 158.337 39.1296 158.937 31.6296Z" fill="url(#paint0_linear_2267_1207)"/>
<defs>
<linearGradient id="paint0_linear_2267_1207" x1="79.4871" y1="0" x2="79.4871" y2="84.7667" gradientUnits="userSpaceOnUse">
<stop stop-color="white"/>
<stop offset="1" stop-color="#E3F4FE" stop-opacity="0.94"/>
</linearGradient>
</defs>
</svg>
