<svg width="1590" height="151" viewBox="0 0 1590 151" fill="none" xmlns="http://www.w3.org/2000/svg">
<path d="M1585.3 52.7C1584.1 51.7 1582.8 50.8 1581.2 50.1C1584.1 48 1586.1 45.2 1586.8 41.9C1587 41.1 1587.1 40.2 1587.1 39.3C1587.1 31.4 1579.4 25.1 1570 25.1C1566.2 25.1 1562.7 26.1 1559.9 27.9C1557.3 22.9 1551.2 19.4 1544.2 19.4C1535.8 19.4 1528.9 24.4 1527.4 31.1C1524.3 29.1 1520.5 27.9 1516.3 27.9C1512.1 27.9 1508.2 29.1 1505.2 31.1C1503.9 29.6 1502.4 28.4 1500.6 27.4C1501.7 25.9 1502.5 24.3 1502.9 22.6C1503.1 21.8 1503.2 20.9 1503.2 20C1503.2 12.1 1495.5 5.79998 1486.1 5.79998C1482.3 5.79998 1478.8 6.79998 1476 8.59998C1473.4 3.59998 1467.3 0.0999756 1460.3 0.0999756C1451.9 0.0999756 1445 5.09998 1443.5 11.8C1440.4 9.79998 1436.6 8.59998 1432.4 8.59998C1422.4 8.59998 1414.3 15.4 1414.3 23.7C1414.3 24.5 1414.4 25.4 1414.5 26.2C1407.1 22.9 1397.8 24.9 1393.4 31C1393.2 31.3 1393 31.6 1392.8 31.9C1392.5 31.7 1392.3 31.6 1392 31.5C1384.9 28 1375.8 29.9 1371.5 35.8C1369.9 38.1 1369.2 40.6 1369.4 43.1C1368.3 43.1 1367.1 43.2 1366 43.4C1366.4 40.3 1365.8 37 1363.9 34.1C1359.9 27.9 1351.8 24.9 1343.9 26C1343.7 24.4 1343.1 22.8 1342.2 21.3C1338.2 15 1328.8 12.7 1321.3 16C1319.7 16.7 1318.4 17.6 1317.2 18.6C1312.5 14.5 1305 13.4 1298.8 16.2C1291.7 19.4 1288.8 26.6 1291.9 32.7C1288.4 32.1 1284.6 32.4 1281.3 33.9C1276.1 36.2 1273.1 40.8 1273.2 45.4C1272.7 45.4 1272.3 45.3 1271.8 45.3C1273.4 33.8 1265.1 22.5 1251.4 18.7C1239 15.2 1225.7 18.9 1218.1 27.1C1217.4 25.6 1215.9 24.3 1214 23.5C1210.1 22 1205.6 23.3 1203.6 26.3C1202.9 25.5 1201.9 24.8 1200.7 24.4C1198.6 23.6 1196.4 23.6 1194.4 24.3C1192.3 21.5 1188.7 19.7 1184.5 19.7C1184 19.7 1183.5 19.7 1183 19.8C1182 16.8 1179.2 14.4 1175.3 13.6C1170.4 12.6 1165.5 14.5 1163.3 18.1C1162.5 17.7 1161.6 17.4 1160.6 17.2C1155.2 16.1 1149.7 18.8 1148.4 23.3C1148.1 23.2 1147.8 23.1 1147.4 23C1146.6 22.8 1145.8 22.8 1145 22.8C1137.7 15.3 1126.5 10.5 1114 10.5C1101.1 10.5 1089.6 15.6 1082.2 23.6C1076.8 20.1 1070.1 18.1 1062.8 18.1C1045.3 18.1 1031.1 29.9 1031.1 44.5C1031.1 46.4 1031.3 48.2 1031.8 50C1031.6 50 1031.3 50 1031.1 50C1018.4 49.7 1008 58.4 1008 69C1008 77.7 1014.8 85 1024.2 87.4C1022.7 90.3 1021.9 93.6 1021.9 97C1021.9 110.7 1035.2 121.7 1051.6 121.7C1052.4 121.7 1053.1 121.7 1053.9 121.6C1058.7 126.6 1066.1 129.9 1074.4 129.9C1077.6 129.9 1080.6 129.4 1083.4 128.6C1085 131.1 1088.1 132.7 1091.7 132.7C1094.1 132.7 1096.2 132 1097.9 130.8C1099.6 133.1 1102.6 134.7 1106.1 134.7C1110.4 134.7 1114 132.3 1115.2 129.1C1116.5 129.7 1117.9 130.1 1119.5 130.1C1124.1 130.1 1127.9 127 1127.9 123.1C1127.9 121.3 1127 119.6 1125.7 118.3C1125 117.7 1124.2 117.2 1123.4 116.8C1125.8 115.3 1127.9 113.5 1129.7 111.5C1132.5 112.4 1135.6 112.9 1138.8 112.9C1139 112.9 1139.3 112.9 1139.5 112.9C1137.8 116.2 1139.4 120 1143.3 121.7C1145 122.4 1146.8 122.6 1148.6 122.4C1149.1 126 1151.6 129.3 1155.8 131.1C1161.6 133.6 1168.5 132.3 1172.5 128.3C1173.4 129.4 1174.6 130.3 1176.1 130.9C1178.9 132.1 1182 132.1 1184.7 131.2C1185.7 131.9 1186.8 132.6 1188.1 133C1193.2 135 1198.9 134.3 1203.1 131.7C1204.4 136.7 1208.4 141.2 1214.4 143.6C1219.3 145.5 1224.7 145.6 1229.4 144.2C1230.7 146.3 1232.8 148.1 1235.6 149.2C1241.7 151.6 1249 149.6 1252.3 144.8C1252.3 144.8 1252.3 144.8 1252.4 144.8C1261.3 148.2 1271.9 145 1276 137.5C1279 132.2 1277.8 126.1 1273.6 121.9C1277.1 121.2 1280.4 119.7 1282.9 117.4C1284.8 117.8 1286.9 117.4 1288.2 116.1C1288.9 116.9 1289.7 117.5 1290.8 118C1295.2 120.2 1300.8 119 1303.4 115.4C1304.2 114.2 1304.7 112.9 1304.7 111.7C1306.8 111.8 1308.8 111.2 1310.3 109.9C1311.1 112.4 1313.3 114.5 1316.4 115.4C1318.1 115.9 1319.9 115.9 1321.6 115.6C1321.9 119.2 1324.8 122.6 1329.3 123.8C1333.9 125.1 1338.8 123.7 1341.6 120.8C1342.7 122 1344.1 122.9 1345.9 123.4C1349.9 124.5 1354.3 123.1 1356.4 120.2C1358.1 120.1 1359.7 119.6 1361 118.8C1360.9 121.2 1361.5 123.6 1363 125.8C1367.4 132.6 1377.6 135.2 1385.7 131.5C1388.1 130.4 1390 129 1391.4 127.3C1395.1 131.6 1401.3 133.8 1407.4 133.1C1407.5 133.1 1407.5 133.1 1407.6 133.1C1410.6 133.2 1413.5 132.7 1416.1 131.7C1418.4 139.7 1426.7 145.8 1437 146.3C1446.6 146.8 1455.1 142.2 1459 135.4C1462.6 137.8 1467 139.3 1471.9 139.5C1481.4 140 1489.9 135.5 1493.8 128.7C1494.9 129 1496.1 129.1 1497.3 129.2C1503.4 129.5 1508.8 127 1512 123C1514 122.3 1515.6 121.2 1516.9 119.8C1518 120.1 1519.1 120.3 1520.3 120.3C1525.7 120.3 1530.2 116.6 1530.2 112.1C1530.2 111 1529.9 110 1529.5 109C1530.9 107.7 1531.8 105.9 1532 104.1C1534 102.5 1535.6 100.6 1536.8 98.6C1537.9 98.9 1539.1 99 1540.3 99.1C1549.4 99.5 1557.1 93.8 1557.6 86.2C1557.7 84.2 1557.3 82.2 1556.5 80.4C1561.7 79.1 1565.8 75.7 1567.4 71.3C1569.6 72.4 1572.1 73 1574.8 73C1582.8 73 1589.3 67.6 1589.3 61C1589.2 57.8 1587.7 54.9 1585.3 52.7Z" fill="white"/>
<path d="M577.3 52.7C576.1 51.7 574.8 50.8 573.2 50.1C576.1 48 578.1 45.2 578.8 41.9C579 41.1 579.1 40.2 579.1 39.3C579.1 31.4 571.4 25.1 562 25.1C558.2 25.1 554.7 26.1 551.9 27.9C549.3 22.9 543.2 19.4 536.2 19.4C527.8 19.4 520.9 24.4 519.4 31.1C516.3 29.1 512.5 27.9 508.3 27.9C504.1 27.9 500.2 29.1 497.2 31.1C495.9 29.6 494.4 28.4 492.6 27.4C493.7 25.9 494.5 24.3 494.9 22.6C495.1 21.8 495.2 20.9 495.2 20C495.2 12.1 487.5 5.79998 478.1 5.79998C474.3 5.79998 470.8 6.79998 468 8.59998C465.4 3.59998 459.3 0.0999756 452.3 0.0999756C443.9 0.0999756 437 5.09998 435.5 11.8C432.4 9.79998 428.6 8.59998 424.4 8.59998C414.4 8.59998 406.3 15.4 406.3 23.7C406.3 24.5 406.4 25.4 406.5 26.2C399.1 22.9 389.8 24.9 385.4 31C385.2 31.3 385 31.6 384.8 31.9C384.5 31.7 384.3 31.6 384 31.5C376.9 28 367.8 29.9 363.5 35.8C361.9 38.1 361.2 40.6 361.4 43.1C360.3 43.1 359.1 43.2 358 43.4C358.4 40.3 357.8 37 355.9 34.1C351.9 27.9 343.8 24.9 335.9 26C335.7 24.4 335.1 22.8 334.2 21.3C330.2 15 320.8 12.7 313.3 16C311.7 16.7 310.4 17.6 309.2 18.6C304.5 14.5 297 13.4 290.8 16.2C283.7 19.4 280.8 26.6 283.9 32.7C280.4 32.1 276.6 32.4 273.3 33.9C268.1 36.2 265.1 40.8 265.2 45.4C264.7 45.4 264.3 45.3 263.8 45.3C265.4 33.8 257.1 22.5 243.4 18.7C231 15.2 217.7 18.9 210.1 27.1C209.4 25.6 207.9 24.3 206 23.5C202.1 22 197.6 23.3 195.6 26.3C194.9 25.5 193.9 24.8 192.7 24.4C190.6 23.6 188.4 23.6 186.4 24.3C184.3 21.5 180.7 19.7 176.5 19.7C176 19.7 175.5 19.7 175 19.8C174 16.8 171.2 14.4 167.3 13.6C162.4 12.6 157.5 14.5 155.3 18.1C154.5 17.7 153.6 17.4 152.6 17.2C147.2 16.1 141.7 18.8 140.4 23.3C140.1 23.2 139.8 23.1 139.4 23C138.6 22.8 137.8 22.8 137 22.8C129.7 15.3 118.5 10.5 106 10.5C93.1 10.5 81.6 15.6 74.2 23.6C68.8 20.1 62.1 18.1 54.8 18.1C37.3 18.1 23.1 29.9 23.1 44.5C23.1 46.4 23.3 48.2 23.8 50C23.6 50 23.3 50 23.1 50C10.4 49.7 0 58.4 0 69C0 77.7 6.8 85 16.2 87.4C14.7 90.3 13.9 93.6 13.9 97C13.9 110.7 27.2 121.7 43.6 121.7C44.4 121.7 45.1 121.7 45.9 121.6C50.7 126.6 58.1 129.9 66.4 129.9C69.6 129.9 72.6 129.4 75.4 128.6C77 131.1 80.1 132.7 83.7 132.7C86.1 132.7 88.2 132 89.9 130.8C91.6 133.1 94.6 134.7 98.1 134.7C102.4 134.7 106 132.3 107.2 129.1C108.5 129.7 109.9 130.1 111.5 130.1C116.1 130.1 119.9 127 119.9 123.1C119.9 121.3 119 119.6 117.7 118.3C117 117.7 116.2 117.2 115.4 116.8C117.8 115.3 119.9 113.5 121.7 111.5C124.5 112.4 127.6 112.9 130.8 112.9C131 112.9 131.3 112.9 131.5 112.9C129.8 116.2 131.4 120 135.3 121.7C137 122.4 138.8 122.6 140.6 122.4C141.1 126 143.6 129.3 147.8 131.1C153.6 133.6 160.5 132.3 164.5 128.3C165.4 129.4 166.6 130.3 168.1 130.9C170.9 132.1 174 132.1 176.7 131.2C177.7 131.9 178.8 132.6 180.1 133C185.2 135 190.9 134.3 195.1 131.7C196.4 136.7 200.4 141.2 206.4 143.6C211.3 145.5 216.7 145.6 221.4 144.2C222.7 146.3 224.8 148.1 227.6 149.2C233.7 151.6 241 149.6 244.3 144.8C244.3 144.8 244.3 144.8 244.4 144.8C253.3 148.2 263.9 145 268 137.5C271 132.2 269.8 126.1 265.6 121.9C269.1 121.2 272.4 119.7 274.9 117.4C276.8 117.8 278.9 117.4 280.2 116.1C280.9 116.9 281.7 117.5 282.8 118C287.2 120.2 292.8 119 295.4 115.4C296.2 114.2 296.7 112.9 296.7 111.7C298.8 111.8 300.8 111.2 302.3 109.9C303.1 112.4 305.3 114.5 308.4 115.4C310.1 115.9 311.9 115.9 313.6 115.6C313.9 119.2 316.8 122.6 321.3 123.8C325.9 125.1 330.8 123.7 333.6 120.8C334.7 122 336.1 122.9 337.9 123.4C341.9 124.5 346.3 123.1 348.4 120.2C350.1 120.1 351.7 119.6 353 118.8C352.9 121.2 353.5 123.6 355 125.8C359.4 132.6 369.6 135.2 377.7 131.5C380.1 130.4 382 129 383.4 127.3C387.1 131.6 393.3 133.8 399.4 133.1C399.5 133.1 399.5 133.1 399.6 133.1C402.6 133.2 405.5 132.7 408.1 131.7C410.4 139.7 418.7 145.8 429 146.3C438.6 146.8 447.1 142.2 451 135.4C454.6 137.8 459 139.3 463.9 139.5C473.4 140 481.9 135.5 485.8 128.7C486.9 129 488.1 129.1 489.3 129.2C495.4 129.5 500.8 127 504 123C506 122.3 507.6 121.2 508.9 119.8C510 120.1 511.1 120.3 512.3 120.3C517.7 120.3 522.2 116.6 522.2 112.1C522.2 111 521.9 110 521.5 109C522.9 107.7 523.8 105.9 524 104.1C526 102.5 527.6 100.6 528.8 98.6C529.9 98.9 531.1 99 532.3 99.1C541.4 99.5 549.1 93.8 549.6 86.2C549.7 84.2 549.3 82.2 548.5 80.4C553.7 79.1 557.8 75.7 559.4 71.3C561.6 72.4 564.1 73 566.8 73C574.8 73 581.3 67.6 581.3 61C581.2 57.8 579.7 54.9 577.3 52.7Z" fill="white"/>
<path d="M485 97.5169C486.2 98.5169 487.5 99.4169 489.1 100.117C486.2 102.217 484.2 105.017 483.5 108.317C483.3 109.117 483.2 110.017 483.2 110.917C483.2 118.817 490.9 125.117 500.3 125.117C504.1 125.117 507.6 124.117 510.4 122.317C513 127.317 519.1 130.817 526.1 130.817C534.5 130.817 541.4 125.817 542.9 119.117C546 121.117 549.8 122.317 554 122.317C558.2 122.317 562.1 121.117 565.1 119.117C566.4 120.617 567.9 121.817 569.7 122.817C568.6 124.317 567.8 125.917 567.4 127.617C567.2 128.417 567.1 129.317 567.1 130.217C567.1 138.117 574.8 144.417 584.2 144.417C588 144.417 591.5 143.417 594.3 141.617C596.9 146.617 603 150.117 610 150.117C618.4 150.117 625.3 145.117 626.8 138.417C629.9 140.417 633.7 141.617 637.9 141.617C647.9 141.617 656 134.817 656 126.517C656 125.717 655.9 124.817 655.8 124.017C663.2 127.317 672.5 125.317 676.9 119.217C677.1 118.917 677.3 118.617 677.5 118.317C677.8 118.517 678 118.617 678.3 118.717C685.4 122.217 694.5 120.317 698.8 114.417C700.4 112.117 701.1 109.617 700.9 107.117C702 107.117 703.2 107.017 704.3 106.817C703.9 109.917 704.5 113.217 706.4 116.117C710.4 122.317 718.5 125.317 726.4 124.217C726.6 125.817 727.2 127.417 728.1 128.917C732.1 135.217 741.5 137.517 749 134.217C750.6 133.517 751.9 132.617 753.1 131.617C757.8 135.717 765.3 136.817 771.5 134.017C778.6 130.817 781.5 123.617 778.4 117.517C781.9 118.117 785.7 117.817 789 116.317C794.2 114.017 797.2 109.417 797.1 104.817C797.6 104.817 798 104.917 798.5 104.917C796.9 116.417 805.2 127.717 818.9 131.517C831.3 135.017 844.6 131.317 852.2 123.117C852.9 124.617 854.4 125.917 856.3 126.717C860.2 128.217 864.7 126.917 866.7 123.917C867.4 124.717 868.4 125.417 869.6 125.817C871.7 126.617 873.9 126.617 875.9 125.917C878 128.717 881.6 130.517 885.8 130.517C886.3 130.517 886.8 130.517 887.3 130.417C888.3 133.417 891.1 135.817 895 136.617C899.9 137.617 904.8 135.717 907 132.117C907.8 132.517 908.7 132.817 909.7 133.017C915.1 134.117 920.6 131.417 921.9 126.917C922.2 127.017 922.5 127.117 922.9 127.217C923.7 127.417 924.5 127.417 925.3 127.417C932.6 134.917 943.8 139.717 956.3 139.717C969.2 139.717 980.7 134.617 988.1 126.617C993.5 130.117 1000.2 132.117 1007.5 132.117C1025 132.117 1039.2 120.317 1039.2 105.717C1039.2 103.817 1039 102.017 1038.5 100.217C1038.7 100.217 1039 100.217 1039.2 100.217C1051.9 100.517 1062.3 91.8169 1062.3 81.2169C1062.3 72.5169 1055.5 65.2169 1046.1 62.8169C1047.6 59.9169 1048.4 56.6169 1048.4 53.2169C1048.4 39.5169 1035.1 28.5169 1018.7 28.5169C1017.9 28.5169 1017.2 28.5169 1016.4 28.6169C1011.6 23.6169 1004.2 20.317 995.9 20.3169C992.7 20.3169 989.7 20.8169 986.9 21.6169C985.3 19.1169 982.2 17.5169 978.6 17.5169C976.2 17.5169 974.1 18.2169 972.4 19.4169C970.7 17.1169 967.7 15.5169 964.2 15.5169C959.9 15.5169 956.3 17.9169 955.1 21.1169C953.8 20.5169 952.4 20.1169 950.8 20.1169C946.2 20.1169 942.4 23.2169 942.4 27.1169C942.4 28.9169 943.3 30.6169 944.6 31.9169C945.3 32.5169 946.1 33.0169 946.9 33.4169C944.5 34.9169 942.4 36.7169 940.6 38.7169C937.8 37.8169 934.7 37.3169 931.5 37.3169C931.3 37.3169 931 37.3169 930.8 37.3169C932.5 34.0169 930.9 30.2169 927 28.5169C925.3 27.8169 923.5 27.6169 921.7 27.8169C921.2 24.2169 918.7 20.9169 914.5 19.1169C908.7 16.6169 901.8 17.9169 897.8 21.9169C896.9 20.8169 895.7 19.9169 894.2 19.3169C891.4 18.1169 888.3 18.1169 885.6 19.0169C884.6 18.3169 883.5 17.6169 882.2 17.2169C877.1 15.2169 871.4 15.9169 867.2 18.5169C865.9 13.5169 861.9 9.01693 855.9 6.61693C851 4.71692 845.6 4.61693 840.9 6.01693C839.6 3.91693 837.5 2.11693 834.7 1.01693C828.6 -1.38307 821.3 0.616925 818 5.41693C818 5.41693 818 5.41693 817.9 5.41693C809 2.01692 798.4 5.21693 794.3 12.7169C791.3 18.0169 792.5 24.1169 796.7 28.3169C793.2 29.0169 789.9 30.5169 787.4 32.8169C785.5 32.4169 783.4 32.8169 782.1 34.1169C781.4 33.3169 780.6 32.7169 779.5 32.2169C775.1 30.0169 769.5 31.2169 766.9 34.8169C766.1 36.0169 765.6 37.3169 765.6 38.5169C763.5 38.4169 761.5 39.0169 760 40.3169C759.2 37.8169 757 35.7169 753.9 34.8169C752.2 34.3169 750.4 34.3169 748.7 34.6169C748.4 31.0169 745.5 27.6169 741 26.4169C736.4 25.1169 731.5 26.5169 728.7 29.4169C727.6 28.2169 726.2 27.3169 724.4 26.8169C720.4 25.7169 716 27.1169 713.9 30.0169C712.2 30.1169 710.6 30.6169 709.3 31.4169C709.4 29.0169 708.8 26.6169 707.3 24.4169C702.9 17.6169 692.7 15.0169 684.6 18.7169C682.2 19.8169 680.3 21.2169 678.9 22.9169C675.2 18.6169 669 16.4169 662.9 17.1169C662.8 17.1169 662.8 17.1169 662.7 17.1169C659.7 17.0169 656.8 17.5169 654.2 18.5169C651.9 10.5169 643.6 4.41691 633.3 3.91691C623.7 3.41691 615.2 8.01692 611.3 14.8169C607.7 12.4169 603.3 10.9169 598.4 10.7169C588.9 10.2169 580.4 14.7169 576.5 21.5169C575.4 21.2169 574.2 21.1169 573 21.0169C566.9 20.7169 561.5 23.2169 558.3 27.2169C556.3 27.9169 554.7 29.0169 553.4 30.4169C552.3 30.1169 551.2 29.9169 550 29.9169C544.6 29.9169 540.1 33.6169 540.1 38.1169C540.1 39.2169 540.4 40.2169 540.8 41.2169C539.4 42.5169 538.5 44.3169 538.3 46.1169C536.3 47.7169 534.7 49.6169 533.5 51.6169C532.4 51.3169 531.2 51.2169 530 51.1169C520.9 50.7169 513.2 56.4169 512.7 64.0169C512.6 66.0169 513 68.0169 513.8 69.8169C508.6 71.1169 504.5 74.5169 502.9 78.9169C500.7 77.8169 498.2 77.2169 495.5 77.2169C487.5 77.2169 481 82.6169 481 89.2169C481.1 92.4169 482.6 95.3169 485 97.5169Z" fill="white"/>
</svg>
