<svg width="2300" height="594" viewBox="0 0 2300 594" fill="none" xmlns="http://www.w3.org/2000/svg">
<path d="M15.8265 208.12C20.5745 204.163 25.7181 200.602 32.0487 197.832C20.5744 189.524 12.6612 178.445 9.89157 165.388C9.10024 162.223 8.70462 158.662 8.70462 155.101C8.70462 123.843 39.1707 98.9162 76.3632 98.9162C91.3985 98.9162 105.247 102.873 116.325 109.995C126.613 90.2116 150.748 76.3633 178.445 76.3633C211.681 76.3633 238.981 96.1466 244.916 122.656C257.182 114.743 272.217 109.995 288.835 109.995C305.453 109.995 320.884 114.743 332.754 122.656C337.898 116.721 343.833 111.973 350.955 108.017C346.602 102.082 343.437 95.7509 341.854 89.0246C341.063 85.8593 340.667 82.2983 340.667 78.7373C340.667 47.4798 371.134 22.5529 408.326 22.5529C423.361 22.5529 437.21 26.5096 448.288 33.6315C458.576 13.8483 482.711 0 510.408 0C543.644 0 570.944 19.7832 576.879 46.2928C589.145 38.3795 604.18 33.6315 620.798 33.6315C660.365 33.6315 692.414 60.5367 692.414 93.3769C692.414 96.5422 692.018 100.103 691.622 103.269C720.901 90.2116 757.698 98.1249 775.107 122.26C775.899 123.447 776.69 124.634 777.481 125.821C778.668 125.03 779.46 124.634 780.647 124.239C808.739 110.391 844.744 117.908 861.758 141.252C868.089 150.353 870.858 160.244 870.067 170.136C874.419 170.136 879.167 170.532 883.52 171.323C881.937 159.057 884.311 146 891.829 134.526C907.655 109.995 939.704 98.1249 970.962 102.477C971.753 96.1466 974.127 89.8159 977.688 83.881C993.514 58.9541 1030.71 49.8538 1060.38 62.9107C1066.71 65.6804 1071.86 69.2414 1076.6 73.198C1095.2 56.9758 1124.88 52.6234 1149.41 63.7021C1177.5 76.3633 1188.97 104.851 1176.71 128.987C1190.56 126.613 1205.59 127.8 1218.65 133.735C1239.22 142.835 1251.09 161.036 1250.7 179.236C1252.67 179.236 1254.26 178.841 1256.24 178.841C1249.91 133.339 1282.75 88.6289 1336.95 73.5937C1386.01 59.7454 1438.64 74.385 1468.71 106.83C1471.48 100.895 1477.41 95.7509 1484.93 92.5856C1500.36 86.6506 1518.17 91.7943 1526.08 103.664C1528.85 100.499 1532.81 97.7292 1537.55 96.1466C1545.86 92.9813 1554.57 92.9813 1562.48 95.7509C1570.79 84.6723 1585.03 77.5503 1601.65 77.5503C1603.63 77.5503 1605.61 77.5503 1607.59 77.946C1611.54 66.076 1622.62 56.5801 1638.05 53.4148C1657.44 49.4581 1676.83 56.9758 1685.53 71.2197C1688.7 69.637 1692.26 68.45 1696.22 67.6587C1717.58 63.3064 1739.34 73.9893 1744.49 91.7943C1745.67 91.3986 1746.86 91.0029 1748.44 90.6073C1751.61 89.8159 1754.77 89.8159 1757.94 89.8159C1786.82 60.1411 1831.14 41.1492 1880.6 41.1492C1931.64 41.1492 1977.14 61.3281 2006.42 92.9813C2027.78 79.133 2054.29 71.2197 2083.18 71.2197C2152.42 71.2197 2208.6 117.908 2208.6 175.675C2208.6 183.193 2207.81 190.315 2205.83 197.437C2206.62 197.437 2207.81 197.437 2208.6 197.437C2258.85 196.25 2300 230.673 2300 272.613C2300 307.036 2273.09 335.92 2235.9 345.415C2241.84 356.89 2245 369.947 2245 383.399C2245 437.605 2192.38 481.129 2127.49 481.129C2124.32 481.129 2121.56 481.129 2118.39 480.733C2099.4 500.516 2070.12 513.573 2037.28 513.573C2024.62 513.573 2012.75 511.595 2001.67 508.429C1995.34 518.321 1983.07 524.652 1968.83 524.652C1959.33 524.652 1951.02 521.882 1944.3 517.134C1937.57 526.234 1925.7 532.565 1911.85 532.565C1894.84 532.565 1880.6 523.069 1875.85 510.408C1870.7 512.782 1865.16 514.364 1858.83 514.364C1840.63 514.364 1825.6 502.099 1825.6 486.668C1825.6 479.546 1829.16 472.82 1834.3 467.676C1837.07 465.302 1840.24 463.324 1843.4 461.741C1833.91 455.806 1825.6 448.684 1818.48 440.771C1807.4 444.332 1795.13 446.31 1782.47 446.31C1781.68 446.31 1780.49 446.31 1779.7 446.31C1786.43 459.367 1780.1 474.402 1764.67 481.129C1757.94 483.898 1750.82 484.69 1743.7 483.898C1741.72 498.142 1731.83 511.199 1715.21 518.321C1692.26 528.213 1664.96 523.069 1649.13 507.242C1645.57 511.595 1640.82 515.156 1634.89 517.53C1623.81 522.278 1611.54 522.278 1600.86 518.717C1596.9 521.486 1592.55 524.256 1587.41 525.839C1567.23 533.752 1544.68 530.982 1528.06 520.695C1522.91 540.478 1507.09 558.283 1483.35 567.779C1463.96 575.297 1442.59 575.692 1424 570.153C1418.85 578.462 1410.55 585.584 1399.47 589.936C1375.33 599.432 1346.45 591.519 1333.39 572.527C1333.39 572.527 1333.39 572.527 1332.99 572.527C1297.78 585.98 1255.84 573.318 1239.62 543.644C1227.75 522.673 1232.5 498.538 1249.11 481.92C1235.27 479.15 1222.21 473.215 1212.32 464.115C1204.8 465.698 1196.49 464.115 1191.35 458.971C1188.58 462.137 1185.41 464.511 1181.06 466.489C1163.65 475.194 1141.49 470.446 1131.21 456.202C1128.04 451.454 1126.06 446.31 1126.06 441.562C1117.75 441.958 1109.84 439.584 1103.91 434.44C1100.74 444.332 1092.04 452.641 1079.77 456.202C1073.04 458.18 1065.92 458.18 1059.19 456.993C1058.01 471.237 1046.53 484.69 1028.73 489.438C1010.53 494.581 991.14 489.042 980.062 477.568C975.71 482.316 970.17 485.877 963.048 487.855C947.222 492.207 929.812 486.668 921.503 475.194C914.777 474.798 908.447 472.82 903.303 469.654C903.699 479.15 901.325 488.646 895.39 497.351C877.98 524.256 837.622 534.543 805.574 519.904C796.078 515.551 788.56 510.012 783.021 503.286C768.381 520.299 743.85 529.004 719.714 526.234C719.319 526.234 719.319 526.234 718.923 526.234C707.053 526.63 695.579 524.652 685.291 520.695C676.191 552.348 643.351 576.484 602.598 578.462C564.614 580.44 530.982 562.24 515.551 535.335C501.307 544.831 483.898 550.766 464.511 551.557C426.922 553.535 393.291 535.73 377.86 508.825C373.508 510.012 368.76 510.408 364.012 510.803C339.876 511.99 318.51 502.099 305.849 486.272C297.936 483.503 291.605 479.15 286.461 473.611C282.109 474.798 277.757 475.589 273.009 475.589C251.643 475.589 233.838 460.95 233.838 443.145C233.838 438.792 235.025 434.836 236.608 430.879C231.068 425.735 227.507 418.613 226.716 411.492C218.803 405.161 212.472 397.643 207.724 389.73C203.372 390.917 198.624 391.313 193.876 391.708C157.87 393.291 127.404 370.738 125.426 340.667C125.03 332.754 126.613 324.841 129.778 317.719C109.203 312.575 92.9811 299.123 86.6504 281.713C77.9458 286.066 68.0543 288.44 57.3714 288.44C25.7182 288.44 -5.31959e-05 267.074 -5.31959e-05 240.96C0.395612 228.299 6.33058 216.824 15.8265 208.12Z" fill="white"/>
</svg>
