<svg width="576" height="184" viewBox="0 0 576 184" fill="none" xmlns="http://www.w3.org/2000/svg">
<g clip-path="url(#clip0_2267_1193)">
<path d="M476.7 125.9C473.2 120.5 466 117.7 459 118.7C458.8 117.3 458.3 115.9 457.5 114.5C453.9 109 445.6 106.9 439 109.9C437.6 110.5 436.4 111.3 435.4 112.2C431.3 108.6 424.6 107.6 419.1 110.1C412.8 112.9 410.2 119.3 413 124.7C409.9 124.1 406.6 124.4 403.6 125.8C396.9 128.8 394.4 135.7 398 141.2C399.8 144.1 403 146 406.4 146.8C404.3 150.6 404.3 155.2 406.9 159.2C411.3 166 421.5 168.6 429.6 164.9C432 163.8 433.9 162.4 435.3 160.7C440.1 166.4 449.4 168.3 456.9 165C461.2 163.1 464.1 159.8 465.2 156.1C467.5 156.4 469.9 156.1 472 155.1C477.4 152.7 479.4 147.1 476.5 142.7C476.1 142.1 475.6 141.5 475.1 141C479.1 136.7 479.9 130.8 476.7 125.9Z" fill="url(#paint0_linear_2267_1193)"/>
<path d="M408.1 67.2C404.1 61 396 58 388.1 59.1C387.9 57.5 387.3 55.9 386.4 54.4C382.4 48.1 373 45.8 365.5 49.1C363.9 49.8 362.6 50.7 361.4 51.7C356.7 47.6 349.2 46.5 343 49.3C335.9 52.5 333 59.7 336.1 65.8C332.6 65.2 328.8 65.5 325.5 67C318 70.4 315.2 78.2 319.2 84.4C321.3 87.6 324.8 89.8 328.7 90.7C326.4 95 326.4 100.2 329.3 104.7C334.3 112.4 345.7 115.3 355 111.1C357.7 109.9 359.8 108.3 361.5 106.4C366.9 112.8 377.4 115 386 111.2C390.9 109 394.2 105.3 395.4 101.1C398 101.4 400.7 101.1 403.1 100C409.2 97.3 411.4 91 408.2 86C407.8 85.3 407.2 84.7 406.6 84.1C410.9 79.4 411.7 72.8 408.1 67.2Z" fill="url(#paint1_linear_2267_1193)"/>
<path d="M267.4 76.1C270 75.6 272.4 74.1 273.6 71.9C275.7 68.1 273.7 63.7 269.2 61.9C267.1 61.1 264.7 61 262.7 61.6C262.3 59.5 260.6 57.5 258.1 56.5C254.2 55 249.7 56.3 247.7 59.3C247 58.5 246 57.8 244.8 57.4C241.4 56.1 237.3 57 235.2 59.5C234.3 58.6 233.2 57.9 231.8 57.4C226.9 55.5 221 57.3 218.8 61.4C216.8 65.1 218.3 69.4 222.2 71.6C221.6 72.1 221 72.7 220.6 73.5C218.9 76.6 220.5 80.3 224.2 81.7C226.8 82.7 229.7 82.3 231.8 81C232.4 83.5 234.5 85.8 237.5 87C240 88 242.7 88 245.1 87.3C245.7 88.4 246.8 89.3 248.2 89.8C251.3 91 254.9 90 256.6 87.6C261.1 89.3 266.5 87.7 268.5 83.9C270.2 81.3 269.6 78.3 267.4 76.1Z" fill="url(#paint2_linear_2267_1193)"/>
<path d="M317.4 155.3C322.6 154.3 327.3 151.4 329.7 147C333.8 139.5 329.9 130.7 321 127.3C316.8 125.7 312.2 125.6 308.1 126.7C307.3 122.4 304 118.6 299 116.7C291.4 113.8 282.4 116.3 278.4 122.3C276.9 120.7 275 119.4 272.6 118.5C265.8 115.9 257.8 117.8 253.6 122.7C251.8 121 249.6 119.5 247 118.5C237.2 114.8 225.7 118.3 221.2 126.4C217.2 133.7 220.2 142.2 227.9 146.6C226.6 147.6 225.5 148.9 224.7 150.3C221.3 156.4 224.5 163.7 231.9 166.6C237 168.6 242.7 167.9 246.9 165.3C248.2 170.3 252.2 174.8 258.2 177.2C263.1 179.1 268.5 179.2 273.2 177.8C274.5 179.9 276.6 181.7 279.4 182.8C285.5 185.2 292.8 183.2 296.1 178.4C296.1 178.4 296.1 178.4 296.2 178.4C305.1 181.8 315.7 178.6 319.8 171.1C322.8 165.6 321.6 159.6 317.4 155.3Z" fill="url(#paint3_linear_2267_1193)"/>
<path d="M237.6 137.9C235.5 137 233.3 136.7 231.1 137C230.4 135.1 228.8 133.5 226.6 132.5C223.2 131 219.1 131.5 216.3 133.4C215.5 132.2 214.2 131.2 212.6 130.5C208 128.5 202.4 130 200 133.8C199.5 134.5 199.2 135.3 199.1 136.1C195.3 135.1 191.2 136.5 189.3 139.5C188.7 140.5 188.4 141.5 188.4 142.6C186.5 143.2 184.8 144.3 183.8 145.9C181.7 149.3 183.2 153.5 187.3 155.2C189 155.9 190.8 156.1 192.6 155.9C193.1 159.5 195.6 162.8 199.8 164.6C205.6 167.1 212.5 165.8 216.5 161.8C217.4 162.9 218.6 163.8 220.1 164.4C225 166.5 231 165 233.6 160.9C234.9 158.9 235 156.7 234.3 154.6C237.6 154.2 240.6 152.6 242.3 149.9C244.9 145.5 242.8 140.2 237.6 137.9Z" fill="url(#paint4_linear_2267_1193)"/>
<path d="M148.5 34C142.9 31.6 136.8 30.8 131 31.5C129 26.4 124.8 22 118.7 19.3C109.4 15.2 98.4001 16.5 90.8001 21.8C88.5001 18.5 85.1001 15.8 80.8001 13.9C68.5001 8.50004 53.2001 12.5 46.7001 22.8C45.5001 24.8 44.6001 26.8 44.2001 28.9C34.0001 26.3 22.7001 30 17.6001 38.2C15.9001 40.9 15.1001 43.7 15.1001 46.5C9.90011 48 5.30011 51.1 2.60011 55.5C-3.19989 64.7 1.10011 76 12.1001 80.8C16.7001 82.8 21.6001 83.3 26.3001 82.6C27.7001 92.3 34.6001 101.2 45.7001 106C61.3001 112.8 80.1001 109.3 90.9001 98.4C93.3001 101.3 96.6001 103.8 100.6 105.6C113.8 111.4 130.2 107.1 137.1 96.1C140.5 90.7 141 84.6 139 79.2C147.9 78.2 156.2 73.7 160.7 66.5C168.1 54.8 162.7 40.2 148.5 34Z" fill="url(#paint5_linear_2267_1193)"/>
<path d="M576 136.8C576 133.3 573.6 130.4 570 129C570.1 128.6 570.1 128.1 570.1 127.7C570.1 120.8 563.4 115.2 555 115.2C550.1 115.2 545.8 117.1 543.1 120.1C541.1 118.8 538.6 118 535.8 118C529.2 118 523.9 122.4 523.9 127.9C523.9 128.6 524 129.3 524.2 130C524.1 130 524 130 523.9 130C519.1 130 515.2 133.3 515.2 137.3C515.2 140.6 517.8 143.3 521.3 144.2C520.7 145.3 520.4 146.5 520.4 147.8C520.4 152.9 525.4 157.1 531.6 157.1C531.9 157.1 532.2 157.1 532.5 157.1C534.3 159 537.1 160.2 540.2 160.2C543.6 160.2 546.6 158.8 548.3 156.6C549.4 156.9 550.6 157.1 551.9 157.1C555.6 157.1 558.9 155.6 560.9 153.3C562 153.6 563.1 153.8 564.3 153.8C569.7 153.8 574.2 150.1 574.2 145.6C574.2 144.5 573.9 143.5 573.5 142.5C575 140.9 576 138.9 576 136.8Z" fill="url(#paint6_linear_2267_1193)"/>
<path d="M213.8 101.2C213.8 92 207.3 84.1 197.9 80.5C198 79.3 198.1 78.2 198.1 77C198.1 58.6 180.2 43.6 158.1 43.6C145.2 43.6 133.7 48.7 126.3 56.7C120.9 53.2 114.2 51.2 106.9 51.2C89.4 51.2 75.2 63 75.2 77.6C75.2 79.5 75.4 81.3 75.9 83.1C75.7 83.1 75.4 83.1 75.2 83.1C62.4 83.1 52 91.8 52 102.4C52 111.1 58.8 118.4 68.2 120.8C66.7 123.7 65.9 127 65.9 130.4C65.9 144.1 79.2 155.1 95.6 155.1C96.4 155.1 97.1 155.1 97.9 155C102.7 160 110.1 163.3 118.4 163.3C127.4 163.3 135.3 159.5 140.1 153.8C143.1 154.6 146.3 155.1 149.6 155.1C159.5 155.1 168.2 151.1 173.6 144.9C176.4 145.8 179.5 146.3 182.7 146.3C197.2 146.3 208.9 136.5 208.9 124.4C208.9 121.5 208.2 118.7 206.9 116.1C211.2 112.2 213.8 107 213.8 101.2Z" fill="url(#paint7_linear_2267_1193)"/>
<path d="M94.3002 86.1C93.1002 85.1 91.8002 84.2 90.2002 83.5C93.1002 81.4 95.1002 78.6001 95.8002 75.3001C96.0002 74.5001 96.1002 73.6 96.1002 72.7C96.1002 64.8 88.4002 58.5 79.0002 58.5C75.2002 58.5 71.7002 59.5 68.9002 61.3C66.3002 56.3 60.2002 52.8 53.2002 52.8C44.8002 52.8 37.9002 57.8 36.4002 64.5C33.3002 62.5 29.5002 61.3 25.3002 61.3C15.3002 61.3 7.2002 68.1001 7.2002 76.4001C7.2002 83.7001 13.4002 89.8 21.7002 91.2C20.5002 93.1 19.9002 95.2001 19.9002 97.4001C19.9002 104.9 27.2002 111 36.2002 111C40.2002 111 43.9002 109.8 46.8002 107.7C49.6002 111.7 54.8002 114.3 60.8002 114.3C68.2002 114.3 74.4002 110.2 76.4002 104.6C78.6002 105.7 81.1002 106.3 83.8002 106.3C91.8002 106.3 98.3002 100.9 98.3002 94.3001C98.1002 91.2001 96.7002 88.3 94.3002 86.1Z" fill="url(#paint8_linear_2267_1193)"/>
<path d="M214.4 101.2C214.4 92 207.9 84.1 198.5 80.5C198.6 79.3 198.7 78.2 198.7 77C198.7 58.6 180.8 43.6 158.7 43.6C145.8 43.6 134.3 48.7 126.9 56.7C121.5 53.2 114.8 51.2 107.5 51.2C90.0001 51.2 75.8001 63 75.8001 77.6C75.8001 79.5 76.0001 81.3 76.5001 83.1C76.3001 83.1 76.0001 83.1 75.8001 83.1C63.0001 83.1 52.6001 91.8 52.6001 102.4C52.6001 111.1 59.4001 118.4 68.8001 120.8C67.3001 123.7 66.5001 127 66.5001 130.4C66.5001 144.1 79.8001 155.1 96.2001 155.1C97.0001 155.1 97.7001 155.1 98.5001 155C103.3 160 110.7 163.3 119 163.3C128 163.3 135.9 159.5 140.7 153.8C143.7 154.6 146.9 155.1 150.2 155.1C160.1 155.1 168.8 151.1 174.2 144.9C177 145.8 180.1 146.3 183.3 146.3C197.8 146.3 209.5 136.5 209.5 124.4C209.5 121.5 208.8 118.7 207.5 116.1C211.9 112.2 214.4 107 214.4 101.2Z" fill="url(#paint9_linear_2267_1193)"/>
<path d="M169.7 151.7C169 151.1 168.2 150.6 167.3 150.2C169 149 170.2 147.3 170.6 145.4C170.7 144.9 170.8 144.4 170.8 143.9C170.8 139.3 166.3 135.6 160.8 135.6C158.6 135.6 156.6 136.2 154.9 137.2C153.4 134.3 149.9 132.2 145.8 132.2C140.9 132.2 136.9 135.1 136 139C134.2 137.8 132 137.2 129.5 137.2C123.7 137.2 119 141.1 119 146C119 150.2 122.6 153.8 127.4 154.6C126.7 155.7 126.3 156.9 126.3 158.2C126.3 162.6 130.5 166.1 135.8 166.1C138.2 166.1 140.3 165.4 142 164.2C143.7 166.5 146.7 168.1 150.2 168.1C154.5 168.1 158.1 165.7 159.3 162.5C160.6 163.1 162 163.5 163.6 163.5C168.2 163.5 172 160.4 172 156.5C171.9 154.6 171.1 153 169.7 151.7Z" fill="url(#paint10_linear_2267_1193)"/>
<path d="M550.7 86.1C549.5 85.1 548.2 84.2 546.6 83.5C549.5 81.4 551.5 78.6001 552.2 75.3001C552.4 74.5001 552.5 73.6 552.5 72.7C552.5 64.8 544.8 58.5 535.4 58.5C531.6 58.5 528.1 59.5 525.3 61.3C522.7 56.3 516.6 52.8 509.6 52.8C501.2 52.8 494.3 57.8 492.8 64.5C489.7 62.5 485.9 61.3 481.7 61.3C471.7 61.3 463.6 68.1001 463.6 76.4001C463.6 83.7001 469.8 89.8 478.1 91.2C476.9 93.1 476.3 95.2001 476.3 97.4001C476.3 104.9 483.6 111 492.6 111C496.6 111 500.3 109.8 503.2 107.7C506 111.7 511.2 114.3 517.2 114.3C524.6 114.3 530.8 110.2 532.8 104.6C535 105.7 537.5 106.3 540.2 106.3C548.2 106.3 554.7 100.9 554.7 94.3001C554.6 91.2001 553.1 88.3 550.7 86.1Z" fill="url(#paint11_linear_2267_1193)"/>
<path d="M571.3 126.5C572 116.3 562.6 107.5 550.3 106.9C545.2 106.7 540.5 107.9 536.6 110C533.3 103.1 525.5 98 516 97.5C509.5 97.2 503.4 99.1 498.9 102.4C496.1 98.2 490.9 95.2 484.7 94.9C479.1 94.6 474 96.6 470.6 99.9C467.3 97.8 463.2 96.5 458.7 96.3C446.6 95.7 436.3 103.4 435.6 113.5C435.5 115.3 435.7 117.1 436.2 118.8C435.7 119.5 435.3 120.2 434.9 120.9C423.1 120.6 413.1 128.2 412.4 138.1C411.7 148.1 420.9 156.8 433 157.3C434.3 157.4 435.6 157.3 436.9 157.2C439.1 162.3 444.8 166 451.7 166.4C454.7 166.5 457.6 166 460.2 165C462.5 173 470.8 179.1 481.1 179.6C490.7 180.1 499.2 175.5 503.1 168.7C506.7 171.1 511.1 172.6 516 172.8C525.5 173.3 534 168.8 537.9 162C539 162.3 540.2 162.4 541.4 162.5C550.5 162.9 558.2 157.2 558.7 149.6C558.9 147.1 558.2 144.7 557 142.7C564.9 140.2 570.7 134 571.3 126.5Z" fill="url(#paint12_linear_2267_1193)"/>
<path d="M253.1 91.5C253.7 83.3 246.2 76.3 236.4 75.9C232.4 75.7 228.6 76.7 225.5 78.4C222.9 72.9 216.6 68.8 209 68.5C203.8 68.3 199 69.8 195.4 72.4C193.2 69 189 66.6 184.1 66.4C179.7 66.2 175.6 67.8 172.9 70.4C170.2 68.7 167 67.7 163.4 67.5C153.8 67 145.5 73.2 145 81.2C144.9 82.7 145.1 84.1 145.5 85.5C145.1 86 144.8 86.6 144.5 87.2C135.1 87 127.1 93 126.5 100.9C125.9 108.9 133.3 115.8 142.9 116.3C143.9 116.4 145 116.3 146 116.2C147.8 120.3 152.3 123.3 157.8 123.5C160.2 123.6 162.5 123.2 164.6 122.3C166.4 128.7 173 133.6 181.3 134C189 134.4 195.8 130.7 198.8 125.3C201.6 127.2 205.2 128.4 209.1 128.6C216.7 129 223.5 125.4 226.6 120C227.5 120.2 228.4 120.4 229.4 120.4C236.6 120.7 242.8 116.2 243.2 110.1C243.3 108.1 242.8 106.2 241.8 104.6C248 102.5 252.7 97.5 253.1 91.5Z" fill="url(#paint13_linear_2267_1193)"/>
<path d="M352.8 133.5C352.1 133.2 351.5 132.9 350.8 132.8C351.9 129.7 350.4 126.3 347 124.6C344.8 123.5 342.3 123.3 340.1 123.9C339.8 121.3 338.1 118.8 335.2 117.4C330.4 115 324.1 116.3 321.2 120.3C321.1 120.5 320.9 120.7 320.8 120.9C320.6 120.8 320.5 120.7 320.3 120.6C315.7 118.3 309.8 119.5 307.1 123.4C306 124.9 305.6 126.5 305.8 128.1C303.2 128 300.5 129.1 299.1 131.1C297 134.1 298.1 137.9 301.7 139.7C302.9 140.3 304.3 140.6 305.7 140.6C305 142.5 305.8 144.6 308 145.7C308.5 145.9 309 146.1 309.5 146.2C310.1 148.1 311.5 149.9 313.7 151C314.1 151.4 314.6 151.8 315.2 152.1C318.2 153.6 322.2 152.9 324.1 150.4C324.3 150.2 324.6 150.1 324.8 149.9C325.1 150.1 325.4 150.3 325.7 150.5C327.9 151.6 330.6 151.2 332.3 149.7C333 150.5 333.8 151.1 334.9 151.6C339.3 153.8 344.9 152.6 347.5 149C348.3 147.8 348.8 146.5 348.8 145.3C351.5 145.4 354.1 144.3 355.6 142.3C357.4 139.1 356.3 135.3 352.8 133.5Z" fill="url(#paint14_linear_2267_1193)"/>
<path d="M486.7 84.7C485.7 84.2 484.6 83.8 483.5 83.6C485.2 78.9 482.9 73.6 477.6 70.9C474.2 69.2 470.3 68.9 466.9 69.8C466.4 65.8 463.8 62 459.3 59.7C451.8 55.9 442.1 58 437.6 64.2C437.4 64.5 437.2 64.8 437 65.1C436.7 64.9 436.5 64.8 436.2 64.7C429.1 61.2 420 63.1 415.7 69C414.1 71.3 413.4 73.8 413.6 76.3C409.5 76.2 405.5 77.8 403.2 81C399.9 85.6 401.7 91.5 407.2 94.3C409.1 95.3 411.2 95.7 413.3 95.7C412.1 98.6 413.5 101.9 416.8 103.6C417.5 104 418.3 104.2 419.1 104.4C420 107.4 422.2 110.1 425.6 111.8C425.6 111.8 425.6 111.8 425.7 111.8C426.4 112.4 427.2 113 428.1 113.5C432.8 115.9 438.9 114.7 441.9 110.9C442.3 110.6 442.7 110.4 443 110.1C443.4 110.4 443.9 110.8 444.4 111C447.8 112.7 452 112.1 454.5 109.7C455.6 110.9 456.9 111.9 458.5 112.7C465.3 116.1 474 114.3 478.1 108.6C479.4 106.8 480.1 104.8 480.1 102.8C484.2 103 488.3 101.3 490.6 98.1C493.9 93.3 492.2 87.4 486.7 84.7Z" fill="url(#paint15_linear_2267_1193)"/>
<path d="M410.6 138.5C411.9 135.2 409.8 131.6 405.8 130.5C405.1 130.3 404.4 130.2 403.7 130.2C404.3 125.9 401.2 121.7 396.1 120.3C391.3 119 386.2 120.5 383.4 123.8C379.7 123.1 375.8 124.9 374.6 128V128.1C374.1 127.9 373.6 127.7 373.1 127.5C368.6 126.3 363.8 128.3 362.3 132C362.1 132.5 362 133.1 361.9 133.6C358.5 134 355.6 136 354.4 138.9C352.8 143 355.4 147.5 360.4 148.8C362.1 149.3 363.9 149.3 365.6 149C365.9 152.6 368.8 156 373.3 157.2C377.9 158.5 382.8 157.1 385.6 154.2C386.7 155.4 388.1 156.3 389.9 156.8C393.9 157.9 398.3 156.5 400.4 153.6C404 153.3 407.3 151.3 408.5 148.3C409.4 146.1 409 143.7 407.7 141.8C409 141 410 139.9 410.6 138.5Z" fill="url(#paint16_linear_2267_1193)"/>
<path d="M334.4 100.8C338 91.9 332.2 82.3 321.5 79.3C319.7 78.8 317.8 78.5 316 78.5C317.6 67 309.3 55.7 295.6 51.9C282.7 48.3 268.9 52.4 261.5 61.2C251.4 59.4 241.2 64.1 237.8 72.4C237.8 72.5 237.7 72.6 237.7 72.7C236.4 72.1 235.1 71.6 233.7 71.2C221.7 67.9 208.8 73.3 204.8 83.2C204.2 84.6 203.9 86.1 203.7 87.5C194.7 88.7 186.7 93.9 183.6 101.7C179.2 112.7 186.3 124.7 199.6 128.4C204.3 129.7 209.1 129.8 213.6 128.9C214.5 138.7 222.3 147.6 234.1 150.9C246.4 154.3 259.6 150.7 267.2 142.7C270 145.8 274 148.2 278.8 149.6C289.7 152.6 301.3 148.9 307.1 141.1C316.8 140.4 325.6 135 328.9 126.8C331.3 120.8 330.3 114.5 326.7 109.5C330.1 107.4 332.9 104.4 334.4 100.8Z" fill="url(#paint17_linear_2267_1193)"/>
<path d="M240.3 62.5C240.3 57.1 235.1 52.8 228.6 52.8C228.1 52.8 227.6 52.8 227.1 52.9C226.1 49.9 223.3 47.5 219.4 46.7C214.5 45.7 209.6 47.6 207.4 51.2C206.6 50.8 205.7 50.5 204.7 50.3C199.3 49.2 193.8 51.9 192.5 56.4C192.2 56.3 191.9 56.2 191.5 56.1C186.8 55.1 182.1 57.5 180.9 61.4C179.7 65.3 182.6 69.2 187.2 70.2C187.2 70.2 187.3 70.2 187.4 70.2C187.1 70.7 186.9 71.2 186.8 71.7C186 75 188.6 78.3 192.6 79C193.9 79.2 195.2 79.1 196.4 78.8C197.5 81.7 200.2 84 204 84.8C208.3 85.7 212.6 84.3 215.1 81.5C215.8 81.8 216.5 82 217.3 82.2C222.9 83.4 228.5 80.5 230 75.9C230.4 74.7 230.4 73.4 230.1 72.3C235.8 71.6 240.3 67.5 240.3 62.5Z" fill="url(#paint18_linear_2267_1193)"/>
<path d="M516.3 57.4C516.3 38.3 497.7 22.8 474.8 22.8C473 22.8 471.2 22.9 469.4 23.1C465.9 12.6 455.9 3.80002 442.2 1.00002C424.9 -2.59998 407.5 4.30002 399.6 16.9C396.7 15.4 393.4 14.3 390 13.6C370.8 9.60002 351.3 19.3 346.5 35.3V35.5C345.4 35.1 344.2 34.8 343 34.6C326.4 31.1 309.6 39.5 305.5 53.3C301.3 67.1 311.4 81.1 328 84.6C328.2 84.6 328.4 84.7 328.5 84.7C327.5 86.3 326.8 88.1 326.4 90C323.6 101.9 332.8 113.4 347.1 115.8C351.8 116.6 356.4 116.3 360.6 115.1C364.3 125.3 374.2 133.7 387.6 136.5C402.8 139.7 418.2 134.7 427 124.9C429.4 125.9 432 126.7 434.7 127.3C454.6 131.5 474.7 121.4 479.7 104.9C481 100.5 481.1 96.1 480.2 92C500.5 89.5 516.3 75 516.3 57.4Z" fill="url(#paint19_linear_2267_1193)"/>
</g>
<defs>
<linearGradient id="paint0_linear_2267_1193" x1="437.515" y1="108.53" x2="437.515" y2="166.619" gradientUnits="userSpaceOnUse">
<stop stop-color="white"/>
<stop offset="1" stop-color="#E3F4FE" stop-opacity="0"/>
</linearGradient>
<linearGradient id="paint1_linear_2267_1193" x1="363.876" y1="47.5978" x2="363.876" y2="113.067" gradientUnits="userSpaceOnUse">
<stop stop-color="white"/>
<stop offset="1" stop-color="#E3F4FE" stop-opacity="0"/>
</linearGradient>
<linearGradient id="paint2_linear_2267_1193" x1="246.176" y1="55.8743" x2="246.176" y2="90.3085" gradientUnits="userSpaceOnUse">
<stop stop-color="white"/>
<stop offset="1" stop-color="#E3F4FE" stop-opacity="0"/>
</linearGradient>
<linearGradient id="paint3_linear_2267_1193" x1="275.379" y1="115.492" x2="275.379" y2="183.817" gradientUnits="userSpaceOnUse">
<stop stop-color="white"/>
<stop offset="1" stop-color="#E3F4FE" stop-opacity="0"/>
</linearGradient>
<linearGradient id="paint4_linear_2267_1193" x1="213.135" y1="129.613" x2="213.135" y2="165.876" gradientUnits="userSpaceOnUse">
<stop stop-color="white"/>
<stop offset="1" stop-color="#E3F4FE" stop-opacity="0"/>
</linearGradient>
<linearGradient id="paint5_linear_2267_1193" x1="82.0138" y1="11.4942" x2="82.0138" y2="109.479" gradientUnits="userSpaceOnUse">
<stop stop-color="white"/>
<stop offset="1" stop-color="#E3F4FE" stop-opacity="0"/>
</linearGradient>
<linearGradient id="paint6_linear_2267_1193" x1="545.6" y1="115.2" x2="545.6" y2="160.2" gradientUnits="userSpaceOnUse">
<stop stop-color="white"/>
<stop offset="1" stop-color="#E3F4FE" stop-opacity="0"/>
</linearGradient>
<linearGradient id="paint7_linear_2267_1193" x1="132.9" y1="43.6" x2="132.9" y2="163.3" gradientUnits="userSpaceOnUse">
<stop stop-color="white"/>
<stop offset="1" stop-color="#E3F4FE" stop-opacity="0"/>
</linearGradient>
<linearGradient id="paint8_linear_2267_1193" x1="52.7502" y1="52.8" x2="52.7502" y2="114.3" gradientUnits="userSpaceOnUse">
<stop stop-color="white"/>
<stop offset="1" stop-color="#E3F4FE" stop-opacity="0"/>
</linearGradient>
<linearGradient id="paint9_linear_2267_1193" x1="133.5" y1="43.6" x2="133.5" y2="163.3" gradientUnits="userSpaceOnUse">
<stop stop-color="white"/>
<stop offset="1" stop-color="#E3F4FE" stop-opacity="0"/>
</linearGradient>
<linearGradient id="paint10_linear_2267_1193" x1="145.5" y1="132.2" x2="145.5" y2="168.1" gradientUnits="userSpaceOnUse">
<stop stop-color="white"/>
<stop offset="1" stop-color="#E3F4FE" stop-opacity="0"/>
</linearGradient>
<linearGradient id="paint11_linear_2267_1193" x1="509.15" y1="52.8" x2="509.15" y2="114.3" gradientUnits="userSpaceOnUse">
<stop stop-color="white"/>
<stop offset="1" stop-color="#E3F4FE" stop-opacity="0"/>
</linearGradient>
<linearGradient id="paint12_linear_2267_1193" x1="491.85" y1="94.8704" x2="491.85" y2="179.637" gradientUnits="userSpaceOnUse">
<stop stop-color="white"/>
<stop offset="1" stop-color="#E3F4FE" stop-opacity="0"/>
</linearGradient>
<linearGradient id="paint13_linear_2267_1193" x1="189.8" y1="66.3832" x2="189.8" y2="134.03" gradientUnits="userSpaceOnUse">
<stop stop-color="white"/>
<stop offset="1" stop-color="#E3F4FE" stop-opacity="0"/>
</linearGradient>
<linearGradient id="paint14_linear_2267_1193" x1="327.247" y1="116.196" x2="327.247" y2="152.884" gradientUnits="userSpaceOnUse">
<stop stop-color="white"/>
<stop offset="1" stop-color="#E3F4FE" stop-opacity="0"/>
</linearGradient>
<linearGradient id="paint15_linear_2267_1193" x1="446.914" y1="57.7994" x2="446.914" y2="114.74" gradientUnits="userSpaceOnUse">
<stop stop-color="white"/>
<stop offset="1" stop-color="#E3F4FE" stop-opacity="0"/>
</linearGradient>
<linearGradient id="paint16_linear_2267_1193" x1="382.457" y1="119.834" x2="382.457" y2="157.688" gradientUnits="userSpaceOnUse">
<stop stop-color="white"/>
<stop offset="1" stop-color="#E3F4FE" stop-opacity="0"/>
</linearGradient>
<linearGradient id="paint17_linear_2267_1193" x1="258.883" y1="50.5965" x2="258.883" y2="152.179" gradientUnits="userSpaceOnUse">
<stop stop-color="white"/>
<stop offset="1" stop-color="#E3F4FE" stop-opacity="0"/>
</linearGradient>
<linearGradient id="paint18_linear_2267_1193" x1="210.464" y1="46.4349" x2="210.464" y2="85.0713" gradientUnits="userSpaceOnUse">
<stop stop-color="white"/>
<stop offset="1" stop-color="#E3F4FE" stop-opacity="0"/>
</linearGradient>
<linearGradient id="paint19_linear_2267_1193" x1="410.424" y1="0.048584" x2="410.424" y2="137.464" gradientUnits="userSpaceOnUse">
<stop stop-color="white"/>
<stop offset="1" stop-color="#E3F4FE" stop-opacity="0"/>
</linearGradient>
<clipPath id="clip0_2267_1193">
<rect width="576" height="183.6" fill="white"/>
</clipPath>
</defs>
</svg>
