<svg width="83" height="59" viewBox="0 0 83 59" fill="none" xmlns="http://www.w3.org/2000/svg">
<path d="M80.6849 17.8515C77.1849 12.4515 69.9848 9.65145 62.9848 10.6515C62.7848 9.25145 62.2848 7.85145 61.4848 6.45145C57.8848 0.951454 49.5848 -1.14854 42.9848 1.85146C41.5848 2.45146 40.3848 3.25145 39.3848 4.15145C35.2848 0.551451 28.5848 -0.448548 23.0848 2.05145C16.7848 4.85145 14.1848 11.2515 16.9848 16.6515C13.8848 16.0515 10.5848 16.3515 7.58484 17.7515C0.884845 20.7515 -1.61516 27.6515 1.98484 33.1515C3.78484 36.0515 6.98483 37.9515 10.3848 38.7515C8.28483 42.5515 8.28483 47.1515 10.8848 51.1515C15.2848 57.9515 25.4848 60.5514 33.5848 56.8514C35.9848 55.7514 37.8848 54.3515 39.2848 52.6515C44.0848 58.3515 53.3848 60.2515 60.8848 56.9515C65.1848 55.0515 68.0849 51.7515 69.1849 48.0515C71.4849 48.3515 73.8848 48.0515 75.9848 47.0515C81.3848 44.6515 83.3848 39.0515 80.4848 34.6515C80.0848 34.0515 79.5848 33.4515 79.0848 32.9515C83.0848 28.6515 83.8848 22.7515 80.6849 17.8515Z" fill="url(#paint0_linear_2267_1195)"/>
<defs>
<linearGradient id="paint0_linear_2267_1195" x1="41.4991" y1="0.48114" x2="41.4991" y2="58.57" gradientUnits="userSpaceOnUse">
<stop stop-color="white"/>
<stop offset="1" stop-color="#E3F4FE" stop-opacity="0"/>
</linearGradient>
</defs>
</svg>
