<svg width="93" height="66" viewBox="0 0 93 66" fill="none" xmlns="http://www.w3.org/2000/svg">
<path d="M90.7221 19.6022C86.7221 13.4022 78.6221 10.4022 70.7221 11.5022C70.5221 9.90223 69.9221 8.30224 69.0221 6.80224C65.0221 0.502237 55.6221 -1.79777 48.1221 1.50223C46.5221 2.20223 45.2221 3.10224 44.0221 4.10224C39.3221 0.00223637 31.8221 -1.09777 25.6221 1.70223C18.5221 4.90223 15.6221 12.1022 18.7221 18.2022C15.2221 17.6022 11.4221 17.9022 8.12214 19.4022C0.622136 22.8022 -2.17785 30.6022 1.82215 36.8022C3.92215 40.0022 7.42215 42.2022 11.3221 43.1022C9.02215 47.4022 9.02212 52.6022 11.9221 57.1022C16.9221 64.8022 28.3221 67.7022 37.6221 63.5022C40.3221 62.3022 42.4221 60.7022 44.1221 58.8022C49.5221 65.2022 60.0221 67.4022 68.6221 63.6022C73.5221 61.4022 76.8221 57.7022 78.0221 53.5022C80.6221 53.8022 83.3221 53.5022 85.7221 52.4022C91.8221 49.7022 94.0222 43.4022 90.8222 38.4022C90.4222 37.7022 89.8221 37.1022 89.2221 36.5022C93.5221 31.8022 94.3221 25.2022 90.7221 19.6022Z" fill="url(#paint0_linear_2267_1196)"/>
<defs>
<linearGradient id="paint0_linear_2267_1196" x1="46.4985" y1="0" x2="46.4985" y2="65.4689" gradientUnits="userSpaceOnUse">
<stop stop-color="white"/>
<stop offset="1" stop-color="#CCDAE7"/>
</linearGradient>
</defs>
</svg>
