<svg width="77" height="112" viewBox="0 0 77 112" fill="none" xmlns="http://www.w3.org/2000/svg">
<path d="M36.4779 94.1117C35.1298 95.3781 35.7642 96.5654 36.6364 97.7526C37.1122 98.3859 37.8259 99.0982 37.9052 99.8106C38.2224 103.214 40.4428 104.481 43.4562 105.035C44.0113 105.114 44.4871 105.193 44.9629 105.272C45.2008 105.51 45.3594 105.589 45.4387 105.826C47.104 111.208 52.5757 112.95 57.3337 111.683C59.7127 111.05 62.0124 110.259 63.9155 108.596C66.8496 106.143 68.6735 103.372 67.1668 99.3357C69.4665 97.436 72.4006 96.0905 72.4006 92.5286C72.4006 90.5498 72.0834 88.7293 70.3388 87.4629C71.8455 82.5555 71.6076 81.9223 66.5324 78.4396C66.0566 74.2445 65.5015 69.9703 65.105 65.7753C64.9464 64.5088 64.7085 63.1633 66.1359 62.0551C74.3038 55.723 77.3965 47.0163 76.9207 37.0431C76.4449 26.7534 72.8764 17.6509 65.6601 10.2898C59.0783 3.64099 50.7518 0.71237 41.4737 0.0791541C31.0062 -0.633213 21.966 2.69117 14.036 9.33993C8.40576 14.089 3.88568 19.7088 1.74459 26.9117C-1.9032 39.1011 0.237894 50.4198 7.92996 60.6304C12.8465 67.2 19.2698 71.4742 27.0412 73.8488C28.1514 74.1654 29.1823 74.7986 30.2132 75.2735C30.689 78.3604 31.0062 81.289 31.5613 84.2177C32.275 87.7795 32.9887 88.3336 36.5571 87.8587C38.5396 87.6212 40.5221 87.0671 42.5046 86.5922C49.4037 84.6926 56.3028 82.8721 63.1225 80.8141C65.1843 80.1809 66.691 80.9724 68.277 81.764C70.1802 82.7138 69.9423 85.5632 67.8805 86.7505C67.0082 87.3046 65.898 87.6212 64.8671 87.8587C56.6993 89.6792 48.5314 91.9746 40.0463 92.2912C38.4603 92.3703 36.795 92.3703 35.2884 92.1329C34.1782 91.9746 33.068 91.2622 32.1164 90.8664C31.9578 92.2912 32.4336 93.0827 34.0989 93.6368C34.8919 93.8742 35.6849 94.0325 36.4779 94.27C46.9454 93.6367 57.1751 91.9746 67.2461 88.8085C68.6735 88.3336 69.4665 88.7293 69.9423 90.3915C68.9114 90.9456 67.9598 91.6579 66.9289 91.9746C60.8229 93.7951 54.7168 95.6947 48.5314 97.1986C45.9145 97.8318 42.9804 97.7527 40.2842 97.5943C38.2224 97.436 36.3193 96.7237 36.4779 94.1117ZM45.9938 83.9011C42.9011 84.6926 39.8084 85.6424 36.7157 86.2756C34.1782 86.7505 33.6231 86.3548 33.2266 83.9011C32.8301 81.9223 32.5129 79.9435 32.4336 77.8855C32.3543 74.6403 30.6097 73.0572 27.7549 72.2657C27.2791 72.1074 26.724 71.9491 26.2482 71.7908C13.243 67.0417 5.15447 57.8601 2.37899 44.4834C-0.158605 32.294 3.72708 21.6876 12.5293 13.0601C22.9176 2.77032 35.2884 -0.712365 49.5623 3.08693C56.3028 4.90742 62.2502 8.0735 66.6117 13.7724C73.1143 22.4 76.207 31.9774 75.0175 42.7421C74.2245 50.1032 71.1318 56.1979 65.1843 60.6304C63.6776 61.7385 63.2018 63.005 63.4397 64.7463C63.7569 67.5958 64.0741 70.4452 64.312 73.2947C64.4706 75.036 64.5499 76.8565 64.6292 78.677C61.4573 79.4686 58.6025 80.1809 55.827 80.8933C55.5891 80.5767 55.4305 80.4184 55.3512 80.2601C54.3996 74.6403 53.2101 68.9413 52.4964 63.2424C51.7827 57.9392 52.655 52.8735 55.2719 48.1244C56.2235 46.4622 57.0165 44.7209 57.6509 42.9004C59.6334 37.4389 57.3337 34.3519 51.5448 34.5102C51.2276 34.5102 50.9104 34.5894 50.5932 34.5894C47.5798 34.9852 44.8043 36.4099 41.7116 36.6474C40.6014 36.7265 39.4912 37.8346 38.5396 38.6261C37.9052 39.1802 37.5087 39.9717 37.1915 40.4466C31.7199 38.2304 30.2925 38.8636 27.1998 44.5625C26.4861 44.5625 25.7724 44.5625 25.0587 44.5625C21.6488 44.6417 20.3007 46.1456 20.38 49.5491C20.4593 53.0318 22.759 54.9314 25.4552 56.3562C27.9135 57.6226 30.5304 58.7307 33.1473 59.4431C37.588 60.6304 39.8084 63.7173 41.1565 67.7541C42.6632 73.1364 44.2492 78.3604 45.9938 83.9011ZM47.3419 37.0431C48.7693 36.7265 49.8002 36.3307 50.9104 36.2516C55.9856 35.8558 57.6509 37.9929 55.9063 42.7421C55.1926 44.7208 54.1617 46.6205 53.2101 48.5201C51.2276 52.3986 50.276 56.5145 50.5932 60.8678C50.8311 64.588 51.4655 68.229 52.0206 71.9491C52.4964 75.036 53.2101 78.123 53.8445 81.5265C51.5448 82.2389 49.5623 82.7929 47.4212 83.4261C47.0247 82.3972 46.7075 81.6057 46.4696 80.8141C45.2008 76.4608 44.0113 72.0283 42.5839 67.6749C41.1565 63.0049 38.6982 59.1265 33.4645 57.9392C32.4336 57.7018 31.4027 57.3852 30.4511 56.9102C28.31 55.9604 26.2482 54.9315 24.1864 53.8233C22.6797 53.0318 22.0453 51.5279 21.7281 49.8657C21.4109 48.0452 22.2039 46.7788 23.6313 46.383C25.6138 45.9081 26.8826 46.4622 27.5963 48.3618C27.7549 48.7576 27.8342 49.1534 27.9928 49.5491C28.7065 50.8947 29.8167 51.3696 30.8476 50.6572C31.8785 49.9449 32.0371 48.8368 31.1648 47.6495C30.8476 47.2537 30.4511 46.858 30.0546 46.4622C28.9444 45.5124 29.0237 44.4834 29.5788 43.2961C30.7683 40.6841 32.9094 40.2883 35.3677 42.2671C35.2091 43.2961 34.9712 44.3251 34.8919 45.4332C34.7333 46.6996 34.9712 47.9661 36.3193 48.2827C37.2708 48.5201 38.7775 48.441 39.2533 47.8078C39.8877 47.0954 39.967 45.6707 39.7291 44.6417C39.4912 43.5336 38.6982 42.6629 37.9845 41.4756C39.4912 40.0509 40.5221 38.1512 42.9804 38.3095C42.9804 39.9717 42.8218 41.4756 42.9804 42.9004C43.2183 44.6417 44.4871 45.6707 46.1524 46.0664C47.6591 46.4622 49.7209 45.7498 50.4346 44.6417C51.3862 43.1378 50.8311 41.7131 49.9588 40.4466C49.483 39.4968 48.6107 38.547 47.3419 37.0431ZM39.0947 99.494C50.276 99.9689 60.2678 95.6155 70.656 92.4495C70.4974 95.3781 68.4356 96.6445 66.2945 97.436C61.5366 99.2565 56.6993 100.919 51.862 102.502C49.9588 103.135 47.897 103.372 45.9145 103.531C42.346 103.768 40.3635 102.581 39.0947 99.494ZM65.5015 99.9689C66.6117 102.343 65.8187 104.243 64.2327 105.984C61.6159 108.834 58.2853 110.021 54.6375 110.496C51.2276 110.892 47.9763 108.438 47.0247 105.589C53.1308 103.768 59.3162 101.869 65.5015 99.9689ZM44.725 40.6049C44.8043 40.4466 45.1215 39.4177 45.7559 39.0219C46.0731 38.7845 47.104 39.6551 47.7384 40.13C48.2142 40.5258 48.69 41.0799 48.8486 41.6339C49.0865 42.3463 49.2451 43.4544 48.8486 43.8502C48.4521 44.3251 47.3419 44.5625 46.6282 44.4042C45.1215 44.0876 44.4871 42.9004 44.725 40.6049ZM38.6982 46.858C36.1607 46.1456 36.1607 46.0664 37.6673 43.771C37.9845 44.8 38.3017 45.5915 38.6982 46.858Z" fill="black"/>
</svg>
