<?xml version="1.0" encoding="utf-8"?>
<!-- Generator: Adobe Illustrator 22.1.0, SVG Export Plug-In . SVG Version: 6.00 Build 0)  -->
<svg version="1.1" id="ship" xmlns="http://www.w3.org/2000/svg" xmlns:xlink="http://www.w3.org/1999/xlink" x="0px" y="0px"
	 viewBox="0 0 694.9 217.6" style="enable-background:new 0 0 694.9 217.6;" xml:space="preserve">
<style type="text/css">
	.st0{fill:#6D6E71;}
	.st1{fill:#104470;}
	.st2{fill:#DDAE2B;}
	.st3{fill:#1B67A3;}
	.st4{fill:#F1F2F2;}
	.st5{fill:#D1D3D4;}
	.st6{fill:#231F20;}
	.st7{fill:#A1A3A6;}
	.st8{fill:#F16522;}
	.st9{fill:#E84E21;}
	.st10{fill:#DD3F20;}
	.st11{fill:#ED2924;}
	.st12{fill:#A7A9AC;}
	.st13{fill:#F15A22;}
	.st14{fill:#DEDFE1;}
	.st15{fill:#FFFFFF;}
	.st16{font-family:'ProximaNova-Bold';}
	.st17{font-size:4.55px;}
	.st18{opacity:0.27;fill:url(#SVGID_1_);enable-background:new    ;}
	.st19{opacity:0.27;fill:url(#SVGID_2_);enable-background:new    ;}
</style>
<title>Ship</title>
<g>
	<g id="Ship">
		<polygon class="st0" points="685.7,144.5 694.9,198.7 687.3,217.6 43.8,217.6 43.7,217.3 12.9,157.1 13.1,157 13.9,157.1 
			44.3,216.7 686.7,216.7 694,198.6 688.5,166.3 688.8,166.3 688.8,165.4 688.3,165.4 685.9,151.2 686.3,151.2 686.3,150.3 
			685.8,150.3 684.9,145.3 683.4,145.3 683.4,145.1 684.2,144.7 684.1,144.5 		"/>
		<polygon class="st1" points="688.5,166.3 694,198.6 686.7,216.7 44.3,216.7 13.9,157.1 129.1,164.2 214.5,166.3 		"/>
		<polygon class="st0" points="688.8,165.4 688.8,166.3 688.5,166.3 688.3,165.4 		"/>
		<polygon class="st2" points="688.3,165.4 688.5,166.3 214.5,166.3 129.1,164.2 13.9,157.1 13.4,156.3 128.6,163.4 213.9,165.5 
			688,165.5 688,165.4 		"/>
		<path class="st3" d="M685.9,151.2l2.4,14.3H688l-0.1-0.8H213.9l-85.3-2.1L13,155.4l-6.5-12.8c10.1,0.7,107.1,6.3,137.9,8l82.4,2.2
			l99.2-0.4v1.4h12.9v-1.4L685.9,151.2z"/>
		<polygon class="st2" points="688,165.4 688,165.5 213.9,165.5 128.6,163.4 13.4,156.3 13.4,156.2 129.1,163.3 214.5,165.4 		"/>
		<polygon class="st2" points="687.8,164.6 688,165.4 214.5,165.4 129.1,163.3 13.4,156.2 13,155.4 128.6,162.5 213.9,164.6 		"/>
		<polygon class="st0" points="686.3,150.3 686.3,151.2 685.9,151.2 685.8,150.3 		"/>
		<polygon class="st0" points="685.8,150.3 685.9,151.2 338.9,152.4 338.9,151.5 		"/>
		<polygon class="st4" points="684.9,145.3 685.8,150.3 338.9,151.5 338.9,145.3 683.4,145.3 		"/>
		<polygon class="st0" points="684.1,144.5 684.2,144.7 683.4,145.1 683.1,144.5 		"/>
		<polygon class="st0" points="682.4,141.5 684.1,144.5 683.1,144.5 681.9,142.4 668.3,142.4 664.3,133.6 669,133.6 669,131.8 
			652.3,131.8 651.9,130.9 669,130.9 669,131.4 669.9,131.4 669.9,130.9 669.9,130.9 669.9,134.5 665.7,134.5 668.9,141.5 		"/>
		<polygon class="st0" points="683.4,145.1 683.4,145.3 338.9,145.3 338.9,144.5 657.4,144.5 657.7,145.1 658.5,144.7 658.4,144.5 
			683.1,144.5 		"/>
		<polygon class="st4" points="681.9,142.4 683.1,144.5 658.4,144.5 652.3,131.8 669,131.8 669,133.6 664.3,133.6 668.3,142.4 		"/>
		<rect x="669" y="130.9" class="st0" width="0.9" height="0.5"/>
		<polygon class="st0" points="669.9,123.4 669.9,130.9 669,130.9 669,124.3 624.3,124.3 624.3,123.4 		"/>
		<polygon class="st0" points="658.4,144.5 658.5,144.7 657.7,145.1 657.4,144.5 		"/>
		<polygon class="st0" points="652.3,131.8 658.4,144.5 657.4,144.5 650.7,130.5 627.8,130.5 627.8,130.4 628.6,130.4 628.6,129.6 
			651.3,129.6 651.9,130.9 651.7,130.9 651.7,131.8 		"/>
		<path class="st4" d="M650.7,130.5l6.7,14H338.9v-10.4H326v10.4h-2.3l0.2-0.1l-5-8.2h-53.8l4.1,8.3H238l-60.6-3.4l0.1-1.2h7.2v-9.4
			L650.7,130.5L650.7,130.5z M650.1,143.4v-8h-5.6v8H650.1z M632.5,143.4v-8H627v8H632.5z M614.2,143.4v-8h-5.5v8H614.2z
			 M596.6,143.4v-8H591v8H596.6z M580.1,143.4v-8h-5.6v8H580.1z M562.5,143.4v-8H557v8H562.5z M544.2,143.4v-8h-5.5v8H544.2z
			 M526.6,143.4v-8H521v8H526.6z M509.6,143.4v-8H504v8H509.6z M492.1,143.4v-8h-5.6v8H492.1z M473.7,143.4v-8h-5.6v8H473.7z
			 M456.1,143.4v-8h-5.6v8H456.1z M438.4,143.4v-8h-5.6v8H438.4z M420.8,143.4v-8h-5.6v8H420.8z M402.4,143.4v-8h-5.6v8H402.4z
			 M384.8,143.4v-8h-5.6v8H384.8z M356.4,143.4v-8h-5.6v8H356.4z M262.3,143.4v-8h-5.6v8H262.3z M255.9,143.4v-8h-5.6v8H255.9z
			 M243.9,143.4v-8h-5.6v8H243.9z M237.6,143.4v-8H232v8H237.6z"/>
		<polygon class="st0" points="651.9,130.9 652.3,131.8 651.7,131.8 651.7,130.9 		"/>
		<path class="st5" d="M650.1,135.4v8h-5.6v-8H650.1z M649.3,142.5v-6.3h-3.9v6.3L649.3,142.5z"/>
		<rect x="645.4" y="136.2" class="st0" width="3.9" height="6.3"/>
		<path class="st5" d="M632.5,135.4v8H627v-8H632.5z M631.7,142.5v-6.3h-3.9v6.3L631.7,142.5z"/>
		<rect x="627.8" y="136.2" class="st0" width="3.9" height="6.3"/>
		<rect x="627.8" y="129.6" class="st0" width="0.9" height="0.7"/>
		<polygon class="st0" points="628.6,126.7 628.6,129.6 627.8,129.6 627.8,127.5 623.4,127.5 623.4,124.3 623.8,124.3 624.3,124.3 
			624.3,126.7 		"/>
		<polygon class="st0" points="627.8,130.4 627.8,130.5 318.9,130.5 318.9,130.2 319.7,129.9 319.6,129.6 439,129.6 439,130.1 
			439.8,130.1 439.8,129.6 455.2,129.6 455.2,130.1 456.1,130.1 456.1,129.6 482.7,129.6 482.7,130.1 483.5,130.1 483.5,129.6 
			484.8,129.6 484.8,130.1 485.6,130.1 485.6,129.6 496,129.6 497.8,129.6 497.8,130.1 498.7,130.1 498.7,129.6 510,129.6 
			510,129.7 510.9,129.7 510.9,129.6 511.6,129.6 511.6,129.7 512.4,129.7 512.4,129.6 523.7,129.6 523.7,129.7 524.6,129.7 
			524.6,129.6 536.8,129.6 536.8,130.1 537.7,130.1 537.7,129.6 541.5,129.6 541.5,129.7 542.3,129.7 542.3,129.6 551.3,129.6 
			551.3,129.7 552.2,129.7 552.2,129.6 627.8,129.6 		"/>
		<polygon class="st4" points="627.8,127.5 627.8,129.6 552.2,129.6 552.2,124.3 561,124.3 561,124.3 569,124.3 569,124.3 
			570.2,124.3 570.2,124.3 578.2,124.3 578.2,124.3 579.3,124.3 579.3,124.3 587.3,124.3 587.3,124.3 588.2,124.3 588.2,124.3 
			596.2,124.3 596.2,124.3 623.4,124.3 623.4,127.5 		"/>
		<rect x="623.8" y="123.4" class="st0" width="0.4" height="0.9"/>
		<polygon class="st0" points="624.3,109.9 624.3,123.4 623.8,123.4 623.4,123.4 623.4,110.4 537.7,110.4 483.9,110.4 483.9,103.5 
			482.8,101.6 484.7,103.2 484.8,103.3 484.8,109.5 511.5,109.5 555.6,109.5 555.8,110.1 556.6,109.8 556.5,109.5 623.4,109.5 
			623.4,109.9 		"/>
		<rect x="623.4" y="109.5" class="st0" width="0.9" height="0.4"/>
		<polygon class="st0" points="624.3,102.8 624.3,109.5 623.4,109.5 623.4,103.7 554.8,103.7 554.6,102.8 		"/>
		<rect x="623.4" y="123.4" class="st0" width="0.4" height="0.9"/>
		<polygon class="st0" points="623.4,123.4 623.4,124.3 596.2,124.3 596.2,123.4 599.1,123.4 599.1,124.3 605.4,124.3 605.4,123.4 
			607.3,123.4 607.3,124.3 613.6,124.3 613.6,123.4 615.3,123.4 615.3,124.3 621.6,124.3 621.6,123.4 		"/>
		<polygon class="st4" points="623.4,110.4 623.4,123.4 621.6,123.4 621.6,116.4 615.3,116.4 615.3,123.4 613.6,123.4 613.6,116.4 
			607.3,116.4 607.3,123.4 605.4,123.4 605.4,116.4 599.1,116.4 599.1,123.4 596.2,123.4 596.2,116.3 588.2,116.3 588.2,123.4 
			587.3,123.4 587.3,116.3 579.3,116.3 579.3,123.4 578.2,123.4 578.2,116.3 570.2,116.3 570.2,123.4 569,123.4 569,116.3 
			561,116.3 561,123.4 552.2,123.4 552.2,113.9 541.5,113.9 541.5,123.4 537.7,123.4 537.7,112.5 537.7,110.4 		"/>
		<polygon class="st5" points="623.4,103.7 623.4,109.5 556.5,109.5 554.8,103.7 		"/>
		<polygon class="st0" points="621.6,123.4 621.6,124.3 615.3,124.3 615.3,123.4 616.1,123.4 616.1,123.5 620.8,123.5 620.8,123.4 
					"/>
		<polygon class="st0" points="621.6,116.4 621.6,123.4 620.8,123.4 620.8,117.1 616.1,117.1 616.1,123.4 615.3,123.4 615.3,116.4 
					"/>
		<rect x="616.1" y="123.4" class="st0" width="4.8" height="0.1"/>
		<rect x="616.1" y="117.1" class="st6" width="4.8" height="6.3"/>
		<path class="st5" d="M614.2,135.4v8h-5.5v-8H614.2z M613.3,142.5v-6.3h-3.9v6.3L613.3,142.5z"/>
		<polygon class="st0" points="613.6,123.4 613.6,124.3 607.3,124.3 607.3,123.4 608.1,123.4 608.1,123.5 612.8,123.5 612.8,123.4 
					"/>
		<polygon class="st0" points="613.6,116.4 613.6,123.4 612.8,123.4 612.8,117.1 608.1,117.1 608.1,123.4 607.3,123.4 607.3,116.4 
					"/>
		<rect x="609.5" y="136.2" class="st0" width="3.9" height="6.3"/>
		<rect x="608.1" y="123.4" class="st0" width="4.8" height="0.1"/>
		<rect x="608.1" y="117.1" class="st6" width="4.8" height="6.3"/>
		<polygon class="st0" points="605.4,123.4 605.4,124.3 599.1,124.3 599.1,123.4 599.9,123.4 599.9,123.5 604.7,123.5 604.7,123.4 
					"/>
		<polygon class="st0" points="605.4,116.4 605.4,123.4 604.7,123.4 604.7,117.1 599.9,117.1 599.9,123.4 599.1,123.4 599.1,116.4 
					"/>
		<rect x="599.9" y="123.4" class="st0" width="4.8" height="0.1"/>
		<rect x="599.9" y="117.1" class="st6" width="4.8" height="6.3"/>
		<path class="st5" d="M596.6,135.4v8H591v-8H596.6z M595.8,142.5v-6.3h-3.9v6.3L595.8,142.5z"/>
		<rect x="588.2" y="124.3" class="st0" width="8" height="0"/>
		<polygon class="st0" points="596.2,123.4 596.2,124.3 588.2,124.3 588.2,123.4 589,123.4 589,123.5 595.3,123.5 595.3,123.4 		"/>
		<polygon class="st0" points="596.2,116.3 596.2,123.4 595.3,123.4 595.3,117.2 589,117.2 589,123.4 588.2,123.4 588.2,116.3 		"/>
		<rect x="591.9" y="136.2" class="st0" width="3.9" height="6.3"/>
		<rect x="589" y="123.4" class="st0" width="6.3" height="0"/>
		<rect x="589" y="117.2" class="st6" width="6.3" height="6.3"/>
		<rect x="587.3" y="123.4" class="st0" width="0.9" height="0.9"/>
		<rect x="579.3" y="124.3" class="st0" width="8" height="0"/>
		<polygon class="st0" points="587.3,123.4 587.3,124.3 579.3,124.3 579.3,123.4 580.1,123.4 580.1,123.5 586.4,123.5 586.4,123.4 
					"/>
		<polygon class="st0" points="587.3,116.3 587.3,123.4 586.4,123.4 586.4,117.2 580.1,117.2 580.1,123.4 579.3,123.4 579.3,116.3 
					"/>
		<rect x="580.1" y="123.4" class="st0" width="6.3" height="0"/>
		<rect x="580.1" y="117.2" class="st6" width="6.3" height="6.3"/>
		<path class="st5" d="M580.1,135.4v8h-5.6v-8H580.1z M579.3,142.5v-6.3h-3.9v6.3L579.3,142.5z"/>
		<rect x="575.4" y="136.2" class="st0" width="3.9" height="6.3"/>
		<rect x="578.2" y="123.4" class="st0" width="1.1" height="0.9"/>
		<rect x="570.2" y="124.3" class="st0" width="8" height="0"/>
		<polygon class="st0" points="578.2,123.4 578.2,124.3 570.2,124.3 570.2,123.4 571,123.4 571,123.5 577.3,123.5 577.3,123.4 		"/>
		<polygon class="st0" points="578.2,116.3 578.2,123.4 577.3,123.4 577.3,117.2 571,117.2 571,123.4 570.2,123.4 570.2,116.3 		"/>
		<rect x="571" y="123.4" class="st0" width="6.3" height="0"/>
		<rect x="571" y="117.2" class="st6" width="6.3" height="6.3"/>
		<rect x="569" y="123.4" class="st0" width="1.2" height="0.9"/>
		<rect x="561" y="124.3" class="st0" width="8" height="0"/>
		<polygon class="st0" points="569,123.4 569,124.3 561,124.3 561,123.4 561.9,123.4 561.9,123.5 568.2,123.5 568.2,123.4 		"/>
		<polygon class="st0" points="569,116.3 569,123.4 568.2,123.4 568.2,117.2 561.9,117.2 561.9,123.4 561,123.4 561,116.3 		"/>
		<rect x="561.9" y="123.4" class="st0" width="6.3" height="0"/>
		<rect x="561.9" y="117.2" class="st6" width="6.3" height="6.3"/>
		<path class="st5" d="M562.5,135.4v8H557v-8H562.5z M561.7,142.5v-6.3h-3.9v6.3L561.7,142.5z"/>
		<rect x="557.8" y="136.2" class="st0" width="3.9" height="6.3"/>
		<rect x="552.2" y="123.4" class="st0" width="8.8" height="0.9"/>
		<polygon class="st0" points="556.5,109.5 556.6,109.8 555.8,110.1 555.6,109.5 		"/>
		<polygon class="st0" points="554.8,103.7 556.5,109.5 555.6,109.5 553.9,103.7 554.1,103.7 		"/>
		<path class="st7" d="M553.9,103.7l1.7,5.8h-44.1v-2.2l6.8-4l2.2-1.3H549l-3.2-9.7h-36.3l-0.3-0.5l-6.6-1.2l-1.3,1.1V92
			c-0.2,1.4-0.6,3.7-0.6,3.9l0,0l-17-2.5l-4.5-0.2l-3.8-6.7l-0.1-0.2h-15.5V85h86.4c1.3,0,2.5,0.9,2.9,2.2L553.9,103.7z"/>
		<polygon class="st0" points="554.6,102.8 554.8,103.7 554.1,103.7 554.1,102.8 		"/>
		<path class="st0" d="M549.9,87l4.7,15.9h-0.5v0.9h-0.1l-4.9-16.5c-0.4-1.3-1.6-2.2-2.9-2.2h-51.5v-0.6l0.3,0.2l0.3-0.5h8.4v0.4
			h0.9v-0.4h20.1l-0.1,0.4l0.8,0.2l0.1-0.5h1.8l-0.1,0.4l0.8,0.1l0.1-0.5h18.1C547.9,84.2,549.4,85.3,549.9,87z"/>
		<rect x="551.3" y="129.6" class="st0" width="0.9" height="0"/>
		<rect x="551.3" y="124.3" class="st0" width="0.9" height="5.3"/>
		<rect x="551.3" y="123.4" class="st0" width="0.9" height="0.9"/>
		<polygon class="st0" points="552.2,113.9 552.2,123.4 551.3,123.4 551.3,114.7 542.3,114.7 542.3,123.4 541.5,123.4 541.5,113.9 
					"/>
		<rect x="542.3" y="124.3" class="st4" width="9" height="5.3"/>
		<rect x="542.3" y="123.4" class="st0" width="9" height="0.9"/>
		<rect x="542.3" y="114.7" class="st4" width="9" height="8.7"/>
		<polygon class="st0" points="545.8,92.4 549,102.1 520.6,102.1 520.9,101.9 520.9,101.3 522.9,101.3 522.9,101.7 523.8,101.7 
			523.8,101.3 528.8,101.3 528.8,101.7 529.7,101.7 529.7,101.3 537.2,101.3 537.3,101.8 538.2,101.6 538.1,101.3 542.6,101.3 
			542.8,101.8 543.6,101.6 543.5,101.3 547.8,101.3 545.2,93.3 540.8,93.3 540.6,92.7 539.8,93 539.9,93.3 535.4,93.3 535.2,92.7 
			534.4,93 534.5,93.3 529.7,93.3 529.7,92.9 528.8,92.9 528.8,93.3 523.8,93.3 523.8,92.9 522.9,92.9 522.9,93.3 510.1,93.3 
			509.5,92.4 		"/>
		<polygon class="st6" points="545.2,93.3 547.8,101.3 543.5,101.3 540.8,93.3 		"/>
		<path class="st5" d="M544.2,135.4v8h-5.5v-8H544.2z M543.3,142.5v-6.3h-3.9v6.3L543.3,142.5z"/>
		<polygon class="st0" points="543.5,101.3 543.6,101.6 542.8,101.8 542.6,101.3 		"/>
		<polygon class="st0" points="540.8,93.3 543.5,101.3 542.6,101.3 539.9,93.3 		"/>
		<rect x="539.5" y="136.2" class="st0" width="3.9" height="6.3"/>
		<polygon class="st6" points="539.9,93.3 542.6,101.3 538.1,101.3 535.4,93.3 		"/>
		<rect x="541.5" y="129.6" class="st0" width="0.9" height="0"/>
		<rect x="541.5" y="124.3" class="st0" width="0.9" height="5.3"/>
		<rect x="541.5" y="123.4" class="st0" width="0.9" height="0.9"/>
		<rect x="537.7" y="124.3" class="st4" width="3.8" height="5.3"/>
		<rect x="537.7" y="123.4" class="st0" width="3.8" height="0.9"/>
		<polygon class="st0" points="540.6,92.7 540.8,93.3 539.9,93.3 539.8,93 		"/>
		<polygon class="st0" points="538.1,101.3 538.2,101.6 537.3,101.8 537.2,101.3 		"/>
		<polygon class="st0" points="535.4,93.3 538.1,101.3 537.2,101.3 534.5,93.3 		"/>
		<rect x="536.8" y="129.6" class="st0" width="0.9" height="0.4"/>
		<rect x="536.8" y="124.3" class="st0" width="0.9" height="5.3"/>
		<rect x="536.8" y="123.4" class="st0" width="0.9" height="0.9"/>
		<polygon class="st0" points="537.7,112.5 537.7,123.4 536.8,123.4 536.8,113.3 524.6,113.3 524.6,112.5 		"/>
		<path class="st5" d="M537.7,110.4v2.1h-23.3l-2.7,2.3v8.7H511v-8.9h-13.1v8.9h-0.9v-8.4l-1.6-2.6h-10.5v11h-1.2v-11h-44l-0.9-0.6
			c0.2,0,0.3,0,0.5,0h12.8c2.2,0,4-1.8,4-4s-1.8-4-4-4h-1c-0.5-1.8-2-3-3.9-3h-0.5c-0.5-1.6-2.1-2.7-3.8-2.7h-12.8c-2.2,0-4,1.8-4,4
			c0,0.7,0.2,1.5,0.6,2.1l-3.8-2.4h-13.8v-7h-7.4v7h-1.1v-7h-7.4v7h-1.2v-7h-7.4v7h-1.1v-7h-7.4v7h-0.8v-7h-7.4v7h-1.1v-7h-7.4v7
			h-1.2v-7h-7.4v7h-1.1v-7h-7.4v7h-11.5v-7.5H326v7.5h-6.9v-8.3h-8.3v8.3h-8.1v-7.5h-4.9v7.6c-0.7-0.7-1.7-1-2.7-1h-0.5
			c-0.5-1.6-2.1-2.7-3.8-2.7h-0.5L279.7,86h0.2v0.1h29.5V86h103.4l3.8-6.2h2.1l3.1,6.5h29.5l4.4-5.3h3.2v6.2h15.8l3.4,6l-2.2-0.1
			v2.6l2,1.7l4.9,4.1l1.1,2v6.8L537.7,110.4z"/>
		<polygon class="st6" points="534.5,93.3 537.2,101.3 529.7,101.3 529.7,93.3 		"/>
		<rect x="524.6" y="124.3" class="st4" width="12.3" height="5.3"/>
		<rect x="524.6" y="123.4" class="st0" width="12.3" height="0.9"/>
		<rect x="524.6" y="113.3" class="st4" width="12.3" height="10.1"/>
		<polygon class="st0" points="535.2,92.7 535.4,93.3 534.5,93.3 534.4,93 		"/>
		<rect x="528.8" y="101.3" class="st0" width="0.9" height="0.4"/>
		<rect x="528.8" y="93.3" class="st0" width="0.9" height="8"/>
		<rect x="528.8" y="92.9" class="st0" width="0.9" height="0.4"/>
		<polygon class="st0" points="529.6,74.5 528,84.2 527.2,84.2 528.7,75.2 527.2,75 525.4,84.2 524.5,84.2 526.5,73.9 		"/>
		<rect x="523.8" y="93.3" class="st6" width="5" height="8"/>
		<polygon class="st4" points="528.7,75.2 527.2,84.2 525.4,84.2 527.2,75 		"/>
		<polygon class="st0" points="528,84.2 528,84.7 527.1,84.5 527.2,84.2 		"/>
		<path class="st5" d="M526.6,135.4v8H521v-8H526.6z M525.8,142.5v-6.3h-3.9v6.3L525.8,142.5z"/>
		<rect x="521.8" y="136.2" class="st0" width="3.9" height="6.3"/>
		<polygon class="st0" points="525.4,84.2 525.3,84.7 524.5,84.5 524.5,84.2 		"/>
		<rect x="523.7" y="129.6" class="st0" width="0.9" height="0"/>
		<rect x="523.7" y="124.3" class="st0" width="0.9" height="5.3"/>
		<rect x="523.7" y="123.4" class="st0" width="0.9" height="0.9"/>
		<polygon class="st0" points="524.6,113.3 524.6,123.4 523.7,123.4 523.7,113.3 514.7,113.3 512.4,115.2 512.4,123.4 511.6,123.4 
			511.6,114.8 514.3,112.5 524.1,112.5 524.1,113.3 		"/>
		<rect x="524.1" y="112.5" class="st0" width="0.4" height="0.9"/>
		<rect x="522.9" y="101.3" class="st0" width="0.9" height="0.4"/>
		<rect x="522.9" y="93.3" class="st0" width="0.9" height="8"/>
		<rect x="522.9" y="92.9" class="st0" width="0.9" height="0.4"/>
		<rect x="512.4" y="124.3" class="st4" width="11.3" height="5.3"/>
		<rect x="512.4" y="123.4" class="st0" width="11.3" height="0.9"/>
		<polygon class="st4" points="523.7,113.3 523.7,123.4 512.4,123.4 512.4,115.2 514.7,113.3 		"/>
		<polygon class="st6" points="522.9,93.3 522.9,101.3 520.9,101.3 520.9,98.9 510,97.3 510.4,93.7 510.1,93.3 		"/>
		<polygon class="st0" points="520.9,101.3 520.9,101.9 520.6,102.1 520.5,102.1 520.5,101.3 		"/>
		<polygon class="st0" points="520.9,98.9 520.9,101.3 520.5,101.3 520.5,102.1 520.6,102.1 518.4,103.4 518.3,103.3 518.6,102.5 
			518.4,102.4 520.1,101.4 520.1,99.7 483.6,94.3 479.6,94.2 479.1,93.3 483.6,93.5 500.6,96 509.1,97.2 509.1,97.6 509.9,97.7 
			510,97.3 		"/>
		<polygon class="st8" points="520.1,99.7 520.1,101.4 518.4,102.4 515.6,101.4 483.9,96.5 480.9,96.5 479.6,94.2 483.6,94.3 		"/>
		<polygon class="st0" points="518.6,102.5 518.3,103.3 517.4,103 518.4,102.4 		"/>
		<polygon class="st0" points="518.4,102.4 517.4,103 515.4,102.3 483.8,97.4 481.4,97.4 480.9,96.5 483.9,96.5 515.6,101.4 		"/>
		<polygon class="st0" points="518.3,103.3 518.4,103.4 511.5,107.4 511.4,107.3 486.6,104.8 486.5,104.7 484.7,103.2 483.5,101 
			487,104 511.3,106.5 517.4,103 		"/>
		<polygon class="st9" points="517.4,103 511.3,106.5 487,104 483.5,101 481.4,97.4 483.8,97.4 515.4,102.3 		"/>
		<rect x="511.6" y="129.6" class="st0" width="0.9" height="0"/>
		<rect x="511.6" y="124.3" class="st0" width="0.9" height="5.3"/>
		<rect x="511.6" y="123.4" class="st0" width="0.9" height="0.9"/>
		<rect x="510.9" y="124.3" class="st4" width="0.7" height="5.3"/>
		<rect x="510.9" y="123.4" class="st0" width="0.7" height="0.9"/>
		<polygon class="st7" points="511.5,107.4 511.5,109.5 484.8,109.5 484.8,103.3 484.7,103.2 486.5,104.7 486.6,104.8 511.4,107.3 
					"/>
		<rect x="510" y="129.6" class="st0" width="0.9" height="0"/>
		<rect x="510" y="124.3" class="st0" width="0.9" height="5.3"/>
		<rect x="510" y="123.4" class="st0" width="0.9" height="0.9"/>
		<polygon class="st0" points="510.9,114.6 510.9,123.4 510,123.4 510,115.4 498.7,115.4 498.7,123.4 497.8,123.4 497.8,114.6 		"/>
		<path class="st0" d="M510.1,93.3l0.3,0.4l-0.4,3.6l-0.8-0.1l0.4-3.3l-0.8-1.2l-5.8-1l-0.8,0.7c-0.2,1.4-0.6,3.4-0.6,3.6h-0.9
			c0-0.2,0.4-2.5,0.6-3.9v-0.2l1.3-1.1l6.5,1.2l0.3,0.5h-0.2v0.9L510.1,93.3z"/>
		<polygon class="st0" points="509.5,92.4 510.1,93.3 509.3,93.3 509.3,92.4 		"/>
		<rect x="498.7" y="124.3" class="st4" width="11.3" height="5.3"/>
		<rect x="498.7" y="123.4" class="st0" width="11.3" height="0.9"/>
		<rect x="498.7" y="115.4" class="st4" width="11.3" height="8"/>
		<polygon class="st0" points="510,97.3 509.9,97.7 509.1,97.6 509.1,97.2 		"/>
		<path class="st5" d="M509.6,135.4v8H504v-8H509.6z M508.8,142.5v-6.3h-3.9v6.3L508.8,142.5z"/>
		<path class="st10" d="M508.7,92.7l0.8,1.2l-0.4,3.3l-8.5-1.2l0,0h0.9c0-0.2,0.3-2.3,0.6-3.6l0.8-0.7L508.7,92.7z"/>
		<rect x="504.9" y="136.2" class="st0" width="3.9" height="6.3"/>
		<rect x="503.6" y="84.2" class="st0" width="0.9" height="0.4"/>
		<polygon class="st0" points="504.4,74.2 504.4,84.2 503.6,84.2 503.6,74.9 500.7,74.1 495.2,84.2 494.6,84.2 494.6,83.5 
			500.3,73.1 		"/>
		<polygon class="st4" points="503.6,74.9 503.6,84.2 495.2,84.2 500.7,74.1 		"/>
		<rect x="497.8" y="129.6" class="st0" width="0.9" height="0.4"/>
		<rect x="497.8" y="124.3" class="st0" width="0.9" height="5.3"/>
		<rect x="497.8" y="123.4" class="st0" width="0.9" height="0.9"/>
		<polygon class="st4" points="497.8,124.3 497.8,129.6 496,129.6 496,129.6 496.9,129.6 496.9,124.3 		"/>
		<rect x="496.9" y="123.4" class="st0" width="0.9" height="0.9"/>
		<rect x="496" y="124.3" class="st0" width="0.9" height="5.3"/>
		<rect x="496" y="123.4" class="st0" width="0.9" height="0.9"/>
		<polygon class="st0" points="496.9,115.1 496.9,123.4 496,123.4 496,115.3 494.8,113.3 485.6,113.3 485.6,123.4 484.8,123.4 
			484.8,112.5 495.3,112.5 		"/>
		<polygon class="st4" points="496,129.6 496,129.6 485.6,129.6 485.6,124.3 496,124.3 		"/>
		<rect x="485.6" y="123.4" class="st0" width="10.4" height="0.9"/>
		<polygon class="st4" points="496,115.3 496,123.4 485.6,123.4 485.6,113.3 494.8,113.3 		"/>
		<polygon class="st0" points="495.2,84.2 494.9,84.6 494.6,84.4 494.6,84.2 		"/>
		<polygon class="st0" points="494.6,84.4 494.6,85 489.5,85 489.5,84.2 490.3,84.2 493.7,84.2 494.2,84.2 494.2,84.2 		"/>
		<polygon class="st0" points="494.6,84.2 494.6,84.4 494.2,84.2 494.2,84.2 		"/>
		<polygon class="st0" points="494.6,83.5 494.6,84.2 494.2,84.2 		"/>
		<polygon class="st0" points="494.6,79.7 494.6,83.5 494.2,84.2 493.7,84.2 493.7,80.6 490.3,80.6 490.3,84.2 489.5,84.2 
			489.5,79.7 		"/>
		<rect x="490.3" y="80.6" class="st4" width="3.4" height="3.6"/>
		<path class="st5" d="M492.1,135.4v8h-5.6v-8H492.1z M491.2,142.5v-6.3h-3.9v6.3L491.2,142.5z"/>
		<rect x="487.3" y="136.2" class="st0" width="3.9" height="6.3"/>
		<rect x="459.7" y="84.2" class="st0" width="29.7" height="0.9"/>
		<rect x="484.8" y="129.6" class="st0" width="0.9" height="0.4"/>
		<rect x="484.8" y="124.3" class="st0" width="0.9" height="5.3"/>
		<rect x="484.8" y="123.4" class="st0" width="0.9" height="0.9"/>
		<rect x="483.5" y="124.3" class="st4" width="1.2" height="5.3"/>
		<rect x="483.5" y="123.4" class="st0" width="1.2" height="0.9"/>
		<polygon class="st0" points="483.5,101 484.7,103.2 482.8,101.6 481.6,99.4 		"/>
		<rect x="482.7" y="129.6" class="st0" width="0.9" height="0.4"/>
		<rect x="482.7" y="124.3" class="st0" width="0.9" height="5.3"/>
		<rect x="482.7" y="123.4" class="st0" width="0.9" height="0.9"/>
		<path class="st0" d="M483.5,112.5v11h-0.9v-10.1h-26.6v-0.4h-0.9v0.4h-15.4v-0.4H439v0.2l-4.5-2.9h0.3v-0.8l1,0.6
			c0.6,1,1.7,1.7,2.9,1.8l0.9,0.6L483.5,112.5z"/>
		<polygon class="st11" points="481.4,97.4 483.5,101 481.6,99.4 480.4,97.4 		"/>
		<polygon class="st0" points="481.6,99.4 482.8,101.6 477.9,97.4 478,97.4 479.1,97.4 		"/>
		<rect x="456.1" y="124.3" class="st4" width="26.6" height="5.3"/>
		<rect x="456.1" y="123.4" class="st0" width="26.6" height="0.9"/>
		<path class="st4" d="M482.7,113.3v10.1h-26.6v-10.1H482.7z M477.9,122.9v-7.7h-3.2v7.7H477.9z M473.9,122.9v-7.7h-3.3v7.7H473.9z
			 M465.2,122.9v-7.7h-3.3v7.7H465.2z M461.2,122.9v-7.7H458v7.7H461.2z"/>
		<polygon class="st11" points="480.4,97.4 481.6,99.4 479.1,97.4 		"/>
		<polygon class="st0" points="480.9,96.5 481.4,97.4 480.4,97.4 479.9,96.5 		"/>
		<polygon class="st11" points="479.6,94.2 480.9,96.5 479.9,96.5 478.6,94.1 		"/>
		<polygon class="st0" points="479.9,96.5 480.4,97.4 479.1,97.4 478.1,96.5 		"/>
		<polygon class="st8" points="478.6,94.1 479.9,96.5 478.1,96.5 476.7,95.3 476.7,94.1 		"/>
		<polygon class="st0" points="479.1,93.3 479.6,94.2 478.6,94.1 478.1,93.3 		"/>
		<polygon class="st0" points="479.1,97.4 478,97.4 478,96.5 478.1,96.5 		"/>
		<polygon class="st0" points="475.3,86.7 479.1,93.3 478.1,93.3 474.7,87.3 458.9,87.3 458.9,81.1 455.6,81.1 451.3,86.4 
			421.8,86.4 418.7,79.9 416.6,79.9 412.8,86.1 309.4,86.1 309.4,85.1 309.3,85.1 309.3,69.4 280.1,69.4 280.1,85.1 279.9,85.1 
			279.9,86.1 279.7,86.1 279,85.2 279.3,85.2 279.3,68.5 310.2,68.5 310.2,77.1 309.8,77.1 309.8,78 310.2,78 310.2,85.2 
			312.8,85.2 312.8,85.6 313.6,85.6 313.6,85.2 318.9,85.2 318.9,85.6 319.7,85.6 319.7,85.2 325,85.2 325,85.6 325.8,85.6 
			325.8,85.2 331.1,85.2 331.1,85.6 331.9,85.6 331.9,85.2 337.2,85.2 337.2,85.6 338,85.6 338,85.2 343.3,85.2 343.3,85.6 
			344.2,85.6 344.2,85.2 349.4,85.2 349.4,85.6 350.3,85.6 350.3,85.2 355.5,85.2 355.5,85.6 356.4,85.6 356.4,85.2 361.6,85.2 
			361.6,85.6 362.5,85.6 362.5,85.2 367.7,85.2 367.7,85.6 368.6,85.6 368.6,85.2 373.8,85.2 373.8,85.6 374.7,85.6 374.7,85.2 
			380,85.2 380,85.6 380.8,85.6 380.8,85.2 386.1,85.2 386.1,85.6 386.9,85.6 386.9,85.2 392.2,85.2 392.2,85.6 393,85.6 393,85.2 
			398.3,85.2 398.3,85.6 399.1,85.6 399.1,85.2 404.4,85.2 404.4,85.6 405.3,85.6 405.3,85.2 410.5,85.2 410.5,85.6 411.4,85.6 
			411.4,85.2 412.3,85.2 416.1,79 419.2,79 422.3,85.5 427.6,85.5 427.6,85.6 428.4,85.6 428.4,85.5 433.7,85.5 433.7,85.6 
			434.5,85.6 434.5,85.5 440.4,85.5 440.4,85.6 441.3,85.6 441.3,85.5 446.6,85.5 446.6,85.6 447.4,85.6 447.4,85.5 450.9,85.5 
			451.7,84.5 451.8,84.8 452.5,84.4 452.3,83.8 455.2,80.2 459.7,80.2 459.7,84.2 459.3,84.2 459.3,85 459.7,85 459.7,86.4 
			475.2,86.4 		"/>
		<polygon class="st0" points="478.1,93.3 478.6,94.1 476.7,94.1 476.7,95.3 478.1,96.5 478,96.5 478,97.4 477.9,97.4 475.9,95.7 
			475.9,93.2 		"/>
		<path class="st12" d="M477.9,115.3v7.7h-3.2v-7.7H477.9z M477.4,122.4v-6.6h-2.2v6.6H477.4z"/>
		<rect x="475.2" y="115.8" class="st6" width="2.2" height="6.6"/>
		<path class="st12" d="M473.9,115.3v7.7h-3.2v-7.7H473.9z M473.3,122.4v-6.6h-2.2v6.6H473.3z"/>
		<path class="st5" d="M473.7,135.4v8h-5.6v-8H473.7z M472.8,142.5v-6.3H469v6.3L472.8,142.5z"/>
		<rect x="471.2" y="115.8" class="st6" width="2.2" height="6.6"/>
		<rect x="469" y="136.2" class="st0" width="3.9" height="6.3"/>
		<path class="st12" d="M465.2,115.3v7.7h-3.2v-7.7H465.2z M464.6,122.4v-6.6h-2.2v6.6H464.6z"/>
		<rect x="462.5" y="115.8" class="st6" width="2.2" height="6.6"/>
		<path class="st12" d="M461.1,115.3v7.7h-3.3v-7.7H461.1z M460.6,122.4v-6.6h-2.2v6.6H460.6z"/>
		<rect x="458.4" y="115.8" class="st6" width="2.2" height="6.6"/>
		<rect x="459.3" y="84.2" class="st0" width="0.4" height="0.9"/>
		<path class="st5" d="M456.1,135.4v8h-5.6v-8H456.1z M455.2,142.5v-6.3h-3.9v6.3L455.2,142.5z"/>
		<rect x="455.2" y="129.6" class="st0" width="0.9" height="0.4"/>
		<rect x="455.2" y="124.3" class="st0" width="0.9" height="5.3"/>
		<rect x="455.2" y="123.4" class="st0" width="0.9" height="0.9"/>
		<rect x="455.2" y="113.3" class="st0" width="0.9" height="10.1"/>
		<rect x="455.2" y="112.9" class="st0" width="0.9" height="0.4"/>
		<rect x="451.4" y="136.2" class="st0" width="3.9" height="6.3"/>
		<rect x="439.8" y="124.3" class="st4" width="15.4" height="5.3"/>
		<rect x="439.8" y="123.4" class="st0" width="15.4" height="0.9"/>
		<path class="st4" d="M455.2,113.3v10.1h-15.4v-10.1H455.2z M451.2,122.9v-7.7H448v7.7H451.2z M447.2,122.9v-7.7H444v7.7H447.2z"/>
		<path class="st0" d="M451.9,103.9c2.2,0,4,1.8,4,4s-1.8,4-4,4h-12.8c-0.2,0-0.3,0-0.5,0l-2.9-1.8c-0.2-0.4-0.4-0.8-0.5-1.2h0.3
			V108h-0.5V108c0-2.2,1.8-4,4-4H450c0,0.2,0.1,0.3,0.1,0.5l0.8-0.1c0-0.1,0-0.3-0.1-0.4L451.9,103.9z M455,107.9
			c0-1.7-1.4-3.1-3.1-3.1h-12.8c-1.7,0-3.1,1.4-3.1,3.1c0,1.7,1.4,3.1,3.1,3.1c0,0,0,0,0,0h12.8C453.6,111.1,455,109.7,455,107.9
			C455,107.9,455,107.9,455,107.9L455,107.9z"/>
		<path class="st4" d="M451.9,104.8c1.7,0,3.1,1.4,3.1,3.1c0,1.7-1.4,3.1-3.1,3.1h-12.8c-1.7,0-3.1-1.4-3.1-3.1
			c0-1.7,1.4-3.1,3.1-3.1c0,0,0,0,0,0H451.9z"/>
		<polygon class="st0" points="452.3,83.8 452.5,84.4 451.8,84.8 451.7,84.5 		"/>
		<polygon class="st0" points="449.4,78.2 452.3,83.8 451.7,84.5 448.6,78.5 		"/>
		<path class="st12" d="M451.2,115.3v7.7H448v-7.7H451.2z M450.7,122.4v-6.6h-2.2v6.6H450.7z"/>
		<path class="st0" d="M450.8,103.9c0,0.1,0,0.2,0.1,0.4l-0.8,0.1c0-0.2-0.1-0.3-0.1-0.5H450.8z"/>
		<path class="st0" d="M450.8,103.9H450c-0.4-1.3-1.6-2.2-3-2.2h-12.8c-1.7,0-3.1,1.4-3.1,3.1c0,0,0,0,0,0c0,0.2,0,0.5,0.1,0.7
			c0.3,1.4,1.6,2.4,3,2.4h0.9c0,0.3,0,0.6,0.1,0.9h-1h-0.4l-3-1.9c-0.2-0.3-0.3-0.5-0.4-0.8h0.3v-0.9h-0.5c0-0.1,0-0.3,0-0.4
			c0-2.2,1.8-4,4-4h11.4c0.1,0.2,0.1,0.3,0.2,0.5l0.8-0.2l-0.1-0.3h0.5C448.9,101,450.4,102.2,450.8,103.9z"/>
		<rect x="448.5" y="115.8" class="st6" width="2.2" height="6.6"/>
		<path class="st4" d="M450,103.9h-10.9c-2.2,0-4,1.8-4,4v0.1h-0.9c-1.4,0-2.7-1-3-2.4c-0.1-0.2-0.1-0.5-0.1-0.7
			c0-1.7,1.4-3.1,3.1-3.1c0,0,0,0,0,0H447C448.3,101.8,449.5,102.7,450,103.9z"/>
		<polygon class="st0" points="449.3,78.1 449.4,78.2 448.6,78.5 448.5,78.5 448,77.1 448.8,77.1 		"/>
		<polygon class="st0" points="446.3,70.7 449.3,78.1 448.8,77.1 448,77.1 445.7,71.5 432,71.5 428.7,55.8 373,33.7 365.1,42.9 
			356.5,77.1 355.6,77.1 364.4,42.5 364.4,42.4 372.7,32.6 429.4,55.2 432.7,70.7 		"/>
		<polygon class="st0" points="448,77.1 448.5,78.5 448.3,78 447.4,78 447.4,77.6 446.6,77.6 446.6,78 441.3,78 441.3,77.6 
			440.4,77.6 440.4,78 434.5,78 434.5,77.6 433.7,77.6 433.7,78 428.4,78 428.4,77.6 427.6,77.6 427.6,78 419.2,78 411.4,78 
			411.4,77.6 410.5,77.6 410.5,78 405.3,78 405.3,77.6 404.4,77.6 404.4,78 399.1,78 399.1,77.6 398.3,77.6 398.3,78 393,78 
			393,77.6 392.2,77.6 392.2,78 386.9,78 386.9,77.6 386.1,77.6 386.1,78 380.8,78 380.8,77.6 380,77.6 380,78 374.7,78 374.7,77.6 
			373.8,77.6 373.8,78 368.6,78 368.6,77.6 367.7,77.6 367.7,78 362.5,78 362.5,77.6 361.6,77.6 361.6,78 356.4,78 356.4,77.6 
			356.5,77.1 		"/>
		<polygon class="st1" points="445.7,71.5 448,77.1 356.5,77.1 365.1,42.9 373,33.7 428.7,55.8 432,71.5 		"/>
		<rect x="446.6" y="85.5" class="st0" width="0.9" height="0.1"/>
		<rect x="446.6" y="78" class="st0" width="0.9" height="7.5"/>
		<rect x="446.6" y="77.6" class="st0" width="0.9" height="0.4"/>
		<path class="st12" d="M447.2,115.3v7.7h-3.2v-7.7H447.2z M446.6,122.4v-6.6h-2.2v6.6H446.6z"/>
		<rect x="444.5" y="115.8" class="st6" width="2.2" height="6.6"/>
		<path class="st0" d="M446.5,100.9l0.1,0.3l-0.8,0.2c0-0.2-0.1-0.4-0.2-0.5H446.5z"/>
		<path class="st0" d="M446.5,100.9h-0.9c-0.5-1.1-1.6-1.9-2.9-1.9h-12.8c-1.7,0-3.1,1.4-3.1,3.1c0,1.7,1.4,3.1,3.1,3.1c0,0,0,0,0,0
			h0.3c0,0.2,0,0.4,0.1,0.5c0,0.1,0.1,0.2,0.1,0.3h-0.5h-0.4l-2.9-1.8c-1.2-1.9-0.6-4.3,1.3-5.5c0.6-0.4,1.4-0.6,2.1-0.6h12.8
			C444.4,98.2,445.9,99.3,446.5,100.9z"/>
		<path class="st4" d="M445.5,100.9h-11.4c-2.2,0-4,1.8-4,4c0,0.1,0,0.3,0,0.4h-0.3c-1.7,0-3.1-1.4-3.1-3.1c0-1.7,1.4-3.1,3.1-3.1
			c0,0,0,0,0,0h12.8C443.9,99,445,99.8,445.5,100.9z"/>
		<rect x="440.4" y="85.5" class="st0" width="0.9" height="0.1"/>
		<rect x="440.4" y="78" class="st0" width="0.9" height="7.5"/>
		<rect x="440.4" y="77.6" class="st0" width="0.9" height="0.4"/>
		<rect x="439" y="129.6" class="st0" width="0.9" height="0.4"/>
		<rect x="439" y="124.3" class="st0" width="0.9" height="5.3"/>
		<rect x="439" y="123.4" class="st0" width="0.9" height="0.9"/>
		<polygon class="st0" points="439.8,113.3 439.8,123.4 439,123.4 439,113.1 439.3,113.3 		"/>
		<polygon class="st0" points="439.8,112.9 439.8,113.3 439.3,113.3 439,113.1 439,112.9 		"/>
		<polygon class="st4" points="439,124.3 439,129.6 319.6,129.6 317,124.3 		"/>
		<polygon class="st0" points="439,123.4 439,124.3 317,124.3 316.7,123.5 316.7,123.4 380.4,123.4 		"/>
		<path class="st4" d="M439,113.1v10.3h-58.6v-0.4h8V114h0.9v-3.7h45.1L439,113.1z M436.7,122.9v-7.7h-3.2v7.7H436.7z M432.7,122.9
			v-7.7h-3.2v7.7H432.7z M397.8,123.1v-8h-8v8H397.8z"/>
		<path class="st0" d="M435.7,110l2.9,1.8C437.4,111.7,436.3,111.1,435.7,110z"/>
		<path class="st5" d="M438.4,135.4v8h-5.6v-8H438.4z M437.5,142.5v-6.3h-3.9v6.3L437.5,142.5z"/>
		<rect x="433.7" y="136.2" class="st0" width="3.9" height="6.3"/>
		<path class="st12" d="M436.7,115.3v7.7h-3.2v-7.7H436.7z M436.1,122.4v-6.6H434v6.6H436.1z"/>
		<rect x="434" y="115.8" class="st6" width="2.2" height="6.6"/>
		<path class="st0" d="M435.5,108v0.9h-0.3c-0.1-0.3-0.1-0.6-0.1-0.9H435.5z"/>
		<polygon class="st0" points="434.7,109.5 434.7,110.3 434.4,110.3 433,109.4 434.7,109.4 		"/>
		<polygon class="st0" points="434.7,109.4 434.7,109.5 434.7,109.4 		"/>
		<path class="st0" d="M434.6,109.4H433l-10.6-6.7h-13.5v-0.9h13.8l3.8,2.4c0.6,1,1.7,1.7,2.9,1.8l1.3,0.8c0.6,1.1,1.8,1.8,3,1.9
			L434.6,109.4z"/>
		<rect x="433.7" y="85.5" class="st0" width="0.9" height="0.1"/>
		<rect x="433.7" y="78" class="st0" width="0.9" height="7.5"/>
		<rect x="433.7" y="77.6" class="st0" width="0.9" height="0.4"/>
		<polygon class="st0" points="434.4,110.3 389.3,110.3 389.3,109.4 433,109.4 		"/>
		<path class="st0" d="M430.8,107l3,1.9C432.5,108.8,431.4,108,430.8,107z"/>
		<polygon class="st4" points="433,109.4 389.3,109.4 389.3,102.7 391.9,102.7 393.1,102.7 400.5,102.7 401.5,102.7 408.9,102.7 
			422.4,102.7 		"/>
		<path class="st12" d="M432.6,115.3v7.7h-3.2v-7.7H432.6z M432.1,122.4v-6.6h-2.2v6.6H432.1z"/>
		<rect x="429.9" y="115.8" class="st6" width="2.2" height="6.6"/>
		<path class="st0" d="M430.7,105.3v0.9h-0.3c0-0.1-0.1-0.2-0.1-0.3c0-0.2-0.1-0.4-0.1-0.5H430.7z"/>
		<path class="st0" d="M426.5,104.3l2.9,1.8C428.2,106,427.1,105.3,426.5,104.3z"/>
		<rect x="427.6" y="85.5" class="st0" width="0.9" height="0.1"/>
		<rect x="427.6" y="78" class="st0" width="0.9" height="7.5"/>
		<rect x="427.6" y="77.6" class="st0" width="0.9" height="0.4"/>
		<path class="st5" d="M420.8,135.4v8h-5.6v-8H420.8z M419.9,142.5v-6.3h-3.9v6.3L419.9,142.5z"/>
		<rect x="416.1" y="136.2" class="st0" width="3.9" height="6.3"/>
		<rect x="410.5" y="85.2" class="st0" width="0.9" height="0.4"/>
		<rect x="410.5" y="78" class="st0" width="0.9" height="7.2"/>
		<rect x="410.5" y="77.6" class="st0" width="0.9" height="0.4"/>
		<polygon class="st0" points="408.9,101.9 408.9,102.7 401.5,102.7 401.5,101.9 402.4,101.9 408.1,101.9 		"/>
		<polygon class="st0" points="408.9,94.9 408.9,101.9 408.1,101.9 408.1,95.7 402.4,95.7 402.4,101.9 401.5,101.9 401.5,94.9 		"/>
		<rect x="402.4" y="95.8" class="st6" width="5.7" height="6.1"/>
		<rect x="404.4" y="85.2" class="st0" width="0.9" height="0.4"/>
		<rect x="404.4" y="78" class="st0" width="0.9" height="7.2"/>
		<rect x="404.4" y="77.6" class="st0" width="0.9" height="0.4"/>
		<path class="st5" d="M402.4,135.4v8h-5.6v-8H402.4z M401.6,142.5v-6.3h-3.9v6.3L401.6,142.5z"/>
		<rect x="397.7" y="136.2" class="st0" width="3.9" height="6.3"/>
		<rect x="400.5" y="101.9" class="st0" width="1.1" height="0.9"/>
		<polygon class="st0" points="400.5,101.9 400.5,102.7 393.1,102.7 393.1,101.9 394,101.9 399.6,101.9 		"/>
		<polygon class="st0" points="400.5,94.9 400.5,101.9 399.6,101.9 399.6,95.7 394,95.7 394,101.9 393.1,101.9 393.1,94.9 		"/>
		<rect x="394" y="95.8" class="st6" width="5.7" height="6.1"/>
		<rect x="398.3" y="85.2" class="st0" width="0.9" height="0.4"/>
		<rect x="398.3" y="78" class="st0" width="0.9" height="7.2"/>
		<rect x="398.3" y="77.6" class="st0" width="0.9" height="0.4"/>
		<path class="st12" d="M397.7,115.1v8h-8v-8H397.7z M396.8,122.3V116h-6.3v6.3H396.8z"/>
		<rect x="390.6" y="116" class="st6" width="6.3" height="6.3"/>
		<rect x="391.9" y="101.9" class="st0" width="1.2" height="0.9"/>
		<rect x="392.2" y="85.2" class="st0" width="0.9" height="0.4"/>
		<rect x="392.2" y="78" class="st0" width="0.9" height="7.2"/>
		<rect x="392.2" y="77.6" class="st0" width="0.9" height="0.4"/>
		<polygon class="st0" points="391.9,101.9 391.9,102.7 389.3,102.7 389.3,102.7 384.5,102.7 384.5,101.9 385.4,101.9 391,101.9 		
			"/>
		<polygon class="st0" points="391.9,94.9 391.9,101.9 391,101.9 391,95.7 385.4,95.7 385.4,101.9 384.5,101.9 384.5,94.9 		"/>
		<rect x="385.4" y="95.8" class="st6" width="5.7" height="6.1"/>
		<polygon class="st0" points="389.3,110.3 389.3,114 388.4,114 373.8,114 373.8,110.3 374.7,110.3 374.7,113.1 388.4,113.1 
			388.4,103.5 374.7,103.5 374.7,109.4 373.8,109.4 373.8,102.7 375.2,102.7 376.1,102.7 383.5,102.7 384.5,102.7 389.3,102.7 
			389.3,109.4 388.9,109.4 388.9,110.3 		"/>
		<rect x="388.9" y="109.4" class="st0" width="0.4" height="0.9"/>
		<rect x="384.5" y="102.7" class="st0" width="4.8" height="0.1"/>
		<polygon class="st13" points="388.4,103.5 388.4,113.1 374.7,113.1 374.7,110.3 374.8,110.3 374.8,109.4 374.7,109.4 374.7,103.5 
					"/>
		<path class="st12" d="M388.4,115.1v8h-8v-8H388.4z M387.6,122.3V116h-6.3v6.3H387.6z"/>
		<path class="st4" d="M388.4,114v1.1h-8v8.4h-63.7v0.1l-3.2-6.8H281v0.7l-4.3-8h-22.8l4.3,8.2h54.7l5.7,12H106.5l3.4-10.1h19
			l0.6-1.9h123.9l-4.3-8.2h-117l0.7-2.3h-11.2l3.6-12h8.7v0.1h64.4v-1.6h78.5l3.9,4.6H278c-2.2,0-4,1.8-4,4s1.8,4,4,4h0.5
			c0.5,1.6,2.1,2.7,3.8,2.7h1c0.5,1.8,2,3,3.9,3h12.8c1.3,0,2.5-0.6,3.2-1.6h70.6v3.7L388.4,114z M351.7,123.1v-8h-8v8H351.7z
			 M342.4,123.1v-8h-8v8H342.4z M332.7,123.1v-8h-8v8H332.7z"/>
		<rect x="381.3" y="116" class="st6" width="6.3" height="6.3"/>
		<rect x="386.1" y="85.2" class="st0" width="0.9" height="0.4"/>
		<rect x="386.1" y="78" class="st0" width="0.9" height="7.2"/>
		<rect x="386.1" y="77.6" class="st0" width="0.9" height="0.4"/>
		<path class="st5" d="M384.8,135.4v8h-5.6v-8H384.8z M384,142.5v-6.3h-3.9v6.3L384,142.5z"/>
		<rect x="383.5" y="102.7" class="st0" width="1.1" height="0.1"/>
		<rect x="383.5" y="101.9" class="st0" width="1.1" height="0.8"/>
		<rect x="380.1" y="136.2" class="st0" width="3.9" height="6.3"/>
		<rect x="376.1" y="102.7" class="st0" width="7.4" height="0.1"/>
		<polygon class="st0" points="383.5,101.9 383.5,102.7 376.1,102.7 376.1,101.9 376.9,101.9 382.6,101.9 		"/>
		<polygon class="st0" points="383.5,94.9 383.5,101.9 382.6,101.9 382.6,95.7 376.9,95.7 376.9,101.9 376.1,101.9 376.1,94.9 		"/>
		<rect x="376.9" y="95.8" class="st6" width="5.6" height="6.1"/>
		<rect x="380" y="85.2" class="st0" width="0.9" height="0.4"/>
		<rect x="380" y="78" class="st0" width="0.9" height="7.2"/>
		<rect x="380" y="77.6" class="st0" width="0.9" height="0.4"/>
		<rect x="375.2" y="102.7" class="st0" width="0.8" height="0.1"/>
		<rect x="375.2" y="101.9" class="st0" width="0.8" height="0.8"/>
		<rect x="373.8" y="102.7" class="st0" width="1.4" height="0.1"/>
		<polygon class="st0" points="375.2,101.9 375.2,102.7 373.8,102.7 373.8,102.7 367.9,102.7 367.9,101.9 368.7,101.9 374.4,101.9 
					"/>
		<polygon class="st0" points="375.2,94.9 375.2,101.9 374.4,101.9 374.4,95.7 368.7,95.7 368.7,101.9 367.9,101.9 367.9,94.9 		"/>
		<rect x="374.7" y="109.4" class="st0" width="0.1" height="0.9"/>
		<rect x="373.8" y="85.2" class="st0" width="0.9" height="0.4"/>
		<rect x="373.8" y="78" class="st0" width="0.9" height="7.2"/>
		<rect x="373.8" y="77.6" class="st0" width="0.9" height="0.4"/>
		<rect x="373.8" y="109.4" class="st0" width="0.9" height="0.9"/>
		<rect x="368.7" y="95.8" class="st6" width="5.7" height="6.1"/>
		<polygon class="st0" points="373.8,109.4 373.8,110.3 310.7,110.3 310.7,110.2 319.1,110.2 319.1,109.4 		"/>
		<polygon class="st4" points="373.8,102.7 373.8,109.4 319.1,109.4 319.1,102.7 342.4,102.7 349.8,102.7 350.8,102.7 358.2,102.7 
			359.4,102.7 366.8,102.7 367.9,102.7 		"/>
		<rect x="367.7" y="85.2" class="st0" width="0.9" height="0.4"/>
		<rect x="367.7" y="78" class="st0" width="0.9" height="7.2"/>
		<rect x="367.7" y="77.6" class="st0" width="0.9" height="0.4"/>
		<rect x="366.8" y="101.9" class="st0" width="1.1" height="0.9"/>
		<polygon class="st0" points="366.8,101.9 366.8,102.7 359.4,102.7 359.4,101.9 360.3,101.9 365.9,101.9 		"/>
		<polygon class="st0" points="366.8,94.9 366.8,101.9 365.9,101.9 365.9,95.7 360.3,95.7 360.3,101.9 359.4,101.9 359.4,94.9 		"/>
		<rect x="360.3" y="95.8" class="st6" width="5.6" height="6.1"/>
		<rect x="361.6" y="85.2" class="st0" width="0.9" height="0.4"/>
		<rect x="361.6" y="78" class="st0" width="0.9" height="7.2"/>
		<rect x="361.6" y="77.6" class="st0" width="0.9" height="0.4"/>
		<rect x="358.2" y="101.9" class="st0" width="1.2" height="0.9"/>
		<polygon class="st0" points="358.2,101.9 358.2,102.7 350.8,102.7 350.8,101.9 351.7,101.9 357.4,101.9 		"/>
		<polygon class="st0" points="358.2,94.9 358.2,101.9 357.4,101.9 357.4,95.7 351.7,95.7 351.7,101.9 350.8,101.9 350.8,94.9 		"/>
		<rect x="351.7" y="95.8" class="st6" width="5.7" height="6.1"/>
		<polygon class="st0" points="356.5,77.1 356.4,77.6 356.4,77.6 355.9,77.6 355.5,77.5 355.6,77.1 		"/>
		<path class="st5" d="M356.4,135.4v8h-5.6v-8H356.4z M355.6,142.5v-6.3h-3.9v6.3L355.6,142.5z"/>
		<rect x="355.5" y="85.2" class="st0" width="0.9" height="0.4"/>
		<rect x="355.5" y="78" class="st0" width="0.9" height="7.2"/>
		<polygon class="st0" points="356.4,77.6 356.4,78 355.5,78 355.5,77.6 355.9,77.6 356.4,77.7 		"/>
		<polygon class="st0" points="356.4,77.6 356.4,77.6 356.4,77.7 355.9,77.6 		"/>
		<polygon class="st0" points="355.9,77.6 355.5,77.6 355.5,78 350.3,78 350.3,77.6 349.4,77.6 349.4,78 344.2,78 344.2,77.6 
			343.3,77.6 343.3,78 338,78 338,77.6 337.2,77.6 337.2,78 331.9,78 331.9,77.6 331.1,77.6 331.1,78 325.8,78 325.8,77.6 325,77.6 
			325,78 319.7,78 319.7,77.6 318.9,77.6 318.9,78 313.6,78 313.6,77.6 312.8,77.6 312.8,78 310.2,78 310.2,77.1 355.6,77.1 
			355.5,77.5 		"/>
		<rect x="351.7" y="136.2" class="st0" width="3.9" height="6.3"/>
		<path class="st4" d="M351.7,115.1v8h-8v-8H351.7z M350.8,122.3V116h-6.3v6.3H350.8z"/>
		<rect x="349.8" y="101.9" class="st0" width="1.1" height="0.9"/>
		<rect x="344.5" y="116" class="st6" width="6.3" height="6.3"/>
		<rect x="349.4" y="85.2" class="st0" width="0.9" height="0.4"/>
		<rect x="349.4" y="78" class="st0" width="0.9" height="7.2"/>
		<rect x="349.4" y="77.6" class="st0" width="0.9" height="0.4"/>
		<polygon class="st0" points="349.8,101.9 349.8,102.7 342.4,102.7 342.4,101.9 343.3,101.9 348.9,101.9 		"/>
		<polygon class="st0" points="349.8,94.9 349.8,101.9 348.9,101.9 348.9,95.7 343.3,95.7 343.3,101.9 342.4,101.9 342.4,94.9 		"/>
		<rect x="343.3" y="95.8" class="st6" width="5.7" height="6.1"/>
		<rect x="343.3" y="85.2" class="st0" width="0.9" height="0.4"/>
		<rect x="343.3" y="78" class="st0" width="0.9" height="7.2"/>
		<rect x="343.3" y="77.6" class="st0" width="0.9" height="0.4"/>
		<path class="st4" d="M342.4,115.1v8h-8v-8H342.4z M341.6,122.3V116h-6.3v6.3H341.6z"/>
		<polygon class="st0" points="342.4,101.9 342.4,102.7 319.1,102.7 319.1,101.9 326,101.9 326,102.3 330.9,102.3 330.9,101.9 		"/>
		<rect x="335.3" y="116" class="st6" width="6.3" height="6.3"/>
		<polygon class="st0" points="338.9,152.4 338.9,153.8 326,153.8 326,152.4 326.8,152.4 326.8,152.9 338,152.9 338,152.4 		"/>
		<rect x="338" y="151.5" class="st0" width="0.9" height="0.9"/>
		<rect x="338" y="145.3" class="st0" width="0.9" height="6.2"/>
		<rect x="338" y="144.5" class="st0" width="0.9" height="0.9"/>
		<polygon class="st0" points="338.9,134.1 338.9,144.5 338,144.5 338,135 326.8,135 326.8,144.5 326,144.5 326,134.1 		"/>
		<rect x="337.2" y="85.2" class="st0" width="0.9" height="0.4"/>
		<rect x="337.2" y="78" class="st0" width="0.9" height="7.2"/>
		<rect x="337.2" y="77.6" class="st0" width="0.9" height="0.4"/>
		<polygon class="st0" points="338,152.4 338,152.9 326.8,152.9 326.8,152.4 		"/>
		<polygon class="st0" points="338,151.5 338,152.4 326.8,152.4 326.8,151.6 		"/>
		<polygon class="st12" points="338,145.3 338,151.5 326.8,151.6 326.8,145.3 		"/>
		<rect x="326.8" y="144.5" class="st0" width="11.2" height="0.9"/>
		<rect x="326.8" y="135" class="st12" width="11.2" height="9.5"/>
		<path class="st4" d="M332.6,115.1v8h-8v-8H332.6z M331.8,122.3V116h-6.3v6.3H331.8z"/>
		<rect x="331.1" y="85.2" class="st0" width="0.9" height="0.4"/>
		<rect x="331.1" y="78" class="st0" width="0.9" height="7.2"/>
		<rect x="331.1" y="77.6" class="st0" width="0.9" height="0.4"/>
		<rect x="325.5" y="116" class="st6" width="6.3" height="6.3"/>
		<rect x="326" y="101.9" class="st0" width="4.9" height="0.5"/>
		<path class="st0" d="M330.9,94.4v7.5H326v-7.5H330.9z M330.1,101.5v-6.3h-3.3v6.3H330.1z"/>
		<rect x="326.8" y="95.2" class="st6" width="3.3" height="6.3"/>
		<polygon class="st0" points="326.8,151.6 326.8,152.4 326,152.4 326,151.6 		"/>
		<polygon class="st0" points="326.8,145.3 326.8,151.6 326,151.6 326,145.3 		"/>
		<rect x="326" y="144.5" class="st0" width="0.9" height="0.9"/>
		<path class="st0" d="M326,151.6v0.9l-99.2,0.4l-82.4-2.2c-30.8-1.7-127.8-7.3-137.9-8L6,141.7c6,0.5,137,8,138.4,8l82.4,2.2
			L326,151.6z"/>
		<path class="st4" d="M326,145.3v6.3l-99.2,0.3l-82.4-2.2c-1.3-0.1-132.3-7.5-138.4-8l0,0l-4.8-9.5c-0.1-0.1,0-0.3,0.1-0.3
			c0,0,0.1,0,0.1,0l92.3,5.3l144.3,8.2H326z"/>
		<polygon class="st0" points="326,144.5 326,145.3 269.5,145.3 269.5,145.1 270.3,144.7 270.2,144.5 322.9,144.5 323.1,144.8 
			323.6,144.5 		"/>
		<rect x="325" y="85.2" class="st0" width="0.9" height="0.4"/>
		<rect x="325" y="78" class="st0" width="0.9" height="7.2"/>
		<rect x="325" y="77.6" class="st0" width="0.9" height="0.4"/>
		<polygon class="st0" points="318.9,136.1 323.9,144.3 323.6,144.5 322.9,144.5 318.4,137 266.5,137 270.2,144.5 269.2,144.5 
			265.1,136.1 		"/>
		<polygon class="st0" points="323.6,144.5 323.1,144.8 322.9,144.5 		"/>
		<polygon class="st12" points="318.4,137 322.9,144.5 270.2,144.5 266.5,137 		"/>
		<rect x="318.9" y="85.2" class="st0" width="0.9" height="0.4"/>
		<rect x="318.9" y="78" class="st0" width="0.9" height="7.2"/>
		<rect x="318.9" y="77.6" class="st0" width="0.9" height="0.4"/>
		<polygon class="st0" points="319.6,129.6 319.7,129.9 318.9,130.2 318.6,129.6 		"/>
		<polygon class="st0" points="317,124.3 319.6,129.6 318.6,129.6 312.9,117.6 281.1,117.6 281,117.5 281,116.7 313.5,116.7 
			316.7,123.5 316.7,124.3 		"/>
		<polygon class="st0" points="319.1,109.4 319.1,110.2 310.7,110.2 310.7,109.4 311.5,109.4 311.5,109.4 318.3,109.4 318.3,109.4 
					"/>
		<rect x="318.3" y="102.7" class="st0" width="0.8" height="6.7"/>
		<rect x="318.3" y="101.9" class="st0" width="0.8" height="0.9"/>
		<polygon class="st0" points="319.1,93.6 319.1,101.9 318.3,101.9 318.3,94.4 311.5,94.4 311.5,101.9 310.7,101.9 310.7,93.6 		"/>
		<polygon class="st0" points="318.9,130.2 318.9,130.5 184.6,130.5 97,130.5 93.9,136.3 93,136.2 96.5,129.6 105.6,129.6 
			105.5,129.9 106.3,130.2 106.5,129.6 318.6,129.6 		"/>
		<rect x="311.5" y="109.4" class="st0" width="6.7" height="0"/>
		<rect x="311.5" y="102.7" class="st12" width="6.7" height="6.7"/>
		<rect x="311.5" y="101.9" class="st0" width="6.7" height="0.9"/>
		<rect x="311.5" y="94.4" class="st6" width="6.7" height="7.5"/>
		<polygon class="st0" points="316.7,123.5 317,124.3 316.7,124.3 		"/>
		<rect x="312.8" y="85.2" class="st0" width="0.9" height="0.4"/>
		<rect x="312.8" y="78" class="st0" width="0.9" height="7.2"/>
		<rect x="312.8" y="77.6" class="st0" width="0.9" height="0.4"/>
		<rect x="310.7" y="102.7" class="st0" width="0.8" height="6.7"/>
		<rect x="310.7" y="101.9" class="st0" width="0.8" height="0.9"/>
		<path class="st0" d="M310.7,110.2L310.7,110.2h-7.6c0.2-0.3,0.4-0.6,0.5-0.9h7.1V110.2z"/>
		<path class="st4" d="M310.7,102.7v6.7h-7.1c0.2-0.5,0.3-1,0.3-1.5c0-2.2-1.8-4-4-4h-1c-0.1-0.4-0.3-0.8-0.5-1.2L310.7,102.7z"/>
		<path class="st0" d="M310.7,101.9v0.9h-12.3c-0.1-0.1-0.2-0.3-0.3-0.4l0,0h4.5v-0.5L310.7,101.9z"/>
		<rect x="309.8" y="77.1" class="st0" width="0.4" height="0.9"/>
		<polygon class="st0" points="309.4,86.1 309.4,86.2 279.9,86.2 279.9,86.1 280.1,86.1 280.1,85.1 309.3,85.1 309.3,86.1 		"/>
		<rect x="309.3" y="85.1" class="st0" width="0.1" height="0.9"/>
		<rect x="280.1" y="69.4" class="st14" width="29.2" height="15.8"/>
		<path class="st0" d="M303.9,107.9c0,0.5-0.1,1-0.3,1.5h-1c0.2-0.5,0.4-1,0.4-1.5c0-1.7-1.4-3.1-3.1-3.1h-12.8
			c-1.7,0-3.1,1.4-3.1,3.1c0,1.7,1.4,3.1,3.1,3.1H300c0.8,0,1.5-0.3,2.1-0.8h1.2c-0.8,1-1.9,1.6-3.2,1.6h-12.8c-1.8,0-3.4-1.2-3.9-3
			h0.3V108h-0.5V108c0-2.2,1.8-4,4-4H298c0.1,0.2,0.1,0.3,0.1,0.5l0.8-0.1c0-0.1,0-0.3-0.1-0.4h1
			C302.1,103.9,303.9,105.7,303.9,107.9C303.9,107.9,303.9,107.9,303.9,107.9z"/>
		<path class="st0" d="M302.7,109.4h0.9c-0.1,0.3-0.3,0.6-0.5,0.9H302C302.3,110,302.5,109.7,302.7,109.4z"/>
		<path class="st4" d="M303.1,107.9c0,0.5-0.1,1-0.4,1.5h-5.8v0.9h5.1c-0.6,0.5-1.3,0.8-2.1,0.8h-12.8c-1.7,0-3.1-1.4-3.1-3.1
			c0-1.7,1.4-3.1,3.1-3.1H300C301.7,104.8,303.1,106.2,303.1,107.9z"/>
		<path class="st4" d="M296.9,109.4h5.8c-0.2,0.3-0.4,0.6-0.7,0.9h-5.1V109.4z"/>
		<rect x="298.1" y="101.9" class="st0" width="4.5" height="0.5"/>
		<path class="st0" d="M302.6,94.4v7.5h-4.5v0.5l0,0c-0.1-0.1-0.2-0.3-0.4-0.4v-7.6L302.6,94.4z M301.8,101.5v-6.3h-3.3v6.3H301.8z"
			/>
		<rect x="298.5" y="95.2" class="st6" width="3.3" height="6.3"/>
		<path class="st0" d="M298.9,103.9c0,0.1,0,0.2,0.1,0.4l-0.8,0.1c0-0.2-0.1-0.3-0.1-0.5H298.9z"/>
		<path class="st0" d="M298.9,103.9H298c-0.4-1.3-1.6-2.2-3-2.2h-12.8c-1.7,0-3.1,1.4-3.1,3.1c0,0,0,0,0,0c0,0.2,0,0.5,0.1,0.7
			c0.3,1.4,1.6,2.4,3,2.4h0.9c0,0.3,0,0.6,0.1,0.9h-1c-1.7,0-3.2-1.1-3.8-2.7h0.3v-0.9h-0.5c0-0.1,0-0.3,0-0.4c0-2.2,1.8-4,4-4h11.4
			c0.1,0.2,0.1,0.3,0.2,0.5l0.8-0.2l-0.1-0.3h0.5c1,0,1.9,0.3,2.7,1v0.4h0.4l0,0v0.4h0.3C298.7,103.1,298.8,103.5,298.9,103.9z"/>
		<path class="st0" d="M298.4,102.7h-0.3v-0.4C298.2,102.5,298.3,102.6,298.4,102.7z"/>
		<path class="st0" d="M298.1,102.3h-0.4V102C297.9,102.1,298,102.2,298.1,102.3z"/>
		<path class="st4" d="M298,103.9h-10.9c-2.2,0-4,1.8-4,4v0.1h-0.9c-1.4,0-2.7-1-3-2.4c-0.1-0.2-0.1-0.5-0.1-0.7
			c0-1.7,1.4-3.1,3.1-3.1l0,0h12.8C296.4,101.8,297.6,102.7,298,103.9z"/>
		<path class="st0" d="M294.5,100.9l0.1,0.3l-0.8,0.2c0-0.2-0.1-0.4-0.2-0.5H294.5z"/>
		<path class="st0" d="M294.5,100.9h-0.9c-0.5-1.1-1.6-1.9-2.9-1.9l0,0c-0.1-0.3-0.2-0.5-0.4-0.8l-0.1-0.1h0.5
			C292.5,98.2,294,99.3,294.5,100.9z"/>
		<path class="st4" d="M293.6,100.9h-4.4c0.4,0,0.7-0.1,1-0.4c0.3-0.3,0.5-0.7,0.5-1.1c0-0.1,0-0.3,0-0.4l0,0
			C292,99,293.1,99.8,293.6,100.9z"/>
		<path class="st0" d="M290.7,99c0,0.1,0,0.3,0,0.4c0,0.4-0.2,0.8-0.5,1.1c-0.3,0.2-0.6,0.4-1,0.4H289c-0.4,0-0.8-0.2-1.1-0.5
			l-1.1-1.3h1.3l0.6,0.7c0.1,0.1,0.2,0.2,0.4,0.2c0.2,0,0.3,0,0.4-0.1c0.1-0.1,0.2-0.2,0.2-0.4c0-0.1,0-0.2-0.1-0.3H290.7z"/>
		<path class="st0" d="M290.7,99h-1.1c0,0,0-0.1,0-0.1l-0.7-0.8h1.3l0.1,0.1C290.6,98.5,290.7,98.8,290.7,99z"/>
		<polygon class="st0" points="279.7,86.1 290.3,98.2 288.9,98.2 278.4,86.1 		"/>
		<path class="st4" d="M289.6,99c0.1,0.1,0.1,0.2,0.1,0.3c0,0.1-0.1,0.3-0.2,0.4c-0.1,0.1-0.3,0.2-0.4,0.1c-0.2,0-0.3-0.1-0.4-0.2
			l-0.6-0.7H289.6z"/>
		<path class="st4" d="M289.6,99C289.6,99,289.6,99,289.6,99l-1.5,0.1l-0.8-0.9h1.5L289.6,99z"/>
		<path class="st0" d="M289.2,100.9L289.2,100.9z"/>
		<path class="st4" d="M289,100.9h-6.8c-2.2,0-4,1.8-4,4c0,0.1,0,0.3,0,0.4h-0.3c-1.7,0-3.1-1.4-3.1-3.1c0-0.8,0.3-1.6,0.9-2.2
			c0.6-0.6,1.4-0.9,2.2-0.9h3.5v0l0,0h5.2l1.2,1.3C288.2,100.7,288.6,100.9,289,100.9z"/>
		<polygon class="st4" points="278.4,86.1 288.9,98.2 287.4,98.2 276.9,86.1 		"/>
		<polygon class="st0" points="287.4,98.2 288.1,99 286.8,99 286,98.2 		"/>
		<polygon class="st0" points="276.9,86.1 287.4,98.2 286,98.2 275.5,86.1 		"/>
		<polygon class="st0" points="286,98.2 286.8,99 281.6,99 282.2,98.5 281.9,98.2 		"/>
		<polygon class="st4" points="275.5,86.1 286,98.2 281.9,98.2 277.3,92.7 204.4,92.7 204.4,87.7 136.9,87.7 137.4,86.1 195,86.1 
			261.4,86.1 261.4,86.3 262.3,86.1 262.3,86.1 		"/>
		<path class="st0" d="M283.6,108v0.9h-0.3c-0.1-0.3-0.1-0.6-0.1-0.9H283.6z"/>
		<polygon class="st0" points="281.9,98.2 282.2,98.5 281.6,99 281.5,99 280.7,98.2 		"/>
		<polygon class="st0" points="277.3,92.7 281.9,98.2 280.7,98.2 276.9,93.6 198.3,93.6 198.3,95.2 133.9,95.2 133.9,95.1 
			134.6,95.1 134.9,94.4 138.7,94.4 143.9,94.4 149.2,94.4 154.4,94.4 159.6,94.4 164.9,94.4 170.1,94.4 175.3,94.4 180.6,94.4 
			185.8,94.4 191.1,94.4 197.5,94.4 197.5,92.7 203.5,92.7 203.5,93.2 204.4,93.2 204.4,92.7 		"/>
		<polygon class="st0" points="281.6,99 281.5,99.1 281.5,99 		"/>
		<path class="st0" d="M280.7,98.2l0.7,0.9H278c-0.8,0-1.6,0.3-2.2,0.9c-1.2,1.2-1.2,3.2,0,4.4c0.6,0.6,1.4,0.9,2.2,0.9h0.3
			c0,0.2,0.1,0.4,0.1,0.5c0,0.1,0,0.2,0.1,0.3H278c-2.2,0-4-1.8-4-4s1.8-4,4-4L280.7,98.2z"/>
		<polygon class="st0" points="281,117.5 281.1,117.6 281,117.6 		"/>
		<path class="st0" d="M281,117.5v0.1h-22.8l-4.3-8.2h22.8L281,117.5z M279.7,116.7l-3.5-6.5h-3.6v-0.4h-0.9v0.4h-1.1v-0.4h-0.9v0.4
			h-5.4v-0.4h-0.9v0.4h-1.2v-0.4h-0.9v0.4h-6.1l3.4,6.5h2.7v0.4h0.9v-0.4h1.2v0.4h0.9v-0.4h5.4v0.4h0.9v-0.4h1.2v0.4h0.8v-0.4H279.7
			z"/>
		<rect x="279.9" y="85.1" class="st0" width="0.2" height="0.9"/>
		<polygon class="st0" points="279,85.2 279.7,86.1 278.4,86.1 277.6,85.2 		"/>
		<polygon class="st6" points="276.2,110.3 279.7,116.7 272.6,116.7 272.6,110.3 		"/>
		<path class="st0" d="M262.2,65.9L279,85.2h-1.4l-16.2-18.7c-0.1-0.1-0.2-0.2-0.4-0.2l0,0c-0.1,0-0.3,0.1-0.4,0.1
			c-0.1,0.1-0.2,0.2-0.2,0.4c0,0.1,0,0.3,0.1,0.4l15.6,17.9h-1.3l-4.8-5.5L259.8,68c-0.1-0.1-0.2-0.3-0.3-0.5
			c-0.1-0.2-0.1-0.4-0.1-0.7c0-0.4,0.2-0.8,0.5-1.1c0.3-0.3,0.7-0.4,1.2-0.4C261.5,65.4,261.9,65.6,262.2,65.9z"/>
		<path class="st0" d="M278.8,105.3v0.9h-0.3c0-0.1-0.1-0.2-0.1-0.3c0-0.2-0.1-0.4-0.1-0.5H278.8z"/>
		<polygon class="st4" points="277.6,85.2 278.4,86.1 276.9,86.1 276.1,85.2 		"/>
		<path class="st4" d="M261.4,66.5l16.2,18.7h-1.5l-15.6-17.9c-0.1-0.1-0.2-0.3-0.1-0.4c0-0.2,0.1-0.3,0.2-0.4
			c0.1-0.1,0.2-0.1,0.4-0.1l0,0C261.1,66.3,261.3,66.4,261.4,66.5z"/>
		<polygon class="st0" points="276.1,85.2 276.9,86.1 275.5,86.1 274.8,85.2 		"/>
		<polygon class="st0" points="274.8,85.2 275.5,86.1 262.3,86.1 262,85.2 268.7,85.2 268.7,85.5 269.6,85.5 269.6,85.2 		"/>
		<rect x="271.8" y="116.7" class="st0" width="0.9" height="0.4"/>
		<rect x="271.8" y="110.3" class="st6" width="0.9" height="6.5"/>
		<rect x="271.8" y="109.8" class="st0" width="0.9" height="0.4"/>
		<rect x="270.6" y="110.3" class="st6" width="1.2" height="6.5"/>
		<rect x="269.7" y="116.7" class="st0" width="0.9" height="0.4"/>
		<rect x="269.7" y="110.3" class="st0" width="0.9" height="6.5"/>
		<rect x="269.7" y="109.8" class="st0" width="0.9" height="0.4"/>
		<polygon class="st0" points="270.2,144.5 270.3,144.7 269.5,145.1 269.2,144.5 		"/>
		<rect x="264.3" y="110.3" class="st6" width="5.4" height="6.5"/>
		<rect x="268.7" y="85.2" class="st0" width="0.9" height="0.3"/>
		<polygon class="st0" points="269.6,80.1 269.6,85.2 268.7,85.2 268.7,80.9 261.9,80.9 261.8,80.6 249.2,37.9 249.5,35.9 
			258.9,67.7 262.6,80.1 		"/>
		<polygon class="st0" points="269.5,145.1 269.5,145.3 237.9,145.3 93.6,137.1 93.6,136.9 93.9,136.3 177.4,141 237.9,144.5 
			269.2,144.5 		"/>
		<polygon class="st4" points="268.7,80.9 268.7,85.2 262,85.2 248.8,40.7 249.2,37.9 261.8,80.6 261.9,80.9 		"/>
		<rect x="263.5" y="116.7" class="st0" width="0.9" height="0.4"/>
		<rect x="263.5" y="110.3" class="st6" width="0.9" height="6.5"/>
		<rect x="263.5" y="109.8" class="st0" width="0.9" height="0.4"/>
		<rect x="262.3" y="110.3" class="st6" width="1.2" height="6.5"/>
		<path class="st4" d="M262.3,135.4v8h-5.6v-8H262.3z M261.4,142.5v-6.3h-3.8v6.3L261.4,142.5z"/>
		<rect x="261.4" y="116.7" class="st0" width="0.9" height="0.4"/>
		<rect x="261.4" y="110.3" class="st0" width="0.9" height="6.5"/>
		<rect x="261.4" y="109.8" class="st0" width="0.9" height="0.4"/>
		<polygon class="st0" points="262.3,86.1 262.3,86.1 261.4,86.3 261.4,86.1 		"/>
		<polygon class="st0" points="262,85.2 262.3,86.1 261.4,86.1 261.1,85.2 		"/>
		<polygon class="st0" points="248.8,40.7 262,85.2 261.1,85.2 257.5,73.3 257.9,73.3 257.9,72.4 257.3,72.4 257,71.5 257.3,71.5 
			257.3,70.6 256.8,70.6 252.6,56.8 252.8,56.8 252.8,55.9 252.4,55.9 252.1,55 252.4,55 252.4,54.1 251.8,54.1 248.5,42.7 		"/>
		<rect x="257.5" y="136.2" class="st6" width="3.9" height="6.3"/>
		<polygon class="st6" points="261.4,110.3 261.4,116.7 258.7,116.7 255.3,110.3 		"/>
		<polygon class="st0" points="261.1,85.2 261.4,86.1 195,86.1 195,85.9 194.8,85.2 235.8,85.2 235.8,85.4 236.6,85.6 236.7,85.2 
			240.9,85.2 240.9,85.4 241.8,85.5 241.8,85.2 		"/>
		<polygon class="st0" points="257.9,72.4 257.9,73.3 257.5,73.3 257.3,72.4 		"/>
		<polygon class="st0" points="257.3,72.4 257.5,73.3 243.7,73.3 243.8,72.4 		"/>
		<polygon class="st4" points="257,71.5 257.3,72.4 243.8,72.4 244,71.5 		"/>
		<polygon class="st0" points="257.3,70.6 257.3,71.5 257,71.5 256.8,70.6 		"/>
		<polygon class="st0" points="256.8,70.6 257,71.5 244,71.5 244.1,70.6 		"/>
		<path class="st4" d="M255.9,135.4v8h-5.6v-8H255.9z M255.1,142.5v-6.3h-3.9v6.3L255.1,142.5z"/>
		<polygon class="st0" points="255.1,0 249.5,35.9 249.5,35.8 248.7,36 248.6,36 254.1,0.9 253.1,0.9 236.7,85.2 235.8,85.2 
			252.3,0 		"/>
		<rect x="251.2" y="136.2" class="st6" width="3.9" height="6.3"/>
		<polygon class="st4" points="254.1,0.9 248.6,36 247.9,40.9 240.9,85.2 236.7,85.2 253.1,0.9 		"/>
		<polygon class="st0" points="249.1,109.4 253.4,117.6 129.5,117.6 129.8,116.7 133.1,116.7 133,117 133.8,117.3 134,116.7 
			137.8,116.7 137.7,117 138.5,117.3 138.7,116.7 144,116.7 143.9,117 144.8,117.3 144.9,116.7 151.2,116.7 151.1,117 151.9,117.3 
			152.1,116.7 159.9,116.7 159.8,117 160.6,117.3 160.8,116.7 169.8,116.7 169.7,117 170.5,117.3 170.7,116.7 180.7,116.7 
			180.6,117 181.4,117.3 181.6,116.7 191.3,116.7 191.2,117 192,117.3 192.2,116.7 202.9,116.7 202.8,117 203.6,117.3 203.8,116.7 
			213,116.7 212.9,117 213.7,117.3 213.9,116.7 221.2,116.7 221.1,117 221.9,117.3 222.1,116.7 228.8,116.7 228.8,117.2 
			229.6,117.2 229.6,116.7 230.9,116.7 230.9,117.2 231.7,117.2 231.7,116.7 237.4,116.7 237.4,117.2 238.3,117.2 238.3,116.7 
			239.5,116.7 239.5,117.2 240.3,117.2 240.3,116.7 245.6,116.7 245.6,117.2 246.5,117.2 246.5,116.7 247.6,116.7 247.6,117.2 
			248.5,117.2 248.5,116.7 252,116.7 248.6,110.3 248.5,110.3 248.5,109.8 247.6,109.8 247.6,110.3 246.5,110.3 246.5,109.8 
			245.6,109.8 245.6,110.3 240.3,110.3 240.3,109.8 239.5,109.8 239.5,110.3 238.3,110.3 238.3,109.8 237.4,109.8 237.4,110.3 
			231.7,110.3 231.7,109.8 230.9,109.8 230.9,110.3 229.6,110.3 229.6,109.8 228.8,109.8 228.8,110.3 224.1,110.3 224.2,110 
			223.4,109.7 223.2,110.3 215.9,110.3 216,110 215.2,109.7 215,110.3 205.8,110.3 205.9,110 205.1,109.7 204.9,110.3 194.2,110.3 
			194.3,110 193.5,109.7 193.3,110.3 183.6,110.3 183.7,110 182.9,109.7 182.7,110.3 172.7,110.3 172.8,110 172,109.7 171.8,110.3 
			162.9,110.3 162.9,110 162.1,109.7 161.9,110.3 154.1,110.3 154.2,110 153.4,109.7 153.2,110.3 147,110.3 147.1,110 146.3,109.7 
			146.1,110.3 140.7,110.3 140.8,110 140,109.7 139.8,110.3 136,110.3 136.1,110 135.3,109.7 135.1,110.3 131.8,110.3 132.1,109.4 
					"/>
		<polygon class="st0" points="252.8,55.9 252.8,56.8 252.6,56.8 252.4,55.9 		"/>
		<polygon class="st0" points="252.4,55.9 252.6,56.8 246.3,56.8 246.4,55.9 		"/>
		<polygon class="st0" points="252.4,54.1 252.4,55 252.1,55 251.8,54.1 		"/>
		<polygon class="st4" points="252.1,55 252.4,55.9 246.4,55.9 246.5,55 		"/>
		<polygon class="st0" points="251.8,54.1 252.1,55 246.5,55 246.7,54.1 		"/>
		<polygon class="st6" points="248.6,110.3 252,116.7 248.5,116.7 248.5,110.3 		"/>
		<polygon class="st0" points="249.5,35.8 249.5,35.9 249.2,37.9 248.7,36 		"/>
		<polygon class="st0" points="248.7,36 249.2,37.9 248.8,40.7 248.7,40.6 247.9,40.9 247.9,40.9 248.6,36 		"/>
		<polygon class="st0" points="248.7,40.6 248.8,40.7 248.5,42.7 247.9,40.9 		"/>
		<rect x="247.6" y="116.7" class="st0" width="0.9" height="0.4"/>
		<rect x="247.6" y="110.3" class="st6" width="0.9" height="6.5"/>
		<rect x="247.6" y="109.8" class="st0" width="0.9" height="0.4"/>
		<polygon class="st0" points="247.9,40.9 248.5,42.7 246.7,54.1 246.2,54.1 246.2,55 246.5,55 246.4,55.9 246.2,55.9 246.2,56.8 
			246.3,56.8 244.1,70.6 243.9,70.6 243.9,71.5 244,71.5 243.8,72.4 243.5,72.4 243.5,73.3 243.7,73.3 241.8,85.2 240.9,85.2 
			247.9,40.9 		"/>
		<rect x="246.5" y="110.3" class="st6" width="1.1" height="6.5"/>
		<polygon class="st0" points="246.7,54.1 246.5,55 246.2,55 246.2,54.1 		"/>
		<rect x="245.6" y="116.7" class="st0" width="0.9" height="0.4"/>
		<rect x="245.6" y="110.3" class="st0" width="0.9" height="6.5"/>
		<rect x="245.6" y="109.8" class="st0" width="0.9" height="0.4"/>
		<polygon class="st0" points="246.4,55.9 246.3,56.8 246.2,56.8 246.2,55.9 		"/>
		<rect x="240.3" y="110.3" class="st6" width="5.3" height="6.5"/>
		<polygon class="st0" points="244.1,70.6 244,71.5 243.9,71.5 243.9,70.6 		"/>
		<path class="st4" d="M244,135.4v8h-5.6v-8H244z M243.1,142.5v-6.3h-3.9v6.3L243.1,142.5z"/>
		<polygon class="st0" points="243.8,72.4 243.7,73.3 243.5,73.3 243.5,72.4 		"/>
		<rect x="239.2" y="136.2" class="st6" width="3.9" height="6.3"/>
		<polygon class="st0" points="241.8,85.2 241.8,85.5 240.9,85.4 240.9,85.2 		"/>
		<rect x="239.5" y="116.7" class="st0" width="0.9" height="0.4"/>
		<rect x="239.5" y="110.3" class="st0" width="0.9" height="6.5"/>
		<rect x="239.5" y="109.8" class="st0" width="0.9" height="0.4"/>
		<rect x="238.3" y="110.3" class="st6" width="1.2" height="6.5"/>
		<rect x="237.4" y="116.7" class="st0" width="0.9" height="0.4"/>
		<rect x="237.4" y="110.3" class="st0" width="0.9" height="6.5"/>
		<rect x="237.4" y="109.8" class="st0" width="0.9" height="0.4"/>
		<path class="st4" d="M237.6,135.4v8H232v-8H237.6z M236.8,142.5v-6.3h-3.9v6.3L236.8,142.5z"/>
		<rect x="231.7" y="110.3" class="st6" width="5.7" height="6.5"/>
		<rect x="232.9" y="136.2" class="st6" width="3.9" height="6.3"/>
		<polygon class="st0" points="236.7,85.2 236.6,85.6 235.8,85.4 235.8,85.2 		"/>
		<rect x="230.9" y="116.7" class="st0" width="0.9" height="0.4"/>
		<rect x="230.9" y="110.3" class="st0" width="0.9" height="6.5"/>
		<rect x="230.9" y="109.8" class="st0" width="0.9" height="0.4"/>
		<rect x="229.6" y="110.3" class="st6" width="1.2" height="6.5"/>
		<rect x="228.8" y="116.7" class="st0" width="0.9" height="0.4"/>
		<rect x="228.8" y="110.3" class="st0" width="0.9" height="6.5"/>
		<rect x="228.8" y="109.8" class="st0" width="0.9" height="0.4"/>
		<polygon class="st6" points="228.8,110.3 228.8,116.7 222.1,116.7 224.1,110.3 		"/>
		<polygon class="st0" points="224.2,110 224.1,110.3 223.2,110.3 223.4,109.7 		"/>
		<polygon class="st0" points="224.1,110.3 222.1,116.7 221.2,116.7 223.2,110.3 		"/>
		<polygon class="st6" points="223.2,110.3 221.2,116.7 213.9,116.7 215.9,110.3 		"/>
		<polygon class="st0" points="222.1,116.7 221.9,117.3 221.1,117 221.2,116.7 		"/>
		<polygon class="st0" points="216,110 215.9,110.3 215,110.3 215.2,109.7 		"/>
		<polygon class="st0" points="215.9,110.3 213.9,116.7 213,116.7 215,110.3 		"/>
		<polygon class="st6" points="215,110.3 213,116.7 203.8,116.7 205.8,110.3 		"/>
		<polygon class="st0" points="213.9,116.7 213.7,117.3 212.9,117 213,116.7 		"/>
		<polygon class="st0" points="205.9,110 205.8,110.3 204.9,110.3 205.1,109.7 		"/>
		<polygon class="st0" points="205.8,110.3 203.8,116.7 202.9,116.7 204.9,110.3 		"/>
		<polygon class="st6" points="204.9,110.3 202.9,116.7 192.2,116.7 194.2,110.3 		"/>
		<rect x="203.5" y="92.7" class="st0" width="0.9" height="0.4"/>
		<polygon class="st0" points="204.4,87.7 204.4,92.7 203.5,92.7 203.5,88.7 192.8,88.7 187.6,88.7 182.4,88.7 177.1,88.7 
			171.9,88.7 166.7,88.7 161.4,88.7 156.2,88.7 151,88.7 145.7,88.7 140.5,88.7 136.6,88.7 136.9,87.7 		"/>
		<polygon class="st0" points="203.8,116.7 203.6,117.3 202.8,117 202.9,116.7 		"/>
		<polygon class="st6" points="203.5,88.7 203.5,92.7 197.5,92.7 197.5,94.4 191.1,94.4 192.8,88.7 		"/>
		<path class="st0" d="M195,85.9V86h-57.6l-0.5,1.7h-0.6v0.9h0.3l-1.7,5.7H134v-0.1l2.7-9.1h42.8c0,0,0,0.1,0,0.1l0.4,0.1l0.4,0.2
			c0.1-0.2,0.1-0.3,0.1-0.5h2.3h0.2l0,0h8.7l0.2,0.7L195,85.9z"/>
		<polygon class="st0" points="194.8,85.2 195,85.9 191.8,85.9 191.7,85.2 193.9,85.2 		"/>
		<polygon class="st0" points="188.2,59.3 194.8,85.2 193.9,85.2 193.9,85 187.8,61.3 		"/>
		<polygon class="st0" points="194.3,110 194.2,110.3 193.3,110.3 193.5,109.7 		"/>
		<polygon class="st0" points="194.2,110.3 192.2,116.7 191.3,116.7 193.3,110.3 		"/>
		<polygon class="st0" points="193.9,85 193.9,85.2 191.7,85.2 186.9,65.7 187.3,63.7 192.5,85 		"/>
		<polygon class="st4" points="187.8,61.3 193.9,85 192.5,85 187.3,63.7 		"/>
		<polygon class="st6" points="193.3,110.3 191.3,116.7 181.6,116.7 183.6,110.3 		"/>
		<polygon class="st6" points="192.8,88.7 191.1,94.4 185.8,94.4 187.6,88.7 		"/>
		<polygon class="st0" points="192.2,116.7 192,117.3 191.2,117 191.3,116.7 		"/>
		<path class="st0" d="M192,40.8l-3.8,18.5v-0.1l-0.9,0.2l0,0l3.7-18l-0.6-0.2c-3.4,15.5-9,40.2-9.9,44h-0.9c0.6-2.1,6.8-30,10-44.7
			l0.1-0.5L192,40.8z"/>
		<path class="st4" d="M191,41.4l-3.7,18l-0.9,4.3L182,85l0.7,0.1h-2.3c1-3.8,6.5-28.5,9.9-44L191,41.4z"/>
		<polygon class="st0" points="188.2,59.2 188.2,59.3 187.8,61.3 187.3,59.5 		"/>
		<polygon class="st0" points="187.3,59.5 187.8,61.3 187.3,63.7 187.3,63.6 186.4,63.8 186.4,63.8 187.3,59.4 		"/>
		<polygon class="st6" points="187.6,88.7 185.8,94.4 180.6,94.4 182.4,88.7 		"/>
		<polygon class="st0" points="187.3,63.6 187.3,63.7 186.9,65.7 186.4,63.8 		"/>
		<polygon class="st0" points="186.4,63.8 186.9,65.7 182.9,85.2 182.7,85.2 182,85.1 186.4,63.8 		"/>
		<path class="st4" d="M184.6,132.7v7.1h-7.2v-7.1H184.6z M183.8,139v-5.4h-5.4v5.5L183.8,139z"/>
		<path class="st4" d="M184.6,130.5v2.2h-7.2v7.1l-0.1,1.2L94,136.3l3.1-5.8L184.6,130.5z M176.2,139.9v-7.1H169v7.1H176.2z
			 M164.4,139.9v-7.1h-7.1v7.1H164.4z"/>
		<rect x="178.3" y="133.6" class="st6" width="5.4" height="5.4"/>
		<polygon class="st0" points="183.7,110 183.6,110.3 182.7,110.3 182.9,109.7 		"/>
		<polygon class="st0" points="183.6,110.3 181.6,116.7 180.7,116.7 182.7,110.3 		"/>
		<polygon class="st0" points="182.9,85.2 182.9,85.3 182.7,85.2 		"/>
		<polygon class="st6" points="182.7,110.3 180.7,116.7 170.7,116.7 172.7,110.3 		"/>
		<polygon class="st6" points="182.4,88.7 180.6,94.4 175.3,94.4 177.1,88.7 		"/>
		<polygon class="st0" points="181.6,116.7 181.4,117.3 180.6,117 180.7,116.7 		"/>
		<path class="st0" d="M179.5,85.2h0.9c0,0.2-0.1,0.3-0.1,0.5l-0.4-0.2l-0.4-0.1C179.5,85.3,179.5,85.3,179.5,85.2z"/>
		<polygon class="st6" points="177.1,88.7 175.3,94.4 170.1,94.4 171.9,88.7 		"/>
		<path class="st4" d="M176.1,132.7v7.1H169v-7.1H176.1z M175.3,139v-5.4h-5.4v5.5L175.3,139z"/>
		<rect x="169.9" y="133.6" class="st6" width="5.4" height="5.4"/>
		<polygon class="st0" points="172.8,110 172.7,110.3 171.8,110.3 172,109.7 		"/>
		<polygon class="st0" points="172.7,110.3 170.7,116.7 169.8,116.7 171.8,110.3 		"/>
		<polygon class="st6" points="171.9,88.7 170.1,94.4 164.9,94.4 166.7,88.7 		"/>
		<polygon class="st6" points="171.8,110.3 169.8,116.7 160.8,116.7 162.9,110.3 		"/>
		<polygon class="st0" points="170.7,116.7 170.5,117.3 169.7,117 169.8,116.7 		"/>
		<polygon class="st6" points="166.7,88.7 164.9,94.4 159.6,94.4 161.4,88.7 		"/>
		<path class="st4" d="M164.4,132.7v7.1h-7.1v-7.1H164.4z M163.5,139v-5.4h-5.4v5.5L163.5,139z"/>
		<rect x="158.1" y="133.6" class="st6" width="5.4" height="5.4"/>
		<polygon class="st0" points="162.9,110 162.9,110.3 161.9,110.3 162.1,109.7 		"/>
		<polygon class="st0" points="162.9,110.3 160.8,116.7 159.9,116.7 161.9,110.3 		"/>
		<polygon class="st6" points="161.9,110.3 159.9,116.7 152.1,116.7 154.1,110.3 		"/>
		<polygon class="st6" points="161.4,88.7 159.6,94.4 154.4,94.4 156.2,88.7 		"/>
		<polygon class="st0" points="160.8,116.7 160.6,117.3 159.8,117 159.9,116.7 		"/>
		<polygon class="st6" points="156.2,88.7 154.4,94.4 149.2,94.4 151,88.7 		"/>
		<polygon class="st0" points="154.2,110 154.1,110.3 153.2,110.3 153.4,109.7 		"/>
		<polygon class="st0" points="154.1,110.3 152.1,116.7 151.2,116.7 153.2,110.3 		"/>
		<polygon class="st6" points="153.2,110.3 151.2,116.7 144.9,116.7 147,110.3 		"/>
		<polygon class="st0" points="152.1,116.7 151.9,117.3 151.1,117 151.2,116.7 		"/>
		<polygon class="st6" points="151,88.7 149.2,94.4 143.9,94.4 145.7,88.7 		"/>
		<polygon class="st0" points="147.1,110 147,110.3 146.1,110.3 146.3,109.7 		"/>
		<polygon class="st0" points="147,110.3 144.9,116.7 144,116.7 146.1,110.3 		"/>
		<polygon class="st6" points="146.1,110.3 144,116.7 138.7,116.7 140.7,110.3 		"/>
		<polygon class="st6" points="145.7,88.7 143.9,94.4 138.7,94.4 140.5,88.7 		"/>
		<polygon class="st0" points="144.9,116.7 144.8,117.3 143.9,117 144,116.7 		"/>
		<polygon class="st0" points="140.8,110 140.7,110.3 139.8,110.3 140,109.7 		"/>
		<polygon class="st0" points="140.7,110.3 138.7,116.7 137.8,116.7 139.8,110.3 		"/>
		<polygon class="st6" points="140.5,88.7 138.7,94.4 134.9,94.4 136.6,88.7 		"/>
		<polygon class="st6" points="139.8,110.3 137.8,116.7 134,116.7 136,110.3 		"/>
		<polygon class="st0" points="138.7,116.7 138.5,117.3 137.7,117 137.8,116.7 		"/>
		<polygon class="st0" points="136.9,87.7 136.6,88.7 136.2,88.7 136.2,87.7 		"/>
		<polygon class="st0" points="136.1,110 136,110.3 135.1,110.3 135.3,109.7 		"/>
		<polygon class="st0" points="136,110.3 134,116.7 133.1,116.7 135.1,110.3 		"/>
		<polygon class="st6" points="135.1,110.3 133.1,116.7 129.8,116.7 131.8,110.3 		"/>
		<polygon class="st0" points="134.9,94.4 134.6,95.1 133.9,95.1 133.9,94.4 134,94.4 		"/>
		<polygon class="st0" points="134,94.3 134,94.4 133.9,94.4 133.9,95.1 125.2,95.1 121.7,107.1 132.8,107.1 132.1,109.4 
			131.5,109.4 131.5,110.3 131.8,110.3 129.8,116.7 129.1,116.7 128.9,116.7 131.6,107.9 120.5,107.9 124.6,94.3 		"/>
		<polygon class="st0" points="134,116.7 133.8,117.3 133,117 133.1,116.7 		"/>
		<polygon class="st0" points="132.1,109.4 131.8,110.3 131.5,110.3 131.5,109.4 		"/>
		<polygon class="st0" points="129.8,116.7 129.5,117.6 129.1,117.6 129.1,116.7 		"/>
		<polygon class="st0" points="129.5,117.6 128.9,119.5 109.9,119.5 106.5,129.6 105.6,129.6 109.3,118.7 128.3,118.7 128.9,116.7 
			129.1,116.7 129.1,117.6 		"/>
		<polygon class="st0" points="106.5,129.6 106.3,130.2 105.5,129.9 105.6,129.6 		"/>
		<polygon class="st0" points="93.9,136.3 93.6,136.9 92.9,136.5 93,136.2 		"/>
		<path class="st0" d="M93.6,136.9v0.3l-92.2-5.3c-0.1,0-0.2,0.1-0.2,0.2c0,0,0,0.1,0,0.1l4.8,9.5H5.9l-0.1,0.4l-0.1,0.4l-0.1,0
			L0.1,132c-0.2-0.3-0.1-0.7,0.3-0.9c0.1-0.1,0.2-0.1,0.4-0.1l92.3,5.3l-0.1,0.2L93.6,136.9z"/>
		<polygon class="st0" points="13.4,156.3 13.9,157.1 13.1,157 13.2,156.2 13.3,156.2 13.4,156.3 		"/>
		<polygon class="st2" points="13.4,156.2 13.4,156.3 13.4,156.3 13.3,156.2 		"/>
		<polygon class="st2" points="13,155.4 13.4,156.2 13.3,156.2 12.9,155.4 		"/>
		<path class="st0" d="M12.9,155.4l0.4,0.8h-0.1l0,0.9l-0.2,0.1l-7.5-14.6l0.1,0l0.9,0.1l6.5,12.8L12.9,155.4z"/>
		<path class="st0" d="M6,141.7l0.5,0.9l-0.9-0.1l0.1-0.4l0.1-0.4L6,141.7L6,141.7z"/>
		<polygon class="st0" points="139,94.9 138.2,94.7 138.3,94.2 140.2,88.1 141.1,88.3 		"/>
		<polygon class="st0" points="144.2,94.9 143.4,94.7 143.5,94.2 145.5,88.1 146.3,88.3 		"/>
		<polygon class="st0" points="149.4,94.9 148.6,94.7 148.8,94.2 150.7,88.1 151.5,88.3 		"/>
		<polygon class="st0" points="154.7,94.9 153.9,94.7 154,94.2 155.9,88.1 156.8,88.3 		"/>
		<polygon class="st0" points="159.9,94.9 159.1,94.7 159.2,94.2 161.2,88.1 162,88.3 		"/>
		<polygon class="st0" points="165.1,94.9 164.3,94.7 164.5,94.2 166.4,88.1 167.2,88.3 		"/>
		<polygon class="st0" points="170.4,94.9 169.6,94.7 171.6,88.1 172.5,88.3 		"/>
		<polygon class="st0" points="175.6,94.9 174.8,94.7 174.9,94.2 176.9,88.1 177.7,88.3 		"/>
		<polygon class="st0" points="180.9,94.9 180,94.7 180.2,94.2 182.1,88.1 182.9,88.3 		"/>
		<polygon class="st0" points="186.1,94.9 185.3,94.7 185.4,94.2 187.3,88.1 188.2,88.3 		"/>
		<polygon class="st0" points="191.3,94.9 190.5,94.7 190.6,94.2 192.6,88.1 193.4,88.3 		"/>
		<text transform="matrix(1 0 0 1 155.51 160.49)" class="st15 st16 st17">MV MAL</text>
		<text transform="matrix(1 0 0 1 176.5 160.49)" class="st15 st16 st17">A</text>
		<text transform="matrix(1 0 0 1 180.16 160.49)" class="st15 st16 st17">SPINA</text>
		
			<linearGradient id="SVGID_1_" gradientUnits="userSpaceOnUse" x1="376.145" y1="84.7591" x2="376.145" y2="77.7191" gradientTransform="matrix(1 0 0 -1 0 218.9291)">
			<stop  offset="0" style="stop-color:#231F20"/>
			<stop  offset="0.13" style="stop-color:#524F4F"/>
			<stop  offset="0.3" style="stop-color:#868484"/>
			<stop  offset="0.46" style="stop-color:#B1B0B0"/>
			<stop  offset="0.61" style="stop-color:#D3D2D3"/>
			<stop  offset="0.76" style="stop-color:#EBEBEB"/>
			<stop  offset="0.89" style="stop-color:#FAFAFA"/>
			<stop  offset="1" style="stop-color:#FFFFFF"/>
		</linearGradient>
		<polygon class="st18" points="97,129.9 93.9,136.3 235.8,145.3 658.4,144.5 650.7,130.5 		"/>
		
			<linearGradient id="SVGID_2_" gradientUnits="userSpaceOnUse" x1="190.745" y1="106.7491" x2="190.745" y2="113.1791" gradientTransform="matrix(1 0 0 -1 0 218.9291)">
			<stop  offset="0" style="stop-color:#FFFFFF"/>
			<stop  offset="0.11" style="stop-color:#FAFAFA"/>
			<stop  offset="0.24" style="stop-color:#EBEBEB"/>
			<stop  offset="0.39" style="stop-color:#D3D2D3"/>
			<stop  offset="0.54" style="stop-color:#B1B0B0"/>
			<stop  offset="0.7" style="stop-color:#868484"/>
			<stop  offset="0.87" style="stop-color:#524F4F"/>
			<stop  offset="1" style="stop-color:#231F20"/>
		</linearGradient>
		<polygon class="st19" points="132.8,107.1 248.1,107.1 252,116.7 129.5,116.7 		"/>
	</g>
</g>
</svg>
