<svg width="116" height="71" viewBox="0 0 116 71" fill="none" xmlns="http://www.w3.org/2000/svg">
<path d="M57.6657 45.6107C57.7827 42.8767 58.2842 40.1594 59.1366 37.5588C59.3205 36.9753 59.8553 36.5919 60.4738 36.5919H63.0646H65.6553C66.2571 36.5919 66.7919 36.9753 66.9925 37.5588C67.845 40.1594 68.3297 42.8767 68.4634 45.6107L68.8479 54.5128H63.0646H57.2813L57.6657 45.6107Z" fill="white"/>
<path d="M68.8478 55.2296H57.2813C57.0807 55.2296 56.8968 55.1463 56.7631 55.0129C56.6294 54.8629 56.5625 54.6795 56.5625 54.4795L56.947 45.5774C57.064 42.7767 57.5821 40.0094 58.4513 37.3421C58.7354 36.4752 59.5545 35.8751 60.4738 35.8751H65.6553C66.5746 35.8751 67.3937 36.4586 67.6778 37.3421C68.547 40.0094 69.0484 42.7767 69.1821 45.5774L69.5666 54.4795C69.5833 54.6795 69.4997 54.8629 69.366 55.0129C69.2323 55.1463 69.0317 55.2296 68.8478 55.2296ZM58.0334 53.796H68.0957L67.7447 45.6607C67.6277 42.9934 67.1429 40.3428 66.3239 37.8089C66.2403 37.5255 65.9729 37.3421 65.672 37.3421H60.4905C60.1896 37.3421 59.9389 37.5255 59.8386 37.8089C59.0029 40.3595 58.5349 42.9934 58.4179 45.6607L58.0334 53.796Z" fill="#1C3361"/>
<path d="M113.142 42.2433C112.824 42.2433 112.523 42.0265 112.44 41.6931L111.353 37.3921L103.146 37.8589C102.745 37.8756 102.411 37.5755 102.378 37.1754C102.361 36.7753 102.662 36.4419 103.063 36.4085L111.855 35.9084C112.206 35.8918 112.507 36.1085 112.59 36.4586L113.81 41.3264C113.911 41.7098 113.677 42.1099 113.292 42.1932C113.259 42.2433 113.192 42.2433 113.142 42.2433Z" fill="#1C3361"/>
<path d="M108.88 42.5433C108.545 42.5433 108.244 42.3099 108.178 41.9765L107.091 37.042C107.007 36.6586 107.258 36.2752 107.643 36.1918C108.027 36.1085 108.412 36.3585 108.495 36.742L109.582 41.6764C109.665 42.0599 109.414 42.4433 109.03 42.5266C108.98 42.5433 108.93 42.5433 108.88 42.5433Z" fill="#1C3361"/>
<path d="M3.56025 54.1128C3.52682 54.1128 3.51011 54.1128 3.47668 54.1128C3.07553 54.0628 2.79138 53.7127 2.84152 53.3126L3.42654 48.4948C3.47668 48.1281 3.77754 47.8613 4.14527 47.8613H24.0023C24.3366 47.8613 24.6208 48.0947 24.7043 48.4115L25.4064 51.3455C25.5067 51.7289 25.2559 52.1123 24.8715 52.2124C24.4871 52.3124 24.1026 52.0623 24.0023 51.6789L23.4173 49.2783H4.78043L4.27899 53.4626C4.22884 53.8461 3.91126 54.1128 3.56025 54.1128Z" fill="#1C3361"/>
<path d="M14.1407 54.1127C13.7395 54.1127 13.4219 53.796 13.4219 53.3959V48.5781C13.4219 48.178 13.7395 47.8612 14.1407 47.8612C14.5418 47.8612 14.8594 48.178 14.8594 48.5781V53.3959C14.8594 53.796 14.5251 54.1127 14.1407 54.1127Z" fill="#1C3361"/>
<path d="M8.75853 54.1127C8.74182 54.1127 8.7251 54.1127 8.70839 54.1127C8.30723 54.0794 8.00637 53.746 8.0398 53.3459L8.39081 48.5281C8.42424 48.128 8.77525 47.8279 9.15968 47.8612C9.56084 47.8946 9.8617 48.228 9.82827 48.6281L9.47726 53.4459C9.46055 53.8293 9.14297 54.1127 8.75853 54.1127Z" fill="#1C3361"/>
<path d="M19.4894 54.1127C19.1216 54.1127 18.8041 53.8293 18.7706 53.4459L18.4196 48.6281C18.3862 48.228 18.6871 47.8946 19.0882 47.8612C19.4894 47.8279 19.8237 48.128 19.8571 48.5281L20.2081 53.3459C20.2415 53.746 19.9407 54.0794 19.5395 54.1127C19.5228 54.1127 19.5061 54.1127 19.4894 54.1127Z" fill="#1C3361"/>
<path d="M93.7695 35.0082L92.9337 29.9237L95.1066 23.3888H76.3528C75.9015 23.3888 75.517 23.6889 75.4167 24.1223L70.6029 43.1268C70.6029 43.1268 88.2035 47.0444 88.2035 46.7943C88.2035 46.5443 93.7695 35.0082 93.7695 35.0082Z" fill="white"/>
<path d="M88.1533 47.5278C87.936 47.5278 87.6686 47.4778 87.2507 47.4111C86.766 47.3278 86.0807 47.1944 85.2115 47.011C83.7406 46.711 81.7015 46.2775 79.1608 45.7441C74.8317 44.8105 70.4859 43.8436 70.4525 43.8269C70.2686 43.7769 70.1015 43.6602 70.0012 43.5102C69.9009 43.3435 69.8675 43.1435 69.9176 42.9601L74.7314 23.9556C74.9153 23.2054 75.6006 22.672 76.3695 22.672H95.1066C95.3406 22.672 95.5579 22.7887 95.6917 22.9721C95.8254 23.1554 95.8588 23.4055 95.7919 23.6222L93.6692 29.9904L94.4715 34.8915C94.4882 35.0416 94.4715 35.1916 94.4046 35.325C92.3153 39.676 89.1395 46.3109 88.9055 46.9777C88.8721 47.1277 88.7718 47.2778 88.6548 47.3778C88.5043 47.4778 88.3706 47.5278 88.1533 47.5278ZM71.4888 42.5933C77.2386 43.877 85.6628 45.6941 87.7355 46.0441C87.8692 45.7274 88.0865 45.2606 88.4208 44.5605C88.8888 43.5769 89.5239 42.2099 90.3262 40.5095C91.4963 38.0589 92.6663 35.625 93.0006 34.9082L92.1983 30.057C92.1816 29.9404 92.1816 29.8237 92.2317 29.707L94.087 24.1223H76.3528C76.2358 24.1223 76.1355 24.2057 76.102 24.3057L71.4888 42.5933Z" fill="#1C3361"/>
<path d="M92.2651 25.3393L91.0115 29.1235H93.1845L94.4548 25.3393H92.2651Z" fill="#1C3361"/>
<path d="M88.1366 25.3393L87.5014 29.1235H89.6911L90.9447 25.3393H88.1366Z" fill="#1C3361"/>
<path d="M86.8329 25.3393L86.1977 29.1235H83.9914V25.3393H86.8329Z" fill="#1C3361"/>
<path d="M79.094 35.4583C79.1608 35.1916 79.3948 35.0249 79.679 35.0249H90.8778H102.077C102.344 35.0249 102.578 35.2083 102.662 35.4583L105.119 44.4271L90.8778 44.9772L76.6369 44.4271L79.094 35.4583Z" fill="white"/>
<path d="M90.8778 45.6941C90.8611 45.6941 90.8611 45.6941 90.8444 45.6941L76.6035 45.1439C76.3862 45.1273 76.1856 45.0272 76.0519 44.8439C75.9182 44.6605 75.8847 44.4438 75.9349 44.227L78.3919 35.2583C78.5424 34.6915 79.0772 34.2914 79.6623 34.2914H102.06C102.662 34.2914 103.18 34.6915 103.33 35.2583L105.787 44.227C105.837 44.4438 105.804 44.6605 105.67 44.8439C105.537 45.0272 105.336 45.1273 105.119 45.1439L90.8778 45.6941C90.8778 45.6941 90.8945 45.6941 90.8778 45.6941ZM77.5729 43.7436L90.8778 44.2604L104.183 43.7436L101.976 35.7417H79.7626L77.5729 43.7436Z" fill="#1C3361"/>
<path d="M48.7735 49.0949L50.7626 47.4611L15.4444 4.61774C14.9931 4.06761 14.1741 3.98426 13.6225 4.43437C13.0709 4.88447 12.9873 5.70133 13.4386 6.25146L48.7735 49.0949Z" fill="white"/>
<path d="M48.7735 49.8117C48.7568 49.8117 48.7234 49.8117 48.7066 49.8117C48.5228 49.795 48.3389 49.695 48.2219 49.545L12.9038 6.71824C12.2017 5.86804 12.3187 4.60107 13.1879 3.88424C14.0404 3.18407 15.3107 3.30077 16.0294 4.16764L51.3309 47.011C51.5816 47.3111 51.5314 47.7779 51.2306 48.0279L49.2415 49.6617C49.0911 49.7617 48.9406 49.8117 48.7735 49.8117ZM14.4582 4.8678C14.3245 4.8678 14.2075 4.91781 14.0905 5.00117C13.8398 5.20121 13.8063 5.56797 14.0069 5.80136L48.8738 48.0779L49.7597 47.3611L14.8928 5.08452C14.7758 4.95116 14.6087 4.8678 14.4582 4.8678Z" fill="#1C3361"/>
<path d="M47.9879 53.0124H54.4899V47.1444C54.4899 46.811 54.2225 46.5443 53.8882 46.5443H48.6064C48.2721 46.5443 48.0046 46.811 48.0046 47.1444V53.0124H47.9879Z" fill="white"/>
<path d="M54.4899 53.7293H48.0046C47.6035 53.7293 47.2859 53.4125 47.2859 53.0124V47.1444C47.2859 46.4109 47.8709 45.8274 48.6063 45.8274H53.8882C54.6236 45.8274 55.2087 46.4109 55.2087 47.1444V53.0124C55.2087 53.4125 54.8911 53.7293 54.4899 53.7293ZM48.7234 52.2956H53.7712V47.2611H48.7234V52.2956Z" fill="#1C3361"/>
<path d="M52.3003 47.2611C51.8991 47.2611 51.5816 46.9444 51.5816 46.5443V0.716835C51.5816 0.316741 51.8991 0 52.3003 0C52.7015 0 53.019 0.316741 53.019 0.716835V46.5276C53.019 46.9277 52.7015 47.2611 52.3003 47.2611Z" fill="#1C3361"/>
<path d="M50.913 8.65203H53.6709C54.0052 8.65203 54.2726 8.3853 54.2726 8.05189V5.88472C54.2726 5.55131 54.0052 5.28458 53.6709 5.28458H50.913C50.5787 5.28458 50.3112 5.55131 50.3112 5.88472V8.03522C50.3112 8.3853 50.5787 8.65203 50.913 8.65203Z" fill="white"/>
<path d="M53.6709 9.36886H50.913C50.1775 9.36886 49.5925 8.78539 49.5925 8.05188V5.88471C49.5925 5.1512 50.1775 4.56773 50.913 4.56773H53.6709C54.4064 4.56773 54.9914 5.1512 54.9914 5.88471V8.03521C55.0081 8.76872 54.4064 9.36886 53.6709 9.36886ZM51.03 7.91852H53.5539V6.0014H51.03V7.91852Z" fill="#1C3361"/>
<path d="M77.4559 42.1766C77.2553 42.1766 77.0381 42.0932 76.9043 41.9098C76.3862 41.2764 56.011 11.8194 53.7043 8.45199C53.4703 8.11858 53.5539 7.68514 53.8882 7.45175C54.2225 7.21836 54.6571 7.30172 54.8911 7.63513C62.6634 18.8711 77.4726 40.2928 78.0242 40.993C78.2749 41.293 78.2248 41.7431 77.9239 42.0099C77.7735 42.1099 77.6063 42.1766 77.4559 42.1766Z" fill="#1C3361"/>
<path d="M50.3112 7.33505C50.2945 7.33505 50.2778 7.33505 50.2611 7.33505L15.0432 5.03451C14.6421 5.00117 14.3412 4.66776 14.3746 4.26767C14.4081 3.86757 14.7424 3.5675 15.1435 3.60084L50.3781 5.90138C50.7793 5.93472 51.0801 6.26814 51.0467 6.66823C51.0133 7.03498 50.6957 7.33505 50.3112 7.33505Z" fill="#1C3361"/>
<path d="M13.4553 18.1042C13.0542 18.1042 12.7366 17.7875 12.7366 17.3874V6.26813C12.7366 5.86804 13.0542 5.5513 13.4553 5.5513C13.8565 5.5513 14.1741 5.86804 14.1741 6.26813V17.3874C14.1741 17.7708 13.8565 18.1042 13.4553 18.1042Z" fill="#1C3361"/>
<path d="M11.6335 18.271L11.7672 17.7542C11.8675 17.3708 12.2018 17.0707 12.6029 17.0207L13.4387 16.904L14.2744 17.0207C14.6755 17.0707 14.9931 17.3708 15.1101 17.7542L15.2438 18.271C15.411 18.8711 15.3608 19.4879 15.1268 20.0714L15.06 20.2214C14.9263 20.5382 14.6421 20.7716 14.3078 20.8216L13.4219 20.9883L12.5361 20.8216C12.2018 20.7549 11.9176 20.5215 11.7839 20.2214L11.717 20.0714C11.5165 19.5046 11.483 18.8711 11.6335 18.271Z" fill="white"/>
<path d="M13.4554 21.7051C13.4052 21.7051 13.3718 21.7051 13.3216 21.6884L12.4358 21.5217C11.8507 21.405 11.3827 21.0216 11.1487 20.4882L11.0819 20.3381C10.781 19.6213 10.7309 18.8211 10.9314 18.0876L11.0652 17.5708C11.249 16.904 11.8006 16.4039 12.4859 16.3038L13.3216 16.1871C13.3885 16.1705 13.4554 16.1705 13.5222 16.1871L14.358 16.3038C15.0433 16.4039 15.5948 16.904 15.7787 17.5708L15.9124 18.0876C16.113 18.8378 16.0629 19.638 15.762 20.3381L15.6951 20.4882C15.4778 21.0383 14.9931 21.4217 14.4081 21.5217L13.5222 21.6884C13.5389 21.7051 13.5055 21.7051 13.4554 21.7051ZM12.3355 18.4543C12.2185 18.8878 12.2519 19.3712 12.419 19.788L12.4859 19.938C12.5193 20.0214 12.6029 20.0881 12.7032 20.1214L13.4554 20.2548L14.2075 20.1214C14.3078 20.1047 14.3914 20.038 14.4248 19.938L14.4917 19.788C14.6588 19.3712 14.6922 18.8878 14.5752 18.4543L14.4415 17.9376C14.4081 17.8209 14.3245 17.7375 14.2075 17.7208L13.4721 17.6208L12.7366 17.7208C12.6196 17.7375 12.5193 17.8209 12.5026 17.9376L12.3355 18.4543Z" fill="#1C3361"/>
<path d="M13.0041 26.1895C12.8703 26.1895 12.7366 26.1561 12.6196 26.0728L10.9983 25.0392C10.7309 24.8725 10.5971 24.5224 10.6974 24.2224L11.3159 22.2552C11.3994 22.0052 11.6167 21.8051 11.8675 21.7551L12.7199 21.6051V20.9883C12.7199 20.5882 13.0375 20.2714 13.4386 20.2714C13.8398 20.2714 14.1574 20.5882 14.1574 20.9883V22.2052C14.1574 22.5553 13.9066 22.8554 13.5723 22.9054L12.5528 23.0888L12.2352 24.1223L13.1378 24.6891L14.8427 24.3057L15.0265 23.9056C15.1937 23.5389 15.6115 23.3888 15.9793 23.5389C16.347 23.7056 16.4974 24.1223 16.347 24.4891L16.0127 25.2226C15.9124 25.4226 15.7285 25.5727 15.5113 25.6227L13.1712 26.1728C13.1211 26.1895 13.0709 26.1895 13.0041 26.1895Z" fill="#1C3361"/>
<path d="M23.9522 51.5121H61.46C65.5551 51.5121 68.8813 48.1947 68.8813 44.1104V43.1268H70.302C84.9274 43.1268 99.5361 42.56 114.111 41.4431L114.412 41.8932C115.131 42.9768 115.432 44.2937 115.214 45.5774C115.081 46.4276 114.713 47.2444 114.178 47.9279L108.395 55.263C106.272 57.9636 103.798 60.3642 101.057 62.4147C94.2375 67.5159 85.947 70.2665 77.4225 70.2665H13.4553C10.2294 70.2665 7.08705 69.2829 4.42941 67.4658C2.54065 66.1655 1.25362 64.1651 0.852463 61.9145C0.551598 60.2141 0.76889 58.4804 1.47091 56.9134L3.0588 53.3959H21.8461C22.9326 53.3959 23.8352 52.579 23.9522 51.5121Z" fill="white"/>
<path d="M77.4225 71H13.4553C10.0623 71 6.80289 69.9831 4.01154 68.066C1.97234 66.6656 0.568309 64.4818 0.133726 62.0479C-0.200567 60.1975 0.0334383 58.3304 0.802314 56.6133L2.39021 53.0958C2.50721 52.8457 2.75793 52.679 3.04208 52.679H21.8294C22.5314 52.679 23.1332 52.1456 23.2 51.4454C23.2334 51.0787 23.551 50.7953 23.9187 50.7953H61.4265C65.1205 50.7953 68.1291 47.7946 68.1291 44.1104V43.1268C68.1291 42.7267 68.4467 42.41 68.8478 42.41H70.2686C84.8104 42.41 99.536 41.8432 114.028 40.7262C114.295 40.7096 114.529 40.8262 114.68 41.043L114.98 41.4931C115.816 42.7267 116.134 44.227 115.9 45.6941C115.749 46.661 115.331 47.5945 114.73 48.378L108.946 55.7131C106.79 58.4637 104.266 60.9143 101.475 62.9981C98.015 65.5821 94.1873 67.5825 90.0922 68.9495C86.0138 70.2998 81.7349 71 77.4225 71ZM3.52681 54.1127L2.13949 57.1968C1.48762 58.6471 1.28704 60.2308 1.57119 61.7812C1.93891 63.8317 3.12566 65.6821 4.84727 66.8657C7.38791 68.6161 10.3798 69.5497 13.4721 69.5497H77.4392C85.7464 69.5497 93.9868 66.8157 100.639 61.8312C103.33 59.814 105.754 57.4468 107.843 54.7962L113.627 47.4611C114.095 46.8777 114.395 46.1775 114.512 45.444C114.696 44.3437 114.446 43.2101 113.827 42.2766L113.76 42.1766C99.3689 43.2768 84.7435 43.827 70.3187 43.827H69.6167V44.0937C69.6167 48.5781 65.9562 52.2123 61.4767 52.2123H24.5372C24.1527 53.3125 23.0997 54.096 21.8795 54.096H3.52681V54.1127Z" fill="#1C3361"/>
<path d="M66.6081 52.2289H59.0865C58.6853 52.2289 58.3677 51.9122 58.3677 51.5121C58.3677 51.112 58.6853 50.7953 59.0865 50.7953H66.6081C77.3055 50.7953 88.1032 49.9784 98.6836 48.3947C104.216 47.5612 109.715 46.2442 115.031 44.5105C115.415 44.3938 115.816 44.5938 115.933 44.9606C116.05 45.344 115.85 45.7441 115.482 45.8608C110.083 47.6279 104.517 48.9615 98.9009 49.8117C88.2536 51.4287 77.3891 52.2289 66.6081 52.2289Z" fill="#1C3361"/>
<path d="M62.0282 56.88H67.7948C67.8617 56.88 67.9118 56.83 67.9118 56.7633V55.213C67.9118 55.1463 67.8617 55.0963 67.7948 55.0963H62.0282C61.9614 55.0963 61.9112 55.1463 61.9112 55.213V56.7633C61.9112 56.83 61.9614 56.88 62.0282 56.88Z" fill="#1C3361"/>
<path d="M52.4173 56.88H58.1839C58.2507 56.88 58.3009 56.83 58.3009 56.7633V55.213C58.3009 55.1463 58.2507 55.0963 58.1839 55.0963H52.4173C52.3504 55.0963 52.3003 55.1463 52.3003 55.213V56.7633C52.3003 56.83 52.3504 56.88 52.4173 56.88Z" fill="#1C3361"/>
<path d="M42.8063 56.88H48.5729C48.6398 56.88 48.6899 56.83 48.6899 56.7633V55.213C48.6899 55.1463 48.6398 55.0963 48.5729 55.0963H42.8063C42.7395 55.0963 42.6893 55.1463 42.6893 55.213V56.7633C42.6893 56.83 42.7395 56.88 42.8063 56.88Z" fill="#1C3361"/>
<path d="M33.1954 56.88H38.962C39.0288 56.88 39.079 56.83 39.079 56.7633V55.213C39.079 55.1463 39.0288 55.0963 38.962 55.0963H33.1954C33.1285 55.0963 33.0784 55.1463 33.0784 55.213V56.7633C33.0617 56.83 33.1285 56.88 33.1954 56.88Z" fill="#1C3361"/>
</svg>
